<svg xmlns="http://www.w3.org/2000/svg" xmlns:xlink="http://www.w3.org/1999/xlink" viewBox="0 0 2475 1650"><defs><style>.cls-1{fill:#e2dbc3;}.cls-2{fill:#f2e3b3;}.cls-3{fill:url(#linear-gradient);}.cls-4{fill:#f4f0e1;}.cls-5{fill:url(#linear-gradient-2);}.cls-6{fill:#f74700;}.cls-12,.cls-50,.cls-7{fill:#fff;}.cls-8{fill:#f2a50a;}.cls-9{fill:url(#linear-gradient-3);}.cls-10{opacity:0.6;}.cls-11{fill:url(#linear-gradient-4);}.cls-12{opacity:0.49;}.cls-13{fill:#b5580b;}.cls-14{fill:url(#linear-gradient-5);}.cls-15{fill:url(#linear-gradient-6);}.cls-16{fill:url(#linear-gradient-7);}.cls-17{fill:url(#linear-gradient-8);}.cls-18{fill:url(#linear-gradient-9);}.cls-19{fill:url(#linear-gradient-10);}.cls-20{fill:url(#linear-gradient-11);}.cls-21{fill:url(#linear-gradient-12);}.cls-22{fill:url(#linear-gradient-13);}.cls-23{fill:url(#linear-gradient-14);}.cls-24{fill:url(#linear-gradient-15);}.cls-25{fill:url(#linear-gradient-16);}.cls-26{fill:url(#linear-gradient-17);}.cls-27{fill:url(#linear-gradient-18);}.cls-28{fill:url(#linear-gradient-19);}.cls-29{fill:url(#linear-gradient-20);}.cls-30{fill:url(#linear-gradient-21);}.cls-31{fill:url(#linear-gradient-22);}.cls-32{fill:url(#linear-gradient-23);}.cls-33{fill:url(#linear-gradient-24);}.cls-34{fill:url(#linear-gradient-25);}.cls-35{fill:url(#linear-gradient-26);}.cls-36{fill:url(#linear-gradient-27);}.cls-37{fill:url(#linear-gradient-28);}.cls-38{fill:url(#linear-gradient-29);}.cls-39{fill:url(#linear-gradient-30);}.cls-40{fill:url(#linear-gradient-31);}.cls-41{fill:url(#linear-gradient-32);}.cls-42{fill:url(#linear-gradient-33);}.cls-43{fill:url(#linear-gradient-34);}.cls-44{fill:url(#linear-gradient-35);}.cls-45{fill:url(#linear-gradient-36);}.cls-46{fill:url(#linear-gradient-37);}.cls-47{fill:url(#linear-gradient-38);}.cls-48{fill:url(#linear-gradient-39);}.cls-49{fill:url(#linear-gradient-40);}.cls-50{opacity:0.68;}.cls-51{fill:url(#linear-gradient-41);}.cls-52{fill:url(#linear-gradient-42);}.cls-53{fill:url(#linear-gradient-43);}.cls-54{fill:url(#linear-gradient-44);}.cls-55{fill:url(#linear-gradient-45);}.cls-56{opacity:0.37;}.cls-57{fill:url(#linear-gradient-46);}.cls-58{fill:url(#linear-gradient-47);}.cls-59{fill:url(#linear-gradient-48);}.cls-60{fill:url(#linear-gradient-49);}</style><linearGradient id="linear-gradient" x1="210.63" y1="1102.94" x2="955.07" y2="1102.94" gradientUnits="userSpaceOnUse"><stop offset="0" stop-color="#dae3fe"/><stop offset="1" stop-color="#e9effd"/></linearGradient><linearGradient id="linear-gradient-2" x1="1483.29" y1="1075.17" x2="2140.6" y2="1075.17" xlink:href="#linear-gradient"/><linearGradient id="linear-gradient-3" x1="562.8" y1="570.97" x2="829.06" y2="570.97" xlink:href="#linear-gradient"/><linearGradient id="linear-gradient-4" x1="184.12" y1="680.67" x2="-37.19" y2="1058.4" gradientTransform="translate(424.52 20.97) rotate(-12.95)" gradientUnits="userSpaceOnUse"><stop offset="0" stop-color="#fe7062"/><stop offset="1" stop-color="#ff928e"/></linearGradient><linearGradient id="linear-gradient-5" x1="2145.5" y1="1231.65" x2="1946.76" y2="1891.53" gradientTransform="translate(-1.81 -0.33) rotate(0.06)" gradientUnits="userSpaceOnUse"><stop offset="0" stop-color="#ff928e"/><stop offset="1" stop-color="#feb3b1"/></linearGradient><linearGradient id="linear-gradient-6" x1="1797.48" y1="1363.96" x2="2309.95" y2="1363.96" xlink:href="#linear-gradient"/><linearGradient id="linear-gradient-7" x1="1833.7" y1="1227.18" x2="1634.96" y2="1887.07" xlink:href="#linear-gradient-5"/><linearGradient id="linear-gradient-8" x1="1690.22" y1="1231.67" x2="1491.48" y2="1891.55" xlink:href="#linear-gradient-5"/><linearGradient id="linear-gradient-9" x1="376.53" y1="1403.13" x2="1059.27" y2="1403.13" xlink:href="#linear-gradient"/><linearGradient id="linear-gradient-10" x1="376.53" y1="1424.63" x2="1059.27" y2="1424.63" xlink:href="#linear-gradient"/><linearGradient id="linear-gradient-11" x1="376.53" y1="1446.14" x2="1059.27" y2="1446.14" xlink:href="#linear-gradient"/><linearGradient id="linear-gradient-12" x1="376.53" y1="1467.65" x2="1059.27" y2="1467.65" xlink:href="#linear-gradient"/><linearGradient id="linear-gradient-13" x1="376.53" y1="1489.15" x2="1059.27" y2="1489.15" xlink:href="#linear-gradient"/><linearGradient id="linear-gradient-14" x1="729.49" y1="1216.37" x2="783.83" y2="1155.4" gradientTransform="matrix(1, 0, 0, 1, 0, 0)" xlink:href="#linear-gradient-5"/><linearGradient id="linear-gradient-15" x1="840.98" y1="1097.26" x2="806.98" y2="1135.92" gradientTransform="matrix(1, 0, 0, 1, 0, 0)" xlink:href="#linear-gradient-5"/><linearGradient id="linear-gradient-16" x1="-8018.99" y1="229.39" x2="-7984.55" y2="315.78" gradientTransform="matrix(-0.94, -0.33, -0.33, 0.94, -6834.43, -1959.12)" gradientUnits="userSpaceOnUse"><stop offset="0" stop-color="#e1473d"/><stop offset="1" stop-color="#e9605a"/></linearGradient><linearGradient id="linear-gradient-17" x1="-5844.69" y1="1115.74" x2="-5705.17" y2="1115.74" gradientTransform="matrix(-1, 0, 0, 1, -5269.59, 0)" xlink:href="#linear-gradient-5"/><linearGradient id="linear-gradient-18" x1="637.9" y1="973.64" x2="604.57" y2="1021.64" gradientTransform="matrix(1, 0, 0, 1, 0, 0)" xlink:href="#linear-gradient-5"/><linearGradient id="linear-gradient-19" x1="-8564.77" y1="-3337.1" x2="-8557.44" y2="-3252.44" gradientTransform="matrix(-0.55, -0.84, -0.84, 0.55, -5098.82, -5306.42)" xlink:href="#linear-gradient-5"/><linearGradient id="linear-gradient-20" x1="-8401.26" y1="-1451.72" x2="-8369.16" y2="-1371.18" gradientTransform="matrix(-0.55, -0.84, -0.84, 0.55, -5098.82, -5306.42)" xlink:href="#linear-gradient-16"/><linearGradient id="linear-gradient-21" x1="-8546.81" y1="-3338.67" x2="-8539.48" y2="-3254" gradientTransform="matrix(-0.55, -0.84, -0.84, 0.55, -5098.82, -5306.42)" xlink:href="#linear-gradient-5"/><linearGradient id="linear-gradient-22" x1="1480.33" y1="724.58" x2="864.19" y2="1975.91" gradientTransform="matrix(1, 0, 0, 1, 0, 0)" xlink:href="#linear-gradient-4"/><linearGradient id="linear-gradient-23" x1="1355.6" y1="115.74" x2="1327.6" y2="631.74" gradientTransform="matrix(1, 0, 0, 1, 0, 0)" xlink:href="#linear-gradient-5"/><linearGradient id="linear-gradient-24" x1="1359.22" y1="369.71" x2="1312.83" y2="481.05" gradientTransform="matrix(1, 0, 0, 1, 0, 0)" xlink:href="#linear-gradient-4"/><linearGradient id="linear-gradient-25" x1="1061.34" y1="1167.51" x2="1405.34" y2="475.51" gradientTransform="matrix(1, 0, 0, 1, 0, 0)" xlink:href="#linear-gradient-16"/><linearGradient id="linear-gradient-26" x1="1086.83" y1="1180.18" x2="1430.83" y2="488.18" gradientTransform="matrix(1, 0, 0, 1, 0, 0)" xlink:href="#linear-gradient-16"/><linearGradient id="linear-gradient-27" x1="1113.78" y1="1193.58" x2="1457.78" y2="501.58" gradientTransform="matrix(1, 0, 0, 1, 0, 0)" xlink:href="#linear-gradient-16"/><linearGradient id="linear-gradient-28" x1="1166.83" y1="1219.95" x2="1510.83" y2="527.95" gradientTransform="matrix(1, 0, 0, 1, 0, 0)" xlink:href="#linear-gradient-16"/><linearGradient id="linear-gradient-29" x1="1219.28" y1="1246.02" x2="1563.27" y2="554.02" gradientTransform="matrix(1, 0, 0, 1, 0, 0)" xlink:href="#linear-gradient-16"/><linearGradient id="linear-gradient-30" x1="1139.27" y1="1206.25" x2="1483.27" y2="514.25" gradientTransform="matrix(1, 0, 0, 1, 0, 0)" xlink:href="#linear-gradient-16"/><linearGradient id="linear-gradient-31" x1="1191.71" y1="1232.32" x2="1535.71" y2="540.32" gradientTransform="matrix(1, 0, 0, 1, 0, 0)" xlink:href="#linear-gradient-16"/><linearGradient id="linear-gradient-32" x1="1225.85" y1="1249.29" x2="1569.85" y2="557.29" gradientTransform="matrix(1, 0, 0, 1, 0, 0)" xlink:href="#linear-gradient-16"/><linearGradient id="linear-gradient-33" x1="1251.33" y1="1261.96" x2="1595.33" y2="569.96" gradientTransform="matrix(1, 0, 0, 1, 0, 0)" xlink:href="#linear-gradient-16"/><linearGradient id="linear-gradient-34" x1="1383.78" y1="1327.8" x2="1727.78" y2="635.8" gradientTransform="matrix(1, 0, 0, 1, 0, 0)" xlink:href="#linear-gradient-16"/><linearGradient id="linear-gradient-35" x1="1303.77" y1="1288.03" x2="1647.77" y2="596.03" gradientTransform="matrix(1, 0, 0, 1, 0, 0)" xlink:href="#linear-gradient-16"/><linearGradient id="linear-gradient-36" x1="1356.21" y1="1314.1" x2="1700.21" y2="622.1" gradientTransform="matrix(1, 0, 0, 1, 0, 0)" xlink:href="#linear-gradient-16"/><linearGradient id="linear-gradient-37" x1="1276.18" y1="1274.31" x2="1620.18" y2="582.31" gradientTransform="matrix(1, 0, 0, 1, 0, 0)" xlink:href="#linear-gradient-16"/><linearGradient id="linear-gradient-38" x1="1176.83" y1="1507.07" x2="1408.83" y2="959.07" gradientTransform="matrix(1, 0, 0, 1, 0, 0)" xlink:href="#linear-gradient-4"/><linearGradient id="linear-gradient-39" x1="1340.42" y1="1576.33" x2="1572.42" y2="1028.33" gradientTransform="matrix(1, 0, 0, 1, 0, 0)" xlink:href="#linear-gradient-4"/><linearGradient id="linear-gradient-40" x1="1710.98" y1="2.3" x2="1534.04" y2="352.21" gradientTransform="matrix(1, 0, 0, 1, 0, 0)" xlink:href="#linear-gradient-16"/><linearGradient id="linear-gradient-41" x1="-1282.4" y1="969.38" x2="-1264.02" y2="969.38" gradientTransform="matrix(-1, 0, 0, 1, 685.59, 0)" xlink:href="#linear-gradient-5"/><linearGradient id="linear-gradient-42" x1="-1399.23" y1="954.06" x2="-1377.27" y2="954.06" gradientTransform="matrix(-1, 0, 0, 1, 685.59, 0)" xlink:href="#linear-gradient-5"/><linearGradient id="linear-gradient-43" x1="-1298.61" y1="633.91" x2="-1376.8" y2="703.15" gradientTransform="matrix(-1, 0, 0, 1, 685.59, 0)" xlink:href="#linear-gradient-5"/><linearGradient id="linear-gradient-44" x1="-1152.04" y1="640.46" x2="-1090.46" y2="640.46" gradientTransform="matrix(-1, 0, 0, 1, 685.59, 0)" xlink:href="#linear-gradient-5"/><linearGradient id="linear-gradient-45" x1="-1211.89" y1="475.91" x2="-1212.56" y2="590.9" gradientTransform="matrix(-1, 0, 0, 1, 685.59, 0)" xlink:href="#linear-gradient-5"/><linearGradient id="linear-gradient-46" x1="-1455.13" y1="1848.04" x2="-1511.73" y2="1922.92" gradientTransform="matrix(-0.99, -0.14, -0.14, 0.99, 683.92, -1579.8)" xlink:href="#linear-gradient-5"/><linearGradient id="linear-gradient-47" x1="-1538.03" y1="1907.34" x2="-1492.63" y2="1860.76" gradientTransform="matrix(-0.99, -0.14, -0.14, 0.99, 683.92, -1579.8)" xlink:href="#linear-gradient-5"/><linearGradient id="linear-gradient-48" x1="-1267.73" y1="668.78" x2="-1345.92" y2="738.02" gradientTransform="matrix(-1, 0, 0, 1, 685.59, 0)" xlink:href="#linear-gradient-5"/><linearGradient id="linear-gradient-49" x1="-1097" y1="633.23" x2="-1074.95" y2="633.23" gradientTransform="matrix(-1, 0, 0, 1, 685.59, 0)" xlink:href="#linear-gradient-5"/></defs><g id="Illustration"><path class="cls-1" d="M557.74,156.59c-168.15,139,56.63,317.34-59.82,395.22s-598.72,229.74-113.06,531,499,500.93,845.71,310.16,321.8-225,607.11-96.08,583.51-71.69,482.12-309.82-165.94-235.17-50.17-387.25-65.27-572.92-463.8-247.69-648,82.42-691.75-39.21S823.47-63,557.74,156.59Z"/><path class="cls-2" d="M123.23,773.28c116.86,7.38,795.17,78.11,843.14,726.55,0,0-458.55,68.39-852.63-712.22A9.9,9.9,0,0,1,123.23,773.28Z"/><path class="cls-3" d="M213.07,849.23c33.47,16.75,66.56,34.17,99.51,51.89s65.67,35.84,98.19,54.33c65,37,129.26,75.41,192.27,115.81S727.85,1154,787.27,1199.62q44.67,34.07,86.8,71.41c28,24.93,55.08,51,80,79.2a4,4,0,0,1-6,5.27l0,0h0c-24.49-28-51.23-54-78.94-78.94s-56.47-48.74-86-71.52c-59-45.76-120.49-88.3-183.14-129S473.31,996.64,408.53,959.37q-48.6-28-97.83-54.79c-32.82-17.86-65.82-35.45-99.13-52.34h0a1.69,1.69,0,0,1,1.52-3Z"/><path class="cls-4" d="M2343.3,204.36a11.57,11.57,0,0,0-14.84-13.5c-130.05,41.79-876.93,315.84-745.66,1062.9C1582.8,1253.76,2121,1199.92,2343.3,204.36Z"/><path class="cls-2" d="M2251,305.22c-32.86,28.62-65.16,57.95-97.18,87.53s-63.69,59.58-95,89.92-62.28,61-92.87,92.1-60.66,62.62-90.35,94.54c-59.24,63.93-116.66,129.62-170.32,198.25q-40.39,51.33-76.91,105.51c-24.22,36.12-47,73.22-66.77,111.9h0a4,4,0,1,1-7.08-3.61v0c20.09-39,43.23-76.21,67.74-112.41s50.5-71.38,77.67-105.58c54.12-68.6,111.92-134.15,171.53-197.91q44.8-47.75,90.87-94.25t93.35-91.78q47.22-45.35,95.47-89.57c32.18-29.47,64.6-58.65,97.65-87.18a1.68,1.68,0,1,1,2.2,2.55Z"/><path class="cls-2" d="M2218.93,760.7c-96.94,5.8-662,66.5-756.76,694.92,0,0,372.1,71.69,763.37-680.91C2229,768.13,2225.27,760.32,2218.93,760.7Z"/><path class="cls-5" d="M2139.72,836.27c-29.56,16.37-58.8,33.39-87.87,50.66s-57.92,34.91-86.57,52.88c-57.26,36-113.76,73.16-169,112.15q-41.49,29.14-81.83,59.85c-6.69,5.14-13.48,10.18-20.1,15.42l-19.93,15.64c-6.62,5.25-13.14,10.62-19.71,15.92-3.27,2.67-6.58,5.29-9.82,8l-9.7,8.14c-13,10.76-25.66,21.94-38.38,33-12.47,11.37-25,22.63-37.11,34.41-24.3,23.38-47.73,47.67-69.39,73.42v0a4,4,0,0,1-6.09-5.12v0c22-25.92,45.8-50.25,70.38-73.64,12.22-11.78,24.91-23,37.51-34.38,12.84-11.07,25.6-22.23,38.73-33l9.78-8.11c3.26-2.7,6.6-5.32,9.89-8,6.63-5.28,13.2-10.62,19.86-15.85l20.08-15.58c6.67-5.22,13.5-10.22,20.24-15.35q40.62-30.52,82.34-59.51c55.55-38.74,112.33-75.66,169.86-111.35q43.15-26.73,86.95-52.44c29.2-17.12,58.53-34,88.26-50.22a1.68,1.68,0,1,1,1.62,3Z"/><path class="cls-6" d="M426.43,506.27a71.47,71.47,0,0,1,53.64-85.67L1072.4,284.41a63,63,0,0,1,74.68,44.15l241.17,848.72a46.42,46.42,0,0,1-33.43,57.75L678.76,1403.46a44.08,44.08,0,0,1-53.61-32.89Z"/><path class="cls-7" d="M688.37,1383.94a48.45,48.45,0,0,1-47.06-37.4l-26.37-114.69a2,2,0,1,1,3.87-.9l26.37,114.7A44.41,44.41,0,0,0,697.65,1379l76.18-16.49a2,2,0,0,1,.85,3.89l-76.19,16.48A47.41,47.41,0,0,1,688.37,1383.94Z"/><path class="cls-7" d="M608.7,1197.86a2,2,0,0,1-1.93-1.54l-4.27-18.57a2,2,0,1,1,3.87-.9l4.27,18.58a2,2,0,0,1-1.49,2.38A1.73,1.73,0,0,1,608.7,1197.86Z"/><path class="cls-8" d="M462,438.68a20.76,20.76,0,0,1,18.31-25.46c83.41-7.63,369.36-37.66,595.28-108.19a19.19,19.19,0,0,1,24.2,13L1344,1170.1a22.08,22.08,0,0,1-15,27.29c-95.4,28-488.65,141.68-634.15,159.47a17.51,17.51,0,0,1-19.15-13.37Z"/><path class="cls-2" d="M476.48,458.1a20,20,0,0,1,17.62-24.5c80.27-7.34,355.45-36.24,572.86-104.11a18.48,18.48,0,0,1,23.3,12.52l235,820a21.26,21.26,0,0,1-14.46,26.26c-91.81,26.91-470.25,136.34-610.27,153.46a16.86,16.86,0,0,1-18.43-12.87Z"/><path class="cls-9" d="M572.8,490.09a12.35,12.35,0,0,0-9.55,15.44L612.44,681.6a11.61,11.61,0,0,0,13.46,8.27c33.18-6.65,136.46-27.76,193.75-44.12a13,13,0,0,0,9.16-15c-6.57-33.63-26.48-131.33-43.42-170.19a14.64,14.64,0,0,0-16.21-8.49Z"/><circle class="cls-8" cx="689.99" cy="543.39" r="39.26" transform="translate(-182.14 647.05) rotate(-45)"/><path class="cls-8" d="M646.06,655.41a10.11,10.11,0,0,0,11.64,13.66l121.88-28a9.68,9.68,0,0,0,4.59-16.37C770.09,610.86,743,592,705.69,601.74,669.77,611.09,653.28,637.51,646.06,655.41Z"/><g class="cls-10"><path class="cls-7" d="M1057.26,408.26a3.88,3.88,0,0,0,2.89-4.77l-1.08-4.12a4.24,4.24,0,0,0-4.92-3l-220.61,46.6a2.61,2.61,0,0,0-1.78,4.21l5,7.94a6.06,6.06,0,0,0,6,2.48Z"/></g><g class="cls-10"><path class="cls-7" d="M841.16,476.11a2.6,2.6,0,0,0-1.77,4.21l5,7.94a6.07,6.07,0,0,0,6,2.48l214.43-49.3a3.89,3.89,0,0,0,2.89-4.77l-1.08-4.12a4.23,4.23,0,0,0-4.92-3Z"/></g><g class="cls-10"><path class="cls-7" d="M848.9,509.77a2.6,2.6,0,0,0-1.77,4.21l5,7.94a6.07,6.07,0,0,0,6,2.48l214.43-49.3a3.89,3.89,0,0,0,2.89-4.77l-1.08-4.12a4.23,4.23,0,0,0-4.92-3Z"/></g><g class="cls-10"><path class="cls-7" d="M1130.7,632.65a3.7,3.7,0,0,0,2.75-4.73l-1.23-4.09a4.4,4.4,0,0,0-5.06-3L619.68,733.34c-2.15.48-2.5,2-.78,3.36l10.16,8.08a9.42,9.42,0,0,0,7,1.6Z"/></g><g class="cls-10"><path class="cls-7" d="M627.31,766.52c-2.15.47-2.5,2-.78,3.36L636.68,778a9.4,9.4,0,0,0,7,1.59l494.62-113.72a3.71,3.71,0,0,0,2.75-4.73l-1.23-4.1a4.39,4.39,0,0,0-5.06-3Z"/></g><path class="cls-7" d="M679.91,888.91a11.64,11.64,0,0,1-11.25-7.52L656.8,846.8a8.24,8.24,0,0,1,.51-6.46,9.85,9.85,0,0,1,5.92-4.84h0c3.51-1.06,8.32-2.61,13.61-4.31,11.53-3.7,24.6-7.9,32.41-9.8,5.76-1.4,11.55,1,14.1,5.71,4.09,7.67,7.44,23.14,10.8,39.67,1.13,5.56-2.89,11.18-9,12.52l-42.33,9.3A13.5,13.5,0,0,1,679.91,888.91Zm-15.52-49.6a5.82,5.82,0,0,0-3.54,2.84,4.26,4.26,0,0,0-.29,3.36l11.87,34.59c1.22,3.56,5.33,5.54,9.56,4.61l42.34-9.31c4-.87,6.62-4.39,5.92-7.84-3.29-16.23-6.57-31.39-10.41-38.59-1.66-3.11-5.72-4.68-9.65-3.72-7.67,1.86-21.24,6.22-32.14,9.73-5.31,1.71-10.14,3.26-13.66,4.33Z"/><g class="cls-10"><path class="cls-7" d="M754.29,833.57a2.93,2.93,0,0,0-2,4.43l6.7,12.74a5.42,5.42,0,0,0,5.75,2.61l388.23-93.56a4,4,0,0,0,2.91-4.81l-2-7.92a4.13,4.13,0,0,0-4.88-3Z"/></g><path class="cls-11" d="M672.75,846.75h0a6.66,6.66,0,0,1,9.51.38l11.76,13a2.14,2.14,0,0,0,3.68-1l10.09-50.75a2.37,2.37,0,0,1,4.64,0c3,14.12,5.44,41.73-11.9,69.29,0,0-13.5-2-28.51-21.59A7,7,0,0,1,672.75,846.75Z"/><path class="cls-7" d="M700.73,979.44a11.63,11.63,0,0,1-11.25-7.52l-11.86-34.59a8.2,8.2,0,0,1,.5-6.46,9.84,9.84,0,0,1,5.93-4.84h0c3.5-1.06,8.31-2.61,13.6-4.31,11.53-3.7,24.6-7.9,32.42-9.8,5.76-1.4,11.55,1,14.09,5.71,4.09,7.67,7.45,23.14,10.81,39.67,1.13,5.57-2.9,11.18-9,12.52l-42.34,9.3A13.41,13.41,0,0,1,700.73,979.44Zm-15.53-49.6a5.82,5.82,0,0,0-3.54,2.84,4.3,4.3,0,0,0-.28,3.36l11.86,34.59c1.22,3.56,5.33,5.54,9.57,4.61l42.33-9.31c4-.87,6.63-4.39,5.93-7.84-3.3-16.23-6.58-31.39-10.42-38.58-1.66-3.12-5.72-4.68-9.64-3.73-7.68,1.87-21.24,6.23-32.14,9.73-5.32,1.71-10.15,3.26-13.67,4.33Z"/><path class="cls-2" d="M690.49,932.14c8.74-2.65,27.57-9,36.69-11.26,3.87-.94,7.81.62,9.49,3.78,3.26,6.12,6,19.18,8.48,31.26.73,3.62-1.91,7.25-5.95,8.14l-33.83,7.43c-4.16.92-8.26-1.12-9.5-4.72l-9.47-27.64C685.41,936.28,687.25,933.12,690.49,932.14Z"/><g class="cls-10"><path class="cls-7" d="M775.1,924.1a2.93,2.93,0,0,0-2,4.43l6.7,12.74a5.43,5.43,0,0,0,5.75,2.61l388.24-93.55a4,4,0,0,0,2.9-4.82l-2-7.92a4.13,4.13,0,0,0-4.88-3Z"/></g><path class="cls-7" d="M721.55,1070a11.63,11.63,0,0,1-11.25-7.53l-11.87-34.59a8.24,8.24,0,0,1,.51-6.46,9.85,9.85,0,0,1,5.92-4.84c3.51-1.06,8.31-2.6,13.6-4.3,11.53-3.71,24.61-7.91,32.42-9.81,5.76-1.4,11.55.95,14.1,5.71,4.09,7.68,7.44,23.14,10.8,39.67,1.13,5.57-2.89,11.18-9,12.52l-42.33,9.3A13.5,13.5,0,0,1,721.55,1070ZM706,1020.37a5.82,5.82,0,0,0-3.54,2.84,4.27,4.27,0,0,0-.29,3.36l11.87,34.59c1.22,3.56,5.34,5.54,9.57,4.61l42.33-9.31c4-.87,6.62-4.39,5.92-7.84-3.29-16.23-6.57-31.39-10.41-38.58-1.66-3.12-5.72-4.69-9.65-3.73-7.67,1.87-21.24,6.23-32.14,9.73-5.32,1.71-10.14,3.26-13.66,4.33Z"/><path class="cls-2" d="M711.31,1022.67c8.73-2.65,27.57-9,36.69-11.26,3.86-.93,7.8.62,9.48,3.78,3.27,6.12,6,19.18,8.48,31.26.74,3.62-1.91,7.25-6,8.14L726.18,1062c-4.16.91-8.26-1.13-9.49-4.73l-9.48-27.63C706.23,1026.81,708.07,1023.65,711.31,1022.67Z"/><g class="cls-10"><path class="cls-7" d="M795.92,1014.63a2.93,2.93,0,0,0-2,4.43l6.7,12.75a5.43,5.43,0,0,0,5.75,2.6l388.23-93.55a4,4,0,0,0,2.91-4.82l-2-7.92a4.13,4.13,0,0,0-4.88-3Z"/></g><path class="cls-7" d="M742.36,1160.51a11.64,11.64,0,0,1-11.25-7.53l-11.86-34.59a8.2,8.2,0,0,1,.5-6.46,9.87,9.87,0,0,1,5.93-4.84c3.5-1.06,8.31-2.6,13.6-4.3,11.53-3.71,24.6-7.91,32.42-9.81,5.75-1.4,11.55,1,14.09,5.72,4.09,7.67,7.45,23.13,10.81,39.66,1.13,5.57-2.9,11.18-9,12.52l-42.33,9.3A13.59,13.59,0,0,1,742.36,1160.51Zm-15.53-49.61a5.87,5.87,0,0,0-3.54,2.84,4.31,4.31,0,0,0-.28,3.36l11.86,34.59c1.22,3.56,5.34,5.54,9.57,4.61l42.33-9.3c4-.88,6.63-4.4,5.93-7.85-3.3-16.22-6.58-31.38-10.42-38.58-1.66-3.12-5.71-4.68-9.64-3.73-7.68,1.87-21.25,6.23-32.15,9.73-5.31,1.71-10.14,3.26-13.66,4.33Z"/><path class="cls-2" d="M732.12,1113.2c8.74-2.64,27.57-9,36.69-11.25,3.87-.94,7.81.62,9.49,3.77,3.26,6.12,6,19.18,8.48,31.26.73,3.62-1.91,7.25-5.95,8.14L747,1152.56c-4.16.91-8.26-1.13-9.49-4.72L728,1120.2C727.05,1117.34,728.89,1114.18,732.12,1113.2Z"/><g class="cls-10"><path class="cls-7" d="M816.74,1105.16a2.92,2.92,0,0,0-2,4.43l6.69,12.75a5.42,5.42,0,0,0,5.75,2.6l388.24-93.55a4,4,0,0,0,2.9-4.82l-2-7.92a4.13,4.13,0,0,0-4.88-3Z"/></g><path class="cls-6" d="M786.05,227c-24.82-10-43.36-5.4-55.56,1.48a26.8,26.8,0,0,0-12.24,31.73l19.82,60.35L806.65,311S834.72,246.51,786.05,227ZM767.93,283.5a17.2,17.2,0,1,1,12.9-20.61A17.2,17.2,0,0,1,767.93,283.5Z"/><path class="cls-4" d="M738.45,293.42a2,2,0,0,1-1.89-1.37l-3.16-9.61a2,2,0,0,1,3.78-1.24l3.16,9.61a2,2,0,0,1-1.27,2.51A2,2,0,0,1,738.45,293.42Zm-6.19-18.83a2,2,0,0,1-1.89-1.37l-2.39-7.3a25.91,25.91,0,0,1,11.81-30.61,51.87,51.87,0,0,1,24.48-6.7,2,2,0,1,1,.1,4,48,48,0,0,0-22.63,6.18,22,22,0,0,0-10,25.91l2.4,7.3a2,2,0,0,1-1.27,2.51A2.17,2.17,0,0,1,732.26,274.59Z"/><path class="cls-6" d="M655.5,381.46l-7.12-31a19.41,19.41,0,0,1,15.21-23.4L879,285.25a18.89,18.89,0,0,1,21.71,13.21l8.63,29.37Z"/><path class="cls-4" d="M716.83,327.4a2,2,0,0,1-.44-3.93l9.19-2.11a2,2,0,0,1,.89,3.88l-9.19,2.11A2.3,2.3,0,0,1,716.83,327.4Z"/><path class="cls-4" d="M664.46,369.43a2,2,0,0,1-1.94-1.54l-2.88-12.54a18.36,18.36,0,0,1,13.77-22l33.79-7.76a2,2,0,0,1,.89,3.87l-33.79,7.77a14.38,14.38,0,0,0-10.79,17.23L666.4,367a2,2,0,0,1-1.5,2.38A1.7,1.7,0,0,1,664.46,369.43Z"/><path class="cls-8" d="M585.94,385.51l373.67-85.93a28.33,28.33,0,0,1,32.48,16.65l.74,1.76a24.33,24.33,0,0,1-17,33.13L592.47,439.27a15.82,15.82,0,0,1-19.12-12.62l-3.12-17.35A20.66,20.66,0,0,1,585.94,385.51Z"/><path class="cls-8" d="M1939.7,1551h0c-26,0-47-28.15-47-62.82l.43-449.2,104.42.1-10.73,449.19C1986.79,1522.91,1965.69,1551,1939.7,1551Z"/><path class="cls-12" d="M1939.72,1536.25c-19.87,0-36-21.59-36-48.09l.43-449.2,82,.08-10.39,449v.22C1975.77,1514.73,1959.58,1536.27,1939.72,1536.25Z"/><path class="cls-8" d="M1997.5,1049.84l-105.81-.1c-8.55,0-15.47-9.26-15.46-20.66h0c0-11,6.45-20,14.67-20.61l105.82-7.48c8.86-.63,16.3,8.79,16.29,20.63v7.59C2013,1040.61,2006.05,1049.85,1997.5,1049.84Z"/><path class="cls-13" d="M1904,1244l-.23,244.21c0,26.5,16.12,48.08,36,48.09s36-21.52,36.07-48V1488l5.65-244Z"/><path class="cls-8" d="M2100.74,1551.12h0c-26,0-47-28.15-47-62.81l.43-449.21,104.42.1-10.73,449.2C2147.83,1523.06,2126.73,1551.15,2100.74,1551.12Z"/><path class="cls-12" d="M2100.75,1536.41c-19.86,0-36-21.59-36-48.09l.43-449.2,82,.07-10.38,449v.22C2136.81,1514.88,2120.62,1536.43,2100.75,1536.41Z"/><path class="cls-8" d="M2158.54,1050l-105.81-.1c-8.55,0-15.47-9.26-15.46-20.66h0c0-11,6.45-20,14.66-20.6l105.82-7.49c8.87-.62,16.31,8.8,16.29,20.63v7.59C2174,1040.76,2167.09,1050,2158.54,1050Z"/><path class="cls-14" d="M2065,1244.1l-.23,244.22c0,26.5,16.12,48.07,36,48.09s36.06-21.53,36.08-48v-.22l5.64-244Z"/><path class="cls-2" d="M2373.75,1254.13c-61.52-17-425.79-99.19-618.12,271.47,0,0,216.17,123.57,619.25-261.35C2378.4,1260.88,2377.77,1255.24,2373.75,1254.13Z"/><path class="cls-15" d="M2308.54,1284.88c-43.67,8-87.14,17.33-130.37,27.53s-86.22,21.47-128.8,34q-31.95,9.36-63.53,19.93t-62.6,22.5c-10.36,3.94-20.58,8.22-30.83,12.43-10.15,4.43-20.33,8.77-30.32,13.54a630.93,630.93,0,0,0-58.56,30.94l0,0a4,4,0,0,1-4.12-6.81l0,0a638.25,638.25,0,0,1,59.57-30.83c10.12-4.72,20.42-9,30.69-13.39,10.35-4.14,20.67-8.37,31.13-12.23q31.28-11.83,63.08-22.07t63.9-19.44c42.81-12.25,86-23.09,129.36-33s87-18.84,130.83-26.45a1.68,1.68,0,0,1,.59,3.31Z"/><path class="cls-4" d="M2008.68,1175.52c-39.58,11.87-267.68,92.17-245.57,361.68,0,0,161.1-6.64,249.67-356.52C2013.56,1177.62,2011.27,1174.75,2008.68,1175.52Z"/><path class="cls-2" d="M1983.9,1215.28c-21.15,19.43-41.72,39.58-61.86,60.09s-39.78,41.53-58.75,63.12q-14.25,16.15-27.88,32.83t-26.47,33.91c-8.56,11.5-16.79,23.23-24.47,35.28a407.59,407.59,0,0,0-21.31,37.06v0A4,4,0,1,1,1756,1474l0,0a413.79,413.79,0,0,1,22.22-37.49c8-12.12,16.43-23.87,25.21-35.35s17.81-22.76,27.12-33.8,18.77-21.93,28.46-32.62c19.33-21.42,39.33-42.19,59.77-62.53s41.31-40.18,62.81-59.43a1.69,1.69,0,0,1,2.27,2.5Z"/><path class="cls-8" d="M1789,1546.35h0c-26,0-47-28.15-47-62.82l.43-449.2,104.41.1-10.72,449.19C1836,1518.29,1814.94,1546.37,1789,1546.35Z"/><path class="cls-12" d="M1789,1531.63c-19.87,0-36-21.59-36-48.09l.43-449.2,82,.08-10.38,449v.23C1825,1510.11,1808.83,1531.65,1789,1531.63Z"/><path class="cls-8" d="M1846.74,1045.22l-105.81-.1c-8.55,0-15.47-9.26-15.46-20.66h0c0-11,6.46-20,14.67-20.61L1846,996.37c8.86-.63,16.3,8.79,16.29,20.63v7.59C1862.23,1036,1855.29,1045.23,1846.74,1045.22Z"/><path class="cls-16" d="M1753.21,1239.33l-.23,244.21c0,26.5,16.11,48.07,36,48.09s36-21.52,36.08-48v-.23l5.64-244Z"/><path class="cls-8" d="M1645.46,1550.69h0c-26,0-47-28.15-47-62.82l.43-449.2,104.41.1L1692.58,1488C1692.55,1522.63,1671.45,1550.71,1645.46,1550.69Z"/><path class="cls-12" d="M1645.47,1536c-19.87,0-36-21.59-36-48.09l.43-449.2,82,.08-10.38,449v.23C1681.52,1514.45,1665.34,1536,1645.47,1536Z"/><path class="cls-8" d="M1703.26,1049.56l-105.82-.1c-8.55,0-15.47-9.26-15.46-20.66h0c0-11,6.46-20,14.67-20.61l105.82-7.48c8.86-.63,16.3,8.79,16.29,20.63v7.59C1718.74,1040.33,1711.81,1049.57,1703.26,1049.56Z"/><path class="cls-17" d="M1609.72,1243.66l-.23,244.22c0,26.5,16.11,48.07,36,48.09s36-21.52,36.08-48v-.23l5.64-244Z"/><path class="cls-2" d="M353.45,1518.29h723.91V1373.4H353.45C368.94,1373.4,368.94,1518.29,353.45,1518.29Z"/><path class="cls-13" d="M1077.36,1482v-66.31c0-23.37-14.3-42.32-31.95-42.32h-713a1,1,0,0,1-1-1v-30.76a1,1,0,0,1,1-1h759.56c17.27,0,44.68,27.14,44.68,60.63v92.61c0,31.57-26.61,57.17-42.89,57.17H332.37a1,1,0,0,1-1-1v-30.76a1,1,0,0,1,1-1H1050C1065.11,1518.29,1077.36,1502.05,1077.36,1482Z"/><path class="cls-18" d="M1057.28,1405.11H378.52a2,2,0,1,1,0-4h678.76a2,2,0,1,1,0,4Z"/><path class="cls-19" d="M1057.28,1426.62H378.52a2,2,0,1,1,0-4h678.76a2,2,0,1,1,0,4Z"/><path class="cls-20" d="M1057.28,1448.13H378.52a2,2,0,0,1,0-4h678.76a2,2,0,0,1,0,4Z"/><path class="cls-21" d="M1057.28,1469.63H378.52a2,2,0,1,1,0-4h678.76a2,2,0,1,1,0,4Z"/><path class="cls-22" d="M1057.28,1491.14H378.52a2,2,0,0,1,0-4h678.76a2,2,0,1,1,0,4Z"/><rect class="cls-8" x="421.95" y="1193.21" width="584.74" height="146.96" rx="21.39"/><rect class="cls-4" x="488.03" y="1210.1" width="68.69" height="113.18"/><rect class="cls-4" x="566.83" y="1210.1" width="25.77" height="113.18"/><path class="cls-23" d="M799.11,1292.15c-.16-.07-89-155.64-101-170.28a9.29,9.29,0,0,0-8.3-3.34l-24.8,3-29.13,63,48.53-28.26c-4.8,33.21,57.54,82.57,78.92,100.58a4.91,4.91,0,0,1,.39,7.15l-8.54,8.93c14,14.21,30.19,23.33,48.44,27.55Z"/><path class="cls-6" d="M760.11,1268.08s-5.45,1.76-7.29,6.61a5.56,5.56,0,0,0,2.09,6.4c9,6.43,38.56,27.18,52.21,31.24a1.54,1.54,0,0,0,1.93-1.82c-.7-3.17-3-9.51-10.27-18.78l.66,1.33a1.9,1.9,0,0,1-2.63,2.5C787.68,1290.4,769.08,1279.12,760.11,1268.08Z"/><path class="cls-24" d="M764.51,1330.33c-.15-.1-13.48-32.21-13.63-32.3-12.22-74.41-42-138.13-50.83-154.9a9.29,9.29,0,0,0-7.46-5l-24.88-2.12-41.28,55.82L679.68,1174c-11.43,31.55,39.64,92.5,56.93,114.47a4.9,4.9,0,0,1-1.07,7.08l-10.16,7c10.84,16.75,24.83,29,41.85,36.78Z"/><path class="cls-6" d="M731.19,1298.87s-5.69.62-8.48,5a5.54,5.54,0,0,0,.75,6.69c7.48,8.11,32.26,34.41,44.81,41.16a1.55,1.55,0,0,0,2.26-1.39c0-3.25-1-9.91-6.26-20.47l.38,1.43a1.9,1.9,0,0,1-3.08,1.92C753.67,1326.31,737.73,1311.49,731.19,1298.87Z"/><path class="cls-13" d="M551.25,1124.3s-22.51,33.48-24.36,48.75,6.23,20.55,29.79,22.5c70.1,5.8,104.66-15.21,104.66-15.21,4.8-30.58,8.21-38.36,48.26-55,0,0-50.66,4-60.86.07S551.25,1124.3,551.25,1124.3Z"/><path class="cls-25" d="M641,936.74s-15.67-18.55-32.34,4.21c-3,4.12-14.61.72-18.86,9.35A11,11,0,0,1,578,956.38c-12.16-2.24-32-2.43-41.86,16.63-7.49,14.54-1.7,23.06,5.79,27.91a12.27,12.27,0,0,1,4.13,16.45c-3.19,5.42-3.79,12.75,4.45,21.58,18.46,19.79,55-12.55,55-12.55l29-68.56Z"/><path class="cls-13" d="M612.12,1119.87s26.21-25,39.11-41.49a35.06,35.06,0,0,0,5.94-31.56c-5.89-19.85-16.36-40.4-17.31-43.6-1.47-4.9-30.86-4.7-30.86-4.7s-57.83,37.53-80.55,101.11l25.52,7.95s15.1-25.34,30-41.44c0,0-25.82,34.1-26.73,48.06Z"/><path class="cls-26" d="M662.06,1129.72l-19.7-21.43-22.74,6.13s-26.52,4.1-41.7,0l-15.17-4.11-34.3-10.68-5.39,15.22a9.17,9.17,0,0,0,3.35,10.53,61,61,0,0,0,8.66,5.4c4.52,2,104,.62,104,.62Z"/><path class="cls-27" d="M629.2,963.18l-19.75,36.73c1.3,8,21.5,8.25,24.62,3.46a4.7,4.7,0,0,0,.62-1.62l11.81-24.54c.51-2.4-6-10.46-8.21-11.61l-7.85-4.18C627.42,959.81,640,959.69,629.2,963.18Z"/><path class="cls-28" d="M669.18,954.56s2.23,12.41-7.53,28.19-19.46,15.07-24.4,9.44-10.84-15-8.15-30.74S665.81,938.74,669.18,954.56Z"/><path class="cls-29" d="M640.9,963.16s15.8-20.74,27.92-2.66l-.2,6.25s15.77-.74,14.06-15.27S668.09,927,650.25,932,622,942.61,620,955s8.1,10.36,8.1,10.36,3.87-8.55,8.53-9.13,3,6.18,3,6.18Z"/><path class="cls-30" d="M637.28,962.61s8.18-10.61.73-12.82-7.16,10.4-6.68,15.09Z"/><path class="cls-6" d="M596.87,1138.2h.2l90.59-.09a4.06,4.06,0,0,0,0-8.11l-90.58.1a4.05,4.05,0,0,0-.2,8.1Z"/><path class="cls-6" d="M769.09,1056H693.65a14.37,14.37,0,0,0-13,8.25l-34.88,74h93.75a8.74,8.74,0,0,0,8.13-5.53l27.05-68.43A6,6,0,0,0,769.09,1056Z"/><path class="cls-8" d="M716,1093.87c-1.64,5.08-.43,10,2.69,11s7-2.3,8.62-7.38.43-10-2.7-11S717.58,1088.79,716,1093.87Z"/><path class="cls-6" d="M1635.59,814.41a164.13,164.13,0,0,0-164.13-164.13H1134.57A164.12,164.12,0,0,0,970.45,814.41v644.88a91.62,91.62,0,0,0,91.62,91.62H1544a91.62,91.62,0,0,0,91.62-91.62Z"/><path class="cls-13" d="M1303,807.35a140,140,0,0,0,139.11-157.07H1163.9a142.92,142.92,0,0,0-1.05,16.9A140.17,140.17,0,0,0,1303,807.35Z"/><path class="cls-4" d="M1246.54,430.52l.81,365.31a140.27,140.27,0,0,0,111.34,0l-.81-365.31a34.71,34.71,0,0,0-34.72-34.72h-41.9A34.72,34.72,0,0,0,1246.54,430.52Z"/><path class="cls-8" d="M1321.31,395.8H1279.4a34.71,34.71,0,0,0-34.71,34.72V600.58H1356V430.52A34.71,34.71,0,0,0,1321.31,395.8Z"/><path class="cls-31" d="M1090.58,831.2h424.88a48,48,0,0,1,48,48v411a48,48,0,0,1-48,48H1090.58a48,48,0,0,1-48-48v-411A48,48,0,0,1,1090.58,831.2Z"/><rect class="cls-32" x="1062.45" y="851.08" width="481.13" height="467.21" rx="28.12"/><path class="cls-33" d="M1333.16,515.09c0,36.23-14.69,55.67-32.8,55.67s-32.81-19.44-32.81-55.67,14.69-75.55,32.81-75.55S1333.16,478.86,1333.16,515.09Z"/><ellipse class="cls-34" cx="1134.66" cy="1020.02" rx="10.09" ry="55.68"/><ellipse class="cls-35" cx="1200.44" cy="951.64" rx="55.68" ry="10.09"/><ellipse class="cls-36" cx="1134.66" cy="1151.58" rx="10.09" ry="55.68"/><ellipse class="cls-37" cx="1266.22" cy="1020.02" rx="10.09" ry="55.68"/><ellipse class="cls-38" cx="1266.22" cy="1151.58" rx="10.09" ry="55.68"/><ellipse class="cls-39" cx="1200.44" cy="1083.2" rx="55.68" ry="10.09"/><ellipse class="cls-40" cx="1200.44" cy="1214.76" rx="55.68" ry="10.09"/><ellipse class="cls-41" cx="1339.82" cy="1020.02" rx="10.09" ry="55.68"/><ellipse class="cls-42" cx="1405.6" cy="951.64" rx="55.68" ry="10.09"/><ellipse class="cls-43" cx="1471.38" cy="1151.58" rx="10.09" ry="55.68"/><ellipse class="cls-44" cx="1405.6" cy="1083.2" rx="55.68" ry="10.09"/><ellipse class="cls-45" cx="1405.6" cy="1214.76" rx="55.68" ry="10.09"/><circle class="cls-46" cx="1304.97" cy="1216.39" r="8.47"/><path class="cls-8" d="M1290.65,1436.84a73.82,73.82,0,0,1-73.81,73.81c-40.77,0-94.43-33.05-94.43-73.81s53.66-73.81,94.43-73.81A73.81,73.81,0,0,1,1290.65,1436.84Z"/><path class="cls-47" d="M1235.39,1459.49a11,11,0,0,1-15.88,9.82l-45.3-22.66a11,11,0,0,1,0-19.63l45.3-22.65a11,11,0,0,1,15.88,9.82Z"/><path class="cls-8" d="M1315.39,1436.84a73.81,73.81,0,0,0,73.81,73.81c40.76,0,94.42-33.05,94.42-73.81S1430,1363,1389.2,1363A73.8,73.8,0,0,0,1315.39,1436.84Z"/><path class="cls-48" d="M1370.64,1459.49a11,11,0,0,0,15.89,9.82l45.3-22.66a11,11,0,0,0,0-19.63l-45.3-22.65a11,11,0,0,0-15.89,9.82Z"/><path class="cls-4" d="M1101.54,1516.07h-42.27a57.2,57.2,0,0,1-57.13-57.14V1209.1a4,4,0,0,1,8,0v249.83a49.24,49.24,0,0,0,49.18,49.19h42.27a4,4,0,1,1,0,8Z"/><path class="cls-4" d="M1006.11,1150.3a4,4,0,0,1-4-4v-26.84a4,4,0,0,1,8,0v26.84A4,4,0,0,1,1006.11,1150.3Z"/><path class="cls-49" d="M1619.45,459.12a138.76,138.76,0,1,1-277.51,0c0-60.68,87-201.8,123.23-257.92a18.48,18.48,0,0,1,31.06,0C1532.45,257.32,1619.45,398.44,1619.45,459.12Z"/><path class="cls-50" d="M1463.63,572.41a5.45,5.45,0,0,1-.89-.08c-33.19-6-63.53-28.36-79.17-58.25s-16.7-67.53-2.75-98.24a5,5,0,1,1,9,4.11c-12.71,28-11.75,62.29,2.51,89.53s41.89,47.56,72.14,53.07a5,5,0,0,1-.89,9.86Z"/><path class="cls-13" d="M1910.61,996.86c11.17,1,30.57,2.54,45.86,3.21,9.2.41,14.49-.49,17.54-1.71,0,.34,0,.67,0,1a3.17,3.17,0,0,1-3,3,540.07,540.07,0,0,1-60.06.06,2.26,2.26,0,0,1-1.83-3.39A18.3,18.3,0,0,1,1910.61,996.86Z"/><path class="cls-6" d="M1956.47,1000.07c-15.29-.67-34.69-2.24-45.86-3.21,11-13.48,45.86-22.56,45.86-22.56h9.86a41.35,41.35,0,0,1,7.68,24.06C1971,999.58,1965.67,1000.48,1956.47,1000.07Z"/><path class="cls-51" d="M1968,958.21l-.92,18.25a4.16,4.16,0,0,1-3.55,3.91,16.08,16.08,0,0,1-7.4-.61,4.94,4.94,0,0,1-3.32-3.79l-3.18-17.76Z"/><path class="cls-13" d="M2095.94,999.94c4.84-.68,7-3.2,8-5.89l0,.07c.71,2.84-.94,5.79-4.25,7.19a27.75,27.75,0,0,1-11.75,1.84,11.71,11.71,0,0,1-8.82-4.07l0,0C2082.73,1000.85,2087.85,1001.06,2095.94,999.94Z"/><path class="cls-6" d="M2073.08,958.1h8.13c12.37-.26,20.14,25.84,22.69,35.95-.92,2.69-3.12,5.21-8,5.89-8.09,1.12-13.21.91-16.86-.9-6.69-8.79-10-21.68-11.6-29.2A10.25,10.25,0,0,1,2073.08,958.1Z"/><path class="cls-52" d="M2080.16,941.16l4.51,18a4.86,4.86,0,0,1-2.53,5.52c-2.52,1.29-6.08,2.65-9.34,2.26a4.08,4.08,0,0,1-3.32-2.72l-6.62-18.87Z"/><path class="cls-13" d="M2085.54,946.35c-5.61,5-23.86,5.64-23.86,5.64C1995.92,794.16,1969,771.73,1969,771.73c9.49,59.58,1.53,191.46,1.53,191.46-10.85,4.79-24.85,0-24.85,0a1016.36,1016.36,0,0,0-33.58-249.63c44.45-1,68.09-16.21,75.8-22.32C2025,751,2085.54,946.35,2085.54,946.35Z"/><path class="cls-13" d="M1976.64,509.74c8.41,42,5.39,117.06,3.41,151.32-.55,9.63,25.73,40,45.75,100.38.52,1.58.32,3.26-1.16,4-9.09,4.67-61.25,8.49-97,10.29a4.93,4.93,0,0,1-5.13-3.8c-19.33-101.38-67.53-220.62-70.06-219.75C1886.46,498,1976.64,509.74,1976.64,509.74Z"/><path class="cls-53" d="M2029.4,630.17c-2.7,19.55-10.68,40.87-26.65,63.52l-6.07-5a187.73,187.73,0,0,0,3-60.71C2009.55,626.11,2021.19,628.09,2029.4,630.17Z"/><path class="cls-13" d="M1967.24,561.51l9.4-51.77s62.78,48,52.76,120.43c-8.21-2.08-19.85-4.06-29.7-2.14C1996.83,604.78,1988.26,579.55,1967.24,561.51Z"/><path class="cls-13" d="M1852.49,552.2c11.56,8.82,18.4,29.27,24.23,52.19-3.92,31.51-20.84,45.13-39.1,50.36a110.59,110.59,0,0,0-8.13-34C1852.81,596.68,1852.49,552.2,1852.49,552.2Z"/><path class="cls-54" d="M1829.49,620.76a110.59,110.59,0,0,1,8.13,34c-48.69,18.89-61.57-17.75-61.57-17.75l9-1.59C1805.37,637.55,1819.57,631,1829.49,620.76Z"/><path class="cls-55" d="M1874.81,487.77l11.7,43a8.37,8.37,0,0,0,11.19,5.57,166.81,166.81,0,0,0,16.86-7.7,11.27,11.27,0,0,0,4-16.2l-24.32-36.27Z"/><path class="cls-6" d="M1753.73,608.22l299.78,109.11a23,23,0,0,1,13,31.07l-.91,2a21.33,21.33,0,0,1-28.38,10.53L1746.18,626.28Z"/><g class="cls-56"><ellipse class="cls-2" cx="1615.94" cy="542.59" rx="147.99" ry="145.32"/></g><path class="cls-6" d="M1451.27,542.59c0,89.3,73.73,161.7,164.67,161.7s164.67-72.4,164.67-161.7-73.73-161.7-164.67-161.7S1451.27,453.29,1451.27,542.59Zm24.19,0c0-76.19,62.89-138,140.48-138s140.48,61.76,140.48,138-62.9,137.95-140.48,137.95S1475.46,618.77,1475.46,542.59Z"/><path class="cls-4" d="M1768.09,562.51H1768a1,1,0,0,1-.86-1.11c.49-3.78.82-7.62,1-11.43a1,1,0,0,1,1-1,1,1,0,0,1,.95,1c-.19,3.87-.54,7.76-1,11.59A1,1,0,0,1,1768.09,562.51ZM1767,517.29a1,1,0,0,1-1-.81,146.88,146.88,0,0,0-8.75-30h0c-23.41-56.8-78.87-93.5-141.28-93.5a154,154,0,0,0-81.82,23.38,1,1,0,0,1-1.06-1.68A155.87,155.87,0,0,1,1615.94,391c63.22,0,119.4,37.19,143.12,94.73h0a148.48,148.48,0,0,1,8.88,30.37,1,1,0,0,1-.81,1.16Z"/><path class="cls-57" d="M1849.22,455.09c-.11.74,9.76,49.08,9.76,49.08l27.48-6.22-2.54-47.21S1851,442.73,1849.22,455.09Z"/><path class="cls-6" d="M1877.73,461.26,1881,486a3.78,3.78,0,0,1,0,.95c-.28,1.94-1.72,8.54-8.39,6.65-6.05-1.71-11.59-3.19-15.43-2a3.48,3.48,0,0,0-2.39,4,149.85,149.85,0,0,0,6.32,22.52,3.49,3.49,0,0,0,4.22,2.06c5.22-1.52,16.12-5,24.23-9.92a3.48,3.48,0,0,0,1.7-3.13c-.26-6.25-1-25.24-.38-30.56.58-5,6.71-8,9.37-9.07a3.41,3.41,0,0,0,1.91-1.91c1.23-3.09,2.93-10.24-6.08-13.18a3.48,3.48,0,0,1-2.21-4.51c1.33-3.72,1.9-9.39-5.08-12.52s-12.38.6-15.24,3.68a3.48,3.48,0,0,1-4.44.52,2.76,2.76,0,0,0-3.14.11,3.44,3.44,0,0,1-4.87-1.48c-1.7-3.48-5.15-7.21-12.09-6-12.32,2.11-13.71,15.76-10.47,23.76s16.47,4.95,23.11.92c5-3.07,11.58.14,14.43,1.86A3.42,3.42,0,0,1,1877.73,461.26Z"/><path class="cls-58" d="M1892,485.62s-5.07-14.18.13-17.65,12.91-1.67,11.21,8.6C1901.24,489.35,1892,485.62,1892,485.62Z"/><path class="cls-59" d="M1999.18,687.88l-28.34-2.31-12.27,11.31s2.9,4,12,1.71,21.51-2.88,21.51-2.88,12.53,5.65,12.68-4.92Z"/><path class="cls-60" d="M1779.66,643.71c-2.45,1.91-10.85-2.09-16-4.85a5.92,5.92,0,0,1-2.85-7c1.23-3.9,3.29-8.93,5.83-9.56C1770.86,621.25,1789.76,635.81,1779.66,643.71Z"/><path class="cls-4" d="M2047.6,756.63a1,1,0,0,1-.32-1.93c8.5-3,13-7.71,13.24-14.17a15.74,15.74,0,0,0-10.3-15.13l-36-14a1,1,0,0,1-.56-1.29,1,1,0,0,1,1.28-.56l36,14a17.7,17.7,0,0,1,11.55,17.08c-.21,5-2.92,11.93-14.57,16A1.26,1.26,0,0,1,2047.6,756.63Z"/><path class="cls-4" d="M2003.5,707.1a.92.92,0,0,1-.36-.07l-4.67-1.82a1,1,0,0,1-.56-1.28,1,1,0,0,1,1.29-.57l4.66,1.82a1,1,0,0,1-.36,1.92Z"/></g></svg>