<?xml version="1.0" encoding="utf-8"?>
<!-- Generator: Adobe Illustrator 24.1.3, SVG Export Plug-In . SVG Version: 6.00 Build 0)  -->
<svg version="1.1" xmlns="http://www.w3.org/2000/svg" xmlns:xlink="http://www.w3.org/1999/xlink" x="0px" y="0px"
	 viewBox="0 0 750 500" style="enable-background:new 0 0 750 500;" xml:space="preserve">
<style type="text/css">
	.st0{fill:#F5F5F5;}
	.st1{fill:#E0E0E0;}
	.st2{fill:#EBEBEB;}
	.st3{fill:#FAFAFA;}
	.st4{display:none;}
	.st5{display:inline;fill:#EBEBEB;}
	.st6{fill:#455A64;}
	.st7{fill:#263238;}
	.st8{fill:#FFFFFF;}
	.st9{fill:#FF721F;}
	.st10{opacity:0.3;}
	.st11{opacity:0.2;}
	.st12{fill:#BD8C83;}
	.st13{fill:#896360;}
</style>
<g id="Background_Complete">
	<g>
		<g>
			<g>
				<g>
					<g>
						<g>
							<g>
								<g>
									
										<rect x="38.15" y="251.49" transform="matrix(0.9874 -0.1585 0.1585 0.9874 -45.1304 17.7171)" class="st0" width="100.66" height="80.47"/>
								</g>
							</g>
						</g>
					</g>
					<g>
						<g>
							<g>
								<g>
									<g>
										<path class="st1" d="M131.79,244.02c0,0-0.17,0.04-0.48,0.09c-0.33,0.06-0.79,0.14-1.39,0.24
											c-1.24,0.21-3.05,0.51-5.39,0.9c-4.72,0.77-11.61,1.9-20.34,3.34c-17.45,2.83-42.26,6.86-71.74,11.65l0.22-0.3
											c3.81,23.65,8.17,50.76,12.79,79.44l0,0.01l-0.33-0.24c36.8-5.89,70.99-11.36,99.39-15.91l-0.2,0.28
											c-3.79-23.93-6.93-43.77-9.13-57.65c-1.09-6.94-1.94-12.39-2.52-16.12c-0.29-1.85-0.5-3.28-0.65-4.25
											C131.86,244.53,131.79,244.02,131.79,244.02s0.09,0.47,0.25,1.42c0.16,0.97,0.4,2.37,0.7,4.2
											c0.61,3.71,1.5,9.13,2.64,16.04c2.26,13.9,5.5,33.78,9.4,57.76l0.04,0.24l-0.24,0.04c-28.4,4.57-62.59,10.08-99.38,16.01
											l-0.29,0.05l-0.05-0.29l0-0.01c-4.6-28.69-8.94-55.8-12.73-79.45l-0.04-0.26l0.26-0.04c29.57-4.69,54.45-8.64,71.95-11.42
											c8.71-1.37,15.59-2.45,20.3-3.19c2.33-0.36,4.12-0.64,5.35-0.83c0.59-0.09,1.05-0.16,1.37-0.2
											C131.64,244.03,131.79,244.02,131.79,244.02z"/>
									</g>
								</g>
							</g>
						</g>
					</g>
				</g>
			</g>
		</g>
		<g>
			<g>
				<g>
					<g>
						
							<rect x="41.62" y="256.56" transform="matrix(0.9874 -0.1585 0.1585 0.9874 -45.1325 17.7068)" class="st2" width="93.59" height="70.34"/>
					</g>
				</g>
			</g>
		</g>
		<g>
			<g>
				<g>
					<g>
						<polygon class="st1" points="47.79,333.88 73.13,285.52 97.46,309.32 108.7,292.71 140.19,319.04 						"/>
					</g>
				</g>
			</g>
		</g>
		<g>
			<g>
				<g>
					<g>
						<g>
							<g>
								<path class="st1" d="M100.76,275.66c0.65,4.02-2.09,7.8-6.11,8.44c-4.02,0.65-7.8-2.09-8.44-6.11
									c-0.65-4.02,2.09-7.8,6.11-8.44C96.34,268.91,100.12,271.65,100.76,275.66z"/>
							</g>
						</g>
					</g>
				</g>
			</g>
		</g>
	</g>
	<g>
		<g>
			<g>
				<path class="st1" d="M598.52,356.92c-4.5-2.83-9.65-4.6-14.94-5.14c-2.44-0.25-5.11-0.18-7.07,1.3
					c-0.42,0.31-0.82,0.78-0.73,1.29c0.07,0.38,0.39,0.65,0.69,0.88C582.56,359.89,591.75,360.47,598.52,356.92"/>
			</g>
			<g>
				<path class="st1" d="M598.14,356.5c-3.38-2.64-6.78-5.3-9.65-8.49c-2.86-3.19-5.19-6.98-6.05-11.19
					c-0.26-1.27-0.34-2.73,0.48-3.74C590.61,339.08,596.65,346.85,598.14,356.5"/>
			</g>
			<g>
				<path class="st1" d="M598.44,356.86c-0.58-4.21-0.79-8.53,0.18-12.67c0.97-4.14,3.22-8.09,6.75-10.45
					c1.33,3.11,0.76,6.68-0.18,9.93c-1.45,5.02-3.72,9.8-6.69,14.09"/>
			</g>
			<g>
				<path class="st1" d="M605.98,370.37c-4.58,0.56-8.56,2.97-11.98,6.06c-3.42,3.09-5.85,7.26-6.85,11.76
					c4.49-0.28,8.3-3.44,11.06-6.99c2.76-3.55,4.68-7.44,7.71-10.76"/>
			</g>
			<g>
				<path class="st1" d="M607.62,372.53c-3.69-9.08-2.35-20.02,3.41-27.95C613.64,353.86,612.68,364.33,607.62,372.53"/>
			</g>
			<g>
				<path class="st1" d="M617.58,384.39c-4.15-0.26-8.38,0.73-11.98,2.81c-3.61,2.08-6.58,5.23-8.45,8.95
					c-0.25,0.51-0.48,1.15-0.14,1.6c0.29,0.39,0.86,0.43,1.35,0.4c4.03-0.26,7.59-2.68,10.54-5.44c2.94-2.76,5.51-5.94,8.76-8.33"/>
			</g>
			<g>
				<path class="st1" d="M617.26,383.75c-2.14-6.86-2.28-14.33-0.38-21.25c0.75-2.74,2.01-5.62,4.54-6.9
					c0.22-0.11,0.47-0.21,0.69-0.12c0.21,0.08,0.34,0.3,0.44,0.51c0.9,1.88,1.16,4.02,1.07,6.1s-0.52,4.13-0.96,6.17
					c-0.8,3.77-1.22,7.83-3.29,11.08c-0.49,0.77-0.92,1.61-1.32,2.43c-0.39,0.83-0.39,1.12-0.75,1.78"/>
			</g>
			<g>
				<path class="st1" d="M643.63,387.67c-1.95-7.43,0.12-16.44,4.8-22.53c0.34-0.45,0.8-0.93,1.37-0.88
					c0.86,0.08,1.09,1.23,1.05,2.09C650.51,373.95,647.97,381.44,643.63,387.67"/>
			</g>
			<g>
				<path class="st1" d="M646.01,389.3c9.03,2.35,19.39,0.07,26.89-5.47c-4.45-2.26-9.7-2.9-14.56-1.79
					C653.48,383.16,649.03,385.33,646.01,389.3"/>
			</g>
			<g>
				<path class="st1" d="M648.01,384.35c5.06-8.24,14.75-13.62,24.41-14.11c-1.11,3.93-4.34,6.98-7.98,8.83
					c-3.64,1.84-7.71,2.65-11.72,3.43C651.16,382.79,649.02,383.13,648.01,384.35"/>
			</g>
			<g>
				<path class="st1" d="M644.13,360.34c1.37-4.69,2.75-9.42,3.12-14.29c0.38-4.87-0.32-9.96-2.85-14.14
					c-4.72,9.14-5.2,19.82-0.42,28.92"/>
			</g>
			<g>
				<path class="st1" d="M660.03,352.31c5.52-10.04,16.79-18.06,28.19-19.18C683.83,344.08,671.83,352.54,660.03,352.31"/>
			</g>
			<g>
				<path class="st1" d="M656.56,354.27c8.24,1.25,15.26,6.52,22.95,9.71c1.65,0.68,3.42,1.23,5.19,0.99
					c1.77-0.23,3.51-1.42,3.91-3.15c0.33-1.44-0.33-2.97-1.36-4.03c-1.04-1.06-2.4-1.72-3.77-2.29c-8.38-3.49-17.38-3.58-26.21-1.46
					"/>
			</g>
			<g>
				<path class="st1" d="M651.79,360.05c1.86,0.53,2.5,1.5,3.98,2.76c5.01,4.27,11.02,7.35,17.41,8.94
					c0.66,0.17,1.54,0.23,1.87-0.37c0.29-0.52-0.08-1.16-0.45-1.63c-2.68-3.35-6.49-5.64-10.51-7.13c-4.02-1.5-7.5-3.3-12.29-2.91"
					/>
			</g>
			<g>
				<path class="st1" d="M646.41,325.16c6.7,6.25,16.13,9.46,25.25,8.59c0.42-0.04,0.87-0.11,1.15-0.41
					c0.64-0.69-0.13-1.76-0.87-2.34C664.52,325.21,655.53,322.81,646.41,325.16"/>
			</g>
			<g>
				<path class="st1" d="M652.79,322.82c8.85-6.64,21-8.64,31.51-5.2c-3.97,3.91-9.47,6.02-15.02,6.59
					C663.74,324.79,658.2,324.18,652.79,322.82"/>
			</g>
			<g>
				<path class="st1" d="M650.26,306.79c-0.73-7.41-0.26-13.26-0.77-20.71c-0.04-0.59-0.17-1.31-0.73-1.52
					c-0.77-0.3-1.42,0.65-1.67,1.44c-2.21,6.86-1,14.74,3.16,20.62"/>
			</g>
			<g>
				<path class="st1" d="M649.72,307.61c5.02-3.11,8.79-7.16,12.28-11.93c2.42-3.32,4.47-7.29,3.92-11.36
					c-3.41-0.07-6.64,1.81-8.86,4.4c-2.21,2.59-3.53,5.82-4.51,9.08C651.56,301.05,650.88,304.4,649.72,307.61"/>
			</g>
			<g>
				<path class="st1" d="M661.78,304.26c11.02-4.08,21.31-10.14,30.21-17.81c-3.61-1.45-7.74-0.58-11.35,0.87
					c-8.24,3.33-14.98,8.94-19.02,16.86"/>
			</g>
			<g>
				<path class="st1" d="M653.11,311.66c5.58,0.61,11.24,1.01,16.78,0.08c5.44-0.91,10.58-3.06,15.66-5.2
					c0.42-0.18,0.88-0.39,1.06-0.81c0.2-0.45-0.01-1.01-0.38-1.34c-0.37-0.33-0.86-0.49-1.34-0.63c-5.53-1.55-11.49-0.82-16.92,1.01
					C662.54,306.61,658.08,308.79,653.11,311.66"/>
			</g>
			<g>
				<path class="st1" d="M621.27,325.41c-3.8-7.68-3.56-16.64-0.27-24.56c2.31,3.53,2.6,8.02,2.17,12.21
					c-0.42,4.2-1.7,8.51-1.78,12.73"/>
			</g>
			<g>
				<path class="st1" d="M606.07,317.74c-9.5-0.18-19,3.87-25.45,10.84c4.74,0.74,9.62-0.48,13.94-2.58
					c4.31-2.11,8.15-5.06,11.94-7.99"/>
			</g>
			<g>
				<path class="st1" d="M595.85,314.33c-4.65-0.38-9.12-0.95-13.59,0.42c-4.47,1.37-8.54,4.48-10.36,8.78
					c4.35,0.49,8.75-0.6,12.74-2.41C588.63,319.31,592.25,316.81,595.85,314.33"/>
			</g>
			<g>
				<path class="st1" d="M610.98,314.48c-4.18-2.74-8.47-5.53-13.34-6.66c-4.87-1.13-10.51-0.3-13.9,3.37
					c3.94,2.31,8.72,2.59,13.29,2.58c4.57,0,10.17-0.06,14.48,1.47"/>
			</g>
			<g>
				<path class="st1" d="M611,314.7c-7.15-7.02-9.86-19.63-6.98-29.22C609.64,294.02,612.16,304.55,611,314.7"/>
			</g>
			<g>
				<path class="st1" d="M630.66,294.82c1.35-3.13,2.3-6.42,3.51-9.61c1.21-3.19,2.71-6.33,5-8.86c2.29-2.53,5.45-4.42,8.85-4.59
					c-2.13,9.66-8.55,18.29-17.18,23.11"/>
			</g>
			<g>
				<path class="st1" d="M627.1,298.96c-2.23-3.07-4.81-7.24-7.83-9.53c-3.03-2.29-6.96-3.68-10.66-2.8
					C612.37,293.34,619.46,298.07,627.1,298.96"/>
			</g>
			<g>
				<path class="st1" d="M627.81,295.07c-1.46-3.72-2.93-7.47-3.53-11.42c-0.59-3.95-0.23-8.17,1.79-11.61
					c3.92,7.42,5.19,15.38,1.94,23.11"/>
			</g>
			<g>
				<path class="st1" d="M630.69,272.04c2.22-7.35,8.95-12.77,16.22-15.25c0.92-0.31,1.89-0.57,2.84-0.43
					c0.96,0.15,1.9,0.8,2.1,1.75c0.27,1.25-0.77,2.37-1.74,3.2C644.46,266.16,637.81,269.83,630.69,272.04"/>
			</g>
			<g>
				<path class="st1" d="M630.78,266.03c0.28-4.74,0.58-9.55,2.12-14.04c1.54-4.49,4.51-8.71,8.84-10.67
					c0.74,4.79-1.38,9.55-3.92,13.67c-2.55,4.12-5.62,8.01-7.15,12.6"/>
			</g>
			<g>
				<path class="st1" d="M630.66,269.29c-1.84-5.36-2.03-12.16-5.24-16.83c-2.24-3.26-5.83-5.49-7.77-8.94
					c-1.28,3.23-0.89,6.95,0.45,10.15c1.34,3.2,3.56,5.96,5.94,8.5C626.42,264.7,628.45,266.61,630.66,269.29"/>
			</g>
			<g>
				<g>
					<path class="st1" d="M630.69,427.09c-0.14,0-0.27-35.74-0.28-79.83c-0.01-44.1,0.1-79.84,0.24-79.84
						c0.14,0,0.27,35.74,0.28,79.84C630.95,391.34,630.84,427.09,630.69,427.09z"/>
				</g>
			</g>
			<g>
				<g>
					<path class="st1" d="M661.93,320.02c0.01,0.03-0.47,0.21-1.34,0.5c-0.97,0.33-2.21,0.74-3.7,1.25
						c-3.12,1.06-7.4,2.6-12.05,4.51c-4.6,1.97-8.95,3.58-11.42,5.72c-1.24,1.06-1.94,2.2-2.29,3.04c-0.35,0.84-0.42,1.35-0.47,1.34
						c-0.02,0-0.01-0.13,0.02-0.37c0.04-0.24,0.1-0.6,0.26-1.04c0.3-0.88,0.99-2.1,2.24-3.24c1.24-1.13,2.97-2.15,4.95-3.08
						c1.98-0.93,4.18-1.89,6.51-2.85c4.66-1.91,8.98-3.4,12.14-4.38c1.58-0.49,2.86-0.85,3.75-1.09
						C661.42,320.09,661.92,319.98,661.93,320.02z"/>
				</g>
			</g>
			<g>
				<g>
					<path class="st1" d="M672.17,294.87c0.01,0.01-0.12,0.15-0.38,0.4c-0.3,0.29-0.68,0.64-1.15,1.08
						c-1.07,0.97-2.51,2.28-4.28,3.89c-3.7,3.29-8.71,7.76-14.25,12.69c-5.56,4.95-10.37,9.68-13.7,13.25
						c-1.67,1.78-2.98,3.25-3.88,4.28c-0.42,0.48-0.76,0.87-1.04,1.18c-0.24,0.27-0.37,0.4-0.39,0.39
						c-0.01-0.01,0.09-0.17,0.31-0.46c0.22-0.29,0.53-0.72,0.96-1.25c0.85-1.07,2.13-2.58,3.76-4.4c3.27-3.64,8.05-8.42,13.63-13.38
						c5.58-4.94,10.66-9.38,14.35-12.58c1.81-1.55,3.3-2.83,4.39-3.77c0.49-0.41,0.89-0.74,1.21-1
						C672.01,294.96,672.16,294.85,672.17,294.87z"/>
				</g>
			</g>
			<g>
				<g>
					<path class="st1" d="M646.11,317.96c-0.15-0.07,1.02-2.75,2.17-6.14c1.17-3.39,1.72-6.26,1.87-6.23
						c0.13,0.01-0.19,2.96-1.38,6.4c-0.58,1.72-1.22,3.22-1.73,4.3C646.53,317.35,646.17,317.99,646.11,317.96z"/>
				</g>
			</g>
			<g>
				<g>
					<path class="st1" d="M630.73,339.6c-0.03,0.02-0.33-0.33-0.86-1c-0.58-0.75-1.32-1.69-2.2-2.82c-1.84-2.38-4.4-5.68-7.25-9.28
						c-2.86-3.6-5.49-6.83-7.39-9.17c-0.9-1.11-1.65-2.04-2.24-2.78c-0.52-0.66-0.8-1.04-0.77-1.06c0.03-0.02,0.36,0.31,0.93,0.93
						c0.57,0.62,1.38,1.53,2.37,2.67c1.98,2.28,4.65,5.48,7.52,9.09c2.86,3.61,5.37,6.94,7.14,9.38c0.89,1.22,1.59,2.22,2.07,2.92
						C630.51,339.18,630.76,339.58,630.73,339.6z"/>
				</g>
			</g>
			<g>
				<g>
					<path class="st1" d="M623.88,330.8c-0.08,0.09-1.91-2.08-2.87-5.37c-0.71-2.32-0.74-4.44-0.65-5.42l0.23,0.02
						c-0.1,0.41-0.18,0.63-0.22,0.63c-0.04-0.01-0.04-0.24-0.01-0.66l0.23,0.02c0.08,0.96,0.23,3.01,0.92,5.27
						C622.43,328.48,624.02,330.72,623.88,330.8z"/>
				</g>
			</g>
			<g>
				<g>
					<path class="st1" d="M615.04,319.68c-0.07,0.07-0.65-0.67-2-1.16c-1.34-0.52-3.35-0.63-5.56-0.44c-2.21,0.16-4.19,0.56-5.6,0.9
						c-1.41,0.35-2.28,0.63-2.3,0.55c-0.02-0.06,0.8-0.46,2.21-0.9c1.41-0.44,3.41-0.9,5.66-1.07c2.23-0.19,4.35-0.02,5.74,0.62
						C614.57,318.8,615.08,319.67,615.04,319.68z"/>
				</g>
			</g>
			<g>
				<g>
					<path class="st1" d="M612.94,316.99c-0.04,0.08-1.17-0.47-3.07-1.12c-1.9-0.65-4.6-1.34-7.66-1.58
						c-3.06-0.23-5.83,0.04-7.81,0.4c-1.98,0.35-3.18,0.72-3.2,0.64c-0.01-0.03,0.28-0.16,0.81-0.35c0.53-0.2,1.33-0.43,2.32-0.65
						c1.98-0.45,4.81-0.79,7.92-0.55c3.11,0.24,5.85,1,7.74,1.75c0.95,0.37,1.7,0.72,2.19,0.99
						C612.69,316.79,612.96,316.95,612.94,316.99z"/>
				</g>
			</g>
			<g>
				<g>
					<path class="st1" d="M630.66,305.59c-0.14,0.04-1.14-3.45-2.24-7.77c-1.1-4.33-1.88-7.87-1.74-7.9
						c0.14-0.04,1.14,3.45,2.24,7.78C630.02,302.01,630.8,305.55,630.66,305.59z"/>
				</g>
			</g>
			<g>
				<g>
					<path class="st1" d="M630.8,305.59c-0.15,0.05-0.8-2.28-2.48-4.65c-1.64-2.43-3.73-3.65-3.65-3.77
						c0.03-0.05,0.6,0.16,1.41,0.73c0.81,0.56,1.8,1.51,2.66,2.74C630.49,303.11,630.93,305.58,630.8,305.59z"/>
				</g>
			</g>
			<g>
				<g>
					<path class="st1" d="M630.69,408.04c-0.06,0.01-0.16-0.86-0.56-2.38c-0.4-1.52-1.15-3.67-2.39-6.19
						c-2.47-5.05-6.96-11.45-12.67-17.85c-2.83-3.23-5.57-6.28-7.9-9.2c-2.33-2.92-4.25-5.69-5.65-8.15
						c-1.4-2.46-2.32-4.56-2.85-6.05c-0.26-0.75-0.45-1.33-0.56-1.73c-0.11-0.4-0.16-0.61-0.15-0.62c0.05-0.01,0.31,0.82,0.9,2.28
						c0.59,1.46,1.55,3.52,2.98,5.94c1.43,2.42,3.36,5.15,5.71,8.04c2.34,2.89,5.09,5.92,7.92,9.16
						c5.73,6.43,10.21,12.91,12.61,18.04c1.21,2.56,1.91,4.75,2.25,6.3c0.17,0.77,0.28,1.38,0.32,1.79
						C630.69,407.82,630.71,408.03,630.69,408.04z"/>
				</g>
			</g>
			<g>
				<g>
					<path class="st1" d="M658.92,376.15c0.02,0.04-0.52,0.31-1.48,0.83c-0.95,0.53-2.29,1.35-3.84,2.54
						c-1.54,1.18-3.27,2.73-5.04,4.6c-1.77,1.87-3.59,4.04-5.45,6.36c-3.72,4.66-7.2,8.79-9.28,12.09
						c-1.06,1.63-1.83,3.01-2.33,3.98c-0.51,0.96-0.78,1.51-0.81,1.49c-0.02-0.01,0.03-0.15,0.14-0.42c0.11-0.27,0.26-0.67,0.5-1.16
						c0.45-1,1.18-2.41,2.2-4.08c2.02-3.37,5.47-7.56,9.18-12.22c1.86-2.33,3.71-4.5,5.51-6.37c1.81-1.86,3.58-3.4,5.16-4.56
						c1.59-1.16,2.98-1.94,3.96-2.42c0.49-0.25,0.89-0.4,1.15-0.51C658.77,376.19,658.91,376.14,658.92,376.15z"/>
				</g>
			</g>
			<g>
				<g>
					<path class="st1" d="M659.47,386.5c0.01,0.08-1.19,0.22-3.13,0.45c-1.93,0.25-4.61,0.57-7.42,1.46
						c-2.8,0.91-5.12,2.3-6.64,3.48c-1.53,1.18-2.25,2.16-2.32,2.1c-0.02-0.02,0.13-0.28,0.46-0.72c0.33-0.44,0.88-1.02,1.63-1.67
						c1.49-1.29,3.84-2.76,6.71-3.69c2.88-0.91,5.59-1.17,7.54-1.33C658.26,386.45,659.47,386.43,659.47,386.5z"/>
				</g>
			</g>
			<g>
				<g>
					<path class="st1" d="M640.88,392.86c-0.16-0.09,1.25-2.24,2.34-5.14c1.03-2.92,1.27-5.48,1.45-5.45
						c0.07,0.01,0.06,0.65-0.05,1.68c-0.12,1.03-0.37,2.45-0.91,3.95c-0.55,1.5-1.26,2.75-1.81,3.62
						C641.33,392.4,640.94,392.9,640.88,392.86z"/>
				</g>
			</g>
			<g>
				<g>
					<path class="st1" d="M668.06,348.39c0.01,0.02-0.17,0.11-0.5,0.27c-0.39,0.18-0.87,0.4-1.47,0.67
						c-0.64,0.28-1.42,0.63-2.31,1.09c-0.88,0.46-1.91,0.93-2.99,1.57c-0.54,0.31-1.11,0.63-1.71,0.97
						c-0.59,0.34-1.18,0.74-1.8,1.13c-1.26,0.76-2.52,1.7-3.86,2.66c-2.63,2-5.4,4.36-8.06,7.09c-2.64,2.76-4.91,5.6-6.81,8.3
						c-0.91,1.38-1.81,2.67-2.53,3.95c-0.37,0.64-0.75,1.23-1.07,1.84c-0.32,0.6-0.62,1.18-0.91,1.74
						c-0.61,1.09-1.04,2.14-1.47,3.04c-0.43,0.9-0.76,1.69-1.01,2.34c-0.25,0.6-0.45,1.1-0.62,1.49c-0.15,0.34-0.23,0.51-0.25,0.51
						c-0.02-0.01,0.04-0.19,0.15-0.54c0.14-0.4,0.31-0.91,0.53-1.53c0.23-0.67,0.52-1.47,0.93-2.38c0.4-0.91,0.82-1.98,1.41-3.09
						c0.28-0.56,0.58-1.15,0.89-1.76c0.31-0.61,0.69-1.22,1.05-1.86c0.71-1.3,1.6-2.61,2.51-4c1.9-2.73,4.17-5.61,6.83-8.39
						c2.68-2.75,5.48-5.12,8.15-7.11c1.36-0.96,2.64-1.89,3.92-2.64c0.63-0.38,1.23-0.78,1.83-1.12c0.6-0.33,1.18-0.64,1.73-0.95
						c1.09-0.63,2.14-1.08,3.04-1.51c0.9-0.44,1.69-0.77,2.35-1.01c0.61-0.23,1.11-0.43,1.51-0.58
						C667.87,348.43,668.06,348.37,668.06,348.39z"/>
				</g>
			</g>
			<g>
				<g>
					<path class="st1" d="M645.72,363.35c-0.05-0.01,0.2-0.88,1.23-1.83c1-0.95,2.82-1.84,4.95-1.9c2.12-0.06,3.95,0.54,5.21,1.02
						c1.26,0.5,1.99,0.9,1.97,0.96c-0.03,0.07-0.81-0.21-2.09-0.61c-1.27-0.39-3.06-0.9-5.07-0.85c-2,0.06-3.73,0.83-4.73,1.66
						C646.17,362.62,645.81,363.4,645.72,363.35z"/>
				</g>
			</g>
			<g>
				<g>
					<path class="st1" d="M642.38,366.8c-0.14-0.08,1.12-1.93,1.41-4.57c0.33-2.64-0.47-4.73-0.31-4.77
						c0.06-0.02,0.34,0.46,0.58,1.33c0.24,0.87,0.41,2.13,0.25,3.5c-0.16,1.38-0.61,2.56-1.05,3.35
						C642.82,366.43,642.43,366.83,642.38,366.8z"/>
				</g>
			</g>
		</g>
		<g>
			<path class="st1" d="M606.01,413.16c0.77,13.66,4.89,27.55,11.22,41.6h27.53c6.04-13.91,9.87-27.78,10.55-41.6H606.01z"/>
		</g>
		<g>
			<g>
				<path class="st3" d="M650.85,435.26c0,0.14-9.07,0.26-20.25,0.26c-11.18,0-20.25-0.12-20.25-0.26c0-0.14,9.06-0.26,20.25-0.26
					C641.78,435,650.85,435.12,650.85,435.26z"/>
			</g>
		</g>
		<g>
			<g>
				<path class="st3" d="M650.23,440.21c0,0.14-8.5,0.26-18.98,0.26c-10.48,0-18.98-0.12-18.98-0.26c0-0.14,8.5-0.26,18.98-0.26
					C641.73,439.95,650.23,440.07,650.23,440.21z"/>
			</g>
		</g>
		<g>
			<g>
				<path class="st3" d="M617.67,422.13c0.14,0,0.26,2.84,0.26,6.34c0,3.5-0.12,6.34-0.26,6.34c-0.14,0-0.26-2.84-0.26-6.34
					C617.41,424.97,617.53,422.13,617.67,422.13z"/>
			</g>
		</g>
		<g>
			<g>
				<path class="st3" d="M632.42,422.13c0.14,0,0.26,2.94,0.26,6.57c0,3.63-0.12,6.57-0.26,6.57c-0.14,0-0.26-2.94-0.26-6.57
					C632.16,425.07,632.28,422.13,632.42,422.13z"/>
			</g>
		</g>
		<g>
			<g>
				<path class="st3" d="M646.27,422.01c0.14,0,0.26,3,0.26,6.7c0,3.7-0.12,6.7-0.26,6.7s-0.26-3-0.26-6.7
					C646.01,425.01,646.13,422.01,646.27,422.01z"/>
			</g>
		</g>
		<g>
			<g>
				<path class="st3" d="M654.44,422.13c0,0.14-10.63,0.26-23.75,0.26c-13.12,0-23.75-0.12-23.75-0.26s10.63-0.26,23.75-0.26
					C643.8,421.87,654.44,421.98,654.44,422.13z"/>
			</g>
		</g>
	</g>
	<g>
		<g>
			<path class="st1" d="M717.87,177.47c1.94,0.43,3.16,2.37,2.73,4.33c-0.27,1.24-0.55,2.46-0.67,3l-6.18,26.98
				c-0.3,1.29-1.57,2.1-2.85,1.81l-61.76-14.14c-1.22-0.28-2.02-1.47-1.81-2.73l5.82-35.13c0.23-1.37,1.55-2.26,2.88-1.95l13.97,3.2
				c1.32,0.3,2.49,1.06,3.3,2.15l2.32,3.11L717.87,177.47z"/>
		</g>
		<g>
			
				<rect x="648.63" y="173.9" transform="matrix(0.9748 0.2232 -0.2232 0.9748 60.7296 -147.6127)" class="st0" width="69.23" height="41.78"/>
		</g>
		<g>
			<path class="st2" d="M647.96,169.13l-4.57,43.65c-0.08,0.78,0.42,1.49,1.18,1.66l65.76,15.06c0.78,0.18,1.56-0.28,1.8-1.05
				l13.04-41.71c0.27-0.86-0.24-1.76-1.11-1.96l-74.22-17C648.93,167.58,648.05,168.21,647.96,169.13z"/>
		</g>
	</g>
	<g>
		<g>
			<path class="st1" d="M94.59,132.49c1.56,0.22,2.65,1.68,2.43,3.25c-0.14,1-0.28,1.98-0.34,2.41l-3.21,21.72
				c-0.15,1.04-1.11,1.76-2.14,1.61l-49.72-7.35c-0.99-0.15-1.69-1.04-1.6-2.04l2.42-28.14c0.09-1.09,1.08-1.88,2.16-1.72
				l11.25,1.66c1.06,0.16,2.03,0.69,2.74,1.5l2.03,2.31L94.59,132.49z"/>
		</g>
		<g>
			
				<rect x="40.82" y="131.77" transform="matrix(0.9892 0.1463 -0.1463 0.9892 22.4376 -8.393)" class="st0" width="54.91" height="33.14"/>
		</g>
		<g>
			<path class="st2" d="M38.78,130.23l-0.91,34.8c-0.02,0.62,0.43,1.15,1.03,1.24l52.94,7.83c0.63,0.09,1.22-0.32,1.36-0.94
				l7.72-33.79c0.16-0.7-0.3-1.38-1-1.48l-59.75-8.84C39.45,128.94,38.8,129.5,38.78,130.23z"/>
		</g>
	</g>
	<g>
		<g>
			<g>
				<g>
					<g>
						<g>
							<g>
								<g>
									<path class="st2" d="M696.12,94.25l-37.77,11.77c-2.61,0.81-5.38-0.64-6.2-3.25l-16.29-52.27
										c-0.81-2.61,0.64-5.39,3.25-6.2l23.95-7.47l24.5,13.33l11.81,37.89C700.19,90.66,698.73,93.43,696.12,94.25z"/>
								</g>
							</g>
						</g>
					</g>
				</g>
			</g>
			<g>
				<g>
					<g>
						<g>
							<g>
								<g>
									<path class="st1" d="M663.07,36.83l4.59,14.71c0.76,2.43,3.34,3.78,5.76,3.03l14.15-4.41L663.07,36.83z"/>
								</g>
							</g>
						</g>
					</g>
				</g>
			</g>
		</g>
		<g>
			<g>
				<g>
					<g>
						<g>
							<path class="st3" d="M664.3,51.93c0.06,0.19-3.81,1.56-8.63,3.07c-4.83,1.5-8.78,2.57-8.84,2.38
								c-0.06-0.19,3.8-1.56,8.63-3.07C660.28,52.8,664.24,51.74,664.3,51.93z"/>
						</g>
					</g>
				</g>
			</g>
		</g>
		<g>
			<g>
				<g>
					<g>
						<g>
							<path class="st3" d="M678.18,56.73c0.06,0.19-6.33,2.35-14.27,4.82c-7.94,2.48-14.43,4.33-14.49,4.14
								c-0.06-0.19,6.33-2.35,14.27-4.82C671.63,58.39,678.12,56.54,678.18,56.73z"/>
						</g>
					</g>
				</g>
			</g>
		</g>
		<g>
			<g>
				<g>
					<g>
						<g>
							<path class="st3" d="M682.93,62.87c0.06,0.19-6.91,2.53-15.57,5.23c-8.66,2.7-15.72,4.73-15.78,4.54
								c-0.06-0.19,6.91-2.53,15.57-5.23C675.81,64.71,682.87,62.68,682.93,62.87z"/>
						</g>
					</g>
				</g>
			</g>
		</g>
		<g>
			<g>
				<g>
					<g>
						<g>
							<path class="st3" d="M684.97,69.42c0.06,0.19-6.91,2.53-15.57,5.23c-8.66,2.7-15.72,4.73-15.78,4.54
								c-0.06-0.19,6.91-2.53,15.57-5.23C677.85,71.27,684.91,69.23,684.97,69.42z"/>
						</g>
					</g>
				</g>
			</g>
		</g>
		<g>
			<g>
				<g>
					<g>
						<g>
							<path class="st3" d="M687.02,75.97c0.06,0.19-6.91,2.53-15.57,5.23c-8.66,2.7-15.72,4.73-15.78,4.54
								c-0.06-0.19,6.91-2.53,15.57-5.23C679.89,77.82,686.96,75.78,687.02,75.97z"/>
						</g>
					</g>
				</g>
			</g>
		</g>
		<g>
			<g>
				<g>
					<g>
						<g>
							<path class="st3" d="M689.06,82.53c0.06,0.19-6.91,2.53-15.57,5.23c-8.66,2.7-15.72,4.73-15.78,4.54
								c-0.06-0.19,6.91-2.53,15.57-5.23C681.93,84.37,689,82.34,689.06,82.53z"/>
						</g>
					</g>
				</g>
			</g>
		</g>
	</g>
</g>
<g id="Background_Simple" class="st4">
	<path class="st5" d="M698.51,300.8l-1.29-2.13c-10.88-17.92-30.54-28.73-51.28-27.42c-2.67,0.17-5.32,0.53-7.94,1.09
		c-18.85,4.04-35.26,18.29-42.05,36.55c-4,10.74-5.12,23.1-12.7,31.62c-9.88,11.09-26.64,11.44-41.38,10.98
		c-14.74-0.46-31.52-0.07-41.35,11.07c-6.15,6.97-8.11,16.89-7.61,26.23c1.31,24.73,18.55,46.84,40.46,57.83
		c21.91,10.99,47.71,11.97,71.7,7.14c33.6-6.77,65.55-25.37,84.75-54.1C709.02,370.94,713.88,331.8,698.51,300.8z"/>
	<circle class="st5" cx="629.63" cy="187.88" r="48.95"/>
	
		<ellipse transform="matrix(0.1588 -0.9873 0.9873 0.1588 -137.8627 313.218)" class="st5" cx="114.89" cy="237.52" rx="70.61" ry="70.61"/>
</g>
<g id="Device">
	<g>
		<g>
			<g>
				<g>
					<g>
						<g>
							<g>
								<g>
									<g>
										<g>
											<path class="st6" d="M601.82,37.15h-472.2c-8.14,0-14.74,6.6-14.74,14.74v333.52c0,8.14,6.6,14.74,14.74,14.74h181.23
												c0,0,11.53,35.65-24.21,54.09H456.1c0,0-40.35-13.83-29.97-54.09h175.69c8.14,0,14.74-6.6,14.74-14.74V51.89
												C616.56,43.75,609.96,37.15,601.82,37.15z"/>
										</g>
									</g>
								</g>
							</g>
							<g>
								<g>
									<g>
										<g>
											<path class="st7" d="M372.03,365.08c6.42,9.18-3.63,19.23-12.81,12.81c-0.3-0.21-0.58-0.49-0.79-0.79
												c-6.41-9.18,3.63-19.22,12.81-12.81C371.54,364.5,371.82,364.77,372.03,365.08z"/>
										</g>
									</g>
								</g>
							</g>
						</g>
						<g>
							<g>
								<path class="st8" d="M608.43,339.14H123.02V52.96c0-5.36,4.34-9.7,9.7-9.7h466.02c5.36,0,9.7,4.34,9.7,9.7V339.14z"/>
							</g>
						</g>
					</g>
					<g>
						<path class="st2" d="M608.43,67.85H123.02V52.41c0-5.06,4.1-9.15,9.15-9.15h468.75c4.15,0,7.52,3.37,7.52,7.52V67.85z"/>
					</g>
					<g>
						<g>
							<path class="st7" d="M141.89,56.07c0,1.88-1.53,3.41-3.41,3.41c-1.88,0-3.41-1.53-3.41-3.41c0-1.88,1.53-3.41,3.41-3.41
								C140.36,52.66,141.89,54.19,141.89,56.07z"/>
						</g>
						<g>
							<path class="st7" d="M152.05,56.07c0,1.88-1.53,3.41-3.41,3.41c-1.88,0-3.41-1.53-3.41-3.41c0-1.88,1.53-3.41,3.41-3.41
								C150.53,52.66,152.05,54.19,152.05,56.07z"/>
						</g>
						<g>
							<path class="st7" d="M161.72,56.07c0,1.88-1.53,3.41-3.41,3.41c-1.88,0-3.41-1.53-3.41-3.41c0-1.88,1.53-3.41,3.41-3.41
								C160.19,52.66,161.72,54.19,161.72,56.07z"/>
						</g>
					</g>
				</g>
				<g>
					<g>
						<path class="st7" d="M517.4,400.2c0,0.16-67.19,0.28-150.06,0.28c-82.9,0-150.08-0.13-150.08-0.28
							c0-0.16,67.18-0.28,150.08-0.28C450.21,399.92,517.4,400.04,517.4,400.2z"/>
					</g>
				</g>
			</g>
		</g>
		<g>
			<path class="st7" d="M576.79,164.88c0,0-0.01-0.49-0.02-1.43c-0.01-0.95-0.01-2.34-0.02-4.16c-0.01-3.65-0.03-9-0.05-15.87
				c-0.03-13.73-0.06-33.5-0.11-57.74l0.2,0.2c-35.61,0.02-81.69,0.04-131.86,0.06h-0.01l0.26-0.26
				c-0.01,28.06-0.01,54.83-0.02,79.2l-0.24-0.24c38.66,0.05,71.59,0.09,94.88,0.12c11.65,0.03,20.89,0.05,27.22,0.07
				c3.16,0.01,5.6,0.02,7.25,0.03c0.82,0.01,1.44,0.01,1.88,0.01C576.57,164.87,576.79,164.88,576.79,164.88s-0.2,0.01-0.62,0.01
				c-0.43,0-1.04,0.01-1.85,0.01c-1.65,0.01-4.07,0.02-7.21,0.03c-6.32,0.02-15.54,0.04-27.17,0.07
				c-23.32,0.03-56.31,0.07-95.04,0.12l-0.24,0l0-0.24c-0.01-24.37-0.01-51.15-0.02-79.2l0-0.26h0.26h0.01
				c50.17,0.02,96.25,0.04,131.86,0.06l0.2,0l0,0.2c-0.04,24.29-0.08,44.11-0.11,57.87c-0.02,6.85-0.04,12.19-0.05,15.83
				c-0.01,1.8-0.02,3.18-0.02,4.12C576.8,164.42,576.79,164.88,576.79,164.88z"/>
		</g>
		<g>
			<path class="st7" d="M258.21,338.46c-0.14,0-0.26-60.58-0.26-135.3c0-74.74,0.12-135.32,0.26-135.32
				c0.14,0,0.26,60.57,0.26,135.32C258.48,277.88,258.36,338.46,258.21,338.46z"/>
		</g>
		<rect x="156.2" y="113.72" class="st1" width="82.33" height="13.89"/>
		<g>
			<g>
				<path class="st9" d="M522.94,156.42l-41.1-0.06c-2,0-3.61-1.62-3.61-3.62l0.08-55.38c0-2,1.62-3.61,3.62-3.61l28.74,0.04
					l15.95,15.57l-0.06,43.44C526.56,154.81,524.94,156.42,522.94,156.42z"/>
			</g>
			<g class="st10">
				<path class="st8" d="M510.67,93.66l-0.02,11c0,2.72,2.2,4.93,4.92,4.93l11.05-0.23L510.67,93.66z"/>
			</g>
			<g>
				<g>
					<g>
						<path class="st8" d="M516.79,145.47c-0.01-0.01-0.02-0.19-0.02-0.52c-0.01-0.37-0.01-0.85-0.02-1.46
							c-0.01-1.31-0.03-3.16-0.05-5.5c-0.02-4.74-0.05-11.45-0.09-19.49l0.22,0.22c-8.13,0-17.75,0-28.03,0
							c-0.06,0.06,0.49-0.49,0.26-0.26l0,0.01v0.01l0,0.03l0,0.06l0,0.12l0,0.23l0,0.46l0,0.92c0,0.61,0,1.22,0,1.83
							c0,1.21,0,2.41-0.01,3.6c-0.01,2.38-0.01,4.7-0.02,6.97c-0.02,4.53-0.03,8.8-0.04,12.74l-0.23-0.23
							c8.34,0.06,15.31,0.11,20.24,0.14c2.44,0.03,4.36,0.05,5.73,0.07c0.64,0.01,1.14,0.02,1.53,0.03
							C516.6,145.46,516.78,145.46,516.79,145.47c0.01,0.01-0.16,0.02-0.49,0.03c-0.37,0.01-0.86,0.01-1.48,0.02
							c-1.35,0.01-3.26,0.03-5.68,0.05c-4.97,0.02-11.99,0.05-20.39,0.09l-0.23,0l0-0.23c0-3.94,0-8.22-0.01-12.74
							c0-2.26,0-4.59,0-6.97c0-1.19,0-2.39,0-3.6c0-0.61,0-1.21,0-1.83l0-0.92l0-0.46l0-0.23l0-0.12v-0.06l0-0.03v-0.01l0-0.01
							c-0.23,0.23,0.32-0.32,0.26-0.26c10.28,0.03,19.9,0.05,28.03,0.08l0.23,0l0,0.22c-0.06,8.1-0.11,14.86-0.14,19.63
							c-0.03,2.32-0.05,4.15-0.07,5.45c-0.01,0.59-0.02,1.07-0.03,1.42C516.81,145.32,516.8,145.48,516.79,145.47z"/>
					</g>
				</g>
				<g>
					<g>
						<path class="st8" d="M502.5,145.77c-0.14,0-0.25-6.04-0.24-13.49c0.01-7.45,0.14-13.49,0.28-13.49
							c0.14,0,0.25,6.04,0.24,13.49C502.77,139.73,502.65,145.77,502.5,145.77z"/>
					</g>
				</g>
				<g>
					<g>
						<path class="st8" d="M516.69,138.86c0,0.14-6.3,0.25-14.07,0.24c-7.77-0.01-14.07-0.14-14.07-0.28c0-0.14,6.3-0.25,14.07-0.24
							C510.39,138.59,516.69,138.72,516.69,138.86z"/>
					</g>
				</g>
				<g>
					<g>
						<path class="st8" d="M517.02,131.99c0,0.14-6.3,0.25-14.07,0.24c-7.77-0.01-14.07-0.14-14.07-0.28c0-0.14,6.3-0.25,14.07-0.24
							C510.72,131.72,517.02,131.84,517.02,131.99z"/>
					</g>
				</g>
				<g>
					<g>
						<path class="st8" d="M516.82,125.11c0,0.14-6.25,0.25-13.97,0.24c-7.71-0.01-13.97-0.14-13.97-0.28
							c0-0.14,6.25-0.25,13.97-0.24C510.57,124.84,516.82,124.97,516.82,125.11z"/>
					</g>
				</g>
			</g>
		</g>
		<g>
			<g>
				<g>
					<g>
						<g>
							<g>
								<g>
									<g>
										<path class="st6" d="M583.08,156.39l-39.56,0c-2.73,0-4.95-2.22-4.95-4.95V96.69c0-2.73,2.22-4.95,4.95-4.95h25.09
											l19.42,20.02l0,39.69C588.03,154.18,585.81,156.39,583.08,156.39z"/>
									</g>
								</g>
							</g>
						</g>
					</g>
				</g>
				<g>
					<g>
						<g>
							<g>
								<g>
									<g>
										<path class="st6" d="M568.61,91.74v15.41c0,2.54,2.06,4.6,4.6,4.6l14.82,0L568.61,91.74z"/>
									</g>
								</g>
							</g>
						</g>
					</g>
				</g>
				<g class="st11">
					<g>
						<g>
							<g>
								<g>
									<g>
										<path d="M568.81,108.5c0,0-0.19,3.74,4.06,4.97c0.16,0.05,0.32,0.08,0.49,0.11c1.93,0.35,14.67,2.61,14.67,2.32
											c0-0.32,0-4.14,0-4.14l-14.82,0C573.21,111.76,569.51,111.63,568.81,108.5z"/>
									</g>
								</g>
							</g>
						</g>
					</g>
				</g>
				<g class="st10">
					<g>
						<g>
							<g>
								<g>
									<g>
										<path class="st8" d="M568.61,91.74v15.41c0,2.54,2.06,4.6,4.6,4.6l14.82,0L568.61,91.74z"/>
									</g>
								</g>
							</g>
						</g>
					</g>
				</g>
			</g>
			<g>
				<g>
					<g>
						<g>
							<g>
								<path class="st3" d="M565.29,106.52c0,0.2-4.1,0.36-9.15,0.36c-5.05,0-9.15-0.16-9.15-0.36c0-0.2,4.1-0.36,9.15-0.36
									C561.2,106.16,565.29,106.32,565.29,106.52z"/>
							</g>
						</g>
					</g>
				</g>
			</g>
			<g>
				<g>
					<g>
						<g>
							<g>
								<path class="st3" d="M577.11,115.23c0,0.2-6.74,0.36-15.06,0.36c-8.32,0-15.06-0.16-15.06-0.36c0-0.2,6.74-0.36,15.06-0.36
									C570.37,114.87,577.11,115.04,577.11,115.23z"/>
							</g>
						</g>
					</g>
				</g>
			</g>
			<g>
				<g>
					<g>
						<g>
							<g>
								<path class="st3" d="M579.83,122.51c0,0.2-7.35,0.36-16.42,0.36c-9.07,0-16.42-0.16-16.42-0.36c0-0.2,7.35-0.36,16.42-0.36
									C572.47,122.15,579.83,122.31,579.83,122.51z"/>
							</g>
						</g>
					</g>
				</g>
			</g>
			<g>
				<g>
					<g>
						<g>
							<g>
								<path class="st3" d="M579.83,129.37c0,0.2-7.35,0.36-16.42,0.36c-9.07,0-16.42-0.16-16.42-0.36c0-0.2,7.35-0.36,16.42-0.36
									C572.47,129.02,579.83,129.18,579.83,129.37z"/>
							</g>
						</g>
					</g>
				</g>
			</g>
			<g>
				<g>
					<g>
						<g>
							<g>
								<path class="st3" d="M579.83,136.24c0,0.2-7.35,0.36-16.42,0.36c-9.07,0-16.42-0.16-16.42-0.36c0-0.2,7.35-0.36,16.42-0.36
									C572.47,135.88,579.83,136.04,579.83,136.24z"/>
							</g>
						</g>
					</g>
				</g>
			</g>
			<g>
				<g>
					<g>
						<g>
							<g>
								<path class="st3" d="M579.83,143.1c0,0.2-7.35,0.36-16.42,0.36c-9.07,0-16.42-0.16-16.42-0.36c0-0.2,7.35-0.36,16.42-0.36
									C572.47,142.74,579.83,142.9,579.83,143.1z"/>
							</g>
						</g>
					</g>
				</g>
			</g>
		</g>
		<g>
			<g>
				<g>
					<rect x="308.99" y="84.79" class="st0" width="96.33" height="82.93"/>
					<g>
						<path class="st7" d="M405.33,167.72c0,0-0.02-0.53-0.02-1.54c-0.01-1.02-0.01-2.5-0.03-4.44c-0.01-3.89-0.03-9.58-0.06-16.83
							c-0.03-14.49-0.07-35.19-0.11-60.13l0.22,0.22c-27.67,0.01-60.79,0.03-96.33,0.04h-0.01l0.26-0.26
							c-0.01,30.1-0.02,58.46-0.03,82.93l-0.23-0.23c28.69,0.05,52.74,0.09,69.64,0.12c8.45,0.03,15.11,0.05,19.67,0.06
							c2.27,0.01,4.02,0.02,5.21,0.03c0.58,0.01,1.03,0.01,1.34,0.01C405.17,167.71,405.33,167.72,405.33,167.72
							s-0.14,0.01-0.44,0.01c-0.31,0-0.75,0.01-1.32,0.01c-1.18,0.01-2.91,0.02-5.17,0.03c-4.55,0.01-11.19,0.03-19.62,0.06
							c-16.93,0.03-41.04,0.07-69.79,0.12l-0.23,0l0-0.23c-0.01-24.47-0.02-52.84-0.03-82.93l0-0.26h0.26H309
							c35.54,0.02,68.66,0.03,96.33,0.04l0.22,0l0,0.22c-0.05,25-0.09,45.75-0.11,60.27c-0.02,7.23-0.04,12.9-0.06,16.78
							c-0.01,1.92-0.02,3.39-0.03,4.4C405.34,167.22,405.33,167.72,405.33,167.72z"/>
					</g>
				</g>
				<g>
					<path class="st7" d="M312.35,167.64c-0.1-0.11,20.64-18.74,46.31-41.62c25.68-22.88,46.57-41.34,46.67-41.23
						c0.1,0.11-20.64,18.74-46.32,41.62C333.34,149.28,312.44,167.74,312.35,167.64z"/>
				</g>
			</g>
			<g>
				<path class="st7" d="M406.14,167.72c-0.09,0.11-21.92-18.37-48.74-41.27c-26.83-22.91-48.5-41.56-48.41-41.67
					c0.09-0.11,21.91,18.37,48.74,41.27C384.56,148.96,406.23,167.61,406.14,167.72z"/>
			</g>
		</g>
		<g>
			<g>
				<g>
					<rect x="490.57" y="183.84" class="st2" width="82.22" height="70.79"/>
					<g>
						<path class="st7" d="M572.79,254.63c0,0-0.02-0.46-0.02-1.32c-0.01-0.87-0.01-2.14-0.03-3.79c-0.01-3.33-0.03-8.18-0.06-14.36
							c-0.03-12.36-0.07-30.03-0.11-51.31l0.22,0.22c-23.61,0.01-51.88,0.03-82.21,0.04h-0.01l0.26-0.26
							c-0.01,25.69-0.02,49.9-0.03,70.79l-0.23-0.23c24.48,0.05,45.01,0.09,59.43,0.12c7.21,0.03,12.9,0.05,16.8,0.06
							c1.94,0.01,3.43,0.02,4.45,0.03c0.5,0.01,0.88,0.01,1.15,0.01C572.65,254.62,572.79,254.63,572.79,254.63
							s-0.12,0.01-0.37,0.01c-0.27,0-0.64,0.01-1.12,0.01c-1.01,0.01-2.49,0.02-4.41,0.03c-3.89,0.01-9.55,0.03-16.74,0.06
							c-14.46,0.03-35.03,0.07-59.58,0.12l-0.23,0l0-0.23c-0.01-20.89-0.02-45.1-0.03-70.79l0-0.26h0.26h0.01
							c30.33,0.02,58.6,0.03,82.21,0.04l0.22,0l0,0.22c-0.05,21.34-0.09,39.05-0.11,51.45c-0.02,6.16-0.04,11-0.06,14.31
							c-0.01,1.63-0.02,2.89-0.03,3.75C572.81,254.2,572.79,254.63,572.79,254.63z"/>
					</g>
				</g>
				<g>
					<path class="st7" d="M493.43,254.55c-0.1-0.11,17.59-16.03,39.5-35.55c21.92-19.53,39.76-35.27,39.85-35.16
						c0.1,0.11-17.59,16.02-39.51,35.55C511.37,238.92,493.53,254.66,493.43,254.55z"/>
				</g>
			</g>
			<g>
				<path class="st7" d="M573.48,254.63c-0.09,0.11-18.73-15.65-41.62-35.19c-22.9-19.55-41.38-35.48-41.29-35.59
					c0.09-0.11,18.73,15.65,41.63,35.2C555.09,238.58,573.58,254.52,573.48,254.63z"/>
			</g>
		</g>
		<path class="st9" d="M146.04,120.66c0,2.52-2.04,4.56-4.56,4.56c-2.52,0-4.56-2.04-4.56-4.56c0-2.52,2.04-4.56,4.56-4.56
			C144,116.11,146.04,118.15,146.04,120.66z"/>
		<rect x="156.2" y="146.58" class="st1" width="82.33" height="13.89"/>
		<path class="st1" d="M146.04,153.52c0,2.52-2.04,4.56-4.56,4.56c-2.52,0-4.56-2.04-4.56-4.56c0-2.52,2.04-4.56,4.56-4.56
			C144,148.96,146.04,151,146.04,153.52z"/>
		<rect x="156.2" y="179.43" class="st1" width="82.33" height="13.89"/>
		<path class="st9" d="M146.04,186.38c0,2.52-2.04,4.56-4.56,4.56c-2.52,0-4.56-2.04-4.56-4.56c0-2.52,2.04-4.56,4.56-4.56
			C144,181.82,146.04,183.86,146.04,186.38z"/>
		<rect x="156.2" y="212.29" class="st1" width="82.33" height="13.89"/>
		<path class="st1" d="M146.04,219.23c0,2.52-2.04,4.56-4.56,4.56c-2.52,0-4.56-2.04-4.56-4.56c0-2.52,2.04-4.56,4.56-4.56
			C144,214.68,146.04,216.72,146.04,219.23z"/>
		<rect x="156.2" y="245.15" class="st1" width="82.33" height="13.89"/>
		<path class="st1" d="M146.04,252.09c0,2.52-2.04,4.56-4.56,4.56c-2.52,0-4.56-2.04-4.56-4.56c0-2.52,2.04-4.56,4.56-4.56
			C144,247.53,146.04,249.57,146.04,252.09z"/>
		<rect x="156.2" y="278" class="st1" width="82.33" height="13.89"/>
		<path class="st9" d="M146.04,284.95c0,2.52-2.04,4.56-4.56,4.56c-2.52,0-4.56-2.04-4.56-4.56s2.04-4.56,4.56-4.56
			C144,280.39,146.04,282.43,146.04,284.95z"/>
		<g>
			<path class="st7" d="M470.33,254.37c0,0-0.01-0.12-0.01-0.34c0-0.24-0.01-0.56-0.01-0.99c-0.01-0.88-0.02-2.16-0.03-3.81
				c-0.01-3.34-0.03-8.2-0.06-14.37c-0.03-12.33-0.07-29.87-0.12-50.76l0.23,0.23c-17.58,0.01-37.9,0.02-59.45,0.03h-0.01l0.26-0.26
				c-0.02,25.95-0.03,50.11-0.04,70.27l-0.22-0.22c17.88,0.05,32.71,0.09,43.1,0.11c5.19,0.02,9.27,0.04,12.07,0.06
				c1.38,0.01,2.45,0.02,3.19,0.02C469.94,254.35,470.33,254.37,470.33,254.37s-0.35,0.02-1.06,0.02c-0.73,0.01-1.78,0.01-3.15,0.02
				c-2.79,0.01-6.85,0.03-12.02,0.06c-10.42,0.03-25.3,0.07-43.24,0.11l-0.22,0l0-0.22c-0.01-20.16-0.03-44.32-0.04-70.27l0-0.26
				h0.26h0.01c21.55,0.01,41.87,0.02,59.45,0.03l0.23,0l0,0.23c-0.05,20.96-0.09,38.55-0.12,50.91c-0.03,6.14-0.05,10.99-0.06,14.31
				c-0.01,1.64-0.02,2.9-0.03,3.77c-0.01,0.41-0.01,0.73-0.01,0.96C470.34,254.27,470.33,254.37,470.33,254.37z"/>
		</g>
		<rect x="410.87" y="269.85" class="st2" width="59.46" height="59.46"/>
		<rect x="484.98" y="272.59" class="st2" width="91.81" height="59.46"/>
		<rect x="303.8" y="184.1" class="st2" width="91.21" height="70.27"/>
		<g>
			<path class="st7" d="M392.77,329.31c0,0-0.02-0.39-0.02-1.14c-0.01-0.76-0.01-1.86-0.02-3.29c-0.01-2.89-0.03-7.11-0.05-12.51
				c-0.03-10.8-0.06-26.29-0.11-45.17l0.21,0.21c-25.22,0.01-56.89,0.03-91.2,0.05h-0.01l0.26-0.26
				c-0.01,22.15-0.02,43.21-0.02,62.1l-0.24-0.24c26.86,0.05,49.63,0.09,65.7,0.12c8.04,0.03,14.4,0.05,18.77,0.06
				c2.17,0.01,3.85,0.02,5,0.03c0.56,0.01,0.99,0.01,1.29,0.01C392.62,329.3,392.77,329.31,392.77,329.31s-0.14,0.01-0.42,0.01
				c-0.3,0-0.72,0.01-1.27,0.01c-1.14,0.01-2.8,0.02-4.95,0.03c-4.36,0.01-10.7,0.04-18.72,0.06c-16.11,0.03-38.94,0.07-65.85,0.12
				l-0.24,0l0-0.24c-0.01-18.89-0.01-39.95-0.02-62.1l0-0.26h0.26h0.01c34.31,0.02,65.98,0.04,91.2,0.05l0.21,0l0,0.21
				c-0.05,18.93-0.08,34.47-0.11,45.3c-0.02,5.38-0.04,9.58-0.05,12.46c-0.01,1.41-0.02,2.5-0.02,3.25
				C392.79,328.95,392.77,329.31,392.77,329.31z"/>
		</g>
		<g>
			<g>
				<path class="st9" d="M376.52,199.05c1.85,0,3.35,1.52,3.35,3.39c0,1.19,0,2.35,0,2.86l-0.19,25.78
					c-0.01,1.23-1.01,2.23-2.23,2.22l-59.01-0.43c-1.17-0.01-2.13-0.93-2.19-2.11l-1.78-33.12c-0.07-1.29,0.95-2.37,2.23-2.36
					l13.35,0.1c1.26,0.01,2.48,0.47,3.44,1.29l2.74,2.36L376.52,199.05z"/>
			</g>
			<g class="st10">
				<path d="M376.52,199.05c1.85,0,3.35,1.52,3.35,3.39c0,1.19,0,2.35,0,2.86l-0.19,25.78c-0.01,1.23-1.01,2.23-2.23,2.22
					l-59.01-0.43c-1.17-0.01-2.13-0.93-2.19-2.11l-1.78-33.12c-0.07-1.29,0.95-2.37,2.23-2.36l13.35,0.1
					c1.26,0.01,2.48,0.47,3.44,1.29l2.74,2.36L376.52,199.05z"/>
			</g>
			<g>
				
					<rect x="316.28" y="202.32" transform="matrix(1 7.323902e-03 -7.323902e-03 1 1.6336 -2.5465)" class="st0" width="64.47" height="38.91"/>
			</g>
			<g>
				<path class="st9" d="M311.26,205.54l4.63,40.61c0.08,0.72,0.68,1.27,1.4,1.27l62.83,0.46c0.74,0.01,1.37-0.57,1.43-1.31
					l3.46-40.55c0.07-0.84-0.58-1.55-1.41-1.56l-70.92-0.52C311.83,203.93,311.17,204.68,311.26,205.54z"/>
			</g>
		</g>
		<g>
			<g>
				<g>
					<g>
						<g>
							<g>
								<g>
									<g>
										
											<rect x="507.45" y="182.97" transform="matrix(1.119013e-03 -1 1 1.119013e-03 315.3794 766.4045)" class="st2" width="67.74" height="84.73"/>
									</g>
								</g>
							</g>
						</g>
						<g>
							<g>
								<g>
									<g>
										<g>
											<path class="st7" d="M583.72,191.51c0,0-0.14,0.01-0.41,0.01c-0.28,0-0.67,0.01-1.19,0.01c-1.06,0-2.6,0.01-4.6,0.02
												c-4.03,0.01-9.9,0.02-17.35,0.04c-14.88,0.01-36.03,0.02-61.18,0.04l0.22-0.22c-0.01,20.16-0.03,43.27-0.05,67.73v0.01
												l-0.25-0.25c31.37,0.05,60.52,0.1,84.73,0.14l-0.2,0.2c0.07-20.4,0.12-37.3,0.16-49.13c0.03-5.91,0.05-10.55,0.07-13.73
												c0.01-1.58,0.02-2.79,0.03-3.62C583.71,191.95,583.72,191.51,583.72,191.51s0.01,0.4,0.02,1.21
												c0,0.82,0.01,2.02,0.02,3.58c0.01,3.17,0.02,7.79,0.04,13.68c0.01,11.86,0.03,28.81,0.05,49.26l0,0.2l-0.2,0
												c-24.21-0.02-53.36-0.03-84.73-0.05l-0.25,0l0-0.25v-0.01c0.04-24.46,0.07-47.57,0.1-67.73l0-0.22l0.22,0
												c25.2,0.07,46.4,0.14,61.32,0.18c7.42,0.03,13.28,0.06,17.3,0.08c1.99,0.01,3.51,0.02,4.56,0.03
												c0.5,0.01,0.89,0.01,1.16,0.01C583.6,191.51,583.72,191.51,583.72,191.51z"/>
										</g>
									</g>
								</g>
							</g>
						</g>
					</g>
				</g>
			</g>
			<g>
				<g>
					<g>
						<g>
							
								<rect x="511.66" y="185.95" transform="matrix(1.119631e-03 -1 1 1.119631e-03 315.324 766.3491)" class="st9" width="59.21" height="78.78"/>
						</g>
					</g>
				</g>
			</g>
			<g>
				<g>
					<g>
						<g>
							<polygon class="st9" points="501.84,254.9 529.4,218.12 546.42,241.17 557.99,228.87 580.62,254.98 							"/>
						</g>
					</g>
				</g>
			</g>
			<g>
				<g>
					<g>
						<g>
							<g>
								<g>
									<path class="st9" d="M553.68,213.64c0,3.43-2.78,6.2-6.21,6.2c-3.43,0-6.2-2.78-6.2-6.21c0-3.43,2.78-6.2,6.21-6.2
										C550.91,207.44,553.69,210.22,553.68,213.64z"/>
								</g>
							</g>
						</g>
					</g>
				</g>
			</g>
			<g class="st11">
				<g>
					<g>
						<g>
							<polygon points="501.84,254.9 529.4,218.12 546.42,241.17 557.99,228.87 580.62,254.98 							"/>
						</g>
					</g>
				</g>
			</g>
			<g class="st11">
				<g>
					<g>
						<g>
							<g>
								<g>
									<path d="M553.68,213.64c0,3.43-2.78,6.2-6.21,6.2c-3.43,0-6.2-2.78-6.2-6.21c0-3.43,2.78-6.2,6.21-6.2
										C550.91,207.44,553.69,210.22,553.68,213.64z"/>
								</g>
							</g>
						</g>
					</g>
				</g>
			</g>
		</g>
	</g>
</g>
<g id="Character">
	<g>
		<g>
			<g>
				<g>
					<g>
						<g>
							<g>
								<g>
									
										<rect x="305.99" y="80.97" transform="matrix(1.119480e-03 -1 1 1.119480e-03 215.4158 469.545)" class="st2" width="73.52" height="91.96"/>
								</g>
							</g>
						</g>
					</g>
					<g>
						<g>
							<g>
								<g>
									<g>
										<path class="st7" d="M388.76,90.24c0,0-0.15,0.01-0.45,0.01c-0.3,0-0.73,0.01-1.29,0.01c-1.15,0.01-2.82,0.01-5,0.02
											c-4.37,0.01-10.75,0.02-18.83,0.04c-16.15,0.01-39.11,0.03-66.4,0.05l0.24-0.24c-0.02,21.88-0.03,46.96-0.05,73.51v0.01
											l-0.27-0.27c34.04,0.05,65.68,0.11,91.96,0.15l-0.22,0.22c0.07-22.14,0.13-40.49,0.17-53.32
											c0.03-6.42,0.06-11.45,0.07-14.9c0.01-1.71,0.02-3.03,0.03-3.93C388.75,90.71,388.76,90.24,388.76,90.24
											s0.02,0.44,0.02,1.32c0,0.89,0.01,2.2,0.02,3.89c0.01,3.44,0.02,8.46,0.04,14.85c0.01,12.87,0.03,31.26,0.06,53.46l0,0.22
											l-0.22,0c-26.28-0.02-57.91-0.04-91.96-0.06h-0.27l0-0.27v-0.01c0.04-26.54,0.08-51.63,0.11-73.51l0-0.24l0.24,0
											c27.35,0.08,50.36,0.15,66.55,0.19c8.06,0.04,14.41,0.06,18.77,0.08c2.15,0.01,3.81,0.03,4.95,0.03
											c0.55,0.01,0.97,0.01,1.26,0.02C388.63,90.23,388.76,90.24,388.76,90.24z"/>
									</g>
								</g>
							</g>
						</g>
					</g>
				</g>
			</g>
		</g>
		<g>
			<g>
				<g>
					<g>
						
							<rect x="310.55" y="84.2" transform="matrix(1.119358e-03 -1 1 1.119358e-03 215.3561 469.485)" class="st9" width="64.26" height="85.5"/>
					</g>
				</g>
			</g>
		</g>
		<g>
			<g>
				<g>
					<g>
						<polygon class="st9" points="299.9,159.03 329.81,119.12 348.28,144.13 360.84,130.78 385.4,159.12 						"/>
					</g>
				</g>
			</g>
		</g>
		<g>
			<g>
				<g>
					<g>
						<g>
							<g>
								<path class="st9" d="M356.16,114.25c0,3.72-3.02,6.73-6.74,6.72c-3.72,0-6.73-3.02-6.72-6.74c0-3.72,3.02-6.73,6.74-6.72
									C353.15,107.52,356.17,110.53,356.16,114.25z"/>
							</g>
						</g>
					</g>
				</g>
			</g>
		</g>
		<g class="st11">
			<g>
				<g>
					<g>
						<polygon points="299.9,159.03 329.81,119.12 348.28,144.13 360.84,130.78 385.4,159.12 						"/>
					</g>
				</g>
			</g>
		</g>
		<g class="st11">
			<g>
				<g>
					<g>
						<g>
							<g>
								<path d="M356.16,114.25c0,3.72-3.02,6.73-6.74,6.72c-3.72,0-6.73-3.02-6.72-6.74c0-3.72,3.02-6.73,6.74-6.72
									C353.15,107.52,356.17,110.53,356.16,114.25z"/>
							</g>
						</g>
					</g>
				</g>
			</g>
		</g>
	</g>
	<g>
		<g>
			<g>
				<g>
					<path class="st12" d="M382.06,163.98l5.61,0.02l0.52-7.59l0.89-6.68l-0.22-10.78l5.4,5.8c0.49,0.73,0.79,1.56,0.88,2.43
						l0.92,20.5l0.25,8.77l-9.84,6.41l0.04-10.44c0,0,0,0-2.35-2.43S382.06,163.98,382.06,163.98z"/>
				</g>
				<g>
					<g>
						<path class="st12" d="M394.12,156.4c-1.33-2.25-2.87-4.39-4.59-6.36c-0.56-0.64-1.17-1.29-1.94-1.64
							c-0.78-0.35-1.78-0.36-2.41,0.21c-0.72,0.65-0.75,1.81-0.35,2.7c0.4,0.89,1.12,1.58,1.78,2.29c0.66,0.72,1.28,1.54,1.4,2.5
							c0.11,0.91-0.24,1.8-0.45,2.69c-0.68,2.9,0.28,6.13,2.43,8.19"/>
					</g>
					<g>
						<g>
							<path class="st13" d="M389.99,167c0.03-0.03-0.31-0.36-0.79-1.04c-0.48-0.68-1.09-1.75-1.43-3.2
								c-0.16-0.72-0.27-1.53-0.22-2.4c0.03-0.88,0.27-1.75,0.54-2.73c0.12-0.49,0.21-1.04,0.13-1.61c-0.08-0.56-0.32-1.1-0.64-1.57
								c-0.63-0.95-1.54-1.67-2.16-2.57c-0.32-0.45-0.54-0.94-0.6-1.45c-0.06-0.51,0.03-1.03,0.3-1.41
								c0.56-0.79,1.76-0.76,2.54-0.32c0.83,0.44,1.43,1.19,2.02,1.85c0.58,0.67,1.1,1.31,1.56,1.9c0.92,1.19,1.62,2.19,2.09,2.89
								c0.47,0.7,0.73,1.09,0.77,1.07c0.03-0.02-0.18-0.44-0.6-1.17c-0.43-0.73-1.08-1.77-1.98-2.99c-0.45-0.61-0.96-1.27-1.53-1.95
								c-0.58-0.67-1.18-1.46-2.11-1.99c-0.47-0.26-1.03-0.41-1.6-0.37c-0.57,0.03-1.19,0.29-1.56,0.81
								c-0.74,1.05-0.43,2.48,0.28,3.43c0.69,0.99,1.59,1.69,2.17,2.56c0.29,0.43,0.5,0.89,0.57,1.36c0.07,0.47,0,0.96-0.11,1.43
								c-0.25,0.94-0.5,1.92-0.51,2.82c-0.03,0.91,0.09,1.76,0.29,2.5c0.39,1.5,1.08,2.57,1.61,3.23c0.27,0.33,0.5,0.57,0.67,0.72
								C389.89,166.94,389.98,167.01,389.99,167z"/>
						</g>
					</g>
				</g>
			</g>
			<g>
				<g>
					<g>
						<g>
							<g>
								<g>
									<g>
										<g>
											<g>
												<g>
													<g>
														<g>
															<path class="st9" d="M430.33,417.7l4.08,19.99c0,0-18.94,10.86-18.55,14.63l39.04-6.53l-5.09-31.4L430.33,417.7z"/>
														</g>
													</g>
												</g>
											</g>
										</g>
									</g>
								</g>
							</g>
						</g>
						<g class="st10">
							<g>
								<g>
									<g>
										<g>
											<g>
												<g>
													<g>
														<g>
															<path d="M430.33,417.7l4.08,19.99c0,0-18.94,10.86-18.55,14.63l39.04-6.53l-5.09-31.4L430.33,417.7z"/>
														</g>
													</g>
												</g>
											</g>
										</g>
									</g>
								</g>
							</g>
						</g>
						<g>
							<g>
								<g>
									<g>
										<g>
											<g>
												<g>
													<g>
														<g>
															<g>
																<path class="st1" d="M446.2,433.98c0.79,0.08,1.45,0.84,1.41,1.63c-0.05,0.79-0.82,1.47-1.61,1.41
																	c-0.79-0.07-1.62-0.96-1.48-1.74c0.14-0.78,1.08-1.53,1.84-1.28"/>
															</g>
														</g>
													</g>
												</g>
											</g>
										</g>
									</g>
								</g>
							</g>
						</g>
						<g>
							<g>
								<g>
									<g>
										<g>
											<g>
												<g>
													<g>
														<g>
															<path class="st7" d="M454.9,445.79l-0.64-3.15l-37.19,7.43c0,0-1.61,1.05-1.21,2.24L454.9,445.79z"/>
														</g>
													</g>
												</g>
											</g>
										</g>
									</g>
								</g>
							</g>
						</g>
						<g>
							<g>
								<g>
									<g>
										<g>
											<g>
												<g>
													<g>
														<g>
															<g>
																<path class="st7" d="M433.75,437.6c0.04,0.19,1.01,0.12,2.05,0.57c1.05,0.43,1.67,1.17,1.84,1.07
																	c0.17-0.07-0.31-1.16-1.57-1.69C434.79,437.01,433.68,437.43,433.75,437.6z"/>
															</g>
														</g>
													</g>
												</g>
											</g>
										</g>
									</g>
								</g>
							</g>
						</g>
						<g>
							<g>
								<g>
									<g>
										<g>
											<g>
												<g>
													<g>
														<g>
															<g>
																<path class="st7" d="M429.94,439.97c-0.01,0.19,0.87,0.38,1.65,1.08c0.8,0.67,1.11,1.52,1.3,1.48
																	c0.18,0,0.13-1.14-0.86-1.99C431.05,439.68,429.91,439.79,429.94,439.97z"/>
															</g>
														</g>
													</g>
												</g>
											</g>
										</g>
									</g>
								</g>
							</g>
						</g>
						<g>
							<g>
								<g>
									<g>
										<g>
											<g>
												<g>
													<g>
														<g>
															<g>
																<path class="st7" d="M428.43,445.26c0.18,0.01,0.29-0.99-0.38-1.95c-0.66-0.97-1.62-1.23-1.68-1.06
																	c-0.08,0.17,0.59,0.64,1.12,1.44C428.05,444.48,428.24,445.28,428.43,445.26z"/>
															</g>
														</g>
													</g>
												</g>
											</g>
										</g>
									</g>
								</g>
							</g>
						</g>
						<g>
							<g>
								<g>
									<g>
										<g>
											<g>
												<g>
													<g>
														<g>
															<g>
																<path class="st7" d="M433.32,432.94c0.11,0.16,0.94-0.25,2.03-0.36c1.09-0.13,1.99,0.09,2.06-0.09
																	c0.09-0.16-0.85-0.72-2.13-0.58C434,432.05,433.2,432.8,433.32,432.94z"/>
															</g>
														</g>
													</g>
												</g>
											</g>
										</g>
									</g>
								</g>
							</g>
						</g>
					</g>
				</g>
			</g>
			<g>
				<g>
					<g>
						<g>
							<g>
								<g>
									<g>
										<g>
											<g>
												<g>
													<g>
														<g>
															<path class="st9" d="M443.19,422.28l0.7,20.39c0,0-20.49,7.56-20.72,11.34l39.58,0.05l0.21-31.81L443.19,422.28z"/>
														</g>
													</g>
												</g>
											</g>
										</g>
									</g>
								</g>
							</g>
						</g>
						<g>
							<g>
								<g>
									<g>
										<g>
											<g>
												<g>
													<g>
														<g>
															<g>
																<path class="st1" d="M456.13,440.97c0.77,0.21,1.29,1.07,1.12,1.85c-0.18,0.77-1.05,1.32-1.82,1.12
																	c-0.77-0.2-1.43-1.21-1.17-1.96c0.26-0.75,1.32-1.33,2.02-0.96"/>
															</g>
														</g>
													</g>
												</g>
											</g>
										</g>
									</g>
								</g>
							</g>
						</g>
						<g>
							<g>
								<g>
									<g>
										<g>
											<g>
												<g>
													<g>
														<g>
															<path class="st7" d="M462.75,454.07l-0.1-3.21l-37.91,1.15c0,0-1.76,0.76-1.57,2.01L462.75,454.07z"/>
														</g>
													</g>
												</g>
											</g>
										</g>
									</g>
								</g>
							</g>
						</g>
						<g>
							<g>
								<g>
									<g>
										<g>
											<g>
												<g>
													<g>
														<g>
															<g>
																<path class="st7" d="M443.25,442.47c0.01,0.19,0.97,0.28,1.92,0.9c0.97,0.6,1.46,1.44,1.63,1.36
																	c0.18-0.04-0.11-1.19-1.27-1.93C444.38,442.06,443.21,442.29,443.25,442.47z"/>
															</g>
														</g>
													</g>
												</g>
											</g>
										</g>
									</g>
								</g>
							</g>
						</g>
						<g>
							<g>
								<g>
									<g>
										<g>
											<g>
												<g>
													<g>
														<g>
															<g>
																<path class="st7" d="M439.1,444.18c-0.04,0.19,0.79,0.52,1.45,1.34c0.68,0.8,0.84,1.68,1.04,1.68
																	c0.18,0.03,0.32-1.1-0.52-2.1C440.24,444.08,439.1,443.99,439.1,444.18z"/>
															</g>
														</g>
													</g>
												</g>
											</g>
										</g>
									</g>
								</g>
							</g>
						</g>
						<g>
							<g>
								<g>
									<g>
										<g>
											<g>
												<g>
													<g>
														<g>
															<g>
																<path class="st7" d="M436.73,449.14c0.18,0.04,0.45-0.92-0.05-1.98c-0.49-1.06-1.4-1.48-1.48-1.32
																	c-0.11,0.16,0.48,0.73,0.87,1.6C436.49,448.31,436.54,449.13,436.73,449.14z"/>
															</g>
														</g>
													</g>
												</g>
											</g>
										</g>
									</g>
								</g>
							</g>
						</g>
						<g>
							<g>
								<g>
									<g>
										<g>
											<g>
												<g>
													<g>
														<g>
															<g>
																<path class="st7" d="M443.61,437.8c0.08,0.18,0.97-0.09,2.06-0.01c1.09,0.05,1.94,0.42,2.04,0.26
																	c0.11-0.14-0.72-0.86-2-0.93C444.42,437.04,443.51,437.65,443.61,437.8z"/>
															</g>
														</g>
													</g>
												</g>
											</g>
										</g>
									</g>
								</g>
							</g>
						</g>
					</g>
				</g>
			</g>
			<g>
				<g>
					<g>
						<g>
							<g>
								<g>
									<g>
										<path class="st7" d="M468.43,263.47l-0.18,20.18l-4.9,62.74c0,0,2.42,30.48,3.91,47.68c1.3,14.94-1.29,40.92-1.29,40.92
											l-25.19-0.23l-8.22-86.79l-5.1-54.13l-8.98-28.19L468.43,263.47z"/>
									</g>
								</g>
							</g>
						</g>
					</g>
				</g>
				<g>
					<g>
						<g>
							<g>
								<g>
									<g>
										<path class="st7" d="M406.27,269.1l-0.2,81.95c-0.01,4.18,0.74,8.32,2.22,12.23l22.65,59.9l1.13,3.96l15.08-3.5L437.1,264
											L406.27,269.1z"/>
									</g>
								</g>
							</g>
						</g>
					</g>
				</g>
				<g>
					<g>
						<g>
							<g>
								<g>
									<g>
										<g>
											<path class="st6" d="M427.62,283.22c-0.01,0-0.01,0.13-0.01,0.39c0,0.28,0.01,0.67,0.01,1.15
												c0.02,1.04,0.05,2.53,0.09,4.44c0.07,3.85,0.27,9.43,0.57,16.31c0.63,13.76,1.88,32.76,3.9,53.68
												c1.99,20.92,4.22,39.81,5.85,53.47c0.83,6.81,1.5,12.33,1.97,16.18c0.24,1.89,0.43,3.36,0.56,4.39
												c0.07,0.48,0.12,0.86,0.16,1.14c0.04,0.26,0.06,0.39,0.07,0.39c0.01,0,0-0.13-0.02-0.39c-0.03-0.28-0.06-0.66-0.11-1.15
												c-0.11-1.04-0.27-2.51-0.47-4.41c-0.43-3.85-1.06-9.38-1.82-16.2c-1.55-13.68-3.73-32.56-5.71-53.48
												c-2.02-20.91-3.32-39.89-4.03-53.64c-0.34-6.88-0.6-12.45-0.72-16.3c-0.07-1.9-0.13-3.39-0.17-4.43
												c-0.02-0.49-0.04-0.87-0.06-1.15C427.64,283.35,427.63,283.22,427.62,283.22z"/>
										</g>
									</g>
								</g>
							</g>
						</g>
					</g>
				</g>
				<g>
					<g>
						<g>
							<g>
								<g>
									<g>
										<g>
											<path class="st6" d="M449.36,268.96c-0.03,0-0.01,0.34,0.1,0.93c0.1,0.59,0.31,1.44,0.69,2.44
												c0.74,2.01,2.3,4.67,4.86,6.77c2.57,2.1,5.48,3.1,7.59,3.43c1.06,0.17,1.93,0.21,2.53,0.2c0.6-0.01,0.93-0.06,0.93-0.09
												c0-0.09-1.33-0.02-3.4-0.43c-2.06-0.4-4.87-1.43-7.36-3.46c-2.49-2.04-4.05-4.59-4.85-6.53
												C449.64,270.26,449.45,268.94,449.36,268.96z"/>
										</g>
									</g>
								</g>
							</g>
						</g>
					</g>
				</g>
				<g>
					<g>
						<g>
							<g>
								<g>
									<g>
										<path class="st6" d="M426.12,272.57c-0.01,0.72,0.57,1.3,1.28,1.31c0.72,0.01,1.3-0.57,1.31-1.28
											c0.01-0.72-0.57-1.3-1.28-1.31C426.71,271.28,426.13,271.85,426.12,272.57z"/>
									</g>
								</g>
							</g>
						</g>
					</g>
				</g>
				<g>
					<g>
						<g>
							<g>
								<g>
									<g>
										<g>
											<path class="st6" d="M405.85,282.6c0.03,0.04,0.78-0.53,1.79-1.65c1.01-1.12,2.25-2.83,3.21-4.93
												c0.96-2.1,1.45-4.16,1.64-5.65c0.19-1.5,0.13-2.43,0.08-2.43c-0.08,0-0.14,0.92-0.41,2.38c-0.27,1.46-0.8,3.45-1.74,5.51
												c-0.95,2.05-2.11,3.75-3.04,4.91C406.46,281.89,405.8,282.54,405.85,282.6z"/>
										</g>
									</g>
								</g>
							</g>
						</g>
					</g>
				</g>
			</g>
			<g>
				<g>
					<path class="st9" d="M421,165.46c0,0-7.02,5.63-9.71,11.92c-2.69,6.29-8.07,14.88-8.07,14.88l-5.4-18.31l-13.69,6.8
						c0,0,4.73,28.75,5.8,32.11c1.49,4.66,4.91,8.79,10.16,8.21c5.25-0.58,8.32-2.96,11.69-8.02l4.52-8.49L421,165.46z"/>
				</g>
				<g>
					<g>
						<path class="st9" d="M455.1,152.84c0,0,19.87,9.4,24.1,15.1c5.12,6.91-8.35,29.52-9.32,35.08c-0.46,2.67-3.43,22.76-1.6,38.54
							c1.95,16.87,1.71,31.59,1.71,31.59l-63.72-4.06c-0.19-11.1,2.54-19.71,4.21-33.83l4.01-46.06l6.51-23.75l9.76-4.32
							L455.1,152.84z"/>
					</g>
				</g>
				<g>
					<g>
						<path class="st7" d="M415.52,181.43c-0.02,0-0.05,0.17-0.1,0.49c-0.05,0.38-0.12,0.84-0.2,1.41c-0.16,1.22-0.38,3-0.63,5.19
							c-0.5,4.38-1.13,10.45-1.72,17.16c-0.59,6.71-1.03,12.79-1.3,17.2c-0.14,2.2-0.23,3.99-0.29,5.22
							c-0.02,0.57-0.04,1.04-0.05,1.42c-0.01,0.33,0,0.5,0.02,0.5c0.02,0,0.05-0.17,0.08-0.49c0.04-0.38,0.08-0.85,0.14-1.41
							c0.11-1.3,0.26-3.06,0.44-5.21c0.38-4.46,0.89-10.5,1.45-17.18c0.61-6.67,1.16-12.7,1.57-17.16c0.19-2.14,0.35-3.9,0.47-5.2
							c0.04-0.57,0.08-1.04,0.11-1.42C415.54,181.6,415.54,181.43,415.52,181.43z"/>
					</g>
				</g>
				<g>
					<g>
						<path class="st7" d="M463.53,185.3c0.09,0,0-1.32,0.38-3.38c0.37-2.05,1.34-4.86,3.32-7.36c1.98-2.51,4.49-4.1,6.4-4.93
							c1.92-0.85,3.23-1.06,3.2-1.15c-0.01-0.03-0.33-0.01-0.92,0.1c-0.59,0.11-1.42,0.33-2.42,0.72c-1.98,0.76-4.61,2.35-6.66,4.94
							c-2.05,2.59-2.99,5.51-3.27,7.61c-0.15,1.06-0.17,1.93-0.15,2.52C463.45,184.97,463.5,185.3,463.53,185.3z"/>
					</g>
				</g>
				<g>
					<g>
						<path class="st7" d="M421.62,239.5c0.01,0.03,0.45-0.04,1.24-0.2c0.79-0.15,1.93-0.45,3.31-0.89
							c1.38-0.43,2.99-1.06,4.73-1.87c1.72-0.83,3.57-1.86,5.4-3.1c1.82-1.25,3.46-2.59,4.86-3.89c1.39-1.32,2.57-2.58,3.48-3.71
							c0.91-1.12,1.61-2.07,2.04-2.75c0.44-0.68,0.67-1.06,0.64-1.08c-0.08-0.05-1.06,1.44-2.95,3.6c-0.93,1.09-2.13,2.31-3.52,3.6
							c-1.41,1.27-3.03,2.58-4.83,3.82c-1.81,1.22-3.63,2.25-5.32,3.09c-1.71,0.82-3.28,1.48-4.64,1.95
							C423.34,239.04,421.59,239.41,421.62,239.5z"/>
					</g>
				</g>
				<g class="st10">
					<g>
						<path d="M466.74,198.59c4.51,24.33,2.86,50.14-3.03,74.17l-1.63-0.1C460.34,247.98,462.36,222.93,466.74,198.59z"/>
					</g>
				</g>
				<g>
					<g>
						<g>
							<g>
								<g>
									<path class="st12" d="M465.75,277.57l-0.39,5.57c0,0-4.23,2.3-5.73,3.88c-1.5,1.58-5.83,9.94-5.83,9.94
										s1.45,1.34,2.98,0.17c0.69-0.53,3.07-4.46,3.07-4.46l0,0c1.67-0.39,3.2,1.14,2.84,2.84c-0.53,2.49-1.14,5.39-1.15,5.78
										c-0.01,0.43-2.44,2.81-4.28,4.56c-1.1,1.05-0.14,3.08,1.34,2.72c0.15-0.04,0.28-0.1,0.37-0.2c0,0-0.17,2.64,3.42,0.48
										c0,0,3.24,0.73,4.79-1.13c0,0,3.96-0.62,5.35-1.79c1.39-1.17,4.34-13.21,4.34-13.21l1.63-12.8L465.75,277.57z"/>
								</g>
							</g>
						</g>
					</g>
					<g>
						<g>
							<g>
								<g>
									<g>
										<path class="st13" d="M466.4,296.8c0.07,0.01,0.09,0.84-0.01,2.18c-0.13,1.32-0.37,3.25-1.49,5.05
											c-1.15,1.78-2.83,2.74-3.98,3.35c-1.18,0.6-1.95,0.88-1.98,0.82c-0.04-0.07,0.67-0.49,1.78-1.17
											c1.09-0.69,2.65-1.67,3.71-3.32c1.04-1.66,1.34-3.5,1.57-4.79C466.2,297.61,466.32,296.79,466.4,296.8z"/>
									</g>
								</g>
							</g>
						</g>
					</g>
					<g>
						<g>
							<g>
								<g>
									<g>
										<path class="st13" d="M469.16,298.21c0.07-0.01,0.22,0.77,0.09,2c-0.06,0.61-0.17,1.34-0.37,2.13
											c-0.22,0.78-0.47,1.67-1.09,2.45c-0.61,0.75-1.32,1.28-1.96,1.76c-0.59,0.43-1.15,0.85-1.69,1.25
											c-0.97,0.7-1.6,1.1-1.64,1.04c-0.05-0.06,0.49-0.58,1.4-1.36c0.45-0.39,1-0.85,1.62-1.35c0.61-0.5,1.29-1.04,1.84-1.71
											c0.53-0.66,0.8-1.5,1.03-2.24c0.22-0.75,0.37-1.45,0.48-2.04C469.08,298.96,469.08,298.22,469.16,298.21z"/>
									</g>
								</g>
							</g>
						</g>
					</g>
					<g>
						<g>
							<g>
								<g>
									<g>
										<path class="st13" d="M472.21,300.1c0.22,0.05-0.3,2.2-1.09,4.74c-0.11,0.42-0.38,0.67-0.59,0.91
											c-0.23,0.24-0.46,0.44-0.69,0.63c-0.46,0.37-0.9,0.66-1.29,0.87c-0.78,0.43-1.34,0.53-1.36,0.46
											c-0.03-0.08,0.45-0.3,1.15-0.8c0.35-0.25,0.75-0.56,1.16-0.93c0.21-0.19,0.42-0.39,0.62-0.61
											c0.19-0.23,0.41-0.45,0.46-0.69c0.39-1.3,0.79-2.43,1.08-3.25C471.97,300.59,472.15,300.09,472.21,300.1z"/>
									</g>
								</g>
							</g>
						</g>
					</g>
				</g>
				<g>
					<path class="st9" d="M479.2,167.94c0,0,7.83,9.39,8.02,17.17c0.19,7.78,2.64,57.95,2.64,57.95l-10.03,42.02l-17.19-4.04
						l5.33-44.19l-1.24-38.27L479.2,167.94z"/>
				</g>
				<g>
					<g>
						<path class="st7" d="M479.83,285.09c0-0.01-0.1-0.04-0.3-0.1c-0.23-0.06-0.52-0.14-0.89-0.24c-0.82-0.2-1.96-0.49-3.42-0.85
							c-3.01-0.73-7.29-1.76-12.54-3.03l0.14,0.21c1.14-8.85,2.64-20.57,4.29-33.41c0.39-3.05,0.76-6.04,1.12-8.9l0-0.02l0-0.02
							c-0.41-12.02-0.78-22.59-1.04-30.2c-0.15-3.76-0.27-6.78-0.36-8.91c-0.05-1.02-0.09-1.81-0.12-2.4
							c-0.02-0.25-0.03-0.45-0.04-0.62c-0.01-0.14-0.02-0.21-0.03-0.21c-0.01,0-0.01,0.07-0.02,0.21c0,0.17,0,0.37,0,0.62
							c0.01,0.58,0.02,1.38,0.03,2.4c0.05,2.13,0.12,5.15,0.21,8.91c0.22,7.61,0.52,18.19,0.87,30.21l0-0.04
							c-0.36,2.87-0.74,5.85-1.13,8.9c-1.6,12.84-3.07,24.57-4.17,33.42l-0.02,0.17l0.16,0.04c5.27,1.2,9.57,2.18,12.58,2.87
							c1.46,0.32,2.61,0.58,3.44,0.76c0.37,0.08,0.67,0.14,0.9,0.18C479.73,285.08,479.83,285.1,479.83,285.09z"/>
					</g>
				</g>
				<g class="st10">
					<g>
						<path d="M439.02,240.73c-6.6,2.86-13.75,4.44-20.94,4.62c1.12,1.63,3.2,2.02,5.17,2.11c1.98,0.08,3.89-0.05,5.77-0.66
							C432.64,245.63,436.88,243.85,439.02,240.73"/>
					</g>
				</g>
				<g class="st10">
					<g>
						<path d="M403.23,192.29c0.93,4.62,1.12,9.4,0.54,14.08c-0.07,0.58-0.17,1.19-0.55,1.62c-0.39,0.43-1.16,0.56-1.53,0.11
							c-0.3-0.38-0.18-0.93-0.04-1.4C403.02,201.9,403.54,197.28,403.23,192.29"/>
					</g>
				</g>
			</g>
			<g>
				<g>
					<g>
						<path class="st7" d="M413.63,115.37c0.9-2.15,3.43-3.79,3.59-4.47c0.43-1.79-1.16-3.69-0.61-5.44
							c1.28-4.12,4.63-3.64,4.63-3.64c1.49-1.87,3.51-4.34,6.83-5.26c3.6-1,8.93-1.78,12.18,0.06c3.25,1.84,5.64,3.07,6.74,6.64
							l-22.15,40.53c-2.63-1.17-4.31-3.82-5.32-6.51c-1.01-2.7-1.5-5.57-2.61-8.23c-0.83-1.98-0.01-5.17-1.82-6.33
							C412.84,121.28,412.8,117.35,413.63,115.37z"/>
					</g>
					<g>
						<path class="st12" d="M421.13,118.85c0.43-9.16,7.82-16.46,16.98-16.77l0.91-0.03c9.84,0.24,15.13,8.73,14.62,18.56l1.4,32.23
							l-16.43,11.45c-5.55,4.31-7.85,1.01-7.92-3.15l0,0l-0.16-9.21c0,0-9.49-1.15-9.93-10.58
							C420.4,136.79,420.73,127.37,421.13,118.85z"/>
					</g>
					<g>
						<g>
							<g>
								<g>
									<g>
										<g>
											<g>
												<g>
													<path class="st7" d="M424.18,126.91c0,0.71,0.6,1.3,1.35,1.32c0.74,0.01,1.35-0.55,1.35-1.26c0-0.71-0.6-1.3-1.34-1.32
														C424.79,125.63,424.18,126.2,424.18,126.91z"/>
												</g>
											</g>
										</g>
									</g>
								</g>
							</g>
						</g>
					</g>
					<g>
						<g>
							<g>
								<g>
									<g>
										<g>
											<g>
												<g>
													<g>
														<path class="st7" d="M423.17,123.89c0.17,0.17,1.17-0.62,2.62-0.67c1.45-0.07,2.54,0.64,2.69,0.46
															c0.07-0.08-0.11-0.39-0.58-0.71c-0.47-0.32-1.26-0.62-2.16-0.59c-0.9,0.04-1.65,0.39-2.08,0.75
															C423.23,123.5,423.09,123.82,423.17,123.89z"/>
													</g>
												</g>
											</g>
										</g>
									</g>
								</g>
							</g>
						</g>
					</g>
					<g>
						<g>
							<g>
								<g>
									<g>
										<g>
											<g>
												<g>
													<path class="st7" d="M437.23,126.91c0,0.71,0.6,1.3,1.35,1.32c0.74,0.01,1.35-0.55,1.35-1.26c0-0.71-0.6-1.3-1.34-1.32
														C437.83,125.63,437.23,126.2,437.23,126.91z"/>
												</g>
											</g>
										</g>
									</g>
								</g>
							</g>
						</g>
					</g>
					<g>
						<g>
							<g>
								<g>
									<g>
										<g>
											<g>
												<g>
													<g>
														<path class="st7" d="M437.22,123.87c0.17,0.17,1.19-0.59,2.64-0.6c1.45-0.03,2.52,0.71,2.68,0.53
															c0.08-0.08-0.09-0.4-0.56-0.73c-0.46-0.33-1.24-0.65-2.14-0.64c-0.9,0.01-1.66,0.35-2.1,0.69
															C437.29,123.47,437.14,123.79,437.22,123.87z"/>
													</g>
												</g>
											</g>
										</g>
									</g>
								</g>
							</g>
						</g>
					</g>
					<g>
						<g>
							<g>
								<g>
									<g>
										<g>
											<g>
												<g>
													<path class="st7" d="M432.68,134.12c0-0.08-0.9-0.21-2.37-0.34c-0.37-0.03-0.72-0.09-0.8-0.34
														c-0.1-0.26,0.04-0.67,0.21-1.11c0.32-0.91,0.65-1.86,1-2.86c1.38-4.07,2.37-7.41,2.21-7.46
														c-0.16-0.05-1.42,3.2-2.8,7.27c-0.33,1-0.65,1.96-0.95,2.87c-0.13,0.43-0.35,0.91-0.14,1.46
														c0.11,0.27,0.39,0.47,0.63,0.52c0.24,0.06,0.45,0.06,0.63,0.07C431.77,134.23,432.68,134.21,432.68,134.12z"/>
												</g>
											</g>
										</g>
									</g>
								</g>
							</g>
						</g>
					</g>
					<g>
						<g>
							<g>
								<g>
									<path class="st7" d="M437.13,118.77c0.2,0.37,1.61-0.03,3.32-0.08c1.71-0.08,3.15,0.2,3.32-0.18
										c0.07-0.18-0.22-0.51-0.82-0.81c-0.6-0.3-1.52-0.52-2.55-0.48c-1.03,0.04-1.93,0.34-2.5,0.68
										C437.31,118.24,437.04,118.59,437.13,118.77z"/>
								</g>
							</g>
						</g>
					</g>
					<g>
						<g>
							<g>
								<g>
									<path class="st7" d="M422.97,119.05c0.3,0.32,1.42-0.06,2.78-0.12c1.36-0.1,2.52,0.14,2.77-0.22
										c0.11-0.17-0.08-0.5-0.6-0.79c-0.51-0.29-1.34-0.52-2.28-0.46c-0.93,0.06-1.73,0.38-2.2,0.74
										C422.98,118.55,422.84,118.89,422.97,119.05z"/>
								</g>
							</g>
						</g>
					</g>
					<g>
						<g>
							<g>
								<g>
									<g>
										<g>
											<g>
												<g>
													<g>
														<g>
															<g>
																<g>
																	<g>
																		<path class="st7" d="M446.28,102.6c0.04,2.09-0.89,4.18-2.47,5.55c-1.58,1.37-3.78,1.99-5.85,1.65
																			c-1.6-0.26-3.37-1.04-4.73-0.17c-1.44,0.92-1.46,3.11-2.73,4.25c-1.82,1.63-4.77,0.18-7.1,0.91
																			c-1.8,0.57-2.9,2.31-4.07,3.78c-1.18,1.47-2.95,2.88-4.76,2.38c0.09-1.63,0.18-3.27,0.64-4.83
																			c0.46-1.56,1.32-3.06,2.67-3.97c0.74-0.5,1.6-0.81,2.29-1.38c1.48-1.24,1.79-3.35,2.69-5.05
																			c1.16-2.2,3.44-3.77,5.9-4.06c2.05-0.24,4.18,0.34,6.18-0.2c1.48-0.4,2.75-1.38,4.25-1.69
																			c2.91-0.6,5.67,1.45,7.82,3.5"/>
																	</g>
																</g>
															</g>
														</g>
													</g>
												</g>
											</g>
										</g>
									</g>
									<g>
										<g>
											<g>
												<path class="st7" d="M437,106.92c1.3-0.4,3.97-1.29,4.65-2.44c1.48-2.49,4.15-4.22,6.9-4.12
													c2.75,0.1,5.43,2.23,6.04,5.12c3.33-0.03,6.61,2,8.26,5.12c1.65,3.12,1.6,7.19-0.12,10.25
													c-0.45,0.8-1.03,1.61-1.02,2.54c0,1.16,0.88,2.07,1.5,3.02c1.7,2.6,1.64,6.2,0.4,9.08c-1.23,2.88-2.12,3.9-3.93,4.5
													c-3.55,1.18-3.94,6.16-5.3,7.56l-2.07-20.4c-0.15,0.08-0.33,0.16-0.55,0.21c-3.5,0.85-4.08-6-3.33-7.97
													c-1.29-1.11-2.59-2.23-3.59-3.65c-0.99-1.42-1.91-5.31-1.74-7.07C441.85,108.78,436.43,107.09,437,106.92z"/>
											</g>
										</g>
									</g>
								</g>
							</g>
						</g>
					</g>
					<g>
						<g>
							<g>
								<g>
									<g>
										<g>
											<g>
												<g>
													<g>
														<g>
															<g>
																<g>
																	<g>
																		<g>
																			<g>
																				<g>
																					<g>
																						<g>
																							<path class="st12" d="M451.82,127.31c0.16-0.07,6.42-2.14,6.43,4.32c0.01,6.46-6.48,5.14-6.49,4.96
																								C451.76,136.4,451.82,127.31,451.82,127.31z"/>
																						</g>
																					</g>
																				</g>
																			</g>
																		</g>
																	</g>
																</g>
															</g>
														</g>
													</g>
												</g>
											</g>
										</g>
									</g>
								</g>
							</g>
						</g>
						<g>
							<g>
								<g>
									<g>
										<g>
											<g>
												<g>
													<g>
														<g>
															<g>
																<g>
																	<g>
																		<g>
																			<g>
																				<g>
																					<g>
																						<g>
																							<g>
																								<path class="st13" d="M453.74,134.13c0.03-0.02,0.11,0.08,0.3,0.17c0.19,0.08,0.5,0.14,0.84,0.02
																									c0.68-0.25,1.25-1.34,1.28-2.5c0.02-0.59-0.11-1.15-0.32-1.61c-0.2-0.47-0.5-0.8-0.85-0.86
																									c-0.34-0.08-0.58,0.13-0.66,0.31c-0.09,0.18-0.05,0.31-0.08,0.32c-0.02,0.02-0.14-0.11-0.09-0.38
																									c0.03-0.13,0.1-0.28,0.25-0.41c0.15-0.13,0.38-0.19,0.62-0.17c0.5,0.03,0.95,0.49,1.18,1
																									c0.26,0.51,0.41,1.14,0.39,1.8c-0.04,1.3-0.7,2.52-1.64,2.79c-0.45,0.12-0.83-0.02-1.03-0.17
																									C453.75,134.29,453.72,134.14,453.74,134.13z"/>
																							</g>
																						</g>
																					</g>
																				</g>
																			</g>
																		</g>
																	</g>
																</g>
															</g>
														</g>
													</g>
												</g>
											</g>
										</g>
									</g>
								</g>
							</g>
						</g>
					</g>
				</g>
				<g>
					<path class="st13" d="M430.54,151.93c0,0,8.58-1.46,13.53-5.37c0,0-2.51,7.92-13.47,8.33L430.54,151.93z"/>
				</g>
				<g>
					<g>
						<g>
							<g>
								<g>
									<g>
										<g>
											<g>
												<g>
													<g>
														<g>
															<g>
																<g>
																	<g>
																		<g>
																			<g>
																				<g>
																					<g>
																						<g>
																							<g>
																								<g>
																									<path class="st7" d="M436.45,134.96c-0.24-0.01-0.19,1.59-1.52,2.77c-1.33,1.18-3.03,1.06-3.04,1.29
																										c-0.02,0.1,0.39,0.3,1.11,0.29c0.71,0,1.73-0.26,2.54-0.98c0.81-0.72,1.14-1.66,1.17-2.32
																										C436.75,135.34,436.56,134.95,436.45,134.96z"/>
																								</g>
																							</g>
																						</g>
																					</g>
																				</g>
																			</g>
																		</g>
																	</g>
																</g>
															</g>
														</g>
													</g>
												</g>
											</g>
										</g>
									</g>
								</g>
							</g>
						</g>
					</g>
				</g>
			</g>
			<g>
				<g>
					<path class="st6" d="M429.94,125.8c-0.05,0-0.04-0.51-0.28-1.37c-0.24-0.85-0.82-2.09-2.1-3.03c-1.24-0.95-3.27-1.48-5.23-0.75
						c-1.95,0.67-3.62,2.74-3.6,5.16c-0.02,2.42,1.66,4.49,3.6,5.16c1.96,0.73,3.99,0.2,5.23-0.75c1.28-0.95,1.86-2.19,2.1-3.04
						C429.9,126.31,429.89,125.8,429.94,125.8c0.02,0,0.03,0.13,0.03,0.37c0.01,0.24-0.02,0.6-0.11,1.06
						c-0.18,0.89-0.74,2.23-2.07,3.28c-1.29,1.05-3.47,1.68-5.61,0.91c-1.06-0.37-2.07-1.08-2.79-2.07
						c-0.74-0.98-1.16-2.24-1.17-3.54c0.01-1.3,0.43-2.56,1.17-3.54c0.72-0.99,1.73-1.7,2.79-2.07c2.14-0.77,4.33-0.15,5.61,0.91
						c1.33,1.05,1.89,2.39,2.07,3.28c0.1,0.45,0.12,0.81,0.11,1.06C429.97,125.67,429.96,125.8,429.94,125.8z"/>
				</g>
				<g>
					<path class="st6" d="M444.92,125.9c-0.05,0-0.04-0.53-0.29-1.44c-0.25-0.89-0.85-2.18-2.19-3.17c-1.29-1-3.41-1.55-5.46-0.78
						c-2.03,0.7-3.79,2.87-3.77,5.39c-0.02,2.53,1.73,4.69,3.77,5.39c2.05,0.77,4.17,0.21,5.46-0.78c1.34-0.99,1.94-2.29,2.19-3.17
						C444.88,126.43,444.86,125.89,444.92,125.9c0.02,0,0.03,0.13,0.03,0.38c0.01,0.25-0.02,0.63-0.12,1.1
						c-0.19,0.93-0.77,2.32-2.16,3.42c-1.34,1.1-3.62,1.75-5.85,0.94c-1.1-0.38-2.15-1.13-2.9-2.16c-0.77-1.02-1.21-2.33-1.22-3.69
						c0.01-1.35,0.45-2.67,1.22-3.69c0.75-1.03,1.8-1.77,2.9-2.16c2.23-0.8,4.51-0.15,5.85,0.94c1.39,1.1,1.97,2.49,2.16,3.42
						c0.1,0.47,0.13,0.85,0.12,1.1C444.95,125.76,444.94,125.9,444.92,125.9z"/>
				</g>
				<g>
					<path class="st6" d="M432.93,126.11c-0.1,0.11-0.7-0.3-1.55-0.28c-0.85,0-1.44,0.43-1.54,0.33c-0.05-0.05,0.04-0.24,0.31-0.45
						c0.26-0.21,0.71-0.39,1.22-0.4c0.51-0.01,0.97,0.16,1.23,0.36C432.88,125.87,432.98,126.06,432.93,126.11z"/>
				</g>
				<g>
					<path class="st6" d="M451.41,127.39c-0.02,0.14-1.53-0.03-3.31-0.49c-1.78-0.46-3.21-0.86-3.18-1
						c0.02-0.14,1.52,0.03,3.31,0.49C450,126.85,451.43,127.25,451.41,127.39z"/>
				</g>
			</g>
			<g>
				<path class="st8" d="M464.51,195.14c0.01,0.14-11.18,0.94-24.98,1.77c-13.81,0.83-25,1.39-25.01,1.25
					c-0.01-0.14,11.17-0.94,24.98-1.77C453.3,195.56,464.5,195,464.51,195.14z"/>
			</g>
			<g>
				<path class="st8" d="M486.69,190.16c0.01,0.14-4.51,0.56-10.09,0.92c-5.58,0.37-10.12,0.55-10.13,0.4
					c-0.01-0.14,4.51-0.56,10.09-0.92C482.15,190.2,486.68,190.02,486.69,190.16z"/>
			</g>
			<g>
				<path class="st8" d="M414.51,192.52c-0.04,0.14-2.1-0.38-4.61-1.15c-2.5-0.77-4.49-1.51-4.45-1.65c0.04-0.14,2.1,0.38,4.61,1.15
					C412.56,191.64,414.55,192.38,414.51,192.52z"/>
			</g>
		</g>
	</g>
</g>
<g id="Plant">
	<g>
		<g>
			<g>
				<g>
					<path class="st9" d="M192.02,316.86c-9.5-14.53-9.13-35.77,2.21-48.9c3.52-4.08,8.44-7.62,13.81-7.16
						c5.5,0.47,9.93,5.18,11.6,10.44c1.67,5.26,1.09,10.95,0.11,16.38c-1.38,7.6-3.68,15.38-8.95,21.02
						C205.52,314.28,198.79,320.56,192.02,316.86"/>
				</g>
				<g>
					<path class="st9" d="M196.25,386.31c-3.58-8.35-0.98-18.92,6.05-24.66c2.18-1.78,5.04-3.16,7.76-2.44
						c2.79,0.74,4.64,3.57,5.03,6.43c0.39,2.86-0.43,5.74-1.43,8.45c-1.4,3.79-3.29,7.59-6.52,10.02
						C203.92,386.55,199.41,388.83,196.25,386.31"/>
				</g>
				<g>
					<path class="st9" d="M173.34,381.32c2.61-12.88-4.18-27.09-15.84-33.16c-3.62-1.88-8.07-3-11.72-1.17
						c-3.73,1.87-5.53,6.43-5.23,10.59c0.3,4.17,2.3,8.01,4.51,11.55c3.1,4.96,6.9,9.79,12.19,12.28
						C162.54,383.92,169.61,385.83,173.34,381.32"/>
				</g>
				<g>
					<path class="st9" d="M174.99,346.49c4.55-14.68-3.16-32.47-16.01-40.89c-3.99-2.61-9.04-4.43-13.5-2.74
						c-4.56,1.74-7.18,6.83-7.33,11.71c-0.14,4.88,1.74,9.59,3.89,13.97c3.02,6.13,6.87,12.19,12.73,15.71
						C160.64,347.78,170.12,351.29,174.99,346.49"/>
				</g>
				<g>
					<g>
						<path class="st7" d="M184.12,418.23c-0.02,0-0.07-0.24-0.15-0.71c-0.08-0.53-0.18-1.21-0.31-2.05
							c-0.06-0.45-0.13-0.95-0.21-1.48c-0.1-0.54-0.22-1.12-0.34-1.75c-0.24-1.25-0.49-2.68-0.9-4.23c-0.19-0.78-0.39-1.6-0.59-2.45
							c-0.25-0.84-0.5-1.72-0.77-2.62c-0.49-1.82-1.21-3.71-1.89-5.71c-1.5-3.96-3.37-8.24-5.67-12.56
							c-2.34-4.3-4.87-8.22-7.34-11.67c-1.3-1.67-2.47-3.32-3.72-4.73c-0.61-0.72-1.19-1.42-1.76-2.09
							c-0.59-0.64-1.17-1.26-1.71-1.85c-1.07-1.2-2.12-2.2-3.03-3.09c-0.45-0.44-0.87-0.86-1.27-1.25c-0.4-0.36-0.78-0.69-1.12-0.99
							c-0.63-0.57-1.14-1.02-1.54-1.39c-0.35-0.32-0.52-0.5-0.51-0.52c0.01-0.02,0.22,0.13,0.59,0.42c0.42,0.34,0.96,0.77,1.62,1.3
							c0.35,0.29,0.74,0.61,1.16,0.95c0.41,0.38,0.84,0.78,1.31,1.21c0.94,0.87,2.02,1.85,3.11,3.04c0.56,0.58,1.14,1.19,1.75,1.83
							c0.58,0.67,1.18,1.36,1.79,2.08c1.27,1.41,2.46,3.05,3.78,4.73c2.51,3.45,5.08,7.38,7.43,11.71
							c2.31,4.35,4.17,8.66,5.66,12.66c0.67,2.03,1.38,3.93,1.85,5.77c0.25,0.91,0.5,1.79,0.74,2.64c0.19,0.86,0.38,1.68,0.56,2.47
							c0.38,1.57,0.6,3.01,0.81,4.27c0.1,0.63,0.2,1.21,0.29,1.76c0.06,0.54,0.11,1.04,0.15,1.49c0.08,0.84,0.14,1.53,0.19,2.07
							C184.13,417.98,184.14,418.22,184.12,418.23z"/>
					</g>
				</g>
				<g>
					<g>
						<path class="st7" d="M183.79,420.86c-0.01,0-0.01-0.1,0-0.29c0.02-0.23,0.04-0.51,0.06-0.85c0.07-0.8,0.17-1.89,0.3-3.26
							c0.07-0.71,0.15-1.5,0.23-2.35c0.07-0.86,0.09-1.8,0.14-2.81c0.08-2.02,0.27-4.31,0.2-6.85c-0.01-1.27-0.01-2.6-0.02-3.99
							c-0.01-1.39-0.15-2.82-0.22-4.31c-0.1-2.99-0.51-6.15-0.87-9.49c-0.91-6.65-2.33-13.9-4.5-21.34
							c-2.24-7.42-5-14.28-7.86-20.35c-1.52-2.99-2.9-5.87-4.45-8.43c-0.75-1.29-1.43-2.57-2.17-3.73
							c-0.75-1.16-1.47-2.28-2.16-3.35c-1.33-2.17-2.74-3.99-3.9-5.64c-0.59-0.82-1.13-1.59-1.65-2.28
							c-0.54-0.67-1.03-1.29-1.48-1.85c-0.86-1.08-1.53-1.94-2.03-2.57c-0.21-0.27-0.38-0.5-0.52-0.68
							c-0.11-0.16-0.17-0.24-0.16-0.25c0.01-0.01,0.08,0.06,0.21,0.2c0.15,0.17,0.34,0.38,0.56,0.64c0.52,0.61,1.23,1.44,2.12,2.5
							c0.46,0.55,0.97,1.16,1.52,1.82c0.54,0.68,1.09,1.44,1.69,2.25c1.19,1.63,2.63,3.44,3.99,5.6c0.7,1.07,1.43,2.18,2.2,3.34
							c0.76,1.17,1.44,2.44,2.21,3.73c1.57,2.56,2.98,5.44,4.52,8.43c2.9,6.08,5.69,12.97,7.94,20.42
							c2.18,7.47,3.59,14.77,4.47,21.45c0.35,3.35,0.73,6.53,0.81,9.53c0.06,1.5,0.18,2.94,0.18,4.33c-0.01,1.39-0.01,2.72-0.02,4
							c0.04,2.55-0.18,4.85-0.29,6.87c-0.07,1.01-0.11,1.95-0.19,2.81c-0.1,0.86-0.2,1.64-0.29,2.35c-0.18,1.37-0.32,2.46-0.42,3.25
							c-0.05,0.34-0.09,0.62-0.12,0.84C183.82,420.77,183.8,420.87,183.79,420.86z"/>
					</g>
				</g>
				<g>
					<g>
						<path class="st7" d="M208.52,278.34c0.01,0.01-0.03,0.1-0.12,0.27c-0.11,0.2-0.24,0.45-0.41,0.76
							c-0.4,0.71-0.94,1.67-1.62,2.9c-0.35,0.63-0.77,1.32-1.17,2.09c-0.39,0.79-0.82,1.64-1.27,2.56c-0.46,0.92-0.95,1.9-1.46,2.93
							c-0.49,1.05-0.97,2.18-1.49,3.36c-0.51,1.18-1.08,2.41-1.61,3.71c-0.51,1.31-1.03,2.68-1.58,4.09
							c-0.27,0.71-0.55,1.43-0.83,2.16c-0.25,0.74-0.51,1.5-0.76,2.26c-0.52,1.53-1.05,3.1-1.59,4.72
							c-2.01,6.51-3.92,13.76-5.53,21.46c-1.56,7.71-2.65,15.13-3.46,21.9c-0.69,6.78-1.2,12.9-1.34,18.06
							c-0.13,2.58-0.16,4.91-0.17,6.96c-0.03,2.05-0.04,3.81,0.01,5.26c0.02,1.4,0.04,2.51,0.05,3.32c0,0.35,0,0.63,0,0.87
							c0,0.2-0.01,0.3-0.02,0.3c-0.01,0-0.02-0.1-0.04-0.29c-0.02-0.23-0.03-0.51-0.06-0.86c-0.04-0.81-0.09-1.92-0.16-3.32
							c-0.09-1.44-0.11-3.21-0.11-5.26c-0.02-2.05-0.03-4.39,0.07-6.97c0.08-5.17,0.55-11.31,1.21-18.11
							c0.78-6.79,1.86-14.23,3.42-21.96c1.62-7.72,3.55-14.99,5.6-21.51c0.55-1.62,1.09-3.19,1.62-4.72
							c0.26-0.76,0.52-1.52,0.78-2.26c0.29-0.73,0.57-1.45,0.85-2.16c0.56-1.41,1.1-2.78,1.62-4.09c0.54-1.3,1.13-2.53,1.65-3.71
							c0.54-1.17,1.02-2.31,1.53-3.35c0.53-1.03,1.04-2.01,1.51-2.92c0.47-0.91,0.91-1.76,1.32-2.54c0.42-0.77,0.86-1.45,1.22-2.07
							c0.73-1.2,1.31-2.15,1.73-2.84c0.19-0.29,0.34-0.54,0.46-0.73C208.45,278.41,208.51,278.33,208.52,278.34z"/>
					</g>
				</g>
				<g>
					<g>
						<path class="st7" d="M205.29,367.49c0.04,0.02-0.33,0.66-1.01,1.77c-0.69,1.11-1.65,2.75-2.77,4.81
							c-1.13,2.05-2.35,4.55-3.6,7.38c-1.21,2.84-2.43,6.02-3.49,9.43c-1.04,3.41-1.83,6.72-2.43,9.75
							c-0.57,3.04-0.97,5.8-1.19,8.13c-0.24,2.33-0.37,4.22-0.43,5.53c-0.07,1.31-0.12,2.03-0.17,2.03c-0.04,0-0.07-0.73-0.08-2.04
							c-0.02-1.31,0.05-3.22,0.23-5.56c0.17-2.35,0.53-5.13,1.07-8.19c0.57-3.06,1.35-6.4,2.4-9.83c1.07-3.43,2.31-6.62,3.56-9.47
							c1.28-2.84,2.56-5.33,3.74-7.37c1.17-2.04,2.19-3.65,2.95-4.72C204.82,368.05,205.25,367.46,205.29,367.49z"/>
					</g>
				</g>
			</g>
			<g>
				<polygon class="st6" points="165.47,411.69 207.19,411.69 202.14,454.3 170.66,454.3 				"/>
			</g>
			<g>
				<polygon class="st7" points="166.99,449.7 170.53,454.3 202.14,454.3 205.79,449.85 				"/>
			</g>
			<g>
				<g>
					<path class="st3" d="M205.57,424.22c0,0.17-8.66,0.31-19.34,0.31c-10.68,0-19.34-0.14-19.34-0.31c0-0.17,8.66-0.31,19.34-0.31
						C196.91,423.91,205.57,424.05,205.57,424.22z"/>
				</g>
			</g>
			<g>
				<g>
					<path class="st3" d="M205.57,427.06c0,0.17-8.66,0.31-19.34,0.31c-10.68,0-19.34-0.14-19.34-0.31c0-0.17,8.66-0.31,19.34-0.31
						C196.91,426.75,205.57,426.89,205.57,427.06z"/>
				</g>
			</g>
			<g>
				<g>
					<path class="st3" d="M205.05,429.8c0,0.17-8.36,0.31-18.66,0.31c-10.31,0-18.66-0.14-18.66-0.31c0-0.17,8.35-0.31,18.66-0.31
						C196.69,429.49,205.05,429.63,205.05,429.8z"/>
				</g>
			</g>
		</g>
		<g>
			<path class="st7" d="M171.84,319.84c0.01,0,0.01,0.14,0,0.41c-0.03,0.31-0.06,0.7-0.1,1.16c-0.11,1.07-0.25,2.5-0.43,4.25
				c-0.38,3.58-0.94,8.53-1.58,13.99c-0.02,0.21-0.05,0.42-0.07,0.61l-0.02,0.18l-0.18,0c-5.36,0.08-10.18,0.13-13.67,0.15
				c-1.69,0-3.08,0-4.12,0c-0.45-0.01-0.81-0.02-1.12-0.02c-0.26-0.01-0.39-0.02-0.39-0.04s0.13-0.03,0.39-0.05
				c0.3-0.02,0.67-0.03,1.12-0.06c1.04-0.03,2.43-0.08,4.12-0.13c3.48-0.09,8.31-0.19,13.67-0.28l-0.21,0.19
				c0.02-0.19,0.05-0.4,0.07-0.61c0.64-5.46,1.24-10.4,1.7-13.98c0.23-1.74,0.42-3.17,0.56-4.23c0.07-0.46,0.13-0.84,0.17-1.15
				C171.8,319.97,171.83,319.84,171.84,319.84z"/>
		</g>
		<g>
			<path class="st7" d="M162.35,307.09c0.01,0,0.03,0.14,0.03,0.42c0,0.32,0.01,0.72,0.01,1.2c-0.01,1.1-0.02,2.59-0.04,4.4
				c-0.05,3.71-0.15,8.84-0.29,14.5c-0.01,0.23-0.01,0.46-0.02,0.67l-0.01,0.22l-0.22-0.02c-5.49-0.43-10.45-0.43-14.03-0.32
				c-1.79,0.06-3.23,0.13-4.23,0.18c-0.46,0.02-0.84,0.04-1.15,0.05c-0.26,0.01-0.4,0.01-0.4-0.01c0-0.01,0.13-0.04,0.4-0.08
				c0.26-0.03,0.65-0.08,1.14-0.13c0.99-0.1,2.44-0.22,4.23-0.31c3.58-0.19,8.56-0.24,14.07,0.19l-0.23,0.21
				c0.01-0.21,0.01-0.44,0.02-0.67c0.14-5.66,0.29-10.79,0.42-14.5c0.07-1.81,0.13-3.29,0.17-4.39c0.03-0.48,0.05-0.87,0.07-1.19
				C162.32,307.24,162.34,307.09,162.35,307.09z"/>
		</g>
		<g>
			<path class="st7" d="M151.25,302.75c0.03,0,0.12,0.43,0.26,1.22c0.16,0.86,0.37,1.99,0.62,3.35c0.54,2.83,1.39,6.74,2.58,11.01
				l0.13,0.45l-0.42-0.2c-0.16-0.08-0.33-0.16-0.5-0.24c-4.1-1.98-8.17-2.9-11.12-3.25c-1.48-0.18-2.69-0.25-3.52-0.28
				c-0.84-0.03-1.3-0.04-1.3-0.07c0-0.01,0.11-0.03,0.34-0.05c0.22-0.01,0.55-0.04,0.97-0.05c0.84-0.02,2.06,0,3.55,0.15
				c2.99,0.28,7.12,1.16,11.27,3.17c0.17,0.08,0.35,0.17,0.51,0.24l-0.3,0.25c-1.19-4.29-1.99-8.22-2.46-11.07
				c-0.24-1.43-0.4-2.58-0.49-3.38C151.26,303.2,151.22,302.76,151.25,302.75z"/>
		</g>
		<g>
			<path class="st7" d="M210.17,380.45c-0.01,0.06-1.21-0.06-3.16-0.14c-1.94-0.07-4.64-0.07-7.59,0.25
				c-0.6,0.06-1.19,0.14-1.75,0.21l-0.2,0.03l-0.04-0.2c-0.45-2.52-0.83-4.75-1.08-6.34c-0.25-1.6-0.38-2.56-0.33-2.57
				c0.05-0.01,0.27,0.94,0.6,2.52c0.33,1.58,0.75,3.8,1.22,6.32l-0.23-0.17c0.56-0.08,1.16-0.16,1.76-0.22
				c2.98-0.32,5.7-0.28,7.65-0.13c0.98,0.08,1.76,0.18,2.3,0.26C209.88,380.35,210.18,380.42,210.17,380.45z"/>
		</g>
		<g>
			<path class="st7" d="M214.11,372.61c-0.02,0.07-1.17-0.2-3.06-0.44c-1.89-0.23-4.52-0.38-7.4-0.07c-0.45,0.05-0.89,0.1-1.31,0.16
				l-0.22,0.03l-0.02-0.22c-0.26-2.59-0.48-4.89-0.61-6.54c-0.13-1.65-0.19-2.66-0.14-2.66c0.05-0.01,0.21,0.99,0.41,2.63
				c0.21,1.64,0.47,3.94,0.75,6.53l-0.24-0.19c0.42-0.06,0.87-0.12,1.33-0.17c2.92-0.31,5.6-0.11,7.49,0.2
				c0.95,0.15,1.71,0.33,2.22,0.47C213.84,372.49,214.12,372.59,214.11,372.61z"/>
		</g>
		<g>
			<path class="st7" d="M216.94,298.43c0.01,0.01-0.14,0.09-0.41,0.22c-0.32,0.14-0.72,0.32-1.22,0.54
				c-1.12,0.48-2.65,1.13-4.51,1.92c-3.87,1.6-9.13,3.78-14.95,6.19c-0.28,0.11-0.55,0.23-0.81,0.33l-0.19,0.08l-0.08-0.19
				c-2.47-5.57-4.69-10.58-6.32-14.26c-0.77-1.78-1.4-3.24-1.86-4.31c-0.2-0.48-0.36-0.87-0.49-1.18c-0.11-0.27-0.16-0.42-0.14-0.42
				c0.01-0.01,0.09,0.13,0.22,0.39c0.15,0.3,0.33,0.68,0.56,1.15c0.49,1.06,1.16,2.5,1.98,4.26c1.66,3.67,3.92,8.66,6.43,14.21
				l-0.27-0.11c0.26-0.1,0.53-0.22,0.81-0.33c5.83-2.36,11.11-4.5,14.99-6.08c1.89-0.74,3.43-1.35,4.56-1.8
				c0.51-0.19,0.92-0.35,1.25-0.47C216.78,298.46,216.93,298.41,216.94,298.43z"/>
		</g>
		<g>
			<path class="st7" d="M220.6,280.4c0.01,0.01-0.12,0.1-0.37,0.27c-0.29,0.19-0.65,0.42-1.09,0.71c-1.01,0.63-2.39,1.49-4.07,2.54
				c-3.51,2.14-8.29,5.05-13.59,8.29l-0.22,0.13l-0.09-0.24c-0.08-0.21-0.16-0.43-0.25-0.66c-2.22-5.98-4.22-11.39-5.7-15.37
				c-0.69-1.93-1.26-3.52-1.68-4.67c-0.18-0.52-0.32-0.94-0.44-1.28c-0.1-0.29-0.14-0.45-0.13-0.46c0.01-0.01,0.08,0.14,0.21,0.43
				c0.13,0.33,0.3,0.74,0.51,1.25c0.45,1.15,1.06,2.71,1.81,4.63c1.51,3.97,3.55,9.36,5.81,15.33c0.08,0.22,0.17,0.45,0.25,0.66
				l-0.31-0.11c5.33-3.19,10.13-6.07,13.66-8.18c1.71-1,3.12-1.82,4.14-2.43c0.46-0.26,0.84-0.47,1.14-0.64
				C220.45,280.46,220.59,280.39,220.6,280.4z"/>
		</g>
		<g>
			<path class="st7" d="M219.4,270.79c0.01,0.03-0.31,0.21-0.9,0.53c-0.59,0.32-1.43,0.8-2.46,1.44c-2.06,1.27-4.83,3.24-7.56,5.92
				l-0.52,0.51l0.18-0.71c0.18-0.75,0.35-1.53,0.48-2.34c0.7-4.34,0.15-8.36-0.59-11.12c-0.37-1.39-0.78-2.48-1.07-3.23
				c-0.31-0.75-0.47-1.16-0.45-1.17c0.02-0.01,0.24,0.38,0.6,1.11c0.33,0.74,0.79,1.82,1.21,3.22c0.83,2.77,1.43,6.85,0.72,11.27
				c-0.13,0.82-0.3,1.62-0.49,2.38l-0.35-0.2c2.77-2.69,5.6-4.64,7.71-5.86c1.06-0.61,1.93-1.05,2.54-1.34
				C219.04,270.9,219.39,270.76,219.4,270.79z"/>
		</g>
		<g>
			<path class="st7" d="M171.79,364.34c0.03,0.01-0.05,0.39-0.19,1.08c-0.15,0.69-0.35,1.69-0.58,2.93
				c-0.46,2.49-0.95,5.97-1.12,9.88l-0.01,0.19l-0.19,0.01c-0.3,0.02-0.61,0.04-0.93,0.06c-4.14,0.25-7.88,0.45-10.6,0.58
				c-1.3,0.05-2.38,0.09-3.21,0.13c-0.76,0.02-1.18,0.02-1.18-0.01c0-0.03,0.42-0.08,1.17-0.15c0.84-0.07,1.91-0.16,3.21-0.26
				c2.71-0.2,6.45-0.45,10.59-0.7c0.32-0.02,0.64-0.04,0.94-0.06l-0.2,0.2c0.17-3.94,0.72-7.44,1.26-9.92
				c0.27-1.24,0.52-2.23,0.71-2.91C171.63,364.7,171.76,364.34,171.79,364.34z"/>
		</g>
		<g>
			<path class="st7" d="M163.59,352.59c0.03,0,0,0.39-0.07,1.09c-0.09,0.77-0.2,1.77-0.34,2.97c-0.3,2.51-0.75,6-1.28,9.9
				l-0.02,0.17l-0.17,0.01c-0.43,0.03-0.88,0.06-1.34,0.09c-4.24,0.29-8.06,0.73-10.82,1.09c-1.32,0.18-2.42,0.32-3.27,0.44
				c-0.77,0.1-1.2,0.15-1.21,0.12c0-0.03,0.41-0.13,1.18-0.28c0.77-0.15,1.88-0.35,3.25-0.57c2.76-0.44,6.59-0.92,10.84-1.21
				c0.46-0.03,0.92-0.06,1.35-0.09l-0.2,0.18c0.54-3.91,1.03-7.39,1.41-9.89c0.19-1.19,0.34-2.18,0.47-2.95
				C163.48,352.96,163.56,352.58,163.59,352.59z"/>
		</g>
		<g>
			<path class="st7" d="M153.93,347.53c0.06,0.01-0.19,1.15-0.49,3.01c-0.3,1.86-0.61,4.46-0.67,7.38l0,0.23l-0.23-0.03
				c-0.22-0.03-0.46-0.06-0.7-0.09c-3.06-0.38-5.86-0.47-7.88-0.47c-0.94,0.01-1.74,0.02-2.4,0.03c-0.57,0.01-0.88,0.01-0.88-0.02
				c0-0.03,0.31-0.08,0.87-0.14c0.57-0.06,1.39-0.12,2.4-0.16c2.03-0.08,4.85-0.03,7.94,0.35c0.24,0.03,0.48,0.06,0.71,0.09
				l-0.24,0.2c0.07-2.95,0.43-5.57,0.81-7.43c0.19-0.93,0.37-1.67,0.51-2.18C153.81,347.79,153.91,347.52,153.93,347.53z"/>
		</g>
		<g>
			<path class="st7" d="M208.91,359.28c0.11,0.06-0.8,1.92-1.86,4.23c-1.07,2.31-1.9,4.21-2.01,4.17c-0.11-0.04,0.55-2.02,1.62-4.34
				C207.73,361.01,208.81,359.23,208.91,359.28z"/>
		</g>
		<g>
			<path class="st7" d="M214.15,364.84c0.01,0.13-2.19,0.16-4.74,0.96c-2.56,0.78-4.38,2-4.45,1.89c-0.07-0.07,1.7-1.49,4.33-2.29
				C211.91,364.57,214.17,364.74,214.15,364.84z"/>
		</g>
	</g>
</g>
<g id="Floor_1_">
	<g>
		<path class="st7" d="M691.27,454.19c0,0.14-141.61,0.26-316.25,0.26c-174.7,0-316.28-0.12-316.28-0.26
			c0-0.14,141.58-0.26,316.28-0.26C549.66,453.92,691.27,454.04,691.27,454.19z"/>
	</g>
</g>
</svg>
