<?xml version="1.0" encoding="utf-8"?>
<!-- Generator: Adobe Illustrator 24.1.3, SVG Export Plug-In . SVG Version: 6.00 Build 0)  -->
<svg version="1.1" xmlns="http://www.w3.org/2000/svg" xmlns:xlink="http://www.w3.org/1999/xlink" x="0px" y="0px"
	 viewBox="0 0 750 500" style="enable-background:new 0 0 750 500;" xml:space="preserve">
<style type="text/css">
	.st0{fill:#E0E0E0;}
	.st1{fill:#EBEBEB;}
	.st2{fill:#F5F5F5;}
	.st3{display:none;}
	.st4{display:inline;}
	.st5{fill:#FF600F;}
	.st6{opacity:0.4;}
	.st7{fill:#FFFFFF;}
	.st8{opacity:0.8;}
	.st9{fill:#263238;}
	.st10{fill:#455A64;}
	.st11{opacity:0.2;}
	.st12{opacity:0.3;}
	.st13{fill:#FFBE9D;}
	.st14{fill:#EB996E;}
</style>
<g id="Background_Complete">
	<g>
		<g>
			<g>
				<g>
					<path class="st0" d="M100.54,64.7c3.37-2.03,6.95-3.58,10.65-4.63l2.19-10.54l17.8-0.31l2.56,10.45
						c3.73,0.92,7.37,2.34,10.8,4.25l9-5.9l12.81,12.37l-5.58,9.2c2.04,3.37,3.58,6.95,4.63,10.65l10.54,2.19l0.31,17.8l-10.45,2.56
						c-0.92,3.73-2.34,7.37-4.25,10.8l5.9,9l-12.37,12.81l-9.2-5.58c-3.37,2.03-6.95,3.58-10.65,4.63l-2.19,10.54l-17.8,0.31
						l-2.56-10.45c-3.73-0.92-7.37-2.34-10.8-4.25l-9,5.9l-12.81-12.37l5.58-9.2c-2.03-3.37-3.58-6.95-4.63-10.65l-10.54-2.19
						l-0.31-17.8l10.45-2.56c0.92-3.73,2.34-7.37,4.25-10.8l-5.9-9l12.37-12.81L100.54,64.7L100.54,64.7z M110.03,88.42
						c-7.33,7.59-7.12,19.68,0.47,27.01c7.59,7.33,19.68,7.11,27.01-0.48c7.33-7.59,7.12-19.68-0.47-27.01
						C129.45,80.62,117.36,80.83,110.03,88.42z"/>
				</g>
			</g>
		</g>
	</g>
	<g>
		<g>
			<g>
				<g>
					<path class="st1" d="M206.91,38.91c1.97-1.19,4.07-2.09,6.23-2.71l1.28-6.17l10.42-0.18l1.5,6.12
						c2.18,0.54,4.31,1.37,6.32,2.49l5.26-3.45l7.5,7.24l-3.26,5.38c1.19,1.97,2.09,4.07,2.71,6.23l6.17,1.28l0.18,10.42l-6.12,1.5
						c-0.54,2.18-1.37,4.31-2.49,6.32l3.45,5.27l-7.24,7.5l-5.38-3.26c-1.97,1.19-4.07,2.09-6.23,2.71l-1.28,6.17l-10.42,0.18
						l-1.5-6.12c-2.18-0.54-4.31-1.37-6.32-2.49l-5.26,3.45l-7.5-7.24l3.26-5.38c-1.19-1.97-2.09-4.07-2.71-6.23l-6.17-1.28
						l-0.18-10.42l6.12-1.5c0.54-2.18,1.37-4.31,2.49-6.32l-3.45-5.27l7.24-7.5L206.91,38.91L206.91,38.91z M212.46,52.79
						c-4.29,4.44-4.16,11.52,0.28,15.8c4.44,4.29,11.52,4.16,15.8-0.28c4.29-4.44,4.16-11.52-0.28-15.8
						C223.83,48.22,216.75,48.35,212.46,52.79z"/>
				</g>
			</g>
		</g>
	</g>
	<g>
		<g>
			<g>
				<g>
					<path class="st2" d="M95.9,174.07c1.22-0.74,2.51-1.29,3.85-1.67l0.79-3.81l6.43-0.11l0.93,3.78c1.35,0.33,2.66,0.84,3.9,1.54
						l3.25-2.13l4.63,4.47l-2.02,3.32c0.74,1.22,1.29,2.51,1.67,3.85l3.81,0.79l0.11,6.43l-3.78,0.93c-0.33,1.35-0.84,2.66-1.54,3.9
						l2.13,3.25l-4.47,4.63l-3.32-2.02c-1.22,0.74-2.51,1.29-3.85,1.67l-0.79,3.81l-6.43,0.11l-0.93-3.78
						c-1.35-0.33-2.66-0.84-3.9-1.54l-3.25,2.13l-4.63-4.47l2.02-3.32c-0.74-1.22-1.29-2.51-1.67-3.85l-3.81-0.79l-0.11-6.43
						l3.78-0.93c0.33-1.35,0.84-2.66,1.54-3.9l-2.13-3.25l4.47-4.63L95.9,174.07L95.9,174.07z M99.33,182.64
						c-2.65,2.74-2.57,7.11,0.17,9.76c2.74,2.65,7.11,2.57,9.76-0.17c2.65-2.74,2.57-7.11-0.17-9.76
						C106.35,179.82,101.98,179.89,99.33,182.64z"/>
				</g>
			</g>
		</g>
	</g>
	<g>
		<g>
			<g>
				<g>
					<path class="st1" d="M651.87,260.21c1.57-0.95,3.24-1.67,4.97-2.16l1.02-4.92l8.3-0.15l1.2,4.88c1.74,0.43,3.44,1.09,5.04,1.98
						l4.2-2.75l5.97,5.77l-2.6,4.29c0.95,1.57,1.67,3.24,2.16,4.97l4.91,1.02l0.15,8.3l-4.88,1.2c-0.43,1.74-1.09,3.44-1.98,5.04
						l2.75,4.2l-5.77,5.98l-4.29-2.6c-1.57,0.95-3.24,1.67-4.97,2.16l-1.02,4.92l-8.3,0.15l-1.2-4.88
						c-1.74-0.43-3.44-1.09-5.04-1.98l-4.2,2.75l-5.98-5.77l2.6-4.29c-0.95-1.57-1.67-3.24-2.16-4.97l-4.91-1.02l-0.15-8.3l4.88-1.2
						c0.43-1.74,1.09-3.44,1.98-5.04l-2.75-4.2l5.77-5.97L651.87,260.21L651.87,260.21z M656.3,271.27
						c-3.42,3.54-3.32,9.18,0.22,12.6c3.54,3.42,9.18,3.32,12.6-0.22c3.42-3.54,3.32-9.18-0.22-12.6
						C665.36,267.63,659.72,267.73,656.3,271.27z"/>
				</g>
			</g>
		</g>
	</g>
	<g>
		<g>
			<g>
				<path class="st0" d="M307.15,454.29c-1.53,2.58-4.85,3.43-7.43,1.9c-2.58-1.53-3.43-4.85-1.9-7.43c1.53-2.58,4.85-3.43,7.43-1.9
					C307.83,448.38,308.68,451.71,307.15,454.29z"/>
			</g>
		</g>
		<g>
			<g>
				<path class="st0" d="M293.6,446.26c-1.63,2.75-5.17,3.65-7.92,2.03c-2.75-1.63-3.65-5.17-2.03-7.92
					c1.63-2.75,5.17-3.65,7.92-2.03C294.32,439.97,295.23,443.51,293.6,446.26z"/>
			</g>
		</g>
		<g>
			<g>
				<path class="st0" d="M288.47,431.33c-1.73,2.91-5.49,3.88-8.4,2.15c-2.91-1.73-3.88-5.49-2.15-8.4c1.73-2.91,5.49-3.88,8.4-2.15
					C289.23,424.66,290.19,428.42,288.47,431.33z"/>
			</g>
		</g>
		<g>
			<g>
				<path class="st0" d="M294.55,416.67c-1.8,3.04-5.73,4.05-8.78,2.25c-3.04-1.8-4.05-5.73-2.25-8.78c1.8-3.04,5.73-4.05,8.78-2.25
					C295.35,409.7,296.36,413.63,294.55,416.67z"/>
			</g>
		</g>
		<g>
			<g>
				<path class="st0" d="M308.5,408.94c-1.86,3.15-5.92,4.18-9.07,2.32c-3.15-1.86-4.18-5.92-2.32-9.07s5.92-4.18,9.07-2.32
					C309.32,401.73,310.36,405.8,308.5,408.94z"/>
			</g>
		</g>
		<g>
			<g>
				<path class="st0" d="M324.75,412.25c-2.03,3.43-6.46,4.56-9.88,2.53c-3.43-2.03-4.56-6.46-2.53-9.88
					c2.03-3.43,6.46-4.56,9.88-2.53C325.65,404.4,326.78,408.82,324.75,412.25z"/>
			</g>
		</g>
		<g>
			<g>
				<path class="st0" d="M322.57,451.39c-1.47,2.49-4.69,3.31-7.18,1.84c-2.49-1.47-3.31-4.69-1.84-7.18
					c1.47-2.49,4.69-3.31,7.18-1.84C323.22,445.68,324.04,448.9,322.57,451.39z"/>
			</g>
		</g>
		<g>
			<g>
				<path class="st0" d="M332.69,439.06c-1.37,2.31-4.35,3.07-6.66,1.7c-2.31-1.37-3.07-4.35-1.7-6.66c1.37-2.31,4.35-3.07,6.66-1.7
					C333.3,433.77,334.06,436.75,332.69,439.06z"/>
			</g>
		</g>
		<g>
			<g>
				<path class="st0" d="M332.39,422.88c-1.25,2.11-3.98,2.81-6.09,1.56c-2.11-1.25-2.81-3.98-1.56-6.09
					c1.25-2.11,3.98-2.81,6.09-1.56C332.94,418.05,333.64,420.77,332.39,422.88z"/>
			</g>
		</g>
	</g>
	<g>
		<g>
			<g>
				<path class="st2" d="M39.41,209.67c0,0-9.3,3.77,1.43,23.5c10.72,19.74,18.05,29.46,18.05,29.46s1.93,4.6-1.96,5.42
					c-3.89,0.82-12.53-0.33-14.15,4.5c-1.68,5.01,2.05,9.59,9.46,13.51c7.41,3.92,23.34,13.09,24.77,13.93
					c1.41,0.82,2.86,2.94,0.3,3.93c-2.56,0.99-21.87,3.51-20.12,12.6c1.75,9.09,24.19,16.61,26.63,17.47
					c2.44,0.87,3.04,1.88,2.88,3.21c-0.16,1.33-6.73,1.57-12.19,2.51c-5.46,0.94-11.63,2.99-10.18,8.15
					c1.45,5.16,14.9,15.73,46.96,18.04l14.93,0.1l7.79-12.81c15-28.43,13.14-45.44,9.53-49.39s-8.62,0.19-12.31,4.33
					c-3.69,4.14-7.36,9.59-8.58,9.02c-1.21-0.57-1.75-1.61-1.2-4.14c0.55-2.53,6.04-25.55-0.75-31.84
					c-6.79-6.29-19.14,8.76-21.33,10.42s-3.23-0.7-3.18-2.33c0.05-1.66,0.69-20.03,1.28-28.39c0.6-8.36-1.33-13.95-6.46-15.17
					c-4.95-1.18-8.55,6.76-11.3,9.63c-2.76,2.87-5.64-1.2-5.64-1.2s-4.37-11.36-15.45-30.9c-11.08-19.54-19.37-13.45-19.37-13.45"/>
			</g>
		</g>
		<g>
			<g>
				<g>
					<path class="st0" d="M127.06,369.48c-8.08-14.38-22.01-40.19-34.09-62.28c-12.07-22.08-23.02-42.07-31.03-56.49
						c-4-7.19-7.25-13.02-9.5-17.07c-1.11-2-1.98-3.56-2.58-4.64c-0.28-0.52-0.5-0.92-0.66-1.21c-0.15-0.27-0.21-0.42-0.21-0.42
						s0.09,0.13,0.25,0.4c0.17,0.28,0.4,0.68,0.7,1.19c0.62,1.07,1.51,2.62,2.66,4.6c2.3,4,5.59,9.81,9.63,17
						c8.08,14.38,19.08,34.34,31.15,56.43c12.08,22.09,25.96,47.92,33.97,62.34"/>
				</g>
			</g>
		</g>
		<g>
			<g>
				<g>
					<path class="st0" d="M54.8,274.65c0.01-0.03,0.38,0.06,1.05,0.26c0.67,0.19,1.62,0.51,2.8,0.9c2.35,0.79,5.57,1.97,9.09,3.34
						c3.47,1.36,6.61,2.59,9.02,3.53c1.09,0.42,2,0.77,2.74,1.05c0.65,0.25,1,0.4,0.99,0.43c-0.01,0.03-0.38-0.06-1.05-0.25
						c-0.67-0.2-1.62-0.51-2.79-0.91c-2.34-0.82-5.54-2.04-9.07-3.4c-3.48-1.33-6.63-2.54-9.04-3.46c-1.09-0.41-2.01-0.76-2.74-1.04
						C55.15,274.83,54.79,274.68,54.8,274.65z"/>
				</g>
			</g>
		</g>
		<g>
			<g>
				<g>
					<path class="st0" d="M81.48,283.17c-0.12-0.04,2.02-6.78,4.78-15.05c2.76-8.27,5.09-14.95,5.22-14.91
						c0.12,0.04-2.02,6.78-4.78,15.05C83.94,276.54,81.6,283.21,81.48,283.17z"/>
				</g>
			</g>
		</g>
		<g>
			<g>
				<g>
					<path class="st0" d="M98.5,317.93c-0.03-0.02,0.18-0.35,0.58-0.94c0.46-0.66,1.03-1.48,1.7-2.46c1.44-2.08,3.41-4.96,5.46-8.22
						c2.07-3.26,3.83-6.27,5.09-8.46c0.59-1.03,1.1-1.9,1.5-2.59c0.36-0.61,0.57-0.94,0.6-0.93c0.03,0.02-0.13,0.37-0.44,1.01
						c-0.31,0.64-0.77,1.55-1.37,2.67c-1.19,2.24-2.92,5.28-4.99,8.55c-2.06,3.27-4.08,6.13-5.59,8.17
						c-0.76,1.01-1.38,1.83-1.83,2.38C98.78,317.65,98.52,317.95,98.5,317.93z"/>
				</g>
			</g>
		</g>
		<g>
			<g>
				<g>
					<path class="st0" d="M72.67,315.53c0-0.03,0.37-0.03,1.02-0.01c0.75,0.04,1.68,0.09,2.77,0.15c2.33,0.14,5.55,0.38,9.11,0.66
						c3.56,0.28,6.77,0.57,9.1,0.8c1.09,0.12,2,0.21,2.75,0.29c0.65,0.08,1.01,0.14,1,0.17c0,0.03-0.37,0.03-1.02,0.01
						c-0.75-0.04-1.68-0.09-2.77-0.15c-2.33-0.14-5.56-0.38-9.11-0.66c-3.56-0.28-6.77-0.57-9.1-0.8c-1.08-0.12-2-0.21-2.75-0.29
						C73.02,315.62,72.67,315.56,72.67,315.53z"/>
				</g>
			</g>
		</g>
		<g>
			<g>
				<g>
					<path class="st0" d="M83.79,348.12c0-0.03,0.47-0.03,1.3,0c0.92,0.05,2.11,0.1,3.54,0.18c2.99,0.17,7.12,0.43,11.68,0.75
						c4.56,0.32,8.69,0.64,11.68,0.89c1.43,0.13,2.61,0.24,3.53,0.32c0.83,0.09,1.29,0.15,1.29,0.18c0,0.03-0.47,0.03-1.3,0
						c-0.92-0.05-2.11-0.1-3.54-0.18c-2.99-0.17-7.12-0.43-11.68-0.75c-4.56-0.32-8.69-0.64-11.67-0.89
						c-1.43-0.13-2.61-0.24-3.53-0.32C84.25,348.22,83.79,348.15,83.79,348.12z"/>
				</g>
			</g>
		</g>
		<g>
			<g>
				<g>
					<path class="st0" d="M116.05,350.17c-0.03-0.02,0.23-0.45,0.71-1.2c0.53-0.83,1.22-1.9,2.05-3.2c1.73-2.7,4.1-6.45,6.59-10.66
						c2.51-4.2,4.67-8.07,6.22-10.88c0.75-1.35,1.36-2.47,1.84-3.33c0.44-0.78,0.69-1.21,0.72-1.2c0.03,0.01-0.17,0.47-0.56,1.28
						c-0.39,0.81-0.97,1.97-1.71,3.4c-1.48,2.85-3.6,6.75-6.11,10.96c-2.5,4.21-4.92,7.94-6.72,10.6c-0.9,1.33-1.64,2.4-2.17,3.12
						C116.38,349.79,116.08,350.19,116.05,350.17z"/>
				</g>
			</g>
		</g>
	</g>
</g>
<g id="Background_Simple" class="st3">
	<g class="st4">
		<path class="st1" d="M650.97,238.59c-50.61-28.67-119.98,0.07-169.61-30.26c-25.94-15.85-40.57-44.48-58.89-68.73
			c-36.27-48.03-92.44-81.95-152.49-86.06c-60.05-4.12-122.59,23.74-155.32,74.25c-21.3,32.86-29.42,73.3-26.41,112.35
			c3.01,39.05,16.66,76.77,35.86,110.9c12.59,22.39,27.83,43.68,47.68,59.98c19.85,16.3,97.56,56.25,203.93,56.25l57.86,0.82
			c50.17-1.15,122.14-8.61,163.98-23.81c41.83-15.19,79.46-46.75,93.3-89.05C704.69,312.93,689.69,260.52,650.97,238.59z"/>
	</g>
</g>
<g id="Gears">
	<g>
		<g>
			<g>
				<path class="st5" d="M687.72,200.92l13.18-3.23l-0.39-22.45l-13.28-2.76c-1.32-4.66-3.27-9.18-5.83-13.42l7.03-11.6
					l-16.15-15.59l-11.34,7.44c-4.33-2.41-8.92-4.2-13.62-5.36l-3.23-13.18l-22.45,0.39l-2.76,13.29
					c-4.66,1.32-9.18,3.27-13.42,5.83l-11.6-7.03l-15.59,16.15l7.44,11.34c-2.41,4.33-4.2,8.91-5.36,13.62l-13.18,3.23l0.39,22.45
					l13.28,2.76c1.32,4.66,3.27,9.18,5.83,13.42l-7.03,11.6l16.15,15.59l11.34-7.44c4.33,2.41,8.91,4.2,13.62,5.36l3.23,13.18
					l22.45-0.39l2.77-13.28c4.66-1.32,9.18-3.27,13.42-5.83l11.6,7.03l15.59-16.15l-7.43-11.35
					C684.77,210.21,686.56,205.63,687.72,200.92z M652.05,203.63c-9.24,9.57-24.48,9.84-34.05,0.6c-9.57-9.24-9.84-24.48-0.6-34.05
					c9.24-9.57,24.48-9.84,34.05-0.6C661.03,178.82,661.29,194.07,652.05,203.63z"/>
			</g>
			<g class="st6">
				<path class="st7" d="M687.72,200.92l13.18-3.23l-0.39-22.45l-13.28-2.76c-1.32-4.66-3.27-9.18-5.83-13.42l7.03-11.6
					l-16.15-15.59l-11.34,7.44c-4.33-2.41-8.92-4.2-13.62-5.36l-3.23-13.18l-22.45,0.39l-2.76,13.29
					c-4.66,1.32-9.18,3.27-13.42,5.83l-11.6-7.03l-15.59,16.15l7.44,11.34c-2.41,4.33-4.2,8.91-5.36,13.62l-13.18,3.23l0.39,22.45
					l13.28,2.76c1.32,4.66,3.27,9.18,5.83,13.42l-7.03,11.6l16.15,15.59l11.34-7.44c4.33,2.41,8.91,4.2,13.62,5.36l3.23,13.18
					l22.45-0.39l2.77-13.28c4.66-1.32,9.18-3.27,13.42-5.83l11.6,7.03l15.59-16.15l-7.43-11.35
					C684.77,210.21,686.56,205.63,687.72,200.92z M652.05,203.63c-9.24,9.57-24.48,9.84-34.05,0.6c-9.57-9.24-9.84-24.48-0.6-34.05
					c9.24-9.57,24.48-9.84,34.05-0.6C661.03,178.82,661.29,194.07,652.05,203.63z"/>
			</g>
		</g>
		<g>
			<g>
				<g>
					<g>
						<g>
							<path class="st5" d="M523.43,56.77c3.04-1.84,6.28-3.23,9.61-4.18l1.98-9.52l16.08-0.28l2.31,9.44
								c3.37,0.83,6.65,2.11,9.75,3.84l8.13-5.33l11.57,11.17l-5.04,8.31c1.84,3.04,3.23,6.28,4.18,9.62l9.51,1.98l0.28,16.08
								l-9.44,2.31c-0.83,3.37-2.11,6.65-3.84,9.75l5.33,8.13l-11.17,11.57l-8.31-5.04c-3.04,1.84-6.28,3.23-9.61,4.18l-1.98,9.52
								l-16.08,0.28l-2.31-9.44c-3.37-0.83-6.65-2.11-9.75-3.84l-8.13,5.33l-11.57-11.17l5.04-8.31c-1.84-3.04-3.23-6.28-4.18-9.61
								l-9.52-1.98L496,83.5l9.44-2.31c0.83-3.37,2.11-6.65,3.84-9.75l-5.33-8.13l11.17-11.57L523.43,56.77L523.43,56.77z
								 M532,78.19c-6.62,6.85-6.43,17.77,0.43,24.39c6.85,6.62,17.77,6.42,24.39-0.43c6.62-6.85,6.42-17.77-0.43-24.39
								C549.54,71.14,538.62,71.34,532,78.19z"/>
						</g>
					</g>
				</g>
				<g class="st8">
					<g>
						<g>
							<g>
								<path class="st7" d="M523.43,56.77c3.04-1.84,6.28-3.23,9.61-4.18l1.98-9.52l16.08-0.28l2.31,9.44
									c3.37,0.83,6.65,2.11,9.75,3.84l8.13-5.33l11.57,11.17l-5.04,8.31c1.84,3.04,3.23,6.28,4.18,9.62l9.51,1.98l0.28,16.08
									l-9.44,2.31c-0.83,3.37-2.11,6.65-3.84,9.75l5.33,8.13l-11.17,11.57l-8.31-5.04c-3.04,1.84-6.28,3.23-9.61,4.18l-1.98,9.52
									l-16.08,0.28l-2.31-9.44c-3.37-0.83-6.65-2.11-9.75-3.84l-8.13,5.33l-11.57-11.17l5.04-8.31c-1.84-3.04-3.23-6.28-4.18-9.61
									l-9.52-1.98L496,83.5l9.44-2.31c0.83-3.37,2.11-6.65,3.84-9.75l-5.33-8.13l11.17-11.57L523.43,56.77L523.43,56.77z
									 M532,78.19c-6.62,6.85-6.43,17.77,0.43,24.39c6.85,6.62,17.77,6.42,24.39-0.43c6.62-6.85,6.42-17.77-0.43-24.39
									C549.54,71.14,538.62,71.34,532,78.19z"/>
							</g>
						</g>
					</g>
				</g>
			</g>
			<g>
				<g>
					<g>
						<g>
							<path class="st7" d="M640.59,48.86c2.24-1.35,4.62-2.38,7.08-3.08l1.46-7l11.83-0.21l1.7,6.95c2.48,0.61,4.9,1.55,7.18,2.82
								l5.98-3.92l8.51,8.22l-3.71,6.11c1.35,2.24,2.38,4.62,3.08,7.08l7,1.46l0.21,11.83l-6.95,1.7c-0.61,2.48-1.55,4.9-2.82,7.18
								l3.92,5.98l-8.22,8.51l-6.11-3.71c-2.24,1.35-4.62,2.38-7.08,3.07l-1.46,7l-11.83,0.21l-1.7-6.95
								c-2.48-0.61-4.9-1.55-7.18-2.82l-5.98,3.92l-8.51-8.22l3.71-6.11c-1.35-2.24-2.38-4.62-3.08-7.08l-7-1.46l-0.21-11.83
								l6.95-1.7c0.61-2.48,1.55-4.9,2.82-7.18l-3.92-5.98l8.22-8.51L640.59,48.86L640.59,48.86z M646.89,64.62
								c-4.87,5.04-4.73,13.08,0.32,17.95c5.04,4.87,13.08,4.73,17.95-0.32c4.87-5.04,4.73-13.08-0.32-17.95
								C659.8,59.44,651.77,59.58,646.89,64.62z"/>
						</g>
					</g>
				</g>
				<g>
					<g>
						<g>
							<g>
								<path class="st5" d="M646.89,64.62c0,0,0.66-0.94,2.36-2.07c1.67-1.11,4.59-2.35,8.28-1.96c1.82,0.2,3.81,0.8,5.63,2
									c1.8,1.2,3.49,2.91,4.55,5.13c0.56,1.09,0.95,2.3,1.15,3.56c0.23,1.26,0.26,2.59,0.07,3.91c-0.32,2.65-1.58,5.27-3.52,7.32
									c-1.98,2.02-4.55,3.37-7.19,3.78c-1.31,0.24-2.64,0.25-3.91,0.07c-1.27-0.17-2.49-0.51-3.6-1.03
									c-2.26-0.98-4.02-2.62-5.29-4.37c-1.26-1.77-1.93-3.74-2.2-5.56c-0.52-3.68,0.61-6.64,1.67-8.35
									C645.98,65.32,646.89,64.62,646.89,64.62c0.07,0.06-0.77,0.83-1.74,2.58c-0.96,1.71-1.97,4.6-1.4,8.13
									c0.29,1.74,0.95,3.61,2.18,5.28c1.23,1.66,2.92,3.2,5.07,4.11c1.05,0.49,2.22,0.8,3.42,0.95c1.2,0.17,2.46,0.15,3.7-0.08
									c2.5-0.4,4.91-1.68,6.79-3.58c1.84-1.94,3.03-4.4,3.34-6.91c0.18-1.25,0.16-2.5-0.05-3.7c-0.19-1.2-0.55-2.35-1.07-3.38
									c-0.99-2.11-2.58-3.75-4.28-4.92c-1.72-1.17-3.61-1.76-5.36-1.99c-3.54-0.44-6.4,0.67-8.07,1.69
									C647.7,63.83,646.96,64.69,646.89,64.62z"/>
							</g>
						</g>
					</g>
				</g>
				<g>
					<g>
						<g>
							<g>
								<path class="st5" d="M640.59,48.86c0,0.01-0.13-0.06-0.39-0.21c-0.29-0.17-0.67-0.39-1.17-0.68
									c-1.07-0.63-2.61-1.54-4.61-2.72l0.14-0.02c-2.09,2.19-4.84,5.08-8.17,8.56l0.02-0.23c1.19,1.81,2.52,3.82,3.94,5.96
									l0.07,0.11l-0.06,0.11c-1.16,2.1-2.14,4.5-2.78,7.13l-0.03,0.14l-0.14,0.04c-2.16,0.54-4.51,1.12-6.94,1.72l0.2-0.26
									c0.07,3.73,0.15,7.68,0.24,11.83l-0.23-0.28c2.17,0.45,4.56,0.94,7.01,1.44l0.18,0.04l0.05,0.18c0.65,2.28,1.67,4.71,3.05,7
									l0.1,0.16l-0.1,0.16c-1.15,1.9-2.41,3.99-3.7,6.12l-0.05-0.4c2.68,2.58,5.57,5.36,8.52,8.21l-0.42-0.04
									c1.86-1.22,3.91-2.57,5.98-3.93l0.18-0.11l0.18,0.1c2.09,1.16,4.53,2.16,7.1,2.79l0.21,0.05l0.05,0.21
									c0.53,2.18,1.12,4.55,1.71,6.95l-0.35-0.27c3.75-0.07,7.76-0.14,11.83-0.21l-0.35,0.29c0.46-2.21,0.96-4.6,1.46-7l0.04-0.22
									l0.21-0.06c2.33-0.66,4.74-1.68,6.98-3.03l0.01,0l0.19-0.11l0.19,0.11c2.05,1.24,4.09,2.48,6.11,3.71l-0.45,0.06
									c2.78-2.88,5.52-5.71,8.22-8.51l-0.04,0.45c-1.32-2.01-2.62-4.01-3.92-5.98l-0.12-0.18l0.11-0.19
									c1.26-2.25,2.19-4.65,2.79-7.09l0.05-0.21l0.21-0.05c2.35-0.57,4.66-1.14,6.95-1.7l-0.26,0.34
									c-0.07-4.04-0.13-7.99-0.2-11.83l0.27,0.32c-2.38-0.5-4.71-0.99-7-1.47l-0.19-0.04l-0.05-0.19c-0.71-2.51-1.74-4.87-3.03-7
									l-0.1-0.16l0.1-0.16c1.27-2.09,2.51-4.12,3.72-6.11l0.05,0.37c-2.99-2.9-5.81-5.63-8.5-8.24l0.35,0.03
									c-2.11,1.37-4.08,2.66-5.99,3.91l-0.13,0.09l-0.14-0.08c-2.38-1.33-4.77-2.23-7.11-2.82l-0.14-0.04l-0.03-0.14
									c-0.61-2.53-1.16-4.8-1.68-6.95l0.21,0.16c-4.58,0.06-8.49,0.11-11.83,0.16l0.16-0.13c-0.6,2.79-1.09,5.09-1.5,6.99
									l-0.02,0.07l-0.07,0.02c-2.5,0.7-4.27,1.52-5.41,2.08c-0.55,0.29-0.97,0.5-1.27,0.67C640.72,48.8,640.59,48.87,640.59,48.86
									c0-0.01,0.14-0.1,0.39-0.27c0.27-0.17,0.68-0.42,1.25-0.72c1.13-0.6,2.89-1.46,5.4-2.2l-0.08,0.09
									c0.39-1.91,0.85-4.21,1.41-7.01l0.03-0.13l0.13,0c3.34-0.07,7.25-0.16,11.83-0.26l0.17,0l0.04,0.17
									c0.53,2.15,1.1,4.42,1.73,6.94l-0.17-0.18c2.38,0.58,4.82,1.48,7.25,2.83l-0.27,0.01c1.9-1.25,3.87-2.55,5.97-3.93
									l0.19-0.12l0.16,0.16c2.7,2.59,5.53,5.32,8.53,8.2l0.17,0.17l-0.13,0.21c-1.2,1.99-2.43,4.02-3.7,6.12l0-0.33
									c1.32,2.18,2.39,4.59,3.12,7.15l-0.25-0.23c2.29,0.47,4.63,0.96,7.01,1.45l0.26,0.05l0,0.27c0.07,3.85,0.14,7.79,0.22,11.83
									l0.01,0.28L691,79.46c-2.28,0.56-4.6,1.13-6.95,1.71l0.26-0.26c-0.61,2.5-1.57,4.96-2.85,7.27l-0.01-0.37
									c1.29,1.97,2.6,3.97,3.92,5.98l0.16,0.24l-0.2,0.21c-2.7,2.8-5.44,5.64-8.22,8.52l-0.2,0.21l-0.25-0.15
									c-2.02-1.23-4.06-2.46-6.11-3.71l0.38,0l-0.01,0c-2.29,1.39-4.77,2.43-7.16,3.11l0.26-0.28c-0.5,2.4-1,4.79-1.46,7
									l-0.06,0.28l-0.29,0.01c-4.07,0.07-8.09,0.14-11.83,0.2l-0.28,0.01l-0.07-0.28c-0.59-2.4-1.17-4.77-1.7-6.95l0.26,0.26
									c-2.63-0.65-5.13-1.67-7.26-2.86l0.36-0.01c-2.07,1.36-4.12,2.7-5.98,3.91l-0.23,0.15l-0.19-0.19
									c-2.95-2.86-5.83-5.65-8.5-8.23l-0.19-0.18l0.13-0.22c1.29-2.13,2.56-4.21,3.72-6.11l0,0.32c-1.41-2.34-2.44-4.82-3.1-7.16
									l0.23,0.21c-2.45-0.51-4.83-1.02-7-1.47l-0.22-0.05l0-0.23c-0.06-4.15-0.12-8.11-0.18-11.83l0-0.21l0.2-0.05
									c2.44-0.59,4.79-1.16,6.95-1.68l-0.17,0.17c0.67-2.67,1.67-5.1,2.87-7.23l0.01,0.22c-1.4-2.16-2.72-4.18-3.9-6l-0.08-0.12
									l0.1-0.11c3.37-3.45,6.15-6.3,8.27-8.47l0.07-0.07l0.08,0.05c1.95,1.22,3.46,2.15,4.5,2.8c0.49,0.31,0.87,0.56,1.16,0.74
									C640.45,48.76,640.59,48.85,640.59,48.86z"/>
							</g>
						</g>
					</g>
				</g>
			</g>
		</g>
	</g>
</g>
<g id="Window">
	<g>
		<g>
			<rect x="143.5" y="106.76" class="st7" width="473.77" height="278.19"/>
		</g>
		<g>
			<g>
				<rect x="143.75" y="106.83" class="st9" width="473.77" height="30.24"/>
			</g>
			<g>
				<path class="st9" d="M302.13,168.23c0-3.52,2.69-6.15,6.36-6.15c3.63,0,6.34,2.61,6.34,6.15s-2.71,6.15-6.34,6.15
					C304.82,174.38,302.13,171.75,302.13,168.23z M313.55,168.23c0-2.88-2.16-5.01-5.06-5.01c-2.92,0-5.1,2.12-5.1,5.01
					c0,2.88,2.18,5.01,5.1,5.01C311.39,173.24,313.55,171.12,313.55,168.23z"/>
				<path class="st9" d="M326.64,169.73c0,2.76-1.93,4.63-4.53,4.63c-1.45,0-2.69-0.62-3.45-1.8v5.06h-1.23v-12.44h1.17v1.8
					c0.74-1.21,2-1.87,3.51-1.87C324.71,165.12,326.64,166.99,326.64,169.73z M325.42,169.73c0-2.11-1.47-3.54-3.39-3.54
					c-1.93,0-3.39,1.43-3.39,3.54c0,2.13,1.45,3.54,3.39,3.54C323.95,173.27,325.42,171.86,325.42,169.73z"/>
				<path class="st9" d="M337.06,170.11h-7.6c0.14,1.9,1.59,3.16,3.58,3.16c1.11,0,2.09-0.4,2.78-1.19l0.69,0.79
					c-0.81,0.97-2.07,1.49-3.51,1.49c-2.83,0-4.77-1.93-4.77-4.63c0-2.69,1.88-4.61,4.44-4.61c2.56,0,4.4,1.88,4.4,4.61
					C337.08,169.84,337.06,169.98,337.06,170.11z M329.46,169.2h6.44c-0.16-1.78-1.45-3.02-3.23-3.02
					C330.91,166.18,329.62,167.42,329.46,169.2z"/>
				<path class="st9" d="M344.16,165.12v1.19c-0.1,0-0.21-0.02-0.29-0.02c-1.9,0-3.06,1.21-3.06,3.35v4.63h-1.23v-9.09h1.17v1.78
					C341.33,165.76,342.49,165.12,344.16,165.12z"/>
				<path class="st9" d="M353.22,168.65v5.63h-1.17v-1.42c-0.55,0.93-1.62,1.5-3.13,1.5c-2.06,0-3.32-1.07-3.32-2.64
					c0-1.4,0.9-2.57,3.51-2.57h2.88v-0.55c0-1.55-0.88-2.4-2.57-2.4c-1.17,0-2.28,0.41-3.02,1.07l-0.55-0.92
					c0.92-0.78,2.26-1.23,3.7-1.23C351.89,165.12,353.22,166.3,353.22,168.65z M351.99,171.55v-1.49h-2.85
					c-1.76,0-2.33,0.69-2.33,1.62c0,1.05,0.85,1.71,2.3,1.71C350.49,173.4,351.51,172.74,351.99,171.55z"/>
				<path class="st9" d="M361.34,173.72c-0.48,0.43-1.21,0.64-1.92,0.64c-1.71,0-2.66-0.97-2.66-2.64v-5.49h-1.62v-1.04h1.62v-1.99
					h1.23v1.99h2.76v1.04h-2.76v5.42c0,1.07,0.55,1.66,1.57,1.66c0.5,0,1-0.16,1.35-0.47L361.34,173.72z"/>
				<path class="st9" d="M363.29,162.32c0-0.47,0.4-0.86,0.9-0.86c0.5,0,0.9,0.38,0.9,0.85c0,0.5-0.38,0.9-0.9,0.9
					C363.69,163.2,363.29,162.81,363.29,162.32z M363.57,165.19h1.23v9.09h-1.23V165.19z"/>
				<path class="st9" d="M376.58,169.01v5.27h-1.23v-5.15c0-1.92-1-2.9-2.73-2.9c-1.95,0-3.18,1.21-3.18,3.28v4.77h-1.23v-9.09h1.17
					v1.68c0.66-1.11,1.88-1.74,3.45-1.74C375.06,165.12,376.58,166.4,376.58,169.01z"/>
				<path class="st9" d="M388.36,165.19v7.98c0,3.13-1.54,4.54-4.54,4.54c-1.66,0-3.28-0.5-4.23-1.4l0.62-0.93
					c0.86,0.78,2.18,1.24,3.58,1.24c2.3,0,3.35-1.05,3.35-3.3v-1.16c-0.76,1.16-2.06,1.76-3.54,1.76c-2.59,0-4.56-1.81-4.56-4.42
					c0-2.61,1.97-4.39,4.56-4.39c1.52,0,2.83,0.62,3.59,1.81v-1.74H388.36z M387.17,169.51c0-1.97-1.45-3.32-3.46-3.32
					s-3.44,1.35-3.44,3.32c0,1.97,1.43,3.33,3.44,3.33S387.17,171.48,387.17,169.51z"/>
				<path class="st9" d="M395.22,173l0.78-1.74c0.97,0.78,2.5,1.33,3.99,1.33c1.88,0,2.68-0.67,2.68-1.57c0-2.61-7.19-0.9-7.19-5.39
					c0-1.95,1.55-3.61,4.87-3.61c1.45,0,2.97,0.38,4.02,1.07l-0.71,1.74c-1.09-0.64-2.28-0.95-3.33-0.95
					c-1.87,0-2.63,0.73-2.63,1.64c0,2.57,7.17,0.9,7.17,5.34c0,1.93-1.57,3.59-4.89,3.59C398.11,174.45,396.22,173.86,395.22,173z"
					/>
				<path class="st9" d="M415.36,165.05l-4.32,9.97c-0.85,2.09-2.02,2.73-3.56,2.73c-0.92,0-1.88-0.31-2.47-0.85l0.86-1.59
					c0.41,0.4,1,0.64,1.59,0.64c0.76,0,1.21-0.36,1.62-1.28l0.16-0.36l-4.02-9.26h2.25l2.9,6.82l2.92-6.82H415.36z"/>
				<path class="st9" d="M415.54,173.36l0.83-1.64c0.81,0.54,2.06,0.92,3.21,0.92c1.37,0,1.93-0.38,1.93-1.02
					c0-1.76-5.7-0.1-5.7-3.78c0-1.74,1.57-2.88,4.06-2.88c1.23,0,2.63,0.29,3.45,0.79l-0.83,1.64c-0.88-0.52-1.76-0.69-2.64-0.69
					c-1.31,0-1.93,0.43-1.93,1.04c0,1.87,5.7,0.21,5.7,3.82c0,1.73-1.59,2.85-4.18,2.85C417.91,174.4,416.37,173.95,415.54,173.36z"
					/>
				<path class="st9" d="M431.04,173.78c-0.52,0.41-1.3,0.62-2.07,0.62c-2.02,0-3.18-1.07-3.18-3.11v-4.44h-1.52v-1.73h1.52v-2.11
					h2.16v2.11h2.47v1.73h-2.47v4.39c0,0.9,0.45,1.38,1.28,1.38c0.45,0,0.88-0.12,1.21-0.38L431.04,173.78z"/>
				<path class="st9" d="M441.14,170.36h-7.24c0.26,1.35,1.38,2.21,2.99,2.21c1.04,0,1.85-0.33,2.5-1l1.16,1.33
					c-0.83,0.98-2.13,1.5-3.71,1.5c-3.09,0-5.1-1.99-5.1-4.73s2.02-4.72,4.77-4.72c2.69,0,4.66,1.88,4.66,4.77
					C441.18,169.89,441.16,170.15,441.14,170.36z M433.89,168.92h5.23c-0.17-1.33-1.19-2.25-2.61-2.25
					C435.11,166.68,434.1,167.57,433.89,168.92z"/>
				<path class="st9" d="M458.68,168.99v5.29h-2.16v-5.01c0-1.64-0.76-2.44-2.07-2.44c-1.42,0-2.4,0.93-2.4,2.76v4.68h-2.16v-5.01
					c0-1.64-0.76-2.44-2.07-2.44c-1.43,0-2.4,0.93-2.4,2.76v4.68h-2.16v-9.22h2.06v1.17c0.69-0.83,1.76-1.28,3.02-1.28
					c1.35,0,2.47,0.5,3.11,1.54c0.74-0.95,1.99-1.54,3.45-1.54C457.12,164.95,458.68,166.21,458.68,168.99z"/>
			</g>
			<g>
				<g>
					<g>
						<path class="st5" d="M417.38,359.97c0,0,0.22-0.03,0.66-0.06c0.43-0.06,1.09-0.02,1.92-0.19c1.67-0.22,4.18-0.78,6.96-2.42
							c2.75-1.61,5.85-4.35,7.75-8.53c1.92-4.1,2.53-9.68,0.4-15.05c-1.03-2.68-2.81-5.19-5.15-7.26c-2.32-2.1-5.33-3.58-8.61-4.32
							c-1.66-0.31-3.35-0.44-5.12-0.41c-1.76,0-3.54,0-5.36,0.01c-3.62,0-7.35,0.01-11.18,0.01c-15.3,0.01-32.12,0.01-49.77,0.02
							c-4.36,0.03-8.63,1.54-11.93,4.22c-3.27,2.69-5.64,6.4-6.54,10.42c-0.45,2-0.62,4.05-0.43,6.06c0.2,2.01,0.7,3.96,1.46,5.78
							c1.59,3.62,4.24,6.68,7.48,8.63c0.79,0.53,1.65,0.91,2.49,1.31c0.87,0.32,1.73,0.69,2.63,0.88c0.88,0.27,1.79,0.38,2.69,0.52
							c0.91,0.07,1.8,0.13,2.71,0.13c3.62,0,7.14,0.01,10.54,0.01c6.8,0.01,13.14,0.02,18.93,0.03c11.56,0.03,20.92,0.06,27.41,0.08
							c3.22,0.02,5.73,0.04,7.45,0.05c0.84,0.01,1.48,0.02,1.94,0.03C417.15,359.95,417.38,359.97,417.38,359.97
							s-0.22,0.02-0.66,0.03c-0.45,0.01-1.1,0.01-1.94,0.03c-1.72,0.01-4.23,0.03-7.45,0.05c-6.49,0.02-15.85,0.05-27.41,0.08
							c-5.79,0.01-12.12,0.02-18.93,0.03c-3.4,0-6.92,0.01-10.54,0.01c-0.9,0-1.84-0.05-2.76-0.13c-0.92-0.14-1.85-0.25-2.76-0.52
							c-0.93-0.2-1.8-0.58-2.7-0.9c-0.86-0.41-1.74-0.81-2.55-1.34c-3.32-2-6.04-5.13-7.68-8.84c-0.79-1.87-1.3-3.87-1.51-5.93
							c-0.19-2.06-0.02-4.17,0.43-6.23c0.91-4.13,3.35-7.94,6.71-10.71c3.38-2.76,7.78-4.31,12.26-4.34
							c17.65,0.01,34.47,0.01,49.77,0.02c3.82,0,7.55,0.01,11.18,0.01c1.81,0,3.6,0,5.36,0.01c1.75-0.03,3.52,0.1,5.2,0.43
							c3.35,0.76,6.42,2.29,8.78,4.44c2.38,2.12,4.19,4.7,5.23,7.43c2.15,5.48,1.5,11.15-0.47,15.31c-1.96,4.23-5.12,6.98-7.91,8.59
							c-2.83,1.63-5.36,2.16-7.05,2.35c-0.84,0.15-1.5,0.1-1.94,0.14C417.6,359.98,417.38,359.97,417.38,359.97z"/>
					</g>
				</g>
				<g>
					<path class="st5" d="M368.35,343.47l0.56-1.26c0.7,0.56,1.81,0.96,2.88,0.96c1.36,0,1.93-0.49,1.93-1.14
						c0-1.88-5.19-0.65-5.19-3.89c0-1.41,1.12-2.61,3.52-2.61c1.05,0,2.15,0.27,2.91,0.77l-0.51,1.26
						c-0.79-0.46-1.65-0.69-2.41-0.69c-1.35,0-1.9,0.52-1.9,1.19c0,1.86,5.18,0.65,5.18,3.86c0,1.4-1.14,2.6-3.53,2.6
						C370.43,344.52,369.07,344.1,368.35,343.47z"/>
					<path class="st5" d="M380.79,344.03c-0.37,0.3-0.94,0.45-1.5,0.45c-1.46,0-2.3-0.77-2.3-2.25v-3.21h-1.1v-1.25h1.1v-1.52h1.56
						v1.52h1.79v1.25h-1.79v3.17c0,0.65,0.33,1,0.92,1c0.32,0,0.64-0.09,0.87-0.27L380.79,344.03z"/>
					<path class="st5" d="M387.66,340.49v3.91h-1.47v-0.81c-0.37,0.57-1.1,0.9-2.1,0.9c-1.52,0-2.48-0.84-2.48-2
						c0-1.11,0.75-1.98,2.77-1.98h1.72v-0.1c0-0.91-0.55-1.45-1.66-1.45c-0.75,0-1.52,0.25-2.02,0.66l-0.61-1.14
						c0.71-0.55,1.75-0.82,2.82-0.82C386.54,337.66,387.66,338.57,387.66,340.49z M386.1,342.31v-0.77h-1.61
						c-1.06,0-1.35,0.4-1.35,0.89c0,0.56,0.47,0.92,1.27,0.92C385.17,343.35,385.83,343,386.1,342.31z"/>
					<path class="st5" d="M393.51,337.66v1.49c-0.14-0.02-0.25-0.04-0.36-0.04c-1.19,0-1.93,0.7-1.93,2.06v3.23h-1.56v-6.66h1.49
						v0.97C391.58,338.01,392.4,337.66,393.51,337.66z"/>
					<path class="st5" d="M399.08,344.03c-0.37,0.3-0.94,0.45-1.5,0.45c-1.46,0-2.3-0.77-2.3-2.25v-3.21h-1.1v-1.25h1.1v-1.52h1.56
						v1.52h1.78v1.25h-1.78v3.17c0,0.65,0.32,1,0.92,1c0.33,0,0.64-0.09,0.87-0.27L399.08,344.03z"/>
				</g>
			</g>
			<g>
				<g>
					<g>
						<path class="st5" d="M268.45,211.48c0.98,5.5-5.11,12.78-10.29,11.78C256.97,216.88,264.32,210.79,268.45,211.48z"/>
					</g>
				</g>
				<g>
					<g>
						<path class="st5" d="M295.65,292.46c-0.02-0.08,1.33,0.14,3.59-0.76c1.11-0.45,2.42-1.26,3.57-2.6
							c1.15-1.32,2.11-3.23,2.27-5.51c-0.01-9.23-0.03-22.57-0.05-39.04c-0.01-8.24-0.02-17.27-0.03-26.96c0-2.42,0-4.89-0.01-7.39
							c-0.01-1.25,0.02-2.52-0.02-3.78c-0.05-1.24-0.35-2.48-0.9-3.61c-1.08-2.28-3.14-4.12-5.62-4.89
							c-1.25-0.41-2.54-0.45-3.89-0.43c-1.35,0-2.7,0-4.06,0c-21.8,0.01-45.76,0.01-70.91,0.02c-1.53,0.01-3.05,0.39-4.4,1.1
							c-1.34,0.72-2.49,1.77-3.34,3.02c-0.83,1.26-1.36,2.71-1.53,4.2c-0.11,1.49-0.03,3.06-0.05,4.58c0,6.13,0,12.16,0,18.09
							c-0.01,11.86-0.01,23.3-0.02,34.2c0,5.45-0.01,10.76-0.01,15.93c0,1.29,0,2.57,0,3.84c-0.01,1.26,0.15,2.49,0.58,3.64
							c0.84,2.3,2.6,4.19,4.74,5.2c1.07,0.51,2.22,0.81,3.38,0.89c1.16,0.07,2.36,0.02,3.52,0.04c2.34,0,4.63,0.01,6.88,0.01
							c4.5,0.01,8.82,0.01,12.94,0.02c16.48,0.04,29.81,0.06,39.05,0.08c4.6,0.02,8.18,0.04,10.62,0.05
							c1.2,0.01,2.13,0.02,2.76,0.03C295.33,292.44,295.65,292.46,295.65,292.46s-0.32,0.02-0.94,0.03
							c-0.64,0.01-1.56,0.01-2.76,0.03c-2.44,0.01-6.02,0.03-10.62,0.05c-9.23,0.02-22.57,0.05-39.05,0.08
							c-4.12,0.01-8.44,0.01-12.94,0.02c-2.25,0-4.54,0.01-6.88,0.01c-1.18-0.01-2.34,0.04-3.55-0.03
							c-1.21-0.08-2.42-0.39-3.54-0.92c-2.24-1.06-4.09-3.03-4.97-5.44c-0.45-1.2-0.63-2.51-0.62-3.79c0-1.27,0-2.55,0-3.84
							c0-5.16-0.01-10.48-0.01-15.93c0-10.9-0.01-22.34-0.02-34.2c0-5.93,0-11.97,0-18.09l0-2.3c0-0.77-0.01-1.54,0.06-2.34
							c0.17-1.58,0.73-3.11,1.61-4.44c0.9-1.32,2.11-2.42,3.53-3.19c1.42-0.75,3.03-1.15,4.64-1.16
							c25.15,0.01,49.12,0.01,70.91,0.02c1.36,0,2.72,0,4.06,0c1.32-0.03,2.75,0.02,4.04,0.45c2.6,0.82,4.77,2.75,5.89,5.14
							c0.57,1.19,0.89,2.49,0.94,3.79c0.04,1.29,0.01,2.54,0.02,3.79c0,2.5,0,4.97-0.01,7.39c-0.01,9.69-0.02,18.72-0.03,26.96
							c-0.04,16.49-0.02,29.82-0.12,39.05c-0.18,2.33-1.17,4.27-2.35,5.6c-1.19,1.35-2.52,2.15-3.65,2.59
							c-1.13,0.47-2.07,0.56-2.69,0.64C295.97,292.46,295.65,292.46,295.65,292.46z"/>
					</g>
				</g>
				<path class="st5" d="M263.29,253.15c0-5.29,3.61-9.73,8.5-11.01c-1.4-1.99-2.76-3.72-2.76-4.69c0-6.13-5.12-11.69-11.43-11.69
					c-6.31,0-11.43,5.56-11.43,11.69c0,1.67-4.05,5.62-5.36,9.22h0c-1.21,2.52-1.89,5.3-1.89,8.15c0,10.02,8.36,17.17,18.68,17.17
					c6.55,0,12.3-2.89,15.64-7.55C267.63,263.73,263.29,258.95,263.29,253.15z"/>
			</g>
			<g>
				<g>
					<g>
						<path class="st0" d="M420.09,292.46c-0.02-0.08,1.33,0.14,3.59-0.76c1.11-0.45,2.42-1.26,3.57-2.6
							c1.15-1.32,2.11-3.23,2.27-5.51c-0.01-9.23-0.03-22.57-0.05-39.04c-0.01-8.24-0.02-17.27-0.03-26.96c0-2.42,0-4.89-0.01-7.39
							c-0.01-1.25,0.02-2.52-0.02-3.78c-0.05-1.24-0.35-2.48-0.9-3.61c-1.08-2.28-3.14-4.12-5.62-4.89
							c-1.25-0.41-2.54-0.45-3.89-0.43c-1.35,0-2.7,0-4.06,0c-21.8,0.01-45.76,0.01-70.91,0.02c-1.53,0.01-3.05,0.39-4.4,1.1
							c-1.34,0.72-2.49,1.77-3.34,3.02c-0.83,1.26-1.36,2.71-1.53,4.2c-0.11,1.49-0.03,3.06-0.05,4.58c0,6.13,0,12.16,0,18.09
							c-0.01,11.86-0.01,23.3-0.02,34.2c0,5.45-0.01,10.76-0.01,15.93c0,1.29,0,2.57,0,3.84c-0.01,1.26,0.15,2.49,0.58,3.64
							c0.84,2.3,2.6,4.19,4.74,5.2c1.07,0.51,2.22,0.81,3.38,0.89c1.16,0.07,2.36,0.02,3.52,0.04c2.34,0,4.63,0.01,6.88,0.01
							c4.5,0.01,8.82,0.01,12.94,0.02c16.48,0.04,29.81,0.06,39.05,0.08c4.6,0.02,8.18,0.04,10.62,0.05
							c1.2,0.01,2.13,0.02,2.76,0.03C419.77,292.44,420.09,292.46,420.09,292.46s-0.32,0.02-0.94,0.03
							c-0.64,0.01-1.56,0.01-2.76,0.03c-2.44,0.01-6.02,0.03-10.62,0.05c-9.23,0.02-22.57,0.05-39.05,0.08
							c-4.12,0.01-8.44,0.01-12.94,0.02c-2.25,0-4.54,0.01-6.88,0.01c-1.18-0.01-2.34,0.04-3.55-0.03
							c-1.21-0.08-2.42-0.39-3.54-0.92c-2.24-1.06-4.09-3.03-4.97-5.44c-0.45-1.2-0.63-2.51-0.62-3.79c0-1.27,0-2.55,0-3.84
							c0-5.16-0.01-10.48-0.01-15.93c0-10.9-0.01-22.34-0.02-34.2c0-5.93,0-11.97,0-18.09l0-2.3c0-0.77-0.01-1.54,0.06-2.34
							c0.18-1.58,0.73-3.11,1.61-4.44c0.9-1.32,2.11-2.42,3.53-3.19c1.42-0.75,3.03-1.15,4.64-1.16
							c25.15,0.01,49.12,0.01,70.91,0.02c1.36,0,2.72,0,4.06,0c1.32-0.03,2.75,0.02,4.04,0.45c2.6,0.82,4.77,2.75,5.89,5.14
							c0.57,1.19,0.89,2.49,0.94,3.79c0.04,1.29,0.01,2.54,0.02,3.79c0,2.5,0,4.97-0.01,7.39c-0.01,9.69-0.02,18.72-0.03,26.96
							c-0.04,16.49-0.02,29.82-0.12,39.05c-0.18,2.33-1.17,4.27-2.35,5.6c-1.19,1.35-2.52,2.15-3.65,2.59
							c-1.13,0.47-2.07,0.56-2.69,0.64C420.41,292.46,420.09,292.46,420.09,292.46z"/>
					</g>
				</g>
				<g>
					<path class="st5" d="M382.05,243.29c7.59,0,14.34-3.54,18.72-9.06c0-6.18-3.9-10.26-8.66-12.56c0-0.01,0-0.01,0-0.02
						c0,0,0.01,0,0.01,0c0-0.9,0.01-1.8,0-2.69c-0.01-0.84-0.45-1.35-1.2-1.4c-0.75-0.05-1.35,0.47-1.37,1.31
						c-0.01,0.59,0,1.17-0.01,1.76c-2.55-0.87-5.18-1.28-7.48-1.28c-2.36,0-5.07,0.34-7.68,1.15c0-0.54,0-1.09-0.01-1.63
						c-0.03-0.89-0.49-1.35-1.3-1.37c-0.7-0.02-1.15,0.33-1.19,1.18c-0.04,0.93-0.06,1.86-0.07,2.79c-4.67,2.14-8.47,6.1-8.47,12.76
						C367.71,239.75,374.47,243.29,382.05,243.29z M388.22,226.78c1.43,0,2.59,1.16,2.59,2.59s-1.16,2.59-2.59,2.59
						s-2.59-1.16-2.59-2.59S386.79,226.78,388.22,226.78z M385.63,234.02c0.28,0,0.5,0.22,0.5,0.5s-0.22,0.5-0.5,0.5h-7.16
						c-0.28,0-0.5-0.22-0.5-0.5s0.22-0.5,0.5-0.5H385.63z M375.88,226.78c1.43,0,2.59,1.16,2.59,2.59s-1.16,2.59-2.59,2.59
						s-2.59-1.16-2.59-2.59S374.45,226.78,375.88,226.78z"/>
					<path class="st5" d="M382.05,246.15c-7.46,0-14.11-3.42-18.49-8.78c0,0.19-0.01,0.38-0.01,0.58c0,17.86,8.28,32.35,18.5,32.35
						s18.5-14.48,18.5-32.35c0-0.19-0.01-0.38-0.01-0.58C396.17,242.73,389.51,246.15,382.05,246.15z"/>
				</g>
			</g>
			<g>
				<g>
					<g>
						<path class="st0" d="M544.53,292.46c-0.02-0.08,1.33,0.14,3.59-0.76c1.11-0.45,2.42-1.26,3.57-2.6
							c1.15-1.32,2.11-3.23,2.27-5.51c-0.01-9.23-0.03-22.57-0.05-39.04c-0.01-8.24-0.02-17.27-0.03-26.96c0-2.42,0-4.89-0.01-7.39
							c-0.01-1.25,0.02-2.52-0.02-3.78c-0.05-1.24-0.35-2.48-0.9-3.61c-1.08-2.28-3.14-4.12-5.62-4.89
							c-1.25-0.41-2.54-0.45-3.89-0.43c-1.35,0-2.7,0-4.06,0c-21.8,0.01-45.76,0.01-70.91,0.02c-1.53,0.01-3.05,0.39-4.4,1.1
							c-1.34,0.72-2.49,1.77-3.34,3.02c-0.83,1.26-1.36,2.71-1.53,4.2c-0.11,1.49-0.03,3.06-0.05,4.58c0,6.13,0,12.16,0,18.09
							c-0.01,11.86-0.01,23.3-0.02,34.2c0,5.45-0.01,10.76-0.01,15.93c0,1.29,0,2.57,0,3.84c-0.01,1.26,0.15,2.49,0.58,3.64
							c0.84,2.3,2.6,4.19,4.74,5.2c1.07,0.51,2.22,0.81,3.38,0.89c1.16,0.07,2.36,0.02,3.52,0.04c2.34,0,4.63,0.01,6.88,0.01
							c4.5,0.01,8.82,0.01,12.94,0.02c16.48,0.04,29.81,0.06,39.05,0.08c4.6,0.02,8.18,0.04,10.62,0.05
							c1.2,0.01,2.13,0.02,2.76,0.03C544.22,292.44,544.53,292.46,544.53,292.46s-0.32,0.02-0.94,0.03
							c-0.64,0.01-1.56,0.01-2.76,0.03c-2.44,0.01-6.02,0.03-10.62,0.05c-9.23,0.02-22.57,0.05-39.05,0.08
							c-4.12,0.01-8.44,0.01-12.94,0.02c-2.25,0-4.54,0.01-6.88,0.01c-1.18-0.01-2.34,0.04-3.55-0.03
							c-1.21-0.08-2.42-0.39-3.54-0.92c-2.24-1.06-4.09-3.03-4.97-5.44c-0.45-1.2-0.63-2.51-0.62-3.79c0-1.27,0-2.55,0-3.84
							c0-5.16-0.01-10.48-0.01-15.93c0-10.9-0.01-22.34-0.02-34.2c0-5.93,0-11.97,0-18.09l0-2.3c0-0.77-0.01-1.54,0.06-2.34
							c0.17-1.58,0.73-3.11,1.61-4.44c0.9-1.32,2.11-2.42,3.53-3.19c1.42-0.75,3.03-1.15,4.64-1.16
							c25.15,0.01,49.12,0.01,70.91,0.02c1.36,0,2.72,0,4.06,0c1.32-0.03,2.75,0.02,4.04,0.45c2.6,0.82,4.77,2.75,5.89,5.14
							c0.57,1.19,0.89,2.49,0.94,3.79c0.04,1.29,0.01,2.54,0.02,3.79c0,2.5,0,4.97-0.01,7.39c-0.01,9.69-0.02,18.72-0.03,26.96
							c-0.04,16.49-0.02,29.82-0.12,39.05c-0.18,2.33-1.17,4.27-2.35,5.6c-1.19,1.35-2.52,2.15-3.65,2.59
							c-1.13,0.47-2.07,0.56-2.69,0.64C544.85,292.46,544.53,292.46,544.53,292.46z"/>
					</g>
				</g>
				<rect x="508.11" y="226.78" class="st5" width="20.34" height="36.33"/>
				<rect x="484.77" y="226.78" class="st5" width="20.34" height="36.33"/>
			</g>
			<g>
				<polygon class="st9" points="442.29,356.98 432.68,351.4 423.08,345.83 423.05,356.93 423.02,368.04 429.59,364.27 
					435.24,374.12 441.38,370.6 435.72,360.75 				"/>
			</g>
			<g>
				<g>
					<circle class="st7" cx="162.29" cy="122.04" r="5.19"/>
				</g>
				<g>
					<path class="st7" d="M183.77,122.04c0,2.86-2.32,5.19-5.19,5.19c-2.86,0-5.19-2.32-5.19-5.19s2.32-5.19,5.19-5.19
						C181.45,116.86,183.77,119.18,183.77,122.04z"/>
				</g>
				<g>
					<circle class="st7" cx="194.87" cy="122.04" r="5.19"/>
				</g>
			</g>
			<g>
				<g>
					<path class="st9" d="M617.51,385.02c0-1.63-0.08-107.55-0.2-278.19l0.2,0.2c-127.41,0.02-293.14,0.04-473.73,0.06h-0.04
						l0.26-0.26c-0.01,98.49-0.01,192.56-0.02,278.19l-0.24-0.24C421.59,384.92,615.32,385.02,617.51,385.02
						c-2.19,0-195.93,0.1-473.77,0.24l-0.24,0l0-0.24c-0.01-85.63-0.01-179.69-0.02-278.19l0-0.26h0.26h0.04
						c180.59,0.02,346.33,0.04,473.73,0.06l0.2,0l0,0.2C617.59,277.47,617.51,383.39,617.51,385.02z"/>
				</g>
			</g>
		</g>
	</g>
</g>
<g id="Plant">
	<g>
		<g>
			<g>
				<g>
					<g>
						<rect x="578.55" y="406.12" class="st9" width="73.14" height="10.05"/>
					</g>
				</g>
			</g>
			<g>
				<g>
					<g>
						<path class="st9" d="M651.82,416.29h-73.39v-10.3h73.39V416.29z M578.68,416.04h72.89v-9.8h-72.89V416.04z"/>
					</g>
				</g>
			</g>
		</g>
		<g>
			<g>
				<g>
					<g>
						<polygon class="st9" points="585.34,412.82 595.86,464.76 634.82,464.76 645,416.17 						"/>
					</g>
				</g>
			</g>
		</g>
		<g>
			<g>
				<g>
					<g>
						<polygon class="st10" points="585.34,459.85 590.95,467.57 638.3,467.57 645,459.85 						"/>
					</g>
				</g>
			</g>
		</g>
		<g>
			<g>
				<g>
					<g>
						<g>
							<path class="st9" d="M612.38,414.34c-0.14,0-0.33-24.06-0.41-53.74c-0.08-29.69-0.03-53.74,0.11-53.74
								c0.14,0,0.33,24.06,0.41,53.74C612.57,390.28,612.52,414.34,612.38,414.34z"/>
						</g>
					</g>
				</g>
			</g>
		</g>
		<g>
			<g>
				<g>
					<g>
						<g>
							<path class="st9" d="M628.67,354.12c0.02,0.01-0.05,0.2-0.2,0.56c-0.17,0.41-0.39,0.92-0.65,1.56
								c-0.15,0.34-0.3,0.72-0.48,1.12c-0.15,0.42-0.31,0.88-0.49,1.37c-0.18,0.49-0.37,1.01-0.56,1.57
								c-0.2,0.56-0.35,1.16-0.54,1.79c-0.8,2.49-1.43,5.55-2.05,8.96c-0.53,3.42-0.93,7.21-1.13,11.2
								c-0.36,7.99,0.1,15.24,0.58,20.46c0.24,2.61,0.47,4.72,0.65,6.18c0.08,0.68,0.14,1.24,0.18,1.68
								c0.04,0.39,0.05,0.59,0.03,0.59c-0.02,0-0.06-0.2-0.13-0.58c-0.07-0.44-0.17-0.99-0.28-1.67c-0.24-1.45-0.53-3.56-0.81-6.17
								c-0.58-5.22-1.09-12.49-0.73-20.52c0.2-4.01,0.62-7.82,1.18-11.25c0.64-3.42,1.32-6.49,2.17-8.98
								c0.2-0.63,0.37-1.23,0.58-1.79c0.21-0.55,0.41-1.07,0.6-1.56c0.19-0.48,0.37-0.94,0.53-1.36c0.18-0.41,0.36-0.78,0.52-1.11
								c0.3-0.62,0.55-1.12,0.74-1.52C628.56,354.29,628.65,354.12,628.67,354.12z"/>
						</g>
					</g>
				</g>
			</g>
		</g>
		<g>
			<g>
				<g>
					<g>
						<g>
							<path class="st9" d="M626.8,334.66c0.02,0.01-0.06,0.28-0.23,0.79c-0.19,0.56-0.44,1.3-0.76,2.24
								c-0.17,0.49-0.36,1.03-0.56,1.61c-0.18,0.6-0.38,1.25-0.59,1.94c-0.43,1.39-0.92,2.97-1.36,4.75
								c-0.23,0.89-0.48,1.82-0.73,2.78c-0.22,0.98-0.45,1.99-0.69,3.04c-0.51,2.09-0.88,4.37-1.35,6.75
								c-0.81,4.78-1.52,10.06-2.01,15.64c-0.46,5.58-0.66,10.91-0.73,15.75c-0.01,4.85,0.05,9.22,0.25,12.88
								c0.06,1.83,0.18,3.49,0.28,4.94c0.08,1.46,0.18,2.71,0.27,3.73c0.08,0.99,0.13,1.77,0.18,2.36c0.04,0.54,0.05,0.82,0.03,0.83
								c-0.02,0-0.06-0.28-0.13-0.81c-0.07-0.58-0.16-1.37-0.28-2.35c-0.12-1.02-0.25-2.27-0.36-3.73
								c-0.12-1.45-0.27-3.11-0.35-4.95c-0.25-3.67-0.35-8.04-0.36-12.9c0.04-4.86,0.23-10.2,0.7-15.8
								c0.49-5.59,1.22-10.89,2.05-15.67c0.49-2.38,0.87-4.66,1.4-6.76c0.25-1.05,0.49-2.07,0.72-3.04
								c0.27-0.97,0.52-1.89,0.77-2.78c0.46-1.78,0.99-3.36,1.44-4.75c0.23-0.69,0.44-1.34,0.63-1.93c0.22-0.58,0.42-1.12,0.6-1.6
								c0.36-0.92,0.64-1.66,0.85-2.21C626.67,334.92,626.78,334.66,626.8,334.66z"/>
						</g>
					</g>
				</g>
			</g>
		</g>
		<g>
			<g>
				<g>
					<g>
						<g>
							<path class="st9" d="M607.75,418.6c-0.01,0-0.02-0.09-0.04-0.28c-0.02-0.22-0.04-0.49-0.07-0.83
								c-0.05-0.77-0.12-1.83-0.22-3.19c-0.18-2.81-0.43-6.8-0.73-11.72c-0.64-9.89-1.55-23.56-3.22-38.6
								c-0.85-7.52-1.84-14.65-2.86-21.13c-0.55-3.23-1.04-6.3-1.6-9.16c-0.51-2.87-1.07-5.52-1.58-7.95
								c-0.48-2.43-1.02-4.61-1.45-6.53c-0.42-1.92-0.83-3.57-1.18-4.91c-0.32-1.32-0.58-2.35-0.76-3.1
								c-0.08-0.33-0.14-0.6-0.18-0.81c-0.04-0.18-0.05-0.28-0.05-0.28c0.01,0,0.04,0.09,0.1,0.27c0.06,0.21,0.14,0.47,0.23,0.8
								c0.21,0.74,0.49,1.77,0.85,3.08c0.37,1.34,0.81,2.98,1.26,4.89c0.46,1.92,1.02,4.09,1.52,6.52c0.53,2.42,1.11,5.08,1.64,7.95
								c0.58,2.86,1.09,5.93,1.65,9.17c1.05,6.48,2.06,13.62,2.91,21.15c1.67,15.05,2.53,28.73,3.07,38.63
								c0.27,4.95,0.46,8.96,0.57,11.73c0.05,1.36,0.09,2.42,0.12,3.19c0.01,0.34,0.01,0.61,0.02,0.83
								C607.76,418.5,607.76,418.6,607.75,418.6z"/>
						</g>
					</g>
				</g>
			</g>
		</g>
		<g>
			<g>
				<g>
					<g>
						<path class="st5" d="M611.78,318.43c-0.32-3.41-3.76-5.98-7.19-6.02c-3.42-0.04-6.61,2.02-8.71,4.73
							c-2.09,2.71-3.25,6.02-4.19,9.31c-2.31,8.03-3.57,16.47-2.58,24.77c0.99,8.3,4.35,16.47,10.31,22.33
							c0.97,0.95,2.22,1.91,3.55,1.62c0.73-0.15,1.32-0.66,1.87-1.16c11.7-10.57,18.45-26.39,17.99-42.15
							c-0.09-3.15-0.51-6.44-2.25-9.07C618.83,320.16,614.76,317.37,611.78,318.43"/>
					</g>
				</g>
			</g>
		</g>
		<g>
			<g>
				<g>
					<g>
						<g>
							<path class="st5" d="M586.22,291.12c-1.61,2.91-3.21,5.82-4.82,8.73c-0.11,0.2-0.26,0.43-0.49,0.45
								c-0.25,0.02-0.44-0.22-0.58-0.43c-4.25-6.52-8.5-13.04-12.75-19.56l2.94-1.66L586.22,291.12z"/>
						</g>
					</g>
				</g>
			</g>
			<g class="st11">
				<g>
					<g>
						<g>
							<g>
								<path d="M586.22,291.12c-1.61,2.91-3.21,5.82-4.82,8.73c-0.11,0.2-0.26,0.43-0.49,0.45c-0.25,0.02-0.44-0.22-0.58-0.43
									c-4.25-6.52-8.5-13.04-12.75-19.56l2.94-1.66L586.22,291.12z"/>
							</g>
						</g>
					</g>
				</g>
			</g>
			<g>
				<g>
					<g>
						<g>
							<path class="st5" d="M612.08,306.86c-14.5-8.55-28.99-17.11-43.49-25.66c-0.44-0.26-0.92-0.57-1.06-1.07
								c-0.17-0.64,0.31-1.26,0.77-1.74c5.98-6.17,14.67-9.75,23.24-9.13c8.57,0.62,16.81,5.57,21.01,13.07
								C616.75,289.82,616.89,299.74,612.08,306.86"/>
						</g>
					</g>
				</g>
			</g>
			<g>
				<g>
					<g>
						<g>
							<g>
								<path class="st9" d="M574.86,273.01c0-0.02,0.19-0.04,0.57-0.07c0.37-0.02,0.93-0.09,1.64-0.08
									c1.43-0.04,3.51,0.06,6.03,0.48c2.53,0.42,5.49,1.23,8.59,2.61c3.1,1.38,6.3,3.37,9.22,5.98c2.9,2.65,5.2,5.64,6.88,8.58
									c1.68,2.95,2.79,5.82,3.45,8.29c0.67,2.47,0.97,4.53,1.08,5.96c0.08,0.71,0.05,0.89,0.07,1.27
									c0.01,0.38-0.32,0.95-0.34,0.95c-0.05,0,0.24-0.79,0.07-2.2c-0.17-1.41-0.52-3.44-1.23-5.88
									c-1.37-4.84-4.57-11.37-10.33-16.59c-5.76-5.21-12.58-7.73-17.53-8.62c-2.49-0.46-4.55-0.61-5.97-0.64
									C575.65,273.03,574.86,273.05,574.86,273.01z"/>
							</g>
						</g>
					</g>
				</g>
			</g>
			<g>
				<g>
					<g>
						<g>
							<g>
								<path class="st9" d="M606.19,289.15c0.02,0.07-0.81,0.45-2.2,1c-1.39,0.55-3.32,1.24-5.49,1.93
									c-2.17,0.69-4.15,1.23-5.6,1.59c-1.45,0.35-2.35,0.52-2.37,0.45c-0.02-0.07,0.85-0.36,2.27-0.81
									c1.6-0.5,3.47-1.08,5.54-1.73c2.06-0.66,3.92-1.27,5.52-1.78C605.28,289.34,606.16,289.08,606.19,289.15z"/>
							</g>
						</g>
					</g>
				</g>
			</g>
			<g>
				<g>
					<g>
						<g>
							<g>
								<path class="st9" d="M599.34,270.75c0.14-0.01,0.45,2.16,0.51,4.85c0.07,2.7-0.13,4.88-0.27,4.87
									c-0.15-0.01-0.18-2.18-0.25-4.86C599.27,272.94,599.2,270.76,599.34,270.75z"/>
							</g>
						</g>
					</g>
				</g>
			</g>
			<g>
				<g>
					<g>
						<g>
							<g>
								<path class="st9" d="M568.21,280.71c-0.02-0.07,1.18-0.5,3.16-1.11c1.98-0.61,4.73-1.38,7.79-2.12
									c3.07-0.74,5.87-1.31,7.91-1.66c2.04-0.36,3.31-0.52,3.32-0.45c0.01,0.07-1.23,0.36-3.25,0.81
									c-2.01,0.45-4.8,1.07-7.86,1.81c-3.06,0.74-5.82,1.45-7.82,1.97C569.47,280.47,568.23,280.78,568.21,280.71z"/>
							</g>
						</g>
					</g>
				</g>
			</g>
		</g>
		<g>
			<g>
				<g>
					<g>
						<g>
							<path class="st5" d="M593.73,311.03c-3.74-2.84-7.69-3.39-12.38-3.21c-4.69,0.19-9.26,1.61-13.55,3.5
								c-7.33,3.21-14.23,7.95-18.61,14.64c-4.38,6.7-5.91,15.57-2.63,22.87c0.33,0.73,0.75,1.49,1.49,1.8
								c0.77,0.33,1.66,0.07,2.45-0.19c8.34-2.72,16.74-5.47,24.41-9.73c7.67-4.26,14.65-10.18,18.76-17.93
								c0.99-1.86,1.81-3.85,1.98-5.95C595.81,314.74,595.23,312.51,593.73,311.03"/>
						</g>
					</g>
				</g>
			</g>
			<g>
				<g>
					<g>
						<g>
							<g>
								<path class="st9" d="M593.81,310.15c0,0.02-0.2,0.1-0.6,0.24c-0.45,0.16-1.03,0.35-1.75,0.6c-0.39,0.13-0.81,0.27-1.27,0.42
									c-0.46,0.17-0.95,0.37-1.48,0.58c-1.06,0.43-2.28,0.85-3.57,1.48c-0.65,0.3-1.34,0.61-2.04,0.93
									c-0.71,0.33-1.42,0.73-2.17,1.11c-1.51,0.74-3.04,1.69-4.67,2.65c-3.2,2.02-6.58,4.45-9.87,7.32
									c-3.27,2.9-6.11,5.95-8.52,8.86c-1.16,1.49-2.3,2.89-3.23,4.29c-0.47,0.69-0.96,1.35-1.38,2.01
									c-0.41,0.66-0.81,1.3-1.18,1.91c-0.79,1.2-1.36,2.36-1.92,3.35c-0.27,0.5-0.54,0.96-0.76,1.39c-0.21,0.43-0.4,0.83-0.58,1.2
									c-0.34,0.68-0.61,1.23-0.82,1.66c-0.19,0.38-0.3,0.57-0.32,0.56c-0.02-0.01,0.06-0.22,0.22-0.61c0.19-0.44,0.43-1,0.73-1.7
									c0.17-0.37,0.35-0.78,0.54-1.22c0.21-0.44,0.46-0.91,0.72-1.42c0.54-1.01,1.09-2.19,1.86-3.41
									c0.37-0.62,0.76-1.27,1.16-1.94c0.41-0.67,0.89-1.33,1.36-2.04c0.92-1.42,2.05-2.84,3.21-4.35
									c2.41-2.95,5.26-6.03,8.55-8.95c3.32-2.89,6.73-5.33,9.97-7.34c1.65-0.96,3.19-1.9,4.72-2.63c0.76-0.38,1.48-0.77,2.19-1.09
									c0.72-0.31,1.41-0.62,2.07-0.91c1.31-0.61,2.55-1.01,3.62-1.41c0.54-0.19,1.03-0.39,1.5-0.54c0.46-0.14,0.89-0.26,1.28-0.38
									c0.73-0.21,1.32-0.38,1.78-0.51C593.59,310.18,593.8,310.13,593.81,310.15z"/>
							</g>
						</g>
					</g>
				</g>
			</g>
			<g>
				<g>
					<g>
						<g>
							<g>
								<path class="st9" d="M565.7,325.97c0.04,0.14-4.28,1.45-9.65,2.93c-5.37,1.48-9.76,2.57-9.8,2.43
									c-0.04-0.14,4.28-1.45,9.65-2.93C561.27,326.92,565.66,325.83,565.7,325.97z"/>
							</g>
						</g>
					</g>
				</g>
			</g>
			<g>
				<g>
					<g>
						<g>
							<g>
								<path class="st9" d="M564.21,345.44c-0.07,0-0.15-1.05-0.2-2.75c-0.05-1.7-0.06-4.04,0.02-6.64
									c0.08-2.59,0.22-4.93,0.36-6.63c0.15-1.69,0.29-2.74,0.36-2.73c0.07,0,0.06,1.06,0.01,2.75c-0.06,1.86-0.13,4.12-0.21,6.62
									c-0.06,2.5-0.12,4.76-0.17,6.62C564.34,344.39,564.29,345.44,564.21,345.44z"/>
							</g>
						</g>
					</g>
				</g>
			</g>
			<g>
				<g>
					<g>
						<g>
							<g>
								<path class="st9" d="M581.59,336.37c-0.16,0.01-0.67-4.62-1.14-10.34c-0.47-5.72-0.72-10.37-0.56-10.38
									c0.16-0.01,0.67,4.62,1.14,10.34C581.5,331.72,581.75,336.36,581.59,336.37z"/>
							</g>
						</g>
					</g>
				</g>
			</g>
			<g>
				<g>
					<g>
						<g>
							<g>
								<path class="st9" d="M560.9,315.02c0-0.05,1.1-0.07,2.86-0.06c1.76,0.01,4.19,0.04,6.88,0.11c2.68,0.06,5.11,0.14,6.87,0.21
									c1.76,0.07,2.84,0.14,2.84,0.19c0,0.05-1.09,0.07-2.85,0.06c-1.76-0.01-4.19-0.04-6.88-0.11c-2.69-0.06-5.12-0.14-6.87-0.21
									C561.98,315.14,560.9,315.07,560.9,315.02z"/>
							</g>
						</g>
					</g>
				</g>
			</g>
		</g>
		<g>
			<g>
				<g>
					<g>
						<g>
							<path class="st9" d="M601.28,374.68c-0.02,0-0.04-0.2-0.06-0.58c-0.02-0.44-0.05-0.99-0.08-1.67
								c-0.07-1.45-0.08-3.56-0.02-6.16c0.05-2.6,0.22-5.7,0.54-9.12c0.34-3.42,0.83-7.18,1.53-11.09c0.72-3.91,1.58-7.6,2.47-10.93
								c0.91-3.32,1.84-6.29,2.71-8.74c0.86-2.46,1.62-4.43,2.19-5.77c0.27-0.63,0.49-1.14,0.66-1.54c0.16-0.35,0.25-0.53,0.26-0.53
								c0.02,0.01-0.04,0.2-0.17,0.56c-0.15,0.41-0.34,0.93-0.57,1.58c-0.51,1.36-1.22,3.35-2.03,5.81
								c-0.83,2.47-1.71,5.43-2.6,8.75c-0.86,3.32-1.71,7-2.43,10.9c-0.7,3.9-1.2,7.64-1.57,11.05c-0.34,3.41-0.55,6.49-0.65,9.09
								c-0.1,2.59-0.14,4.69-0.14,6.14c-0.01,0.68-0.02,1.23-0.02,1.67C601.32,374.48,601.3,374.68,601.28,374.68z"/>
						</g>
					</g>
				</g>
			</g>
		</g>
		<g>
			<g>
				<g>
					<g>
						<g>
							<path class="st9" d="M603.58,346.21c0.05,0.05-0.61,0.78-1.73,1.9c-1.13,1.12-2.72,2.63-4.54,4.23
								c-1.82,1.6-3.53,2.98-4.79,3.95c-1.26,0.97-2.07,1.53-2.11,1.47c-0.05-0.06,0.68-0.72,1.88-1.76
								c1.34-1.16,2.92-2.54,4.68-4.06c1.74-1.54,3.31-2.93,4.64-4.1C602.78,346.79,603.53,346.16,603.58,346.21z"/>
						</g>
					</g>
				</g>
			</g>
		</g>
		<g>
			<g>
				<g>
					<g>
						<g>
							<path class="st9" d="M617.34,357.3c-0.06,0.04-0.75-0.95-1.85-2.56c-1.19-1.73-2.66-3.89-4.3-6.27
								c-1.67-2.36-3.17-4.49-4.39-6.21c-1.13-1.59-1.82-2.58-1.76-2.62c0.06-0.04,0.85,0.87,2.05,2.4
								c1.21,1.53,2.82,3.69,4.52,6.13c1.7,2.44,3.16,4.71,4.18,6.37C616.82,356.2,617.4,357.26,617.34,357.3z"/>
						</g>
					</g>
				</g>
			</g>
		</g>
		<g>
			<g>
				<g>
					<g>
						<g>
							<path class="st9" d="M610.13,322.43c0.08,0.12-4.49,3.2-10.21,6.87c-5.72,3.68-10.42,6.56-10.49,6.44
								c-0.08-0.12,4.49-3.2,10.21-6.88C605.36,325.19,610.05,322.31,610.13,322.43z"/>
						</g>
					</g>
				</g>
			</g>
		</g>
		<g>
			<g>
				<g>
					<g>
						<g>
							<path class="st9" d="M623.03,336.34c-0.1,0.1-3.2-2.76-6.92-6.39c-3.72-3.63-6.65-6.66-6.55-6.76c0.1-0.1,3.2,2.76,6.92,6.39
								C620.19,333.21,623.13,336.24,623.03,336.34z"/>
						</g>
					</g>
				</g>
			</g>
		</g>
		<g>
			<g>
				<g>
					<g>
						<g>
							<path class="st5" d="M626.27,336.06l3.93-0.33c2.79-0.23,5.49-1.06,7.93-2.43c1.2-0.68,2.41-1.34,3.69-1.86
								c4.85-1.95,10.27-1.6,15.49-1.86c8.52-0.43,16.96-2.58,24.64-6.3c0.44-0.21,0.84-0.54,1.07-0.97
								c0.81-1.47-0.69-2.78-1.98-3.57c-6.61-4.07-13.34-8.2-20.84-10.22c-7.5-2.02-16.01-1.68-22.41,2.72
								C630.27,316.42,627.54,327.03,626.27,336.06"/>
						</g>
					</g>
				</g>
			</g>
			<g>
				<g>
					<g>
						<g>
							<g>
								<path class="st9" d="M683.11,321.84c-0.01,0.02-0.24-0.09-0.67-0.31c-0.47-0.25-1.09-0.57-1.86-0.97
									c-1.61-0.85-3.94-2.1-6.87-3.51c-2.94-1.39-6.5-2.96-10.64-4.1c-4.12-1.15-8.88-1.75-13.79-1.12
									c-4.89,0.64-9.38,2.54-12.57,5.4c-3.2,2.84-5.16,6.27-6.54,9.19c-1.38,2.94-2.23,5.44-2.85,7.16
									c-0.29,0.82-0.52,1.48-0.7,1.98c-0.16,0.45-0.26,0.69-0.27,0.68c-0.02-0.01,0.04-0.25,0.17-0.71
									c0.15-0.51,0.35-1.18,0.61-2.01c0.56-1.73,1.36-4.26,2.71-7.25c1.35-2.96,3.3-6.47,6.56-9.4c3.24-2.94,7.85-4.9,12.82-5.55
									c4.99-0.64,9.82-0.01,13.98,1.17c4.18,1.17,7.74,2.79,10.67,4.23c2.93,1.46,5.22,2.76,6.81,3.66
									c0.75,0.44,1.35,0.79,1.81,1.06C682.9,321.68,683.11,321.82,683.11,321.84z"/>
							</g>
						</g>
					</g>
				</g>
			</g>
			<g>
				<g>
					<g>
						<g>
							<g>
								<path class="st9" d="M673.68,326.9c-0.08,0.12-5.21-3.2-11.46-7.42c-6.25-4.22-11.25-7.73-11.17-7.85
									c0.08-0.12,5.21,3.2,11.47,7.42C668.76,323.27,673.76,326.78,673.68,326.9z"/>
							</g>
						</g>
					</g>
				</g>
			</g>
			<g>
				<g>
					<g>
						<g>
							<g>
								<path class="st9" d="M668.2,311.36c0.03,0.11-1.64,0.5-3.74,0.67c-2.1,0.18-3.81,0.07-3.81-0.05c0-0.12,1.69-0.21,3.77-0.38
									C666.5,311.43,668.18,311.24,668.2,311.36z"/>
							</g>
						</g>
					</g>
				</g>
			</g>
			<g>
				<g>
					<g>
						<g>
							<g>
								<path class="st9" d="M645.73,308.44c0.12,0.06-0.63,1.24-1.68,2.63c-1.05,1.4-2.01,2.48-2.13,2.42
									c-0.12-0.06,0.63-1.23,1.68-2.63C644.65,309.46,645.61,308.38,645.73,308.44z"/>
							</g>
						</g>
					</g>
				</g>
			</g>
			<g>
				<g>
					<g>
						<g>
							<g>
								<path class="st9" d="M650.33,329.92c-0.04,0.06-0.99-0.44-2.47-1.34c-1.48-0.9-3.49-2.22-5.63-3.77
									c-2.14-1.56-4.03-3.03-5.39-4.1c-1.36-1.08-2.17-1.77-2.13-1.83c0.04-0.06,0.94,0.53,2.35,1.53
									c1.54,1.12,3.41,2.47,5.47,3.97c2.13,1.55,4.1,2.91,5.52,3.89C649.49,329.25,650.37,329.86,650.33,329.92z"/>
							</g>
						</g>
					</g>
				</g>
			</g>
		</g>
		<g>
			<g>
				<g>
					<g>
						<g>
							<path class="st5" d="M632.05,352.74c-3.74-0.99-8.21,2.65-8.98,6.45c-0.77,3.79,0.65,7.68,2.32,11.17
								c3.69,7.74,8.78,14.91,15.48,20.26c6.7,5.34,15.1,8.76,23.67,8.71c-1.58-7.35,0.42-15.03-0.46-22.5
								c-0.77-6.52-3.81-12.75-8.47-17.36c-4.66-4.62-10.92-7.59-17.45-8.3C635.77,350.91,633,350.53,632.05,352.74"/>
						</g>
					</g>
				</g>
			</g>
			<g>
				<g>
					<g>
						<g>
							<g>
								<path class="st9" d="M664.54,399.33c-0.01,0.02-0.19-0.07-0.53-0.25c-0.34-0.18-0.83-0.48-1.4-0.94
									c-1.18-0.89-2.52-2.61-3.7-4.94c-0.6-1.16-1.26-2.42-1.92-3.81c-0.63-1.4-1.31-2.89-2.01-4.45
									c-0.71-1.56-1.5-3.18-2.47-4.76c-0.97-1.58-2.13-3.13-3.41-4.63c-2.56-3.01-5.31-5.62-7.7-8.1
									c-2.4-2.48-4.41-4.87-5.87-7.04c-1.47-2.17-2.36-4.11-2.87-5.48c-0.24-0.69-0.41-1.23-0.5-1.61
									c-0.09-0.37-0.14-0.57-0.12-0.57c0.05-0.01,0.26,0.76,0.81,2.11c0.56,1.33,1.49,3.23,2.98,5.34
									c1.48,2.13,3.5,4.47,5.91,6.92c2.39,2.46,5.16,5.06,7.75,8.1c1.29,1.52,2.46,3.09,3.44,4.7c0.99,1.61,1.77,3.25,2.48,4.83
									c0.69,1.57,1.35,3.07,1.97,4.47c0.63,1.39,1.28,2.66,1.85,3.82c1.13,2.34,2.39,4.03,3.5,4.96
									C663.83,398.93,664.57,399.28,664.54,399.33z"/>
							</g>
						</g>
					</g>
				</g>
			</g>
			<g>
				<g>
					<g>
						<g>
							<g>
								<path class="st9" d="M645.18,393.22c-0.07-0.01,0.05-0.98,0.34-2.52c0.29-1.54,0.77-3.66,1.42-5.96
									c0.65-2.31,1.34-4.36,1.9-5.83c0.55-1.47,0.96-2.35,1.02-2.33c0.07,0.03-0.21,0.95-0.67,2.45c-0.46,1.49-1.1,3.56-1.75,5.85
									c-0.65,2.3-1.18,4.39-1.56,5.9C645.5,392.29,645.25,393.23,645.18,393.22z"/>
							</g>
						</g>
					</g>
				</g>
			</g>
			<g>
				<g>
					<g>
						<g>
							<g>
								<path class="st9" d="M663.83,375.17c-0.02,0.07-1.02-0.18-2.64-0.61c-1.61-0.42-3.84-1-6.32-1.56
									c-2.48-0.56-4.74-0.99-6.38-1.3c-1.64-0.31-2.65-0.51-2.64-0.58c0.01-0.07,1.04,0,2.7,0.22c1.66,0.22,3.94,0.6,6.43,1.16
									c2.49,0.56,4.72,1.2,6.31,1.71C662.89,374.73,663.85,375.11,663.83,375.17z"/>
							</g>
						</g>
					</g>
				</g>
			</g>
			<g>
				<g>
					<g>
						<g>
							<g>
								<path class="st9" d="M631.29,380.42c-0.07-0.01,0.08-1.13,0.4-2.92c0.33-1.79,0.85-4.24,1.55-6.93
									c0.7-2.68,1.45-5.08,2.03-6.8c0.59-1.72,1.01-2.76,1.07-2.74c0.07,0.02-0.22,1.11-0.72,2.85c-0.49,1.74-1.18,4.15-1.88,6.83
									c-0.7,2.67-1.28,5.11-1.7,6.87C631.63,379.34,631.36,380.43,631.29,380.42z"/>
							</g>
						</g>
					</g>
				</g>
			</g>
			<g>
				<g>
					<g>
						<g>
							<g>
								<path class="st9" d="M655.24,359.45c-0.02,0.14-4.69-0.24-10.44-0.84c-5.75-0.61-10.4-1.22-10.38-1.36
									c0.02-0.14,4.69,0.23,10.44,0.84C650.61,358.69,655.26,359.3,655.24,359.45z"/>
							</g>
						</g>
					</g>
				</g>
			</g>
		</g>
		<g>
			<g>
				<g>
					<g>
						<g>
							<path class="st10" d="M651.82,416.13c0,0.14-16.43,0.26-36.69,0.26c-20.27,0-36.69-0.12-36.69-0.26
								c0-0.14,16.43-0.26,36.69-0.26C635.39,415.86,651.82,415.98,651.82,416.13z"/>
						</g>
					</g>
				</g>
			</g>
		</g>
		<g>
			<g>
				<g>
					<g>
						<g>
							<path class="st10" d="M640.39,437.27c0,0.14-11.07,0.26-24.72,0.26c-13.66,0-24.72-0.12-24.72-0.26
								c0-0.14,11.07-0.26,24.72-0.26C629.32,437.01,640.39,437.12,640.39,437.27z"/>
						</g>
					</g>
				</g>
			</g>
		</g>
		<g>
			<g>
				<g>
					<g>
						<g>
							<path class="st10" d="M639.96,440.29c0,0.14-10.88,0.26-24.29,0.26c-13.42,0-24.29-0.12-24.29-0.26
								c0-0.14,10.87-0.26,24.29-0.26C629.08,440.03,639.96,440.15,639.96,440.29z"/>
						</g>
					</g>
				</g>
			</g>
		</g>
		<g>
			<g>
				<g>
					<g>
						<g>
							<path class="st10" d="M640.82,434.78c0,0.14-11.45,0.26-25.57,0.26c-14.13,0-25.57-0.12-25.57-0.26
								c0-0.14,11.45-0.26,25.57-0.26C629.37,434.52,640.82,434.63,640.82,434.78z"/>
						</g>
					</g>
				</g>
			</g>
		</g>
	</g>
</g>
<g id="Floor">
	<g>
		<g>
			<path class="st9" d="M679.91,467.57c0,0.14-136.52,0.26-304.89,0.26c-168.43,0-304.92-0.12-304.92-0.26s136.49-0.26,304.92-0.26
				C543.39,467.31,679.91,467.43,679.91,467.57z"/>
		</g>
	</g>
</g>
<g id="Character">
	<g>
		<g>
			<g>
				<g>
					<path class="st5" d="M207.14,302.1c0,0,13.32,3.29,15.55,30.72c1.3,16.06,2.86,32.41,2.86,32.41l29.26,6.92l5.15,15.96
						l-38.34,7.54c-10.61,0-22.27-9.16-22.03-19.76L199.17,339L207.14,302.1z"/>
				</g>
			</g>
			<g>
				<g>
					<path class="st5" d="M136.84,302.33l-5.94,41.23c-0.86,5.96-0.43,12.04,1.26,17.82l7.33,25.12c0,0-9.95,12.75-1.74,17.68
						c1.61,0.97,45.61,2.97,45.61,2.97l21.33-1.47l2.85-61.05l-0.41-42.51c0,0-14.8-5.4-20.61-6.04c-3.64-0.4-19.42-0.92-32.34,0.26
						L136.84,302.33z"/>
				</g>
			</g>
			<g>
				<path class="st7" d="M205.04,344.24c-0.5-0.17-1.04-0.08-1.57-0.07c-2.07,0.05-4.09-1.3-4.84-3.23
					c-0.33,1.01-0.68,2.05-1.38,2.85c-0.7,0.8-1.85,1.3-2.85,0.92c-1.06-0.4-1.56-1.59-2.35-2.41c-1.92-2-5.88-1.12-6.77,1.51
					c-0.4,1.19-0.66,2.92-1.91,2.9c-1.44-0.03-1.42-2.34-2.55-3.24c-1.14-0.92-2.83,0.04-3.81,1.13c-0.98,1.09-2.01,2.46-3.48,2.44
					c-1.37-0.02-2.39-1.33-2.79-2.64c-0.4-1.31-0.41-2.72-0.88-4.01c-0.48-1.28-1.68-2.49-3.03-2.28c-1.67,0.26-2.29,2.28-2.74,3.92
					c-0.44,1.63-1.66,3.57-3.3,3.15c-2.35-0.6-1.4-4.76-3.47-6.02c-1.46-0.89-3.37,0.38-4.15,1.9c-0.78,1.52-0.97,3.32-1.91,4.74
					c-0.95,1.42-3.23,2.22-4.31,0.89c-0.37-0.46-0.52-1.07-0.92-1.5c-0.75-0.8-2.09-0.64-3.05-0.12c-0.96,0.52-1.76,1.34-2.76,1.77
					c-1.01,0.43-3.25-0.04-3.75-1.01l-3.03,5.32c-0.5,1.1-1.81,2.49-1.04,2.95c0.76,0.45,1.88-0.02,2.12-0.86
					c1.18,0.64,2.75,0.63,3.74-0.31c0.72-0.69,1.4-1.82,2.36-1.55c0.49,0.13,0.79,0.6,1.13,0.97c1.21,1.31,3.45,1.51,4.88,0.43
					c0.77-0.58,1.27-1.45,1.96-2.13c0.68-0.68,1.71-1.19,2.6-0.81c1.06,0.45,1.29,1.86,1.19,3.01c-0.1,1.15-0.34,2.42,0.29,3.38
					c0.83,1.26,2.75,1.27,4.06,0.54c1.31-0.74,2.22-2,3.3-3.05c1.07-1.05,2.53-1.95,4-1.65c1.73,0.35,3.02,2.26,4.77,2.06
					c1.21-0.14,2.13-1.29,3.35-1.36c1.35-0.07,2.37,1.19,3.66,1.59c2.91,0.91,5.55-2.73,8.59-2.45c2.78,0.26,5.02,3.74,7.64,2.77
					c2.31-0.85,2.33-4.36,4.36-5.76c1.23-0.85,2.86-0.7,4.34-0.52c1.48,0.18,3.11,0.32,4.33-0.53
					C206.28,347.01,206.45,344.74,205.04,344.24z"/>
			</g>
			<g>
				<path class="st7" d="M207.29,341.82c-0.3-0.67-0.08-1.53,0.5-1.98c0.58-0.45,1.46-0.45,2.04,0c0.66,0.51,0.83,1.43,0.87,2.26
					c0.04,0.83,0.01,1.71,0.4,2.44c0.4,0.73,1.43,1.2,2.08,0.69c0.52-0.41,0.53-1.16,0.61-1.82c0.07-0.65,0.4-1.43,1.06-1.47
					c0.66-0.03,1.07,0.72,1.19,1.37c0.12,0.65,0.16,1.4,0.68,1.81c0.73-0.22,0.88-1.15,1.05-1.9c0.17-0.74,0.86-1.6,1.53-1.23
					c0.33,0.18,0.45,0.59,0.62,0.92c0.17,0.34,0.53,0.67,0.88,0.54c0.59-0.23,0.28-1.36,0.87-1.58c0.39-0.15,0.75,0.26,0.96,0.62
					c0.4,0.65,0.8,1.35,0.82,2.11c0.02,0.76-0.5,1.6-1.27,1.64c-0.45,0.02-0.87-0.23-1.31-0.31c-0.94-0.18-1.88,0.42-2.4,1.21
					c-0.52,0.8-0.71,1.76-0.89,2.7c-1.14-1.14-3.29-1-4.27,0.29c-0.84,1.1-1.06,2.93-2.42,3.21c-0.9,0.18-1.77-0.56-2.07-1.42
					c-0.3-0.86-0.18-1.81-0.05-2.71c-0.61,0.51-1.21,1.01-1.82,1.52c-0.14-0.81-0.28-1.63-0.41-2.44"/>
			</g>
			<g class="st12">
				<path d="M134.54,399.14l23.51-7.27l14.93-1.37c0,0,4.28,7.45,8.08,7.1c3.8-0.35,6.38-1.97,6.38-1.97s1.44,7.85,5.25,7.26
					c3.8-0.59,1.85-23.98,1.85-23.98l-39.65-7.99l-23.51,6.11L134.54,399.14z"/>
			</g>
			<g>
				<path class="st5" d="M136.84,302.33c0,0-12.25,4.29-16.84,11.19c-6.07,9.12-23.22,35.37-31.27,55.91
					c-2.52,6.42-0.42,16.31,3.31,22.12l0,0c4.98,7.77,14.47,11.35,23.34,8.82l42.89-12.1l3.97-24.11l-37.36,1.56l10.47-17.17
					L136.84,302.33z"/>
			</g>
			<g>
				<path class="st7" d="M103.42,340.43c0.88-1.17,2.95-1.07,3.73,0.16c0.66,1.05,0.65,2.78,1.87,3.02
					c0.89,0.17,1.59-0.69,2.17-1.37c0.58-0.69,1.65-1.31,2.31-0.69c0.62,0.58,0.29,1.8,1.01,2.26c0.65,0.41,1.45-0.22,1.88-0.85
					s0.96-1.41,1.72-1.33c1.56,0.15,1.23,3.36,2.8,3.39c0.8,0.02,1.28-0.9,2.01-1.21c0.96-0.4,1.99,0.34,2.77,1.03
					c0.51,0.45,1.04,0.92,1.33,1.53c0.3,0.61,0.31,1.42-0.15,1.92c-0.69,0.75-1.93,0.44-2.82-0.06c-0.89-0.5-1.85-1.15-2.83-0.9
					c-1.68,0.42-2.28,3.18-4,2.99c-1.57-0.17-1.98-2.72-3.54-2.89c-1.62-0.17-2.81,2.43-4.32,1.82c-0.7-0.29-0.99-1.16-1.64-1.55
					c-0.62-0.37-1.42-0.21-2.08,0.1c-0.65,0.31-1.24,0.76-1.93,0.97c-0.69,0.21-1.56,0.12-1.97-0.47c-0.41-0.59,0.08-1.64,0.79-1.49
					c-0.57-0.09-1.14-0.19-1.7-0.28c-0.01-0.45-0.03-0.91-0.04-1.36"/>
			</g>
			<g>
				<g>
					<g>
						<g>
							<path class="st9" d="M206.96,326.21c0.04,0,0.08,0.68,0.13,1.92c0.05,1.24,0.08,3.03,0.1,5.25
								c0.03,4.43-0.05,10.56-0.36,17.32c-0.31,6.76-0.8,12.87-1.23,17.28c-0.22,2.21-0.42,3.99-0.58,5.22
								c0.38,17.3-0.27,1.91-0.31,1.9c-0.04,0-0.01-0.69,0.08-1.93c0.1-1.34,0.23-3.1,0.39-5.23c0.33-4.42,0.75-10.52,1.06-17.28
								c0.31-6.75,0.46-12.87,0.53-17.3c0.04-2.14,0.07-3.91,0.09-5.25C206.88,326.89,206.92,326.21,206.96,326.21z"/>
						</g>
					</g>
				</g>
				<g>
					<g>
						<g>
							<path class="st9" d="M209.37,303.42c0.15,0.11-1.54,2.33-2.73,5.52c-1.21,3.17-1.41,5.96-1.6,5.94
								c-0.14,0.01-0.21-2.87,1.04-6.15C207.31,305.44,209.27,303.31,209.37,303.42z"/>
						</g>
					</g>
				</g>
				<g>
					<g>
						<path class="st9" d="M141.38,324.75c-0.09,0.01-0.18-1.11-0.6-2.84c-0.41-1.74-1.22-4.08-2.6-6.42
							c-1.39-2.34-3.07-4.17-4.4-5.36c-1.33-1.19-2.26-1.81-2.21-1.88c0.02-0.03,0.27,0.1,0.7,0.36c0.44,0.25,1.04,0.68,1.75,1.25
							c1.41,1.14,3.18,2.98,4.61,5.37c1.42,2.4,2.19,4.83,2.51,6.61c0.16,0.89,0.25,1.62,0.26,2.13
							C141.42,324.46,141.42,324.74,141.38,324.75z"/>
					</g>
				</g>
				<g>
					<g>
						<path class="st9" d="M124.42,365.91c0.04,0.16-3.25,0.85-6.82,2.83c-3.6,1.94-5.96,4.33-6.07,4.21
							c-0.05-0.04,0.48-0.7,1.49-1.61c1-0.91,2.51-2.06,4.33-3.05c1.83-0.99,3.6-1.64,4.91-1.99
							C123.57,365.93,124.41,365.84,124.42,365.91z"/>
					</g>
				</g>
				<g>
					<g>
						<path class="st9" d="M142.21,334.2c0.03,0.02-0.16,0.48-0.54,1.3c-0.38,0.82-0.94,2-1.66,3.45
							c-1.44,2.89-3.51,6.85-5.93,11.14c-2.42,4.29-4.74,8.11-6.48,10.84c-0.87,1.36-1.58,2.46-2.09,3.2
							c-0.51,0.75-0.8,1.15-0.83,1.13c-0.03-0.02,0.21-0.46,0.66-1.24c0.51-0.86,1.17-1.97,1.95-3.29c1.65-2.77,3.92-6.61,6.34-10.9
							c2.42-4.29,4.53-8.21,6.05-11.06c0.73-1.35,1.33-2.49,1.81-3.37C141.92,334.62,142.18,334.19,142.21,334.2z"/>
					</g>
				</g>
				<g>
					<g>
						<path class="st9" d="M111.52,401.07c0-0.01,0.08-0.04,0.23-0.09c0.18-0.06,0.41-0.13,0.68-0.21c0.64-0.19,1.53-0.45,2.65-0.77
							c2.35-0.66,5.7-1.61,9.86-2.78c8.41-2.33,20.08-5.56,33.26-9.21l-0.19,0.21c0.38-2.3,0.78-4.72,1.18-7.18
							c0.98-5.95,1.93-11.67,2.8-16.93l0.24,0.29c-11.21-0.32-20.84,0.47-27.65,1.01c-3.38,0.29-6.08,0.51-7.98,0.67
							c-0.9,0.07-1.61,0.12-2.13,0.16c-0.22,0.01-0.4,0.02-0.55,0.03c-0.12,0-0.19,0-0.19,0c0-0.01,0.06-0.02,0.18-0.04
							c0.15-0.02,0.33-0.04,0.55-0.07c0.52-0.06,1.22-0.14,2.12-0.25c1.85-0.2,4.56-0.49,7.96-0.82c6.81-0.63,16.45-1.49,27.7-1.2
							l0.28,0.01l-0.05,0.28c-0.86,5.26-1.8,10.99-2.78,16.93c-0.41,2.46-0.8,4.88-1.18,7.18l-0.03,0.16l-0.16,0.04
							c-13.2,3.58-24.88,6.76-33.3,9.04c-4.17,1.11-7.54,2.01-9.9,2.63c-1.14,0.29-2.03,0.52-2.68,0.69
							c-0.28,0.07-0.51,0.12-0.7,0.17C111.61,401.06,111.53,401.08,111.52,401.07z"/>
					</g>
				</g>
			</g>
		</g>
		<g>
			<g>
				<g>
					<g>
						<g>
							<g>
								<path class="st5" d="M181.78,443.73c0,0,43.57,12.06,45.32,12.68c2.62,0.92,2.18,10.54-1.9,10.39
									c-1.93-0.07-33.47,1.17-37.45,0.93c-3.98-0.25-16.01-4.99-16.01-4.99L181.78,443.73z"/>
							</g>
						</g>
					</g>
				</g>
			</g>
			<g>
				<g>
					<g>
						<g>
							<g>
								<g>
									<path class="st9" d="M199.93,460.36c0.22,0.03,0.51-2.27,1.92-4.68c1.37-2.42,3.22-3.84,3.08-4.01
										c-0.08-0.17-2.24,1.06-3.71,3.65C199.72,457.89,199.75,460.38,199.93,460.36z"/>
								</g>
							</g>
						</g>
					</g>
				</g>
			</g>
			<g>
				<g>
					<g>
						<g>
							<g>
								<g>
									<path class="st9" d="M195.39,458.3c0.21,0.04,0.65-2.02,1.82-4.3c1.14-2.29,2.53-3.87,2.37-4.02
										c-0.12-0.14-1.82,1.28-3.02,3.69C195.33,456.07,195.2,458.29,195.39,458.3z"/>
								</g>
							</g>
						</g>
					</g>
				</g>
			</g>
			<g>
				<g>
					<g>
						<g>
							<g>
								<g>
									<path class="st9" d="M191.12,457.16c0.22-0.01,0.05-2.19,1.02-4.6c0.93-2.43,2.53-3.92,2.37-4.07
										c-0.09-0.17-2.04,1.18-3.05,3.81C190.43,454.9,190.95,457.22,191.12,457.16z"/>
								</g>
							</g>
						</g>
					</g>
				</g>
			</g>
			<g>
				<g>
					<g>
						<g>
							<g>
								<g>
									<path class="st9" d="M191.9,451.53c0.08,0.02,0.46-1.2,0.47-3.24c0-1.02-0.12-2.24-0.44-3.55
										c-0.16-0.66-0.38-1.34-0.65-2.02c-0.14-0.35-0.3-0.74-0.7-1.07c-0.41-0.36-1.15-0.29-1.5,0.07
										c-0.4,0.35-0.53,0.84-0.58,1.23c-0.04,0.4-0.07,0.77-0.06,1.15c0.01,0.75,0.11,1.47,0.27,2.13
										c0.32,1.33,0.84,2.45,1.34,3.33c1.02,1.77,1.9,2.67,1.96,2.62c0.1-0.07-0.63-1.08-1.5-2.86c-0.43-0.89-0.88-1.98-1.14-3.24
										c-0.13-0.63-0.21-1.3-0.21-1.99c0.02-0.67,0.01-1.51,0.4-1.83c0.21-0.17,0.39-0.18,0.58-0.05
										c0.19,0.15,0.35,0.45,0.48,0.76c0.27,0.65,0.49,1.3,0.66,1.92c0.34,1.25,0.51,2.42,0.58,3.4
										C191.98,450.28,191.78,451.51,191.9,451.53z"/>
								</g>
							</g>
						</g>
					</g>
				</g>
			</g>
			<g>
				<g>
					<g>
						<g>
							<g>
								<g>
									<path class="st9" d="M191.84,451.09c0.02-0.08-1.03-0.44-2.81-0.45c-0.89,0-1.95,0.09-3.09,0.38
										c-0.56,0.15-1.17,0.3-1.78,0.66c-0.6,0.3-1.22,1.13-0.98,1.99c0.19,0.81,0.88,1.38,1.57,1.56
										c0.69,0.19,1.37,0.12,1.95-0.01c1.2-0.27,2.13-0.86,2.83-1.39c1.4-1.1,2.08-1.93,2.03-1.99c-0.08-0.09-0.9,0.62-2.32,1.57
										c-0.71,0.46-1.61,0.95-2.67,1.16c-0.53,0.1-1.1,0.13-1.62-0.02c-0.51-0.14-0.94-0.53-1.06-1.04
										c-0.12-0.49,0.17-0.93,0.65-1.22c0.47-0.29,1.04-0.46,1.58-0.62c1.08-0.31,2.09-0.45,2.94-0.51
										C190.76,451.03,191.83,451.2,191.84,451.09z"/>
								</g>
							</g>
						</g>
					</g>
				</g>
			</g>
			<g>
				<g>
					<g>
						<g>
							<g>
								<g>
									<path class="st9" d="M206.62,460.83c0.22-0.02,0-1.89,0.86-3.93c0.82-2.06,2.27-3.24,2.13-3.41
										c-0.07-0.18-1.89,0.86-2.81,3.14C205.87,458.89,206.45,460.9,206.62,460.83z"/>
								</g>
							</g>
						</g>
					</g>
				</g>
			</g>
			<g>
				<g>
					<g>
						<g>
							<g>
								<g>
									<path class="st9" d="M176.22,462.84c-0.02,0.05,0.58,0.33,1.69,0.79c1.12,0.42,2.76,1.01,4.85,1.5
										c4.17,1.05,10.11,1.65,16.64,1.58c6.53-0.07,12.41-0.37,16.68-0.54c2.02-0.11,3.71-0.2,5.05-0.27
										c1.19-0.08,1.85-0.15,1.85-0.2c0-0.05-0.66-0.08-1.86-0.09c-1.34,0.01-3.03,0.02-5.06,0.04
										c-4.41,0.09-10.23,0.2-16.67,0.33c-6.5,0.07-12.37-0.44-16.52-1.35C178.7,463.77,176.27,462.7,176.22,462.84z"/>
								</g>
							</g>
						</g>
					</g>
				</g>
			</g>
			<g>
				<g>
					<g>
						<g>
							<g>
								<g>
									<path class="st9" d="M174.93,463.83c0.06,0.1,1.25-0.6,3.26-1.48c1.99-0.85,4.97-1.88,8.25-1.37
										c3.28,0.5,5.61,2.71,7.13,4.24c1.53,1.59,2.42,2.64,2.51,2.56c0.07-0.05-0.68-1.21-2.13-2.91
										c-0.74-0.84-1.67-1.82-2.89-2.7c-1.21-0.89-2.76-1.64-4.5-1.91c-3.51-0.54-6.61,0.64-8.58,1.62
										C175.98,462.91,174.89,463.76,174.93,463.83z"/>
								</g>
							</g>
						</g>
					</g>
				</g>
			</g>
			<g class="st12">
				<g>
					<g>
						<g>
							<g>
								<path d="M181.78,443.73c0,0,43.57,12.06,45.32,12.68c2.62,0.92,2.18,10.54-1.9,10.39c-1.93-0.07-33.47,1.17-37.45,0.93
									c-3.98-0.25-16.01-4.99-16.01-4.99L181.78,443.73z"/>
							</g>
						</g>
					</g>
				</g>
			</g>
		</g>
		<g>
			<g>
				<g>
					<path class="st9" d="M137.74,404.17l-8.83,18.15c0,0-47.23-14.36-59.13-13.7c-11.9,0.66-21.65,5.43-23.96,15.09
						c-2.31,9.66-2.63,23,11.25,32.25c13.88,9.26,82.88,14.37,82.88,14.37h27.3l44.62-58.84l-7.19-5.83L137.74,404.17z"/>
				</g>
			</g>
			<g>
				<g>
					<g>
						<path class="st10" d="M152.6,443.99c0,0.02-0.31,0.01-0.9-0.02c-0.58-0.05-1.46-0.04-2.56-0.2c-2.22-0.22-5.42-0.8-9.26-1.91
							c-3.84-1.1-8.28-2.85-13.05-5.11c-4.77-2.25-9.87-5.02-15.22-7.9c-5.35-2.87-10.54-5.44-15.42-7.4
							c-4.88-1.95-9.43-3.3-13.34-3.99c-3.91-0.7-7.13-0.88-9.35-0.82c-1.11-0.02-1.97,0.09-2.56,0.1c-0.59,0.03-0.89,0.03-0.9,0.01
							c0-0.02,0.3-0.06,0.89-0.13c0.58-0.04,1.44-0.2,2.56-0.21c2.23-0.13,5.48-0.02,9.43,0.63c3.95,0.64,8.55,1.96,13.47,3.89
							c4.92,1.94,10.13,4.51,15.49,7.38c5.36,2.88,10.43,5.66,15.17,7.93c4.74,2.27,9.14,4.05,12.94,5.2
							c3.8,1.16,6.96,1.79,9.16,2.08c1.1,0.19,1.96,0.22,2.54,0.31C152.29,443.92,152.6,443.97,152.6,443.99z"/>
					</g>
				</g>
			</g>
			<g>
				<g>
					<path class="st9" d="M184.87,465.53c8.77-3.45,57.01-18.79,74.08-38.53c14.22-16.43-8.4-31.14-8.4-31.14s-15.86-0.51-21.16,0
						c-5.29,0.51-80.98,51.66-80.98,51.66s13.22,25.78,12.89,26.77L184.87,465.53z"/>
				</g>
			</g>
			<g>
				<g>
					<g>
						<path class="st10" d="M208.62,408.32c0.01,0.01-0.06,0.06-0.21,0.16c-0.17,0.12-0.38,0.26-0.64,0.43
							c-0.61,0.4-1.43,0.93-2.48,1.61c-2.21,1.41-5.33,3.4-9.16,5.84c-7.81,4.91-18.52,11.64-30.35,19.07
							c-5.84,3.64-11.41,7.11-16.49,10.28l0.11-0.34c3.51,8.45,6.5,15.65,8.64,20.8c1.03,2.52,1.85,4.53,2.43,5.97
							c0.26,0.66,0.47,1.19,0.63,1.6c0.14,0.36,0.2,0.56,0.19,0.56c-0.01,0.01-0.11-0.17-0.27-0.53c-0.18-0.4-0.41-0.91-0.7-1.56
							c-0.62-1.42-1.49-3.42-2.57-5.91c-2.19-5.13-5.25-12.3-8.84-20.71l-0.09-0.21l0.2-0.12c5.07-3.17,10.63-6.66,16.46-10.32
							c11.87-7.38,22.61-14.06,30.44-18.92c3.88-2.38,7.03-4.31,9.26-5.68c1.07-0.64,1.91-1.15,2.53-1.52
							c0.27-0.15,0.49-0.28,0.67-0.38C208.54,408.35,208.62,408.31,208.62,408.32z"/>
					</g>
				</g>
			</g>
			<g>
				<g>
					<g>
						<path class="st10" d="M141.97,431.07c-0.03,0.07-0.9-0.21-2.24-0.84c-1.34-0.63-3.13-1.63-4.95-2.97
							c-1.82-1.34-3.32-2.74-4.33-3.83c-1.01-1.09-1.54-1.83-1.48-1.88c0.14-0.12,2.55,2.61,6.16,5.23
							C138.71,429.43,142.05,430.9,141.97,431.07z"/>
					</g>
				</g>
			</g>
			<g>
				<g>
					<g>
						<path class="st10" d="M168.24,409.68c0.09,0,0.09,1.16,0.11,3.02c0.03,1.86,0.1,4.43,0.36,7.25c0.26,2.82,0.65,5.36,0.95,7.2
							c0.31,1.84,0.51,2.97,0.43,2.99c-0.07,0.02-0.42-1.09-0.84-2.91c-0.42-1.82-0.87-4.38-1.13-7.23
							c-0.26-2.85-0.26-5.44-0.18-7.31C168.02,410.83,168.17,409.68,168.24,409.68z"/>
					</g>
				</g>
			</g>
			<g>
				<g>
					<g>
						<path class="st10" d="M173.89,409.06c0-0.03,0.22-0.05,0.59,0.08c0.37,0.13,0.86,0.46,1.26,1.05
							c0.37,0.59,0.66,1.48,0.36,2.43c-0.28,0.97-1.34,1.69-2.45,1.72c-1.1,0.07-2.24-0.54-2.59-1.51
							c-0.36-0.95-0.05-1.86,0.34-2.44c0.41-0.59,0.94-0.89,1.32-0.98c0.39-0.09,0.6-0.03,0.6,0c0.04,0.1-0.93,0.09-1.57,1.2
							c-0.3,0.52-0.49,1.3-0.19,2.01c0.28,0.71,1.14,1.17,2.05,1.12c0.91-0.04,1.72-0.58,1.96-1.31c0.27-0.73,0.08-1.5-0.2-2.04
							C174.76,409.29,173.84,409.16,173.89,409.06z"/>
					</g>
				</g>
			</g>
			<g>
				<g>
					<g>
						<path class="st10" d="M150.55,407.15c0.03-0.01,0.21,0.29,0.41,0.9c0.21,0.6,0.4,1.52,0.4,2.67c0,1.15-0.25,2.52-0.88,3.92
							c-0.62,1.39-1.68,2.78-3.15,3.78c-1.49,0.98-3.17,1.44-4.69,1.49c-1.53,0.06-2.9-0.23-3.96-0.66
							c-1.07-0.43-1.85-0.95-2.32-1.37c-0.48-0.42-0.7-0.7-0.67-0.72c0.08-0.1,1.05,0.98,3.14,1.7c1.03,0.36,2.34,0.6,3.79,0.51
							c1.44-0.08,3.01-0.53,4.39-1.44c1.36-0.94,2.37-2.22,2.99-3.52c0.62-1.3,0.9-2.6,0.95-3.7
							C151.06,408.49,150.43,407.18,150.55,407.15z"/>
					</g>
				</g>
			</g>
			<g>
				<g>
					<g>
						<path class="st10" d="M195.56,416.13c0,0.07-0.71,0.12-1.79-0.25c-1.06-0.35-2.48-1.22-3.44-2.69
							c-0.96-1.48-1.18-3.12-1.08-4.24c0.1-1.13,0.43-1.76,0.49-1.74c0.09,0.03-0.09,0.69-0.07,1.75c0.01,1.06,0.28,2.55,1.16,3.9
							c0.88,1.35,2.14,2.2,3.1,2.63C194.9,415.94,195.57,416.04,195.56,416.13z"/>
					</g>
				</g>
			</g>
		</g>
		<g>
			<g>
				<g>
					<g>
						<path class="st13" d="M255.07,373.34c0,0,10.39-7.72,12.21-8.06c1.82-0.34,15.63,1.41,16.46,2.24
							c0.83,0.82,13.66,10.5,11.18,11.34c-2.48,0.84-11.35-6.05-11.35-6.05l-1.66-0.02c0,0,7.78,5.73,9.03,7.68
							c1.15,1.8-0.45,3.52-1.92,2.56c-1.47-0.96-8.1-6.19-8.69-6.12c-0.59,0.08,6.98,6.13,7.62,7.13c0.85,1.36-0.15,3.59-1.64,2.69
							c-0.88-0.53-7.78-6.71-7.78-6.71s5.06,5.7,5.36,6.55c0.49,1.4-0.98,2.38-2.19,1.37c-0.83-0.69-4.2-5.13-5.31-6.05
							c0,0-1.34-0.29-3.64,1.53c-2.3,1.83-13.09,3.89-13.09,3.89L255.07,373.34z"/>
					</g>
				</g>
			</g>
			<g>
				<g>
					<g>
						<g>
							<path class="st13" d="M258.21,375.14c0.45,1.24,1.96,1.77,3.27,1.69c1.31-0.09,2.56-0.61,3.87-0.79
								c3.9-0.54,7.78,2.07,11.65,1.35c0.54-0.1,1.17-0.39,1.19-0.94c0.01-0.51-0.51-0.84-0.97-1.06c-3.91-1.9-7.82-3.81-11.73-5.71
								"/>
						</g>
					</g>
				</g>
				<g>
					<g>
						<g>
							<g>
								<path class="st14" d="M265.49,369.67c0.02-0.05,0.5,0.13,1.33,0.49c0.84,0.36,2.04,0.9,3.51,1.58
									c1.53,0.72,3.27,1.54,5.17,2.43c0.49,0.23,0.98,0.47,1.49,0.71c0.45,0.26,1.16,0.4,1.52,1.23c0.16,0.42-0.06,0.94-0.37,1.18
									c-0.3,0.25-0.64,0.37-0.97,0.45c-0.64,0.11-1.27,0.18-1.92,0.14c-2.59-0.11-4.82-1.04-6.89-1.39
									c-1.03-0.19-2.03-0.26-2.94-0.15c-0.91,0.11-1.76,0.38-2.57,0.54c-1.62,0.41-3.11,0.08-3.85-0.53
									c-0.77-0.61-0.81-1.22-0.78-1.21c0.07-0.04,0.21,0.5,0.95,0.97c0.73,0.48,2.03,0.7,3.57,0.26c0.77-0.19,1.62-0.49,2.61-0.64
									c0.99-0.15,2.05-0.1,3.13,0.08c2.16,0.33,4.41,1.22,6.8,1.32c0.59,0.03,1.19-0.03,1.73-0.12c0.53-0.11,0.93-0.42,0.8-0.69
									c-0.09-0.31-0.63-0.57-1.13-0.81c-0.5-0.25-0.99-0.49-1.48-0.73c-1.87-0.94-3.59-1.81-5.1-2.57
									c-1.45-0.74-2.61-1.35-3.41-1.79C265.9,369.98,265.47,369.71,265.49,369.67z"/>
							</g>
						</g>
					</g>
				</g>
			</g>
			<g>
				<g>
					<g>
						<g>
							<path class="st14" d="M294.87,378.87c-0.02,0.09-1.17-0.01-2.93-0.62c-0.88-0.31-1.9-0.75-2.96-1.38
								c-1.01-0.68-2.1-1.45-3.25-2.26c-0.84-0.6-1.66-1.19-2.43-1.74l0.17,0.07c-4.11-0.56-7.07-1.07-7.05-1.23
								c0.02-0.17,3.01,0.06,7.14,0.53l0.08,0.01l0.08,0.06c0.77,0.54,1.58,1.11,2.42,1.7c1.11,0.8,2.18,1.56,3.19,2.29
								c1.01,0.63,1.97,1.11,2.8,1.47C293.8,378.48,294.9,378.76,294.87,378.87z"/>
						</g>
					</g>
				</g>
			</g>
		</g>
		<g>
			<g>
				<g>
					<g>
						<g>
							<g>
								<g>
									<path class="st5" d="M151.06,451c0,0-43.57,12.06-45.32,12.68c-2.62,0.92-2.18,10.54,1.9,10.39
										c1.93-0.07,33.47,1.17,37.45,0.93c3.98-0.25,14.71-4.49,14.71-4.49L151.06,451z"/>
								</g>
							</g>
						</g>
					</g>
				</g>
				<g>
					<g>
						<g>
							<g>
								<g>
									<g>
										<path class="st9" d="M132.91,467.62c-0.22,0.03-0.51-2.27-1.92-4.68c-1.37-2.42-3.22-3.84-3.08-4.01
											c0.08-0.17,2.24,1.06,3.71,3.65C133.12,465.15,133.09,467.64,132.91,467.62z"/>
									</g>
								</g>
							</g>
						</g>
					</g>
				</g>
				<g>
					<g>
						<g>
							<g>
								<g>
									<g>
										<path class="st9" d="M137.45,465.56c-0.21,0.04-0.65-2.02-1.82-4.3c-1.14-2.29-2.53-3.87-2.37-4.02
											c0.12-0.14,1.82,1.28,3.02,3.69C137.51,463.33,137.64,465.55,137.45,465.56z"/>
									</g>
								</g>
							</g>
						</g>
					</g>
				</g>
				<g>
					<g>
						<g>
							<g>
								<g>
									<g>
										<path class="st9" d="M141.71,464.42c-0.22-0.01-0.05-2.19-1.02-4.6c-0.93-2.43-2.53-3.92-2.37-4.07
											c0.09-0.17,2.04,1.18,3.05,3.81C142.41,462.17,141.89,464.48,141.71,464.42z"/>
									</g>
								</g>
							</g>
						</g>
					</g>
				</g>
				<g>
					<g>
						<g>
							<g>
								<g>
									<g>
										<path class="st9" d="M140.94,458.79c-0.08,0.02-0.46-1.2-0.47-3.24c0-1.02,0.12-2.24,0.44-3.55
											c0.16-0.66,0.38-1.34,0.65-2.02c0.14-0.35,0.3-0.74,0.7-1.07c0.41-0.36,1.15-0.29,1.5,0.07c0.4,0.35,0.53,0.84,0.58,1.23
											c0.04,0.4,0.07,0.77,0.06,1.15c-0.01,0.75-0.11,1.47-0.27,2.13c-0.32,1.33-0.84,2.45-1.34,3.33
											c-1.02,1.77-1.9,2.67-1.96,2.62c-0.1-0.07,0.63-1.08,1.5-2.86c0.43-0.89,0.88-1.98,1.14-3.24
											c0.13-0.63,0.21-1.3,0.21-1.99c-0.02-0.67-0.01-1.51-0.4-1.83c-0.21-0.17-0.39-0.18-0.58-0.05
											c-0.19,0.15-0.35,0.45-0.48,0.76c-0.27,0.65-0.49,1.3-0.66,1.92c-0.34,1.25-0.51,2.42-0.58,3.4
											C140.86,457.54,141.06,458.77,140.94,458.79z"/>
									</g>
								</g>
							</g>
						</g>
					</g>
				</g>
				<g>
					<g>
						<g>
							<g>
								<g>
									<g>
										<path class="st9" d="M140.99,458.35c-0.02-0.08,1.03-0.44,2.81-0.45c0.89,0,1.95,0.09,3.09,0.38
											c0.56,0.15,1.17,0.3,1.78,0.66c0.6,0.3,1.22,1.13,0.98,1.99c-0.19,0.81-0.88,1.38-1.57,1.56
											c-0.69,0.19-1.37,0.12-1.95-0.01c-1.2-0.27-2.13-0.86-2.83-1.39c-1.4-1.1-2.08-1.93-2.03-1.99
											c0.08-0.09,0.9,0.62,2.32,1.57c0.71,0.46,1.61,0.95,2.67,1.16c0.53,0.1,1.1,0.13,1.62-0.02c0.51-0.14,0.94-0.53,1.06-1.04
											c0.13-0.49-0.17-0.93-0.65-1.22c-0.47-0.29-1.04-0.46-1.58-0.62c-1.08-0.31-2.09-0.45-2.94-0.51
											C142.08,458.29,141.01,458.47,140.99,458.35z"/>
									</g>
								</g>
							</g>
						</g>
					</g>
				</g>
				<g>
					<g>
						<g>
							<g>
								<g>
									<g>
										<path class="st9" d="M126.21,468.09c-0.22-0.02,0-1.89-0.86-3.93c-0.82-2.06-2.27-3.24-2.13-3.41
											c0.07-0.18,1.89,0.85,2.81,3.14C126.97,466.15,126.39,468.17,126.21,468.09z"/>
									</g>
								</g>
							</g>
						</g>
					</g>
				</g>
				<g>
					<g>
						<g>
							<g>
								<g>
									<g>
										<path class="st9" d="M156.62,470.1c0.02,0.05-0.58,0.33-1.69,0.79c-1.12,0.42-2.76,1.02-4.85,1.5
											c-4.17,1.05-10.11,1.65-16.64,1.58c-6.53-0.07-12.41-0.37-16.68-0.54c-2.02-0.11-3.71-0.2-5.05-0.27
											c-1.19-0.08-1.85-0.15-1.85-0.2c0-0.05,0.66-0.08,1.86-0.09c1.34,0.01,3.03,0.02,5.06,0.04
											c4.41,0.09,10.23,0.2,16.67,0.33c6.5,0.07,12.37-0.44,16.52-1.35C154.13,471.04,156.57,469.96,156.62,470.1z"/>
									</g>
								</g>
							</g>
						</g>
					</g>
				</g>
				<g>
					<g>
						<g>
							<g>
								<g>
									<g>
										<path class="st9" d="M157.91,471.09c-0.06,0.1-1.25-0.6-3.26-1.48c-1.99-0.85-4.97-1.88-8.25-1.37
											c-3.28,0.5-5.61,2.71-7.13,4.24c-1.53,1.59-2.42,2.64-2.51,2.56c-0.07-0.05,0.68-1.21,2.13-2.91
											c0.74-0.84,1.67-1.82,2.89-2.7c1.21-0.89,2.76-1.64,4.5-1.91c3.51-0.54,6.61,0.64,8.58,1.62
											C156.86,470.17,157.95,471.02,157.91,471.09z"/>
									</g>
								</g>
							</g>
						</g>
					</g>
				</g>
			</g>
			<g>
				<g>
					<g>
						<path class="st9" d="M114.19,472.98c-0.08-0.05,0.29-0.63,0.64-1.65c0.35-1.01,0.61-2.5,0.32-4.09
							c-0.3-1.59-1.08-2.89-1.76-3.71c-0.68-0.83-1.24-1.23-1.18-1.31c0.03-0.06,0.69,0.23,1.49,1.03c0.8,0.79,1.71,2.15,2.03,3.89
							c0.32,1.73-0.04,3.33-0.51,4.35C114.75,472.52,114.25,473.02,114.19,472.98z"/>
					</g>
				</g>
			</g>
		</g>
		<g>
			<g>
				<g>
					<g>
						<path class="st13" d="M196.17,376.39c-3.66-1.12-2.02-5.17-8.74-7.41c-5.02-1.67-10.41-4.79-25.19-3.11l-3.36,20.4l14.21-3.78
							l4.1,9.16c0.84,1.89,3.08,2.7,4.94,1.81l7.2-3.46c0,0,2.04,9.92,2.65,10.3c1.72,1.09,3.52-0.62,3.24-1.96
							c-0.28-1.34-1.03-18.55-1.03-18.55s5.46,1.55,5.12-0.63C199.31,379.18,199.83,377.51,196.17,376.39z"/>
					</g>
				</g>
			</g>
			<g>
				<g>
					<g>
						<g>
							<g>
								<path class="st14" d="M180.82,394.34c-0.05-0.04,0.21-0.43,0.47-1.12c0.26-0.69,0.46-1.71,0.35-2.83
									c-0.12-1.12-0.52-2.08-0.91-2.71c-0.39-0.63-0.73-0.96-0.69-1.01c0.02-0.03,0.44,0.23,0.91,0.85
									c0.47,0.62,0.95,1.63,1.07,2.82c0.12,1.19-0.15,2.28-0.49,2.98C181.2,394.03,180.85,394.37,180.82,394.34z"/>
							</g>
						</g>
					</g>
				</g>
			</g>
			<g>
				<g>
					<g>
						<g>
							<g>
								<path class="st14" d="M185.34,391.88c-0.12-0.03,0.46-1.55,0.09-3.45c-0.33-1.9-1.43-3.11-1.33-3.18
									c0.03-0.03,0.35,0.22,0.73,0.76c0.38,0.53,0.79,1.36,0.97,2.35c0.18,0.99,0.1,1.91-0.06,2.55
									C185.58,391.54,185.38,391.89,185.34,391.88z"/>
							</g>
						</g>
					</g>
				</g>
			</g>
			<g>
				<g>
					<g>
						<g>
							<g>
								<path class="st14" d="M188.51,384.02c0.04-0.03,0.27,0.23,0.51,0.72c0.24,0.49,0.47,1.23,0.5,2.07
									c0.03,0.84-0.15,1.59-0.36,2.1c-0.21,0.51-0.42,0.77-0.46,0.75c-0.11-0.05,0.5-1.24,0.44-2.83
									C189.1,385.23,188.41,384.08,188.51,384.02z"/>
							</g>
						</g>
					</g>
				</g>
			</g>
		</g>
		<g>
			<g>
				<g>
					<path class="st10" d="M235.62,405.82l-73.37-1.83c-0.76-0.02-1.37-0.64-1.37-1.41l0,0c0-0.77,0.62-1.4,1.39-1.41l40.47-0.51
						l15.98-49.53c0.54-1.67,2.11-2.78,3.86-2.73l61.43,1.73c2.71,0.08,4.54,2.8,3.58,5.33l-19.3,51.19L235.62,405.82"/>
				</g>
			</g>
			<g>
				<g>
					<path class="st7" d="M251.64,376.11c-0.72-1.33-3.76-1.78-5.22-0.67c-0.92,0.55-1.64,1.41-1.9,2.45
						c-0.41,1.64,0.51,3.56,2.12,4.08c1.56,0.5,3.29-0.35,4.32-1.63C251.89,379.16,252.36,377.44,251.64,376.11z"/>
				</g>
			</g>
		</g>
		<g>
			<g>
				<path class="st9" d="M192.27,226.19c0.78-1.06,2.52-0.09,3.08,1.11c0.56,1.19,0.82,2.72,2.01,3.29c1.56,0.75,3.95-0.6,4.92,0.84
					c0.74,1.1-0.35,2.6-0.04,3.89c0.56,2.31,4.55,1.75,5.67,3.84c0.67,1.25-0.03,2.75-0.56,4.06c-0.53,1.31-0.74,3.12,0.46,3.87
					c1.18,0.73,2.99-0.12,3.98,0.85c1.33,1.29-0.66,3.5-0.25,5.31c0.3,1.32,1.79,1.98,3.11,2.27c1.33,0.29,2.81,0.5,3.69,1.53
					c1.94,2.29-0.9,5.83-0.1,8.72c0.48,1.75,2.29,3.23,1.87,5c-0.54,2.26-4.21,2.56-4.73,4.83c-0.44,1.92,1.74,4.11,0.54,5.67
					c-1.17,1.52-3.79,0.1-5.46,1.04c-1.93,1.09-1.57,4.69-3.72,5.22c-0.96,0.24-1.96-0.34-2.93-0.2c-2.37,0.35-3.01,4.45-5.4,4.29
					c-1.4-0.09-2.5-1.75-3.86-1.41c-1.33,0.33-1.54,2.24-2.7,2.98c-1.8,1.15-3.88-1.23-6.01-1.33c-1.33-0.06-2.62,0.8-3.93,0.56
					c-1.25-0.23-2.12-1.45-2.39-2.69c-0.27-1.24-0.06-2.53,0.08-3.8c0.79-6.95-0.44-14.12-3.49-20.41"/>
			</g>
			<g>
				<g>
					<g>
						<g>
							<g>
								<g>
									<g>
										<g>
											<g>
												<g>
													<g>
														<g>
															<g>
																<g>
																	<g>
																		<g>
																			<path class="st13" d="M185.49,301.01l-0.2-10.95c0,0,10.88-1.61,13.38-15.73c1.24-7.02,1.11-18.57,0.67-28.02
																				c-0.49-10.42-11.79-21.38-20.27-20.64l-25.13,8.97l0.01,4.57l0.76,62.26c0.1,8.43,6.96,15.21,15.39,15.21l0,0
																				C178.71,316.69,185.65,309.62,185.49,301.01z"/>
																		</g>
																	</g>
																</g>
															</g>
														</g>
													</g>
												</g>
											</g>
											<g>
												<g>
													<g>
														<g>
															<g>
																<g>
																	<g>
																		<g>
																			<g>
																				<path class="st9" d="M194.97,256.13c0.02,0.96-0.78,1.76-1.78,1.8c-1,0.04-1.83-0.71-1.84-1.67
																					c-0.02-0.96,0.78-1.77,1.78-1.8C194.13,254.42,194.95,255.17,194.97,256.13z"/>
																			</g>
																		</g>
																	</g>
																</g>
															</g>
														</g>
													</g>
												</g>
												<g>
													<g>
														<g>
															<g>
																<g>
																	<g>
																		<g>
																			<g>
																				<g>
																					<path class="st9" d="M196.73,252.28c-0.23,0.23-1.59-0.81-3.54-0.84c-1.95-0.06-3.4,0.92-3.61,0.68
																						c-0.1-0.11,0.13-0.53,0.77-0.97c0.62-0.44,1.68-0.86,2.9-0.84c1.22,0.03,2.23,0.49,2.81,0.96
																						C196.65,251.74,196.84,252.17,196.73,252.28z"/>
																				</g>
																			</g>
																		</g>
																	</g>
																</g>
															</g>
														</g>
													</g>
												</g>
											</g>
											<g>
												<g>
													<g>
														<g>
															<g>
																<g>
																	<g>
																		<g>
																			<g>
																				<path class="st9" d="M177.03,255.62c0.02,0.96-0.78,1.76-1.78,1.8c-1,0.04-1.83-0.71-1.84-1.67
																					c-0.02-0.96,0.78-1.77,1.78-1.8C176.19,253.91,177.01,254.66,177.03,255.62z"/>
																			</g>
																		</g>
																	</g>
																</g>
															</g>
														</g>
													</g>
												</g>
												<g>
													<g>
														<g>
															<g>
																<g>
																	<g>
																		<g>
																			<g>
																				<g>
																					<path class="st9" d="M177.52,252.3c-0.23,0.23-1.59-0.81-3.54-0.84c-1.95-0.06-3.4,0.92-3.61,0.68
																						c-0.1-0.11,0.13-0.53,0.77-0.97c0.62-0.44,1.68-0.86,2.9-0.84c1.22,0.03,2.23,0.49,2.81,0.96
																						C177.43,251.77,177.63,252.2,177.52,252.3z"/>
																				</g>
																			</g>
																		</g>
																	</g>
																</g>
															</g>
														</g>
													</g>
												</g>
											</g>
											<g>
												<g>
													<g>
														<g>
															<g>
																<g>
																	<g>
																		<g>
																			<g>
																				<path class="st9" d="M184.35,266.92c-0.01-0.11,1.21-0.3,3.18-0.52c0.5-0.04,0.97-0.13,1.06-0.47
																					c0.12-0.36-0.08-0.9-0.31-1.48c-0.45-1.22-0.92-2.49-1.41-3.83c-1.95-5.44-3.36-9.92-3.14-10
																					c0.22-0.08,1.98,4.27,3.93,9.72c0.47,1.34,0.92,2.62,1.35,3.85c0.18,0.57,0.49,1.22,0.22,1.96
																					c-0.14,0.37-0.51,0.63-0.83,0.71c-0.32,0.09-0.6,0.09-0.85,0.1C185.59,267.04,184.36,267.03,184.35,266.92z"/>
																			</g>
																		</g>
																	</g>
																</g>
															</g>
														</g>
													</g>
												</g>
											</g>
											<g>
												<g>
													<g>
														<g>
															<g>
																<g>
																	<g>
																		<g>
																			<path class="st14" d="M185.29,290.06c0,0-9.53,0.44-18.87-5.39c0,0,4.74,9.89,18.93,8.82L185.29,290.06z"/>
																		</g>
																	</g>
																</g>
															</g>
														</g>
													</g>
												</g>
											</g>
											<g>
												<g>
													<g>
														<g>
															<g>
																<g>
																	<g>
																		<g>
																			<path class="st5" d="M183.44,271.61c-0.69-0.94-1.91-1.47-3.13-1.36c-0.85,0.08-1.71,0.47-2.24,1.15
																				c-0.53,0.68-0.65,1.66-0.2,2.33c0.51,0.75,1.61,0.94,2.55,0.69c0.94-0.25,1.75-0.85,2.52-1.45
																				c0.21-0.17,0.43-0.34,0.57-0.57c0.14-0.23,0.17-0.53,0.01-0.73"/>
																		</g>
																	</g>
																</g>
															</g>
														</g>
													</g>
												</g>
											</g>
											<g>
												<g>
													<g>
														<g>
															<g>
																<g>
																	<g>
																		<g>
																			<g>
																				<path class="st9" d="M178.58,268.17c0.32-0.01,0.28,2.11,2.07,3.64c1.78,1.54,4.05,1.34,4.06,1.64
																					c0.03,0.13-0.51,0.4-1.47,0.41c-0.94,0.02-2.3-0.31-3.39-1.25c-1.09-0.94-1.55-2.18-1.6-3.05
																					C178.19,268.67,178.43,268.15,178.58,268.17z"/>
																			</g>
																		</g>
																	</g>
																</g>
															</g>
														</g>
													</g>
												</g>
											</g>
										</g>
									</g>
								</g>
								<g>
									<g>
										<g>
											<g>
												<g>
													<g>
														<g>
															<g>
																<path class="st9" d="M178.16,244.65c-0.2,0.53-2.15,0.24-4.45,0.48c-2.3,0.19-4.16,0.83-4.46,0.35
																	c-0.13-0.23,0.2-0.72,0.96-1.23c0.75-0.5,1.94-0.97,3.32-1.1c1.38-0.13,2.63,0.11,3.46,0.47
																	C177.83,243.98,178.25,244.4,178.16,244.65z"/>
															</g>
														</g>
													</g>
												</g>
											</g>
										</g>
									</g>
								</g>
								<g>
									<g>
										<g>
											<g>
												<g>
													<g>
														<g>
															<g>
																<path class="st9" d="M196.11,246.61c-0.35,0.44-1.69-0.05-3.31-0.1c-1.62-0.11-2.99,0.24-3.3-0.22
																	c-0.13-0.23,0.09-0.67,0.7-1.08c0.6-0.41,1.59-0.73,2.7-0.68c1.11,0.05,2.07,0.47,2.62,0.94
																	C196.09,245.94,196.27,246.4,196.11,246.61z"/>
															</g>
														</g>
													</g>
												</g>
											</g>
										</g>
									</g>
								</g>
							</g>
						</g>
					</g>
				</g>
				<g>
					<g>
						<g>
							<path class="st9" d="M191.61,228.37c0,0.16-0.49,0.3-1.09,0.3c-0.6,0-1.09-0.13-1.09-0.3c0-0.16,0.49-0.3,1.09-0.3
								C191.13,228.07,191.61,228.21,191.61,228.37z"/>
						</g>
					</g>
				</g>
			</g>
			<g>
				<path class="st9" d="M189.17,231.62"/>
			</g>
			<g>
				<path class="st9" d="M190.69,231.1c3.64-7.25-4.65-13.31-8.61-15.29c-3.96-1.98-8.92-2.11-12.73,0.14
					c-1.74,1.03-3.25,2.53-5.21,3.02c-4.52,1.14-9.39-3.48-13.59-1.47c-3.46,1.65-4.04,6.83-7.51,8.46
					c-1.67,0.78-3.62,0.53-5.46,0.73c-1.84,0.2-3.9,1.19-4.14,3.03c-0.26,2.04,1.89,4.19,0.8,5.93c-1.33,2.15-5.28,0.15-6.98,2.01
					c-1.59,1.74,0.28,5.27-1.66,6.61c-1.42,0.98-3.83-0.2-4.88,1.17c-1.12,1.47,0.97,3.31,1.18,5.15c0.22,1.89-1.56,3.33-3.08,4.48
					c-1.52,1.15-3.11,2.96-2.38,4.72c0.84,2.02,4.16,2.2,4.73,4.32c0.59,2.18-2.34,4.59-1.02,6.42c0.88,1.22,2.89,0.87,4.01,1.88
					c1.86,1.67-0.4,4.89,0.52,7.22c1.27,3.22,6.78,1.81,8.9,4.54c1.18,1.52,1.01,4.02,2.68,4.97c1.72,0.98,3.83-0.56,5.79-0.33
					c3.19,0.38,5.16,5.22,8.23,4.28c1.57-0.48,2.73-2.46,4.33-2.07c1.38,0.34,1.92,2.31,3.33,2.53c1.9,0.3,2.43-2.48,3.56-4.03
					c1.51-2.07,4.83-2.18,6.23-4.32c1.26-1.93,0.35-4.5-0.76-6.52c-1.1-2.02-2.43-4.23-1.89-6.47c0.61-2.55,3.55-4.76,2.52-7.17
					c-1.13-2.64-6.05-2.36-6.39-5.21c-0.32-2.69,4.19-4.21,3.67-6.87c-0.35-1.79-2.79-2.49-3.25-4.25c-0.53-2.05,1.94-3.79,1.91-5.9
					c-0.02-1.35-1.05-2.44-1.79-3.57c-0.74-1.13-1.14-2.83-0.1-3.7c1.64-1.39,4.12,1.15,6.18,0.54c1.44-0.43,1.97-2.15,2.48-3.56
					c0,0,3.82-5.79,10.65-4.96C187.8,228.4,190.69,231.1,190.69,231.1z"/>
			</g>
			<g>
				<path class="st9" d="M190.79,228.49c1.37,1.38,0.73,4.12-1.1,4.76c-1.71,0.6-3.5-0.47-5.01-1.47c-1.51-1-3.36-2.01-5.03-1.3
					c-3.05,1.3-2.19,6.81-5.27,8.02c-1.27,0.5-2.67,0.01-4-0.28c-1.33-0.29-2.98-0.24-3.72,0.9c-0.99,1.53,0.35,3.98-0.99,5.22
					c-0.56,0.52-1.42,0.62-1.93,1.19c-0.81,0.92-0.17,2.39,0.73,3.23c0.89,0.84,2.06,1.49,2.5,2.64c0.7,1.82-0.83,3.71-2.39,4.89
					c-1.56,1.17-3.43,2.36-3.77,4.28c-0.55,3.1,3.29,6.08,1.99,8.94c-0.73,1.61-2.92,2.17-4.58,1.55c-1.66-0.62-2.85-2.1-3.71-3.65
					c-3.51-6.36-2.54-14.16-1.35-21.33c0.78-4.7,1.67-9.56,4.42-13.46c2.85-4.04,7.4-6.57,12.06-8.2c3.57-1.25,7.37-2.05,11.12-1.59
					c3.75,0.46,7.45,2.34,9.47,5.53"/>
			</g>
			<g>
				<g>
					<path class="st10" d="M150.13,292.69c0,0-0.07,0.07-0.25,0.14c-0.17,0.08-0.5,0.1-0.84-0.09c-0.34-0.18-0.68-0.54-0.87-1.06
						c-0.1-0.26-0.15-0.57-0.1-0.89c0.06-0.33,0.21-0.64,0.42-0.93c0.42-0.59,1.09-1.06,1.82-1.49c0.73-0.43,1.55-0.88,2.14-1.63
						c0.3-0.37,0.51-0.83,0.52-1.31c0-0.49-0.21-0.97-0.55-1.39c-0.34-0.42-0.78-0.79-1.22-1.2c-0.44-0.4-0.91-0.84-1.19-1.47
						c-0.3-0.61-0.22-1.41,0.18-2c0.41-0.59,1.01-0.97,1.6-1.31c0.6-0.34,1.22-0.65,1.78-1.04c0.56-0.39,1.06-0.89,1.18-1.54
						c0.15-0.66-0.16-1.31-0.66-1.83c-0.5-0.53-1.12-0.98-1.73-1.48c-0.6-0.51-1.23-1.07-1.6-1.87c-0.37-0.81-0.27-1.79,0.15-2.56
						c0.41-0.78,1.03-1.4,1.69-1.96c0.67-0.56,1.39-1,2.02-1.56c0.63-0.55,1.22-1.19,1.49-1.96c0.28-0.76,0.13-1.62-0.31-2.35
						c-0.43-0.74-1.06-1.38-1.67-2.07c-0.6-0.68-1.25-1.43-1.5-2.44c-0.09-0.5-0.06-1.03,0.12-1.52c0.2-0.48,0.5-0.9,0.87-1.23
						c0.74-0.67,1.61-1.1,2.41-1.59c0.8-0.48,1.58-1.02,1.95-1.79c0.39-0.77,0.22-1.68-0.23-2.44c-0.43-0.78-1.05-1.44-1.65-2.15
						c-0.58-0.73-1.1-1.54-1.3-2.5c-0.09-0.48-0.07-0.99,0.12-1.46c0.18-0.47,0.54-0.84,0.94-1.12c0.85-0.51,1.78-0.57,2.64-0.63
						c0.86-0.06,1.72-0.07,2.48-0.31c0.77-0.21,1.37-0.74,1.58-1.49c0.24-0.73,0.22-1.57,0.43-2.39c0.18-0.84,0.79-1.59,1.53-1.96
						c1.5-0.79,3.15-0.57,4.57-0.53c0.72,0.02,1.43-0.02,2.08-0.2c0.65-0.19,1.24-0.52,1.76-0.93c1.04-0.83,1.85-1.87,2.71-2.78
						c0.85-0.92,1.8-1.73,2.88-2.17c1.07-0.44,2.18-0.56,3.19-0.47c2.04,0.19,3.57,1.33,4.4,2.45c0.86,1.14,1.16,2.24,1.26,2.96
						c0.1,0.74,0.04,1.12,0.04,1.12c-0.03,0-0.01-0.39-0.14-1.11c-0.13-0.71-0.46-1.77-1.31-2.86c-0.83-1.07-2.31-2.13-4.27-2.29
						c-0.96-0.08-2.02,0.05-3.03,0.48c-1.01,0.42-1.91,1.2-2.74,2.11c-0.84,0.9-1.64,1.96-2.73,2.84c-0.55,0.44-1.18,0.81-1.89,1.02
						c-0.71,0.21-1.47,0.25-2.21,0.24c-1.47-0.04-3.02-0.21-4.35,0.5c-0.66,0.34-1.13,0.93-1.3,1.67c-0.19,0.74-0.16,1.57-0.42,2.42
						c-0.23,0.87-1.03,1.58-1.89,1.81c-0.86,0.27-1.74,0.27-2.59,0.34c-0.85,0.06-1.72,0.14-2.4,0.56c-0.31,0.22-0.6,0.52-0.74,0.88
						c-0.14,0.36-0.16,0.77-0.09,1.18c0.17,0.81,0.64,1.58,1.2,2.27c0.58,0.68,1.23,1.38,1.7,2.22c0.23,0.42,0.43,0.89,0.49,1.4
						c0.07,0.51-0.04,1.04-0.25,1.51c-0.46,0.95-1.34,1.52-2.15,2.02c-0.82,0.5-1.67,0.92-2.33,1.52c-0.33,0.3-0.58,0.65-0.74,1.04
						c-0.14,0.39-0.17,0.82-0.09,1.23c0.2,0.82,0.78,1.53,1.38,2.2c0.6,0.68,1.25,1.34,1.73,2.15c0.49,0.8,0.68,1.86,0.35,2.77
						c-0.33,0.91-0.98,1.59-1.64,2.17c-0.66,0.58-1.41,1.04-2.04,1.56c-0.63,0.52-1.21,1.12-1.58,1.8
						c-0.37,0.68-0.45,1.47-0.15,2.15c0.3,0.68,0.88,1.21,1.46,1.71c0.59,0.5,1.22,0.95,1.77,1.53c0.54,0.55,0.95,1.41,0.75,2.22
						c-0.17,0.82-0.78,1.4-1.37,1.8c-0.6,0.41-1.24,0.71-1.82,1.05c-0.58,0.33-1.14,0.69-1.48,1.18c-0.33,0.48-0.4,1.12-0.16,1.64
						c0.5,1.06,1.62,1.69,2.33,2.6c0.37,0.45,0.61,1.03,0.6,1.6c-0.02,0.58-0.28,1.09-0.6,1.49c-0.66,0.8-1.52,1.25-2.25,1.66
						c-0.73,0.42-1.38,0.85-1.78,1.39c-0.43,0.54-0.52,1.17-0.33,1.66c0.16,0.49,0.47,0.84,0.78,1.02c0.3,0.19,0.6,0.18,0.77,0.13
						C150.04,292.74,150.12,292.68,150.13,292.69z"/>
				</g>
			</g>
			<g>
				<g>
					<path class="st10" d="M126.21,280.31c0-0.02,0.12,0,0.31-0.08c0.2-0.07,0.44-0.3,0.54-0.7c0.1-0.39,0.1-0.93-0.14-1.47
						c-0.24-0.54-0.78-1.03-1.24-1.69c-0.23-0.33-0.45-0.72-0.5-1.2c-0.06-0.47,0.11-0.98,0.43-1.37c0.63-0.8,1.66-1.24,2.3-2.12
						c0.3-0.43,0.42-1,0.27-1.54c-0.15-0.55-0.51-1.05-0.9-1.55c-0.4-0.5-0.84-0.98-1.24-1.55c-0.39-0.56-0.74-1.26-0.69-2.05
						c0.03-0.79,0.56-1.5,1.21-1.92c0.65-0.44,1.41-0.68,2.19-0.84c0.79-0.14,1.56-0.2,2.34-0.38c0.76-0.18,1.53-0.46,2.05-1.04
						c0.52-0.58,0.7-1.39,0.61-2.21c-0.1-0.83-0.38-1.65-0.64-2.51c-0.25-0.85-0.55-1.76-0.46-2.74c0.02-0.49,0.22-0.98,0.48-1.41
						c0.29-0.42,0.69-0.76,1.14-0.98c1.81-0.91,3.92-0.5,5.49-1.56c0.38-0.25,0.69-0.59,0.86-1c0.15-0.41,0.19-0.87,0.08-1.33
						c-0.22-0.92-0.77-1.78-1.2-2.73c-0.21-0.48-0.41-0.99-0.44-1.57c-0.03-0.58,0.19-1.18,0.6-1.6c0.86-0.86,2.03-0.95,3.02-1.19
						c1-0.2,2.09-0.53,2.32-1.47c0.23-0.9-0.39-1.97-0.32-3.14c0.07-2.3,1.66-4.39,3.78-5.11c2.2-0.71,4.32,0.31,6.22-0.17
						c0.94-0.2,1.83-0.75,2.13-1.62c0.31-0.87,0.14-1.88,0.21-2.89c0.03-0.51,0.16-1.05,0.45-1.51c0.3-0.46,0.75-0.8,1.24-0.98
						c0.99-0.36,2.02-0.28,2.96-0.03c0.93,0.25,1.79,0.6,2.66,0.77c0.87,0.18,1.74,0.1,2.51-0.26c1.57-0.72,2.69-2.11,4.01-3.16
						c2.7-2.16,6.16-2.62,8.96-2.03c2.86,0.54,5.1,2.21,6.48,4.02c1.4,1.82,2.07,3.73,2.36,5.3c0.29,1.58,0.23,2.84,0.13,3.67
						c-0.1,0.84-0.24,1.26-0.24,1.26c-0.03-0.01,0.07-0.44,0.14-1.27c0.07-0.83,0.09-2.07-0.22-3.62c-0.32-1.54-1-3.4-2.39-5.16
						c-1.37-1.75-3.54-3.34-6.32-3.84c-2.72-0.55-6.05-0.07-8.61,2c-1.28,1.02-2.39,2.44-4.1,3.24c-0.84,0.4-1.86,0.5-2.79,0.3
						c-0.93-0.18-1.81-0.53-2.69-0.76c-0.87-0.23-1.83-0.29-2.66,0.02c-0.41,0.15-0.77,0.43-1,0.79c-0.23,0.37-0.34,0.81-0.37,1.28
						c-0.07,0.93,0.13,1.97-0.23,3.03c-0.37,1.09-1.46,1.72-2.49,1.94c-2.14,0.49-4.25-0.5-6.18,0.17c-1.9,0.63-3.37,2.57-3.42,4.63
						c-0.03,0.52,0.08,1.01,0.21,1.54c0.12,0.52,0.25,1.11,0.1,1.72c-0.16,0.6-0.62,1.1-1.14,1.35c-0.52,0.26-1.06,0.38-1.58,0.5
						c-1.02,0.23-2.11,0.37-2.76,1.04c-0.31,0.33-0.48,0.78-0.46,1.23c0.02,0.46,0.19,0.93,0.39,1.38c0.41,0.91,0.98,1.78,1.23,2.83
						c0.12,0.52,0.09,1.1-0.11,1.62c-0.21,0.52-0.61,0.94-1.05,1.22c-0.89,0.58-1.91,0.78-2.87,0.91c-0.95,0.13-1.89,0.26-2.68,0.66
						c-0.8,0.38-1.32,1.15-1.37,2.01c-0.08,0.85,0.18,1.72,0.43,2.57c0.25,0.85,0.55,1.69,0.65,2.59c0.11,0.89-0.11,1.87-0.73,2.55
						c-0.62,0.68-1.48,0.98-2.28,1.16c-0.8,0.18-1.61,0.24-2.35,0.37c-0.74,0.14-1.46,0.38-2.05,0.77
						c-0.59,0.38-1.02,0.97-1.05,1.63c-0.05,0.65,0.24,1.28,0.61,1.82c0.37,0.55,0.81,1.04,1.21,1.55c0.4,0.51,0.78,1.04,0.94,1.67
						c0.17,0.63,0.02,1.31-0.34,1.79c-0.73,0.95-1.77,1.37-2.35,2.1c-0.29,0.35-0.45,0.78-0.4,1.2c0.03,0.41,0.23,0.78,0.44,1.11
						c0.43,0.65,0.96,1.15,1.22,1.74c0.23,0.59,0.22,1.15,0.1,1.56c-0.13,0.42-0.41,0.66-0.63,0.72
						C126.32,280.35,126.21,280.31,126.21,280.31z"/>
				</g>
			</g>
			<g>
				<g>
					<path class="st10" d="M209.41,281.04c0.02-0.04,0.17,0.21,0.6,0.24c0.42,0.04,1.08-0.26,1.49-0.97
						c0.42-0.71,0.18-1.77,0.07-2.97c-0.06-0.61,0.03-1.3,0.26-1.95c0.21-0.66,0.51-1.32,0.65-2.03c0.16-0.71-0.01-1.47-0.59-1.99
						c-0.58-0.51-1.4-0.77-2.24-1.02c-0.83-0.28-1.81-0.45-2.56-1.25c-0.35-0.41-0.51-0.99-0.41-1.53c0.1-0.55,0.42-1.01,0.77-1.39
						c0.67-0.77,1.57-1.38,1.9-2.26c0.37-0.9-0.31-1.83-1.22-2.29c-0.89-0.52-2.03-0.6-3.11-1.09c-0.54-0.24-1.07-0.6-1.42-1.13
						c-0.36-0.52-0.52-1.16-0.51-1.77c0.01-1.24,0.47-2.36,0.97-3.37c0.49-1,0.98-2,1.11-3.02c0.15-1.03-0.26-2-0.96-2.71
						c-0.69-0.73-1.56-1.3-2.3-2.01c-0.76-0.69-1.34-1.61-1.57-2.57c-0.25-0.96-0.26-1.9-0.25-2.8c0.03-1.78,0.16-3.45-0.35-4.84
						c-0.47-1.4-1.31-2.5-2.19-3.29c-0.87-0.8-1.8-1.28-2.57-1.57c-1.58-0.58-2.55-0.45-2.54-0.52c0-0.02,0.23-0.03,0.68-0.03
						c0.44,0.04,1.12,0.08,1.93,0.37c0.81,0.28,1.78,0.74,2.7,1.55c0.93,0.79,1.83,1.92,2.35,3.39c0.56,1.48,0.44,3.21,0.43,4.97
						c0,0.88,0.02,1.79,0.26,2.68c0.22,0.89,0.73,1.68,1.45,2.33c0.71,0.67,1.58,1.23,2.34,2.02c0.77,0.76,1.29,1.95,1.1,3.11
						c-0.29,2.31-2.08,4.09-2.07,6.33c0,0.54,0.13,1.06,0.42,1.48c0.28,0.43,0.72,0.73,1.2,0.95c0.97,0.45,2.12,0.54,3.14,1.12
						c0.5,0.28,0.97,0.65,1.28,1.17c0.32,0.51,0.37,1.19,0.16,1.74c-0.45,1.11-1.39,1.69-2.01,2.41c-0.32,0.35-0.59,0.74-0.66,1.15
						c-0.08,0.41,0.04,0.85,0.3,1.16c0.55,0.63,1.51,0.86,2.33,1.13c0.84,0.27,1.71,0.54,2.38,1.14c0.33,0.3,0.57,0.7,0.68,1.12
						c0.11,0.42,0.08,0.85,0,1.23c-0.17,0.77-0.48,1.43-0.7,2.07c-0.23,0.63-0.32,1.24-0.28,1.83c0.08,1.16,0.32,2.28-0.18,3.09
						c-0.48,0.76-1.21,1.04-1.67,0.97C209.52,281.31,209.41,281.02,209.41,281.04z"/>
				</g>
			</g>
		</g>
		<g class="st12">
			<polygon points="140.25,338.09 140.25,364.78 133.34,365.32 130.81,355.75 			"/>
		</g>
	</g>
</g>
</svg>
