<svg xmlns="http://www.w3.org/2000/svg" viewBox="0 0 379.24 340.19"><defs><style>.a{fill:#4c4159;}.b{fill:#ff84aa;}.c{fill:#b1acff;}.d{fill:#ffcd79;}.e{fill:#c5866e;}.f{fill:#f8a68b;}.g{fill:#ea8577;}.h{fill:#fff;}.i{fill:#ffc4b3;}.j{fill:#ecb99c;}.k{fill:#756487;}.l{fill:#ffe8c8;}.m{fill:#ffd6bd;}.n{fill:#522d34;}.o{fill:#6f3d47;}.p{fill:#bb7664;}.q{fill:#ec957f;}</style></defs><path class="a" d="M151.41,285.92c-36.39-6.49,13.49-12.18-31.18-52.18S71,126.51,94.8,113.72s67.12-10.5,81.3-27.86,37.22-55.28,68.64-45.23,15.45,32,54.95,36.09,78-19.64,100.53,11-1.64,52,9.33,72.36S397.4,262.42,339.06,272.58,191.58,273.63,151.41,285.92Z" transform="translate(-59.65 -27.97)"/><path class="a" d="M331.1,139.09c35.06,11.72-15.12,10.08,23.25,56.16S387.4,308.5,362,317.7s-67.94.62-84.49,15.73-26.72,26.63-65.08,24.33-20-23.47-58.53-33.29-34.81-25-52.69-58.52,30.07-116.29,89.27-117.85S289.56,145.4,331.1,139.09Z" transform="translate(-59.65 -27.97)"/><path class="a" d="M317.53,286.25c-27.39,0-60-4.78-91.66-9.41-36.49-5.35-71-10.39-92.91-7.38h-.06l-.07,0c-8.36-2.93-12.15-5.1-13.07-7.52-.72-1.9.34-3.8,1.67-6.22,3.57-6.44,9.55-17.22-11.18-42.83-26.43-32.67-30.8-74.4-23.67-99.34,3.57-12.5,9.91-20.89,17.84-23.64,10.93-3.79,25-4.29,38.71-4.76,18.7-.66,36.37-1.27,45.9-9.73,2.21-2,4.65-4.27,7.23-6.71,16.86-16,42.35-40.08,68.06-27,13.35,6.79,16.72,14.37,20,21.71,3.88,8.75,7.55,17,28.47,22.67,13.38,3.61,27,3.85,40.23,4.07,24.71.43,46.05.79,57.44,22.93,10.16,19.75,5.12,34,.68,46.51-3.16,8.93-6.14,17.36-3,26.44,4.08,11.81-4.29,37.52-19.06,58.54-10.82,15.39-34.13,41.27-68.74,41.7ZM148.18,268c21.2,0,48.85,4.05,77.77,8.28,32.67,4.79,66.46,9.74,94.35,9.39,14.75-.18,43.23-5.8,68.29-41.45,12.87-18.32,23.49-45,19-58-3.21-9.27-.19-17.79,3-26.82,4.41-12.44,9.4-26.53-.65-46.06C398.69,91.47,377.51,91.11,353,90.69c-13.23-.23-26.92-.47-40.37-4.1-21.18-5.72-24.89-14.11-28.83-23-3.22-7.25-6.54-14.74-19.72-21.43-25.35-12.88-50.67,11.08-67.41,26.93-2.59,2.44-5,4.76-7.25,6.72C179.72,84.42,162,85,143.15,85.7c-13.62.47-27.7,1-38.55,4.73-7.75,2.69-14,10.95-17.48,23.26C80,138.5,84.38,180,110.69,212.52c21,25.91,14.87,36.9,11.24,43.47-1.32,2.37-2.27,4.09-1.64,5.74.84,2.21,4.63,4.35,12.66,7.17A113.08,113.08,0,0,1,148.18,268Z" transform="translate(-59.65 -27.97)"/><path class="b" d="M423.23,222.49c17.63,19.87.08,64.22-39.19,99.07s-85.4,47-103,27.13,21.1-34.24,60.38-69.09S405.6,202.62,423.23,222.49Z" transform="translate(-59.65 -27.97)"/><path class="b" d="M309.34,368.17c-7.25,0-13.52-2-18.47-5.9-3.95-3.14-6-6.52-6.26-10.33-.65-9.65,10.18-21,25.18-36.61,8.8-9.19,18.79-19.61,28.58-31.93,9.53-12,17.82-24.49,25.13-35.51,13.55-20.44,24.26-36.58,35.13-38.29,3.72-.6,7.29.51,10.89,3.37h0c10.14,8.06,13.48,23.41,9.4,43.23s-15,41.6-30.85,61.51-34.63,35.53-53,44C325.69,366,317,368.16,309.34,368.17ZM400.55,210a11.29,11.29,0,0,0-1.83.15c-10.63,1.68-21.27,17.73-34.75,38-7.32,11-15.62,23.54-25.16,35.55-9.81,12.34-19.8,22.77-28.62,32-14.89,15.54-25.65,26.77-25,36.18.25,3.65,2.23,6.89,6.05,9.93,10,7.92,25.48,7.68,43.66-.68s37-23.94,52.75-43.79,26.69-41.61,30.74-61.27.77-34.76-9.2-42.68A13.76,13.76,0,0,0,400.55,210Z" transform="translate(-59.65 -27.97)"/><path class="b" d="M70.41,167.56c-10.36-10.15-10.19-36.4,9.88-56.87s47-22.58,57.33-12.43-14.92,14.3-35,34.78S80.76,177.71,70.41,167.56Z" transform="translate(-59.65 -27.97)"/><path class="b" d="M68.81,166.83h0c-1.64,0-3.21-1.05-4.82-3.18-4.51-6-5.56-15.5-2.81-25.5,3.09-11.22,10.57-21.76,21-29.68S105.11,96,117,95.7c10.71-.23,19.75,3.14,24.2,9,1.56,2.06,2.1,3.85,1.67,5.48-1,3.64-6.66,6.1-14.55,9.49s-17.56,7.57-26.92,14.63c-9.64,7.29-16.29,15.87-21.15,22.14C75.54,162.48,72.17,166.83,68.81,166.83ZM118,96.25h-1C105.24,96.52,93,101,82.55,108.92S64.76,127.2,61.7,138.3c-2.71,9.83-1.69,19.18,2.72,25,1.49,2,2.92,2.95,4.37,3h0c3.09,0,6.39-4.26,10.94-10.14,4.88-6.3,11.56-14.92,21.26-22.24,9.41-7.11,19.19-11.32,27-14.7s13.33-5.75,14.23-9.12c.38-1.45-.13-3.09-1.58-5C136.51,99.51,128.07,96.25,118,96.25Z" transform="translate(-59.65 -27.97)"/><path class="b" d="M214.86,166.79c-2,0-4.72-1.6-8.21-3.69-4.27-2.54-9.58-5.71-16.11-7.46-6.73-1.8-13.06-1.54-17.69-1.34-4.37.18-7.52.31-8.8-1.28-.7-.87-.79-2.16-.28-4.05h0c1.3-4.85,5.48-9.46,11.19-12.31a30.23,30.23,0,0,1,21.37-1.92,32.08,32.08,0,0,1,18,12.29c3.79,5.37,5.28,11.43,4,16.22-.49,1.81-1.24,2.89-2.3,3.32A3,3,0,0,1,214.86,166.79ZM178.05,153.6a48.64,48.64,0,0,1,12.64,1.5c6.61,1.77,11.95,5,16.24,7.52,4.08,2.43,7,4.19,8.89,3.43.88-.36,1.53-1.32,2-3,1.24-4.63-.22-10.51-3.91-15.75a31.5,31.5,0,0,0-17.68-12.06c-11-2.95-28.41.89-31.88,13.83h0c-.45,1.67-.39,2.84.18,3.55,1.1,1.37,4.13,1.24,8.34,1.07C174.39,153.67,176.15,153.6,178.05,153.6Z" transform="translate(-59.65 -27.97)"/><path class="c" d="M241.68,70c5.86-22.54,42.56-43.28,87.12-31.7s69,47.39,63.13,69.93-31.85-9.35-76.4-20.93S235.82,92.51,241.68,70Z" transform="translate(-59.65 -27.97)"/><path class="c" d="M389.15,103.64c-5.28,0-12.63-2.26-21.72-5-13.08-4-29.37-9-48.19-10.12-19.39-1.13-36.47,2.46-48.95,5.08-11.93,2.5-20.55,4.31-24.59.83-1.94-1.67-2.77-4.54-2.52-8.76h0c.69-12,9.29-24.65,23-34,15.43-10.49,35.5-15.6,56.53-14.37s40.95,8.5,55.68,20.47c13.29,10.82,20.82,24.31,20.14,36.09-.24,4.08-1.41,6.8-3.59,8.31A10,10,0,0,1,389.15,103.64Zm-77.33-16c2.44,0,4.93.07,7.45.22C338.16,89,354.48,94,367.6,98.05s22.37,6.87,27,3.63c2-1.41,3.12-4,3.35-7.88.67-11.6-6.78-24.92-19.94-35.62-14.63-11.9-34.29-19.13-55.36-20.35-20.9-1.22-40.85,3.85-56.18,14.27-13.58,9.23-22.09,21.78-22.77,33.55h0c-.24,4,.52,6.75,2.33,8.3,3.83,3.3,12.33,1.52,24.11-1C281.06,90.71,295.44,87.69,311.82,87.69Z" transform="translate(-59.65 -27.97)"/><path class="a" d="M372,80.53c-3.64,0-8.79-2.69-15.45-6.16-8-4.19-18-9.41-30.17-12.51-12.49-3.2-24-3.17-32.48-3.15-8.17,0-14.08,0-16.26-2.77-1-1.32-1.21-3.21-.55-5.79l.27.07-.27-.07c1.9-7.39,9.05-14.22,19.14-18.27,11.33-4.56,25-5.15,38.61-1.67s25.7,10.59,33.87,20c7.39,8.47,10.69,17.88,8.82,25.17-.63,2.49-1.71,4-3.28,4.74A5.44,5.44,0,0,1,372,80.53ZM296.11,58.15c8.22,0,18.9.22,30.38,3.16,12.19,3.13,22.23,8.36,30.29,12.56s13.83,7.21,17.21,5.7c1.41-.62,2.38-2,3-4.36,1.82-7.11-1.43-16.33-8.7-24.67-8.1-9.29-20-16.31-33.59-19.79s-27-2.86-38.26,1.65c-9.93,4-17,10.68-18.8,17.89-.62,2.4-.47,4.13.44,5.3,2,2.6,7.8,2.58,15.82,2.56Z" transform="translate(-59.65 -27.97)"/><path class="d" d="M345.84,187.69a3.16,3.16,0,1,1-3.16-3.15A3.15,3.15,0,0,1,345.84,187.69Z" transform="translate(-59.65 -27.97)"/><circle class="d" cx="166.05" cy="316.1" r="3.16"/><path class="d" d="M342.68,159a3.16,3.16,0,1,1-3.15-3.16A3.15,3.15,0,0,1,342.68,159Z" transform="translate(-59.65 -27.97)"/><circle class="d" cx="61.26" cy="124.72" r="3.16"/><path class="d" d="M180.41,120.5a3.16,3.16,0,1,1-3.16-3.15A3.15,3.15,0,0,1,180.41,120.5Z" transform="translate(-59.65 -27.97)"/><circle class="d" cx="281.22" cy="96.16" r="1.81"/><circle class="d" cx="198.43" cy="304.84" r="1.81"/><path class="d" d="M378.07,136.23a1.82,1.82,0,1,1-1.82-1.81A1.82,1.82,0,0,1,378.07,136.23Z" transform="translate(-59.65 -27.97)"/><path class="d" d="M218.86,100.16a1.81,1.81,0,1,1-1.81-1.81A1.81,1.81,0,0,1,218.86,100.16Z" transform="translate(-59.65 -27.97)"/><path class="d" d="M213.74,157.12a1.81,1.81,0,1,1-1.81-1.81A1.81,1.81,0,0,1,213.74,157.12Z" transform="translate(-59.65 -27.97)"/><path class="d" d="M121.48,230a1.82,1.82,0,1,1-1.82-1.82A1.82,1.82,0,0,1,121.48,230Z" transform="translate(-59.65 -27.97)"/><circle class="d" cx="171.78" cy="31.4" r="1.81"/><path class="d" d="M318.73,118.69a1.82,1.82,0,1,1-1.82-1.81A1.81,1.81,0,0,1,318.73,118.69Z" transform="translate(-59.65 -27.97)"/><circle class="d" cx="240.47" cy="72.67" r="1.81"/><path class="d" d="M157.39,120.5a1.81,1.81,0,1,1-1.81-1.81A1.82,1.82,0,0,1,157.39,120.5Z" transform="translate(-59.65 -27.97)"/><circle class="d" cx="120.58" cy="150.64" r="0.91"/><circle class="d" cx="102.56" cy="165.53" r="0.91"/><path class="d" d="M119.66,253.66a.91.91,0,1,1-.9-.91A.9.9,0,0,1,119.66,253.66Z" transform="translate(-59.65 -27.97)"/><circle class="d" cx="77.07" cy="182.87" r="0.91"/><path class="d" d="M307.74,135.87a.91.91,0,1,1-1.81,0,.91.91,0,0,1,1.81,0Z" transform="translate(-59.65 -27.97)"/><path class="d" d="M364.36,140.73a.91.91,0,0,1-1.81,0,.91.91,0,1,1,1.81,0Z" transform="translate(-59.65 -27.97)"/><circle class="d" cx="243.5" cy="135.69" r="0.91"/><circle class="d" cx="180.13" cy="315.19" r="0.91"/><circle class="d" cx="125.08" cy="114.81" r="0.91"/><circle class="d" cx="88.96" cy="132.07" r="0.91"/><path class="d" d="M285.77,124.78a.91.91,0,0,1-1.81,0,.91.91,0,1,1,1.81,0Z" transform="translate(-59.65 -27.97)"/><path class="d" d="M212.83,78.43a.91.91,0,0,1-1.81,0,.91.91,0,1,1,1.81,0Z" transform="translate(-59.65 -27.97)"/><path class="c" d="M177.1,335.82c-12.65,13.22-45.78,13.4-71.92-11.61S76,265.27,88.64,252.05s18.27,18.61,44.41,43.62S189.75,322.6,177.1,335.82Z" transform="translate(-59.65 -27.97)"/><path class="c" d="M149.12,340.43c-13.85,0-28.32-4.81-41.07-13.69-13.69-9.54-24-22.55-28.89-36.64-4.47-12.73-4-24.88,1.35-32.5,1.84-2.65,3.76-4,5.87-4.12,4.71-.26,9.87,5.6,17,13.72s15.95,18.11,28.1,26.58c12.52,8.72,25.43,13.34,34.86,16.71,9,3.24,15.57,5.57,16.85,9.59.62,1.94,0,4.22-1.92,7-5.38,7.74-16.39,12.71-29.43,13.32C151,340.4,150,340.43,149.12,340.43ZM86.69,254h-.28c-1.92.11-3.7,1.38-5.44,3.88-5.21,7.48-5.69,19.44-1.28,32,4.9,14,15.09,26.9,28.68,36.37s28.93,14.2,43.46,13.52c12.87-.6,23.71-5.49,29-13.08,1.81-2.59,2.41-4.7,1.85-6.47-1.2-3.75-7.62-6.05-16.51-9.23-9.46-3.38-22.41-8-35-16.78-12.2-8.51-21.07-18.58-28.2-26.67C96.08,259.74,91.05,254,86.69,254Z" transform="translate(-59.65 -27.97)"/><path class="a" d="M130,347.8A46,46,0,0,1,104,339.16c-8.64-6-15.12-14.24-18.24-23.14-2.83-8-2.5-15.74.86-20.58,1.18-1.69,2.42-2.56,3.78-2.63,3-.17,6.28,3.54,10.81,8.68s10,11.4,17.69,16.73c7.88,5.48,16,8.39,21.94,10.52,5.73,2.05,9.86,3.53,10.68,6.11.41,1.25,0,2.72-1.22,4.47l-.23-.16.23.16c-3.41,4.9-10.37,8.06-18.63,8.44C131.12,347.79,130.54,347.8,130,347.8ZM90.62,293.36h-.17c-1.17.06-2.27.85-3.35,2.4-3.26,4.68-3.56,12.18-.79,20.06,3.08,8.79,9.49,16.91,18,22.87s18.18,8.92,27.32,8.5c8.08-.38,14.88-3.44,18.19-8.2,1.12-1.6,1.49-2.9,1.15-4-.74-2.32-4.77-3.76-10.34-5.75-6-2.14-14.13-5.06-22.07-10.59-7.7-5.37-13.3-11.72-17.79-16.82C96.48,296.94,93.33,293.36,90.62,293.36Z" transform="translate(-59.65 -27.97)"/><path class="e" d="M321.61,217.59c-5.36,6.45-11.28,10.38-13.2,8.78s.86-8.13,6.22-14.58,11.28-10.38,13.2-8.78S327,211.14,321.61,217.59Z" transform="translate(-59.65 -27.97)"/><path class="e" d="M172.42,218.83C166.54,213,163.21,206.75,165,205s8,1.56,13.85,7.44,9.21,12.08,7.43,13.85S178.3,224.71,172.42,218.83Z" transform="translate(-59.65 -27.97)"/><path class="f" d="M187.4,187.86l-34.53,39s-18-21.69-21.26-29.59-3.22-13.62.44-22.15c1.6-5.24-7.19-14.71-10.47-13.3a1.31,1.31,0,0,0-.66.58,1.28,1.28,0,0,0-.15-.68c-1.57-3-15-.48-15,3.79a9.08,9.08,0,0,0,3.26,6.75s-14.81-6.93-19.67-4.69c-1.39.76-.5,1.72-.5,1.72s-2.68-.61-2.68,1.46,14.21,10.16,14.21,10.16-13.64-3-14.37-.46,26.87,13.09,26.87,13.09,13.83,59.84,33.15,57.91S189.22,216,189.22,216Zm-75.5-20.48s7.6-2,8.85-4.41c-.24,2.69,4.86,8.36,4.86,8.36L121.82,176Z" transform="translate(-59.65 -27.97)"/><path class="f" d="M265.64,316.24l10.54,2.84,7.36,1.83c3,.45,6-18.88,4.95-19.1-7.61-1.58-17-4.55-17-4.55Z" transform="translate(-59.65 -27.97)"/><path class="g" d="M274.66,298.23l-3.49,19.5,4.95,1.34.6.15c-1.74-2.13,1.41-17.09,7.09-18.47C280.54,299.93,276.89,298.89,274.66,298.23Z" transform="translate(-59.65 -27.97)"/><path class="h" d="M311.29,311.83c-2.11-9.14-11.93-8.19-19.78-9.45-.95-.16-2-.35-3-.57-3.49,2.17-7.1,13.95-4.95,19.11,3,.44,4.95,3.3,4.95,6.43,0,7.5-10.36,22.82-.19,23.75S313.4,321,311.29,311.83Z" transform="translate(-59.65 -27.97)"/><path class="i" d="M302.46,303.87a11.9,11.9,0,0,0-1.33,3,11.56,11.56,0,0,0,8.06,14.23,9.18,9.18,0,0,0,1,.23c1.13-3.93,1.59-7.34,1.09-9.52C310.13,306.82,306.66,304.84,302.46,303.87Z" transform="translate(-59.65 -27.97)"/><path class="i" d="M284.5,342c-1.24,4.74-1.18,8.65,3.8,9.1,3.16.29,6.77-2.5,10.19-6.76C292.49,339.81,287.68,340.45,284.5,342Z" transform="translate(-59.65 -27.97)"/><path class="i" d="M287.72,324.08a40,40,0,0,1,7.7-21.21l-.8-.09a40.65,40.65,0,0,0-7.53,20.28A6.66,6.66,0,0,1,287.72,324.08Z" transform="translate(-59.65 -27.97)"/><path class="f" d="M403.72,177.38s.19-1.18-1.41-2-18.36.67-18.36.67,1.7-2.11.8-5.88-11-7.81-12.2-5.85,6.27,5.47,6.27,5.47-.08,4.06-1.68,4.58c-7.71,2.48-8.84,2-8.84,2a12.26,12.26,0,0,0-2.09-3.79c1.94-2.09,7.17-5.37,6.05-7.88s-13.81,5.82-13,9.74a48.83,48.83,0,0,1,.88,6.26c.39,5.34-2.67,12.24-5.25,17.41s-19.32,26.16-19.32,26.16l-22.8-30.44L309,221.39c.51.51,9,26.41,25.23,26.92s40.49-52.68,40.49-52.68,28.53-4,28.39-6.66S389,185.3,389,185.3s15.77-2.86,16-5.76A1.84,1.84,0,0,0,403.72,177.38Z" transform="translate(-59.65 -27.97)"/><path class="j" d="M179.53,240.47s-67.39,6.87-64.21,40.93S273,320.05,273,320.05c-3.5-5.37,10.69-19.31.27-29.47s-85.76-14.41-85.76-14.41L299.28,278,244,287.21c6.55,2.14,15.53,27.46,11.44,34,0,0,112-8.41,111.73-44.75s-56.63-38.55-56.63-38.55S216.48,235.89,179.53,240.47Z" transform="translate(-59.65 -27.97)"/><path class="f" d="M230.23,125.5s-5.68-5.36-7.8-.93,4.71,12.72,8.4,11.09S230.23,125.5,230.23,125.5Z" transform="translate(-59.65 -27.97)"/><path class="g" d="M229.75,127.09s-4.14-3.91-5.69-.68,3.44,9.27,6.13,8.09S229.75,127.09,229.75,127.09Z" transform="translate(-59.65 -27.97)"/><path class="h" d="M229.11,125.28s-7-6.48-5.37-18S235,99.42,235,99.42s3.45-8.76,11.93-8.23,15.14,9.17,21.74,10.41A15.82,15.82,0,0,0,279.59,100s0,19-15.17,26.09S229.11,125.28,229.11,125.28Z" transform="translate(-59.65 -27.97)"/><path class="k" d="M116.55,207.48c6.42.62,16.12-4.12,16.76-7.44,0,0-2.2-6.81-2.47-7.28a1.33,1.33,0,0,0-.93-.54c-4.07,4.52-12.59,7-15.66,6.6A1,1,0,0,0,114,200C114.22,200.73,116.55,207.48,116.55,207.48Z" transform="translate(-59.65 -27.97)"/><path class="f" d="M265.62,125.5s5.68-5.36,7.8-.93-4.71,12.72-8.4,11.09S265.62,125.5,265.62,125.5Z" transform="translate(-59.65 -27.97)"/><path class="g" d="M265.53,126.82s4.32-4.08,5.93-.71-3.58,9.67-6.38,8.44S265.53,126.82,265.53,126.82Z" transform="translate(-59.65 -27.97)"/><path class="l" d="M184.23,240,190,223.39l-3.62,2.78c1.66-2.91-16.4-22.39-21.26-21.31,0,0,29.83-34.33,48.89-40.13,31.35-9.55,57.6-6.31,74,3,9.39,5.35,40.11,35.52,40.11,35.52-6.44-1.09-20.68,19-19.77,23l-2.87-3.91,4.23,15.46C271.67,249.49,233.65,251.17,184.23,240Z" transform="translate(-59.65 -27.97)"/><path class="m" d="M299.79,214.12s-1.94,9.34-11.08,9.69S270.48,198,261.35,198.05s-12.25,24.61-28.05,24.61-11-13.4-19.61-12.93-27.58,24.93-27.58,24.94L184.23,240c49.42,11.22,87.44,9.54,125.43-2.11l-4.23-15.31S297.68,210.73,299.79,214.12Z" transform="translate(-59.65 -27.97)"/><path class="h" d="M185.28,236.05l4.45-12.76c4.3-10.54,9.56-24.11,12.1-35.68l0-.08.06-.06a14,14,0,0,1,9.42-3.25c2.61,0,4.9,2.82,7.56,6,3.45,4.18,7.36,8.92,12.83,8.39,4.83-.47,12.49-4.4,19.89-8.21,7.69-3.95,15-7.69,19.54-8,5.36-.34,6.92,4.3,8.29,8.4,1.05,3.12,2,6.06,4.45,6.79,1.83.55,3.24.47,4.19-.24a4,4,0,0,0,1.32-2.91v-1.36l.55,1.25A151.69,151.69,0,0,0,300,213.82l.06.1,0,.11c0,.09-2.1,9.56-11.35,9.91-4.73.19-9.46-6.52-14-13-4.4-6.27-9-12.75-13.33-12.75h0c-3.78,0-6.53,4.5-9.71,9.67-4.31,7-9.19,14.93-18.34,14.93s-11.6-4.54-13.51-8.2c-1.45-2.74-2.58-4.91-6.08-4.72-8.38.46-27.19,24.58-27.38,24.82Zm17.08-48.23c-2.55,11.59-7.81,25.15-12.11,35.67L186.93,233c4.12-5.15,19.18-23.32,26.75-23.73,3.86-.23,5.13,2.21,6.6,5,1.95,3.7,4.15,7.9,13,7.9s13.63-7.79,17.86-14.66c3.27-5.32,6.1-9.91,10.19-9.94h0c4.67,0,9.3,6.6,13.79,13s9.06,12.93,13.52,12.76c8.29-.32,10.54-8.33,10.79-9.36a150.86,150.86,0,0,1-9.66-18.49,4,4,0,0,1-1.42,2.32c-1.1.82-2.68.93-4.69.33-2.68-.82-3.72-3.89-4.81-7.15-1.37-4.1-2.8-8.33-7.73-8-4.46.28-12,4.17-19.31,7.92-7.45,3.83-15.16,7.79-20.1,8.27-5.76.55-9.78-4.3-13.32-8.59-2.56-3.12-4.78-5.8-7.13-5.84A13.64,13.64,0,0,0,202.36,187.82Z" transform="translate(-59.65 -27.97)"/><path class="f" d="M234.52,159.8V143.21l26.83,1.13L261,159.43s1.49,19.39-12.89,19.39S234.52,159.8,234.52,159.8Z" transform="translate(-59.65 -27.97)"/><path class="g" d="M234.52,153v-9.77l26.83.66-.31,8.9s-3.87,11.14-12.89,10.54S234.52,153,234.52,153Z" transform="translate(-59.65 -27.97)"/><path class="f" d="M236.36,109.17c-.66,8-3.19,12.3-7.25,16.11l2.36,22.92s9.55,9.07,11.62,9.17,3.85-.35,5.63-.35,3.32.58,5.83.36,9.73-9.07,9.73-9.07l1.34-22.81-2.36-9.21S243,120.18,236.36,109.17Z" transform="translate(-59.65 -27.97)"/><path class="g" d="M249.9,135.33h-5.84a.29.29,0,0,1-.28-.28l-.54-15.5a.27.27,0,0,1,.27-.29.28.28,0,0,1,.29.27l.54,15.23h5.56a.29.29,0,0,1,0,.57Z" transform="translate(-59.65 -27.97)"/><path class="n" d="M247.89,140.73a13,13,0,0,1-1.8-.12.28.28,0,0,1-.24-.32.29.29,0,0,1,.32-.24c.07,0,6.79,1,9.29-3.41a.29.29,0,0,1,.39-.1.28.28,0,0,1,.1.38C254.08,140.2,250.19,140.73,247.89,140.73Z" transform="translate(-59.65 -27.97)"/><path class="g" d="M232.9,123s.29,4.74,5,5,4-5.34,3.56-6.93S232.9,123,232.9,123Z" transform="translate(-59.65 -27.97)"/><path class="o" d="M241.93,120.31c.47,1.92-3.84,2.45-6.94,2.82-1.81.22-2.42.42-2.62.21s.16-1.21,1.72-2.14C236.89,119.55,241.44,118.37,241.93,120.31Z" transform="translate(-59.65 -27.97)"/><path class="n" d="M237.65,128.21h0a4.1,4.1,0,0,1-3.86-2.17.27.27,0,0,1,.13-.37.28.28,0,0,1,.38.13,3.55,3.55,0,0,0,3.35,1.85h0a4.1,4.1,0,0,0,3.79-2.21.28.28,0,0,1,.37-.14.3.3,0,0,1,.14.38A4.64,4.64,0,0,1,237.65,128.21Z" transform="translate(-59.65 -27.97)"/><path class="g" d="M250,119.54s-1.19,7.63,4.43,7.75,4.64-7.12,4.64-7.12Z" transform="translate(-59.65 -27.97)"/><path class="n" d="M254.56,127.57h0a4.1,4.1,0,0,1-3.86-2.17.27.27,0,0,1,.14-.37.27.27,0,0,1,.37.13,3.55,3.55,0,0,0,3.35,1.85h0a4.1,4.1,0,0,0,3.79-2.21.3.3,0,0,1,.38-.14.28.28,0,0,1,.13.38A4.63,4.63,0,0,1,254.56,127.57Z" transform="translate(-59.65 -27.97)"/><path class="o" d="M249.87,119.2c-.3,2,4,1.35,7.17,1.43,1.81.05,2.12.4,2.3.17s.06-1.28-1.59-2C254.82,117.36,250.17,117.22,249.87,119.2Z" transform="translate(-59.65 -27.97)"/><path class="g" d="M252.33,151.23c0,.64-1.73.37-3.86.37s-3.86.27-3.86-.37,1.73-1.78,3.86-1.78S252.33,150.58,252.33,151.23Z" transform="translate(-59.65 -27.97)"/><path class="h" d="M235.32,100.36c-1.12-5.07,4.92-8.63,9.2-9a11.46,11.46,0,0,1,10.81,6c.21.4.82,0,.6-.36a12,12,0,0,0-19.31-2.68,6.91,6.91,0,0,0-2,6.16c.1.44.77.25.68-.19Z" transform="translate(-59.65 -27.97)"/><path class="h" d="M230.54,98.84c-4,.7-6.56,4.62-7.56,8.25a14.71,14.71,0,0,0,2.18,12.34c.26.36.87,0,.61-.36a14,14,0,0,1-2.17-11.56c.9-3.49,3.31-7.32,7.12-8,.45-.08.26-.76-.18-.68Z" transform="translate(-59.65 -27.97)"/><path class="g" d="M122.28,187a6,6,0,0,1-.46-11l-.57-.5a6.65,6.65,0,0,0,.76,12.18C122.44,187.83,122.7,187.18,122.28,187Z" transform="translate(-59.65 -27.97)"/><path class="g" d="M108.38,187.93a20.88,20.88,0,0,1,9.81-5c.44-.09.25-.77-.19-.68a21.53,21.53,0,0,0-10.12,5.14c-.33.31.17.8.5.5Z" transform="translate(-59.65 -27.97)"/><path class="g" d="M89.77,169.92q7.91,2.55,15.59,5.73c.41.17.6-.51.18-.68q-7.67-3.18-15.58-5.73c-.44-.14-.62.54-.19.68Z" transform="translate(-59.65 -27.97)"/><path class="g" d="M102.05,185.53a32,32,0,0,1,10-14.57c.35-.28-.15-.78-.49-.49a32.44,32.44,0,0,0-10.19,14.88c-.15.43.53.61.67.18Z" transform="translate(-59.65 -27.97)"/><path class="g" d="M112.89,193.5c1.24.64,3.78.41,3.78,1.15s-3.26,1-3.26,1Z" transform="translate(-59.65 -27.97)"/><path class="g" d="M368.31,176.36a12.58,12.58,0,0,1,1.19,11.41.36.36,0,0,0,.66.27,13.35,13.35,0,0,0-1-11.68A4.44,4.44,0,0,1,368.31,176.36Z" transform="translate(-59.65 -27.97)"/><path class="g" d="M371.08,183.78a12.19,12.19,0,0,1,8.5,5.74c.23.39.85.06.62-.33a12.92,12.92,0,0,0-9.09-6.11c-.44-.07-.47.63,0,.7Z" transform="translate(-59.65 -27.97)"/><path class="g" d="M379.1,175.91a57.31,57.31,0,0,1,9.48,14.37c.19.41.81.09.62-.32a58.29,58.29,0,0,0-9.58-14.53c-.3-.33-.82.14-.52.48Z" transform="translate(-59.65 -27.97)"/><path class="g" d="M387.75,180.25a52.62,52.62,0,0,1,14.66-1.87c.45,0,.49-.7,0-.7a52.86,52.86,0,0,0-14.85,1.89c-.43.12-.28.8.16.68Z" transform="translate(-59.65 -27.97)"/><path class="g" d="M374.74,195.63c-2.13.18-5.47-1.16-6-.49s2.54,3.52,4.79,2.86Z" transform="translate(-59.65 -27.97)"/><path class="g" d="M250.53,135c0,.54-1.51,1-3.38,1s-3.28-.33-3.28-.87,1.37-.26,3.23-.26S250.53,134.51,250.53,135Z" transform="translate(-59.65 -27.97)"/><path class="j" d="M249.57,283.28c-17.43,4.21-17.92,10.37-17.92,10.37l12.11,25.68s.73,1.3,12.85,2.55,110.73-9.13,110.51-45.47A29.68,29.68,0,0,0,364,263.1l-57,13.07S267,279.07,249.57,283.28Z" transform="translate(-59.65 -27.97)"/><path class="f" d="M235.14,315.44c-.34.59-8.32,4.75-8.32,4.75s-13.56,2.38-17.24,5.27-3.84-21,1.66-21.72c6.58-.88,13.83-5.6,18-7.83C237,291.84,235.14,315.44,235.14,315.44Z" transform="translate(-59.65 -27.97)"/><path class="p" d="M249.51,283.55c-23-4.74-56.58-7.24-86.4-9.06l0-.56c29.85,1.82,63.46,4.32,86.49,9.07Z" transform="translate(-59.65 -27.97)"/><path class="h" d="M211.24,303.74c-7.71,1.17-14.68-1.69-20.63,1.05-13.08,6-1.41,47.84,12.8,48.24s2.5-24.68,6.17-27.57a16.31,16.31,0,0,1,4.64-2.14C218.23,318,213.11,304.51,211.24,303.74Z" transform="translate(-59.65 -27.97)"/><path class="i" d="M190.61,304.79c-3.57,1.65-5.3,6-5.63,11.39a11.87,11.87,0,0,0,1.58.11,11.54,11.54,0,0,0,11.57-11.5,9.87,9.87,0,0,0-.07-1.22A16.41,16.41,0,0,0,190.61,304.79Z" transform="translate(-59.65 -27.97)"/><path class="i" d="M192.28,344.2c3.14,5.15,7,8.72,11.13,8.83,5.76.16,7.26-3.86,7.25-8.89C207.24,341.94,200.74,339.49,192.28,344.2Z" transform="translate(-59.65 -27.97)"/><path class="i" d="M206,304l-.86,0c4.2,6.32,4.51,14.16,4.36,21.58l.11-.11c.18-.14.38-.27.6-.41C210.3,317.82,209.91,310.22,206,304Z" transform="translate(-59.65 -27.97)"/><path class="p" d="M232.92,293.68c0-.33-.71-8.18,18.23-11.05,18.68-2.84,72.83-9.27,73.38-9.34l.06.56c-.54.07-54.69,6.5-73.36,9.33-18.34,2.79-17.76,10.36-17.75,10.44Z" transform="translate(-59.65 -27.97)"/><path class="e" d="M259.3,179c5.74-6.26,5.91-16.48,5.86-18.85l-.56-.09c0,2.11,0,12.35-5.71,18.56a15.56,15.56,0,0,1-11.53,4.91,15,15,0,0,1-11.44-4.22c-5.48-5.48-6.37-14.83-6.51-18.3l-.56.1c.16,3.6,1.1,13,6.67,18.59a15.35,15.35,0,0,0,11.27,4.4h.58A16.11,16.11,0,0,0,259.3,179Z" transform="translate(-59.65 -27.97)"/><path class="e" d="M308.7,234.34a235.64,235.64,0,0,1-63.33,8.37,259.77,259.77,0,0,1-59.49-7.5l-.19.53a260.32,260.32,0,0,0,59.67,7.53h1.27a235.75,235.75,0,0,0,62.22-8.39Z" transform="translate(-59.65 -27.97)"/><path class="e" d="M204.09,169.51l-.53.33c1.54,18-10.66,46.1-14.37,54.17l.8-.62-.3.87C193.43,216.13,205.79,187.64,204.09,169.51Z" transform="translate(-59.65 -27.97)"/><path class="e" d="M305.51,222.64c-5.51-7.72-23.58-35-20.24-56.33l-.52-.27c-3.72,22.87,17.1,52.59,21.18,58.15Z" transform="translate(-59.65 -27.97)"/><path class="q" d="M219.54,301.07a28.27,28.27,0,0,1,7.28,19.12l16.94-.86c1.09-10.86-2.46-19.52-10.58-26Z" transform="translate(-59.65 -27.97)"/><path class="p" d="M360,257.08c-2.32,4.92-7.17,19.48,3.13,31.43.12-.15.17-.26.29-.42-9.82-11.5-5.34-25.51-3-30.53Z" transform="translate(-59.65 -27.97)"/><path class="p" d="M122.56,292.5c3.9-5.62,5.46-11.17,4.63-16.51a21.42,21.42,0,0,0-6.47-11.84c-.12.15-.24.29-.35.44a20.78,20.78,0,0,1,6.26,11.49c.81,5.18-.71,10.59-4.51,16.07Z" transform="translate(-59.65 -27.97)"/><path class="p" d="M236.06,295.89,221.11,303l.34.46,15-7.17C236.33,296.18,236.2,296,236.06,295.89Z" transform="translate(-59.65 -27.97)"/><path class="p" d="M239.57,300.22l-15.87,7c.08.17.16.34.25.5l15.92-7Z" transform="translate(-59.65 -27.97)"/><path class="p" d="M242.76,307.11,225.7,312.2c.06.18.11.37.16.54l17.06-5.09C242.87,307.46,242.81,307.29,242.76,307.11Z" transform="translate(-59.65 -27.97)"/><path class="p" d="M244,315.31,226.69,317l.06.56,17.19-1.67C243.94,315.69,244,315.5,244,315.31Z" transform="translate(-59.65 -27.97)"/><rect class="p" x="297.17" y="273.12" width="19.89" height="0.56" transform="translate(-135.42 95.53) rotate(-20.3)"/><rect class="p" x="177.91" y="262.85" width="0.56" height="19.45" transform="matrix(0.35, -0.94, 0.94, 0.35, -198.93, 317.14)"/><path class="e" d="M169.75,199.74c6.14,1.12,20,13.17,20.19,22.7l.56,0c-.21-9.79-13.7-21.62-20.29-23.17Z" transform="translate(-59.65 -27.97)"/><path class="e" d="M320.94,196.35c-2.77,1.3-6,4.11-9.37,8.11-4.41,5.31-8.65,12.53-8.19,16.08l.56-.07c-.38-2.94,3.09-9.67,8.07-15.65,3.32-4,6.65-6.82,9.36-8Z" transform="translate(-59.65 -27.97)"/><path class="a" d="M129.11,195a5.08,5.08,0,0,0-2.32-.22c-.49.32-1,.63-1.52.91a5.82,5.82,0,0,1,3.65-.16,3.48,3.48,0,0,1,2.06,2.2,5.51,5.51,0,0,1-1.28,6.06,14.9,14.9,0,0,0,1.43-1,5.91,5.91,0,0,0,.37-5.26A4,4,0,0,0,129.11,195Z" transform="translate(-59.65 -27.97)"/><path class="a" d="M119.47,204a1.15,1.15,0,1,1,1.14-1.15A1.15,1.15,0,0,1,119.47,204Zm0-1.73a.58.58,0,1,0,.58.58A.58.58,0,0,0,119.47,202.29Z" transform="translate(-59.65 -27.97)"/><path class="a" d="M124.46,202.62a1.15,1.15,0,1,1,1.14-1.14A1.15,1.15,0,0,1,124.46,202.62Zm0-1.73a.59.59,0,1,0,.58.59A.58.58,0,0,0,124.46,200.89Z" transform="translate(-59.65 -27.97)"/><path class="a" d="M383.85,337.12a25.73,25.73,0,0,1-12.72-3c-2.71-1.52-4.16-3.2-4.44-5.13-.59-4.1,4.08-8.92,10.55-15.59s14.6-15.05,20.89-26.2c6.48-11.49,9.2-23.1,11.18-31.58,1.88-8,3.24-13.83,6.64-15.32,1.72-.76,3.91-.36,6.71,1.22,7.62,4.29,13.39,13.69,15.42,25.13,2.29,12.85-.33,26.82-7.37,39.31s-17.73,22.35-29.95,27.5A44,44,0,0,1,383.85,337.12Zm33.94-96.65a4.07,4.07,0,0,0-1.62.32c-3.13,1.38-4.47,7.07-6.31,14.94-2,8.51-4.72,20.16-11.24,31.72-6.33,11.22-14.45,19.6-21,26.33-6.35,6.55-10.94,11.28-10.39,15.11.25,1.74,1.61,3.29,4.16,4.72,7.36,4.16,18.26,3.9,29.13-.68,12.1-5.11,22.64-14.79,29.68-27.27s9.57-26.21,7.31-38.94c-2-11.27-7.67-20.52-15.15-24.73A9.65,9.65,0,0,0,417.79,240.47Z" transform="translate(-59.65 -27.97)"/></svg>