<svg xmlns="http://www.w3.org/2000/svg" viewBox="0 0 741.7 627.52"><defs><style>.a{isolation:isolate;}.b{fill:#f8f8f3;}.c{fill:#e56223;}.d{fill:#568743;}.e{fill:#b0b2b2;}.f{fill:#bc593e;}.g{fill:#fbfaf0;}.h{fill:#f5efdd;}.i{fill:#fefffe;}.av,.i{opacity:0.43;}.ae,.i,.t{mix-blend-mode:overlay;}.j,.l{fill:#d5d4cf;}.j{opacity:0.47;}.ac,.an,.ap,.j,.l,.n,.s,.v{mix-blend-mode:multiply;}.k{fill:#c0c2c9;}.l{opacity:0.21;}.m{fill:#a1b6a9;}.n{fill:#58524b;opacity:0.32;}.o{fill:#f7c7a3;}.p{fill:#e9ac99;}.q{fill:#737271;}.r,.s{fill:#007b44;}.s{opacity:0.64;}.t{fill:#55aa7c;}.ae,.t,.v{opacity:0.46;}.u,.v{fill:#daa884;}.w{fill:#dd572d;}.x{fill:#faf9f9;}.y{fill:#fce583;}.z{fill:#f4b12f;}.aa{fill:#44463f;}.ab{fill:#d42e1e;}.ac{fill:#bf8e24;}.ad{fill:#753724;}.ae{fill:#74bf91;}.af{fill:#1e2821;}.ag{fill:#c3c3ba;}.ah{fill:#fefefc;}.ai{fill:#c42922;}.aj{fill:#f9f6db;}.ak{fill:#e32021;}.al{fill:#8f3928;}.am{fill:#f9cf7a;}.an,.ap{opacity:0.29;}.ao{fill:#d5b37a;}.ap,.aq{fill:#cfa760;}.ar{fill:#d6d5cc;}.as{fill:#fcfcf7;}.at{fill:#fff;}.au,.av{fill:#e2e9e6;mix-blend-mode:screen;}</style></defs><g class="a"><path class="b" d="M249.07,641.6c-4.8,4.41-52,3.73-65.8.38-4.24-1-4.16-6.43-2-13.42a85,85,0,0,1,3.67-9.48c.64-1.42,1.3-2.85,2-4.27,1.06-2.18,2.17-4.34,3.29-6.43.81-1.55,1.63-3,2.43-4.5,4.74-8.5,9-15,9-15l44,11.82s1.37,6.08,2.68,13.58c.29,1.64.56,3.36.82,5.09h0c.34,2.23.65,4.49.9,6.66.17,1.64.32,3.22.42,4.71,0,.08,0,.14,0,.21C250.75,636.13,250.49,640.28,249.07,641.6Z" transform="translate(-18.68 -17.18)"/><path class="c" d="M210.61,602.54v3.73H201.9a48.21,48.21,0,0,0-11.68,2.11c.81-1.55,1.63-3,2.43-4.5a43,43,0,0,1,9.25-1.34Z" transform="translate(-18.68 -17.18)"/><path class="c" d="M202.52,614v3.74H193.8a40.08,40.08,0,0,0-8.86,1.35c.64-1.42,1.3-2.85,2-4.27a36.26,36.26,0,0,1,6.87-.82Z" transform="translate(-18.68 -17.18)"/><path class="d" d="M249.09,619.33c-4.39-3.1-9.85-6.58-13.87-7.87l-8.3-2.65,1.13-3.56,8.31,2.65c3.54,1.14,7.94,3.7,11.91,6.34C248.56,615.88,248.83,617.6,249.09,619.33Z" transform="translate(-18.68 -17.18)"/><path class="c" d="M250.41,630.71c-3.73-2.48-7.79-4.86-11-5.86l-8.3-2.65,1.15-3.56,8.29,2.65A45.34,45.34,0,0,1,250,626C250.16,627.64,250.31,629.22,250.41,630.71Z" transform="translate(-18.68 -17.18)"/><path class="e" d="M249.06,641.6c-4.79,4.41-52,3.73-65.79.38-4.24-1-4.16-6.43-2-13.42a86.89,86.89,0,0,0,27.09,5.92c16.08.91,37.3-2.69,42.07-3.56C250.75,636.13,250.48,640.28,249.06,641.6Z" transform="translate(-18.68 -17.18)"/><path class="c" d="M696.81,397.4c-10.78,4-58.11,16.33-58.33,16.39,0,0-18-22-20.58-27.87l-99.19-72.85-15.07,11.52s-46.69,101-60.09,115.2c-.24.26-.49.51-.72.74C427.93,455.42,406,471,406,471l-50.25-17s28.41-61.24,32.67-71.15c4.45-10.41,30-81.33,33.4-92.35,3.68-11.75,105.52-106.44,122.64-96,0,0,30.42,18.91,41.39,29.87S689.13,342.15,689.13,342.15,708,393.2,696.81,397.4Z" transform="translate(-18.68 -17.18)"/><path class="f" d="M660.83,407.88c-11.93,3.21-22.07,5.84-22.35,5.91,0,0-18-22-20.58-27.87l-99.19-72.85-15.07,11.52s-46.69,101-60.09,115.2c-.24.26-.49.51-.72.74C427.93,455.42,406,471,406,471l-50.25-17s28.41-61.24,32.67-71.15c4.45-10.41,30-81.33,33.4-92.35,1.78-5.67,28.32-32.52,56.49-56.49q2.58-2.2,5.18-4.36c35.88,14,128.48,51.94,128.48,71.73C612,317.52,641,372.31,660.83,407.88Z" transform="translate(-18.68 -17.18)"/><path class="g" d="M195.88,571.39c-3,5.92-1.91,14.48,2.82,18.94a151,151,0,0,0,41.44,27.78c5.81,2.6,13.53,0,17.55-5.29a478.83,478.83,0,0,1,89.08-89.46c5.64-4.33,5.23-11.79-1.1-16.42q-29-21-60-40.2c-6.83-4.19-16.39-3.43-20.76,1.76A537.62,537.62,0,0,0,195.88,571.39Z" transform="translate(-18.68 -17.18)"/><path class="h" d="M241.6,611.61h0c4.51,2.14,10.53.16,13.41-4.07a544.62,544.62,0,0,1,79.66-92.66c3.81-3.54,3.21-8.91-1.42-12.07h0c-4.64-3.15-11.58-2.76-15.41.94a543.14,543.14,0,0,0-79.26,95.79C235.76,603.91,237.09,609.47,241.6,611.61Z" transform="translate(-18.68 -17.18)"/><path class="h" d="M219.32,595.14h0c4.13,2.87,9.81,1.37,12.62-3a541.54,541.54,0,0,1,78.74-96.79c3.82-3.73,3.21-9.24-1.46-12.37h0c-4.68-3.13-11.57-2.65-15.31,1.11a538.91,538.91,0,0,0-77.09,97.59C214.1,586.09,215.18,592.27,219.32,595.14Z" transform="translate(-18.68 -17.18)"/><path class="h" d="M199,582.75h0c3.71,3.43,9,2.38,11.73-2.06a538,538,0,0,1,76.38-97.54c3.72-3.76,3-9.28-1.7-12.38h0c-4.69-3.09-11.42-2.64-14.94,1.07a539.39,539.39,0,0,0-73.38,96.49C194.5,572.73,195.3,579.31,199,582.75Z" transform="translate(-18.68 -17.18)"/><path class="i" d="M200.26,579h0a3.22,3.22,0,0,0,5-1.27,230.06,230.06,0,0,1,29.36-45c1.47-1.75,1-4.14-1.22-5.34h0a5.25,5.25,0,0,0-6.45.93,231.15,231.15,0,0,0-28.1,44.44A5.41,5.41,0,0,0,200.26,579Z" transform="translate(-18.68 -17.18)"/><path class="i" d="M220.87,591.56h0a3.21,3.21,0,0,0,5-1.26,229.76,229.76,0,0,1,29.36-45c1.47-1.76.94-4.15-1.22-5.35h0a5.27,5.27,0,0,0-6.45.93,230.49,230.49,0,0,0-28.1,44.44A5.41,5.41,0,0,0,220.87,591.56Z" transform="translate(-18.68 -17.18)"/><path class="j" d="M268.44,571.45c-17.77,18.27-38.36,27.83-52.82,32.67a148.75,148.75,0,0,0,24.52,14c5.81,2.6,13.53,0,17.55-5.29a478.83,478.83,0,0,1,89.08-89.46c5.64-4.33,5.23-11.79-1.1-16.42q-29-21-60-40.2c-6.83-4.19-16.39-3.43-20.76,1.76-1,1.17-2,2.36-3,3.55C272.61,495.2,292.3,546.92,268.44,571.45Z" transform="translate(-18.68 -17.18)"/><path class="k" d="M304,451.5a374.92,374.92,0,0,1,52.42,43.81c5.26,5.27,10.26,4.9,15.7.08,15-13.29,34.73-24.75,51.27-36,22.08-15.15,30.74-42.48,17.13-63.42h0c-13.29-21.06-48.52-25.45-76.7-6.18a567.16,567.16,0,0,0-61.09,48C298.43,441.62,299,448.09,304,451.5Z" transform="translate(-18.68 -17.18)"/><path class="g" d="M301.38,454a367.72,367.72,0,0,1,53.91,44.74,11.93,11.93,0,0,0,16.07.53,479.55,479.55,0,0,1,48.9-38.8c22-15.3,30.5-42.76,16.72-63.58-12.81-20-47.66-25.88-77-5.57a568.67,568.67,0,0,0-60.16,47.86C295.34,443.34,296,450.35,301.38,454Z" transform="translate(-18.68 -17.18)"/><path class="l" d="M296.87,445.55a9.8,9.8,0,0,0,4.51,8.47,367.72,367.72,0,0,1,53.91,44.74,11.93,11.93,0,0,0,16.07.53,479.55,479.55,0,0,1,48.9-38.8c19.43-13.52,28.32-36.48,20.63-56-20.4,32.8-50.63,74.61-71.4,73.4C350.55,476.76,320.12,460.11,296.87,445.55Z" transform="translate(-18.68 -17.18)"/><path class="h" d="M353.18,486.94h0c3.22,3.17,8.68,3.08,12.34-.17a478.48,478.48,0,0,1,56.31-43c4.11-2.69,5.35-7.74,2.67-11.33h0c-2.67-3.59-8.38-4.31-12.63-1.53A484.56,484.56,0,0,0,354,475.13C350.25,478.48,350,483.78,353.18,486.94Z" transform="translate(-18.68 -17.18)"/><path class="h" d="M335.62,469.7h0c3.82,3.26,10.12,2.89,14.28-.81A496.85,496.85,0,0,1,423,415.09c4.84-2.92,6.54-8.44,3.71-12.41h0c-2.83-4-9.31-4.78-14.38-1.72a515.48,515.48,0,0,0-76,55.88C332,460.69,331.8,466.45,335.62,469.7Z" transform="translate(-18.68 -17.18)"/><path class="h" d="M314.16,452.61h0c3.24,2.38,8.53,1.8,12-1.28a526.61,526.61,0,0,1,65.12-49.73c4-2.58,5.28-7,2.87-10h0c-2.42-3-7.79-3.28-11.94-.59a550.68,550.68,0,0,0-67.53,51.55C311.07,445.72,310.92,450.24,314.16,452.61Z" transform="translate(-18.68 -17.18)"/><path class="g" d="M270.36,476.34l66.09,50.42a8.1,8.1,0,0,0,10.54-.64l18.46-19.68a8.66,8.66,0,0,0,.39-10.81A174.69,174.69,0,0,0,299.54,445c-3.85-1.66-9.16-.63-11.76,2.14l-18.46,19.67A6.34,6.34,0,0,0,270.36,476.34Z" transform="translate(-18.68 -17.18)"/><path class="h" d="M294.21,463.47a310.88,310.88,0,0,1,53.43,41,7.29,7.29,0,0,0,10.36-.24h0a8.34,8.34,0,0,0,.26-11,193.08,193.08,0,0,0-53.47-41.13,10.73,10.73,0,0,0-12,2.05h0C290,457.14,290.66,461.28,294.21,463.47Z" transform="translate(-18.68 -17.18)"/><path class="i" d="M306.43,463.29a371.55,371.55,0,0,1,39.45,30.19c2.27,2,5.11,2.51,6.38,1.17h0c1.27-1.35.62-4.17-1.54-6.26a230.06,230.06,0,0,0-39.5-30.29c-2.64-1.59-5.83-1.7-7.1-.33h0C302.85,459.13,303.89,461.58,306.43,463.29Z" transform="translate(-18.68 -17.18)"/><path class="h" d="M280.63,477.35q27.21,19.75,53.4,40.76a8.21,8.21,0,0,0,10.89-.77h0a7.41,7.41,0,0,0-.25-10.48A367.66,367.66,0,0,0,291.19,466a9.58,9.58,0,0,0-11.52,1.52h0A6.46,6.46,0,0,0,280.63,477.35Z" transform="translate(-18.68 -17.18)"/><path class="i" d="M290.86,472.51q23.53,17.63,46.76,35.7c2.85,2.2,5.94,3.16,6.91,2.13h0c1-1-.44-3.71-3.2-6-15.05-12.38-30.82-24.43-46.86-35.77-3-2.08-6.13-2.89-7.09-1.85h0C286.42,467.75,288,470.35,290.86,472.51Z" transform="translate(-18.68 -17.18)"/><path class="m" d="M581.89,197.31c-4.27,0-24.78,46.76-37.41,66.77a43.76,43.76,0,0,1-5.41,7.29c-11,11-48.11,31.86-62.28,31.86s-54.49-2.84-57.32-5.66S392,293.32,392,282.7s-2.21-43.17-2.21-43.17,5-31.85,0-48.84-43.88-38.22-43.88-38.22c8.14-8.14,43.88-51,43.88-51S501.56,84.17,516.08,89.13c7.4,2.52,17.11,14.44,24.82,25.52,7.44,10.63,13,20.48,13,20.48s-1.06,28.67-1.06,32.2-1.77,11.33,3.9,11.33,10.6,2.48,10.6,7.07,8.86,1.07,14.51,1.07S586.85,197.31,581.89,197.31Z" transform="translate(-18.68 -17.18)"/><path class="n" d="M544.48,264.08a43.76,43.76,0,0,1-5.41,7.29c-11,11-48.11,31.86-62.28,31.86s-54.49-2.84-57.32-5.66S392,293.32,392,282.7s-2.21-43.17-2.21-43.17,5-31.85,0-48.84-43.88-38.22-43.88-38.22c8.14-8.14,43.88-51,43.88-51S501.56,84.17,516.08,89.13c7.4,2.52,17.11,14.44,24.82,25.52-17.11-2.63-65.93-6.6-88.7,28.4-27.87,42.83-28.71,71.06-16.26,77.69s82.77-24.26,67.63-9.12-71.7,18.73-59.92,30.52,68.05-16.79,62.55,0-49.61,9.2-31.51,27.32C489.23,284,529.24,270.12,544.48,264.08Z" transform="translate(-18.68 -17.18)"/><path class="o" d="M551.11,166.62s-5-8.83-8.49-5.3S515,211.93,509.71,217.23s-9.26,13.15-15.93,19.82c-6.17,6.16-3.53,4.95-6.37,7.78s-3.54,4.25-11.68,18.76c-6.07,10.83-32.29,32.33-45.18,43.86-4.37,3.9-7.19,6.65-7.19,7.46,0,3.17,14.86,37.15,14.86,37.15l-60.94,13.07,10-55.54s22.64-36.45,30.07-43.88,11-29,23-37.15S455,213.87,460.87,208s4.78-20.34,16.63-32.21,3.38-39.39,6.57-45.4,23.64-24.64,23.64-24.64c8.9-8.13,32.52,13.69,43.4,24.57S551.11,166.62,551.11,166.62Z" transform="translate(-18.68 -17.18)"/><path class="p" d="M551.11,166.62s-5-8.83-8.49-5.3S515,211.93,509.71,217.23a69.09,69.09,0,0,0-6.83,8.53c-11.4-10.66-30.5-26.77-36.26-21-8.39,8.39-12.36,22-12.36,22s-56.17,60.66-49,67.82c4.06,4,15.86,9.16,25.32,12.83-4.37,3.9-7.19,6.65-7.19,7.46,0,3.17,14.86,37.15,14.86,37.15l-60.94,13.07,10-55.54s22.64-36.45,30.07-43.88,11-29,23-37.15S455,213.87,460.87,208s4.78-20.34,16.63-32.21,3.17-39.1,6.36-45.11,24.22-24.89,24.22-24.89c8.9-8.13,32.15,13.65,43,24.53S551.11,166.62,551.11,166.62Z" transform="translate(-18.68 -17.18)"/><path class="p" d="M469.56,243.15s4.72,5.15,10.27,4.57c0,0-3.43,4.51-7,4.51S469.56,243.15,469.56,243.15Z" transform="translate(-18.68 -17.18)"/><path class="o" d="M394.34,191.4s-4.48,43.17-4.48,49.88-12.58,65.83-12.58,65.83-7.35,27.61-7.35,33.63c0,4.07-3.4,9.59-5.61,15.58a26.08,26.08,0,0,0-1.83,8.81c0,9.17-1.68,25.15-1.68,34.81s-16.36,16.53-16.36,16.53-17.35-19.82-20.52-19.82-4.61-29,0-33.63.34-22.64,3.88-37.85,11.33-30.79,11.33-30.79-3.9-31.5,0-43.17,6.72-98.74,6.72-98.74c4.93-1.69,11.91,2,19,7.69C379.31,171.68,394.34,191.4,394.34,191.4Z" transform="translate(-18.68 -17.18)"/><path class="p" d="M364.32,356.32a26.08,26.08,0,0,0-1.83,8.81c0,9.17-1.68,25.15-1.68,34.81s-16.36,16.53-16.36,16.53-17.35-19.82-20.52-19.82-4.61-29,0-33.63.34-22.64,3.88-37.85,11.33-30.79,11.33-30.79-3.9-31.5,0-43.17,6.72-98.74,6.72-98.74c4.93-1.69,11.91,2,19,7.69-6.28,27.88-19.3,90.55-15.39,115.37,5.1,32.36,3.4,28.62,3.4,28.62s-21.57,40.18-15.74,49.35C341.13,359.75,355.55,358,364.32,356.32Z" transform="translate(-18.68 -17.18)"/><rect class="q" x="499.03" y="96.71" width="1.24" height="7.13" transform="translate(162.94 481.29) rotate(-62.73)"/><rect class="q" x="495.27" y="98.52" width="1.24" height="20.69" transform="translate(22.9 318.32) rotate(-38.89)"/><rect class="q" x="493.6" y="100.02" width="1.24" height="27.05" transform="translate(13.11 304.45) rotate(-37.17)"/><rect class="q" x="493.81" y="107.18" width="1.25" height="25.6" transform="translate(23.54 335.95) rotate(-40.91)"/><path class="r" d="M329.65,245c0,.37-.07.57-.07.57A.43.43,0,0,1,329.65,245Z" transform="translate(-18.68 -17.18)"/><path class="c" d="M391.13,262.16A92.23,92.23,0,0,0,362.08,248a81.19,81.19,0,0,0-11.45-2.43c-16.63-2.25-20.27-1.32-21-.58.75-5.68,6.66-50.91,6.66-58.86,0-8.51-.53-10.45,1.77-12.75s.71-11,.71-12.74,11.84-13.27,11.84-13.27,1.22.66,3.25,1.86c9.83,5.81,38.7,24.31,40.46,42.2C396.47,213,391.13,262.16,391.13,262.16Z" transform="translate(-18.68 -17.18)"/><path class="s" d="M329.65,245c0,.37-.07.57-.07.57A.43.43,0,0,1,329.65,245Z" transform="translate(-18.68 -17.18)"/><path class="f" d="M362.17,247.69l-.09.28a81.19,81.19,0,0,0-11.45-2.43c-16.63-2.25-20.27-1.32-21-.58.75-5.68,6.66-50.91,6.66-58.86,0-8.51-.53-10.45,1.77-12.75s.71-11,.71-12.74,11.84-13.27,11.84-13.27,1.22.66,3.25,1.86c-3.61,6.31-8.49,16.23-8.49,23.82,0,12,16.63,7.65,13.75,14.2s-12.93-5.79-16.21,2.25,3.29,26.75,6.58,30-7.46,4-7.46,8.66S362.17,247.69,362.17,247.69Z" transform="translate(-18.68 -17.18)"/><path class="c" d="M551.11,166.62c-1.34,1.35-5,3.54-11.33,9.91s-1.4,8.86-6,16.89-5.53,5.9-11,11.34-9.91,19.55-9.91,19.55c0-4.08-22.23-14.66-38.2-21.74-8.95-4-15.94-6.84-15.94-6.84s20.17-27.69,20.17-33,2.13-30.79,4.24-32.92,16.45-16.79,24.07-24.41c10.08-10.08,20.3-6.72,28.55,0,9.78,8,16.76,20.74,17.42,21.39C554.41,128,568.77,149,551.11,166.62Z" transform="translate(-18.68 -17.18)"/><path class="f" d="M514.69,165.87c2.17,4.66-18.37-13.81-22.72-13.81s-.32,11.63,8.71,20.65-11.07-3-16.2,2.18-9.79,27.68-9.79,27.68c-8.95-4-15.94-6.84-15.94-6.84s20.17-27.69,20.17-33,2.13-30.79,4.24-32.92,16.45-16.79,24.07-24.41c10.08-10.08,20.3-6.72,28.55,0a54.85,54.85,0,0,0-24.07,14c-15.51,15.51-21.19,19.07-16.63,23.63S512.51,161.2,514.69,165.87Z" transform="translate(-18.68 -17.18)"/><path class="t" d="M538.07,118a10,10,0,0,0-14.55-2.28c-7.12,5.7-16.1,13.91-14.88,18.33,2,7.21,17.54,33.35,23.79,33.35s11.82-12.76,14.31-25C548.2,135.15,542.79,125.09,538.07,118Z" transform="translate(-18.68 -17.18)"/><path class="u" d="M484.48,89.44c0,.12-1.3,16.28-3.43,24.81-2.48,11.33-10.41,36.68-14.43,40.7s-16.36,14.51-33,6-25.45-66.75-25.49-66.88L409.5,94Z" transform="translate(-18.68 -17.18)"/><path class="v" d="M484.48,89.44c0,.12-1.3,16.28-3.43,24.81-2.48,11.33-10.41,36.68-14.43,40.7C426,162.23,420.18,134.07,409.5,94Z" transform="translate(-18.68 -17.18)"/><path class="p" d="M404.25,77.1l3.89,17s25.13,50,50.61,56.28S492,84.62,492,84.62Z" transform="translate(-18.68 -17.18)"/><path class="w" d="M392.22,88.24s18.4,9,29.37,11.15,82-11.15,82-11.15-4.66-43.88-15.8-55c-8.77-8.77-23.35-12.4-35.25-13.43-12.11-1-25.33.55-36.39,6.09-12.86,6.43-18.67,17.19-20.91,31-.73,4.49-1.29,9-1.74,13.55C393.28,72.36,391.05,87.67,392.22,88.24Z" transform="translate(-18.68 -17.18)"/><rect class="x" x="483.32" y="78.66" width="1.63" height="33.82"/><path class="c" d="M398.59,89.51s13.84,19.89,30.12,23.36,76.42-12.22,80-20.67-9.2-20.81-9.2-20.81S440,92.16,398.59,89.51Z" transform="translate(-18.68 -17.18)"/><polygon class="y" points="34.88 533.76 276.93 378.76 46.2 533.76 34.88 533.76"/><path class="z" d="M79.51,592s-28.31-28.55-25.95-41H64.88l28.31,41S87.29,596.24,79.51,592Z" transform="translate(-18.68 -17.18)"/><path class="aa" d="M321,363.19h47.11L365,379.68l-44,21.79S315.81,371,321,363.19Z" transform="translate(-18.68 -17.18)"/><path class="ab" d="M454.14,334.9,332.05,416.47l-9.33,11.7-5-7.78-12.78-19.72s16-1,19-4,117.83-74.31,117.83-74.31S454.14,321.64,454.14,334.9Z" transform="translate(-18.68 -17.18)"/><path class="ac" d="M454.14,334.9c-19.55,6.69-113.25,63.44-121.21,71.41-3.5,3.5-9.54,9-15.24,14.08l-12.78-19.72s16-1,19-4,117.83-74.31,117.83-74.31S454.14,321.64,454.14,334.9Z" transform="translate(-18.68 -17.18)"/><path class="f" d="M317.59,378.71s12.35-1.17,18.36-1.17,10.26,0,14.51,7.07,2.83,8.5,0,11.33-15.22-2.12-17.69,3.19-12,7.35-16.28.13S317.59,378.71,317.59,378.71Z" transform="translate(-18.68 -17.18)"/><path class="c" d="M366,418.24l-14.51,25.83s-9.9,9.55-17.27,6.72a8,8,0,0,1-3.65-3.41c-4.46-7.06-5.85-21.76-5.85-21.76s6.81-6.47,9.5-9.15,3.83-17,3.83-17c-.27-4.57,2.65-7.51,6.36-9.35a33.69,33.69,0,0,1,13.22-3C361.32,387.09,366,418.24,366,418.24Z" transform="translate(-18.68 -17.18)"/><path class="ad" d="M351,415.64l-12.26,24.79-8.09,6.95c-4.46-7.06-5.85-21.76-5.85-21.76s6.8-9.39,9.49-12.07,3.84-14.07,3.84-14.07c-.27-4.57,2.65-7.51,6.36-9.35Z" transform="translate(-18.68 -17.18)"/><path class="c" d="M383.73,419.21,371.31,446l-2.44,5.27s-14.31,7.41-18.32-.38a11.06,11.06,0,0,1-1-5.13L366,418.24l-7.77-30.89a41.24,41.24,0,0,1,4.11-6.07c1.68-2,3.65-3.74,5.43-3.74,4.25,0,9.32.77,11.74,3.19S383.73,419.21,383.73,419.21Z" transform="translate(-18.68 -17.18)"/><path class="ad" d="M370.25,406.3l-.76,15.3s-12.5,25.78-18.94,29.33a11.06,11.06,0,0,1-1-5.13L366,418.24l-7.77-30.89a41.24,41.24,0,0,1,4.11-6.07Z" transform="translate(-18.68 -17.18)"/><path class="ae" d="M378.75,393.83c1.48,7.23.93,13.46-1.25,13.9s-5.14-5.05-6.62-12.28-.93-13.45,1.25-13.9S377.27,386.6,378.75,393.83Z" transform="translate(-18.68 -17.18)"/><path class="c" d="M400,428.17,382,449s-4,1.47-7.06,1c-2-.28-3.58-1.32-3.58-4l12.42-26.83-2.48-26.8a9.65,9.65,0,0,1,5.47.39c3,1.11,6.73,4,9.39,11.12Z" transform="translate(-18.68 -17.18)"/><path class="ad" d="M392.78,424.09c0,2.81-12,18.45-17.89,26-2-.28-3.58-1.32-3.58-4l12.42-26.83-2.48-26.8a9.65,9.65,0,0,1,5.47.39C389.11,404,392.78,421.57,392.78,424.09Z" transform="translate(-18.68 -17.18)"/><polygon class="af" points="371.58 284.18 367.63 284.69 356.14 309.44 356.31 311.84 371.58 284.18"/><path class="b" d="M760.36,607.53c-.35,7.83-6.8,24.64-14.74,22.07-8.85-2.86-56.49-1.28-56.49-1.28s-5.56-7.7-6.1-12.13c-.36-3,2.55-20.3,2.6-20.66L683,573.59l51-9.43,11.69,26c.59.47,10.31,7,13.62,13.14A7.77,7.77,0,0,1,760.36,607.53Z" transform="translate(-18.68 -17.18)"/><path class="c" d="M705,596.61c0,.22-.23,4-.22,3.74a28.05,28.05,0,0,0-21.2,9.12c.24-1.85.51-3.86.79-5.75A33.25,33.25,0,0,1,705,596.61Z" transform="translate(-18.68 -17.18)"/><path class="c" d="M753.88,596.79a97.19,97.19,0,0,0-18.28-1.52l-.1-3.74a99,99,0,0,1,12.87.64A64,64,0,0,1,753.88,596.79Z" transform="translate(-18.68 -17.18)"/><path class="c" d="M705,605.76c0,.13-.24,4-.22,3.72a28.24,28.24,0,0,0-21.13,9,8.82,8.82,0,0,1-.56-4.59A33.07,33.07,0,0,1,705,605.76Z" transform="translate(-18.68 -17.18)"/><path class="c" d="M760.36,607.53c-10.91-3.46-24.57-3.12-24.76-3.12l-.1-3.74a92.49,92.49,0,0,1,23.75,2.66A7.77,7.77,0,0,1,760.36,607.53Z" transform="translate(-18.68 -17.18)"/><path class="ag" d="M757.13,619.84c-3.22,8.16-7.22,11.84-12.33,11.84-9.31,0-55.68-3.36-55.68-3.36s-5.58-7.73-6.09-12.12c1.68,1.65,4.44,3.17,8.92,4.1,13.69,2.83,18.68-6.61,35.19-2.84s18.14,3.27,24.74,3.27A14,14,0,0,0,757.13,619.84Z" transform="translate(-18.68 -17.18)"/><path class="g" d="M743.21,570.67c-.55,7.5-6.23,15.51-12.85,17.54a149,149,0,0,1-51.88,6.45c-6.56-.4-12-7-12.65-14.38a546.48,546.48,0,0,0-30-135.8c-2.63-7.26,1.8-14.53,10-15.9q37.15-6,75.08-9.32c8.34-.67,16.38,5,17.42,12.5A648.25,648.25,0,0,1,743.21,570.67Z" transform="translate(-18.68 -17.18)"/><path class="h" d="M680.74,587.37h0c-5.16-.17-9.41-5.27-9.65-11a635.25,635.25,0,0,0-19.86-134.14c-1.44-5.51,2-10.6,7.85-11.37h0a12.16,12.16,0,0,1,13.13,8.9A637.07,637.07,0,0,1,690,576.83C690.13,582.67,685.9,587.56,680.74,587.37Z" transform="translate(-18.68 -17.18)"/><path class="h" d="M709.47,582.37h0c-5.23.75-9.44-3.69-9.52-9.55A636.5,636.5,0,0,0,683.15,435a9.27,9.27,0,0,1,8.06-11.65h0a12,12,0,0,1,12.94,9,635.69,635.69,0,0,1,14.9,137.75C719,576,714.7,581.63,709.47,582.37Z" transform="translate(-18.68 -17.18)"/><path class="h" d="M734.22,580.44h0c-5.17,1.52-9.29-2.28-9.27-8.14A635.86,635.86,0,0,0,710.66,435a9.36,9.36,0,0,1,8.26-11.54h0c5.85-.67,11.56,3.26,12.65,8.8a624.39,624.39,0,0,1,11.78,133.16C743.26,571.15,739.39,578.91,734.22,580.44Z" transform="translate(-18.68 -17.18)"/><path class="i" d="M735.18,576h0c-2.3.49-4-1.31-3.75-3.86a277.52,277.52,0,0,0-1.4-60.31,4.09,4.09,0,0,1,4-4.74h0a5.06,5.06,0,0,1,5.19,4.27,279.16,279.16,0,0,1,.59,59.11A6.55,6.55,0,0,1,735.18,576Z" transform="translate(-18.68 -17.18)"/><path class="i" d="M710.05,578h0c-2.3.48-4-1.32-3.75-3.87a277.52,277.52,0,0,0-1.4-60.31,4.09,4.09,0,0,1,4-4.74h0a5.07,5.07,0,0,1,5.2,4.28,279.07,279.07,0,0,1,.59,59.1A6.57,6.57,0,0,1,710.05,578Z" transform="translate(-18.68 -17.18)"/><path class="j" d="M678.93,533.22a140,140,0,0,0,28.91,60.08,143.7,143.7,0,0,1-29.36,1.36c-6.56-.4-12-7-12.65-14.38a546.48,546.48,0,0,0-30-135.8c-2.63-7.26,1.8-14.53,10-15.9q37.15-6,75.08-9.32c8.34-.67,16.38,5,17.42,12.5.24,1.69.48,3.4.71,5.1C716.92,454.56,671.22,496.27,678.93,533.22Z" transform="translate(-18.68 -17.18)"/><path class="k" d="M713.05,394.52a379.5,379.5,0,0,0-70.35,16.86,13.92,13.92,0,0,1-17.89-9.29,525.5,525.5,0,0,0-21.74-61.41c-11.26-26.61-4-58.5,19.51-72.47h0c23.27-14.26,56.86-.46,71.28,33.44a624.71,624.71,0,0,1,27.83,79.74A10.47,10.47,0,0,1,713.05,394.52Z" transform="translate(-18.68 -17.18)"/><path class="g" d="M714,398.38a372.85,372.85,0,0,0-72.18,17,11.29,11.29,0,0,1-14.51-7.77,529.26,529.26,0,0,0-22.09-64.21c-11.1-26.72-3.62-58.66,20-72.42,22.26-13.42,56.33-1.33,71.17,34.19A626,626,0,0,1,723.4,384.3,11.29,11.29,0,0,1,714,398.38Z" transform="translate(-18.68 -17.18)"/><path class="l" d="M722.59,392.22a11.26,11.26,0,0,1-8.63,6.16,372.85,372.85,0,0,0-72.18,17,11.29,11.29,0,0,1-14.51-7.77,529.26,529.26,0,0,0-22.09-64.21c-9.81-23.61-5.13-51.23,12.36-66.87.14,43.45,4.05,101,23.1,110.54C658,395.78,694,394.81,722.59,392.22Z" transform="translate(-18.68 -17.18)"/><path class="h" d="M650.11,404.64h0c-4.59,1.51-9.37-1.4-10.83-6.55A524.81,524.81,0,0,0,613,325.81c-2.17-4.82-.52-10.52,3.82-12.74h0c4.33-2.22,9.77,0,12,5a529.47,529.47,0,0,1,27,74.29C657.33,397.66,654.69,403.13,650.11,404.64Z" transform="translate(-18.68 -17.18)"/><path class="h" d="M675.08,396.42h0c-5.17,1.29-10.54-2.34-12.2-8.2a538,538,0,0,0-35.32-91.76c-2.68-5.44-1.18-11.85,3.5-14.37h0c4.68-2.52,10.86,0,13.68,5.71a559.49,559.49,0,0,1,36.72,95.34C683.19,389.23,680.24,395.13,675.08,396.42Z" transform="translate(-18.68 -17.18)"/><path class="h" d="M703.42,390.37h0c-4.16.71-8.54-2.61-9.9-7.48a575.46,575.46,0,0,0-30.46-83.55c-2.11-4.63-.83-9.79,3-11.55h0c3.77-1.75,8.69.73,10.89,5.57A601.51,601.51,0,0,1,708.5,380C709.92,385.05,707.58,389.66,703.42,390.37Z" transform="translate(-18.68 -17.18)"/><path class="ah" d="M729.23,436.81l-86.08,16.42a7.71,7.71,0,0,1-9-6.1q-2.8-14.64-5.59-29.28a10.82,10.82,0,0,1,5.57-11.05,175.12,175.12,0,0,1,86.34-16.47,10.79,10.79,0,0,1,9.24,8.22q2.81,14.64,5.59,29.28A7.72,7.72,0,0,1,729.23,436.81Z" transform="translate(-18.68 -17.18)"/><path class="h" d="M715.15,411.57a311.4,311.4,0,0,0-69.7,13.49,7,7,0,0,1-9.05-5.6h0c-.85-4.41,1.7-9.5,5.78-11.15A193.29,193.29,0,0,1,712,394.69c4.4,0,8.65,3.78,9.48,8.24h0A7,7,0,0,1,715.15,411.57Z" transform="translate(-18.68 -17.18)"/><path class="i" d="M704.43,405.07A371.08,371.08,0,0,0,653,415c-3.09.81-5.9-.12-6.29-2.13h0c-.39-2,1.73-4.5,4.78-5.48a230.6,230.6,0,0,1,51.53-10c3.2-.23,6.09,1.31,6.47,3.34h0C709.87,402.76,707.6,404.67,704.43,405.07Z" transform="translate(-18.68 -17.18)"/><path class="h" d="M719.58,432.51c-23.26,3.84-46.51,8.28-69.55,13.29a7.85,7.85,0,0,1-9.23-6.4h0a9.17,9.17,0,0,1,6-10.39,368,368,0,0,1,69.69-13.35c4.34-.37,8.53,3,9.36,7.48h0A7.86,7.86,0,0,1,719.58,432.51Z" transform="translate(-18.68 -17.18)"/><path class="i" d="M713.17,422.38c-20.32,3.67-40.67,7.55-60.91,11.63-3.73.73-7,.1-7.29-1.43h0c-.3-1.53,2.43-3.5,6.12-4.36,20.09-4.65,40.64-8.58,61-11.67,3.75-.56,7,.27,7.3,1.81h0C719.7,419.9,716.9,421.69,713.17,422.38Z" transform="translate(-18.68 -17.18)"/><path class="ai" d="M646.72,270.92c.57,2.75-3.9,6-10,7.24s-11.45,0-12-2.72,3.9-6,10-7.24S646.16,268.17,646.72,270.92Z" transform="translate(-18.68 -17.18)"/><path class="aj" d="M644.65,271.35c.46,2.23-3.17,4.86-8.09,5.87s-9.29,0-9.74-2.21,3.16-4.86,8.08-5.87S644.19,269.12,644.65,271.35Z" transform="translate(-18.68 -17.18)"/><path class="i" d="M660.66,336.82c8.16,22.86,12.8,42.11,10.37,43s-11-17-19.18-39.83-12.8-42.12-10.37-43S652.49,314,660.66,336.82Z" transform="translate(-18.68 -17.18)"/><path class="i" d="M691.48,337.33c8.16,22.87,12.81,42.11,10.37,43s-11-17-19.17-39.84-12.81-42.11-10.38-43S683.32,314.46,691.48,337.33Z" transform="translate(-18.68 -17.18)"/><path class="t" d="M420.38,94.28,500,77.1s11.24,4.74-2.77,12.83S445.59,111.09,420.38,94.28Z" transform="translate(-18.68 -17.18)"/><path class="t" d="M420.38,82.14s-11.2-34.85,9.34-46.06,44.35-7.31,50.11-1.56,14.78,30.35,12.14,33S436.51,87.19,420.38,82.14Z" transform="translate(-18.68 -17.18)"/><path class="ak" d="M475.6,68.38c.57,3.21-6.51,7.16-15.81,8.82s-17.31.41-17.89-2.8,6.51-7.15,15.81-8.82S475,65.18,475.6,68.38Z" transform="translate(-18.68 -17.18)"/><path class="aj" d="M473.38,68.78c.5,2.79-5.65,6.21-13.73,7.66s-15,.35-15.53-2.43,5.65-6.22,13.73-7.66S472.88,66,473.38,68.78Z" transform="translate(-18.68 -17.18)"/><path class="ak" d="M513.75,194.49c0,5.67-5.22,10.26-11.67,10.26s-11.67-4.59-11.67-10.26,5.22-10.26,11.67-10.26S513.75,188.82,513.75,194.49Z" transform="translate(-18.68 -17.18)"/><path class="aj" d="M511.27,194.49c0,4.46-4.12,8.08-9.19,8.08s-9.19-3.62-9.19-8.08,4.12-8.08,9.19-8.08S511.27,190,511.27,194.49Z" transform="translate(-18.68 -17.18)"/><path class="c" d="M443.53,354.8s-7.31-18.31-12.74-28.45a18.05,18.05,0,0,1-2-5.48c-1.12-6.3,2.94-9.15,2.94-9.15S401.06,295.91,392.1,298l-17.46,31.61,2.64,34,8.38,28.18s12,18.05,16.3,19.47,9.25-2.43,9.25-7.35a7.28,7.28,0,0,0-.26-1.78,27.56,27.56,0,0,0-2-5.05c2.21,3.17,4.73,5.2,7.48,4.75,10.14-1.65,8.73-3.53,8.73-3.53a23.09,23.09,0,0,0,.66-4.2,4.74,4.74,0,0,0,3.36,1.83c4.94,0,10.6-3.77,8.49-11.79,0,0,3.77.7,5.89-4.95a15.62,15.62,0,0,0,.74-4C445,367.57,443.53,354.8,443.53,354.8ZM403,387.09l-3.2-13.3a106.74,106.74,0,0,0,6,17.62C404.21,388.91,403,387.09,403,387.09Z" transform="translate(-18.68 -17.18)"/><path class="f" d="M386.3,301.87s29.88,12,29.88,17-3.73,15.87-7.94,17.27-33.43-9.49-33.43-9.49Z" transform="translate(-18.68 -17.18)"/><path class="af" d="M428.4,354.16c3.13,2.57,4.23,6.92,4.4,11,.29,6.23,2.82,13.15,4.83,19A49.14,49.14,0,0,1,432,369.21c-.76-4.13.2-7.2-1.63-11.66A11.89,11.89,0,0,0,428.4,354.16Z" transform="translate(-18.68 -17.18)"/><path class="af" d="M417.89,363.19a71.89,71.89,0,0,1,5.39,15.15c.69,5.53-.31,1.72,2.51,15.77a64.22,64.22,0,0,1-2.48-7.64c-2.15-7.81.91-2-4.34-19.42Z" transform="translate(-18.68 -17.18)"/><path class="al" d="M444.27,375.21,440.34,356l-10.41-2.9-13.76-18.27,11.92-13.69.71-.3a18.05,18.05,0,0,0,2,5.48c5.43,10.14,12.74,28.45,12.74,28.45S445,367.57,444.27,375.21Z" transform="translate(-18.68 -17.18)"/><path class="am" d="M185.05,470.22Z" transform="translate(-18.68 -17.18)"/><path class="am" d="M323.93,416.47c-.09.82-2.89,27.81-3,28.61-.36.24-6.49,4.2-6.58,4.24S93.37,591.88,93.19,592l-28.31-41,230.74-155,20.87,10.62Z" transform="translate(-18.68 -17.18)"/><g class="an"><path class="ao" d="M180.41,535.73l-2.95,1.91a170.81,170.81,0,0,1-31.78-9.92,110.73,110.73,0,0,0-32.62-9.15l5-3.34C144,519.92,146,527.68,180.41,535.73Z" transform="translate(-18.68 -17.18)"/><path class="ao" d="M174.11,539.79l-3.06,2a179.57,179.57,0,0,1-20.41-6.14c-10.54-4.27-23.48-10.87-44.75-12.25l5.38-3.61c21.89,2.93,35.85,11.22,42.12,13.57l9.14,3.2C162.93,536.62,166.78,537.93,174.11,539.79Z" transform="translate(-18.68 -17.18)"/><path class="ao" d="M167.88,543.81l-3.07,2c-24.57-6.61-25-10.53-42.81-14.58a104.52,104.52,0,0,0-23.92-2.6l6.16-4.14c24.73,1.86,40.05,11.31,47.31,14C154.41,539.37,157.37,540.89,167.88,543.81Z" transform="translate(-18.68 -17.18)"/><path class="ao" d="M161.75,547.77l-3.09,2a163.91,163.91,0,0,1-19.79-7.09c-17.43-8-34.94-9.34-49.45-8.22l7-4.7c28.46.17,41.55,9.47,53.28,13.92l9.77,3.41S160.27,547.34,161.75,547.77Z" transform="translate(-18.68 -17.18)"/><path class="ao" d="M155.83,551.6l-3.21,2.06c-8-2.6-5.36-1.65-16-6-20.89-9.54-41.94-9.06-57.21-6.47l8.53-5.73a102.91,102.91,0,0,1,32.94,2.84,91.22,91.22,0,0,1,17,6.22C148.92,549.35,146.5,548.35,155.83,551.6Z" transform="translate(-18.68 -17.18)"/></g><path class="ap" d="M251.07,476.1c24.9-1.63-12.45,19-42.95,2.69s10.91-22,10.91-22-4.75-.59-12.24-1.21L223,444.72a207.83,207.83,0,0,1,41.74,2c13.07,2,16.2,3.93,39.42,9.17L278.3,472.6c-13.91-.38-25-.91-31-1.64C218.7,467.45,226.17,477.75,251.07,476.1Z" transform="translate(-18.68 -17.18)"/><g class="an"><path class="aq" d="M250.49,490.54,246.74,493c-16,4-33.08,5-48.74,1.52-12-2.33-17.67-7.59-34.15-10l2.57-1.72c15.22,2.42,21.8,7.39,32.13,9.31C214.76,495.71,233.26,494.6,250.49,490.54Z" transform="translate(-18.68 -17.18)"/></g><g class="an"><path class="aq" d="M236.88,499.32l-2.12,1.37c-16,1.36-44.38,2.22-53-6.47-5.48-5.58-14.07-7.16-21.88-7.07l.44-.3c8.25-.19,16.61,1.55,21.95,6.86C191.37,502.67,224.11,500.57,236.88,499.32Z" transform="translate(-18.68 -17.18)"/></g><g class="an"><path class="ao" d="M223.87,507.71l-.73.47c-38.8-7-51.81-11.55-70-16.53l.61-.41C172.5,496.34,182.74,500.15,223.87,507.71Z" transform="translate(-18.68 -17.18)"/><path class="ao" d="M317.11,447.57l-2.72,1.75c-18.46-5.22-28.67-7.5-28.58-7.38s0,0,0,0h0c-4.29.89-13.86,17.05-37.62,13.74-8.23-1.1-17.75-4.87-26.94-9.72l2.45-1.65a89.91,89.91,0,0,0,17.17,7.36c11,3.46,22.19,3,31.95-3.4h0a91.51,91.51,0,0,0,8.69-6.83c3.65-3,4-2.54,8.79-1.42C299.19,442.1,308.2,444.69,317.11,447.57Z" transform="translate(-18.68 -17.18)"/><path class="ao" d="M217.62,511.73l-.65.43c-35-6.5-44.47-10-69.41-16.76l.64-.44C169.36,500.59,177.33,504,217.62,511.73Z" transform="translate(-18.68 -17.18)"/><path class="ao" d="M321.12,443.61l-.15,1.47-.92.6c-11.34-3.24-32.25-9-35.08-8.73-4,.46-8.33,6.51-15.85,10.56h0c-13.7,7.32-29.32,2.18-43.14-4.78l2.27-1.54c2.54,1.29,4.93,2.38,7.21,3.3h0c13.53,5.46,22.61,4.91,29.27,2.27h0c9.1-3.61,13.71-11.08,19-12.44a9.62,9.62,0,0,1,4.46,0A327.84,327.84,0,0,1,321.12,443.61Z" transform="translate(-18.68 -17.18)"/><path class="ao" d="M211.46,515.72l-.66.42c-36.46-7.06-41.13-9.75-68.78-17l.59-.4C171.55,506.28,172.42,507.93,211.46,515.72Z" transform="translate(-18.68 -17.18)"/><path class="ao" d="M321.65,438.52l-.24,2.31c-16.25-4.81-31.79-8.51-33.31-8.71l-1-.16a12.1,12.1,0,0,0-4.42.31c-11.17,3.27-15.92,24.14-51.91,7.19l2.37-1.59c35.79,17.34,37.12-9.18,53-8.83C290.9,429.18,308.66,434.32,321.65,438.52Z" transform="translate(-18.68 -17.18)"/><path class="ao" d="M205.42,519.61l-.77.49c-37.26-7.51-37.64-9.46-68.22-17.22l.58-.4C169.42,510.76,165.76,511.51,205.42,519.61Z" transform="translate(-18.68 -17.18)"/><path class="ao" d="M322.18,433.38l-.23,2.34c-6.68-2-16.87-4.93-31.4-8.23a17,17,0,0,0-10.15.26c-12.18,4.33-15,21.5-44.67,8.42l2.39-1.61c8.07,3.47,17,6,24.55,2.07,8.13-4.16,14.13-15.67,28.39-12C301.63,427.06,312,430,322.18,433.38Z" transform="translate(-18.68 -17.18)"/><path class="ao" d="M131.4,506.26c23.28,5.85,38.64,11.24,67.83,17.34l-.74.48c-27.11-5.65-46.06-11.92-67.67-17.44Z" transform="translate(-18.68 -17.18)"/><path class="ao" d="M322.7,428.27l-.23,2.34c-6.76-2-17.07-5-31.7-8.24-15.87-3-20.76,8-29.54,12.21-6.36,2.83-13.68.83-20.45-1.8l2.39-1.61a38,38,0,0,0,8.62,2.27,17.37,17.37,0,0,0,5.41-.14c10.42-2.75,15.22-17.37,34-13.74C302,422,312.43,424.94,322.7,428.27Z" transform="translate(-18.68 -17.18)"/><path class="ao" d="M193.28,527.43l-.73.47c-32.47-7-33.7-9.33-67.44-17.42l.61-.42C159.1,518.38,164.22,521.26,193.28,527.43Z" transform="translate(-18.68 -17.18)"/><path class="ao" d="M323.24,423.17,323,425.5c-6.06-1.73-26.52-7.33-32.45-8.28-15.12-3-24.13,8.14-29.51,11.69a10.55,10.55,0,0,1-7.11,2,32.31,32.31,0,0,1-7.94-1.64l2.49-1.67c3.62,1,6.77,1.28,9,.31,5.91-2.48,15.23-17,33.36-13.55l1.54.28A320.24,320.24,0,0,1,323.24,423.17Z" transform="translate(-18.68 -17.18)"/></g><path class="ab" d="M323.93,416.47c-.09.82-2.89,27.82-3,28.61-.12.09-6.2,4-6.58,4.24l-23.62,15.25V399.19l4.85-3.25,20.87,10.62Z" transform="translate(-18.68 -17.18)"/><path class="ab" d="M287.88,401.13v65.3l-4.14,2.68V403.92C283.86,403.84,287.84,401.17,287.88,401.13Z" transform="translate(-18.68 -17.18)"/><path class="ab" d="M281,405.74v65.12l-4.13,2.66v-65Z" transform="translate(-18.68 -17.18)"/><path class="b" d="M688,599.62s-5.43-7-1.87-10.58,48.06-14.17,51.25-11-.41,11.81-.41,11.81Z" transform="translate(-18.68 -17.18)"/><path class="ar" d="M738.78,580.82a4.8,4.8,0,0,0-1.36-2.76c2.27,2.55.63,8.24-.7,11.45-11.62,2-34.25,6.52-48.68,10.11,21.23-3.19,49.13-9.37,49.28-9.4C738.14,587.66,739.35,584.14,738.78,580.82Z" transform="translate(-18.68 -17.18)"/><path class="as" d="M712.94,607.53s4.84-4.33,17,0,24.24,7.6,20.92,8.67-9.68-4.55-20.92-2.68-27.53,5.71-23.48,1.66A54.44,54.44,0,0,0,712.94,607.53Z" transform="translate(-18.68 -17.18)"/><path class="at" d="M392.35,72.83s12.32,3.56,12.32,6a36.9,36.9,0,0,1-.44,4.35A4.55,4.55,0,0,1,398.59,87l-6.68-1.73S390.35,83,392.35,72.83Z" transform="translate(-18.68 -17.18)"/><rect class="at" x="377.43" y="67.76" width="3.03" height="14.1"/><rect class="at" x="373.1" y="67.76" width="2.38" height="14.1"/><path class="at" d="M501,105.45a39.46,39.46,0,0,0,2.61-4.17v-3a27.8,27.8,0,0,1-3.62,6.47c-4.41,6.24-24.68,23.88-47.63,22.37-22.4-1.46-48.44-14-51.37-15.5l-2.79-14.43L397,97.4l2.9,15,.27.14c13.31,6.74,36.11,14.87,52.28,15.77l3.08,12.08-.44,0c-28.57-1.68-56-23.06-59-25.28l-2.52-17.27h-1.24l5.33,38.53c13.47,8,44.58,24.42,60.22,23.1,18.66-1.56,35.5-13.31,35.67-13.43l.11-.08,10-16.32v-3.13l-9.55,16.29.74-7.95,8.81-11.82V121l-8.77,11.77v-5l.57-.47,8.21-11.07v-2.08l-9.07,12.25-.05,0c-.47-1.61-1.52-4.91-3.88-11.12A55.64,55.64,0,0,0,501,105.45Zm-45.24,36.23,1,7.78c-24.56-1.33-56-19.79-58.82-21.49l-1.31-9.39C413.55,130.72,437.28,141.38,455.79,141.68Zm-56.53-5.81-1-6.17c15.09,8.92,39.54,19.85,58.67,21l.27,7.59C439.35,159.18,402.48,137.77,399.26,135.87Zm58.9,14.89,1.74,0c20,0,30.56-10.57,33.51-14.07l-.79,8.48c-2,1.37-17.28,11.36-34.2,13Zm35.47-16.39v0l-.35.48c-.11.16-10.69,15.43-35.22,14.63l-1-7.82a62.64,62.64,0,0,0,36.59-12.94Zm-.16-7.09a61.1,61.1,0,0,1-36.65,13.16l-3.06-12.05c.51,0,1.05.05,1.55.05,13.92,0,26-6.26,34.29-12.35C490.49,118.46,492.65,124.3,493.47,127.28Z" transform="translate(-18.68 -17.18)"/><path class="au" d="M18.68,487.71c5.23-.26,105.7,2.79,238.18-15.07,119.82-16.52,237.81-39.32,333.92-113.58,107.5-83.45,165-208.43,161.72-304.77,6.21,95.36-46.75,200.62-113.53,269.1-88.39,91-194.92,125.45-322.22,145.77C154.43,495.23,20,487.67,18.68,487.71Z" transform="translate(-18.68 -17.18)"/><path class="av" d="M683.58,17.18c5,13.35,8,27.38,10,41.5,17.81,134.61-75,211.23-76.44,214.94-85,80.91-208.69,133.5-320.34,166.12-13.67,4-27.41,7.75-41.27,11,107-30.94,237.68-84.69,325.58-153.42,22.17-16.14,46.15-43.24,46.27-43.36a290.28,290.28,0,0,0,29.89-40.23c5.81-10.18,8.1-13.82,13.58-25.67a244,244,0,0,0,21.89-86.74C694.6,73.12,691.94,44.39,683.58,17.18Z" transform="translate(-18.68 -17.18)"/></g></svg>