<svg xmlns="http://www.w3.org/2000/svg" viewBox="0 0 428.18 417.3"><defs><style>.a,.b{fill:none;stroke:#687662;stroke-miterlimit:10;}.a{stroke-width:2px;}.c{fill:#b63b26;}.d{fill:#f04a23;}.e{fill:#fefefd;}.f{fill:#687662;}.g{fill:#c06f48;}.h{fill:#248681;}.i{fill:#cec9c8;}.j{fill:#cacdcc;}.k{fill:#2e9d98;}.l{fill:#2ca49e;}.m{fill:#f5f9fa;}.n{fill:#975d28;}.o{fill:#8ecfce;}.p{fill:#cccdcc;}.q{fill:#cbcdca;}.r{fill:#fcf5e8;}.s{fill:#de9655;}.t{fill:#f0d6d4;}</style></defs><path class="a" d="M293.48,40a6.69,6.69,0,0,0,8.89.08c5.83-4.15,5.26-2,4.41-9.5-.79-6.7,1.18-12,7.34-15.06a24.37,24.37,0,0,1,5.73-1.7c3.21-.76,6.52-1.48,9.77-2.22a16,16,0,0,1,18.82,9.18c.74,1.55,1.53,3.08,2.15,4.71a2.84,2.84,0,0,0,2.69,2c2.25.16,4.63.44,6.93.84a3.43,3.43,0,0,0,3.71-1.54c1-1.49,2.11-2.94,3.22-4.35a13.93,13.93,0,0,1,17.05-4.57,108,108,0,0,1,16.16,8.1,13.07,13.07,0,0,1,6.18,13.54,39.34,39.34,0,0,1-1.93,7.15,3,3,0,0,0,.83,3.5c1.84,1.76,3.51,3.7,5.44,5.34a4.23,4.23,0,0,0,3,.84c2.14-.27,4.18-1,6.3-1.36a15.64,15.64,0,0,1,16.94,8.27q3.46,6.66,6.47,13.48a13.48,13.48,0,0,1-4.4,15.75,68.91,68.91,0,0,1-5.83,3.68,2.81,2.81,0,0,0-1.54,3.16c.31,2.09.52,4.19.62,6.27a3.6,3.6,0,0,0,2.3,3.45l5.76,2.81a14.65,14.65,0,0,1,7.8,16.48c-1.05,4-2.13,8-3.18,12-1.95,7.44-8,11.46-16.11,10.62-2-.23-4.06-.75-6.08-.8a4,4,0,0,0-2.76,1.16,39,39,0,0,0-4.26,5.8,3.76,3.76,0,0,0-.19,2.94,45,45,0,0,0,2.42,5.05c3.4,6.85,1.81,13.67-4.32,17.84q-5.77,4-11.83,7.53a15.39,15.39,0,0,1-18.13-2.38c-1.61-1.48-3.07-3.26-4.73-4.63a5.14,5.14,0,0,0-3.35-1.06,38.76,38.76,0,0,0-7.31,1.52,3.44,3.44,0,0,0-2,2c-.77,2-1.23,4.06-1.83,6.1a13.16,13.16,0,0,1-13.73,9.61,156.55,156.55,0,0,1-17-2.15,15,15,0,0,1-11.79-13c-.23-2.09-.3-4.15-.55-6.28a2.87,2.87,0,0,0-2-2.6,60.4,60.4,0,0,1-6.52-3.18,2.79,2.79,0,0,0-3.29,0c-1.74,1.18-3.47,2.34-5.27,3.44a15.46,15.46,0,0,1-18.64-2.29c-3.29-3.19-6.55-6.44-9.79-9.7-5.51-5.6-6.44-13.34-1.54-19,3.37-3.88,4.5-7.13,1.42-12.08-1.61-2.61-2.87-4-5.95-4.09a21.93,21.93,0,0,1-9.59-2.35A14.51,14.51,0,0,1,252.25,117c-.61-4.43-1-8.9-1.33-13.36-.59-7.78,3.71-13.24,11.54-14.87a41.17,41.17,0,0,0,5.48-1.19,3.75,3.75,0,0,0,2.13-2,36.56,36.56,0,0,0,1.85-6.74,4.19,4.19,0,0,0-.83-3.08,53.23,53.23,0,0,0-4-4c-5.87-6.06-6.55-12.84-1.88-19.35q3.36-4.74,6.9-9.35c4.66-6.16,12.08-7.72,19.49-4.14Zm-1.56,8.56-4.42-2.16a5.91,5.91,0,0,0-8,1.61c-2.34,3-4.56,6.1-6.88,9.09a6.28,6.28,0,0,0,.18,8.88,4.19,4.19,0,0,0,.45.39c2.18,2.21,4.44,4.36,6.69,6.49a4.79,4.79,0,0,1,1.51,5.39C280.2,82.57,279.07,87,278,91.38a4.8,4.8,0,0,1-4.2,3.84L265,97c-4.07.81-5.85,3.07-5.48,7.12s.77,8,1.17,11.94a6.27,6.27,0,0,0,6,6c3.09.41,6.16.84,9.28,1a6.4,6.4,0,0,1,5.87,4.34,123.61,123.61,0,0,0,5.36,11.23,5.29,5.29,0,0,1-.47,6.53c-1.85,2.27-3.66,4.6-5.31,7-2.18,3.23-1.79,5.63,1.14,8.55l8.73,8.65a6.46,6.46,0,0,0,8.8,1.07c2.61-1.68,5.2-3.4,7.81-5.11a5.15,5.15,0,0,1,5.87.05,99.92,99.92,0,0,0,11.86,5.78,6,6,0,0,1,4.38,5.68c.19,2.56.41,5.12.64,7.7.41,4.56,2.21,6.46,6.95,7.16,3.71.56,7.42,1,11.13,1.45,4.57.6,6.82-.77,8-5,.74-2.58,1.47-5.16,2-7.76a5.4,5.4,0,0,1,5.09-4.51c4.16-.69,8.33-1.55,12.38-2.62a5.82,5.82,0,0,1,6.48,1.71c2.27,2.42,4.64,4.81,7,7.07a6.29,6.29,0,0,0,7.53,1.11c3.83-2.32,7.63-4.71,11.31-7.2a5.67,5.67,0,0,0,1.81-7.82l0,0c-1.32-2.68-2.63-5.35-4-8a5.08,5.08,0,0,1,.57-6.18c2.58-3.22,5-6.59,7.32-10a5.71,5.71,0,0,1,6.3-2.73c3.15.56,6.3,1,9.45,1.31a5.69,5.69,0,0,0,6.44-3.64c1.28-4.29,2.49-8.6,3.58-12.93a5.77,5.77,0,0,0-3.41-6.82l-9.2-4.49a5.57,5.57,0,0,1-3.4-5.06c-.35-4.39-.7-8.78-1.3-13.14A4.73,4.73,0,0,1,425,91.2c2.61-1.57,5.24-3.13,7.8-4.8a5.4,5.4,0,0,0,2.57-7.19,3.21,3.21,0,0,0-.24-.45c-1.71-3.94-3.62-7.81-5.55-11.64a7,7,0,0,0-8.33-3.76c-2.89.69-5.81,1.31-8.69,2a5.65,5.65,0,0,1-5.76-1.76c-3.33-3.33-6.64-6.71-10.06-10a5,5,0,0,1-1.67-5.36c.8-2.82,1.56-5.67,2.39-8.48,1.15-3.77,0-6.37-3.78-8.29s-7.28-3.56-10.93-5.34-6.46-1.33-8.93,1.91c-1.9,2.47-3.75,5-5.61,7.54a4.65,4.65,0,0,1-4.73,1.77q-7.06-1-14.06-1.83a5.89,5.89,0,0,1-5.2-3.68c-1.16-2.73-2.48-5.43-3.73-8.11a7.09,7.09,0,0,0-7.79-4.13c-4.22.81-8.44,1.71-12.59,2.78s-5.17,2.95-4.79,7c.31,3,.67,6.09,1,9.12a4.38,4.38,0,0,1-2.23,4.57c-4,2.48-8,5-12,7.58a5,5,0,0,1-5.17.32Z" transform="translate(-21.45 -10.05)"/><path class="a" d="M370,65.73c23.38,10.4,33.74,38.06,24.65,59.31-10.46,24.2-39.6,33.65-64.18,21.41-23.81-11.88-34.19-38.66-23.2-61.36C319.05,60.45,349.17,54.65,370,65.73Zm-54.8,23c-9,17.25-.89,40.78,19.27,50.5,18.27,8.92,41.58,3.27,50.92-15.34s1-41.11-18.62-50.84C346.73,63.13,323.43,71.14,315.17,88.71Z" transform="translate(-21.45 -10.05)"/><path class="b" d="M50.26,319.09a4.44,4.44,0,0,0,5.9,0c3.89-2.77,3.51-1.32,2.94-6.31A9.15,9.15,0,0,1,64,302.72a15.3,15.3,0,0,1,3.8-1.15c2.16-.51,4.33-.95,6.52-1.48a10.67,10.67,0,0,1,12.54,6.11c.48,1,1,2.07,1.47,3.05a1.91,1.91,0,0,0,1.71,1.28c1.54.12,3.07.29,4.62.55a2.27,2.27,0,0,0,2.5-1.11c.69-1,1.41-1.94,2.13-2.89A9.29,9.29,0,0,1,110.67,304a71.72,71.72,0,0,1,10.77,5.39,8.64,8.64,0,0,1,4.11,9,25.33,25.33,0,0,1-1.27,4.76,2.09,2.09,0,0,0,.54,2.34c1.22,1.15,2.34,2.45,3.63,3.54a2.76,2.76,0,0,0,2,.6c1.42-.18,2.77-.66,4.18-.92A10.45,10.45,0,0,1,146,334.24q2.31,4.45,4.27,9.07a9,9,0,0,1-2.94,10.5,41.54,41.54,0,0,1-3.91,2.47,1.88,1.88,0,0,0-1,2.09c.21,1.4.34,2.79.41,4.18a2.39,2.39,0,0,0,1.56,2.25l3.76,1.84a9.79,9.79,0,0,1,5.19,11c-.7,2.68-1.42,5.34-2.13,8a9.35,9.35,0,0,1-10.74,7.11c-1.35-.15-2.69-.5-4.05-.53a2.62,2.62,0,0,0-1.83.78,27.07,27.07,0,0,0-2.81,4.13,2.61,2.61,0,0,0-.13,1.94,29,29,0,0,0,1.62,3.37,8.83,8.83,0,0,1-2.87,11.91q-3.87,2.61-7.89,5a10.24,10.24,0,0,1-12.09-1.57,43.87,43.87,0,0,0-3.16-3.08A3.42,3.42,0,0,0,105,414a27.14,27.14,0,0,0-4.88,1,2.39,2.39,0,0,0-1.31,1.32c-.51,1.31-.82,2.72-1.22,4.06a8.76,8.76,0,0,1-9.14,6.42,102.84,102.84,0,0,1-11.33-1.42,10,10,0,0,1-7.82-8.67,39,39,0,0,1-.3-4.15,1.88,1.88,0,0,0-1.35-1.73,41.2,41.2,0,0,1-4.33-2.11,1.85,1.85,0,0,0-2.19,0c-1.16.76-2.33,1.54-3.46,2.32a10.23,10.23,0,0,1-12.39-1.53c-2.21-2.12-4.37-4.28-6.53-6.45a9.09,9.09,0,0,1-1-12.68c2.23-2.57,3-4.75,1-8.06a4.36,4.36,0,0,0-3.94-2.72,14.2,14.2,0,0,1-6.43-1.48,9.66,9.66,0,0,1-5.37-7.51c-.4-2.95-.65-5.94-.87-8.91a8.88,8.88,0,0,1,7.68-9.93,28.57,28.57,0,0,0,3.65-.78,2.56,2.56,0,0,0,1.42-1.34A24.89,24.89,0,0,0,36,345.18a3,3,0,0,0-.54-2.06c-.76-1-1.79-1.76-2.67-2.68-3.93-4-4.35-8.57-1.25-12.91q2.23-3.16,4.58-6.25a10,10,0,0,1,13-2.76Zm-1,5.68-2.93-1.43A3.93,3.93,0,0,0,41,324.43c-1.57,2-3,4.07-4.59,6.06a4.19,4.19,0,0,0-.07,5.92,3.79,3.79,0,0,0,.42.38c1.46,1.45,2.94,2.9,4.46,4.32a3.22,3.22,0,0,1,1,3.57c-.85,2.89-1.61,5.83-2.32,8.77A3.23,3.23,0,0,1,37.11,356l-5.85,1.18a4,4,0,0,0-3.71,4.18,3.7,3.7,0,0,0,.07.57c.22,2.64.48,5.31.77,8a4.19,4.19,0,0,0,4,4c2.06.26,4.12.54,6.17.68a4.18,4.18,0,0,1,3.9,2.88c1.1,2.54,2.22,5,3.57,7.5a3.54,3.54,0,0,1-.31,4.35c-1.24,1.51-2.45,3.06-3.55,4.69-1.45,2.16-1.2,3.75.74,5.7l5.82,5.75a4.29,4.29,0,0,0,5.8.71l5.21-3.42a3.43,3.43,0,0,1,3.91,0,69.15,69.15,0,0,0,7.88,3.85,4,4,0,0,1,2.94,3.76c.12,1.71.27,3.42.41,5.14a4.53,4.53,0,0,0,4.29,4.78h.36c2.48.37,4.95.64,7.41,1,3,.39,4.56-.51,5.35-3.33.48-1.7,1-3.42,1.36-5.17a3.57,3.57,0,0,1,3.38-3c2.77-.47,5.53-1,8.24-1.75a3.88,3.88,0,0,1,4.31,1.14c1.54,1.62,3.09,3.21,4.68,4.73a4.18,4.18,0,0,0,5,.71c2.55-1.55,5.1-3.14,7.55-4.82a3.79,3.79,0,0,0,1.2-5.22l0,0c-.88-1.78-1.76-3.56-2.67-5.32a3.36,3.36,0,0,1,.38-4.12c1.7-2.15,3.31-4.4,4.88-6.66a3.83,3.83,0,0,1,4.21-1.84c2.13.41,4.17.66,6.28.88a3.77,3.77,0,0,0,4.25-2.45c.86-2.86,1.67-5.73,2.4-8.61a3.83,3.83,0,0,0-2.27-4.56l-6.11-3a3.7,3.7,0,0,1-2.25-3.43c-.22-2.93-.48-5.85-.85-8.75a3.18,3.18,0,0,1,1.6-3.51c1.75-1.06,3.5-2.12,5.2-3.22a3.62,3.62,0,0,0,1.71-4.83,1.91,1.91,0,0,0-.15-.28c-1.07-2.57-2.41-5.18-3.7-7.75a4.64,4.64,0,0,0-5.54-2.49c-1.92.46-3.86.89-5.77,1.38a3.81,3.81,0,0,1-3.83-1.17c-2.23-2.23-4.43-4.49-6.7-6.67a3.34,3.34,0,0,1-1.1-3.57c.52-1.89,1-3.78,1.59-5.65a4.19,4.19,0,0,0-2.3-5.46l-.21-.08-7.27-3.55A4.19,4.19,0,0,0,104,310.9l-.13.2c-1.28,1.71-2.53,3.42-3.75,5a3.07,3.07,0,0,1-3.16,1.18c-3.11-.4-6.28-.74-9.35-1.19a4,4,0,0,1-3.46-2.45c-.76-1.82-1.63-3.62-2.48-5.41a4.69,4.69,0,0,0-5.18-2.76c-2.82.56-5.6,1.16-8.38,1.88a3.64,3.64,0,0,0-3.3,4,3.45,3.45,0,0,0,.13.7c.2,2,.36,4,.67,6.08a2.92,2.92,0,0,1-1.49,3q-4,2.52-8,5.06a3.27,3.27,0,0,1-3.43.22Z" transform="translate(-21.45 -10.05)"/><path class="b" d="M101.17,336.19c15.54,6.93,22.44,25.36,16.32,39.52-7,16.14-26.39,22.47-42.74,14.33C58.89,382.11,52,364.28,59.33,349.12,67.27,332.7,87.3,328.85,101.17,336.19ZM64.68,351.57c-6,11.51-.62,27.19,12.79,33.66,12.18,5.95,27.7,2.15,33.92-10.26s.71-27.43-12.31-34C85.7,334.47,70.18,339.83,64.68,351.57Z" transform="translate(-21.45 -10.05)"/><path class="c" d="M364.76,406.49c.09,1.54,1.08,1.73,2.55,1.73,3.62,0,7.23.2,10.84.39,2,.1,3.47,1.31,4.78,2.56a8.77,8.77,0,0,1,2.3,9.55,9.1,9.1,0,0,1-7.83,6.33,22.74,22.74,0,0,1-3.19.26H83.08c-5,0-8.77-1.76-10.76-6a8.49,8.49,0,0,1,.17-7.62,8.27,8.27,0,0,1,4.08-4.22,19.55,19.55,0,0,1,5.69-1.31,76,76,0,0,1,8.27,0c1.34,0,1.77-.36,1.76-1.6q-.06-20.42,0-40.83a15.87,15.87,0,0,1,.25-2.06c0,.71.07,1.41.07,2.11v47.09h11.51l.12,5.09v3.63H106c1.16,0,2.33.07,3.5.07h29.15c.55,0,1.51.5,1.62-.63v-3.28l.15-4.88H316.87l.15,4.88v3.36a4.32,4.32,0,0,0,1.46.63h22.28c3.51,0,7,0,10.53-.07h1.8V418c.05-1.69.09-3.39.13-5.09H364.8Z" transform="translate(-21.45 -10.05)"/><path class="d" d="M100.18,194.37l.39-.24c.87,0,1.74,0,2.6.09,1.27.12,1.68-.35,1.66-1.51,0-5,0-10,0-14.92-.13-9.34,0-18.67,2.23-27.82a155.93,155.93,0,0,1,5.18-17.32,96.35,96.35,0,0,1,8.18-16.54,116,116,0,0,1,19-23.63,123.1,123.1,0,0,1,18.09-14.24,129.73,129.73,0,0,1,29.82-14.13,147.35,147.35,0,0,1,21.73-5.17,1.32,1.32,0,0,1,1.68.77c2.79,5.46,5.64,10.9,8.47,16.35a21.23,21.23,0,0,1-2.25.42,107.17,107.17,0,0,0-20,3.9,105,105,0,0,0-40.58,22.3A94.92,94.92,0,0,0,136.6,127a86.8,86.8,0,0,0-11.8,40.15c-.29,7.5-.06,15-.08,22.52,0,1.54,0,3.08-.08,4.63-.91,0-1.82.12-2.73.12Z" transform="translate(-21.45 -10.05)"/><path class="d" d="M356.7,194.11l.39.24H335.22c-.86,0-1.72-.08-2.58-.12a3.25,3.25,0,0,1-.14-.69c0-7-.06-14,.08-21a85.45,85.45,0,0,0-4.22-28.43,92.41,92.41,0,0,0-21.1-35.29,104.42,104.42,0,0,0-24.63-19.18,107.28,107.28,0,0,0-35.5-12.4c-3.21-.53-6.44-.92-9.66-1.37.42-.65.86-1.28,1.25-1.94,2.82-4.62,5.65-9.23,8.42-13.87a1.87,1.87,0,0,1,2.35-1c1.13.26,2.32.32,3.46.54a133.43,133.43,0,0,1,36.17,12.3,121,121,0,0,1,26.31,18.21,118.2,118.2,0,0,1,16.39,18.3,109.18,109.18,0,0,1,11,18.76,105.16,105.16,0,0,1,9.61,41.49c.12,7.32,0,14.64,0,22C352.47,194.5,352.47,194.5,356.7,194.11Z" transform="translate(-21.45 -10.05)"/><path class="c" d="M356.7,194.11c-4.23.37-4.23.37-4.23-3.4,0-7.32.08-14.64,0-22a105.16,105.16,0,0,0-9.61-41.49,109.18,109.18,0,0,0-11-18.76,118.2,118.2,0,0,0-16.39-18.3,121.07,121.07,0,0,0-26.31-18.22A133.69,133.69,0,0,0,253,59.7c-1.14-.22-2.33-.28-3.46-.54a1.87,1.87,0,0,0-2.35,1c-2.77,4.64-5.6,9.25-8.42,13.87-.39.66-.83,1.29-1.25,1.94-.85,0-1.71-.08-2.56,0-1.21.11-1.48-.47-1.39-1.4l.1-.42.56-1.29.31-.74.49-1.21.17-.4.78-1.85,1.92-4.72,4-9.84a136.71,136.71,0,0,1,39.54,9.77,132.34,132.34,0,0,1,30.76,18A119.49,119.49,0,0,1,334.8,105,111.06,111.06,0,0,1,354,145.55a94.25,94.25,0,0,1,2.89,21.27c.08,8.53.18,17.06.24,25.59A10.85,10.85,0,0,1,356.7,194.11Z" transform="translate(-21.45 -10.05)"/><path class="c" d="M219.26,76c-2.83-5.45-5.68-10.89-8.47-16.35a1.32,1.32,0,0,0-1.68-.77A147.35,147.35,0,0,0,187.38,64,129.83,129.83,0,0,0,157.56,78.2a123.1,123.1,0,0,0-18.09,14.24,116.2,116.2,0,0,0-19,23.67,96.5,96.5,0,0,0-8.21,16.58A160.47,160.47,0,0,0,107,150c-2.22,9.15-2.36,18.48-2.23,27.82.06,5,0,9.94,0,14.92,0,1.16-.39,1.63-1.66,1.51-.86-.08-1.73-.07-2.6-.09a21.18,21.18,0,0,1-.28-2.51V172.9a109.93,109.93,0,0,1,12.09-51.49,116.26,116.26,0,0,1,16.33-24A122.54,122.54,0,0,1,150.5,77.77a131.48,131.48,0,0,1,23.19-13,133.36,133.36,0,0,1,35.42-9.9c2.11-.29,4.23-.52,6.35-.78l5.86,14.58.51,1.18.43,1.06.49,1.21.25.5c.23.63.46,1.27.7,1.9v.08c.1,1-.32,1.45-1.47,1.38S220.27,76,219.26,76Z" transform="translate(-21.45 -10.05)"/><path class="e" d="M100.18,194.37h21.73c.91,0,1.82-.08,2.73-.12a8,8,0,0,1,.23,1.37v29.83a20.25,20.25,0,0,1-.26,2.33h-24l-3.44-.12V194.48Z" transform="translate(-21.45 -10.05)"/><path class="e" d="M332.64,194.26c.86,0,1.72.12,2.58.12h21.87l3,.11v33.17l-3.41.12h-24a7.62,7.62,0,0,1-.23-1.35V195.62A8.9,8.9,0,0,1,332.64,194.26Z" transform="translate(-21.45 -10.05)"/><path class="c" d="M352.35,227.78h4.35a10.56,10.56,0,0,1,.3,1.77V362a10.85,10.85,0,0,1-.06,1.4h-4.51V229.9C352.46,229.18,352.39,228.48,352.35,227.78Z" transform="translate(-21.45 -10.05)"/><path class="c" d="M100.6,227.77h4.31c0,.56-.1,1.12-.1,1.68V363.29H100.3V229.76A13.47,13.47,0,0,1,100.6,227.77Z" transform="translate(-21.45 -10.05)"/><path class="f" d="M222.3,70.86c-.15-.35-.29-.7-.43-1.06l-.51-1.18L215.5,54A33.05,33.05,0,0,1,219.4,53a59.52,59.52,0,0,1,21,.49,7.82,7.82,0,0,1,1.37.58l-4,9.84-1.92,4.72-.78,1.85c-.06.14-.11.27-.17.4l-.49,1.21c-.1.25-.21.49-.31.74-.19.43-.38.86-.56,1.29l-.1.42a4.44,4.44,0,0,1-.64.9,2,2,0,0,1-1.11.64q-3.12.09-6.25,0a2.19,2.19,0,0,1-1.12-.62,4.27,4.27,0,0,1-.64-.89v-.08c-.24-.63-.47-1.27-.7-1.9-.08-.17-.17-.33-.25-.5A10.9,10.9,0,0,0,222.3,70.86Z" transform="translate(-21.45 -10.05)"/><path class="c" d="M100.32,363.35h4.51l2.11.17c-2,.06-4,.17-5.94.18-3.83,0-3.83,0-3.83,3.57V411c0,1.36.42,1.81,1.89,1.75s3,.12,4.56.19h-11V365.85c0-.7-.05-1.4-.07-2.11,1.24-.09,2.47-.22,3.71-.28S99,363.38,100.32,363.35Z" transform="translate(-21.45 -10.05)"/><path class="c" d="M352.44,363.32h12.24V405.2a7.61,7.61,0,0,0,.07,1.26v6.42H353.69c1.47-.07,2.93-.17,4.4-.21,2,0,2,0,2-1.87V365.38c0-1.34-.38-1.8-1.88-1.77-2.53.06-5.08-.09-7.62-.15Z" transform="translate(-21.45 -10.05)"/><path class="c" d="M360.11,227.65V194.48h4.49v33.17Z" transform="translate(-21.45 -10.05)"/><path class="c" d="M97.16,194.48v33.17H92.68V194.48Z" transform="translate(-21.45 -10.05)"/><path class="e" d="M103.59,412.92c-1.52-.07-3-.25-4.56-.19s-1.9-.39-1.89-1.75q.06-21.87,0-43.73c0-3.56,0-3.54,3.83-3.57,2,0,4-.12,5.94-.18h14.51l3.3.17c0,.46.11.93.11,1.39v34.66a20.7,20.7,0,0,0,.2,2.07v10.77a12.75,12.75,0,0,1-1.5.17H106a17.77,17.77,0,0,0-1.93.2Z" transform="translate(-21.45 -10.05)"/><path class="e" d="M350.65,363.5c2.53.06,5.08.21,7.61.15,1.5,0,1.88.43,1.88,1.77-.05,15.14,0,30.28,0,45.42,0,1.84,0,1.82-2,1.87-1.47,0-2.93.14-4.4.21h-.51a17.77,17.77,0,0,0-1.93-.2H333.9a11,11,0,0,1-1.61-.24V401.72c0-.56.15-1.11.15-1.67V367.3c0-1.21.07-2.43.11-3.64l3.65-.19Z" transform="translate(-21.45 -10.05)"/><path class="f" d="M332.24,412.5a11,11,0,0,0,1.61.24h17.4a17.77,17.77,0,0,1,1.93.2c0,1.7-.08,3.4-.13,5.09a12.65,12.65,0,0,0-1.93-.28h-7.64l-26.47.07-.15-4.88a.22.22,0,0,0,.08-.2c3.69,0,7.38,0,11.07-.06C329.42,412.67,330.83,412.56,332.24,412.5Z" transform="translate(-21.45 -10.05)"/><path class="f" d="M104.1,413a17.77,17.77,0,0,1,1.93-.2h17.51a12.75,12.75,0,0,0,1.5-.17c.66,0,1.32.11,2,.12h13.32a.22.22,0,0,0,.08.2l-.15,4.88H105.71a7.34,7.34,0,0,0-1.47.28Z" transform="translate(-21.45 -10.05)"/><path class="f" d="M104.22,418.05a7.34,7.34,0,0,1,1.47-.28H139.5a3.94,3.94,0,0,1,.77.05V420s-.08.08-.08.11a.92.92,0,0,0,.09.23v.79a13.9,13.9,0,0,1-2.21.34H108a18,18,0,0,0-1.94.22H104.2Z" transform="translate(-21.45 -10.05)"/><path class="f" d="M317,417.82l26.47-.07h7.64A12.65,12.65,0,0,1,353,418v3.63h-1.8c-.65-.07-1.3-.21-1.94-.22H319.17a13.22,13.22,0,0,1-2.17-.33v-.5s.08-.07.08-.1l-.09-.24Z" transform="translate(-21.45 -10.05)"/><path class="g" d="M140.42,412.94a.22.22,0,0,1-.08-.2h176.6a.22.22,0,0,1-.08.2Z" transform="translate(-21.45 -10.05)"/><path class="h" d="M106,421.68c.64-.07,1.29-.21,1.94-.22h30.12a13.9,13.9,0,0,0,2.21-.34c-.11,1.13-1.07.63-1.62.63H109.5C108.36,421.75,107.19,421.71,106,421.68Z" transform="translate(-21.45 -10.05)"/><path class="h" d="M317,421.11a13.6,13.6,0,0,0,2.2.34h30.13a18,18,0,0,1,1.94.22c-3.51,0-7,.07-10.53.07H318.46A4.32,4.32,0,0,1,317,421.11Z" transform="translate(-21.45 -10.05)"/><path class="f" d="M140.3,420.32a.92.92,0,0,1-.09-.23.12.12,0,0,1,.08-.11Z" transform="translate(-21.45 -10.05)"/><path class="h" d="M317,420.26l.09.24-.08.1Z" transform="translate(-21.45 -10.05)"/><path class="f" d="M332.52,363.68c0,1.21-.11,2.43-.11,3.64v32.79c0,.56-.1,1.11-.15,1.67-.81,0-1.63-.08-2.44-.08H127.51c-.81,0-1.63.09-2.44.13a20.7,20.7,0,0,1-.2-2.07V365.11c0-.46-.07-.93-.11-1.39l-.2-.39c.06-1,.17-2,.17-2.94V230.86c0-1-.08-2.05-.13-3.08a20.25,20.25,0,0,0,.26-2.33V195.62a8,8,0,0,0-.23-1.37c0-1.55.08-3.09.08-4.63,0-7.51-.21-15,.08-22.52a86.81,86.81,0,0,1,11.8-40.22,94.92,94.92,0,0,1,19.83-24.28A105,105,0,0,1,197,80.31a107.17,107.17,0,0,1,20-3.9,21.23,21.23,0,0,0,2.25-.42c1,0,2-.12,3-.06s1.57-.39,1.47-1.38a4.27,4.27,0,0,0,.64.89,2.19,2.19,0,0,0,1.12.62c2.09.06,4.18.06,6.25,0a2,2,0,0,0,1.11-.64,4.44,4.44,0,0,0,.64-.9c-.09.93.18,1.51,1.39,1.4.85-.07,1.71,0,2.56,0,3.22.45,6.45.84,9.66,1.37a107.28,107.28,0,0,1,35.5,12.4,104.42,104.42,0,0,1,24.63,19.18,92.41,92.41,0,0,1,21.1,35.29,85.51,85.51,0,0,1,4.22,28.44c-.14,7-.07,14-.08,21a3.25,3.25,0,0,0,.14.69,9.11,9.11,0,0,0-.23,1.37v30.81a7.62,7.62,0,0,0,.23,1.35c0,1.07-.12,2.15-.12,3.22V360.67c0,.88.11,1.77.16,2.66ZM129.05,282.75V395.64c0,1.86,0,1.87,2,1.87h28.66a16.13,16.13,0,0,1,3,.61,2.18,2.18,0,0,0,.72,0,16.9,16.9,0,0,1,3-.57H326.55c1.22.13,1.85-.27,1.69-1.48a6,6,0,0,1,0-.85V222.92c0-17.92-.17-35.83-.25-53.75A79.58,79.58,0,0,0,323.83,145a78.59,78.59,0,0,0-8.25-17.88,105.06,105.06,0,0,0-9.5-12.71,102.14,102.14,0,0,0-11.34-11.16,86.54,86.54,0,0,0-24.18-14.57,142.84,142.84,0,0,0-16-5.45,93.27,93.27,0,0,0-31.42-3c-4.1.35-8.24.59-12.28,1.25A103.47,103.47,0,0,0,183,90.11a97.64,97.64,0,0,0-20.81,13.25A93.14,93.14,0,0,0,141,128.28a89,89,0,0,0-9.7,24.59A85.79,85.79,0,0,0,129.12,172Q129,227.35,129.05,282.75Z" transform="translate(-21.45 -10.05)"/><path class="h" d="M235.15,70.46l.78-1.85Z" transform="translate(-21.45 -10.05)"/><path class="h" d="M233.62,74.11c.18-.43.37-.86.56-1.29C234,73.24,233.8,73.67,233.62,74.11Z" transform="translate(-21.45 -10.05)"/><path class="h" d="M234.49,72.11,235,70.9Z" transform="translate(-21.45 -10.05)"/><path class="h" d="M223,72.57c.23.63.46,1.27.7,1.9C223.5,73.84,223.27,73.2,223,72.57Z" transform="translate(-21.45 -10.05)"/><path class="h" d="M221.36,68.62l.51,1.18Z" transform="translate(-21.45 -10.05)"/><path class="h" d="M222.3,70.86c.16.4.32.81.49,1.21C222.62,71.67,222.46,71.26,222.3,70.86Z" transform="translate(-21.45 -10.05)"/><path class="d" d="M124.6,227.79c.05,1,.13,2.06.13,3.08V360.35c0,1-.11,2-.17,2.94l-3.1.22H106.94l-2.11-.17V229.45c0-.56.07-1.12.1-1.68Z" transform="translate(-21.45 -10.05)"/><path class="d" d="M332.71,363.3c0-.89-.16-1.78-.16-2.66V231c0-1.07.08-2.15.12-3.22h19.68c0,.7.11,1.4.11,2.1V363.35l-1.8.18H336.17Z" transform="translate(-21.45 -10.05)"/><path class="d" d="M125.07,401.8c.81,0,1.63-.13,2.44-.13h202.3c.81,0,1.63.05,2.44.08V409c-.66,0-1.32.06-2,.06H125Z" transform="translate(-21.45 -10.05)"/><path class="f" d="M125,409H330.24c.67,0,1.33,0,2-.06v3.55c-1.41.06-2.82.17-4.23.18-3.69,0-7.38,0-11.07.06H127c-.66,0-1.32-.08-2-.12Z" transform="translate(-21.45 -10.05)"/><path class="i" d="M121.45,363.51l3.1-.22c.07.13.14.26.2.39Z" transform="translate(-21.45 -10.05)"/><path class="i" d="M332.71,363.3l3.46.19-3.65.19Z" transform="translate(-21.45 -10.05)"/><path class="f" d="M129.05,282.75V172a85.79,85.79,0,0,1,2.18-19.09,89,89,0,0,1,9.7-24.59,93.26,93.26,0,0,1,21.22-24.88A98.07,98.07,0,0,1,183,90.11a102.92,102.92,0,0,1,27.83-8.75c4-.66,8.18-.9,12.28-1.25a93.27,93.27,0,0,1,31.42,3,142.84,142.84,0,0,1,16,5.45,86.48,86.48,0,0,1,24.18,14.55,102.14,102.14,0,0,1,11.34,11.16,105.06,105.06,0,0,1,9.5,12.71,78.26,78.26,0,0,1,8.25,17.92,79.15,79.15,0,0,1,4.2,24.21c.08,17.92.24,35.83.25,53.75v172.3a6,6,0,0,0,0,.85c.16,1.21-.47,1.61-1.69,1.48H166.44a16.9,16.9,0,0,0-3,.57,2.17,2.17,0,0,1-.72,0,16.13,16.13,0,0,0-3-.61H131.06c-2,0-2,0-2-1.87ZM323,157.88h0l-.5-1.68c-.21-.86-.49-1.71-.64-2.58a67.67,67.67,0,0,0-4.7-14.63,85.42,85.42,0,0,0-14.26-22.48,92.27,92.27,0,0,0-26.14-20.75,100.1,100.1,0,0,0-38.18-11.48,102.21,102.21,0,0,0-39.38,3.83,96.67,96.67,0,0,0-27.78,13.3,92.85,92.85,0,0,0-21.07,20,83.8,83.8,0,0,0-11.22,19.88,79.52,79.52,0,0,0-5,19.17,4.34,4.34,0,0,0-.5,1.34c0,1.36.08,2.72,0,4.07s.38,1.63,1.74,1.62q8.7-.06,17.39,0h168.9c1.51,0,2.14-.27,1.92-1.8a32,32,0,0,1,.08-3.79,5.73,5.73,0,0,0-.42-1.41h0l-.09-.25v-.66A12.06,12.06,0,0,1,323,157.88ZM133.62,239.81a26.34,26.34,0,0,1,0,2.81c-.17,1.41.5,1.72,1.92,1.71,7.21-.05,14.41,0,21.61-.06,1.59,0,2,.45,2,1.85-.11,2.53,0,5.07,0,7.6.09,27.45.14,54.89.32,82.34a35.56,35.56,0,0,0,3,13,64.14,64.14,0,0,0,12.79,20,96.61,96.61,0,0,0,10.43,10,66.22,66.22,0,0,0,17.15,9.61,72.8,72.8,0,0,0,25.48,4.8,70.27,70.27,0,0,0,19.87-2.72,66,66,0,0,0,24.9-13,77,77,0,0,0,19.63-24.15,47.65,47.65,0,0,0,5.44-21.49c.07-28.58,0-57.16,0-85.73,0-2,0-2,2.16-2h21.61c1.23,0,1.78-.3,1.69-1.51s-.06-2.71-.09-4.07V173.47a8.15,8.15,0,0,0-.56-2,8.81,8.81,0,0,0-2.15-.54H136.38a5,5,0,0,0-1.22,0,4.34,4.34,0,0,0-.93.54.51.51,0,0,1-.3,0c-.32.56-.9,1.12-.91,1.68-.08,4.53,0,9.07,0,13.61v51.66A5,5,0,0,0,133.62,239.81Z" transform="translate(-21.45 -10.05)"/><path class="j" d="M134,171.42a.51.51,0,0,0,.3,0c.87,0,1.73.05,2.6.05H320.25c.92,0,1.84,0,2.76-.05a8.15,8.15,0,0,1,.56,2v65.33H296.64c-1.38,0-1.78.37-1.71,1.58s-.05,2.62-.09,3.93h-8.22c0-1.13-.08-2.25-.09-3.37,0-2.23,0-2.23-2.43-2.23H175.38c-1,0-1.94.06-2.9,0-1.3-.11-1.86.25-1.75,1.54a39.44,39.44,0,0,1-.07,4.07h-8.21a25.12,25.12,0,0,0-.15-3.47,14.06,14.06,0,0,0-.4-1.93h-1.18q-.6-.1-1.2-.15H135.65a7.9,7.9,0,0,0-1.19.15l-.73-.08V173.05A9,9,0,0,1,134,171.42Zm185.39,33.9V177c0-1.36-.42-1.75-1.9-1.74q-27.56.06-55.13,0c-1.47,0-1.9.37-1.9,1.74q.07,28,0,56c0,1.91.07,2,2.14,2h54.7c2.05,0,2.05,0,2.06-1.83Zm-181.47-.21v28c0,1.86,0,1.87,2,1.87H194.6c2.1,0,2.17-.06,2.17-2V177.21c0-1.88,0-1.89-2-1.89H140c-2.05,0-2.05,0-2.05,2Zm61.31-.07v28.3c0,1,.08,1.65,1.52,1.65q27.81-.06,55.62,0c1.13,0,1.6-.41,1.65-1.37V176.91c0-1.18-.28-1.65-1.69-1.64q-27.73.06-55.47,0c-1.38,0-1.71.42-1.7,1.62.09,9.42.06,18.8.07,28.22Z" transform="translate(-21.45 -10.05)"/><path class="f" d="M206.51,298.11h6.56a3.58,3.58,0,0,1,.09.45v20.33a12.21,12.21,0,0,0,.19,2.09,13.59,13.59,0,0,0,4.89,8.19,16,16,0,0,0,12.8,3.47,15.26,15.26,0,0,0,8.85-4.35,13.14,13.14,0,0,0,4.13-9.42V298.44c0-.3.07-.37.39-.37h6.27V299c0,.32-.1.35-.39.35h-5c-.5,0-.5,0-.5.47v20a11.17,11.17,0,0,1-1.27,5,17.77,17.77,0,0,1-4.57,5.62,15.38,15.38,0,0,1-5.8,3,16.4,16.4,0,0,1-4.62.63A16.69,16.69,0,0,1,222.6,333a15.24,15.24,0,0,1-4-2.23,23,23,0,0,1-2.42-2.32,14.9,14.9,0,0,1-3-4.66,8.17,8.17,0,0,1-.7-3c0-6.39,0-12.78-.07-19.17v-1.77c0-.32-.09-.43-.47-.43h-5c-.33,0-.49-.07-.45-.4a3.64,3.64,0,0,0,0-.66A1.64,1.64,0,0,0,206.51,298.11Z" transform="translate(-21.45 -10.05)"/><path class="c" d="M323.09,159.53v.75a.61.61,0,0,0,.12.16h0c0,3.08,0,3.08-3.17,3.08H137.33c-3.49,0-3.49,0-3.21-3.1a79.52,79.52,0,0,1,5-19.17,83.8,83.8,0,0,1,11.22-19.88,92.85,92.85,0,0,1,21.07-20A96.36,96.36,0,0,1,199.2,88.11a102.26,102.26,0,0,1,39.39-3.8,100.28,100.28,0,0,1,38.18,11.48,92.27,92.27,0,0,1,26.14,20.75A85.42,85.42,0,0,1,317.17,139a67.67,67.67,0,0,1,4.7,14.63c.15.87.43,1.72.64,2.58.17.55.33,1.12.5,1.68h0C323,158.43,323.06,159,323.09,159.53Zm-94.61.29h88.26c2,0,2.27-.23,1.89-2-.56-2.62-1.07-5.25-1.83-7.81a81.76,81.76,0,0,0-13.74-26.9,89.58,89.58,0,0,0-31.48-25.56A94.57,94.57,0,0,0,245.16,89a103,103,0,0,0-20.9-1.21,92.32,92.32,0,0,0-22.69,3.62,95.78,95.78,0,0,0-24.51,11,88.58,88.58,0,0,0-17.78,14.69,78.29,78.29,0,0,0-17.36,28.66c-1.33,4-2.27,8.14-3.29,12.24-.39,1.58-.06,1.85,1.44,1.85Z" transform="translate(-21.45 -10.05)"/><path class="f" d="M134.12,160.46c-.28,3.1-.28,3.1,3.21,3.1H320.07c3.19,0,3.19,0,3.17-3.08a5.33,5.33,0,0,1,.42,1.41,32,32,0,0,0-.08,3.79c.22,1.53-.41,1.8-1.92,1.8H135.37c-1.36,0-1.82-.39-1.74-1.62s-.06-2.71,0-4.07A4.43,4.43,0,0,1,134.12,160.46Z" transform="translate(-21.45 -10.05)"/><path class="k" d="M323,171.39c-.92,0-1.84.05-2.76.05H136.87c-.87,0-1.73,0-2.6-.05a4.11,4.11,0,0,1,.93-.54,5,5,0,0,1,1.22,0H320.86A8.84,8.84,0,0,1,323,171.39Z" transform="translate(-21.45 -10.05)"/><path class="l" d="M133.73,238.81a8.27,8.27,0,0,1-.11,1,4.63,4.63,0,0,1-.58-1.44c-.06-1.86,0-3.71,0-5.57V173.11c0-.56.59-1.12.91-1.68a9.18,9.18,0,0,0-.28,1.65V238.4A2.7,2.7,0,0,1,133.73,238.81Z" transform="translate(-21.45 -10.05)"/><path class="h" d="M323,157.88c-.17-.56-.33-1.13-.5-1.68C322.68,156.76,322.84,157.32,323,157.88Z" transform="translate(-21.45 -10.05)"/><path class="h" d="M323.09,159.53c0-.55-.06-1.1-.08-1.65C323,158.43,323.06,159,323.09,159.53Z" transform="translate(-21.45 -10.05)"/><path class="h" d="M323.22,160.44a.61.61,0,0,1-.12-.16v-.09Z" transform="translate(-21.45 -10.05)"/><path class="f" d="M294.83,244.27c0,.56.13,1.11.13,1.67,0,27.4.15,54.8,0,82.2-.12,15.5-6.24,29-17.69,40.37a65.37,65.37,0,0,1-38,18.68c-20.77,2.87-39.28-2-55-14.93a58.22,58.22,0,0,1-21-35.17,50.32,50.32,0,0,1-.84-9q-.09-41.1,0-82.2c0-.56.08-1.11.13-1.67h8.21l.14.05v82.46a50.62,50.62,0,0,0,.34,5.9,49.13,49.13,0,0,0,16.5,31.68c17.25,15.53,37.82,19.8,60.56,12.6,23.42-7.43,38.18-27.49,38.19-50.22V244.36h.14Z" transform="translate(-21.45 -10.05)"/><path class="m" d="M319.36,205.32v27.86c0,1.82,0,1.83-2.06,1.83H262.63c-2.07,0-2.14-.07-2.14-2V177c0-1.37.43-1.75,1.9-1.74q27.57.06,55.13,0c1.48,0,1.91.38,1.9,1.74C319.33,186.47,319.36,195.89,319.36,205.32Zm-2.41-15V188a15,15,0,0,0-1.62-.21H262.67c0,.83-.1,1.67-.16,2.51l.35.08a10.35,10.35,0,0,0,1.35.16h51.21a9.05,9.05,0,0,0,1.46-.23Zm0-5.1v.06h-.07a.35.35,0,0,0,.06-.24l.08-.28v-2.07a15,15,0,0,0-1.62-.21H264.17a12.73,12.73,0,0,0-1.63.2l-.05,2.08.41.37q.6.1,1.2.15Zm-54.32,31.89h0a11.07,11.07,0,0,0,1.62.22h51.07a10.59,10.59,0,0,0,1.68-.22h0a20.06,20.06,0,0,1,.07-2.05,6.86,6.86,0,0,0-1.72-.47H264.16a12.88,12.88,0,0,0-1.64.2Zm0-21.4.07.06a12.22,12.22,0,0,0,1.48.19h51.2a11.07,11.07,0,0,0,1.62-.22l.11-.29c-.06-.75-.13-1.5-.19-2.24H263l-.4.14-.1.35c0,.59,0,1.27.06,2Zm0,32.1h0a5.75,5.75,0,0,0,1.17.22h53.12l.07.06h-.09a.25.25,0,0,0,.07-.23l.08-.29v-1.79a6.31,6.31,0,0,0-1.71-.48H264.18a12.73,12.73,0,0,0-1.63.2Zm0-5.35.07.06a9.89,9.89,0,0,0,1.33.18h51.5a9,9,0,0,0,1.47-.24v-2.38a6.55,6.55,0,0,0-1.16-.2H262.7c-.05.86-.1,1.69-.15,2.53Zm.12-45.34c-.94,2.2-.54,2.8,1.88,2.8h50.44a15.49,15.49,0,0,0,1.92-.24l.11-.26v-1.79a.27.27,0,0,0-.11-.22,11.82,11.82,0,0,0-1.68-.3H262.75ZM317,198.93a5.78,5.78,0,0,0-1.57-.46H263c-1.33.51-.49,1.52-.52,2.29,0,.15,1,.47,1.5.47h53.3C317.17,200.38,317.1,199.66,317,198.93Zm-.17,4.89H262.69c-1,2.05-.52,2.79,1.71,2.79H315a15.48,15.48,0,0,0,1.92-.23l.08-.27ZM262.6,211.7a11,11,0,0,0,1.61.23h51.07a11,11,0,0,0,1.61-.23l.13-2-.06-.37a8.42,8.42,0,0,0-1.32-.2H263.91a5.27,5.27,0,0,0-1.46.45v1.81Zm-.1,21.51h54.3v-2.56H262.53Z" transform="translate(-21.45 -10.05)"/><path class="m" d="M137.92,205.11V177.29c0-2,0-2,2.05-2H194.8c2,0,2,0,2,1.89v55.93c0,1.89-.07,2-2.17,2h-54.7c-2,0-2,0-2-1.87Zm56.81,17.23c.08-1,.16-1.92.25-2.89h-.27l-.09.4H141.28a4.92,4.92,0,0,0-1,.2v2.06l.38.35c.6,0,1.2.15,1.8.15H193a14.77,14.77,0,0,0,1.63-.18ZM140.3,217h0a11.18,11.18,0,0,0,1.63.21H193a11.07,11.07,0,0,0,1.62-.22h0v-2.33a6.77,6.77,0,0,0-1.18-.2H141.39a3.82,3.82,0,0,0-1.27.47Zm54.42-21.41.08-2a6.6,6.6,0,0,0-1.74-.47H141.91a12.73,12.73,0,0,0-1.63.2l-.05,2.07.11.29a13.31,13.31,0,0,0,1.78.22H193a14.77,14.77,0,0,0,1.63-.18Zm0,32.11v-2.34a12.24,12.24,0,0,0-1.48-.2H140.45l-.19,2.25.08.3a.23.23,0,0,0,.07.22h-.09l.08,0h53.12a5.79,5.79,0,0,0,1.16-.22ZM194.63,177H154.49c-2.65,0-5.3,0-8,.06-1.75,0-3.5-.07-5.25,0-.35,0-.69.33-1,.51v1.54l.13.53a13.06,13.06,0,0,0,1.76.24H193a3.14,3.14,0,0,0,1.06,0c.31-.11.78-.41.78-.63a13.38,13.38,0,0,0-.27-2.19Zm-54.24,24.18h53c.52,0,1.5-.34,1.49-.48-.05-.77.83-1.78-.51-2.28H141.91a12.46,12.46,0,0,0-1.61.22l-.08,2.05.11.28a.29.29,0,0,0,.06.24h-.09Zm54-16.18.41-.37v-2.08a12.88,12.88,0,0,0-1.64-.2H141.9a15,15,0,0,0-1.62.21v.95l.11,1.4a13,13,0,0,0,1.76.23h50.61a7.23,7.23,0,0,0,1.61-.1Zm.21,18.77H140.41l-.18,2.25.11.29a15.63,15.63,0,0,0,1.93.23h50.6c2.24.06,2.68-.67,1.71-2.73ZM145,190.37c.5,0,1,.12,1.51.12h46.43c.5,0,1-.11,1.5-.16l.35-.08.07-2.05a5.73,5.73,0,0,0-1.52-.48H141.92a10.93,10.93,0,0,0-1.61.22v2.3l.29.11h3.78Zm-4.66,21.42h53.1c1.11,0,1.5-.26,1.52-1.34s-.49-1.38-1.63-1.38H141.67c-.44,0-.88.07-1.38.11Zm54.48,18.82H140.16c-.28,2.66-.28,2.66,2.36,2.66h52.23Z" transform="translate(-21.45 -10.05)"/><path class="m" d="M199.23,205.11V177c0-1.2.32-1.62,1.7-1.62q27.73.06,55.47,0c1.41,0,1.69.46,1.69,1.64v56.71c0,1-.52,1.38-1.65,1.37H200.82c-1.44,0-1.52-.64-1.52-1.65Q199.21,219.21,199.23,205.11Zm29.56-28H202.9c-1.24,0-1.55.34-1.54,1.44q.07,11.61,0,23.23c0,1.15.32,1.5,1.62,1.5q25.67-.06,51.32,0c1.3,0,1.62-.35,1.61-1.51q-.07-11.61,0-23.22c0-1.08-.28-1.45-1.54-1.44Zm-.12,45H202.94c-1.16,0-1.63.23-1.59,1.4.09,2.76.07,5.53,0,8.3,0,1.11.26,1.56,1.6,1.56q25.73-.06,51.46,0c1.12,0,1.52-.29,1.5-1.35-.07-2.77-.09-5.54,0-8.3,0-1.21-.3-1.62-1.68-1.61Zm27.21-14.84H201.4c0,3.27.06,6.41,0,9.55,0,1.14.39,1.41,1.57,1.41h49.75a14.59,14.59,0,0,0,2.29,0c.34-.06.85-.53.86-.81V207.26Z" transform="translate(-21.45 -10.05)"/><path class="n" d="M170.66,244.31a39.44,39.44,0,0,0,.07-4.07c-.11-1.29.45-1.65,1.75-1.54,1,.09,1.93,0,2.9,0H284.09c2.42,0,2.41,0,2.43,2.23,0,1.12.06,2.24.09,3.37h-.14a13.8,13.8,0,0,1-2.13.08c-.66-.06-1.83-.23-1.88-.49-.3-1.64-1.58-1.31-2.71-1.31H180.19c-1.28,0-2.56-.06-3.83,0-.45,0-1.17.4-1.24.71-.21.89-.79,1-1.56,1H170.8Z" transform="translate(-21.45 -10.05)"/><path class="l" d="M160.72,238.9H134.46a7.92,7.92,0,0,1,1.19-.16h23.87A9.87,9.87,0,0,1,160.72,238.9Z" transform="translate(-21.45 -10.05)"/><path class="f" d="M228.48,159.82H140.07c-1.5,0-1.83-.27-1.44-1.85,1-4.1,2-8.23,3.29-12.24a78.4,78.4,0,0,1,17.36-28.62,88.83,88.83,0,0,1,17.78-14.74,95.78,95.78,0,0,1,24.51-11,92.32,92.32,0,0,1,22.69-3.62A103,103,0,0,1,245.16,89a94.57,94.57,0,0,1,26.42,8.54,89.72,89.72,0,0,1,31.48,25.61A81.76,81.76,0,0,1,316.8,150c.76,2.56,1.27,5.19,1.83,7.81.38,1.78.12,2-1.89,2Zm70.33-35.17q-4.6-4.94-9.2-9.89a80.68,80.68,0,0,0-19.78-13.5L256.51,95.9a88.18,88.18,0,0,0-22.65-4.13,93.74,93.74,0,0,0-20.56,1.12c-1.3.22-2.61.39-3.9.67a92.08,92.08,0,0,0-28.27,11.11A83.46,83.46,0,0,0,155.85,128a77.66,77.66,0,0,0-10.44,20.73c-.74,2.25-1.34,4.54-2.1,7.14H311.67c2.05,0,2.13,0,1.62-1.9a76.73,76.73,0,0,0-2.24-7.44c-.95-2.56-2.19-5-3.3-7.54h0a7.4,7.4,0,0,0-.44-1c-1.23-2.17-2.4-4.38-3.75-6.48-1.51-2.43-3.17-4.62-4.75-6.89Z" transform="translate(-21.45 -10.05)"/><path class="c" d="M170.8,244.36h2.76c.77,0,1.35-.06,1.56-1,.07-.31.79-.67,1.24-.71,1.27-.1,2.55,0,3.83,0h99.56c1.13,0,2.41-.33,2.71,1.31.05.26,1.22.43,1.88.49a13.8,13.8,0,0,0,2.13-.08V326.7c0,22.73-14.77,42.79-38.19,50.22-22.74,7.19-43.28,2.93-60.68-12.51a49.13,49.13,0,0,1-16.5-31.68,50.62,50.62,0,0,1-.34-5.9v-82C170.76,244.63,170.79,244.5,170.8,244.36Zm57.86,0h-51c-2.35,0-2.35,0-2.35,2.13v81.08a47.31,47.31,0,0,0,.31,5.32,45.1,45.1,0,0,0,9.66,22.9,51.53,51.53,0,0,0,16,13.51A55.18,55.18,0,0,0,221,375.64a59.37,59.37,0,0,0,17.2-.25,54.8,54.8,0,0,0,19.47-7.12,50.29,50.29,0,0,0,19.69-21A43.63,43.63,0,0,0,282,327.5c-.07-27,0-54.05,0-81.07,0-2.09,0-2.1-2.32-2.1Z" transform="translate(-21.45 -10.05)"/><path class="f" d="M262.53,233.21v-2.56H316.8v2.56Z" transform="translate(-21.45 -10.05)"/><path class="f" d="M262.71,187.78h52.66A15,15,0,0,1,317,188v2.31H264.27c-.46,0-.91.07-1.37.11l-.35-.08C262.61,189.45,262.66,188.61,262.71,187.78Z" transform="translate(-21.45 -10.05)"/><path class="f" d="M262.55,214.7a12.88,12.88,0,0,1,1.64-.2h51.14a6.86,6.86,0,0,1,1.72.47c0,.68-.05,1.37-.07,2.05h0c-.72,0-1.43-.06-2.14-.06H262.62C262.58,216.25,262.57,215.48,262.55,214.7Z" transform="translate(-21.45 -10.05)"/><path class="f" d="M317,222.11l-.11.26H263.35c-.25,0-.5.06-.76.08l-.07-.06c.05-.84.1-1.67.16-2.51h53.14a6.55,6.55,0,0,1,1.16.2C317,220.74,317,221.43,317,222.11Z" transform="translate(-21.45 -10.05)"/><path class="f" d="M317.05,209.73c0,.66-.08,1.31-.13,2H262.63l-.14-.27v-1.81a5.27,5.27,0,0,1,1.46-.45h51.73a8.42,8.42,0,0,1,1.32.2Z" transform="translate(-21.45 -10.05)"/><path class="f" d="M262.69,203.81h54.17l.14,2.3a1,1,0,0,1-.11.29H265.27C262.53,206.32,262.53,206.32,262.69,203.81Z" transform="translate(-21.45 -10.05)"/><path class="f" d="M262.54,182.59a12.73,12.73,0,0,1,1.63-.2h51.21a15,15,0,0,1,1.62.21v2.07l-.08.28H264.27c-.46,0-.91.08-1.37.12l-.41-.37C262.51,184,262.52,183.28,262.54,182.59Z" transform="translate(-21.45 -10.05)"/><path class="f" d="M317,227.47l-.08.29H264.61c-.66,0-1.32,0-2,.05h0v-2.34a12.73,12.73,0,0,1,1.63-.2H315.4a6.31,6.31,0,0,1,1.71.48Z" transform="translate(-21.45 -10.05)"/><path class="f" d="M263,193.11h53.88c.06.74.13,1.49.19,2.24l-.11.29H264a8.92,8.92,0,0,0-1.37.07l-.07-.06c0-.69-.05-1.37-.08-2a1.4,1.4,0,0,1,.1-.35Z" transform="translate(-21.45 -10.05)"/><path class="f" d="M263,198.45h52.48a5.78,5.78,0,0,1,1.57.46c-.25,2-.25,2-2.51,2h-52C262.69,200,262.84,199.2,263,198.45Z" transform="translate(-21.45 -10.05)"/><path class="f" d="M317,177.92v1.39l-.11.26H264.75c-2.19,0-2.19,0-2.08-2a12.07,12.07,0,0,1,1.79-.26h52.46a.27.27,0,0,1,.11.22A.74.74,0,0,1,317,177.92Z" transform="translate(-21.45 -10.05)"/><path class="o" d="M263,198.45c-.14.75-.29,1.5-.48,2.5h52c2.26,0,2.26,0,2.51-2,.07.73.14,1.45.23,2.3H264c-.52,0-1.5-.32-1.5-.47C262.49,200,261.65,199,263,198.45Z" transform="translate(-21.45 -10.05)"/><path class="o" d="M262.69,203.81c-.16,2.51-.16,2.51,2.58,2.51h51.66a15.48,15.48,0,0,1-1.92.23H264.4C262.17,206.6,261.72,205.86,262.69,203.81Z" transform="translate(-21.45 -10.05)"/><path class="o" d="M262.69,177.58c-.11,2-.11,2,2.08,2h52.14a15.49,15.49,0,0,1-1.92.24H264.55c-2.42,0-2.82-.6-1.88-2.8C262.68,177.22,262.68,177.4,262.69,177.58Z" transform="translate(-21.45 -10.05)"/><path class="k" d="M262.69,177.58V177h52.59a11.82,11.82,0,0,1,1.68.3H264.5A13.8,13.8,0,0,0,262.69,177.58Z" transform="translate(-21.45 -10.05)"/><path class="o" d="M262.62,222.44c.26,0,.51-.08.76-.08h53.54a9,9,0,0,1-1.47.24H264A10.81,10.81,0,0,1,262.62,222.44Z" transform="translate(-21.45 -10.05)"/><path class="o" d="M262.62,227.77c.67,0,1.33-.05,2-.05H317a.25.25,0,0,1-.07.23H263.81A6,6,0,0,1,262.62,227.77Z" transform="translate(-21.45 -10.05)"/><path class="o" d="M262.63,211.7h54.29a11,11,0,0,1-1.61.23H264.24A11,11,0,0,1,262.63,211.7Z" transform="translate(-21.45 -10.05)"/><path class="o" d="M262.63,195.69c.46,0,.92-.07,1.37-.07h52.93a11.07,11.07,0,0,1-1.62.22h-51.2A12.16,12.16,0,0,1,262.63,195.69Z" transform="translate(-21.45 -10.05)"/><path class="o" d="M262.62,217.11c1.64,0,3.27-.05,4.9-.05H314.8c.71,0,1.42,0,2.14.06a11.18,11.18,0,0,1-1.63.21H264.24A11.07,11.07,0,0,1,262.62,217.11Z" transform="translate(-21.45 -10.05)"/><path class="o" d="M262.9,185c.46,0,.91-.12,1.37-.12H317a.35.35,0,0,1-.06.24H264.08A11.5,11.5,0,0,1,262.9,185Z" transform="translate(-21.45 -10.05)"/><path class="o" d="M262.9,190.37c.46,0,.91-.11,1.37-.11h52.65a9.05,9.05,0,0,1-1.46.23H264.25A10.26,10.26,0,0,1,262.9,190.37Z" transform="translate(-21.45 -10.05)"/><path class="o" d="M262.71,187.78c0,.83-.1,1.67-.16,2.51C262.61,189.45,262.66,188.61,262.71,187.78Z" transform="translate(-21.45 -10.05)"/><path class="o" d="M262.71,219.87c-.06.84-.11,1.67-.16,2.51C262.6,221.54,262.65,220.71,262.71,219.87Z" transform="translate(-21.45 -10.05)"/><path class="o" d="M317,195.37c-.06-.75-.13-1.5-.19-2.24A16.78,16.78,0,0,1,317,195.37Z" transform="translate(-21.45 -10.05)"/><path class="o" d="M262.54,225.39v2.34C262.56,227,262.55,226.17,262.54,225.39Z" transform="translate(-21.45 -10.05)"/><path class="o" d="M262.55,214.7V217C262.58,216.25,262.57,215.48,262.55,214.7Z" transform="translate(-21.45 -10.05)"/><path class="o" d="M317,206.11l-.18-2.25Z" transform="translate(-21.45 -10.05)"/><path class="o" d="M262.54,182.59c0,.69,0,1.39-.05,2.08C262.51,184,262.52,183.28,262.54,182.59Z" transform="translate(-21.45 -10.05)"/><path class="o" d="M262.48,193.58c0,.68.06,1.36.08,2C262.53,194.94,262.51,194.26,262.48,193.58Z" transform="translate(-21.45 -10.05)"/><path class="o" d="M317,217a20.06,20.06,0,0,1,.07-2.05A20.06,20.06,0,0,0,317,217Z" transform="translate(-21.45 -10.05)"/><path class="o" d="M262.48,209.62v1.81C262.49,210.83,262.49,210.22,262.48,209.62Z" transform="translate(-21.45 -10.05)"/><polygon class="o" points="295.44 217.94 295.53 217.98 295.46 217.93 295.44 217.94"/><path class="o" d="M263,193.11l-.4.14Z" transform="translate(-21.45 -10.05)"/><polygon class="o" points="295.44 175.14 295.51 175.18 295.46 175.12 295.44 175.14"/><path class="o" d="M317.05,209.73l-.06-.37Z" transform="translate(-21.45 -10.05)"/><path class="o" d="M317,177.92v-.39A.53.53,0,0,1,317,177.92Z" transform="translate(-21.45 -10.05)"/><path class="f" d="M140.27,211.83v-2.57c.5,0,.94-.11,1.38-.11h51.61c1.14,0,1.65.21,1.63,1.38s-.41,1.35-1.52,1.34h-53.1Z" transform="translate(-21.45 -10.05)"/><path class="f" d="M194.75,230.65v2.66H142.52c-2.64,0-2.64,0-2.36-2.66Z" transform="translate(-21.45 -10.05)"/><path class="f" d="M140.29,188a10.93,10.93,0,0,1,1.61-.22h51.37a5.73,5.73,0,0,1,1.52.48c0,.69,0,1.37-.07,2.05l-.35.08c-.5,0-1-.11-1.52-.11H146.43c-.5,0-1,.1-1.5.15h-4.31l-.29-.11C140.31,189.5,140.3,188.73,140.29,188Z" transform="translate(-21.45 -10.05)"/><path class="f" d="M140.22,215a3.82,3.82,0,0,1,1.27-.47h52a6.77,6.77,0,0,1,1.18.2V217h0c-.41,0-.81,0-1.22,0H141.56a8.24,8.24,0,0,0-1.22.06h0C140.27,216.35,140.25,215.66,140.22,215Z" transform="translate(-21.45 -10.05)"/><path class="f" d="M140.31,227.77a1.11,1.11,0,0,0-.08-.3c.06-.75.12-1.5.19-2.25h52.79a12.24,12.24,0,0,1,1.48.2v2.34H140.31Z" transform="translate(-21.45 -10.05)"/><path class="f" d="M140.27,220.11a4.92,4.92,0,0,1,1-.2h53.34c0,.83.07,1.67.11,2.5l-.08.06c-.51,0-1-.08-1.52-.08h-51c-.5,0-1,.07-1.51.11l-.38-.35C140.25,221.43,140.26,220.75,140.27,220.11Z" transform="translate(-21.45 -10.05)"/><path class="f" d="M140.34,206.36a2.49,2.49,0,0,0-.11-.29l.18-2.25h54.17c.16,2.51.16,2.51-2.58,2.51H170.91Z" transform="translate(-21.45 -10.05)"/><path class="f" d="M140.28,182.6a15,15,0,0,1,1.62-.21h51.2a12.88,12.88,0,0,1,1.64.2v2.08l-.41.37c-.65,0-1.31-.12-2-.12h-52c0-.47-.07-.94-.11-1.4A4.69,4.69,0,0,1,140.28,182.6Z" transform="translate(-21.45 -10.05)"/><path class="f" d="M140.34,195.66a1,1,0,0,0-.11-.29c0-.69,0-1.38.05-2.07a12.73,12.73,0,0,1,1.63-.2h51.15a6.6,6.6,0,0,1,1.74.47c0,.68-.05,1.36-.08,2l-.08.08c-.71,0-1.42-.08-2.13-.08h-33.2Z" transform="translate(-21.45 -10.05)"/><path class="f" d="M140.3,198.67a12.46,12.46,0,0,1,1.61-.22H194.3l.42,2.5H140.33a1,1,0,0,0-.11-.28C140.25,200,140.27,199.36,140.3,198.67Z" transform="translate(-21.45 -10.05)"/><path class="f" d="M140.37,179.58c-.05-.18-.09-.36-.13-.53a1.34,1.34,0,0,1,0-.4v-1.12c.35-.18.69-.5,1-.51h5.25a18.3,18.3,0,0,0,2.09.23h43.74a18.9,18.9,0,0,1,2.25.26c.1,2,.1,2-1.94,2h-5Z" transform="translate(-21.45 -10.05)"/><path class="o" d="M140.33,201h54.39l-.42-2.5c1.34.5.46,1.51.51,2.28a2.83,2.83,0,0,1-1.49.48H140.37A.3.3,0,0,1,140.33,201Z" transform="translate(-21.45 -10.05)"/><path class="f" d="M140.34,206.36H192c2.74,0,2.74,0,2.58-2.51,1,2.06.53,2.79-1.71,2.79h-50.6A15.74,15.74,0,0,1,140.34,206.36Z" transform="translate(-21.45 -10.05)"/><path class="o" d="M140.37,179.58h52.24c2,0,2,0,1.94-2V177a15.12,15.12,0,0,1,.27,2.13c0,.22-.47.52-.78.63a3.14,3.14,0,0,1-1.06,0H142.07A12.16,12.16,0,0,1,140.37,179.58Z" transform="translate(-21.45 -10.05)"/><path class="o" d="M140.31,227.77l19.44-.05h33.37c.51,0,1,0,1.53.05a5.79,5.79,0,0,1-1.16.22H140.38A.23.23,0,0,1,140.31,227.77Z" transform="translate(-21.45 -10.05)"/><path class="f" d="M140.34,195.66h52.2c.71,0,1.42.05,2.13.08a14.77,14.77,0,0,1-1.63.18H142.12A13.4,13.4,0,0,1,140.34,195.66Z" transform="translate(-21.45 -10.05)"/><path class="o" d="M140.34,217.11c.41,0,.81-.06,1.22-.06h51.87a10,10,0,0,1,1.22,0,11.07,11.07,0,0,1-1.62.22H142A11.59,11.59,0,0,1,140.34,217.11Z" transform="translate(-21.45 -10.05)"/><path class="f" d="M140.35,185h52c.66,0,1.32.08,2,.12-.55.05-1.1.15-1.65.15H142.14A13.57,13.57,0,0,1,140.35,185Z" transform="translate(-21.45 -10.05)"/><path class="o" d="M140.63,222.47c.5,0,1-.11,1.51-.11h51c.51,0,1,0,1.52.08a14.77,14.77,0,0,1-1.63.18h-50.6C141.83,222.62,141.23,222.52,140.63,222.47Z" transform="translate(-21.45 -10.05)"/><path class="o" d="M144.93,190.41c.5,0,1-.15,1.5-.15h46.42c.51,0,1,.07,1.52.11-.5,0-1,.16-1.5.16H146.44C145.94,190.53,145.43,190.45,144.93,190.41Z" transform="translate(-21.45 -10.05)"/><path class="k" d="M194.61,177v.54a18.9,18.9,0,0,0-2.25-.26H148.62a18.3,18.3,0,0,1-2.09-.23c2.66,0,5.31-.06,8-.06Z" transform="translate(-21.45 -10.05)"/><path class="o" d="M194.73,222.38c0-.83-.08-1.67-.11-2.5l.09-.4H195C194.89,220.46,194.81,221.42,194.73,222.38Z" transform="translate(-21.45 -10.05)"/><path class="o" d="M140.29,188v2.3C140.31,189.5,140.3,188.73,140.29,188Z" transform="translate(-21.45 -10.05)"/><path class="o" d="M140.42,225.22c-.07.75-.13,1.5-.19,2.25C140.29,226.72,140.35,226,140.42,225.22Z" transform="translate(-21.45 -10.05)"/><path class="o" d="M140.41,203.82l-.18,2.25Z" transform="translate(-21.45 -10.05)"/><path class="o" d="M194.7,227.73v-2.34C194.73,226.17,194.71,227,194.7,227.73Z" transform="translate(-21.45 -10.05)"/><path class="o" d="M194.68,217V214.7C194.71,215.48,194.7,216.25,194.68,217Z" transform="translate(-21.45 -10.05)"/><path class="o" d="M194.78,184.67v-2.08C194.75,183.28,194.77,184,194.78,184.67Z" transform="translate(-21.45 -10.05)"/><path class="o" d="M140.22,215c0,.68.05,1.37.08,2.05C140.27,216.35,140.25,215.66,140.22,215Z" transform="translate(-21.45 -10.05)"/><path class="o" d="M140.27,220.11v2.06C140.25,221.43,140.26,220.75,140.27,220.11Z" transform="translate(-21.45 -10.05)"/><path class="o" d="M140.3,198.67c0,.69-.05,1.37-.08,2.05C140.25,200,140.27,199.36,140.3,198.67Z" transform="translate(-21.45 -10.05)"/><path class="o" d="M194.72,195.62a16.64,16.64,0,0,1,.08-2C194.77,194.26,194.75,194.94,194.72,195.62Z" transform="translate(-21.45 -10.05)"/><path class="o" d="M140.28,193.3c0,.69,0,1.38-.05,2.07C140.25,194.68,140.27,194,140.28,193.3Z" transform="translate(-21.45 -10.05)"/><path class="o" d="M194.72,190.29a20.06,20.06,0,0,1,.07-2C194.77,188.93,194.74,189.61,194.72,190.29Z" transform="translate(-21.45 -10.05)"/><path class="o" d="M140.28,182.6v1A7.53,7.53,0,0,1,140.28,182.6Z" transform="translate(-21.45 -10.05)"/><path class="o" d="M140.23,178.65v.4C140.24,178.91,140.23,178.78,140.23,178.65Z" transform="translate(-21.45 -10.05)"/><path class="o" d="M140.22,177.53v.39C140.23,177.79,140.22,177.66,140.22,177.53Z" transform="translate(-21.45 -10.05)"/><polygon class="o" points="118.92 217.93 118.84 217.98 118.93 217.94 118.92 217.93"/><polygon class="o" points="118.92 191.17 118.85 191.23 118.94 191.19 118.92 191.17"/><path class="f" d="M228.79,177.11h25.59c1.26,0,1.54.36,1.54,1.44q-.07,11.61,0,23.22c0,1.16-.31,1.52-1.61,1.51q-25.67-.06-51.32,0c-1.3,0-1.62-.35-1.62-1.5q.07-11.62,0-23.23c0-1.1.3-1.44,1.54-1.44Zm15.21,4H214.53c-2.44,0-4.89,0-7.33-.05-1.12,0-1.5.28-1.5,1.34v15.71a5.84,5.84,0,0,0,.27,1.17h45.47a6,6,0,0,0,.12-.85V182a3.38,3.38,0,0,0-.26-.89Z" transform="translate(-21.45 -10.05)"/><path class="f" d="M228.67,222.11h25.58c1.38,0,1.72.4,1.68,1.61-.1,2.76-.08,5.53,0,8.3,0,1.06-.38,1.36-1.5,1.35H203c-1.34,0-1.63-.45-1.6-1.56.06-2.77.08-5.54,0-8.3,0-1.17.43-1.41,1.59-1.4Zm-25,1.73v7.68h4.22v-7.68Zm45.68,0v7.7h4.23v-7.7Zm-13,7.69h4.09v-7.68h-4.09Zm-22,0v-7.82c-1.17,0-2.23-.05-3.29,0-.33,0-.89.41-.9.63-.07,2.37,0,4.74,0,7.16Zm2.39-7.76v7.71h4.07v-7.71Zm10.69,7.78v-7.09c0-.25-.5-.69-.81-.71-1.08-.09-2.19,0-3.33,0v7.84Zm2.29,0H234v-7.81a27.94,27.94,0,0,0-3.17,0c-.37,0-1,.55-1,.86-.09,2.28-.05,4.51-.05,6.94Zm13-.05H247v-4.39c-.08-4,.82-3.34-3.84-3.32a1.48,1.48,0,0,0-.46.16Z" transform="translate(-21.45 -10.05)"/><path class="f" d="M255.88,207.26v10.09c0,.28-.52.75-.86.81a14.59,14.59,0,0,1-2.29,0H203c-1.18,0-1.6-.27-1.57-1.41.09-3.14,0-6.28,0-9.55Zm-6.56,1.64v7.69h4.29V208.9Zm-41.4,7.75v-7.74h-4.23v7.74Zm21.92-7.74v7.69H234v-7.69Zm6.52,0v7.7h4.11v-7.7Zm6.44,7.72H247V209h-4.2Zm-32.52-7.73v7.7h4.14v-7.7Zm6.51,7.73h4.09v-7.7h-4.09ZM227.47,209h-4.19v7.64h4.19Z" transform="translate(-21.45 -10.05)"/><path class="p" d="M269.83,101.26a80.68,80.68,0,0,1,19.78,13.5c-1.51,1.44-3,2.9-4.55,4.32q-13.65,12.58-27.33,25.14c-3.86,3.54-7.75,7-11.63,10.55H214a12.37,12.37,0,0,1-1.91-.27c.3-.31.58-.65.91-.94l23.4-21.45q8.32-7.65,16.61-15.33Z" transform="translate(-21.45 -10.05)"/><path class="p" d="M233.86,91.77a88.18,88.18,0,0,1,22.65,4.13c-1.46,1.2-3,2.36-4.38,3.63-5.58,5.08-11.13,10.2-16.68,15.3L198,149.27c-2,1.86-4.08,3.67-6.13,5.51h-24a10.33,10.33,0,0,1-1.75-.3c.34-.34.66-.71,1-1Q200,123.1,233,92.88A7.15,7.15,0,0,0,233.86,91.77Z" transform="translate(-21.45 -10.05)"/><path class="e" d="M233.86,91.77a7.89,7.89,0,0,1-.87,1.11q-32.93,30.28-65.88,60.54c-.36.33-.68.7-1,1.05-.88.39-1.75,1.1-2.63,1.12-5.61.1-11.22,0-16.84,0a7.64,7.64,0,0,1-1.07-.14l-.27-.43a20.4,20.4,0,0,0,1.92-1.39q18.78-17.24,37.56-34.52L213.3,92.87A93.73,93.73,0,0,1,233.86,91.77Z" transform="translate(-21.45 -10.05)"/><path class="j" d="M213.3,92.89Q199,106,184.76,119.17,166,136.44,147.2,153.67a20.4,20.4,0,0,1-1.92,1.39l.27.43a7.64,7.64,0,0,0,1.07.14c5.62,0,11.23.06,16.84,0,.88,0,1.75-.73,2.63-1.12a10.31,10.31,0,0,0,1.75.29h24l-.48.86H208.5a4.4,4.4,0,0,0,3.56-1.17,12.37,12.37,0,0,0,1.91.27h32.1l-.44.87h1.7c4.7,0,9.4-.06,14.09,0,2,0,4,0,5.44-1.53a8.11,8.11,0,0,0,1.73.62c1.76.24,3.67-.48,5.29.78.19.15.75-.06,1.13-.15a9.86,9.86,0,0,1,2.21-.58q16.63,0,33.25-.05c.58,0,1.62-.27,1.65-.52a5.4,5.4,0,0,0-.46-1.9,14.75,14.75,0,0,1-.31-1.61,5.57,5.57,0,0,1,0-1,22.81,22.81,0,0,1-1.1-2.35c-.37-1-.31-2.38-1-3.11a7.55,7.55,0,0,1-1.69-3.56,1.34,1.34,0,0,0-1.52-1.15h-.19l-1.23-.84c-.08-1.17.05-2.48-1.84-2.54h0v-1.69h0c.28-.17.68-.28.8-.51a3.2,3.2,0,0,0,.15-1.15s-.34-.16-.35-.15a10.18,10.18,0,0,0-.6,1l-4.48-2.22.81-.6a13.67,13.67,0,0,0,1.81,0c.31,0,.78-.24.82-.43a1.16,1.16,0,0,0-.34-.95c-.35-.28-.95-.32-1.3-.61s-.93-.92-.81-1.16c.66-1.42-.28-1.82-1.42-2.17l.92-.84c1.58,2.27,3.24,4.49,4.73,6.81,1.35,2.1,2.52,4.31,3.75,6.48a7.4,7.4,0,0,1,.44,1l-.07.09.09-.07c1.11,2.51,2.35,5,3.3,7.54a76.73,76.73,0,0,1,2.24,7.44c.51,1.87.43,1.9-1.62,1.9H143.31c.76-2.6,1.36-4.89,2.1-7.14A77.66,77.66,0,0,1,155.85,128a83.46,83.46,0,0,1,25.28-23.36A92.08,92.08,0,0,1,209.4,93.51C210.69,93.28,212,93.11,213.3,92.89Zm91.78,42.45c-.13.2-.27.33-.29.47s.19.18.29.27a1.42,1.42,0,0,0,.33-.36C305.44,135.66,305.25,135.53,305.08,135.34Z" transform="translate(-21.45 -10.05)"/><path class="e" d="M212.09,154.49a4.4,4.4,0,0,1-3.56,1.17c-5.09-.06-10.18,0-15.27,0h-1.87l.48-.86c2-1.84,4.11-3.65,6.13-5.51q18.74-17.21,37.45-34.44c5.55-5.1,11.1-10.22,16.68-15.3,1.39-1.27,2.92-2.43,4.38-3.63l13.32,5.36L253,116.8q-8.3,7.67-16.61,15.33-11.69,10.73-23.4,21.42C212.67,153.84,212.39,154.18,212.09,154.49Z" transform="translate(-21.45 -10.05)"/><path class="e" d="M266.89,154.11c-1.48,1.53-3.4,1.57-5.44,1.53-4.69-.08-9.39,0-14.09,0h-1.7l.44-.87c3.88-3.51,7.77-7,11.63-10.55q13.68-12.56,27.33-25.14c1.54-1.42,3-2.88,4.55-4.32q4.61,5,9.2,9.89l-.92.84-.3.28a7.27,7.27,0,0,0-.71.53l-26.5,24.34a9.58,9.58,0,0,0-.67.76Z" transform="translate(-21.45 -10.05)"/><path class="d" d="M228.66,244.33h51c2.31,0,2.32,0,2.32,2.1V327.5a43.57,43.57,0,0,1-4.62,19.76,50.29,50.29,0,0,1-19.69,21,54.8,54.8,0,0,1-19.47,7.12,59.37,59.37,0,0,1-17.2.25,55.48,55.48,0,0,1-19.77-6.37,51.53,51.53,0,0,1-16-13.51,45.1,45.1,0,0,1-9.66-22.9,47.31,47.31,0,0,1-.31-5.32V246.45c0-2.13,0-2.13,2.35-2.13ZM226.92,283l0,.07h-.09a1.74,1.74,0,0,0-.11.18h0l.05.2h-.07v.82a.09.09,0,0,0,0,.07v1.47c0,.1-.08.07-.14.07h-.11a.24.24,0,0,0,0,.12h3.92v.12h0c0-.08.08-.15.07-.22s-.13-.07-.19-.1a1.55,1.55,0,0,1,0-.43c0-.1-.12-.26.13-.31a.17.17,0,0,1-.13-.2h0a.27.27,0,0,0,0-.16v-.1a.33.33,0,0,1,0-.14v-.09a.2.2,0,0,1,0-.23l.09-.06-.1-.08.09-.08s-.09-.09-.09-.14a1.71,1.71,0,0,0-.14-.67c0-.07,0-.17-.13-.18h0l-.07-.11h0a.23.23,0,0,0-.21-.21h0c0-.1-.1-.1-.16-.15a.5.5,0,0,0-.42-.15h0c0-.1-.14,0-.21-.05h-.58a2,2,0,0,0-1.13.6s-.11,0-.06.09Zm-27.77,35.93.13,1.11v4.22l.05,1.13a29.28,29.28,0,0,0,.66,4.16c3,9.68,9.53,16.3,20.11,19.3,1.68.48,2.54,1.06,2.38,2.85s.88,2.64,2.89,2.68h5.52c2.88,0,3.76-.78,3.66-3.46,0-1.13.41-1.59,1.53-1.85a28.17,28.17,0,0,0,9.85-4.38c6.6-4.58,10.67-10.62,11.49-18.19.5-4.69.28-9.46.33-14.19,0-.41-.44-.83-.68-1.25-.31.4-.58.82-.93,1.19s-.76.94-1.12.93a31.05,31.05,0,0,1-3.84-.51c-.07,0-.07-.44-.07-.67a5.57,5.57,0,0,1,0-1c.17-1.29-.28-1.84-1.84-1.83H209.13c-3.14,0-3.1,0-3.33,2.83a1.5,1.5,0,0,1-.87,1.16c-1.34.13-2.71,0-3.92,0-.63-.81.45-2.65-1.77-1.92h-.77a1.86,1.86,0,0,0-2.3-1,1.89,1.89,0,0,0-1.61,2c0,1.63.05,3.27,0,4.9,0,1.06.12,2,1.36,2.37a2.29,2.29,0,0,0,2.62-.94Zm63.53-3.83h0c0-1,.06-2.06,0-3.09a1.79,1.79,0,0,0-1.88-1.69h-.12a1.74,1.74,0,0,0-1.93,1.53h0v.24c0,2-.05,3.94,0,5.91a1.74,1.74,0,0,0,1.79,1.69h.21a1.79,1.79,0,0,0,2-1.55v-.21C262.7,317,262.68,316,262.68,315.11ZM228.33,356.9h5.2c.42,0,.8-.49,1.2-.76-.42-.25-.84-.71-1.26-.72-3.32-.06-6.64-.07-10,0-.46,0-.9.5-1.35.78.47.25.93.69,1.42.72h4.79Z" transform="translate(-21.45 -10.05)"/><path class="e" d="M214.24,199.2H206V190a2.46,2.46,0,0,1,.51-1.67c2.63-2.46,5.35-4.85,8-7.26h19.3c-.45.44-.89.9-1.36,1.33Q223.36,190.79,214.24,199.2Z" transform="translate(-21.45 -10.05)"/><path class="e" d="M243.35,199.21H224.06c.34-.34.66-.71,1-1q9.42-8.57,18.87-17.12h7.38v9.57a2.35,2.35,0,0,1-.45,1.56C248.4,194.58,245.86,196.88,243.35,199.21Z" transform="translate(-21.45 -10.05)"/><path class="p" d="M244,181q-9.45,8.57-18.87,17.12c-.36.33-.68.7-1,1h-9.82l18.23-16.84c.47-.43.91-.89,1.36-1.33Z" transform="translate(-21.45 -10.05)"/><path class="j" d="M214.53,181c-2.69,2.41-5.41,4.8-8,7.26A2.46,2.46,0,0,0,206,190v9.24a5.25,5.25,0,0,1-.28-1.17c0-5.23.06-10.47,0-15.71,0-1.06.38-1.37,1.5-1.34C209.64,181.05,212.09,181,214.53,181Z" transform="translate(-21.45 -10.05)"/><path class="j" d="M243.35,199.21c2.51-2.33,5-4.63,7.5-7a2.35,2.35,0,0,0,.45-1.56v-9.54a3.38,3.38,0,0,1,.26.89v16.4a6,6,0,0,1-.12.85Z" transform="translate(-21.45 -10.05)"/><path class="m" d="M203.7,223.83h4.22v7.68H203.7Z" transform="translate(-21.45 -10.05)"/><path class="m" d="M249.38,223.82h4.23v7.7h-4.23Z" transform="translate(-21.45 -10.05)"/><path class="m" d="M236.37,231.51v-7.68h4.09v7.68Z" transform="translate(-21.45 -10.05)"/><path class="m" d="M214.41,231.55h-4.23v-7.16c0-.22.57-.6.9-.63,1.06-.08,2.12,0,3.29,0Z" transform="translate(-21.45 -10.05)"/><path class="m" d="M216.8,223.79h4.07v7.71H216.8Z" transform="translate(-21.45 -10.05)"/><path class="m" d="M227.49,231.57h-4.18v-7.84c1.14,0,2.25,0,3.33,0a1,1,0,0,1,.81.71C227.52,226.8,227.49,229.11,227.49,231.57Z" transform="translate(-21.45 -10.05)"/><path class="m" d="M229.78,231.54v-6.91c0-.31.6-.82,1-.86a27.94,27.94,0,0,1,3.17,0v7.81Z" transform="translate(-21.45 -10.05)"/><path class="m" d="M242.82,231.49v-7.56a1.48,1.48,0,0,1,.46-.16c4.66,0,3.76-.68,3.84,3.32v4.4Z" transform="translate(-21.45 -10.05)"/><path class="m" d="M249.32,208.9h4.29v7.69h-4.29Z" transform="translate(-21.45 -10.05)"/><path class="m" d="M207.92,216.65h-4.23v-7.74h4.23Z" transform="translate(-21.45 -10.05)"/><path class="m" d="M229.84,208.91H234v7.69h-4.17Z" transform="translate(-21.45 -10.05)"/><path class="m" d="M236.36,208.89h4.11v7.7h-4.11Z" transform="translate(-21.45 -10.05)"/><path class="m" d="M242.8,216.61v-7.67H247v7.67Z" transform="translate(-21.45 -10.05)"/><path class="m" d="M210.28,208.88h4.14v7.7h-4.14Z" transform="translate(-21.45 -10.05)"/><path class="m" d="M216.79,216.61v-7.7h4.09v7.7Z" transform="translate(-21.45 -10.05)"/><path class="m" d="M227.47,208.94v7.64h-4.19v-7.64Z" transform="translate(-21.45 -10.05)"/><path class="p" d="M266.89,154.11l2.82-2.73c1,.61,2.92.36,2.87-.41-.13-1.7.89-1.67,2.21-1.43.5-1.1-.13-3.21,2.49-2.2.34-1.31,0-3.17,2.41-2.29.51-1.13-.25-3.27,2.28-2.22,1.26-2.41,1.26-2.41,2.76-2.4.06-.61-.12-1.43.25-1.8s1.3-.41,2.19-.63c.3-.93-.16-2.87,2.3-2,.58-1.08-.26-3.29,2.58-2.1.08-.84-.1-1.65.26-2a6.6,6.6,0,0,1,2.17-.67,4,4,0,0,0,.27-.83,1.46,1.46,0,0,1,2.35-1.06l1.11.63.92.84-.81.6,4.48,2.22v.84h0c-1.05.56-.67,1.13,0,1.69h0v1.13c-1.12.63-1.77,2.55-.93,3.32a2.88,2.88,0,0,0,2.13.5c1.37-.28.47-1.38.62-2.11v-.28l1.23.84c-.06.36-.3.82-.14,1.06a31.48,31.48,0,0,0,2,2.6c-1.48.1-1.74.9-1.34,2a10.89,10.89,0,0,0,.72,1.35c-.59,1.75-.44,2.17.92,2.53.19.87.56,1.38,1.6.74a3.07,3.07,0,0,1,.85-.18h.93a5.57,5.57,0,0,0,0,1,14.75,14.75,0,0,0,.31,1.61,5.4,5.4,0,0,1,.46,1.9c0,.25-1.07.52-1.65.52q-16.62,0-33.25.05a9.86,9.86,0,0,0-2.21.58c-.38.09-.94.3-1.13.15-1.62-1.26-3.53-.54-5.29-.78A8.27,8.27,0,0,1,266.89,154.11Z" transform="translate(-21.45 -10.05)"/><path class="q" d="M311.39,149.7h-.93l-2.75-6.47c-.67-.86-1.39-1.69-2-2.6-.16-.24.08-.7.14-1.06a1.35,1.35,0,0,1,1.67.92v.19a7.55,7.55,0,0,0,1.69,3.56c.71.73.65,2.07,1,3.11A25.79,25.79,0,0,0,311.39,149.7Z" transform="translate(-21.45 -10.05)"/><path class="q" d="M299.13,130.84l-.92-.84-.62-4.23.3-.28c1.14.35,2.08.75,1.42,2.17-.12.24.44.85.81,1.16s.95.33,1.3.61a1.16,1.16,0,0,1,.34.95c0,.19-.51.4-.82.43A13.67,13.67,0,0,1,299.13,130.84Z" transform="translate(-21.45 -10.05)"/><path class="q" d="M302.8,137.32v-1.13c1.89.06,1.76,1.37,1.84,2.54V139A2,2,0,0,1,302.8,137.32Z" transform="translate(-21.45 -10.05)"/><path class="q" d="M302.8,134.5v-.84c.19-.33.38-.65.6-1,0,0,.35.1.35.15a3.2,3.2,0,0,1-.15,1.15C303.48,134.22,303.08,134.33,302.8,134.5Z" transform="translate(-21.45 -10.05)"/><path class="q" d="M302.8,136.19c-.67-.56-1.05-1.13,0-1.69Z" transform="translate(-21.45 -10.05)"/><path class="q" d="M305.08,135.34c.17.19.36.32.33.38a1.42,1.42,0,0,1-.33.36c-.1-.09-.3-.19-.29-.27S305,135.54,305.08,135.34Z" transform="translate(-21.45 -10.05)"/><polygon class="q" points="286.3 128.93 286.21 129 286.28 128.92 286.3 128.93"/><path class="j" d="M297.59,125.77l.62,4.23-1.11-.63a1.46,1.46,0,0,0-2.35,1.06,4,4,0,0,1-.27.83c-.88.24-1.78.25-2.17.67s-.18,1.19-.26,2c-2.84-1.19-2,1-2.58,2.1-2.46-.91-2,1-2.3,2-.89.22-1.79.22-2.19.63s-.19,1.19-.25,1.8c-1.5,0-1.5,0-2.76,2.4-2.53-1.05-1.77,1.09-2.28,2.22-2.44-.88-2.07,1-2.41,2.29-2.62-1-2,1.1-2.49,2.2-1.32-.24-2.34-.27-2.21,1.43.05.77-1.84,1-2.87.41a9.58,9.58,0,0,1,.67-.76l26.5-24.34A7.38,7.38,0,0,1,297.59,125.77Z" transform="translate(-21.45 -10.05)"/><path class="r" d="M199.27,311.34c2.22-.73,1.14,1.11,1.77,1.92,1.21,0,2.58.08,3.92,0,.35,0,.84-.74.87-1.16.23-2.84.19-2.83,3.33-2.83H249.3c1.56,0,2,.54,1.84,1.83a5.57,5.57,0,0,0,0,1c0,.23,0,.66.07.67a31.05,31.05,0,0,0,3.84.51c.36,0,.78-.58,1.12-.93s.64-.78.93-1.19c.24.42.68.84.68,1.25a134.19,134.19,0,0,1-.33,14.19c-.82,7.57-4.89,13.61-11.49,18.19a28.17,28.17,0,0,1-9.85,4.38c-1.12.26-1.57.72-1.53,1.85.1,2.68-.78,3.45-3.66,3.46H225.4c-2,0-3-.85-2.89-2.68s-.7-2.37-2.38-2.85c-10.58-3-17.12-9.62-20.11-19.3a29.28,29.28,0,0,1-.66-4.16l1.19,1.81.45-1.19a25.42,25.42,0,0,0,12,18.07,29.39,29.39,0,0,0,12.65,4.28c1,.12,1.66,0,1.59-1.22-.09-1.59-.06-3.19,0-4.78,0-.85-.25-1.22-1.27-1.32-9.22-.9-17.06-7-19.29-15.26a36.82,36.82,0,0,1-.68-7.77c-.06-1-.38-1.41-1.52-1.35a31.4,31.4,0,0,1-3.36-.06,6.13,6.13,0,0,1,1.53-.32c2.74.12,4.39-.19,4.33-2.48h-3.53c-1.37,0-2.74-.18-4.11-.28C199.28,312.84,199.28,312.11,199.27,311.34Zm38.9,26.2c6.08-2.87,9.89-7.46,10.88-13.59.65-4,.34-8.22.4-12.34,0-.28-.51-.7-.88-.81a5.46,5.46,0,0,0-1.51,0l.69-1.16c-1.72.12-3.07.29-4.42.29H211.5a8.54,8.54,0,0,1-1.82-.14c-1-.24-1.31.17-1.28,1-1-.07-.94.62-.94,1.22,0,3-.06,6,0,9a17.73,17.73,0,0,0,3.92,10.76,19.77,19.77,0,0,0,8.46,6.29c-.83-2.36-.29-3.38,2.19-4a27.84,27.84,0,0,1,12.71-.06c2.69.58,3.11,1.15,3.43,3.58H238Zm-8.52,10.91a15.51,15.51,0,0,0,1.67,0c10.15-1.28,17.59-6.07,22.18-14.52,2.44-4.5,2.8-9.34,2.67-14.26-.08-2.86,0-2.86-3.15-2.89-1.93,0-2,0-1.91,1.78a20.1,20.1,0,0,1-1.6,9.65c-3.59,7.51-9.77,11.92-18.69,13-.42,0-1.1.51-1.11.8-.1,2.1-.06,4.2-.06,6.44Z" transform="translate(-21.45 -10.05)"/><path class="r" d="M232.33,258.94a.28.28,0,0,0,.22,0l2.72.68h0l.67.2h0l7.38,3.94.46.33,2.66,2.68h0l.55.61h0l.94,1.38h0l.28.32h0a22.61,22.61,0,0,1,2.9,11.31c-.06,3.27,0,6.53,0,9.8v1.35c0,4-.1,7.95,0,11.92,0,1.17-.32,1.77-1.64,1.73h-1.18c-.56,0-1.12-.09-1.68-.09H218.13c-4,0-8.06-.07-12.09-.12h0l-.18-.51V278.11c.19-1.15.39-2.31.58-3.47v-.12c.77-1.79,1.55-3.57,2.33-5.36l.57-.88h0l.4-.5h0c.29-.39.58-.78.88-1.16a24.33,24.33,0,0,1,14.3-7.65Z" transform="translate(-21.45 -10.05)"/><path class="d" d="M206,305.11c4,0,8.06.12,12.09.12h28.48c.56,0,1.12.06,1.68.09a6.87,6.87,0,0,1-1.67.39H236.32a11.2,11.2,0,0,0-1.53.07v.33h15l-.4-.82c1.32,0,1.66-.56,1.64-1.73V291.64a2.24,2.24,0,0,1,1.46,1.31c.21.82-.52,1.4-.31,2.18.11.4.49.92,1.74,1.34a2.88,2.88,0,0,0-1.41.91,4,4,0,0,0-.5,3,34.72,34.72,0,0,1,0,5.2,2.39,2.39,0,0,1,1.93,1.36,2.42,2.42,0,0,1-.84,2.87l-.43-.09-.08-1.5H206.22a15.28,15.28,0,0,1-2.14,0c-.44,0-1.14-.18-1.24-.44a2,2,0,0,1,.07-1.57c.14-.26.85-.39,1.29-.37C205,306,205.88,306.22,206,305.11ZM228.44,308h23.43a4,4,0,0,0,1.43-.62,16,16,0,0,0-1.44-.71,1.94,1.94,0,0,0-.76,0H205.8a6.27,6.27,0,0,0-1.37.06c-.29.07-.52.37-.77.57a4,4,0,0,0,.78.71,2.32,2.32,0,0,0,.91,0Zm-18.19-2.14v.26h2.42v-.29Zm20.81.32v-.29h-2.15v.23Zm-22.39,0v-.29h-1.83v.23Zm18.42,0v-.24h-1.85v.24Z" transform="translate(-21.45 -10.05)"/><path class="r" d="M262.68,315.11v2.82a1.77,1.77,0,0,1-1.77,1.77h-.23a1.75,1.75,0,0,1-2-1.44V318c-.07-2-.06-3.94,0-5.91a1.74,1.74,0,0,1,1.7-1.78h.24a1.79,1.79,0,0,1,2,1.55h0V312c.08,1,0,2.06,0,3.09Zm-1.77-3.44c-1,1.21-.94,5.55,0,6.58Z" transform="translate(-21.45 -10.05)"/><path class="r" d="M198.56,318.63a2.29,2.29,0,0,1-2.62.94c-1.24-.41-1.39-1.31-1.36-2.37.06-1.63,0-3.27,0-4.9a1.89,1.89,0,0,1,1.61-2,1.86,1.86,0,0,1,2.3,1Zm-2.2-.62c1.06-1.37.85-5.52,0-6.09Z" transform="translate(-21.45 -10.05)"/><path class="r" d="M228.33,356.88c-1.58,0-3.17.06-4.74,0-.49,0-1-.47-1.42-.72.45-.28.89-.77,1.35-.78,3.31-.07,6.63-.06,10,0,.42,0,.84.47,1.26.72-.4.27-.78.74-1.2.76-1.73.09-3.46,0-5.2,0Z" transform="translate(-21.45 -10.05)"/><path class="d" d="M251.15,290.24c-.08,0,0-5.11,0-9.8a22.6,22.6,0,0,0-3-11.33c1.45.14,1.5,1.35,1.75,2.2.84,2.82,2,5.58,1.75,8.61,0,.56.75,1.18,1.1,1.7a.79.79,0,0,1-1.16,1l1.36,1.09a4.61,4.61,0,0,1,0,.91c-.09,1-.79,1.32-1.27,2.76-.08.25-.13.43-.2.73A19,19,0,0,0,251.15,290.24Z" transform="translate(-21.45 -10.05)"/><path class="e" d="M200.93,326l-.41,1.19-1.19-1.81-.05-1.13v-4.22c.26-.32.51-.64.77-1l.39.06v4.79a8.06,8.06,0,0,0,.35,1.45Z" transform="translate(-21.45 -10.05)"/><path class="d" d="M243.32,263.79l-7.38-3.94a7,7,0,0,1,5.36,1.92C242,262.45,243.47,262.43,243.32,263.79Z" transform="translate(-21.45 -10.05)"/><path class="d" d="M208.79,269.11c-.78,1.79-1.56,3.57-2.33,5.36-.21-.86-.41-1.72-.62-2.58l.36.14a19.91,19.91,0,0,1,1.36-2.26C207.81,269.49,208.37,269.37,208.79,269.11Z" transform="translate(-21.45 -10.05)"/><path class="r" d="M200.8,325.4a8.06,8.06,0,0,1-.35-1.45v-4.79l-.39-.06c-.26.31-.51.63-.77,1l-.13-1.11.14-2,.5,1.22.95-1.22Z" transform="translate(-21.45 -10.05)"/><path class="d" d="M205.83,278.64v7.65c-.15-.27-.43-.55-.44-.82v-6C205.4,279.19,205.68,278.91,205.83,278.64Z" transform="translate(-21.45 -10.05)"/><path class="s" d="M199.29,317l-.14,2c-.2-.1-.4-.2-.59-.31l-.06-7.26h.77V317Z" transform="translate(-21.45 -10.05)"/><path class="d" d="M232.33,258.94H225c1.63-.19,3.25-.45,4.88-.51A10.27,10.27,0,0,1,232.33,258.94Z" transform="translate(-21.45 -10.05)"/><path class="d" d="M246.44,266.8l-2.66-2.69A3,3,0,0,1,246.44,266.8Z" transform="translate(-21.45 -10.05)"/><path class="d" d="M206.44,274.63c-.19,1.16-.39,2.32-.58,3.47-.11-1-.24-2.09-.28-3.14C205.58,274.86,206.14,274.74,206.44,274.63Z" transform="translate(-21.45 -10.05)"/><path class="s" d="M205.82,299.48v2.29C205.83,301,205.82,300.24,205.82,299.48Z" transform="translate(-21.45 -10.05)"/><path class="s" d="M205.83,296.11v2.29C205.82,297.63,205.82,296.86,205.83,296.11Z" transform="translate(-21.45 -10.05)"/><path class="d" d="M235.27,259.66l-2.72-.68C233.48,259.11,234.65,258.44,235.27,259.66Z" transform="translate(-21.45 -10.05)"/><path class="s" d="M247.93,268.81l-.94-1.38Z" transform="translate(-21.45 -10.05)"/><path class="d" d="M210.66,266.6c-.3.38-.59.77-.88,1.16C209.25,266.85,210,266.77,210.66,266.6Z" transform="translate(-21.45 -10.05)"/><path class="s" d="M209.36,268.27l-.57.88Z" transform="translate(-21.45 -10.05)"/><path class="s" d="M247,267.43l-.55-.61Z" transform="translate(-21.45 -10.05)"/><path class="s" d="M236,259.86l-.67-.2Z" transform="translate(-21.45 -10.05)"/><path class="s" d="M209.76,267.77l-.4.5Z" transform="translate(-21.45 -10.05)"/><path class="s" d="M205.86,304.57l.18.51Z" transform="translate(-21.45 -10.05)"/><path class="s" d="M248.21,269.11l-.28-.32Z" transform="translate(-21.45 -10.05)"/><path class="j" d="M307.71,143.23l2.75,6.47a3.07,3.07,0,0,0-.85.18c-1,.64-1.41.13-1.6-.74l-.92-2.53a10.89,10.89,0,0,1-.72-1.35C306,144.11,306.23,143.33,307.71,143.23Z" transform="translate(-21.45 -10.05)"/><path class="j" d="M302.8,137.32a2,2,0,0,0,1.84,1.69c-.15.73.75,1.83-.62,2.11a2.88,2.88,0,0,1-2.15-.48C301,139.87,301.68,138,302.8,137.32Z" transform="translate(-21.45 -10.05)"/><path class="q" d="M307.09,146.61l.91,2.5C306.65,148.78,306.5,148.36,307.09,146.61Z" transform="translate(-21.45 -10.05)"/><path class="r" d="M208.4,310.77c0-.83.26-1.24,1.28-1a8.54,8.54,0,0,0,1.82.14h31.83c1.35,0,2.7-.17,4.42-.29l-.69,1.16h0c-.28.21-.77.4-.8.64-.2,1.66-.29,3.32-.42,5-2.46,9.71-16.66,15.81-27,11.59a2.33,2.33,0,0,0-2.46-1.18l-.32-.17.68-1.59h.59l1.09,1.25,1.24-1c.23-.21.63-.44.61-.63a.9.9,0,0,0-.63-.64c-1.17-.17-2.35-.24-3.53-.35h0c0-1.69-1.42-2.74-3.37-2.53h0l-.29-.28c-.08,0-.11,0-.09-.12l-.89-1.26h0l-.57-.88h0l-.65-1.38h0c-.35-2-.68-3.93-1.08-5.89,0-.23-.48-.4-.73-.6Z" transform="translate(-21.45 -10.05)"/><path class="d" d="M217.29,325.11h-.59l-2.86-.85-.37.59L216,326.7l.32.17,2.46,1.18c10.35,4.22,24.55-1.88,27-11.59.41-1.88.81-3.76,1.22-5.63h0a5.46,5.46,0,0,1,1.51,0c.37.11.88.53.88.81-.06,4.12.25,8.3-.4,12.34-1,6.13-4.8,10.72-10.88,13.59h0c-.32-2.43-.74-3-3.43-3.58a27.84,27.84,0,0,0-12.71.06c-2.48.61-3,1.63-2.19,4a19.77,19.77,0,0,1-8.46-6.29A17.73,17.73,0,0,1,207.42,321c-.08-3,0-6,0-9,0-.6-.11-1.29.94-1.22h0c.11.54.18,1.09.33,1.62.47,1.63,1,3.25,1.48,4.87h0c.22.46.44.92.65,1.38h0l.57.88h0l.89,1.26c0,.08,0,.11.09.12l.29.28h0l3.37,2.53h0C216.48,324.18,216.88,324.65,217.29,325.11Z" transform="translate(-21.45 -10.05)"/><path class="d" d="M229.65,348.45c0-2.24,0-4.35.06-6.44,0-.29.69-.75,1.11-.8,8.92-1.09,15.1-5.5,18.69-13a20.1,20.1,0,0,0,1.6-9.65c-.06-1.8,0-1.8,1.91-1.78,3.12,0,3.07,0,3.15,2.89.13,4.92-.23,9.76-2.67,14.26-4.59,8.45-12,13.24-22.18,14.52A15.51,15.51,0,0,1,229.65,348.45Z" transform="translate(-21.45 -10.05)"/><path class="d" d="M200.8,325.4l-.06-8.43v-.06l.28-.23h0c1.12,0,2.25.13,3.36.06s1.46.31,1.52,1.35a37.13,37.13,0,0,0,.71,7.8c2.23,8.27,10.07,14.36,19.29,15.26,1,.1,1.29.47,1.27,1.32,0,1.59-.07,3.19,0,4.78.07,1.18-.55,1.34-1.59,1.22A29.39,29.39,0,0,1,213,344.18,25.42,25.42,0,0,1,200.94,326C200.89,325.81,200.84,325.6,200.8,325.4Z" transform="translate(-21.45 -10.05)"/><path class="e" d="M199.29,314.43v-.85c1.37.1,2.74.23,4.11.28h3.53c.06,2.29-1.59,2.6-4.33,2.48a6.13,6.13,0,0,0-1.53.32h0l-.28.23V317c-.29.36-.57.72-1,1.22l-.5-1.22v-2.52Z" transform="translate(-21.45 -10.05)"/><path class="d" d="M249.46,305.24l.4.82h-15v-.31c.51,0,1-.07,1.53-.07h10.26a6.87,6.87,0,0,0,1.67-.39Z" transform="translate(-21.45 -10.05)"/><path class="t" d="M249.58,279.49v-.28a.66.66,0,0,1,.09.19Z" transform="translate(-21.45 -10.05)"/><path class="r" d="M228.47,307.94H205.35a2.32,2.32,0,0,1-.91,0,4,4,0,0,1-.78-.71c.25-.2.48-.5.77-.57a6.27,6.27,0,0,1,1.37-.06h45.33a1.94,1.94,0,0,1,.76,0,16,16,0,0,1,1.44.71c-.47.21-1,.62-1.43.62H228.47Z" transform="translate(-21.45 -10.05)"/><path class="d" d="M210.28,305.8h2.41v.31h-2.42Z" transform="translate(-21.45 -10.05)"/><path class="d" d="M231.09,306.11h-2.15v-.29h2.15Z" transform="translate(-21.45 -10.05)"/><path class="d" d="M208.7,306.11h-1.82v-.29h1.83Z" transform="translate(-21.45 -10.05)"/><path class="d" d="M227.12,306.11h-1.84v-.24h1.85Z" transform="translate(-21.45 -10.05)"/><path class="s" d="M260.91,311.65v6.58C260,317.2,260,312.86,260.91,311.65Z" transform="translate(-21.45 -10.05)"/><path class="s" d="M196.36,318v-6.09C197.21,312.49,197.42,316.64,196.36,318Z" transform="translate(-21.45 -10.05)"/><path class="r" d="M217.29,325.11c-.41-.46-.81-.93-1.22-1.4,1.18.11,2.36.18,3.53.35a.9.9,0,0,1,.63.64c0,.19-.38.42-.61.63l-1.24,1Z" transform="translate(-21.45 -10.05)"/><path class="r" d="M216.07,323.71l-3.37-2.53C214.65,321,216,322,216.07,323.71Z" transform="translate(-21.45 -10.05)"/><path class="r" d="M216,326.66l-2.55-1.85.37-.59,2.86.85Z" transform="translate(-21.45 -10.05)"/><path class="r" d="M210.22,317.27c-.5-1.62-1-3.24-1.48-4.87-.15-.53-.22-1.08-.33-1.62.25.2.68.37.73.6C209.54,313.34,209.87,315.3,210.22,317.27Z" transform="translate(-21.45 -10.05)"/><path class="r" d="M247,310.79c-.4,1.87-.81,3.74-1.22,5.63.13-1.67.22-3.33.42-5C246.26,311.19,246.75,311,247,310.79Z" transform="translate(-21.45 -10.05)"/><path class="r" d="M218.8,328l-2.46-1.18A2.33,2.33,0,0,1,218.8,328Z" transform="translate(-21.45 -10.05)"/><path class="r" d="M210.86,318.64c-.21-.46-.43-.92-.65-1.38C210.43,317.72,210.65,318.18,210.86,318.64Z" transform="translate(-21.45 -10.05)"/><path class="r" d="M212.32,320.78l-.89-1.26Z" transform="translate(-21.45 -10.05)"/><path class="r" d="M211.44,319.52l-.57-.88Z" transform="translate(-21.45 -10.05)"/><path class="r" d="M212.7,321.18l-.29-.28Z" transform="translate(-21.45 -10.05)"/><path class="r" d="M200.76,316.91l.28-.23Z" transform="translate(-21.45 -10.05)"/></svg>