<svg xmlns="http://www.w3.org/2000/svg" xmlns:xlink="http://www.w3.org/1999/xlink" viewBox="0 0 2651.13 1729.37"><defs><style>.a{mask:url(#a);}.b,.d,.f,.h,.j,.l,.n,.p,.r,.t{mix-blend-mode:multiply;}.b{fill:url(#c);}.c{mask:url(#d);}.d{fill:url(#f);}.e{mask:url(#g);}.f{fill:url(#i);}.g{mask:url(#j);}.h{fill:url(#l);}.i{mask:url(#m);}.j{fill:url(#o);}.k{mask:url(#p);}.l{fill:url(#r);}.m{mask:url(#s);}.n{fill:url(#u);}.o{mask:url(#v);}.p{fill:url(#x);}.q{mask:url(#y);}.r{fill:url(#aa);}.s{mask:url(#ab);}.t{fill:url(#ad);}.u{isolation:isolate;}.v{mask:url(#ae);}.w{opacity:0.66;fill:url(#ag);}.x{fill:url(#ah);}.y{fill:url(#ai);}.z{fill:url(#aj);}.aa{fill:url(#ak);}.ab{fill:url(#al);}.ac{fill:url(#am);}.ad{fill:url(#an);}.ae{fill:url(#ao);}.af{fill:url(#ap);}.ag{fill:url(#aq);}.ah{fill:#d98c48;}.ai{fill:url(#ar);}.aj{fill:url(#as);}.ak{fill:url(#at);}.al{fill:#a3a3a3;}.am{fill:#ffdf69;}.an{fill:url(#au);}.ao{fill:url(#av);}.ap{fill:url(#aw);}.aq{fill:url(#ax);}.ar{fill:#ffe7e6;}.as{fill:#8b84ab;}.at{fill:#66607d;}.au,.be{fill:#fff;}.au{opacity:0.69;}.av{fill:url(#ay);}.aw{fill:url(#az);}.ax{fill:url(#ba);}.ay{fill:url(#bb);}.az{fill:url(#bc);}.ba{fill:#eddad3;}.bb{fill:#d6d6d6;}.bc{fill:#e8e8e8;}.bd{fill:#c2c2c2;}.bf{fill:url(#bd);}.bg{fill:url(#be);}.bh{fill:#3a7d8d;}.bi{mask:url(#bf);}.bj{fill:url(#bh);}.bk{mask:url(#bi);}.bl{fill:url(#bk);}.bm{mask:url(#bl);}.bn{fill:url(#bn);}.bo{fill:url(#bo);}.bp{fill:#f08533;}.bq{mask:url(#bp);}.br{fill:url(#br);}.bs{mask:url(#bs);}.bt{fill:url(#bu);}.bu{mask:url(#bv);}.bv{fill:url(#bx);}.bw{fill:url(#by);}.bx{mask:url(#bz);}.by{fill:url(#cb);}.bz{mask:url(#cc);}.ca{fill:url(#ce);}.cb{mask:url(#cf);}.cc{fill:url(#ch);}.cd,.ce{mix-blend-mode:color-burn;}.cd{fill:url(#ci);}.ce{fill:url(#cj);}.cf{fill:#757d28;}.cg{fill:#5c9e33;}.ch{fill:#4d8b33;}.ci{fill:#b1c265;}.cj{fill:#92a05b;}.ck{fill:#c7ca7f;}.cl{fill:#518330;}.cm{fill:#6c9f44;}.cn{fill:#4a8a33;}.co{fill:#689c2f;}.cp{fill:#478b33;}.cq{fill:#61a23e;}.cr{fill:#5c9b3b;}.cs{fill:url(#ck);}.ct{fill:url(#cl);}.cu{fill:url(#cm);}.cv{fill:#484e7d;}.cw{fill:#202338;}.cx{fill:#323657;}.cy{fill:url(#cn);}.cz{fill:#eea886;}.da{fill:url(#co);}.db{fill:#cf9046;}.dc{fill:#a77860;}.dd{fill:#e55353;}.de{fill:#9695db;}.df{fill:#c6c5ed;}.dg{fill:url(#cp);}.dh{fill:url(#cq);}.di{filter:url(#cg);}.dj{filter:url(#cd);}.dk{filter:url(#ca);}.dl{filter:url(#bw);}.dm{filter:url(#bt);}.dn{filter:url(#bq);}.do{filter:url(#bm);}.dp{filter:url(#bj);}.dq{filter:url(#bg);}.dr{filter:url(#af);}.ds{filter:url(#ac);}.dt{filter:url(#z);}.du{filter:url(#w);}.dv{filter:url(#t);}.dw{filter:url(#q);}.dx{filter:url(#n);}.dy{filter:url(#k);}.dz{filter:url(#h);}.ea{filter:url(#e);}.eb{filter:url(#b);}</style><filter id="b" x="257.55" y="-9192" width="2604.3" height="32766" filterUnits="userSpaceOnUse" color-interpolation-filters="sRGB"><feFlood flood-color="#fff" result="bg"/><feBlend in="SourceGraphic" in2="bg"/></filter><mask id="a" x="257.55" y="-9192" width="2604.3" height="32766" maskUnits="userSpaceOnUse"><g class="eb"/></mask><linearGradient id="c" x1="1559.7" y1="1935.36" x2="1559.7" y2="1628.68" gradientUnits="userSpaceOnUse"><stop offset="0"/><stop offset="1" stop-color="#fff"/></linearGradient><filter id="e" x="286.09" y="-9192" width="159.06" height="32766" filterUnits="userSpaceOnUse" color-interpolation-filters="sRGB"><feFlood flood-color="#fff" result="bg"/><feBlend in="SourceGraphic" in2="bg"/></filter><mask id="d" x="286.09" y="-9192" width="159.06" height="32766" maskUnits="userSpaceOnUse"><g class="ea"/></mask><linearGradient id="f" x1="365.62" y1="1562.95" x2="365.62" y2="1264.29" gradientTransform="translate(731.25 3011.42) rotate(-180)" gradientUnits="userSpaceOnUse"><stop offset="0" stop-color="#fff"/><stop offset="1" stop-color="#989898"/></linearGradient><filter id="h" x="349.87" y="-9192" width="169.86" height="32766" filterUnits="userSpaceOnUse" color-interpolation-filters="sRGB"><feFlood flood-color="#fff" result="bg"/><feBlend in="SourceGraphic" in2="bg"/></filter><mask id="g" x="349.87" y="-9192" width="169.86" height="32766" maskUnits="userSpaceOnUse"><g class="dz"/></mask><linearGradient id="i" x1="434.8" y1="1562.94" x2="434.8" y2="1264.36" gradientTransform="translate(869.59 3030.65) rotate(-180)" xlink:href="#f"/><filter id="k" x="752.32" y="-9192" width="418.59" height="32766" filterUnits="userSpaceOnUse" color-interpolation-filters="sRGB"><feFlood flood-color="#fff" result="bg"/><feBlend in="SourceGraphic" in2="bg"/></filter><mask id="j" x="752.32" y="-9192" width="418.59" height="32766" maskUnits="userSpaceOnUse"><g class="dy"/></mask><linearGradient id="l" x1="961.61" y1="1413.73" x2="961.61" y2="1271.04" gradientTransform="matrix(1, 0, 0, 1, 0, 0)" xlink:href="#f"/><filter id="n" x="946.34" y="-9192" width="159.06" height="32766" filterUnits="userSpaceOnUse" color-interpolation-filters="sRGB"><feFlood flood-color="#fff" result="bg"/><feBlend in="SourceGraphic" in2="bg"/></filter><mask id="m" x="946.34" y="-9192" width="159.06" height="32766" maskUnits="userSpaceOnUse"><g class="dx"/></mask><linearGradient id="o" x1="1025.87" y1="1458.24" x2="1025.87" y2="1010.14" gradientTransform="matrix(1, 0, 0, 1, 0, 0)" xlink:href="#f"/><filter id="q" x="871.77" y="-9192" width="169.86" height="32766" filterUnits="userSpaceOnUse" color-interpolation-filters="sRGB"><feFlood flood-color="#fff" result="bg"/><feBlend in="SourceGraphic" in2="bg"/></filter><mask id="p" x="871.77" y="-9192" width="169.86" height="32766" maskUnits="userSpaceOnUse"><g class="dw"/></mask><linearGradient id="r" x1="956.7" y1="1458.21" x2="956.7" y2="1010.27" gradientTransform="matrix(1, 0, 0, 1, 0, 0)" xlink:href="#f"/><filter id="t" x="618.4" y="-9192" width="408.22" height="32766" filterUnits="userSpaceOnUse" color-interpolation-filters="sRGB"><feFlood flood-color="#fff" result="bg"/><feBlend in="SourceGraphic" in2="bg"/></filter><mask id="s" x="618.4" y="-9192" width="408.22" height="32766" maskUnits="userSpaceOnUse"><g class="dv"/></mask><linearGradient id="u" x1="822.51" y1="1772.37" x2="822.51" y2="1517.11" gradientTransform="matrix(1, 0, 0, 1, 0, 0)" xlink:href="#f"/><filter id="w" x="802.06" y="-9192" width="159.06" height="32766" filterUnits="userSpaceOnUse" color-interpolation-filters="sRGB"><feFlood flood-color="#fff" result="bg"/><feBlend in="SourceGraphic" in2="bg"/></filter><mask id="v" x="802.06" y="-9192" width="159.06" height="32766" maskUnits="userSpaceOnUse"><g class="du"/></mask><linearGradient id="x" x1="881.59" y1="1750.77" x2="881.59" y2="1488.76" gradientTransform="matrix(1, 0, 0, 1, 0, 0)" xlink:href="#f"/><filter id="z" x="727.49" y="-9192" width="169.86" height="32766" filterUnits="userSpaceOnUse" color-interpolation-filters="sRGB"><feFlood flood-color="#fff" result="bg"/><feBlend in="SourceGraphic" in2="bg"/></filter><mask id="y" x="727.49" y="-9192" width="169.86" height="32766" maskUnits="userSpaceOnUse"><g class="dt"/></mask><linearGradient id="aa" x1="812.42" y1="1750.77" x2="812.42" y2="1488.77" gradientTransform="matrix(1, 0, 0, 1, 0, 0)" xlink:href="#f"/><filter id="ac" x="220.59" y="-9192" width="415.67" height="32766" filterUnits="userSpaceOnUse" color-interpolation-filters="sRGB"><feFlood flood-color="#fff" result="bg"/><feBlend in="SourceGraphic" in2="bg"/></filter><mask id="ab" x="220.59" y="-9192" width="415.67" height="32766" maskUnits="userSpaceOnUse"><g class="ds"/></mask><linearGradient id="ad" x1="428.42" y1="1570.8" x2="428.42" y2="1376.25" gradientTransform="translate(856.84 3009.54) rotate(-180)" xlink:href="#f"/><filter id="af" x="257.55" y="1721.44" width="2604.3" height="143.24" filterUnits="userSpaceOnUse" color-interpolation-filters="sRGB"><feFlood flood-color="#fff" result="bg"/><feBlend in="SourceGraphic" in2="bg"/></filter><mask id="ae" x="46.83" y="1586.13" width="2604.3" height="143.24" maskUnits="userSpaceOnUse"><g class="dr"><g transform="translate(-210.72 -135.32)"><g class="a"><path class="b" d="M2861.85,1793.06c0,39.56-583,71.62-1302.15,71.62s-1302.15-32.06-1302.15-71.62,583-71.62,1302.15-71.62S2861.85,1753.51,2861.85,1793.06Z"/></g></g></g></mask><linearGradient id="ag" x1="1559.7" y1="1935.36" x2="1559.7" y2="1628.68" gradientUnits="userSpaceOnUse"><stop offset="0" stop-color="#a6a6a6"/><stop offset="1" stop-color="#5c5c5c"/></linearGradient><linearGradient id="ah" x1="2243.05" y1="1376.1" x2="2680.22" y2="1946.78" gradientUnits="userSpaceOnUse"><stop offset="0" stop-color="#ba572b"/><stop offset="1" stop-color="#803429"/></linearGradient><linearGradient id="ai" x1="2086.08" y1="1694.99" x2="2177.7" y2="302.32" gradientTransform="translate(4243.49 2305.79) rotate(-180)" gradientUnits="userSpaceOnUse"><stop offset="0" stop-color="#e6583b"/><stop offset="1" stop-color="#ffa04f"/></linearGradient><linearGradient id="aj" x1="2589.85" y1="633" x2="1116.02" y2="426.19" gradientTransform="translate(4243.49 1126.97) rotate(-180)" xlink:href="#ai"/><linearGradient id="ak" x1="1549.21" y1="1516.12" x2="1756.01" y2="361.66" gradientUnits="userSpaceOnUse"><stop offset="0" stop-color="#e6583b"/><stop offset="1" stop-color="#a16132"/></linearGradient><linearGradient id="al" x1="2071.16" y1="1707.19" x2="2277.96" y2="552.74" gradientTransform="translate(3546.55 -696.93) rotate(90)" xlink:href="#ak"/><linearGradient id="am" x1="2023.86" y1="1698.71" x2="2230.67" y2="544.26" gradientTransform="translate(3274.04 -969.44) rotate(90)" xlink:href="#ak"/><linearGradient id="an" x1="1976.77" y1="1690.27" x2="2183.57" y2="535.83" gradientTransform="translate(3002.73 -1240.76) rotate(90)" xlink:href="#ak"/><linearGradient id="ao" x1="1813.24" y1="1563.41" x2="2020.05" y2="408.96" xlink:href="#ak"/><linearGradient id="ap" x1="2077.27" y1="1610.71" x2="2284.08" y2="456.26" xlink:href="#ak"/><linearGradient id="aq" x1="2489.03" y1="1738.24" x2="2532.19" y2="1447.89" gradientUnits="userSpaceOnUse"><stop offset="0" stop-color="#ff9f55"/><stop offset="1" stop-color="#ffd255"/></linearGradient><linearGradient id="ar" x1="2210.32" y1="1449.03" x2="2263.33" y2="1176.13" xlink:href="#aq"/><linearGradient id="as" x1="2227.52" y1="884.43" x2="2251.08" y2="610.86" xlink:href="#aq"/><linearGradient id="at" x1="1947.93" y1="1145.68" x2="1991.13" y2="894.37" xlink:href="#aq"/><linearGradient id="au" x1="705.39" y1="476.42" x2="1184.91" y2="476.42" xlink:href="#aq"/><linearGradient id="av" x1="1147.4" y1="245.23" x2="1367.23" y2="245.23" xlink:href="#aq"/><linearGradient id="aw" x1="626.77" y1="1126.25" x2="2031.58" y2="1126.25" gradientTransform="translate(1185.69 -610) rotate(45)" xlink:href="#aq"/><linearGradient id="ax" x1="1370.83" y1="1174.36" x2="852.6" y2="649.7" gradientUnits="userSpaceOnUse"><stop offset="0" stop-color="#ff9340"/><stop offset="1" stop-color="#ffe8a8"/></linearGradient><linearGradient id="ay" x1="2204.55" y1="345.05" x2="2440.15" y2="776.99" gradientUnits="userSpaceOnUse"><stop offset="0" stop-color="#f0eeee"/><stop offset="1" stop-color="#dbbcb4"/></linearGradient><linearGradient id="az" x1="2539.87" y1="707.52" x2="2419.45" y2="1136.84" xlink:href="#ay"/><linearGradient id="ba" x1="1658.74" y1="334.41" x2="1747.75" y2="881.53" xlink:href="#ay"/><linearGradient id="bb" x1="1661.97" y1="101.89" x2="1622.71" y2="536.44" xlink:href="#ay"/><linearGradient id="bc" x1="1828.79" y1="315.36" x2="2053.92" y2="592.85" xlink:href="#ay"/><linearGradient id="bd" x1="2638.17" y1="449.01" x2="2744.19" y2="1678.07" xlink:href="#ah"/><linearGradient id="be" x1="628.82" y1="1829.62" x2="628.82" y2="1482.19" gradientUnits="userSpaceOnUse"><stop offset="0" stop-color="#3076a1"/><stop offset="1" stop-color="#639c38"/></linearGradient><filter id="bg" x="618.4" y="1606.06" width="408.22" height="165.53" filterUnits="userSpaceOnUse" color-interpolation-filters="sRGB"><feFlood flood-color="#fff" result="bg"/><feBlend in="SourceGraphic" in2="bg"/></filter><mask id="bf" x="407.68" y="1470.74" width="408.22" height="165.53" maskUnits="userSpaceOnUse"><g class="dq"><g transform="translate(-210.72 -135.32)"><g class="m"><path class="n" d="M657,1606.06h369.61a0,0,0,0,1,0,0v165.53a0,0,0,0,1,0,0H657A38.62,38.62,0,0,1,618.4,1733v-88.3A38.62,38.62,0,0,1,657,1606.06Z"/></g></g></g></mask><linearGradient id="bh" x1="611.79" y1="1637.06" x2="611.79" y2="1381.79" gradientUnits="userSpaceOnUse"><stop offset="0" stop-color="#ebd8d1"/><stop offset="1" stop-color="#fae7e0"/></linearGradient><filter id="bj" x="802.06" y="1688" width="159.06" height="4.1" filterUnits="userSpaceOnUse" color-interpolation-filters="sRGB"><feFlood flood-color="#fff" result="bg"/><feBlend in="SourceGraphic" in2="bg"/></filter><mask id="bi" x="591.34" y="1552.68" width="159.06" height="4.1" maskUnits="userSpaceOnUse"><g class="dp"><g transform="translate(-210.72 -135.32)"><g class="o"><rect class="p" x="802.06" y="1688" width="159.06" height="4.1"/></g></g></g></mask><linearGradient id="bk" x1="670.87" y1="1615.46" x2="670.87" y2="1353.45" gradientUnits="userSpaceOnUse"><stop offset="0" stop-color="#bfb0aa"/><stop offset="1" stop-color="#fae7e0"/></linearGradient><filter id="bm" x="727.49" y="1700.45" width="169.86" height="4.1" filterUnits="userSpaceOnUse" color-interpolation-filters="sRGB"><feFlood flood-color="#fff" result="bg"/><feBlend in="SourceGraphic" in2="bg"/></filter><mask id="bl" x="516.77" y="1565.13" width="169.86" height="4.1" maskUnits="userSpaceOnUse"><g class="do"><g transform="translate(-210.72 -135.32)"><g class="q"><rect class="r" x="727.49" y="1700.45" width="169.86" height="4.1"/></g></g></g></mask><linearGradient id="bn" x1="601.69" y1="1615.45" x2="601.69" y2="1353.45" xlink:href="#bk"/><linearGradient id="bo" x1="-8245.91" y1="1504.77" x2="-7492.85" y2="1504.77" gradientTransform="matrix(1, 0, 0, -1, 8460.95, 3009.54)" xlink:href="#aq"/><filter id="bq" x="220.59" y="1440.87" width="415.67" height="127.8" filterUnits="userSpaceOnUse" color-interpolation-filters="sRGB"><feFlood flood-color="#fff" result="bg"/><feBlend in="SourceGraphic" in2="bg"/></filter><mask id="bp" x="9.87" y="1305.55" width="415.67" height="127.8" maskUnits="userSpaceOnUse"><g class="dn"><g transform="translate(-210.72 -135.32)"><g class="s"><path class="t" d="M261.06,1440.87h375.2a0,0,0,0,1,0,0v127.8a0,0,0,0,1,0,0H261.06a40.47,40.47,0,0,1-40.47-40.47v-46.86A40.47,40.47,0,0,1,261.06,1440.87Z" transform="translate(856.84 3009.54) rotate(180)"/></g></g></g></mask><linearGradient id="br" x1="428.42" y1="1570.8" x2="428.42" y2="1376.25" gradientTransform="translate(856.84 3009.54) rotate(-180)" xlink:href="#bh"/><filter id="bt" x="286.09" y="1504.13" width="159.06" height="3.16" filterUnits="userSpaceOnUse" color-interpolation-filters="sRGB"><feFlood flood-color="#fff" result="bg"/><feBlend in="SourceGraphic" in2="bg"/></filter><mask id="bs" x="75.37" y="1368.81" width="159.06" height="3.16" maskUnits="userSpaceOnUse"><g class="dm"><g transform="translate(-210.72 -135.32)"><g class="c"><rect class="d" x="286.09" y="1504.13" width="159.06" height="3.16" transform="translate(731.25 3011.42) rotate(180)"/></g></g></g></mask><linearGradient id="bu" x1="365.62" y1="1562.95" x2="365.62" y2="1264.29" gradientTransform="translate(731.25 3011.42) rotate(-180)" xlink:href="#bk"/><filter id="bw" x="349.87" y="1513.74" width="169.86" height="3.16" filterUnits="userSpaceOnUse" color-interpolation-filters="sRGB"><feFlood flood-color="#fff" result="bg"/><feBlend in="SourceGraphic" in2="bg"/></filter><mask id="bv" x="139.15" y="1378.42" width="169.86" height="3.16" maskUnits="userSpaceOnUse"><g class="dl"><g transform="translate(-210.72 -135.32)"><g class="e"><rect class="f" x="349.87" y="1513.74" width="169.86" height="3.16" transform="translate(869.59 3030.65) rotate(180)"/></g></g></g></mask><linearGradient id="bx" x1="434.8" y1="1562.94" x2="434.8" y2="1264.36" gradientTransform="translate(869.59 3030.65) rotate(-180)" xlink:href="#bk"/><linearGradient id="by" x1="526.77" y1="1295.22" x2="526.77" y2="1091.14" xlink:href="#be"/><filter id="ca" x="752.32" y="1324.3" width="418.59" height="88.53" filterUnits="userSpaceOnUse" color-interpolation-filters="sRGB"><feFlood flood-color="#fff" result="bg"/><feBlend in="SourceGraphic" in2="bg"/></filter><mask id="bz" x="541.59" y="1188.98" width="418.59" height="88.53" maskUnits="userSpaceOnUse"><g class="dk"><g transform="translate(-210.72 -135.32)"><g class="g"><path class="h" d="M776.77,1324.3H1170.9a0,0,0,0,1,0,0v88.53a0,0,0,0,1,0,0H776.77a24.45,24.45,0,0,1-24.45-24.45v-39.63A24.45,24.45,0,0,1,776.77,1324.3Z"/></g></g></g></mask><linearGradient id="cb" x1="750.89" y1="1278.42" x2="750.89" y2="1135.72" xlink:href="#bh"/><filter id="cd" x="946.34" y="1343.2" width="159.06" height="3.16" filterUnits="userSpaceOnUse" color-interpolation-filters="sRGB"><feFlood flood-color="#fff" result="bg"/><feBlend in="SourceGraphic" in2="bg"/></filter><mask id="cc" x="735.61" y="1207.88" width="159.06" height="3.16" maskUnits="userSpaceOnUse"><g class="dj"><g transform="translate(-210.72 -135.32)"><g class="i"><rect class="j" x="946.34" y="1343.2" width="159.06" height="3.16"/></g></g></g></mask><linearGradient id="ce" x1="815.15" y1="1322.93" x2="815.15" y2="874.82" xlink:href="#bk"/><filter id="cg" x="871.77" y="1374.78" width="169.86" height="2.19" filterUnits="userSpaceOnUse" color-interpolation-filters="sRGB"><feFlood flood-color="#fff" result="bg"/><feBlend in="SourceGraphic" in2="bg"/></filter><mask id="cf" x="661.04" y="1239.47" width="169.86" height="2.19" maskUnits="userSpaceOnUse"><g class="di"><g transform="translate(-210.72 -135.32)"><g class="k"><rect class="l" x="871.77" y="1374.78" width="169.86" height="2.19"/></g></g></g></mask><linearGradient id="ch" x1="745.97" y1="1322.89" x2="745.97" y2="874.95" xlink:href="#bk"/><linearGradient id="ci" x1="682.05" y1="1615.3" x2="682.05" y2="1574.14" gradientUnits="userSpaceOnUse"><stop offset="0" stop-color="#fff"/><stop offset="1" stop-color="#9c9c9c"/></linearGradient><linearGradient id="cj" x1="565.31" y1="1456.93" x2="565.31" y2="1426.82" xlink:href="#ci"/><linearGradient id="ck" x1="1565.95" y1="1569.13" x2="1895.81" y2="1569.13" gradientUnits="userSpaceOnUse"><stop offset="0" stop-color="#1c3b47"/><stop offset="1" stop-color="#31535f"/></linearGradient><linearGradient id="cl" x1="1915.87" y1="1655.98" x2="2099.11" y2="1891.58" xlink:href="#ck"/><linearGradient id="cm" x1="1712.74" y1="1404.7" x2="1737.61" y2="1513.34" xlink:href="#ck"/><linearGradient id="cn" x1="1598.35" y1="1008.27" x2="1234.48" y2="768.74" xlink:href="#aq"/><linearGradient id="co" x1="1559.33" y1="1031.05" x2="1203.31" y2="805.92" xlink:href="#aq"/><linearGradient id="cp" x1="1562.7" y1="1066.63" x2="1198.83" y2="853.28" xlink:href="#aq"/><linearGradient id="cq" x1="957.28" y1="436.44" x2="1108.46" y2="742.73" gradientTransform="translate(-6.61 -135.32)" xlink:href="#aq"/></defs><g class="u"><g class="v"><path class="w" d="M2861.85,1793.06c0,39.56-583,71.62-1302.15,71.62s-1302.15-32.06-1302.15-71.62,583-71.62,1302.15-71.62S2861.85,1753.51,2861.85,1793.06Z" transform="translate(-210.72 -135.32)"/></g><path class="x" d="M2724.88,703.46V1706.89a45.63,45.63,0,0,1-45.68,45.68H1545a45.67,45.67,0,0,1-45.68-45.68V703.46A45.68,45.68,0,0,1,1545,657.78H2679.2a44.18,44.18,0,0,1,6.44.46A45.68,45.68,0,0,1,2724.88,703.46Z" transform="translate(-210.72 -135.32)"/><rect class="y" x="1586.36" y="618.11" width="1070.77" height="1069.58" transform="translate(4032.76 2170.48) rotate(180)"/><path class="z" d="M1586.36,508.86H2657.13a0,0,0,0,1,0,0v50.52a58.73,58.73,0,0,1-58.73,58.73h-953.3a58.74,58.74,0,0,1-58.74-58.74V508.86A0,0,0,0,1,1586.36,508.86Z" transform="translate(4032.76 991.65) rotate(180)"/><rect class="aa" x="1628.88" y="482.79" width="19.26" height="1069.58"/><rect class="ab" x="2112.11" y="889.43" width="19.26" height="1070.77" transform="translate(486.21 3411.23) rotate(-90)"/><rect class="ac" x="2112.11" y="616.92" width="19.26" height="1070.77" transform="translate(758.72 3138.73) rotate(-90)"/><rect class="ad" x="2112.11" y="345.6" width="19.26" height="1070.77" transform="translate(1030.03 2867.41) rotate(-90)"/><rect class="ae" x="1901.39" y="482.79" width="19.26" height="1069.58"/><rect class="af" x="2173.9" y="482.79" width="19.26" height="1069.58"/><path class="ag" d="M2657.13,1434.44s-.18,117.23-27.66,216.6l-58.57,36.66H2364.4c39.23-104.41,39.47-253.26,39.47-253.26Z" transform="translate(-210.72 -135.32)"/><polygon class="ah" points="2360.18 1552.38 2360.18 1514.87 2418.75 1514.87 2360.18 1552.38"/><path class="ai" d="M2384.62,1161.92s-.18,117.23-27.66,216.6l-58.57,36.66h-206.5c39.23-104.41,39.47-253.26,39.47-253.26Z" transform="translate(-210.72 -135.32)"/><polygon class="ah" points="2087.67 1279.86 2087.67 1242.36 2146.24 1242.36 2087.67 1279.86"/><path class="aj" d="M2384.62,618.11s-.18,117.23-27.66,216.6l-58.57,36.66h-206.5c39.23-104.41,39.47-253.26,39.47-253.26Z" transform="translate(-210.72 -135.32)"/><polygon class="ah" points="2087.67 736.05 2087.67 698.54 2146.24 698.54 2087.67 736.05"/><path class="ak" d="M2112.11,890.62s-.17,117.22-27.65,216.6l-58.57,36.66H1819.38c39.24-104.41,39.47-253.26,39.47-253.26Z" transform="translate(-210.72 -135.32)"/><polygon class="ah" points="1815.16 1008.56 1815.16 971.05 1873.73 971.05 1815.16 1008.56"/><path class="al" d="M1976.85,1063.84A5.89,5.89,0,0,1,1971,1058V976.54a5.89,5.89,0,1,1,11.77,0V1058A5.89,5.89,0,0,1,1976.85,1063.84Z" transform="translate(-210.72 -135.32)"/><path class="am" d="M2516.87,1320.6l-36.79-32.07a7.24,7.24,0,0,1,9.52-10.92l26,22.68,37.09-41.38a7.25,7.25,0,0,1,10.8,9.67Z" transform="translate(-210.72 -135.32)"/><path class="an" d="M1145.33,424.55a205.25,205.25,0,0,0-22-53l22.37-33.65-31-31-31-31L1050,298.21a205.44,205.44,0,0,0-53-22l-8-39.58h-87.8l-8,39.58a205.44,205.44,0,0,0-53,22l-33.65-22.37-31,31-31,31L767,371.57a205.25,205.25,0,0,0-22,53l-39.58,8v87.79l39.58,8a205.25,205.25,0,0,0,22,53l-22.37,33.65,31,31,31,31,33.65-22.37a205.81,205.81,0,0,0,53,22l8,39.58h87.8l8-39.58a205.81,205.81,0,0,0,53-22L1083.65,677l31-31,31-31-22.37-33.65a205.25,205.25,0,0,0,22-53l39.58-8V432.52ZM945.15,630.23A153.82,153.82,0,1,1,1099,476.42,153.81,153.81,0,0,1,945.15,630.23Z" transform="translate(-210.72 -135.32)"/><path class="ao" d="M1349.08,221.46A94,94,0,0,0,1339,197.17l10.26-15.43L1335,167.51l-14.23-14.23-15.43,10.26a94.18,94.18,0,0,0-24.29-10.08l-3.65-18.14h-40.25l-3.65,18.14a94.18,94.18,0,0,0-24.29,10.08l-15.43-10.26-14.23,14.23-14.23,14.23,10.26,15.43a94,94,0,0,0-10.08,24.29l-18.14,3.65v40.25l18.14,3.65a94.18,94.18,0,0,0,10.08,24.29l-10.26,15.43L1179.59,323l14.23,14.23,15.43-10.26A94.16,94.16,0,0,0,1233.54,337l3.65,18.15h40.25l3.65-18.15a94.16,94.16,0,0,0,24.29-10.07l15.43,10.26L1335,323l14.23-14.23L1339,293.3A94.16,94.16,0,0,0,1349.08,269l18.15-3.65V225.11Zm-91.77,94.29a70.52,70.52,0,1,1,70.52-70.52A70.51,70.51,0,0,1,1257.31,315.75Z" transform="translate(-210.72 -135.32)"/><circle class="ap" cx="1329.18" cy="1126.25" r="702.4" transform="translate(-617.79 1134.43) rotate(-45)"/><path class="aq" d="M684.6,1164.79c0,231.54,112,436.91,284.83,564.85C764.2,1607,626.77,1382.7,626.77,1126.25c0-387.93,314.48-702.41,702.41-702.41a699.08,699.08,0,0,1,417.66,137.62A699,699,0,0,0,1387,462.39C999.06,462.39,684.6,776.86,684.6,1164.79Z" transform="translate(-210.72 -135.32)"/><circle class="ar" cx="1329.18" cy="1126.25" r="635.31" transform="translate(-617.79 1134.43) rotate(-45)"/><rect class="as" x="1109.41" y="405.59" width="18.08" height="65.67"/><rect class="as" x="1109.41" y="1510.6" width="18.08" height="65.67"/><rect class="as" x="1872.64" y="1093.41" width="18.08" height="65.67" transform="translate(2797.21 -890.75) rotate(90)"/><rect class="as" x="767.64" y="1093.41" width="18.08" height="65.67" transform="translate(1692.2 214.25) rotate(90)"/><rect class="as" x="1710.81" y="1484.09" width="18.08" height="65.67" transform="translate(3797.89 1238.21) rotate(135)"/><rect class="as" x="929.46" y="702.74" width="18.08" height="65.67" transform="translate(1911.53 456.76) rotate(135)"/><rect class="as" x="929.46" y="1484.09" width="18.08" height="65.67" transform="translate(318.81 3117.87) rotate(-135)"/><rect class="as" x="1710.81" y="702.74" width="18.08" height="65.67" transform="translate(2205.13 2336.5) rotate(-135)"/><path class="as" d="M1329.18,1679.6c-147.81,0-286.76-57.56-391.28-162.07s-162.07-243.48-162.07-391.28S833.39,839.49,937.9,735,1181.37,572.9,1329.18,572.9,1615.94,630.46,1720.46,735s162.07,243.48,162.07,391.28S1825,1413,1720.46,1517.53,1477,1679.6,1329.18,1679.6Zm0-1105c-304.19,0-551.66,247.48-551.66,551.66s247.47,551.66,551.66,551.66,551.66-247.48,551.66-551.66S1633.36,574.59,1329.18,574.59Z" transform="translate(-210.72 -135.32)"/><path class="at" d="M1014.38,802.89c7.2,6.11,14.23,12.39,21.35,18.58l21.07,18.85c14.07,12.55,27.91,25.31,41.75,38.08Q1140,916.77,1180.63,956c27,26.17,54,52.42,80.6,79,13.37,13.22,26.61,26.58,39.85,39.93s26.4,26.78,39.57,40.21l-11.47-4.84q60.49-.18,121,.59c40.33.58,80.66,1.3,121,2.54s80.66,2.7,121,4.76c20.17,1.06,40.33,2.15,60.5,3.52l30.25,2.08c10.08.84,20.16,1.54,30.24,2.51-10.08,1-20.16,1.67-30.24,2.51l-30.25,2.08c-20.17,1.37-40.33,2.46-60.5,3.51-40.33,2.06-80.66,3.57-121,4.77s-80.67,2-121,2.54-80.66.71-121,.59l-6.81,0-4.66-4.82c-13.06-13.52-26.18-27-39.13-40.63s-26-27.19-38.85-40.91c-25.85-27.31-51.36-55-76.8-82.69s-50.49-55.81-75.32-84.13c-12.39-14.17-24.78-28.36-36.95-42.75l-18.28-21.58C1026.38,817.44,1020.3,810.25,1014.38,802.89Z" transform="translate(-210.72 -135.32)"/><path class="au" d="M1774.12,751.91a578,578,0,0,0-334.27-105.83c-320.65,0-580.59,259.94-580.59,580.58A578.29,578.29,0,0,0,1000,1605.58c-149-105.1-246.39-278.58-246.39-474.81,0-320.64,259.94-580.58,580.58-580.58C1510,550.19,1667.64,628.4,1774.12,751.91Z" transform="translate(-210.72 -135.32)"/><path class="av" d="M2260.24,437.29s76.29,27.69,153.07,94.85l-88.19,65.6s-69.51-68.51-145.34-102.46Z" transform="translate(-210.72 -135.32)"/><path class="aw" d="M2357.82,932.24S2400.26,798.44,2510.9,661l119.58,147.76s-113.46,125-166.78,258.4Z" transform="translate(-210.72 -135.32)"/><path class="ax" d="M1709.41,827.32S1612.11,730.1,1546,566.56l191.32-50.76S1791,676.73,1882.45,784.12Z" transform="translate(-210.72 -135.32)"/><path class="ay" d="M1659.29,146s-81.14,63.36-157.16,200.48l129.72,65.08s86.21-160.63,159.31-215Z" transform="translate(-210.72 -135.32)"/><path class="az" d="M1832,352.4s80.39-11.21,179.66,12.26l-47.28,99.22S1871,435.83,1788,441.28Z" transform="translate(-210.72 -135.32)"/><path class="ba" d="M452.73,1300.22l-2-3.69a291.45,291.45,0,0,0,28.06-18.42l2.48,3.4A293.37,293.37,0,0,1,452.73,1300.22Zm55-39.93-2.78-3.17c8.55-7.51,16.66-15.35,24.12-23.3l3.07,2.88C524.59,1244.75,516.38,1252.69,507.73,1260.29ZM554,1210.68l-3.38-2.52a250.66,250.66,0,0,0,18.18-28l3.68,2.05A253.85,253.85,0,0,1,554,1210.68Zm32.65-59.42-4-1.44a187.8,187.8,0,0,0,8.61-32.14l4.15.72A193.2,193.2,0,0,1,586.62,1151.26Zm7.25-66.72a186.16,186.16,0,0,0-3.54-33.09l4.14-.82a190.86,190.86,0,0,1,3.61,33.85Zm-12.64-65.16a251.49,251.49,0,0,0-13.72-30.45l3.73-2a256.84,256.84,0,0,1,13.94,31Zm-31-59.08q-3.47-5.1-7.26-10.27c-4.2-5.73-8.25-11.58-12-17.4l3.53-2.3c3.76,5.75,7.77,11.54,11.92,17.21q3.82,5.22,7.34,10.4Zm-36.57-56.83c-5.34-10.05-10.2-20.37-14.45-30.66l3.9-1.61c4.19,10.17,9,20.36,14.27,30.29Zm-25.78-62.62a319.29,319.29,0,0,1-7.92-33l4.15-.76a310.81,310.81,0,0,0,7.81,32.54Zm-12.21-66.63c-.52-7.18-.78-14.46-.78-21.67q0-6.15.25-12.25l4.21.17q-.24,6-.24,12.08c0,7.1.26,14.29.76,21.36Zm6.93-67-4.16-.65a298,298,0,0,1,7.12-33.17l4.06,1.12A293.56,293.56,0,0,0,482.56,707.18Zm17.74-64.39-3.9-1.57a289.55,289.55,0,0,1,14.53-30.67l3.69,2A288.9,288.9,0,0,0,500.3,642.79Zm32.1-58.54L529,581.8a274,274,0,0,1,21.43-26.34l3.09,2.86A269.7,269.7,0,0,0,532.4,584.25Zm45.31-48.94-2.7-3.24a241.63,241.63,0,0,1,27.6-19.87l2.21,3.58A237.74,237.74,0,0,0,577.71,535.31Zm56.73-34.88-1.64-3.88a209.55,209.55,0,0,1,32.25-10.73l1,4.09A206.29,206.29,0,0,0,634.44,500.43Zm64.5-15.65-.29-4.2c1.65-.12,3.3-.21,5-.28,9.68-.42,19.26-1.24,28.48-2.44l.55,4.18c-9.35,1.21-19,2-28.84,2.47C702.17,484.58,700.55,484.67,698.94,484.78Zm67-8.93-1-4.09a268.78,268.78,0,0,0,31.88-9.95l1.51,3.93A271.26,271.26,0,0,1,766,475.85Zm63.2-24.36-2-3.69a235.32,235.32,0,0,0,28-18.09l2.54,3.37A238.58,238.58,0,0,1,829.15,451.49Zm54.19-40.74-3-3a227.16,227.16,0,0,0,21.72-25.37l3.4,2.5A231.69,231.69,0,0,1,883.34,410.75ZM923.44,356l-3.76-1.92a114.65,114.65,0,0,0,5.38-11.87l4,1.44A119.48,119.48,0,0,1,923.44,356Z" transform="translate(-210.72 -135.32)"/><polygon class="bb" points="878.34 53.94 734.86 188.46 749.02 131.05 878.34 53.94"/><polygon class="bc" points="878.34 53.94 781.37 78.55 766.82 120.43 878.34 53.94"/><polygon class="bd" points="767.85 157.52 787.43 167.35 878.34 53.94 767.85 157.52"/><rect class="be" x="1948.2" y="510.09" width="198.04" height="8.29" rx="3.16"/><rect class="be" x="1944.71" y="546.3" width="128.05" height="8.29" rx="3.16"/><rect class="be" x="1939.91" y="582.51" width="151.61" height="8.29" rx="3.16"/><rect class="be" x="1948.85" y="1050.67" width="198.04" height="8.29" rx="2.1"/><rect class="be" x="1945.36" y="1086.88" width="94.22" height="8.29" rx="2.1"/><rect class="be" x="1940.56" y="1123.09" width="161.54" height="8.29" rx="2.1"/><rect class="be" x="2221.72" y="1322.48" width="167.74" height="8.29" rx="3.21"/><rect class="be" x="2217.08" y="1358.69" width="96.68" height="8.29" rx="3.21"/><rect class="be" x="2210.65" y="1394.91" width="122.31" height="8.29" rx="3.21"/><path class="bf" d="M2724.88,703.46V1706.89a45.69,45.69,0,0,1-39.24,45.23V658.24A45.68,45.68,0,0,1,2724.88,703.46Z" transform="translate(-210.72 -135.32)"/><path class="bg" d="M930.17,1584.6v208.45H366.57a39.11,39.11,0,0,1-39.11-39.11V1623.71c0-1.07.05-2.13.14-3.18a39.08,39.08,0,0,1,35.18-35.74c1.25-.12,2.52-.19,3.79-.19Z" transform="translate(-210.72 -135.32)"/><path class="bh" d="M1036.5,1584.62v21.46h-9.86v165.53h9.86v21.45h-409a39.1,39.1,0,0,1-39.11-39.1V1623.71c0-1.07,0-2.13.14-3.18a39.06,39.06,0,0,1,35.4-35.74,35.13,35.13,0,0,1,3.57-.17Z" transform="translate(-210.72 -135.32)"/><g class="bi"><path class="bj" d="M446.3,1470.74H815.9a0,0,0,0,1,0,0v165.53a0,0,0,0,1,0,0H446.3a38.62,38.62,0,0,1-38.62-38.62v-88.3A38.62,38.62,0,0,1,446.3,1470.74Z"/></g><g class="bk"><rect class="bl" x="591.34" y="1552.68" width="159.06" height="4.1"/></g><g class="bm"><rect class="bn" x="516.77" y="1565.13" width="169.86" height="4.1"/></g><path class="bo" d="M357.66,1424.31H919.75a0,0,0,0,1,0,0v160.92a0,0,0,0,1,0,0H357.66A40.61,40.61,0,0,1,317,1544.62v-79.7A40.61,40.61,0,0,1,357.66,1424.31Z" transform="translate(1026.08 2874.22) rotate(180)"/><path class="bp" d="M658.87,1464.92v79.7a40.61,40.61,0,0,1-40.61,40.61H210.72v-16.55h9.86v-127.8h-9.86v-16.57H618.26a40.58,40.58,0,0,1,40.3,35.74A37.24,37.24,0,0,1,658.87,1464.92Z" transform="translate(-210.72 -135.32)"/><g class="bq"><path class="br" d="M261.06,1440.87h375.2a0,0,0,0,1,0,0v127.8a0,0,0,0,1,0,0H261.06a40.47,40.47,0,0,1-40.47-40.47v-46.86A40.47,40.47,0,0,1,261.06,1440.87Z" transform="translate(646.12 2874.22) rotate(180)"/></g><g class="bs"><rect class="bt" x="286.09" y="1504.13" width="159.06" height="3.16" transform="translate(520.52 2876.1) rotate(180)"/></g><g class="bu"><rect class="bv" x="349.87" y="1513.74" width="169.86" height="3.16" transform="translate(658.87 2895.33) rotate(180)"/></g><path class="bw" d="M215.15,1177.51H863.72a0,0,0,0,1,0,0V1289a0,0,0,0,1,0,0H215.15a25.33,25.33,0,0,1-25.33-25.33v-60.82A25.33,25.33,0,0,1,215.15,1177.51Z"/><path class="bh" d="M1170.91,1324.3v88.54h9.85v11.47H757.07a24.44,24.44,0,0,1-24.44-24.45v-62.58a24.45,24.45,0,0,1,24.44-24.45h423.69v11.47Z" transform="translate(-210.72 -135.32)"/><g class="bx"><path class="by" d="M566,1189H960.18a0,0,0,0,1,0,0v88.53a0,0,0,0,1,0,0H566a24.45,24.45,0,0,1-24.45-24.45v-39.63A24.45,24.45,0,0,1,566,1189Z"/></g><g class="bz"><rect class="ca" x="735.61" y="1207.88" width="159.06" height="3.16"/></g><g class="cb"><rect class="cc" x="661.04" y="1239.47" width="169.86" height="2.19"/></g><path class="cd" d="M1036.5,1584.79v21.29h-9.86v14.45h-699a39.08,39.08,0,0,1,35.18-35.74Z" transform="translate(-210.72 -135.32)"/><path class="ce" d="M919.75,1460.05h-699V1445.6h-.13v-4.72h-9.72v-16.57H884.57A39.09,39.09,0,0,1,919.75,1460.05Z" transform="translate(-210.72 -135.32)"/><path class="cf" d="M2187.88,1475.53s-83,12.43-204.15,76.76S2078.63,1571.68,2187.88,1475.53Z" transform="translate(-210.72 -135.32)"/><path class="cg" d="M1967.36,1561.65s60.25-114.84,153.9-167.28c0,0-27.19,79.71-126,165.28S1967.36,1561.65,1967.36,1561.65Z" transform="translate(-210.72 -135.32)"/><path class="ch" d="M1919.23,1483.09s-62.2-76-87.08-110.58,52.21,161.66,58.59,182.43S1923.38,1593.67,1919.23,1483.09Z" transform="translate(-210.72 -135.32)"/><path class="ci" d="M1978.67,1600.58c27.65-41.46,47-228.07,47-228.07-48.38,40.09-94,220.35-94,220.35S1951,1642.05,1978.67,1600.58Z" transform="translate(-210.72 -135.32)"/><path class="cj" d="M1972.41,1581.78c8.29-17.62-2.76-246.39-9.37-225.65s-44.27,106.43-44.27,106.43C1913.14,1514.51,1964.12,1599.4,1972.41,1581.78Z" transform="translate(-210.72 -135.32)"/><path class="ck" d="M1908.72,1531.08c-14.65-26.66-159.5-169.62-159.5-169.62,1.38,44.23,91.23,149.28,91.23,149.28S1923.38,1557.73,1908.72,1531.08Z" transform="translate(-210.72 -135.32)"/><path class="cg" d="M1978.67,1597.57c-167.25-61.64-324.83-29.6-324.83-29.6,23,31.64,241.9,29.6,241.9,29.6Z" transform="translate(-210.72 -135.32)"/><path class="cl" d="M1943.58,1603c-85-92.57-285.38-137.16-285.38-137.16,59.2,60.46,144.21,113.47,144.21,113.47S2028.58,1695.55,1943.58,1603Z" transform="translate(-210.72 -135.32)"/><path class="cm" d="M1960.7,1592.86c-49.76-92-239.21-183-239.21-183,0,29,153.51,164.07,153.51,164.07S2010.46,1684.9,1960.7,1592.86Z" transform="translate(-210.72 -135.32)"/><path class="cn" d="M1959.32,1602c37.26-6.83,175.55-142.38,175.55-142.38-35.93,6.92-175.55,95.35-175.55,95.35S1922.06,1608.79,1959.32,1602Z" transform="translate(-210.72 -135.32)"/><path class="co" d="M2025.67,1602.56c47,2,197.66-91.82,197.66-91.82-45.06,0-148.55,27.32-199.15,41.47a74.85,74.85,0,0,0-45,35.25C1952.17,1635.24,1984.73,1600.84,2025.67,1602.56Z" transform="translate(-210.72 -135.32)"/><path class="cp" d="M2199.83,1561.84c-14-1.11-104.48,2.92-143.33,4.73a68.82,68.82,0,0,0-41.8,16.42c-16.75,14.46-11.85,25.32,11,30C2056.08,1619.11,2217.8,1563.26,2199.83,1561.84Z" transform="translate(-210.72 -135.32)"/><path class="cq" d="M1955.42,1586.33a119.62,119.62,0,0,0,1.95-43.29c-6.59-49.24-29.49-201.69-63-224.81,0,0-15.15,197.54,16.59,264C1934.75,1632,1949,1613.59,1955.42,1586.33Z" transform="translate(-210.72 -135.32)"/><path class="cr" d="M1955.17,1613.42c19-18.08,96.45-193.88,96.45-193.88-72.49,42.39-104.76,128.4-104.76,128.4S1936.12,1631.49,1955.17,1613.42Z" transform="translate(-210.72 -135.32)"/><polygon class="cs" points="1565.95 1491.44 1589.86 1646.81 1871.89 1646.81 1895.81 1491.44 1565.95 1491.44"/><path class="ct" d="M2106.53,1626.76H1776.67l23.92,155.37h59.32s50.71-99.5,239.71-110.44Z" transform="translate(-210.72 -135.32)"/><rect class="cu" x="1552.85" y="1458" width="356.05" height="51.89"/><path class="cv" d="M1651.47,1349.7s12.88,37.7,20.12,44.92c9.82,9.8,1.15,15.86-4.25,14.76s-33.36-4.83-38-13-3.4-29.42-7.93-36-5.93-29.24,9.38-31.52C1644.31,1326.88,1651.47,1349.7,1651.47,1349.7Z" transform="translate(-210.72 -135.32)"/><path class="cw" d="M1644.9,1330.7s15.61,46.5,18.33,53.12-8.57,4.28-15,.08-18.18-36.07-19.64-41.73c-1.75-6.76,2.18-13.27,2.18-13.27Z" transform="translate(-210.72 -135.32)"/><polygon class="cv" points="1407.84 1214.26 1404.75 1255.69 1407.5 1256.38 1412.63 1227.18 1407.84 1214.26"/><path class="cv" d="M1450.17,1350.77s4.4,39.59,9.9,48.21c7.46,11.69-2.32,15.73-7.35,13.48s-31.52-12-34.29-20.91,3.07-29.46.07-36.85.61-30.43,16-28.74C1448,1327.45,1450.17,1350.77,1450.17,1350.77Z" transform="translate(-210.72 -135.32)"/><path class="cw" d="M1449.39,1333.66s3.65,45.9,4.86,53-9.29,2.32-14.65-3.18-9.92-39.15-10.12-45c-.24-7,5-12.49,5-12.49Z" transform="translate(-210.72 -135.32)"/><polygon class="cv" points="1207.36 1208.18 1195.35 1247.95 1197.88 1249.23 1209.23 1221.84 1207.36 1208.18"/><path class="cw" d="M1631.09,1336.68s-53-112.43-60.16-183.3A35.23,35.23,0,0,0,1548.2,1124L1365,1040.57s40-30.46,117.63-28.5c0,0,103.43,42.21,128.56,62.59,3.4,2.75,5.37,5.1,5.45,6.91.14,2.64.75,10.91,1.74,23,4.66,57,17.7,198.82,28.42,233.23C1646.8,1337.78,1648.11,1345,1631.09,1336.68Z" transform="translate(-210.72 -135.32)"/><path class="cw" d="M1330.47,1076.41c5.68,49.51,76.36,43.84,76.36,43.84h85.66s-22.5,50.07-31.19,92.31c-9.22,44.82-31,124.12-31,124.12s1.42,2.7,16.92,1.19c0,0,67.24-134,93-167.72,5.54-7.25,21.41-46.61,24.15-70.08.92-7.91.35-14-2.6-16.48s-9.8-7.18-18.91-12.93c-26.83-16.92-73.43-43-99.4-48.8-34.77-7.82-89.77-22.47-89.77-22.47S1324.81,1026.89,1330.47,1076.41Z" transform="translate(-210.72 -135.32)"/><path class="cv" d="M1483.56,1120.25h-76.73s-70.68,5.67-76.35-43.84,23.24-77,23.24-77,37.34,10,69.94,17.82a253,253,0,0,1,59-5.14s125.79,12.77,134,69.81C1616.66,1081.88,1558.85,1050.87,1483.56,1120.25Z" transform="translate(-210.72 -135.32)"/><path class="cx" d="M1427.5,616.34s-33.46-5.2-47.51,21,.8,42.31-4.66,51.34-25.35,21.36-22.63,35.63,24.85,30.21,19.31,42.83-9.28,20.93-8.82,22,135.43,24.24,135.43,24.24-9.88-18.92-18.3-26.62-17.38-10.15-7-37.37,19.35-40.13,15-60.56-2.78-39.24-23.09-57.39A60.11,60.11,0,0,0,1427.5,616.34Z" transform="translate(-210.72 -135.32)"/><path class="cy" d="M1353.72,999.39c11.68,16.45,52.17,19.44,84.88,18.34h0c6.72-.23,13.12-.63,18.87-1.12,20.06,20,18.65,17,21.76,20.63,2.23,2.6,21-11.76,24-14,1.4-1.05,2.9,4.3-17-19.32l-.85-1c.83-10.74.74-28.08,1.62-40.14.38-5.28,1-9.55,1.86-11.83,4-9.92,7.37-32.6,7.37-32.6,10.21-13.32,16.21-31.75,16.21-31.75a108.54,108.54,0,0,1,10.65,17.4c1.76,3.48,3.54,7.11,5.32,10.79h0c8.7,18,17.08,37.18,19.74,43.9,15,37.84,36.62,84.66,36.62,84.66s22.36-2.22,21-2.51-28.14-77.33-39-102.55c-2.14-5-38.3-117.6-58.58-140.15-21.86-24.3-68-38.47-68-38.47l-50-1.88s-38.34,5.33-53.65,30c-13.86,22.38,1,68.63,42.81,136.45-5,21-13.54,39.55-14.35,44.73C1361,994.6,1353.72,999.39,1353.72,999.39Zm27.44-131-4.18-5.71,0-.06,0,0a16.3,16.3,0,0,1,3,3.53A19.74,19.74,0,0,1,1381.16,868.39Z" transform="translate(-210.72 -135.32)"/><path class="cz" d="M1390.19,711.33c9.83,27.17,0,46.44,0,46.44,1.89,16.63,48.58,65.3,52.84,59.91,3.43-4.34-.51-39.37-2.17-52.81-.4-3.24-.67-5.22-.67-5.22a25.86,25.86,0,0,1,.4-6.53h0a34.4,34.4,0,0,1,2.43-7.89s-39.39-38.38-50.81-40.75C1389.24,703.86,1388.16,705.7,1390.19,711.33Z" transform="translate(-210.72 -135.32)"/><path class="da" d="M1335.81,834.74s38.78,77.3,29.35,133.46c-4.77,28.39,39.88-98.83,39.88-98.83Z" transform="translate(-210.72 -135.32)"/><path class="cz" d="M1451.55,637.14s34.13,28.68,15,85.7-59.47,18-63.35,13.6c-6-6.73-14.59-40.19-13.23-56.23C1391.25,665.11,1390.71,603.89,1451.55,637.14Z" transform="translate(-210.72 -135.32)"/><path class="cx" d="M1447.59,648.57c-3.73-1.61-19.83,22-27.6,27.39s-25.66,22.27-29,39.22-8.1-42.13-.65-61.75,17.7-48.47,60-19.47,25.54,69.62,25.54,69.62S1466.42,656.7,1447.59,648.57Z" transform="translate(-210.72 -135.32)"/><path class="cz" d="M1410.17,680c-.35-7.07-14.91-14.77-16-4.35s5.94,23.45,10.8,23.27S1410.5,686.5,1410.17,680Z" transform="translate(-210.72 -135.32)"/><path class="db" d="M1376.92,862.59l0,0,0,.06,4.54,6.5c11.71,16.72,42.47,60.41,53.81,74.09l0,0h0L1480.48,997l2,2.37,2,2.36,1,1.2c.83-10.74.74-28.08,1.62-40.14-12.39-6.65-51-30.69-107.17-96.63l-3-3.53Z" transform="translate(-210.72 -135.32)"/><path class="db" d="M1394.87,948.6l43.72,69.12h0c6.72-.23,13.12-.63,18.87-1.12,0,0-51.35-51.18-54.81-56.33Z" transform="translate(-210.72 -135.32)"/><path class="dc" d="M1398.48,727.2s1.75,29.41,42.38,37.67c-.4-3.24-.67-5.22-.67-5.22a25.86,25.86,0,0,1,.4-6.53h-.08a39.07,39.07,0,0,1-18.54-3l0,0a41.64,41.64,0,0,1-10.6-6.43A51.45,51.45,0,0,1,1398.48,727.2Z" transform="translate(-210.72 -135.32)"/><path class="db" d="M1512.52,886.57a108.54,108.54,0,0,1,10.65,17.4c1.76,3.48,3.54,7.11,5.32,10.79,2.94-39.26-16.75-69.78-17-70.22C1515.74,853.26,1512.52,886.57,1512.52,886.57Z" transform="translate(-210.72 -135.32)"/><path class="dd" d="M1584.85,1043.33s16.85,2.82,21-2.51l-10.62-27.34-21.93,4.19Z" transform="translate(-210.72 -135.32)"/><polygon class="de" points="1218.76 920.47 1366.31 904.5 1299.66 954.64 1218.76 920.47"/><polygon class="df" points="1299.66 954.64 1218.76 929.15 1218.76 920.47 1302.38 945.27 1299.66 954.64"/><path class="cz" d="M1527.21,1032.16s6.6,5.62,8.22,7.6,8.28,9.54,9.91,11.35-3.61,3-16.21-7S1527.21,1032.16,1527.21,1032.16Z" transform="translate(-210.72 -135.32)"/><path class="cz" d="M1486.33,1016.86s11.44,3,19.44,4.59c6.19,1.23,20.72,8.62,23.88,13.2s10.85,30.82,12.86,33-2,3.89-5.73.79c0,0-5.55,8-13.89.88s-12.42-17.64-16.89-20.87-31.18-20.48-31.18-20.48S1479.68,1011.77,1486.33,1016.86Z" transform="translate(-210.72 -135.32)"/><polygon class="df" points="1299.66 954.64 1342.68 806.73 1506.28 790.76 1461.44 926.91 1299.66 954.64"/><path class="dg" d="M1503.26,1020.93s-15.34,11.19-22,18.89c0,0-31.56-30.93-34.8-34.18l34.88-7.6Z" transform="translate(-210.72 -135.32)"/><path class="cw" d="M1567.32,1140.87h0a34.56,34.56,0,0,0-9.84-11.67s9-25.51,6.89-40.43C1564.6,1090.28,1568.78,1118.53,1567.32,1140.87Z" transform="translate(-210.72 -135.32)"/><polygon class="dh" points="939.44 399.81 1129.88 399.81 1129.88 542.77 1129.88 572.89 1100.81 542.77 939.44 542.77 939.44 399.81"/><path class="be" d="M1246.13,619.14l-19.6-8.52a3.17,3.17,0,0,1,2.53-5.82l13.86,6,10-22.18a3.17,3.17,0,1,1,5.78,2.61Z" transform="translate(-210.72 -135.32)"/><path class="be" d="M1268.41,637.84a40.06,40.06,0,1,1,9.75-55.8A40.1,40.1,0,0,1,1268.41,637.84ZM1225.64,577a34.33,34.33,0,1,0,47.84,8.35A34.37,34.37,0,0,0,1225.64,577Z" transform="translate(-210.72 -135.32)"/><polygon class="bb" points="568.87 1467.76 455.24 1406.9 493.86 1403.65 568.87 1467.76"/><polygon class="bc" points="568.87 1467.76 533.24 1412.72 504.18 1412.47 568.87 1467.76"/><polygon class="bd" points="481.37 1420.9 479.38 1435.11 568.87 1467.76 481.37 1420.9"/><path class="ba" d="M659,1510.53a264.07,264.07,0,0,1-26.38-18.29l2.46-3.12a261.33,261.33,0,0,0,26,18Zm-50.23-39.79a187.86,187.86,0,0,1-20.3-24.93l3.3-2.22A182.7,182.7,0,0,0,611.66,1468Zm-35.32-53.42c-.35-.91-.7-1.82-1-2.74a120.35,120.35,0,0,1-6.56-28.61l4-.4a116.49,116.49,0,0,0,6.34,27.66c.33.89.66,1.78,1,2.66ZM571,1354.41l-3.92-.68a141.7,141.7,0,0,1,9.18-30.86l3.66,1.54A138,138,0,0,0,571,1354.41Zm23.7-57.75-3.35-2.15c2.47-3.84,5.16-7.75,8-11.61,3.47-4.74,6.83-9.67,10-14.64l3.36,2.14c-3.2,5-6.61,10-10.13,14.85C599.74,1289,597.11,1292.88,594.68,1296.66Zm33.53-54.27-3.58-1.73a270.21,270.21,0,0,0,12-29.21l3.76,1.29A272.27,272.27,0,0,1,628.21,1242.39ZM649,1181.87l-3.89-.83a258.3,258.3,0,0,0,4.75-31.21l4,.36A264.1,264.1,0,0,1,649,1181.87Zm5.68-63.72-4,.15a234.76,234.76,0,0,0-3.28-31.37l3.92-.68A237.57,237.57,0,0,1,654.65,1118.15Zm-11.1-63-3.78,1.25c-.58-1.75-1.18-3.5-1.81-5.23a195.42,195.42,0,0,0-10.38-23.76l3.53-1.84a200.35,200.35,0,0,1,10.59,24.25Q642.66,1052.42,643.55,1055.11Zm-32.83-54.27a167.9,167.9,0,0,0-21.36-23l2.64-3a171.78,171.78,0,0,1,21.88,23.56ZM564,959.3a169.42,169.42,0,0,0-28.39-13.43l1.37-3.74a173.8,173.8,0,0,1,29,13.75Zm-58.74-21.65A215.41,215.41,0,0,0,474,934.3l.13-4a220.59,220.59,0,0,1,31.9,3.42Z" transform="translate(-210.72 -135.32)"/></g></svg>