<svg xmlns="http://www.w3.org/2000/svg" viewBox="0 0 291.46 315.25"><defs><style>.a{fill:#f74700;}.b{fill:#f2f2fb;}.c{fill:#dadaf9;}.d{fill:#b53a25;}.e{fill:#f45b25;}.f{fill:#f3f2f9;}.g{fill:#373740;}.h{fill:#28222a;}.i{fill:#e6e0e5;}.j{fill:#d4d4f5;}.k{fill:#677662;}.l{fill:#1c131b;}.m{fill:#c6c4ed;}.n{fill:#c0bfed;}.o{fill:#faf9fc;}.p{fill:#e8e8f8;}.q{fill:#f4f3fa;}.r{fill:#fff;}.s{fill:#fdfcfc;}.t{fill:#fd8887;}.u{fill:#e5322b;}.v{fill:#ff6762;}.w{fill:#f4f0e1;}</style></defs><path class="a" d="M63.72,207.46a76.25,76.25,0,0,1-5.51-15.59,67.35,67.35,0,0,1-1.79-17.62c.15-6.39.07-12.79.08-19.19q0-6.69,0-13.38c0-.6,0-1.19,0-1.72.73-.38,1.14.08,1.57.32q6.51,3.74,13,7.49L102.73,166c.74.43,1.54.74,2.32,1.11a3.09,3.09,0,0,0,1.85-.94c.25-2.82.21-23.61-.05-25.31l-5.11-3-35.1-20.26-8.64-5c-.56-.33-1.23-.55-1.47-1.27l.06-5.76c0-.53,0-1.06,0-1.59A3.56,3.56,0,0,1,58.48,101C60.73,99.7,63,98.39,65.29,97l1.31.77A1.21,1.21,0,0,1,66,99.13c-1.06.55-2.09,1.17-3.12,1.78-.75.44-.79.93-.11,1.33l5.71,3.28,6.91,4,8.63,5,6.4,3.68c1.95,1.14,3.89,2.3,5.85,3.42,2.31,1.32,4.65,2.59,7,3.91,4,2.3,7.92,4.63,11.89,6.93,2.94,1.69,5.9,3.34,8.84,5,3.11,1.8,6.19,3.63,9.29,5.44,2.3,1.34,4.58,2.7,6.89,4,2.07,1.19,4.17,2.35,6.25,3.54s4.27,2.44,6.39,3.67c2,1.14,3.9,2.3,5.85,3.44l6.89,4c1.33.76,2.68,1.49,4,2.24a2.52,2.52,0,0,0,2.66,0l2.41-1.4c2.77-1.59,5.54-3.17,8.3-4.77,3-1.74,6-3.51,9-5.25,2-1.16,4-2.28,6.06-3.45q4.74-2.76,9.46-5.55a2.88,2.88,0,0,0,.54-.56,5.69,5.69,0,0,1,2.66,2c.47.57.89,1.16,1.34,1.75l.37.4,0,0c.16.56.29,1.14.48,1.69a6.14,6.14,0,0,1,.38,3.11c-2.56,1.43-5.13,2.82-7.66,4.28s-5.12,3.07-7.7,4.57c-3,1.76-6.13,3.45-9.17,5.22-3.74,2.16-7.42,4.41-11.17,6.54a2.51,2.51,0,0,0-1.55,2.7,4,4,0,0,1,0,.6q0,33.56,0,67.12c0,1.91.25,3.86-.36,5.74a1.72,1.72,0,0,0,0,.6,22.85,22.85,0,0,1-.85,6.48c-1.07,4.45-2.7,8.62-6.19,11.82a1.49,1.49,0,0,0-.55,1.23,25,25,0,0,1-9.52,4.37,25.87,25.87,0,0,1-11.67-.65,39.82,39.82,0,0,1-9.53-4L94.89,244a67.62,67.62,0,0,1-17.51-15c-1.76-2.08-3.36-4.3-5-6.45l-1-1.26c1.82-3.32,3.35-6.78,4.84-10.26,1.86-1,3.72-2,5.56-3.07,2.82-1.62,5.61-3.29,8.43-4.91a4.89,4.89,0,0,1,1.11-.32c.07.94.13,1.73.2,2.65l3.32,1.79L98.44,205c.31-2,0-3.93.26-6,.39.15.63.22.86.32s.58.29.88.43a13.85,13.85,0,0,0,3.79-2.29c0-.49,0-.95,0-1.41a1.78,1.78,0,0,1,1.14-1.9l1.09-.5c0,.73.08,1.47.08,2.2,0,4.13,0,8.26,0,12.39,0,.52.07,1,.11,1.59,3.12,1.78,6.18,3.53,9.25,5.26a1.87,1.87,0,0,0,.67,0c0-5.76-.06-11.47,0-17.11a4.76,4.76,0,0,1,.5-.27c2.37-.72,3.52-2.43,4-4.78a11.42,11.42,0,0,0,0-4.36,21.65,21.65,0,0,0-8.75-14,9.76,9.76,0,0,0-4.4-1.8,5,5,0,0,0-5.31,2.74,7,7,0,0,0-.81,3.06c0,.8-.06,1.59-.08,2.39l-.24,0c0-1.09-.08-2.19-.11-3.28-.93-1.14-2.32-1.58-3.54-2.28a1.05,1.05,0,0,0-.91.09,8.25,8.25,0,0,0-1.14,1,.43.43,0,0,0,0,.33,3.4,3.4,0,0,1-1,0,12.68,12.68,0,0,1-1.47-.67c-1.3.76-2.57,1.49-3.82,2.24-.15.09-.2.32-.3.49L89,182.12l-2.12-.62c-.32.17-.73.37-1.11.62-.15.1-.22.31-.33.47s-.26.34-.26.51a85,85,0,0,0,.12,9.31,10.11,10.11,0,0,1,0,2c0,.79-.54,1.14-1.43,1.14,0-.67,0-1.32-.06-2,0-1.78-.07-3.56-.11-5.35-.1-.16-.17-.38-.31-.47-1-.54-1.93-1.06-3-1.63-1.12.67-2.18,1.3-3.23,1.95-.14.09-.18.33-.27.51-.42.52-.27,1.14-.28,1.73,0,2.59,0,5.19,0,7.79,0,.66,0,1.32,0,1.95-.43.28-.75.52-1.08.72-1.38.82-2.75,1.64-4.14,2.42C68.83,204.62,66.27,206,63.72,207.46Z" transform="translate(-5.57 -9.35)"/><path class="b" d="M138.61,19.41c0-1.06-.08-2.14,0-3.2a5.33,5.33,0,0,1,3.44-4.92,5.59,5.59,0,0,1,3.72-.07,13.49,13.49,0,0,1,2.74,1.18c2.37,1.32,4.71,2.72,7.06,4.09,1.95,1.15,3.88,2.32,5.83,3.46,1.26.74,2.54,1.44,3.81,2.16,2.08,1.19,4.16,2.37,6.23,3.57,1.38.79,2.75,1.61,4.13,2.41q3.27,1.9,6.55,3.8c2.07,1.2,4.15,2.38,6.22,3.57l8.8,5.09,4,2.3c2.23,1.31,4.47,2.62,6.71,3.91s4.39,2.5,6.59,3.75,4.16,2.36,6.23,3.56l6.72,3.9,8.77,5.13c1.27.73,2.55,1.44,3.81,2.17q3.28,1.89,6.55,3.8c1.27.73,2.54,1.44,3.81,2.18L257,75.16c1.27.73,2.55,1.43,3.82,2.16l6.23,3.56,4.13,2.41c2.18,1.27,4.36,2.55,6.55,3.8,1.38.8,2.78,1.57,4.17,2.35,1.9,1.09,3.87,2.09,5.69,3.3a16.84,16.84,0,0,1,5.23,5.13c.34.56.68,1.14,1.07,1.67,1.55,2.09,2.11,4.55,2.75,7a16.39,16.39,0,0,1,.37,4.35v31.8a9,9,0,0,1-.25,2.57,7.88,7.88,0,0,0-.14,2.18q0,22.29,0,44.59,0,14.91,0,29.8a12.87,12.87,0,0,1-.38,3.15,5.44,5.44,0,0,1-1.21,2.24c-1.64,2-3.68,2.21-5.95,1.46-.69-.23-1.35-.56-2-.84-.3-.12-.6-.21-1-.37a7.2,7.2,0,0,0-.2,1.05c0,1.2-.08,2.4,0,3.6a14.36,14.36,0,0,1-.48,4.34,5.08,5.08,0,0,1-6.33,4c-1.07-.35-2.14-.67-3.22-1q0-8.79,0-17.59a3.79,3.79,0,0,1,1.15.23c2.65,1.51,5.28,3.07,7.93,4.6a3.63,3.63,0,0,0,.76.23,13.74,13.74,0,0,0,.15-3.29q0-47.7,0-95.4a9.4,9.4,0,0,1,.07-2.19,10.61,10.61,0,0,0,0-5.51,2.33,2.33,0,0,1-.05-.79,10.8,10.8,0,0,0-.76-4.29,22.22,22.22,0,0,0-3.52-6.62,18.47,18.47,0,0,0-4.77-4.48c-1.75-1.08-3.56-2.06-5.34-3.1-2.36-1.36-4.71-2.74-7.06-4.12-1.54-.9-3.08-1.84-4.64-2.72-2.55-1.43-5.13-2.8-7.67-4.25-3.11-1.79-6.19-3.64-9.29-5.44-1.95-1.13-3.93-2.22-5.89-3.34l-10.18-5.89a34,34,0,0,1-3.27-1.9c-1.83-1.37-3.92-2.25-5.85-3.42-3-1.82-6.12-3.49-9.18-5.24-3.34-1.92-6.67-3.86-10-5.79-1.26-.74-2.51-1.5-3.77-2.23-1.9-1.11-3.79-2.21-5.7-3.3-2.07-1.19-4.16-2.34-6.23-3.55s-4-2.38-6-3.56c-1.77-1-3.57-2.05-5.35-3.08s-3.46-2-5.21-2.94A3.79,3.79,0,0,0,165,40.2a13.54,13.54,0,0,1-2-1.9,19.25,19.25,0,0,0-2.66-3c-1.15-1.09-2.42-2.08-3.55-3.19a68.16,68.16,0,0,0-7.6-6.08c-3-2.21-6.38-3.82-9.54-5.78A7.74,7.74,0,0,1,138.61,19.41Z" transform="translate(-5.57 -9.35)"/><path class="c" d="M138.61,19.41a7.74,7.74,0,0,0,1,.88c3.16,2,6.53,3.57,9.54,5.78a68.16,68.16,0,0,1,7.6,6.08c1.13,1.11,2.4,2.1,3.55,3.19a19.25,19.25,0,0,1,2.66,3,13.54,13.54,0,0,0,2,1.9,22.4,22.4,0,0,0,1.36,1.94,78.46,78.46,0,0,1,5.95,7.9c1.47,2.2,2.8,4.49,4.19,6.74.69,1.12,1.39,2.24,2.09,3.36a14.6,14.6,0,0,0,2,4.06,35.68,35.68,0,0,0,1.78,4.18,93.81,93.81,0,0,1,6.32,21.27A18.39,18.39,0,0,1,189,91.6a48.71,48.71,0,0,1,.43,6.72,5.68,5.68,0,0,0,.15,1,16.32,16.32,0,0,1,.22,2q0,15.64,0,31.29c0,1.25,0,2.51,0,3.77,0,3.18.06,6.35.09,9.53,0,.53,0,1.05-.07,1.58a3.89,3.89,0,0,1-1.6,3.23c0-.8,0-1.6,0-2.4q0-21,0-42a6.9,6.9,0,0,0-.09-2,9.56,9.56,0,0,1-.28-3.56,38.49,38.49,0,0,0-.51-6.35,51.82,51.82,0,0,0-1.21-6.63,101.46,101.46,0,0,0-7.46-21c-.95-2-2-3.9-3.09-5.81s-2.34-4-3.57-6a84.68,84.68,0,0,0-5.32-7.45,65.07,65.07,0,0,0-5.8-6.82c-2.48-2.41-4.78-5-7.5-7.17a71.9,71.9,0,0,0-6.47-4.95c-2-1.28-4.09-2.49-6.15-3.7-3.84-2.26-7.65-4.56-11.54-6.72a52.11,52.11,0,0,0-11.83-4.69,32.38,32.38,0,0,0-6.64-1.19,35.92,35.92,0,0,0-8.15.27,49.63,49.63,0,0,0-6.93,1.79,6.28,6.28,0,0,0-2.48,1.39,3,3,0,0,0,.79,0,30,30,0,0,1,7.49-.79,40.48,40.48,0,0,1,5.73.61,41.3,41.3,0,0,1,8,2.2,70.68,70.68,0,0,1,9.7,4.63c2.5,1.37,5,2.83,7.43,4.27,2.18,1.27,4.34,2.58,6.51,3.86a48,48,0,0,1,5.31,3.86,50.57,50.57,0,0,1,4.31,3.53,117.23,117.23,0,0,1,10.22,10.91,109.84,109.84,0,0,1,7,9.67c2,3.26,3.83,6.68,5.67,10.07.73,1.34,1.31,2.77,1.91,4.17.88,2.08,1.8,4.15,2.56,6.27a85.6,85.6,0,0,1,4.44,17.11,49.69,49.69,0,0,1,.74,7.7,16,16,0,0,0,.35,5.16,3.61,3.61,0,0,1,0,1q0,21.8,0,43.6a15.24,15.24,0,0,1-9.49-1.34,9.88,9.88,0,0,1-2.12-1.46,4.54,4.54,0,0,1-1.58-3.53c0-.73-.06-1.45-.1-2.18s.1-1.58.1-2.38q0-11.4,0-22.82c0-1.26,0-2.51.05-3.77a4.09,4.09,0,0,0-.39-1.92c.43-.34.37-.82.37-1.28,0-3.72,0-7.45,0-11.17,0-.77,0-1.55,0-2.32a6.64,6.64,0,0,0-.34-1.27c0-1.08,0-2.17-.07-3.26-.26-.75-.09-1.65-.71-2.3a12.07,12.07,0,0,0-.34-2.92,70.26,70.26,0,0,0-2.45-8.32,13.31,13.31,0,0,0-.81-1.54,17,17,0,0,0-2.85-6.44,2.36,2.36,0,0,0-.5-1.68A81.12,81.12,0,0,0,142.5,48.34,52.58,52.58,0,0,0,133,41.43c-1.45-.82-2.88-1.66-4.33-2.48l-8.16-4.65a2.42,2.42,0,0,0-1.87-.52,4.22,4.22,0,0,0-1.05-.86c-2.79-1.05-5.58-2.07-8.67-2a9.06,9.06,0,0,0-5.7,2,10.47,10.47,0,0,1-1.35.84,5.44,5.44,0,0,0-3.79.93,11.68,11.68,0,0,0-4.17,5,30.51,30.51,0,0,0-2.07,11c-.07,6.38,0,12.76,0,19.15a13.89,13.89,0,0,0,.34,4.54,3.25,3.25,0,0,1,0,1q0,4.59,0,9.18c-2.22-.61-4-2.06-6-3.1-2.28-1.2-4.48-2.56-6.7-3.88a12.91,12.91,0,0,1-3.25-2.22q0-14.48,0-29a16.72,16.72,0,0,1,.22-2,11.53,11.53,0,0,0,.15-1.18,41.08,41.08,0,0,1,2.48-12.22A32.52,32.52,0,0,1,85,20.54a29.62,29.62,0,0,1,9.54-7.73A34.59,34.59,0,0,1,102.15,10a19.29,19.29,0,0,1,4.91-.65c.66,0,1.33,0,2,0a33.7,33.7,0,0,1,10.61,1.35,45.12,45.12,0,0,1,8.19,3.07c2.92,1.44,5.8,3,8.58,4.66A14.62,14.62,0,0,0,138.61,19.41Z" transform="translate(-5.57 -9.35)"/><path class="d" d="M167.83,268.7a1.49,1.49,0,0,1,.55-1.23c3.49-3.2,5.12-7.37,6.19-11.82a22.85,22.85,0,0,0,.85-6.48,1.72,1.72,0,0,1,0-.6c.61-1.88.36-3.83.36-5.74q0-33.57,0-67.12a4,4,0,0,0,0-.6,2.51,2.51,0,0,1,1.55-2.7c3.75-2.13,7.43-4.38,11.17-6.54,3-1.77,6.13-3.46,9.17-5.22,2.58-1.5,5.12-3.08,7.7-4.57s5.1-2.85,7.66-4.28l.24,3.5a14,14,0,0,0-.17,1.57c0,2,0,4,0,6,0,.59.08,1.19.13,1.78l0,3.65a66.18,66.18,0,0,0-.08,9.34c0,1.21,0,2.42,0,3.63l0,9.28c0,1.23,0,2.46,0,3.69l-.08,9.35,0,.62v4c0,2.8,0,5.61,0,8.41S213,222.2,213,225a39,39,0,0,1-1.6,11,25.89,25.89,0,0,1-3.5,7.35,19.18,19.18,0,0,1-6.06,5.7l-33.28,19.34A6.66,6.66,0,0,1,167.83,268.7Z" transform="translate(-5.57 -9.35)"/><path class="e" d="M168.17,119.87q0,11.41,0,22.82c0,.8-.06,1.59-.1,2.38-2.13,2.27-1.56,4.42-.14,6.23a6,6,0,0,0,1.31,1.21,13,13,0,0,0,7.63,2.51c1.33,0,2.67,0,4,0a13,13,0,0,0,7.59-2.6,6.1,6.1,0,0,0,2.19-2.79,3,3,0,0,0-.78-3.77c0-3.18-.07-6.35-.09-9.53,0-1.26,0-2.52,0-3.77.83.39,1.66.77,2.48,1.18,1.12.56,2.23,1.14,3.34,1.72a10.64,10.64,0,0,0,.93.73c2.64,1.54,5.3,3,7.93,4.59,1.14.66,2.25,1.39,3.37,2.09a2.88,2.88,0,0,1-.54.56q-4.71,2.79-9.46,5.55c-2,1.17-4.05,2.29-6.06,3.45-3,1.74-6,3.51-9,5.25-2.76,1.6-5.53,3.18-8.3,4.77l-2.41,1.4a2.52,2.52,0,0,1-2.66,0c-1.33-.75-2.68-1.48-4-2.24l-6.89-4c-2-1.14-3.89-2.3-5.85-3.44-2.12-1.23-4.26-2.45-6.39-3.67s-4.18-2.35-6.25-3.54c-2.31-1.33-4.59-2.69-6.89-4-3.1-1.81-6.18-3.64-9.29-5.44-2.94-1.69-5.9-3.34-8.84-5-4-2.3-7.92-4.63-11.89-6.93-2.31-1.32-4.65-2.59-7-3.91-2-1.12-3.9-2.28-5.85-3.42L84,114.5l-8.63-5-6.91-4-5.71-3.28c-.68-.4-.64-.89.11-1.33,1-.61,2.06-1.23,3.12-1.78a1.21,1.21,0,0,0,.65-1.33c2.43,1.37,4.88,2.72,7.29,4.11Q92.16,112.44,110.4,123q10.56,6.09,21.1,12.2c.75.43,1.53.8,2.3,1.21,0,0,.12.12.16.1,1.77-.45,2.12-.86,2.15-2.52v-.4l0-21.2v-1.95c-.43-.29-.75-.54-1.09-.74Q118.87,100.36,102.68,91c-1.56-.89-3.07-1.86-4.6-2.8,0-.66,0-1.33,0-2,0-2.26.05-4.52.07-6.78a2.39,2.39,0,0,1,.37.15l14.28,8.25c1.49.86,3,1.66,4.52,2.48l4.44,2.61,4,2.21c1.51.94,3,1.92,4.55,2.81s3.37,1.84,5.05,2.75l6.85,4c1.35.82,2.67,1.68,4,2.46,1.94,1.11,3.91,2.17,5.87,3.25l6.87,4c.37.26.74.55,1.13.78Z" transform="translate(-5.57 -9.35)"/><path class="f" d="M195.63,135.45c-1.11-.58-2.22-1.16-3.34-1.72-.82-.41-1.65-.79-2.48-1.18q0-15.65,0-31.29a16.32,16.32,0,0,0-.22-2,5.68,5.68,0,0,1-.15-1A48.71,48.71,0,0,0,189,91.6a18.39,18.39,0,0,0-.31-1.95c.41.21.84.4,1.24.64l73.63,42.51c3.28,1.89,6.59,3.75,9.88,5.63q0,50,0,100a15.63,15.63,0,0,1-1.21,6.21v0c-.29.14-.28.28,0,.42a6.53,6.53,0,0,1-5.16,1.58,5.26,5.26,0,0,1-1.53-.36c-1.09-.49-2.18-1-3.22-1.6q-5.28-3-10.52-6.06c-3.84-2.23-7.66-4.5-11.51-6.73-3-1.76-6.12-3.45-9.17-5.21s-5.82-3.45-8.75-5.14c-1.49-.87-3-1.65-4.54-2.5-1.15-.65-2.3-1.31-3.42-2a2.21,2.21,0,0,0-1.31-.37c0-2.8,0-5.61,0-8.41,1.08.52,2.19,1,3.22,1.56,3,1.7,6,3.46,9,5.19l6.22,3.58,6.54,3.79,4.13,2.42,6.23,3.56c1.27.72,2.55,1.43,3.81,2.16,2.24,1.29,4.48,2.6,6.71,3.9,1.38.81,2.74,1.64,4.12,2.42a11.12,11.12,0,0,0,2.88,1.33,3.81,3.81,0,0,0,.28-2.24q0-22.08,0-44.17v-12a3.73,3.73,0,0,0-.33-2.13c0-.4.07-.8.07-1.2V142.21c0-.46-.07-.92-.12-1.48-23.21-13.32-46.31-26.84-69.58-40.06-.08,0-.25,0-.41.06a5,5,0,0,0-.16,2.14q0,15.09,0,30.18C195.69,133.85,195.65,134.65,195.63,135.45Z" transform="translate(-5.57 -9.35)"/><path class="g" d="M76.2,211c-1.49,3.48-3,6.94-4.84,10.26-.56.74-1.14,1.45-1.67,2.21a13.06,13.06,0,0,1-4.25,3.85,53.3,53.3,0,0,1-6.8,3.3c-1.29.53-2.57,1.07-4,1.66-.15,2-.34,4-.43,5.93-.33,7-.35,14.08,0,21.12.08,1.52.22,3.05.35,4.57a5.3,5.3,0,0,1-.45,2.72,21.59,21.59,0,0,1-6.37,1.22A5.27,5.27,0,0,0,47,268a25.8,25.8,0,0,1-7.29,0c-1.43-.22-2.87-.39-4.3-.59a11.43,11.43,0,0,0-3.88-1.66,5,5,0,0,1-.23-2.12,63.9,63.9,0,0,0,.17-9.88c-.05-.72-.17-1.44-.26-2.16a14.44,14.44,0,0,0,1-1.26c1.05-1.78,2.05-3.58,3.1-5.35a4.44,4.44,0,0,0,.63-2.46c0-2.2,0-4.39,0-6.59,0-.45.08-.91.12-1.45C45,229.36,53.77,224,62.78,219c.44.07.87.15,1-.42l0,0,.43-.42,1-1.23c1.76-2.17,3.5-4.36,5.3-6.5a25.76,25.76,0,0,1,2-1.93,3.94,3.94,0,0,1,3.1,1.23,4.57,4.57,0,0,0,.61.45Z" transform="translate(-5.57 -9.35)"/><path class="d" d="M72.5,208.56a25.76,25.76,0,0,0-2,1.93c-1.8,2.14-3.54,4.33-5.3,6.5l-1,1.23-.43.42,0,0a1,1,0,0,0-1,.42c-9,5-17.82,10.32-26.78,15.43,0,.54-.12,1-.12,1.45,0,2.2,0,4.39,0,6.59a4.44,4.44,0,0,1-.63,2.46c-1,1.77-2,3.57-3.1,5.35a14.44,14.44,0,0,1-1,1.26c-1,.54-2,1-3,1.61l-10.18,5.87-1.6.88a21.37,21.37,0,0,1-4.28-2.47c0-8,0-16.05,0-24.07A6.37,6.37,0,0,1,13.1,230c.74-1.25,1.54-2.47,2.23-3.74a7.9,7.9,0,0,0,.47-1.7,7,7,0,0,0,1.29-.44c4.31-2.47,8.6-5,12.91-7.43.47-.28.92-.54,1.06-1.11l2.73,1.28,2,1.41v5.15c0,.67,0,1.33,0,2,.1.88-.22,1.83.34,2.79a8.91,8.91,0,0,0,1.33-.47l9.62-5.6,9.27-5.43c2.17-1.27,4.35-2.54,6.53-3.79,3.22-1.85,6.45-3.68,9.68-5.52Zm-52.7,46a7.23,7.23,0,0,0,2-2.79,6.39,6.39,0,0,0,.39-3.32,2,2,0,0,0-2.8-1.6,6.75,6.75,0,0,0-3.9,4.25,2.42,2.42,0,0,0,0,.81A23.41,23.41,0,0,0,19.8,254.55Z" transform="translate(-5.57 -9.35)"/><path class="h" d="M35.4,267.4c1.43.2,2.87.37,4.3.59A25.8,25.8,0,0,0,47,268a5.27,5.27,0,0,1,.77-.16,21.59,21.59,0,0,0,6.37-1.22c0,2.32.1,4.64,0,7a95.38,95.38,0,0,1-2.22,16,9,9,0,0,1-1.24,2.9c-2.19,3.48-4.35,7-6.5,10.49-.41.68-.74,1.4-1.11,2.11a17.3,17.3,0,0,0-1.28,1.71c-1.57,2.73-3.1,5.49-4.65,8.24a2.84,2.84,0,0,0,1.45,2l2.89,1.57a13.18,13.18,0,0,1,1.4.72A2.27,2.27,0,0,1,44,322a3.16,3.16,0,0,1-2.68,2.59,4.86,4.86,0,0,1-1.57-.12,6.64,6.64,0,0,1-2.87-1.33,9,9,0,0,0-4.7-2,7.51,7.51,0,0,1-2.84-.87,3.19,3.19,0,0,1-1.14-4.63,11.45,11.45,0,0,1,.86-1.09c.34-.4.69-.79,1.1-1.26a3.78,3.78,0,0,1,.09-3.62c1-2.44,2.12-4.86,3.29-7.24a6.36,6.36,0,0,0,.78-3,1.09,1.09,0,0,0,1.15-.58c1.73-3.22,3.45-6.45,5.24-9.64a6.51,6.51,0,0,0,.52-4.44,11.9,11.9,0,0,1-.23-2,13,13,0,0,0-1.79-6.22C37.68,273.62,35.92,270.77,35.4,267.4Z" transform="translate(-5.57 -9.35)"/><path class="g" d="M35.78,223.44v-5.15l-2-1.41a28.17,28.17,0,0,0-.6-5.94,24.55,24.55,0,0,1-.35-5.75c.32-3.44,2.35-6.55,7.2-7.31a16.17,16.17,0,0,1,4.17,0,8,8,0,0,1,6.72,8.35,3.18,3.18,0,0,1-.73,2c-.65.12-1.31.21-2,.35a3.15,3.15,0,0,0-2,1.27,1.76,1.76,0,0,0,1.29,2.79,3.66,3.66,0,0,0,1.33-.26c.43-.14.84-.36,1.26-.54a5.39,5.39,0,0,1-.17,2.49c-.13.43-.19.88-.28,1.32-4.33,2.55-8.66,5.12-13,7.65A2.43,2.43,0,0,1,35.78,223.44Z" transform="translate(-5.57 -9.35)"/><path class="e" d="M35.78,223.44a2.43,2.43,0,0,0,.95-.13c4.34-2.53,8.67-5.1,13-7.65.59-.3,1.19-.58,1.76-.91q5.22-3,10.44-6.08c.62-.36,1.19-.81,1.79-1.21,2.55-1.43,5.11-2.84,7.66-4.28,1.39-.78,2.76-1.6,4.14-2.42.33-.2.65-.44,1.08-.72,0-.63,0-1.29,0-1.95,0-2.6,0-5.2,0-7.79,0-.59-.14-1.21.28-1.73.36.15.73.27,1.07.45.74.38,1.47.79,2.11,1.13l3.59-1.94c0,1.79.07,3.57.11,5.35,0,.65,0,1.3.06,2,.89,0,1.38-.35,1.43-1.14a10.11,10.11,0,0,0,0-2,85,85,0,0,1-.12-9.31c0-.17.17-.34.26-.51l4,2c0,3.66,0,7.32,0,11,0,.44-.16.95.4,1.26.84,0,1.38-.7,2.06-1.07q5.31-2.94,10.59-5.92a17.68,17.68,0,0,0,1.75-1.27,4.12,4.12,0,0,0,2.43-1.23,3.29,3.29,0,0,1,1.25,2.43,3.51,3.51,0,0,0-1.15.21c-2.71,1.55-5.38,3.14-8.07,4.71-1.94,1.14-3.89,2.26-5.84,3.39l-6.53,3.79Q83.63,203.45,81,205a3.3,3.3,0,0,1-1.92.39l-.52-1.58a1.82,1.82,0,0,0,1.14-1.31,4.66,4.66,0,0,0-1.79-1c-.54-.21-.85.1-1,.64l-.82,0-.77.47c-.89-.61-1-.58-1.17.43,0,.25-.11.49-.17.74a4.55,4.55,0,0,0-1.35.23c-1.06.54-2.07,1.18-3.1,1.78l-7.91,4.64-6.54,3.79c-2,1.14-3.9,2.28-5.86,3.41S45.11,220,43,221.23l-7.23,4.21ZM89,197.69c-1.79-1.76-2.42-1.85-4.12-.7-.32.22-.63.47-.94.71v2.76A27.07,27.07,0,0,0,89,197.69Z" transform="translate(-5.57 -9.35)"/><path class="i" d="M98.08,88.21c1.53.94,3,1.91,4.6,2.8q16.17,9.36,32.37,18.68c.34.2.66.45,1.09.74v1.95l0,21.2v.4c0,1.66-.38,2.07-2.15,2.52,0,0-.11-.07-.16-.1q0-9.6,0-19.2a11.92,11.92,0,0,1,.27-3c.44-1.74-.22-2.89-1.8-3.79-3.29-1.89-6.55-3.81-9.83-5.69-3.06-1.76-6.13-3.48-9.19-5.23l-5.18-3-7-4.12c-4-2.31-7.91-4.64-11.88-6.93-2.3-1.33-4.64-2.59-7-3.9-1.9-1.09-3.79-2.2-5.68-3.3L70,74.49c-2.88-1.66-5.76-3.31-8.63-5L57.2,67.1,51,63.54c-1.55-.89-3.1-1.8-4.66-2.67a3.47,3.47,0,0,1-1.63-1.51,1.86,1.86,0,0,1,2.46-.46c.69.39,1.37.81,2,1.21C53.1,62.39,57,64.68,60.9,67c2.94,1.69,5.9,3.34,8.84,5,1.44.83,2.84,1.72,4.3,2.52a20.21,20.21,0,0,0,2.19.92,12.91,12.91,0,0,0,3.25,2.22c2.22,1.32,4.42,2.68,6.7,3.88,2,1,3.77,2.49,6,3.1A22.35,22.35,0,0,0,98.08,88.21Z" transform="translate(-5.57 -9.35)"/><path class="i" d="M56.53,111.4c.24.72.91.94,1.47,1.27l8.64,5,35.1,20.26,5.11,3c.26,1.7.3,22.49.05,25.31a3.09,3.09,0,0,1-1.85.94q0-5.81,0-11.59c0-3.93,0-7.87,0-11.8a2.2,2.2,0,0,0-1.25-2.25c-1.23-.65-2.4-1.42-3.61-2.12l-6.92-3.95-4.14-2.39-6.38-3.7-5.85-3.41-6.24-3.55c-1.55-.89-3.11-1.78-4.65-2.69-3.73-2.18-7.44-4.39-11.17-6.56-2.3-1.33-4.64-2.59-7-3.91-2-1.12-3.9-2.27-5.85-3.41l-6.38-3.69L26.83,97l-4-2.3c-2-1.15-4.05-2.28-6.06-3.45a15.13,15.13,0,0,1-1.3-.94c.26-.69.87-.86,1.34-1.23a2.07,2.07,0,0,1,.56.12l8.46,4.88,6.9,4c2.08,1.2,4.16,2.37,6.23,3.57,2.25,1.29,4.48,2.6,6.72,3.9,2.93,1.71,5.86,3.41,8.78,5.13A3.37,3.37,0,0,0,56.53,111.4Z" transform="translate(-5.57 -9.35)"/><path class="j" d="M272.23,244.63a15.63,15.63,0,0,0,1.21-6.21q0-50,0-100l0-.17c.93.07,1.53-.69,2.35-.92,0,.87,0,1.73,0,2.6v81.88q0,8.79,0,17.59c-.13.51-.29,1-.39,1.51a5.78,5.78,0,0,1-1.61,3.1A1.89,1.89,0,0,1,272.23,244.63Z" transform="translate(-5.57 -9.35)"/><path class="a" d="M15.8,224.58a7.9,7.9,0,0,1-.47,1.7c-.69,1.27-1.49,2.49-2.23,3.74a6.37,6.37,0,0,0-.94,3.38c.05,8,0,16,0,24.07-2.27-1-4.26-2.42-6.47-3.59,0-.7,0-1.3,0-1.89q0-6.09,0-12.18,0-5-.1-10A5,5,0,0,1,6.3,227c1.06-1.7,2-3.45,3-5.18.29-.52.55-1.08,1.26-1.15a1.06,1.06,0,0,0,.55,1c.4.24.84.4,1.23.66C13.51,223.06,14.87,223.49,15.8,224.58Z" transform="translate(-5.57 -9.35)"/><path class="k" d="M50.75,75.46A11.13,11.13,0,0,1,49.21,72,9.71,9.71,0,0,1,49,69.44a2.48,2.48,0,0,1,3.6-2.19,4.6,4.6,0,0,1,1.06.54,9.39,9.39,0,0,1,4.12,6.79c.28,2.27-.22,3.08-2.4,4.21.66.4,1.23.78,1.84,1.11a5.32,5.32,0,0,1,3,5.06c0,1.8,0,3.59,0,5.54a5,5,0,0,1-1-.3q-6-3.42-11.94-6.88a5.92,5.92,0,0,1-.58-.46,32.14,32.14,0,0,1-.06-3.28c0-1.06-.05-2.13,0-3.19a1.42,1.42,0,0,1,2.1-1.34A13.36,13.36,0,0,1,50,75.7l.43.27.63.13-.14-.48C50.92,75.51,50.87,75.45,50.75,75.46Z" transform="translate(-5.57 -9.35)"/><path class="l" d="M35.4,267.4c.52,3.37,2.28,6.22,3.82,9.16A13,13,0,0,1,41,282.78a11.9,11.9,0,0,0,.23,2,6.51,6.51,0,0,1-.52,4.44c-1.79,3.19-3.51,6.42-5.24,9.64a1.09,1.09,0,0,1-1.15.58,59.73,59.73,0,0,1-.33-8.77c0-.73,0-1.46.1-2.19A31.67,31.67,0,0,0,33.23,278a67.3,67.3,0,0,1-1.63-9.23c-.09-1-.06-2-.08-3A11.43,11.43,0,0,1,35.4,267.4Z" transform="translate(-5.57 -9.35)"/><path class="e" d="M15.8,224.58c-.93-1.09-2.29-1.52-3.44-2.27-.39-.26-.83-.42-1.23-.66a1.06,1.06,0,0,1-.55-1,14,14,0,0,1,3.33-2.15c3.44-2,6.92-4,10.38-6,.23-.13.48-.22.79-.37a10.37,10.37,0,0,1,1.23.56,33.51,33.51,0,0,1,4.75,2.9c-.14.57-.59.83-1.06,1.11-4.31,2.47-8.6,5-12.91,7.43A7,7,0,0,1,15.8,224.58Z" transform="translate(-5.57 -9.35)"/><path class="l" d="M41.44,318.57,38.55,317a2.84,2.84,0,0,1-1.45-2c1.55-2.75,3.08-5.51,4.65-8.24A17.3,17.3,0,0,1,43,305l.24,3.55c0,.45.08.9.14,1.45l5.38-.81a3.64,3.64,0,0,1,1.17-.12,2.47,2.47,0,0,1,1.23.55,3.27,3.27,0,0,1-.21,4.77,6.84,6.84,0,0,1-3.43,1.45,16.64,16.64,0,0,0-2.35.35A6.13,6.13,0,0,0,41.44,318.57Z" transform="translate(-5.57 -9.35)"/><path class="k" d="M24.39,112l-.52,1-1.77-1.6c.21-1.32.42-2.62.63-4l-1.82-1.37v-2c1.28.1,2.23,1,3.52,1.08v-1.71a6,6,0,0,1,.73,0c.26,0,.52.11.87.18.55,1.59,1.42,3.09,1.42,4.86L25.52,108l-.6-1.44a1.61,1.61,0,0,0,0-.38c0-.06-.12-.11-.18-.17a.47.47,0,0,0-.07.17,2.55,2.55,0,0,0,0,.39,9.63,9.63,0,0,1-.11,1.08,1.94,1.94,0,0,1-.38.55h-.42c.11-.28,0-.34-.25-.25l.28.21.39.4a2.14,2.14,0,0,1,.72,2.25s0,.12.06.18l0,0C24.41,111.09,24.58,111.66,24.39,112Z" transform="translate(-5.57 -9.35)"/><path class="k" d="M49.37,121.27l.82.09.4,0,1,0c.68.57.8,1.44,1.21,2.26l-2.64,1.6,1.18,2c0,.62-.43.92-1,1.15-1.24-1-1.94-2.47-3.27-3.46l-.92.83c-.78-.14-1.06-.91-1.65-1.25a7.44,7.44,0,0,1,.45-3,1,1,0,0,1,1.18,0c.85.51,1.5,1.1,1,2.22l-.09.52.39-.23c.29-.25.54-.67.86-.72.67-.11.58-.46.55-.93,0-.18.29-.35.4-.55A1.33,1.33,0,0,0,49.37,121.27Zm-.07,2.33-.1-.14s-.11.08-.11.12.06.1.09.14Z" transform="translate(-5.57 -9.35)"/><path class="k" d="M83.37,140.61l1.89.09c.16.29.39.67.58,1.07s.29.71.47,1.17l-2.42,1.45c-.11,1,.88,1.42,1,2.37l-.87.94a2.08,2.08,0,0,1-.54-.31c-.83-.93-1.65-1.88-2.46-2.83-.31-.51-.08-1-.06-1.56l0,0c.46,0,.6-.35.86-.59.66.23.66.23.61-.28-.18-.84-.17-.83.47-1.12a2.19,2.19,0,0,0,.49-.43Zm-.65,2.55.1.08,0-.14Z" transform="translate(-5.57 -9.35)"/><path class="k" d="M39.39,114.94l1-.07a4.71,4.71,0,0,1,1.19,2.28l-2.57,1.59,1.25,2.12-.94,1.1c-1.44-1.11-2.22-2.69-3.53-3.76,0,0,0-.08-.06-.17.36-.07.36-.37.43-.64l0,0c.28-.18.55-.36.83-.52a1.29,1.29,0,0,1,.35-.1l.77.41-.47-1.66Z" transform="translate(-5.57 -9.35)"/><path class="k" d="M66.76,137l.16-1.16a6.14,6.14,0,0,0,.42-2.77l-1.76-1.27a2.82,2.82,0,0,1,.16-2L69,131.13c.06.38,0,.82.41,1.07l-.09,1.57-.73.22.39.61a1.29,1.29,0,0,1,.69,1.71c0,.07.09.21.15.31l0,0-.37.22.38.28v.62l-.55-.19-.77,1a4.12,4.12,0,0,1-.53-.34C67.55,137.81,67.16,137.39,66.76,137Zm1.37-3.36s-.07-.11-.11-.11-.08.05-.12.08.06.1.1.11S68.09,133.65,68.13,133.62Z" transform="translate(-5.57 -9.35)"/><path class="j" d="M69,131.13l-3.22-1.34a2.82,2.82,0,0,0-.16,2l1.76,1.27a6.14,6.14,0,0,1-.42,2.77c-.34-.08-.62-.23-.66-.62s-.06-.9-.1-1.44a5.16,5.16,0,0,1-2-2.71c-.06-.21-.5-.32-.77-.47a1,1,0,0,0,.27-1.41,4.6,4.6,0,0,1-.3-.93c.83.2,1.65.42,2.48.59.63.12,1.28.16,1.93.24a9.91,9.91,0,0,1,.71-.79c.7-.64,1.24-.54,1.68.34a2.2,2.2,0,0,1,.09.58c-.34.06-.73-.22-1.11.23.08.48.17,1,.27,1.57Z" transform="translate(-5.57 -9.35)"/><path class="i" d="M50.18,211.85c-.42.18-.83.4-1.26.54a3.66,3.66,0,0,1-1.33.26,1.76,1.76,0,0,1-1.29-2.79,3.15,3.15,0,0,1,2-1.27c.64-.14,1.3-.23,2-.35a1,1,0,0,1,0,.39A4.63,4.63,0,0,0,50.18,211.85Z" transform="translate(-5.57 -9.35)"/><path class="k" d="M46.18,121.41a1,1,0,0,0-1.18,0v-1.15l-1.83-1.35v-2a6.56,6.56,0,0,1,1,.21c.8.3,1.58.65,2.38.93.11,0,.31-.15.46-.23.46.32.38.8.34,1.25-.12.21-.37.44-.34.62C47.18,120.5,46.69,121,46.18,121.41Z" transform="translate(-5.57 -9.35)"/><path class="k" d="M56.25,127.41c-.09-.29-.1-.69-.29-.86a17.37,17.37,0,0,0-1.61-1.16v-2.06a8.26,8.26,0,0,1,1,.25c.74.28,1.46.6,2.19.89a.48.48,0,0,0,.65-.26c.11.44.23.87.34,1.31-.12.22-.37.45-.33.64.16.85-.35,1.27-1,1.66Z" transform="translate(-5.57 -9.35)"/><path class="k" d="M62,131.1l-.45.5c0,.84.93,1.33,1.12,2.29l-.84.87c-.2,0-.37,0-.43-.11-.84-.93-1.66-1.87-2.48-2.81a2,2,0,0,1-.3-1.66l0,0c.26-.15.51-.32.79-.45s.64-.24,1-.36c.2.33.42.64.59,1A1.27,1.27,0,0,0,62,131.1Z" transform="translate(-5.57 -9.35)"/><path class="k" d="M28.28,111.85l-.3.57,1.19,2-.9,1c-.23-.08-.4-.08-.47-.16-.92-1-1.82-2.08-2.73-3.12L25,111l0,0c.63-.24,1.06-.92,1.84-.81.22.3.42.62.66.9A9.47,9.47,0,0,0,28.28,111.85Z" transform="translate(-5.57 -9.35)"/><path class="k" d="M69.81,137.71v-1.12l0,0c.58-.28,1.13-.7,1.84-.4.53.43.7,1.3,1.58,1.3l-.57.63,1.2,2.06-1,1.14-.95-.8Z" transform="translate(-5.57 -9.35)"/><path class="k" d="M35.78,118c0,.09.07.15.06.17l-.69,1c-.86-.07-1.21-.84-1.89-1.36.21-1.37.42-2.72.63-4.08l1.84.42-.61.68L36.18,116v1.43l0,0C35.81,117.43,35.83,117.75,35.78,118Z" transform="translate(-5.57 -9.35)"/><path class="k" d="M80.24,137.7v-2.22l1.68.3a19.62,19.62,0,0,1,1.45,4.83h0a4.2,4.2,0,0,1-2.25-.52,7.66,7.66,0,0,0-.32-1.17c0-.08-.33-.06-.5-.08Z" transform="translate(-5.57 -9.35)"/><path class="j" d="M70.88,129.48a1.11,1.11,0,0,1,1.27.73c.21.55.3,1.14.51,1.69.28.74.57,1.51,1.57,1.54a1.17,1.17,0,0,1,1.1.72c.35.77,1.3,1.18,1.3,2.16a.21.21,0,0,1-.06.29H75.05l-.84-2.28-2-.12c-.11-.51-.19-1-.33-1.53C71.54,131.62,71.21,130.55,70.88,129.48Z" transform="translate(-5.57 -9.35)"/><path class="k" d="M35.73,114.2l-1.84-.42L32,112.5v-2a10.82,10.82,0,0,1,3.36,1.36l.4.39Z" transform="translate(-5.57 -9.35)"/><path class="k" d="M80.14,144.57l-.45.52A5.71,5.71,0,0,1,78,143.54c.17-1.09.34-2.17.5-3.25l.17-.08h.76A.94.94,0,0,0,80,141c.66.31,1.15.83.8,1.69,0,.06.13.19.2.29l0,0a.36.36,0,0,0-.57.26C80.32,143.69,80.24,144.13,80.14,144.57Z" transform="translate(-5.57 -9.35)"/><path class="k" d="M58.54,125.52l-.34-1.31c-.07-.3-.13-.61-.19-.92s.13-.39.19-.58A1.39,1.39,0,0,1,60,123.86c.26,1,.66,1.86.94,2.81a4.92,4.92,0,0,1,.08,1.16l.05,0L59,127.3a3,3,0,0,1-.27-.61C58.63,126.31,58.59,125.91,58.54,125.52Z" transform="translate(-5.57 -9.35)"/><path class="k" d="M28.28,111.85a9.47,9.47,0,0,1-.81-.74c-.24-.28-.44-.6-.66-.9-.28-.89-.27-.89.42-1.48a1.13,1.13,0,0,0,.19-.32l2,.12a5.52,5.52,0,0,1,1,2.1A4.86,4.86,0,0,1,28.28,111.85Z" transform="translate(-5.57 -9.35)"/><path class="k" d="M35.8,111l-.3-.93c.58-.54,1.11-.22,1.81,0l1.5,4.52a4.77,4.77,0,0,1-2.25-.18l-.43-2.09C36.19,111.85,36.33,111.34,35.8,111Z" transform="translate(-5.57 -9.35)"/><path class="k" d="M62,131.1a1.27,1.27,0,0,1-1.06-.72c-.17-.34-.39-.65-.59-1l-.31-.81,1-.79-.05,0a6.47,6.47,0,0,0,1.17,0,1.08,1.08,0,0,1,1.18.46,4.6,4.6,0,0,0,.3.93,1,1,0,0,1-.27,1.41Z" transform="translate(-5.57 -9.35)"/><path class="k" d="M76.57,136.61a.21.21,0,0,0,.06-.29,8.57,8.57,0,0,1,3.61,1.38c0,.37.07.75.11,1.13.15,1.32.15,1.32-1,1.36h0c0-.49-.39-.66-.8-.77-.71-.49-1.63-.73-2-1.62Z" transform="translate(-5.57 -9.35)"/><path class="k" d="M70.88,129.48c.33,1.07.66,2.14,1,3.21.14.5.22,1,.33,1.53l0,0a5.69,5.69,0,0,1-2.26-.55l-.24-1.37a1.58,1.58,0,0,0-.35-1.27l-.27-1.57c.38-.45.77-.17,1.11-.23Z" transform="translate(-5.57 -9.35)"/><path class="k" d="M47.36,119.07c0-.45.12-.93-.34-1.25-.08-.39-.17-.78-.25-1.16l.6-.38a1.08,1.08,0,0,1,1.26.71c.4,1.19.8,2.38,1.18,3.57a.54.54,0,0,1-.41.75l-1.75-.52Z" transform="translate(-5.57 -9.35)"/><path class="k" d="M72.18,134.22l2,.12.84,2.28-1.85.9c-.88,0-1-.87-1.58-1.3l-.5-1.21c.31-.54,1-.21,1.1-.82Z" transform="translate(-5.57 -9.35)"/><path class="k" d="M56.25,127.41l1,.41c1.18.93,1.18.93,1.31,2.39l0,0c-.66.23-.68.81-.76,1.36-.27.35-.61.55-1,.25a13.37,13.37,0,0,1-1.09-1A10.28,10.28,0,0,1,56.25,127.41Z" transform="translate(-5.57 -9.35)"/><path class="j" d="M69.81,137.71l2.09,2.84c-1.18.18-2.1-.12-2.41-1.47a14.49,14.49,0,0,1-1.47.26,1.55,1.55,0,0,1-1.75-1.82c0-.19.32-.36.49-.54.4.41.79.83,1.2,1.24a4.12,4.12,0,0,0,.53.34l.77-1Z" transform="translate(-5.57 -9.35)"/><path class="m" d="M36.13,112.34l.43,2.09a4.77,4.77,0,0,0,2.25.18l.58.33-1.73.62.47,1.66-.77-.41a1.29,1.29,0,0,0-.35.1c-.28.16-.55.34-.83.52V116l-1.06-1.12.61-.68.07-2A1.51,1.51,0,0,1,36.13,112.34Z" transform="translate(-5.57 -9.35)"/><path class="m" d="M47.36,119.07l.29,1.72,1.75.52,0,0a1.33,1.33,0,0,1-.06.45c-.11.2-.41.37-.4.55,0,.47.12.82-.55.93-.32,0-.57.47-.86.72l-.3-.29c.48-1.12-.17-1.71-1-2.22.51-.46,1-.91.84-1.72C47,119.51,47.24,119.28,47.36,119.07Z" transform="translate(-5.57 -9.35)"/><path class="m" d="M27.42,108.41a1.13,1.13,0,0,1-.19.32c-.69.59-.7.59-.42,1.48-.78-.11-1.21.57-1.84.81,0-.06-.07-.13-.06-.18a2.14,2.14,0,0,0-.72-2.25v-.35a1.94,1.94,0,0,0,.38-.55,9.63,9.63,0,0,0,.11-1.08h.24l.6,1.44,1.93.36Z" transform="translate(-5.57 -9.35)"/><path class="j" d="M76.56,137.81c.39.89,1.31,1.13,2,1.62,0,.26,0,.52,0,.78l-.17.08c-.72-.3-1.46-.56-2.15-.92a1.23,1.23,0,0,1-.43-.8C75.79,138.1,76.13,137.88,76.56,137.81Z" transform="translate(-5.57 -9.35)"/><path class="m" d="M80.14,144.57c.1-.44.18-.88.3-1.31A.36.36,0,0,1,81,143c0,.52-.25,1.05.06,1.56Z" transform="translate(-5.57 -9.35)"/><path class="m" d="M57.83,131.54c.08-.55.1-1.13.76-1.36a2,2,0,0,0,.3,1.66Z" transform="translate(-5.57 -9.35)"/><path class="k" d="M36.13,112.34a1.51,1.51,0,0,0-.33-.13l-.4-.39.4-.82C36.33,111.34,36.19,111.85,36.13,112.34Z" transform="translate(-5.57 -9.35)"/><path class="k" d="M47.37,116.28l-.6.38C46.72,116.13,46.74,116.11,47.37,116.28Z" transform="translate(-5.57 -9.35)"/><path class="m" d="M25,111l.07,1.16-.68-.14C24.58,111.66,24.41,111.09,25,111Z" transform="translate(-5.57 -9.35)"/><path class="n" d="M50.43,76,50,75.7l.75-.24c.12,0,.17.05.17.16Z" transform="translate(-5.57 -9.35)"/><path class="k" d="M58.2,122.71c-.06.19-.12.39-.19.58C57.85,123,57.64,122.74,58.2,122.71Z" transform="translate(-5.57 -9.35)"/><path class="n" d="M50.59,121.38l-.4,0Z" transform="translate(-5.57 -9.35)"/><path class="j" d="M272.23,245c-.27-.14-.28-.28,0-.42Z" transform="translate(-5.57 -9.35)"/><path class="k" d="M195.63,135.45c0-.8.06-1.6.06-2.4q0-15.09,0-30.18a5,5,0,0,1,.16-2.14c.16,0,.33-.11.41-.06,23.27,13.22,46.37,26.74,69.58,40.06,0,.56.12,1,.12,1.48v34.17c0,.4-.05.8-.07,1.2-.3-.14-.61-.27-.9-.43l-34.06-19.66q-8.55-4.94-17.12-9.86c-.5-.29-.94-.79-1.62-.63l0,0-.37-.4c-.45-.59-.87-1.18-1.34-1.75a5.69,5.69,0,0,0-2.66-2c-1.12-.7-2.23-1.43-3.37-2.09-2.63-1.55-5.29-3.05-7.93-4.59A10.64,10.64,0,0,1,195.63,135.45Zm32.16,1.65c.32-.52.64-.83.7-1.19.4-2.35.25-5.19-2.37-6.92-1.38-.91-2.84-1.72-4.3-2.5a4,4,0,0,0-1.53-.36,1.13,1.13,0,0,0-1.21.84,5.8,5.8,0,0,0-.25,1.37,8.09,8.09,0,0,0,.87,4.9,6.52,6.52,0,0,0-.77,1.65c-.48,3.51.51,5.7,3,7.25,1.24.77,2.52,1.48,3.79,2.2a5.35,5.35,0,0,0,1.11.44,1.16,1.16,0,0,0,1.47-.68,3,3,0,0,0,.29-.94C228.65,141.11,228.93,139,227.79,137.1Zm-19.08-3c1,.84,2,1.69,3.18,2.69a1.78,1.78,0,0,0,1.79,2.31l.53-.94a3.94,3.94,0,0,1,.77.07c1.46.36,2.39-.36,2.46-2a15.75,15.75,0,0,0-.1-3.57,6.71,6.71,0,0,0-3.44-4.89,8.76,8.76,0,0,1-1.49-1,1.3,1.3,0,0,1-.29-1.84c1.82.26,3,1.81,4.79,2.42a9.71,9.71,0,0,0,0-3.09L214,121.74l-.2-1.75c-.47-.26-.92-.53-1.39-.76-.09,0-.25,0-.38,0l-.4,1.1-.85-.14c-1.42-.27-2.33.06-2.49,2a15.18,15.18,0,0,0,.15,3.56,6.75,6.75,0,0,0,3.41,4.92c.4.24.8.46,1.2.71a1.51,1.51,0,0,1,.61,2.12,5.07,5.07,0,0,1-1.12-.36c-.92-.53-1.8-1.13-2.71-1.67a8.66,8.66,0,0,0-1.14-.46Zm32.78,7.34,2.13,1.25c.92.54,1.87,1,2.75,1.63,1.55,1.07,1.59,2.51,0,3.53a23.9,23.9,0,0,1-3.21,1.58c-.52.25-1.08.43-1.64.64a11.74,11.74,0,0,0,.13,3.55l8.62,5a2,2,0,0,0,.66.06,8.54,8.54,0,0,0,0-3.34l-3.39-2.07c.67-.49,1.21-.85,1.71-1.26a4.09,4.09,0,0,0,1.73-2.81,8,8,0,0,0-3.58-7.94,41.43,41.43,0,0,0-4.78-2.46,4.58,4.58,0,0,0-1.21-.17Zm-7.8-8c-.19.09-.29.1-.31.14-1.21,2.6-2.42,5.19-3.59,7.79a1.86,1.86,0,0,0-.06,1,2.89,2.89,0,0,0,1.71,2.48c1.6.81,3.11,1.78,4.65,2.68.06,1,.11,1.94.17,2.88a13.26,13.26,0,0,0,3.42,1.79l.14-2.33,1-.7a18.15,18.15,0,0,0,0-1.95,1.64,1.64,0,0,0-.48-1,1.79,1.79,0,0,1-.61-1.59,14,14,0,0,0-.15-3.36,9.85,9.85,0,0,0-3-1.51,6.59,6.59,0,0,0-.43,1.3c-.09.66-.05,1.33-.09,2,0,.1-.13.2-.28.4l-1.37-.8c.49-1.27,1-2.43,1.39-3.61a12.07,12.07,0,0,0,1.2-3.56A26.58,26.58,0,0,0,233.69,133.43Z" transform="translate(-5.57 -9.35)"/><path class="o" d="M212.2,147c.68-.16,1.12.34,1.62.63q8.58,4.91,17.12,9.86L265,177.15c.29.16.6.29.9.43a3.73,3.73,0,0,1,.33,2.13v12q0,22.08,0,44.17a3.81,3.81,0,0,1-.28,2.24,11.12,11.12,0,0,1-2.88-1.33c-1.38-.78-2.74-1.61-4.12-2.42-2.23-1.3-4.47-2.61-6.71-3.9-1.26-.73-2.54-1.44-3.81-2.16l-6.23-3.56-4.13-2.42-6.54-3.79L225.3,215c-3-1.73-6-3.49-9-5.19-1-.59-2.14-1-3.22-1.56v-4l.68-.28c.35.18.72.34,1.06.54l38.39,22.15c2.6,1.5,5.19,3,7.8,4.47a4.56,4.56,0,0,0,1.09.28v-9L259.71,221q-21.78-12.58-43.57-25.16c-1-.56-2-1-3-1.58,0-1.23,0-2.46,0-3.68.42.21.84.4,1.24.64l23.17,13.38,22.84,13.18c.49.28,1,.52,1.57.8a51.59,51.59,0,0,0,.1-9.14c-.44-.27-.94-.59-1.45-.89l-45.31-26.17c-.69-.4-1.41-.73-2.12-1.09,0-1.21,0-2.42,0-3.62.48.23,1,.44,1.43.71L250.45,199l10.4,6c.38.22.76.58,1.29.2v-8.81l-2.61-1.52q-19.12-11.06-38.26-22.1c-2.66-1.53-5.34-3-8-4.51,0-1.22,0-2.43,0-3.65.41.22.83.42,1.23.65l30.79,17.76,15.56,9a10,10,0,0,0,1.39.55c0-3.17.05-6.14,0-9.09-.56-.35-1-.64-1.46-.9l-36-20.77c-3.8-2.2-7.62-4.36-11.43-6.54l-.24-3.5a6.14,6.14,0,0,0-.38-3.11C212.49,148.14,212.36,147.56,212.2,147Z" transform="translate(-5.57 -9.35)"/><path class="l" d="M107.89,189.79a3.29,3.29,0,0,0-1.25-2.43,3.7,3.7,0,0,0-.36-.86,5,5,0,0,0-2-1.48l-.15-2a7.59,7.59,0,0,0-.75-.75c-.54-.42-1.11-.8-1.67-1.2,0-.8,0-1.59.08-2.39a7,7,0,0,1,.81-3.06,5,5,0,0,1,5.31-2.74,9.76,9.76,0,0,1,4.4,1.8,21.65,21.65,0,0,1,8.75,14,11.42,11.42,0,0,1,0,4.36c-.46,2.35-1.61,4.06-4,4.78a4.76,4.76,0,0,0-.5.27c0,5.64,0,11.35,0,17.11a1.87,1.87,0,0,1-.67,0c-3.07-1.73-6.13-3.48-9.25-5.26,0-.56-.1-1.07-.11-1.59,0-4.13,0-8.26,0-12.39,0-.73,0-1.47-.08-2.2a3.88,3.88,0,0,1,.42-.39A2.63,2.63,0,0,0,107.89,189.79Z" transform="translate(-5.57 -9.35)"/><path class="d" d="M104.12,183l.15,2-.06,3.57a17.68,17.68,0,0,1-1.75,1.27q-5.28,3-10.59,5.92c-.68.37-1.22,1.06-2.06,1.07-.56-.31-.4-.82-.4-1.26,0-3.65,0-7.31,0-11l1.39-.61.48.94a1.4,1.4,0,0,0,1.59-.9c-1-.61-2-1.19-3-1.72a3.73,3.73,0,0,0-1-.21c.08-1.05.16-2.1.23-3.15l4,1.95c1.29-.69,2.77-1.14,3.75-2.31-.23-.78-1.22-.86-1.17-1.68a.43.43,0,0,1,0-.33l3.78,2.1,1.81-.91c0,1.09.07,2.19.11,3.28,0,.73-.06,1.45,0,2.18a4.48,4.48,0,0,0,.28.93Zm-4.77-2.37a2.06,2.06,0,0,0-1.66-1.08,1.51,1.51,0,0,0,0,1.73C98.34,181.51,98.78,181.11,99.35,180.61Z" transform="translate(-5.57 -9.35)"/><path class="d" d="M107.89,189.79a2.63,2.63,0,0,1-1,3.54,3.88,3.88,0,0,0-.42.39l-1.09.5a1.78,1.78,0,0,0-1.14,1.9c0,.46,0,.92,0,1.41a13.85,13.85,0,0,1-3.79,2.29c-.3-.14-.59-.3-.88-.43s-.47-.17-.86-.32c-.31,2,0,4-.26,6l-3.62,2.12-3.32-1.79c-.07-.92-.13-1.71-.2-2.65a4.89,4.89,0,0,0-1.11.32c-2.82,1.62-5.61,3.29-8.43,4.91C79.92,209,78.06,210,76.2,211c0-.25,0-.51,0-.77.58-.71,1.18-1.42,1.74-2.14a4.76,4.76,0,0,0,1.12-2.69A3.3,3.3,0,0,0,81,205q2.64-1.58,5.31-3.13l6.53-3.79c2-1.13,3.9-2.25,5.84-3.39,2.69-1.57,5.36-3.16,8.07-4.71A3.51,3.51,0,0,1,107.89,189.79Z" transform="translate(-5.57 -9.35)"/><path class="e" d="M95.73,176.93c0,.82.94.9,1.17,1.68-1,1.17-2.46,1.62-3.75,2.31l-4-1.95c.1-.17.15-.4.3-.49,1.25-.75,2.52-1.48,3.82-2.24a12.68,12.68,0,0,0,1.47.67A3.4,3.4,0,0,0,95.73,176.93Z" transform="translate(-5.57 -9.35)"/><path class="e" d="M83.7,188.21l-3.59,1.94c-.64-.34-1.37-.75-2.11-1.13-.34-.18-.71-.3-1.07-.45.09-.18.13-.42.27-.51,1-.65,2.11-1.28,3.23-1.95,1,.57,2,1.09,3,1.63C83.53,187.83,83.6,188.05,83.7,188.21Z" transform="translate(-5.57 -9.35)"/><path class="e" d="M89,182.12a3.73,3.73,0,0,1,1,.21c1,.53,1.91,1.11,3,1.72a1.4,1.4,0,0,1-1.59.9l-.48-.94-1.39.61-4-2c.11-.16.18-.37.33-.47.38-.25.79-.45,1.11-.62Z" transform="translate(-5.57 -9.35)"/><path class="e" d="M101.35,177.79l-1.81.91-3.78-2.1a8.25,8.25,0,0,1,1.14-1,1.05,1.05,0,0,1,.91-.09C99,176.21,100.42,176.65,101.35,177.79Z" transform="translate(-5.57 -9.35)"/><path class="e" d="M104.12,183l-2.41,1.2a4.48,4.48,0,0,1-.28-.93c0-.73,0-1.45,0-2.18l.24,0c.56.4,1.13.78,1.67,1.2A7.59,7.59,0,0,1,104.12,183Z" transform="translate(-5.57 -9.35)"/><path class="o" d="M211.86,146.63l.37.4Z" transform="translate(-5.57 -9.35)"/><path class="p" d="M275.83,221.82V139.94c0-.87,0-1.73,0-2.6a9.26,9.26,0,0,0,.25-1.55c0-2.72.07-5.44,0-8.15a21.58,21.58,0,0,0-.51-3.93,21.34,21.34,0,0,0-5.28-9.88,10.16,10.16,0,0,0-4.44-3.22,3.68,3.68,0,0,0-.7-.67c-3.74-2.17-7.5-4.32-11.25-6.48L242,96.57q-6.75-3.9-13.49-7.8c-4.84-2.79-9.7-5.56-14.54-8.35-4.56-2.63-9.09-5.29-13.64-7.93q-8.73-5.05-17.47-10.09c-1.38-.79-2.81-1.51-4.21-2.26-.7-1.12-1.4-2.24-2.09-3.36-1.39-2.25-2.72-4.54-4.19-6.74a78.46,78.46,0,0,0-5.95-7.9A22.4,22.4,0,0,1,165,40.2a3.79,3.79,0,0,1,1.15.24c1.75,1,3.48,2,5.21,2.94s3.58,2,5.35,3.08c2,1.18,4,2.4,6,3.56s4.16,2.36,6.23,3.55c1.91,1.09,3.8,2.19,5.7,3.3,1.26.73,2.51,1.49,3.77,2.23,3.33,1.93,6.66,3.87,10,5.79,3.06,1.75,6.16,3.42,9.18,5.24,1.93,1.17,4,2.05,5.85,3.42a34,34,0,0,0,3.27,1.9l10.18,5.89c2,1.12,3.94,2.21,5.89,3.34,3.1,1.8,6.18,3.65,9.29,5.44,2.54,1.45,5.12,2.82,7.67,4.25,1.56.88,3.1,1.82,4.64,2.72,2.35,1.38,4.7,2.76,7.06,4.12,1.78,1,3.59,2,5.34,3.1a18.47,18.47,0,0,1,4.77,4.48,22.22,22.22,0,0,1,3.52,6.62,10.8,10.8,0,0,1,.76,4.29,2.33,2.33,0,0,0,.05.79,10.61,10.61,0,0,1,0,5.51,9.4,9.4,0,0,0-.07,2.19q0,47.7,0,95.4a13.74,13.74,0,0,1-.15,3.29,3.63,3.63,0,0,1-.76-.23c-2.65-1.53-5.28-3.09-7.93-4.6A3.79,3.79,0,0,0,275.83,221.82Z" transform="translate(-5.57 -9.35)"/><path class="a" d="M273.44,138.43c-3.29-1.88-6.6-3.74-9.88-5.63L189.93,90.29c-.4-.24-.83-.43-1.24-.64a93.81,93.81,0,0,0-6.32-21.27,35.68,35.68,0,0,1-1.78-4.18,2.06,2.06,0,0,1,.58.13c2.76,1.6,5.51,3.22,8.26,4.82,1.95,1.14,3.91,2.26,5.87,3.39,3,1.72,6,3.43,9,5.16s6.21,3.59,9.31,5.39q3.47,2,6.91,4l11,6.38,7.07,4.1,8.64,5,9.31,5.39c2.19,1.26,4.38,2.52,6.58,3.75a11.93,11.93,0,0,0,1.48.57,5,5,0,0,0,.9,1,16.59,16.59,0,0,1,3.24,3.19,19.68,19.68,0,0,1,3.26,5.45,17,17,0,0,1,1.44,7.16c-.11,3.06,0,6.13,0,9.19Zm-11-16.12a4.28,4.28,0,0,0,2.2,3.53,1.23,1.23,0,0,0,1.89-1,4.23,4.23,0,0,0-2.46-4,1.12,1.12,0,0,0-1.52.82C262.49,121.9,262.47,122.09,262.43,122.31Zm-2.29-1.58a4.3,4.3,0,0,0-2.16-3.39,1.2,1.2,0,0,0-1.91,1.11,4.11,4.11,0,0,0,2,3.63C259.13,122.72,260.12,122.11,260.14,120.73Zm-10.49-5.8a4.35,4.35,0,0,0,1.94,3.39,1.44,1.44,0,0,0,1.5.17,1.3,1.3,0,0,0,.64-1.35,4.26,4.26,0,0,0-2-3.44C250.64,113.05,249.67,113.6,249.65,114.93Z" transform="translate(-5.57 -9.35)"/><path class="q" d="M181.4,153.58q0-21.81,0-43.6a3.61,3.61,0,0,0,0-1,16,16,0,0,1-.35-5.16,49.69,49.69,0,0,0-.74-7.7A85.6,85.6,0,0,0,175.85,79c-.76-2.12-1.68-4.19-2.56-6.27-.6-1.4-1.18-2.83-1.91-4.17-1.84-3.39-3.62-6.81-5.67-10.07a109.84,109.84,0,0,0-7-9.67A117.23,117.23,0,0,0,148.5,37.93a50.57,50.57,0,0,0-4.31-3.53,48,48,0,0,0-5.31-3.86c-2.17-1.28-4.33-2.59-6.51-3.86-2.47-1.44-4.93-2.9-7.43-4.27a70.68,70.68,0,0,0-9.7-4.63,41.3,41.3,0,0,0-8-2.2,40.48,40.48,0,0,0-5.73-.61,30,30,0,0,0-7.49.79,3,3,0,0,1-.79,0,6.28,6.28,0,0,1,2.48-1.39,49.63,49.63,0,0,1,6.93-1.79,35.92,35.92,0,0,1,8.15-.27,32.38,32.38,0,0,1,6.64,1.19,52.11,52.11,0,0,1,11.83,4.69c3.89,2.16,7.7,4.46,11.54,6.72,2.06,1.21,4.12,2.42,6.15,3.7a71.9,71.9,0,0,1,6.47,4.95c2.72,2.18,5,4.76,7.5,7.17a65.07,65.07,0,0,1,5.8,6.82A84.68,84.68,0,0,1,172,55c1.23,2,2.43,4,3.57,6s2.14,3.84,3.09,5.81a101.46,101.46,0,0,1,7.46,21,51.82,51.82,0,0,1,1.21,6.63,38.49,38.49,0,0,1,.51,6.35,9.56,9.56,0,0,0,.28,3.56,6.9,6.9,0,0,1,.09,2q0,21,0,42c0,.8,0,1.6,0,2.4a7,7,0,0,1-.81.82A11.56,11.56,0,0,1,181.4,153.58Z" transform="translate(-5.57 -9.35)"/><path class="r" d="M117.37,90.32c-1.5-.82-3-1.62-4.52-2.48L98.57,79.59a2.39,2.39,0,0,0-.37-.15q0-5.68,0-11.37a6.45,6.45,0,0,0,0-1.59,18,18,0,0,1-.28-4.57c0-3.92,0-7.85,0-11.77a42.42,42.42,0,0,1,.78-8.5,16.92,16.92,0,0,1,2.5-6.45,13.21,13.21,0,0,0,.75-1.39A10.47,10.47,0,0,0,103.2,33a9.06,9.06,0,0,1,5.7-2c3.09-.11,5.88.91,8.67,2a4.22,4.22,0,0,1,1.05.86,9.85,9.85,0,0,0-1.2,4.57c0,3.39,0,6.78,0,10.16,0,.8,0,1.6,0,2.39q0,14.73,0,29.47C117.4,83.69,117.38,87,117.37,90.32Z" transform="translate(-5.57 -9.35)"/><path class="s" d="M142.21,104.68l-6.85-4a4.43,4.43,0,0,0,.36-1.51,18.22,18.22,0,0,0-.64-2.89,10.66,10.66,0,0,0-3.63-5.08A7.81,7.81,0,0,0,129.21,90,2.61,2.61,0,0,0,126,91.3a5.33,5.33,0,0,0-.28,3.84l-4-2.21q0-17.88,0-35.76c0-.12.12-.23.24-.46a2.54,2.54,0,0,1,.86.14c1.51.84,3,1.71,4.49,2.58,1.2.71,2.38,1.45,3.59,2.15,1.83,1.07,3.67,2.14,5.51,3.19,2.14,1.22,4.28,2.42,6.41,3.64q3.45,2,6.88,4l6.72,3.9c1.95,1.12,3.91,2.25,5.88,3.34a2.8,2.8,0,0,0,1,.14,13.31,13.31,0,0,1,.81,1.54,70.26,70.26,0,0,1,2.45,8.32,12.07,12.07,0,0,1,.34,2.92l-.94-.15c-.24,1.67-.22,1.72.9,2.29a2.64,2.64,0,0,0,.75.16c0,1.09.05,2.18.07,3.26l-1.57.57c-.42,1.8-.34,2,1,2.74a4.58,4.58,0,0,0,.91.28c0,3.72,0,7.45,0,11.17,0,.46.06.94-.37,1.28l-1.14-1.84a6.85,6.85,0,0,0-4.22-3,2.43,2.43,0,0,0-2.77.87,3.17,3.17,0,0,0-.7,2c0,.73,0,1.45,0,2.18l-6.87-4a8.34,8.34,0,0,0-.57-5,16.37,16.37,0,0,0-1.72-2.88,7.67,7.67,0,0,0-4.13-2.91,2.46,2.46,0,0,0-2.5.79,3.84,3.84,0,0,0-1,2.54C142.23,103.49,142.22,104.08,142.21,104.68Zm-16.71-31c0,2.59,0,5.19,0,7.79a4.18,4.18,0,0,0,2.32,4.06c8.33,4.75,16.61,9.56,24.92,14.36a9.63,9.63,0,0,0,1.05.57.9.9,0,0,0,1.36-.68,9.38,9.38,0,0,0,.11-1.59c0-4.93,0-9.86,0-14.78a4.46,4.46,0,0,0-2.5-4.37c-6-3.36-11.89-6.83-17.83-10.26-2.48-1.43-4.94-2.88-7.44-4.28-1.35-.76-1.93-.39-2,1.18,0,.4,0,.8,0,1.2ZM160.77,90c-.73,2.66-.24,4.1,1.83,5.61a3.35,3.35,0,0,1,.62.49c.22.27.32.57-.08.79-.85-.11-1.38-1-2.3-1a1.42,1.42,0,0,0,.36,1.85,4.9,4.9,0,0,1,1.56,2c0,.1.21.15.37.25.52-.13,1.09-.24,1.64-.43a1,1,0,0,0,.53-.54c.37-1.59.31-3.69-1.33-4.88a11.55,11.55,0,0,1-1.13-.81c-.24-.21-.38-.55,0-.78.86,0,1.39.94,2.29.94.08-1.45.11-1.49-.68-2.16a2.72,2.72,0,0,1-1-1.42c-.05-.21-.32-.37-.45-.52Z" transform="translate(-5.57 -9.35)"/><path class="a" d="M117.44,48.51c0-3.38,0-6.77,0-10.16a9.85,9.85,0,0,1,1.2-4.57,2.42,2.42,0,0,1,1.87.52L128.65,39c1.45.82,2.88,1.66,4.33,2.48a52.58,52.58,0,0,1,9.52,6.91,81.12,81.12,0,0,1,17.57,23.34,2.36,2.36,0,0,1,.5,1.68l-33.24-19.2C124,52.26,120.74,50.4,117.44,48.51Z" transform="translate(-5.57 -9.35)"/><path class="f" d="M117.44,48.51c3.3,1.89,6.6,3.75,9.89,5.65l33.24,19.2a17,17,0,0,1,2.85,6.44,2.8,2.8,0,0,1-1-.14c-2-1.09-3.93-2.22-5.88-3.34l-6.72-3.9q-3.43-2-6.88-4c-2.13-1.22-4.27-2.42-6.41-3.64-1.84-1-3.68-2.12-5.51-3.19-1.21-.7-2.39-1.44-3.59-2.15-1.49-.87-3-1.74-4.49-2.58a2.54,2.54,0,0,0-.86-.14c-.12.23-.24.34-.24.46q0,17.88,0,35.76l-4.44-2.61c0-3.31,0-6.63,0-9.95q0-14.73,0-29.47C117.41,50.11,117.43,49.31,117.44,48.51Z" transform="translate(-5.57 -9.35)"/><path class="n" d="M101.85,33.8a13.21,13.21,0,0,1-.75,1.39,16.92,16.92,0,0,0-2.5,6.45,42.42,42.42,0,0,0-.78,8.5c0,3.92,0,7.85,0,11.77a18,18,0,0,0,.28,4.57,6.45,6.45,0,0,1,0,1.59q0,5.69,0,11.37c0,2.26,0,4.52-.07,6.78,0,.66,0,1.33,0,2a22.35,22.35,0,0,1-5.91-3.59q0-4.59,0-9.18a3.25,3.25,0,0,0,0-1,13.89,13.89,0,0,1-.34-4.54c0-6.39-.06-12.77,0-19.15a30.51,30.51,0,0,1,2.07-11,11.68,11.68,0,0,1,4.17-5A5.44,5.44,0,0,1,101.85,33.8Z" transform="translate(-5.57 -9.35)"/><path class="t" d="M264.63,112.23a11.93,11.93,0,0,1-1.48-.57c-2.2-1.23-4.39-2.49-6.58-3.75l-9.31-5.39-8.64-5-7.07-4.1-11-6.38q-3.45-2-6.91-4-4.65-2.7-9.31-5.39c-3-1.73-6-3.44-9-5.16-2-1.13-3.92-2.25-5.87-3.39-2.75-1.6-5.5-3.22-8.26-4.82a2.06,2.06,0,0,0-.58-.13,14.6,14.6,0,0,1-2-4.06c1.4.75,2.83,1.47,4.21,2.26q8.74,5,17.47,10.09c4.55,2.64,9.08,5.3,13.64,7.93,4.84,2.79,9.7,5.56,14.54,8.35q6.75,3.89,13.49,7.8l11.93,6.89c3.75,2.16,7.51,4.31,11.25,6.48a3.68,3.68,0,0,1,.7.67,1.22,1.22,0,0,1-.64,1.11A4.52,4.52,0,0,0,264.63,112.23Z" transform="translate(-5.57 -9.35)"/><path class="m" d="M159,114.36c0-.73,0-1.45,0-2.18a3.17,3.17,0,0,1,.7-2,2.43,2.43,0,0,1,2.77-.87,6.85,6.85,0,0,1,4.22,3l1.14,1.84a4.09,4.09,0,0,1,.39,1.92c0,1.26,0,2.51-.05,3.77l-8-4.73C159.73,114.91,159.36,114.62,159,114.36Z" transform="translate(-5.57 -9.35)"/><path class="u" d="M181.4,153.58a11.56,11.56,0,0,0,6-2.1,7,7,0,0,0,.81-.82,3.89,3.89,0,0,0,1.6-3.23c0-.53,0-1.05.07-1.58a3,3,0,0,1,.78,3.77,6.1,6.1,0,0,1-2.19,2.79,13,13,0,0,1-7.59,2.6c-1.33,0-2.67,0-4,0a13,13,0,0,1-7.63-2.51A6,6,0,0,1,168,151.3c-1.42-1.81-2-4,.14-6.23,0,.73.1,1.45.1,2.18a4.54,4.54,0,0,0,1.58,3.53,9.88,9.88,0,0,0,2.12,1.46A15.24,15.24,0,0,0,181.4,153.58Z" transform="translate(-5.57 -9.35)"/><path class="t" d="M168.16,101.73a4.58,4.58,0,0,1-.91-.28c-1.36-.71-1.44-.94-1-2.74l1.57-.57a6.64,6.64,0,0,1,.34,1.27C168.2,100.18,168.16,101,168.16,101.73Z" transform="translate(-5.57 -9.35)"/><path class="t" d="M167.73,94.88a2.64,2.64,0,0,1-.75-.16c-1.12-.57-1.14-.62-.9-2.29l.94.15C167.64,93.23,167.47,94.13,167.73,94.88Z" transform="translate(-5.57 -9.35)"/><path class="k" d="M213.16,194.24c1,.53,2,1,3,1.58q21.8,12.57,43.57,25.16l2.43,1.41v9a4.56,4.56,0,0,1-1.09-.28c-2.61-1.47-5.2-3-7.8-4.47l-38.39-22.15c-.34-.2-.71-.36-1.06-.54l-.72-.34C213.11,200.47,213.13,197.36,213.16,194.24Z" transform="translate(-5.57 -9.35)"/><path class="k" d="M213.26,168.3c2.67,1.5,5.35,3,8,4.51q19.14,11,38.26,22.1l2.61,1.52v8.81c-.53.38-.91,0-1.29-.2l-10.4-6-35.84-20.68c-.46-.27-1-.48-1.43-.71A66.31,66.31,0,0,1,213.26,168.3Z" transform="translate(-5.57 -9.35)"/><path class="k" d="M213.19,181.27c.71.36,1.43.69,2.12,1.09l45.31,26.17c.51.3,1,.62,1.45.89a51.59,51.59,0,0,1-.1,9.14c-.55-.28-1.08-.52-1.57-.8l-22.84-13.18L214.39,191.2c-.4-.24-.82-.43-1.24-.64C213.16,187.46,213.18,184.36,213.19,181.27Z" transform="translate(-5.57 -9.35)"/><path class="k" d="M213.3,155.3c3.81,2.18,7.63,4.34,11.43,6.54l36,20.77c.46.26.9.55,1.46.9.1,3,0,5.92,0,9.09a10,10,0,0,1-1.39-.55l-15.56-9L214.47,165.3c-.4-.23-.82-.43-1.23-.65-.05-.59-.13-1.19-.13-1.78,0-2,0-4,0-6A14,14,0,0,1,213.3,155.3Z" transform="translate(-5.57 -9.35)"/><path class="f" d="M213.08,203.59l.72.34-.68.28Z" transform="translate(-5.57 -9.35)"/><path class="m" d="M125.76,95.14A5.33,5.33,0,0,1,126,91.3,2.61,2.61,0,0,1,129.21,90a7.81,7.81,0,0,1,2.24,1.25,10.66,10.66,0,0,1,3.63,5.08,18.22,18.22,0,0,1,.64,2.89,4.43,4.43,0,0,1-.36,1.51c-1.68-.91-3.39-1.79-5.05-2.75S127.27,96.08,125.76,95.14Z" transform="translate(-5.57 -9.35)"/><path class="m" d="M142.21,104.68c0-.6,0-1.19,0-1.78a3.84,3.84,0,0,1,1-2.54,2.46,2.46,0,0,1,2.5-.79,7.67,7.67,0,0,1,4.13,2.91,16.37,16.37,0,0,1,1.72,2.88,8.34,8.34,0,0,1,.57,5c-2-1.08-3.93-2.14-5.87-3.25C144.88,106.36,143.56,105.5,142.21,104.68Z" transform="translate(-5.57 -9.35)"/><path class="l" d="M79.07,205.41A4.76,4.76,0,0,1,78,208.1c-.56.72-1.16,1.43-1.74,2.14a4.57,4.57,0,0,1-.61-.45,3.94,3.94,0,0,0-3.1-1.23c0-.38,0-.76.07-1.14.49-1.19,1.34-2.24,1.45-3.59.06-.25.13-.49.17-.74.2-1,.28-1,1.17-.43.1.61-.1,1.27.3,1.83a.7.7,0,0,0,.84-.82,8.9,8.9,0,0,0-.37-1.48l.82,0,1.6,1.68Z" transform="translate(-5.57 -9.35)"/><path class="i" d="M62.78,219a1,1,0,0,1,1-.42C63.65,219.19,63.22,219.11,62.78,219Z" transform="translate(-5.57 -9.35)"/><path class="i" d="M63.79,218.64l.43-.42Z" transform="translate(-5.57 -9.35)"/><path class="a" d="M74,203.83c-.11,1.35-1,2.4-1.45,3.59-3.23,1.84-6.46,3.67-9.68,5.52-2.18,1.25-4.36,2.52-6.53,3.79l-9.27,5.43-9.62,5.6a8.91,8.91,0,0,1-1.33.47c-.56-1-.24-1.91-.34-2.79L43,221.23c2.08-1.19,4.16-2.36,6.23-3.55s3.9-2.27,5.86-3.41l6.54-3.79,7.91-4.64c1-.6,2-1.24,3.1-1.78A4.55,4.55,0,0,1,74,203.83Z" transform="translate(-5.57 -9.35)"/><path class="a" d="M19.8,254.55a23.41,23.41,0,0,1-4.36-2.65,2.42,2.42,0,0,1,0-.81,6.75,6.75,0,0,1,3.9-4.25,2,2,0,0,1,2.8,1.6,6.39,6.39,0,0,1-.39,3.32A7.23,7.23,0,0,1,19.8,254.55Z" transform="translate(-5.57 -9.35)"/><path class="a" d="M89,197.69a27.07,27.07,0,0,1-5.06,2.77V197.7c.31-.24.62-.49.94-.71C86.53,195.84,87.16,195.93,89,197.69Z" transform="translate(-5.57 -9.35)"/><path class="a" d="M104.21,188.59l.06-3.57a5,5,0,0,1,2,1.48,3.7,3.7,0,0,1,.36.86A4.12,4.12,0,0,1,104.21,188.59Z" transform="translate(-5.57 -9.35)"/><path class="a" d="M78.55,203.83,77,202.15c.1-.54.41-.85,1-.64a4.66,4.66,0,0,1,1.79,1A1.82,1.82,0,0,1,78.55,203.83Z" transform="translate(-5.57 -9.35)"/><path class="a" d="M76.13,202.19a8.9,8.9,0,0,1,.37,1.48.7.7,0,0,1-.84.82c-.4-.56-.2-1.22-.3-1.83Z" transform="translate(-5.57 -9.35)"/><path class="v" d="M264.63,112.23a4.52,4.52,0,0,1,.56-.51,1.22,1.22,0,0,0,.64-1.11,10.16,10.16,0,0,1,4.44,3.22,21.34,21.34,0,0,1,5.28,9.88,21.58,21.58,0,0,1,.51,3.93c.07,2.71,0,5.43,0,8.15a9.26,9.26,0,0,1-.25,1.55c-.82.23-1.42,1-2.35.92,0-3.06-.1-6.13,0-9.19a17,17,0,0,0-1.44-7.16,19.68,19.68,0,0,0-3.26-5.45,16.59,16.59,0,0,0-3.24-3.19A5,5,0,0,1,264.63,112.23Z" transform="translate(-5.57 -9.35)"/><path class="n" d="M50.92,75.62l.14.48L50.43,76Z" transform="translate(-5.57 -9.35)"/><path class="n" d="M24.92,106.6h-.24a2.55,2.55,0,0,1,0-.39.47.47,0,0,1,.07-.17c.06.06.16.11.18.17A1.61,1.61,0,0,1,24.92,106.6Z" transform="translate(-5.57 -9.35)"/><path class="n" d="M23.8,108.19l-.28-.21c.26-.09.36,0,.25.25Z" transform="translate(-5.57 -9.35)"/><path class="n" d="M24.19,108.24v.35l-.39-.4,0,0Z" transform="translate(-5.57 -9.35)"/><path class="m" d="M47.5,123.92l-.39.23.09-.52Z" transform="translate(-5.57 -9.35)"/><path class="m" d="M49.3,123.6l-.12.12s-.09-.09-.09-.14.07-.08.11-.12Z" transform="translate(-5.57 -9.35)"/><path class="m" d="M79.38,140.19c1.12,0,1.12,0,1-1.36.17,0,.47,0,.5.08a7.66,7.66,0,0,1,.32,1.17,4.2,4.2,0,0,0,2.25.52,2.19,2.19,0,0,1-.49.43c-.64.29-.65.28-.47,1.12l-.61.28c-.26.24-.4.64-.86.59-.07-.1-.22-.23-.2-.29.35-.86-.14-1.38-.8-1.69A.94.94,0,0,1,79.38,140.19Z" transform="translate(-5.57 -9.35)"/><path class="n" d="M81.85,142.43l.61-.28C82.51,142.66,82.51,142.66,81.85,142.43Z" transform="translate(-5.57 -9.35)"/><polygon class="n" points="77.15 133.81 77.28 133.75 77.25 133.9 77.15 133.81"/><path class="m" d="M35.78,118c0-.28,0-.6.43-.64C36.14,117.66,36.14,118,35.78,118Z" transform="translate(-5.57 -9.35)"/><path class="j" d="M72.22,134.19c-.09.61-.79.28-1.1.82l.5,1.21c-.71-.3-1.26.12-1.84.4-.06-.1-.18-.24-.15-.31a1.29,1.29,0,0,0-.69-1.71c.12-.27.23-.55.34-.83l.09-1.57a1,1,0,0,0,.35.07l.24,1.37A5.69,5.69,0,0,0,72.22,134.19Z" transform="translate(-5.57 -9.35)"/><path class="k" d="M69.72,132.27a1,1,0,0,1-.35-.07c-.44-.25-.35-.69-.41-1.07l.41-.13A1.58,1.58,0,0,1,69.72,132.27Z" transform="translate(-5.57 -9.35)"/><path class="k" d="M69.28,133.77c-.11.28-.22.56-.34.83l-.39-.61Z" transform="translate(-5.57 -9.35)"/><path class="k" d="M68.13,133.62s-.09.08-.13.08-.07-.07-.1-.11.08-.08.12-.08S68.09,133.58,68.13,133.62Z" transform="translate(-5.57 -9.35)"/><path class="j" d="M69.8,136.59v.5l-.38-.28Z" transform="translate(-5.57 -9.35)"/><path class="m" d="M58.57,130.21c-.13-1.46-.13-1.46-1.31-2.39.6-.39,1.11-.81,1-1.66,0-.19.21-.42.33-.64.05.39.09.79.16,1.17a3,3,0,0,0,.27.61l2.05.5c-.32.24-.63.49-1,.79l.31.81c-.32.12-.65.22-1,.36S58.83,130.06,58.57,130.21Z" transform="translate(-5.57 -9.35)"/><path class="k" d="M78.62,140.21c0-.26,0-.52,0-.78.41.11.76.28.8.77Z" transform="translate(-5.57 -9.35)"/><path class="o" d="M227.79,137.1c1.14,1.93.86,4,.79,6.06a3,3,0,0,1-.29.94,1.16,1.16,0,0,1-1.47.68,5.35,5.35,0,0,1-1.11-.44c-1.27-.72-2.55-1.43-3.79-2.2-2.48-1.55-3.47-3.74-3-7.25a6.52,6.52,0,0,1,.77-1.65,8.09,8.09,0,0,1-.87-4.9,5.8,5.8,0,0,1,.25-1.37,1.13,1.13,0,0,1,1.21-.84,4,4,0,0,1,1.53.36c1.46.78,2.92,1.59,4.3,2.5,2.62,1.73,2.77,4.57,2.37,6.92C228.43,136.27,228.11,136.58,227.79,137.1Zm-2.85,3c.11-.95.33-1.77-.24-2.45a2.8,2.8,0,0,0-2-1.11C222.07,138.65,222.39,139.18,224.94,140.13Zm-.1-6a2.35,2.35,0,0,0,0-2.15,3.21,3.21,0,0,0-2.05-1.29,1.73,1.73,0,0,0-.18,2A3.39,3.39,0,0,0,224.84,134.09Z" transform="translate(-5.57 -9.35)"/><path class="o" d="M208.71,134.08v-3a8.66,8.66,0,0,1,1.14.46c.91.54,1.79,1.14,2.71,1.67a5.07,5.07,0,0,0,1.12.36,1.51,1.51,0,0,0-.61-2.12c-.4-.25-.8-.47-1.2-.71a6.75,6.75,0,0,1-3.41-4.92,15.18,15.18,0,0,1-.15-3.56c.16-1.94,1.07-2.27,2.49-2l.85.14.4-1.1c.13,0,.29-.09.38,0,.47.23.92.5,1.39.76l.2,1.75,2.91,2.47a9.71,9.71,0,0,1,0,3.09c-1.78-.61-3-2.16-4.79-2.42a1.3,1.3,0,0,0,.29,1.84,8.76,8.76,0,0,0,1.49,1,6.71,6.71,0,0,1,3.44,4.89,15.75,15.75,0,0,1,.1,3.57c-.07,1.68-1,2.4-2.46,2a3.94,3.94,0,0,0-.77-.07l-.53.94a1.78,1.78,0,0,1-1.79-2.31C210.72,135.77,209.71,134.92,208.71,134.08Z" transform="translate(-5.57 -9.35)"/><path class="o" d="M241.49,141.42v-2.86a4.58,4.58,0,0,1,1.21.17,41.43,41.43,0,0,1,4.78,2.46,8,8,0,0,1,3.58,7.94,4.09,4.09,0,0,1-1.73,2.81c-.5.41-1,.77-1.71,1.26l3.39,2.07a8.54,8.54,0,0,1,0,3.34,2,2,0,0,1-.66-.06l-8.62-5a11.74,11.74,0,0,1-.13-3.55c.56-.21,1.12-.39,1.64-.64a23.9,23.9,0,0,0,3.21-1.58c1.55-1,1.51-2.46,0-3.53-.88-.6-1.83-1.09-2.75-1.63Z" transform="translate(-5.57 -9.35)"/><path class="o" d="M233.69,133.43a26.58,26.58,0,0,1,3.37,2,12.07,12.07,0,0,1-1.2,3.56c-.42,1.18-.9,2.34-1.39,3.61l1.37.8c.15-.2.28-.3.28-.4,0-.66,0-1.33.09-2a6.59,6.59,0,0,1,.43-1.3,9.85,9.85,0,0,1,3,1.51,14,14,0,0,1,.15,3.36,1.79,1.79,0,0,0,.61,1.59,1.64,1.64,0,0,1,.48,1,18.15,18.15,0,0,1,0,1.95l-1,.7-.14,2.33a13.26,13.26,0,0,1-3.42-1.79c-.06-.94-.11-1.86-.17-2.88-1.54-.9-3.05-1.87-4.65-2.68a2.89,2.89,0,0,1-1.71-2.48,1.86,1.86,0,0,1,.06-1c1.17-2.6,2.38-5.19,3.59-7.79C233.4,133.53,233.5,133.52,233.69,133.43Z" transform="translate(-5.57 -9.35)"/><path class="d" d="M99.35,180.61c-.57.5-1,.9-1.7.65a1.51,1.51,0,0,1,0-1.73A2.06,2.06,0,0,1,99.35,180.61Z" transform="translate(-5.57 -9.35)"/><path class="f" d="M262.43,122.31c0-.22.06-.41.11-.6a1.12,1.12,0,0,1,1.52-.82,4.23,4.23,0,0,1,2.46,4,1.23,1.23,0,0,1-1.89,1A4.28,4.28,0,0,1,262.43,122.31Z" transform="translate(-5.57 -9.35)"/><path class="f" d="M260.14,120.73c0,1.38-1,2-2,1.35a4.11,4.11,0,0,1-2-3.63,1.2,1.2,0,0,1,1.91-1.11A4.3,4.3,0,0,1,260.14,120.73Z" transform="translate(-5.57 -9.35)"/><path class="f" d="M249.65,114.93c0-1.33,1-1.88,2-1.23a4.26,4.26,0,0,1,2,3.44,1.3,1.3,0,0,1-.64,1.35,1.44,1.44,0,0,1-1.5-.17A4.35,4.35,0,0,1,249.65,114.93Z" transform="translate(-5.57 -9.35)"/><path class="k" d="M125.5,73.72v-6.8c0-.4,0-.8,0-1.2.07-1.57.65-1.94,2-1.18,2.5,1.4,5,2.85,7.44,4.28,5.94,3.43,11.86,6.9,17.83,10.26a4.46,4.46,0,0,1,2.5,4.37c-.06,4.92,0,9.85,0,14.78a9.38,9.38,0,0,1-.11,1.59.9.9,0,0,1-1.36.68,9.63,9.63,0,0,1-1.05-.57c-8.31-4.8-16.59-9.61-24.92-14.36a4.18,4.18,0,0,1-2.32-4.06C125.54,78.91,125.5,76.31,125.5,73.72ZM153,87.27c-2.28-1.32-4.4-2.56-6.54-3.79q-8.89-5.13-17.81-10.27c-.36-.21-.7-.65-1.3-.3a10.56,10.56,0,0,0,.09,3.31c.54.34,1,.66,1.56,1l9.51,5.49c4.26,2.46,8.51,4.94,12.79,7.39.48.28,1,.76,1.7.45Zm-.09-4.41c.27-1.52.29-1.69-.1-2-.9-.57-1.83-1.09-2.75-1.62-.45-.26-.91-.48-1.39-.72-.41,1.34-.41,1.58.27,2C150.2,81.33,151.47,82,152.93,82.86Zm-20.84.44c-.77-.44-1.5-.88-2.24-1.31a15.81,15.81,0,0,0-2.45-1.31c-.35,1.07-.19,1.78.75,2.26S130,84,130.91,84.52a11.2,11.2,0,0,0,1.18.49Z" transform="translate(-5.57 -9.35)"/><path class="a" d="M160.77,90l2.28-.6c.13.15.4.31.45.52a2.72,2.72,0,0,0,1,1.42c.79.67.76.71.68,2.16-.9,0-1.43-.91-2.29-.94-.43.23-.29.57,0,.78a11.55,11.55,0,0,0,1.13.81c1.64,1.19,1.7,3.29,1.33,4.88a1,1,0,0,1-.53.54c-.55.19-1.12.3-1.64.43-.16-.1-.33-.15-.37-.25a4.9,4.9,0,0,0-1.56-2,1.42,1.42,0,0,1-.36-1.85c.92-.05,1.45.87,2.3,1,.4-.22.3-.52.08-.79a3.35,3.35,0,0,0-.62-.49C160.53,94.09,160,92.65,160.77,90Z" transform="translate(-5.57 -9.35)"/><path class="k" d="M224.94,140.13c-2.55-.95-2.87-1.48-2.22-3.56a2.8,2.8,0,0,1,2,1.11C225.27,138.36,225.05,139.18,224.94,140.13Z" transform="translate(-5.57 -9.35)"/><path class="k" d="M224.84,134.09a3.39,3.39,0,0,1-2.26-1.48,1.73,1.73,0,0,1,.18-2,3.21,3.21,0,0,1,2.05,1.29A2.35,2.35,0,0,1,224.84,134.09Z" transform="translate(-5.57 -9.35)"/><path class="w" d="M153,87.27v3.24c-.75.31-1.22-.17-1.7-.45-4.28-2.45-8.53-4.93-12.79-7.39L129,77.18c-.51-.3-1-.62-1.56-1a10.56,10.56,0,0,1-.09-3.31c.6-.35.94.09,1.3.3q8.93,5.13,17.81,10.27C148.62,84.71,150.74,86,153,87.27Z" transform="translate(-5.57 -9.35)"/><path class="w" d="M152.93,82.86c-1.46-.83-2.73-1.53-4-2.29-.68-.42-.68-.66-.27-2,.48.24.94.46,1.39.72.92.53,1.85,1,2.75,1.62C153.22,81.17,153.2,81.34,152.93,82.86Z" transform="translate(-5.57 -9.35)"/><path class="w" d="M132.09,83.3V85a11.2,11.2,0,0,1-1.18-.49c-.93-.52-1.82-1.09-2.76-1.58s-1.1-1.19-.75-2.26A15.81,15.81,0,0,1,129.85,82C130.59,82.42,131.32,82.86,132.09,83.3Z" transform="translate(-5.57 -9.35)"/></svg>