<svg xmlns="http://www.w3.org/2000/svg" viewBox="0 0 336.33 217.9"><defs><style>.a{fill:#f04a23;}.b{fill:#788471;}.c{fill:#f8b07f;}.d{fill:#784879;}.e{fill:#362037;}.f{fill:#dbe7e3;}.g{fill:#f4f0e1;}.h{fill:#45273a;}.i{fill:#b63b26;}.j{fill:#623860;}.k{fill:#acc9c5;}.l{fill:#dbeae7;}.m{fill:#653743;}.n{fill:#dbe9e6;}.o{fill:#525569;}.p{fill:#dbe8e5;}.q{fill:#f39e1e;}.r{fill:#b07a85;}.s{fill:#93bcb6;}.t{fill:#ed8062;}.u{fill:#f5c0a0;}.v{fill:#ed8365;}</style></defs><path class="a" d="M289.22,194a19.08,19.08,0,0,1,4.46.45,3.94,3.94,0,0,0,.69,0,4.94,4.94,0,0,1,1.83.2,1.54,1.54,0,0,0,.57,0,4.3,4.3,0,0,1,1.71.2,1.18,1.18,0,0,0,.46,0,15.6,15.6,0,0,1,3.19.43c.22,0,.46,0,.69.06l1.36.17a3.87,3.87,0,0,0,.46.06c1.23,0,2.43.35,3.65.43,1.42.09,2.79.52,4.22.56a19.35,19.35,0,0,1,2.26.37c.72.12,1.45.21,2.16.33l4,.68c2,.33,3.93.65,5.89,1,1.2.22,2.39.54,3.59.8,2.7.61,5.37,1.36,8,2.14a36,36,0,0,1,5.49,2.16,11.83,11.83,0,0,1,2.73,1.77c1.87,1.64,1.84,3.39-.06,5a15.8,15.8,0,0,1-3.83,2.22c-1.23.55-2.5,1-3.76,1.47a2.49,2.49,0,0,1-.44.14c-1.73.38-3.35,1.14-5.12,1.39-.83.12-1.62.48-2.45.64-2.06.42-4.1,1-6.2,1.25-.83.11-1.65.34-2.48.5s-1.58.29-2.37.43l-3.74.65c-.6.1-1.21.21-1.81.29-.84.1-1.68.17-2.52.28-.42.05-.83.16-1.24.23-1,.15-2,.37-3,.43s-1.76.19-2.63.3-1.75.23-2.62.36c-.15,0-.3.09-.45.1a24.54,24.54,0,0,0-3.21.29,28.21,28.21,0,0,0-3.31.4,3.87,3.87,0,0,1-.69.05c-.41,0-.83.11-1.25.15s-.61.07-.92.08a4.66,4.66,0,0,0-1.48.18,2.35,2.35,0,0,1-.8.06,5.66,5.66,0,0,0-1.83.2,3.49,3.49,0,0,1-.92.05,4.93,4.93,0,0,0-1.83.19,3.12,3.12,0,0,1-.69,0c-.42,0-.83.1-1.25.16-.11,0-.23.06-.34.06l-4.14.26c-.45,0-.91.12-1.36.18a2.23,2.23,0,0,1-.23,0,35.8,35.8,0,0,0-4.14.25,8.05,8.05,0,0,0-2.29.21,2.25,2.25,0,0,1-.69,0,9.57,9.57,0,0,0-2.06.18,9.84,9.84,0,0,1-2,.06,4.33,4.33,0,0,0-1.6.17,2.68,2.68,0,0,1-.8.07,18.17,18.17,0,0,0-3.45.2,11.85,11.85,0,0,1-2.31,0,4.73,4.73,0,0,0-1.83.19,2.25,2.25,0,0,1-.69,0,18.38,18.38,0,0,0-2.76.19,14.63,14.63,0,0,1-2.65.05,6.22,6.22,0,0,0-2.06.19,2.43,2.43,0,0,1-.81.05c-1,0-2,0-3,0-.45,0-.91.11-1.37.16-.3,0-.61.06-.91.07h-3.25a4.73,4.73,0,0,0-1.71.17,2.12,2.12,0,0,1-.8.06c-.89,0-1.78,0-2.67,0-.41,0-.83.1-1.25.14s-.69.08-1,.09h-4.52a6.24,6.24,0,0,0-2.06.18,2.81,2.81,0,0,1-.92,0c-1.77,0-3.55,0-5.32,0a8.4,8.4,0,0,0-2.64.2,3.12,3.12,0,0,1-.92,0h-10c-.45,0-.91.11-1.37.15s-.84.08-1.26.08H157.37a5,5,0,0,1-1.71-.17,3.26,3.26,0,0,0-1-.06h-9.84a4.87,4.87,0,0,1-1.6-.16,3.18,3.18,0,0,0-1-.07h-5.56a8.31,8.31,0,0,1-2.63-.2,2.43,2.43,0,0,0-.81,0H129a7.21,7.21,0,0,1-2.4-.2,2.25,2.25,0,0,0-.69,0,20.09,20.09,0,0,1-4.38-.22,2.63,2.63,0,0,0-.69,0h-3.35a2.71,2.71,0,0,1-.7,0,18.89,18.89,0,0,0-4.25-.22,4.7,4.7,0,0,1-1.49-.16,2.8,2.8,0,0,0-.92-.07c-.84,0-1.69,0-2.54,0-.46,0-.91-.11-1.37-.15s-.84-.06-1.27-.08a12.29,12.29,0,0,1-2.41-.18,9.1,9.1,0,0,0-2-.06,10.13,10.13,0,0,1-2.18-.18,9.34,9.34,0,0,0-1.84-.06,9,9,0,0,1-2.06-.18,8.28,8.28,0,0,0-1.73-.06,5.61,5.61,0,0,1-2-.19,2.63,2.63,0,0,0-.8,0,7.36,7.36,0,0,1-2.29-.2,3.49,3.49,0,0,0-.92,0,6.23,6.23,0,0,1-2.06-.2,3.1,3.1,0,0,0-.81,0,9.33,9.33,0,0,1-2.52-.2,4.86,4.86,0,0,0-1.27,0,5.17,5.17,0,0,1-1.83-.19,2,2,0,0,0-.69-.05,13.25,13.25,0,0,1-2.17-.19c-1.09-.2-2.22-.2-3.32-.3-.46,0-.91-.11-1.37-.17q-.34,0-.69-.06A6.54,6.54,0,0,1,68,222.6a3.52,3.52,0,0,0-.8,0c-.42,0-.84-.1-1.26-.15l-.8-.09-1.36-.18a3.59,3.59,0,0,0-.46,0,13.06,13.06,0,0,1-2.06-.2c-1-.2-2.14-.19-3.21-.29-.72-.07-1.45-.16-2.16-.28-1.18-.19-2.35-.36-3.53-.46s-2.58-.37-3.87-.57c-.76-.11-1.51-.31-2.27-.35-1.27-.07-2.5-.37-3.75-.54-.84-.11-1.66-.29-2.49-.44a30.68,30.68,0,0,1-3.4-.61,8.71,8.71,0,0,0-1.69-.33,36.15,36.15,0,0,1-3.84-.75c-1-.22-2-.47-3-.68-1.58-.33-3.12-.81-4.68-1.24-.82-.22-1.64-.44-2.44-.73a26.07,26.07,0,0,1-6.85-3.09,12.62,12.62,0,0,1-1.94-1.86,2.11,2.11,0,0,1,0-2.56,7.65,7.65,0,0,1,2.56-2.34,35.23,35.23,0,0,1,4.33-2c1-.37,2-.65,3-1s2.28-.73,3.43-1c1.71-.44,3.43-.86,5.16-1.23s3.53-.69,5.3-1c1.09-.21,2.18-.45,3.27-.65.68-.12,1.37-.2,2-.31s1.58-.31,2.37-.41c.61-.08,1.23-.06,1.85-.08,0,.16,0,.31,0,.47-.44,2.3-.9,4.59-1.34,6.89a1.13,1.13,0,0,0,.63,1.47,6.13,6.13,0,0,0,2.15.79l2.16.33c0,.84-.08,1.69,0,2.52a1.63,1.63,0,0,0,1.83,1.71,4.75,4.75,0,0,0,.92-.07,9.8,9.8,0,0,1,2.65-.06c1.11.06,2.23.11,3.35.11a8.77,8.77,0,0,0,1.6-.21,1.65,1.65,0,0,0,.62-.31.78.78,0,0,0,0-1.31,4.47,4.47,0,0,0-1.2-.68c-.87-.32-1.77-.57-2.64-.87a2.11,2.11,0,0,1-1.36-.83c.27,0,.53-.06.8-.12a10.55,10.55,0,0,0,2.33-.62,2,2,0,0,0,1.2-1.49c.31-1.45.65-2.88,1-4.31q.7-2.91,1.43-5.8H64c0,.72,0,1.44-.08,2.15-.18,2.19-.38,4.37-.58,6.56a1.31,1.31,0,0,0,.7,1.39,17,17,0,0,0,1.69.75c.54.2,1.1.33,1.65.5a12.48,12.48,0,0,0-.15,3.45,1.68,1.68,0,0,0,1.88,1.78,3.64,3.64,0,0,0,.81-.06,10.22,10.22,0,0,1,2.87-.06c1.11.07,2.22.1,3.34.1a6.88,6.88,0,0,0,1.48-.22,1.51,1.51,0,0,0,.61-.3.79.79,0,0,0,0-1.31,5.39,5.39,0,0,0-1.31-.72c-.83-.31-1.68-.55-2.53-.82a2.4,2.4,0,0,1-1.57-1.11l1.27,0c1.15,0,2.31,0,3.47,0a7.27,7.27,0,0,0,2.7-.58,1.33,1.33,0,0,0,.86-1.16c.2-1.87.47-3.73.62-5.6s.21-4,.31-6c0-.2.06-.4.09-.6a14.87,14.87,0,0,0,2.41-.07,10.21,10.21,0,0,1,1.83-.17,7.1,7.1,0,0,0,1.6-.06,7.58,7.58,0,0,1,1.83-.18,2.25,2.25,0,0,0,.69,0A8.15,8.15,0,0,1,93,192c.46,0,.92,0,1.38-.08s.91-.14,1.36-.15a13.52,13.52,0,0,0,2.3-.06,15.76,15.76,0,0,1,3-.19,5.65,5.65,0,0,0,1.37-.07,6.25,6.25,0,0,1,1.71-.17H106c0,.39.08.79.09,1.19,0,1.76,0,3.52.08,5.29a14.89,14.89,0,0,0,.22,2.5A9.74,9.74,0,0,0,111,207a7.72,7.72,0,0,0,4.2,1.13l9.95-.2,13.42-.24,12.95-.24c3.59-.08,7.17-.07,10.76-.22,4.2-.19,8.4-.19,12.61-.26l12.72-.24,14.81-.26c.16.78.33,1.55.48,2.33.31,1.64.59,3.29.91,4.93a5.48,5.48,0,0,0,1.55,2.87c.22.22.43.45.64.68A2.69,2.69,0,0,1,204,219c-.93.26-1.84.58-2.74.92a3.89,3.89,0,0,0-1.09.65.74.74,0,0,0,0,1.22,1.52,1.52,0,0,0,.61.33,5.74,5.74,0,0,0,1.24.21c1,0,2,0,3,0a16.49,16.49,0,0,1,3.91,0,2.36,2.36,0,0,0,.46,0,1.62,1.62,0,0,0,1.81-1.71c0-.88,0-1.76,0-2.63l.29-.19a4.84,4.84,0,0,0,2.71-4.74c0-.71-.09-1.43-.14-2.14l-.27-4.65c.46,0,.92-.05,1.38-.06l4.13-.08c.14.37.32.72.43,1.1.64,2.26,1.3,4.52,1.89,6.8a8.43,8.43,0,0,0,2.2,4,2.33,2.33,0,0,1-1.44.91c-.92.3-1.84.59-2.74.93a3.85,3.85,0,0,0-1.1.62.76.76,0,0,0,0,1.31,1.33,1.33,0,0,0,.51.27,6.23,6.23,0,0,0,1.36.22c1.34,0,2.69-.06,4-.08.69,0,1.38,0,2.07,0,.46,0,.92.08,1.38.06a1.48,1.48,0,0,0,1.57-1.43,15.61,15.61,0,0,0,.11-1.67,3.1,3.1,0,0,1,.46-.35,4.29,4.29,0,0,0,2.07-2.75,5.94,5.94,0,0,0,.05-2.62c-.25-1.65-.56-3.3-.82-4.95-.14-.87-.22-1.74-.32-2.61a7.56,7.56,0,0,0,2.94-.5,9.66,9.66,0,0,0,6.13-8.41c.16-1.43.15-2.87.2-4.31.05-1.19.08-2.39.12-3.59,1,.28,1.92.52,2.87.82a18.11,18.11,0,0,0,5.75.87c.81,0,1.62,0,2.42,0a.68.68,0,0,0,.62.24,3.48,3.48,0,0,1,1,.07,5.1,5.1,0,0,0,1.6.17,7.57,7.57,0,0,1,1.72.05,10.42,10.42,0,0,0,2.29.19,8.65,8.65,0,0,1,2.63.21,2.26,2.26,0,0,0,.69,0h2.77c.17,1.06.35,2.12.53,3.18a5.6,5.6,0,0,0,1.82,3.36,13.86,13.86,0,0,0,1.44,1l-.15.45a2.57,2.57,0,0,1-2,1.81,14,14,0,0,0-1.45.38,13.19,13.19,0,0,0-1.82.76.74.74,0,0,0,0,1.34,4.19,4.19,0,0,0,1.41.47,14.24,14.24,0,0,0,1.85.07,27.46,27.46,0,0,1,4.62.15,1.61,1.61,0,0,0,2-1.64,19.54,19.54,0,0,0-.14-3.59,2,2,0,0,1,.4-.41,4.75,4.75,0,0,0,2.24-4.41c0-.64,0-1.28,0-1.92a10.53,10.53,0,0,1,3,.24c.16.82.31,1.65.47,2.47a5.32,5.32,0,0,0,3.26,4.17,3.27,3.27,0,0,0-.14.33,2.48,2.48,0,0,1-2.06,2,19.89,19.89,0,0,0-2.2.68,4.53,4.53,0,0,0-1.05.48.76.76,0,0,0-.06,1.3,2.38,2.38,0,0,0,.94.39,13.76,13.76,0,0,0,3.79.15,15,15,0,0,1,2.76.09,5.15,5.15,0,0,0,1,0,1.35,1.35,0,0,0,1.34-1.24,4.09,4.09,0,0,0,.07-.6,15.43,15.43,0,0,0-.18-3.46c.1-.06.19-.14.28-.2A4.85,4.85,0,0,0,289.2,195C289.19,194.66,289.21,194.3,289.22,194Z" transform="translate(-11.67 -9.48)"/><path class="b" d="M202.37,206.49l-14.81.26-12.72.24c-4.21.07-8.41.07-12.61.26-3.59.15-7.17.14-10.76.22l-12.95.24L125.1,208l-9.95.2A7.72,7.72,0,0,1,111,207a9.74,9.74,0,0,1-4.6-6.74,14.89,14.89,0,0,1-.22-2.5c0-1.77,0-3.53-.08-5.29,0-.4-.06-.8-.09-1.19,0-1.36-.07-2.71-.1-4.07,0-.48,0-1,0-1.44-.06-3.39-.14-6.79-.2-10.19-.08-3.8-.14-7.6-.21-11.39q-.15-7.92-.29-15.83c0-.44,0-.88-.06-1.32s0-1,0-1.44,0-.8,0-1.2c-.05-1.83-.11-3.67-.14-5.5q-.15-7.26-.26-14.5c0-2,0-4-.08-6,0-.4,0-.79-.08-1.19s.06-.95,0-1.42c0-1.1-.09-2.21-.13-3.32,0-1.3-.06-2.6-.08-3.91,0-.24,0-.48,0-.72,0-1.83-.11-3.67-.14-5.51-.09-4.23-.16-8.47-.24-12.7q-.14-8-.28-15.94c0-.24,0-.48,0-.72,0-2.08-.07-4.17-.1-6.26,0-.47,0-.95-.05-1.42,0-.76,0-1.52,0-2.28l-.33-20.17q-.1-6.25-.23-12.49c0-.88-.09-1.76-.09-2.64a10.45,10.45,0,0,1,2.42-6.95,8.42,8.42,0,0,1,5.89-3.17c.27,0,.54-.06.81-.07,2.85-.12,5.69-.25,8.54-.36l12.59-.5c1.85-.07,3.7-.14,5.54-.23l3.81-.21c.23,0,.47,0,.7,0-.08.26-.17.53-.23.8a27.32,27.32,0,0,0-.56,2.69c-.22,1.78-.32,3.57-.57,5.35a5.87,5.87,0,0,0,.12,2c.06.27.14.54.2.81l-12,.55-5.78.23L117,29a3.66,3.66,0,0,0-3.53,3.57c0,.36,0,.72,0,1.08q.09,12.51.17,25l.27,39.31q.09,14.53.18,29.08.1,18.15.23,36.3.06,12,.14,23.92a10.93,10.93,0,0,0,.2,2.14,8.1,8.1,0,0,0,8.18,6.83c3.93-.15,7.87-.17,11.8-.25l13.3-.24,13.08-.24,13.19-.25,10.06-.23,16.08-.31a1.3,1.3,0,0,1,.16.31c.1.7.17,1.42.29,2.12.46,2.73.94,5.46,1.42,8.2C202.28,205.71,202.32,206.1,202.37,206.49Z" transform="translate(-11.67 -9.48)"/><path class="b" d="M67.36,206c-.55-.17-1.11-.3-1.65-.5a17,17,0,0,1-1.69-.75,1.31,1.31,0,0,1-.7-1.39c.2-2.19.4-4.37.58-6.56.05-.71.05-1.43.08-2.15a1.87,1.87,0,0,0,.14-.44c.18-2.2.34-4.39.52-6.59.12-1.47.25-2.95.37-4.42s.2-2.71.3-4.07a3.44,3.44,0,0,0-.43,1.08q-1.29,5.29-2.55,10.6c-.3,1.28-.57,2.57-.86,3.85q-.72,2.9-1.43,5.8c-.35,1.43-.69,2.86-1,4.31a2,2,0,0,1-1.2,1.49,10.55,10.55,0,0,1-2.33.62c-.27.06-.53.08-.8.12a5.34,5.34,0,0,0-.8,0,17.88,17.88,0,0,1-4.2,0,6.94,6.94,0,0,0-.79,0l-2.16-.33a6.13,6.13,0,0,1-2.15-.79,1.13,1.13,0,0,1-.63-1.47c.44-2.3.9-4.59,1.34-6.89,0-.16,0-.31,0-.47.41-2,.82-4,1.22-6q1.45-7.4,2.9-14.81c.48-2.43,1-4.86,1.45-7.29.07-.39.1-.79.15-1.19s.26-.83.34-1.26c.56-2.81,1.09-5.62,1.65-8.43.6-3.09,1.22-6.17,1.82-9.25.36-1.88.7-3.76,1.05-5.63a2.87,2.87,0,0,1,1.71-1.14c1.81-.42,3.59-.94,5.41-1.28,2.61-.49,5.24-.9,7.87-1.28a62.58,62.58,0,0,1,7.36-.72,19.25,19.25,0,0,1,5.51.42c0,1-.1,2-.14,3-.08,2.68,0,5.35-.2,8-.18,2.38,0,4.78-.25,7.18-.15,1.9-.06,3.82-.21,5.74s-.11,4.15-.24,6.22c-.15,2.27-.12,4.55-.17,6.82,0,.23-.07.47-.08.71-.09,3.62-.17,7.23-.27,10.85,0,1.43-.11,2.86-.16,4.29a5.52,5.52,0,0,0,0,.71c0,.2-.08.4-.09.6-.1,2-.15,4-.31,6s-.42,3.73-.62,5.6a1.33,1.33,0,0,1-.86,1.16,7.27,7.27,0,0,1-2.7.58c-1.16,0-2.32,0-3.47,0l-1.27,0a51.56,51.56,0,0,1-5.11-.75A1.4,1.4,0,0,0,67.36,206Zm-1.87-27.76a8.45,8.45,0,0,0,.28-.85q2-9.43,4-18.87c.2-.94.36-1.89.65-2.8a11.67,11.67,0,0,1,4.2-6c.2-.15.39-.34.66-.57-.22-.07-.35-.15-.41-.12a8.66,8.66,0,0,0-1.06.73,12.35,12.35,0,0,0-4.13,7c-.13.67-.28,1.33-.43,2l-3.42,16.06c-.21,1-.41,1.95-.61,2.93C65.18,178,65.14,178.17,65.49,178.26Z" transform="translate(-11.67 -9.48)"/><path class="b" d="M289.22,194c0,.35,0,.71,0,1.07a4.85,4.85,0,0,1-2.41,4.55c-.09.06-.18.14-.28.2a9,9,0,0,1-4.25-.15,5.32,5.32,0,0,1-3.26-4.17c-.16-.82-.31-1.65-.47-2.47,0-.35,0-.71-.07-1.07q-.66-4.42-1.33-8.85c-.22-1.41-.46-2.82-.7-4.24,0-.39,0-.79-.08-1.19-.35-2.57-.72-5.14-1.08-7.72l-.75-5.44a11.76,11.76,0,0,0-.09,2.13q.13,4,.31,8c.06,1.31.15,2.63.23,4,0,.75,0,1.5.07,2.25q.16,4.95.35,9.89c0,.67.12,1.34.18,2s0,1.28,0,1.92a4.75,4.75,0,0,1-2.24,4.41,2,2,0,0,0-.4.41,18.77,18.77,0,0,1-4.3-.2,13.86,13.86,0,0,1-1.44-1,5.6,5.6,0,0,1-1.82-3.36c-.18-1.06-.36-2.12-.53-3.18-.41-2.78-.81-5.56-1.22-8.35-.09-.58-.22-1.16-.33-1.74a7.87,7.87,0,0,0,0-.84c-.26-1.81-.53-3.63-.79-5.45s-.53-3.72-.78-5.58q-.42-3.09-.83-6.18t-.79-6.06c-.25-2.06-.49-4.12-.74-6.18-.05-.33-.09-.66-.14-1-.08-1.07-.17-2.13-.25-3.2-.19-2.93-.38-5.85-.58-8.78a18.62,18.62,0,0,1,4.67-.72,57.69,57.69,0,0,1,9,.16c1.49.19,3,.35,4.47.49a66.72,66.72,0,0,1,6.59,1.14c1.36.28,2.71.59,4.07.88,0,.68,0,1.36,0,2q.12,4.42.26,8.87c0,.16,0,.32,0,.48.12,2.67.25,5.34.37,8,.07,1.55.14,3.11.2,4.67q.15,3.83.28,7.67c.1,2.51.19,5,.28,7.54,0,.2.07.39.1.59,0,.55,0,1.11,0,1.66.1,2.94.2,5.87.32,8.81C289.05,191.81,289.15,192.88,289.22,194Zm-20.35-48.37c-.22-.26-.4-.58-.87-.62,0,.17,0,.36.07.41a5.64,5.64,0,0,0,.71.31c.08.44.43.65.68.95a20.73,20.73,0,0,1,1.65,2,22.14,22.14,0,0,1,1.16,2.34c.39,2.31.81,4.62,1.16,6.93.22,1.42.34,2.84.53,4.26,0,.17.08.4.41.31a7.36,7.36,0,0,0,0-1.05c-.2-1.37-.48-2.74-.63-4.12-.17-1.59-.5-3.14-.72-4.71a10.24,10.24,0,0,0-2.28-5.28A5,5,0,0,0,268.87,145.58Z" transform="translate(-11.67 -9.48)"/><path class="b" d="M244.72,51.14c-.07,2-.16,4.07-.23,6.11-.13,3.64-.25,7.28-.38,10.92,0,.16,0,.32,0,.48q-.16,6.06-.32,12.12-.24,7.86-.49,15.72c-.07,2.32-.13,4.64-.21,7,0,.72-.09,1.44-.11,2.16s0,1.19,0,1.79c0,.3-.07.6-.11.9a15.54,15.54,0,0,1-2.68-1.4,1.78,1.78,0,0,1-.83-1.09c-.44-1.45-.92-2.89-1.39-4.33q-.25-.74-.57-1.44c-.11-.25-.23-.55-.55-.54s-.45.41-.52.69c-.11.43-.13.87-.21,1.3a3.85,3.85,0,0,1-.23.61L234.73,101q.14-3.42.26-6.84.24-7.74.47-15.49c.15-4.84.31-9.68.45-14.52q.28-9.66.55-19.33c0-.68,0-1.36.07-2,.11-3.68.25-7.36.34-11a9.12,9.12,0,0,0-.24-2.14A6.79,6.79,0,0,0,230,24.18c-.93.05-1.85,0-2.78.09-2.27.11-4.54.27-6.81.36-3.12.14-6.24.23-9.36.33l-.57,0-7.39.31c.11-.46.24-.92.32-1.39a4.7,4.7,0,0,0,.11-1.29c-.08-1.07-.3-2.13-.33-3.2a13.46,13.46,0,0,0-1.38-5.62l3.81-.19,7.38-.38.46,0c3.12-.11,6.24-.21,9.36-.34q5.43-.21,10.86-.45c.92,0,1.85-.13,2.77-.12a8.45,8.45,0,0,1,6.48,2.93,10.1,10.1,0,0,1,2.63,7.22c-.13,5.2-.33,10.4-.48,15.6q-.18,6.3-.34,12.61C244.7,50.82,244.72,51,244.72,51.14Z" transform="translate(-11.67 -9.48)"/><path class="a" d="M201.77,13.8a13.46,13.46,0,0,1,1.38,5.62c0,1.07.25,2.13.33,3.2a4.7,4.7,0,0,1-.11,1.29c-.08.47-.21.93-.32,1.39s-.46.65-.72.94a4.05,4.05,0,0,1-3,1.57L192.4,28c-.84,0-1.69,0-2.54.07l-8,.38c-2,.08-3.92.14-5.88.2l-8.78.28-5.77.2-10.27.34c-1.92.07-3.85.13-5.77.22a3.33,3.33,0,0,1-2.58-1.13c-.21-.22-.42-.46-.64-.68-.06-.27-.14-.54-.2-.81a5.87,5.87,0,0,1-.12-2c.25-1.78.35-3.57.57-5.35a27.32,27.32,0,0,1,.56-2.69c.06-.27.15-.54.23-.8s.4-.68.61-1a9,9,0,0,1,5.81-4.39,18.91,18.91,0,0,1,3.1-.28c1-.05,2.08,0,3.12-.06L167,10.2,175.3,10l9.94-.25,9.24-.24a7.43,7.43,0,0,1,4.57,1.41,10.42,10.42,0,0,1,2.31,2.33Z" transform="translate(-11.67 -9.48)"/><path class="c" d="M298.91,141.78c.06,1,.13,2,.18,3a11.45,11.45,0,0,1,0,1.31c0,.63-.1,1.26-.16,1.89s-.15,1.5-.22,2.25l-.07.41c-.06.1-.13.2-.18.3-.16.33-.34.71-.73.63s-.42-.59-.45-1a9.29,9.29,0,0,0-.1-1.56,5,5,0,0,0-.31.54c-.21.55-.4,1.11-.63,1.65-.14.33-.32.66-.73.66s-.49-.33-.51-.95,0-1.41,0-2.19c-.53.52-.39,1.17-.59,1.71s-.37,1.13-.56,1.7l-.69.55a.68.68,0,0,1-.46-.48,5.65,5.65,0,0,1-.22-1.78,2.57,2.57,0,0,0,0-.48c0-.16.09-.37-.17-.49-.23.57-.44,1.12-.68,1.65a.49.49,0,0,1-.37.22.42.42,0,0,1-.33-.26,6.54,6.54,0,0,1-.31-1.51c-.05-1,0-2,0-3v-1l-.71.27c-.39.17-.77.38-1.17.51a.49.49,0,0,1-.59-.63,4.13,4.13,0,0,1,.55-1c1.13-1.47,2.12-3,3.14-4.6a1.81,1.81,0,0,0,.31-1.57,4.93,4.93,0,0,1-.11-.94c-.1-1.24-.16-2.48-.3-3.71-.18-1.62-.4-3.24-.65-4.85s-.49-3-.75-4.48a43.37,43.37,0,0,0-1.5-6.87c-.13-.5-.23-1-.39-1.49-.41-1.32-.85-2.63-1.27-3.95a24.57,24.57,0,0,0-1.65-4.05,4.25,4.25,0,0,1,2.58-4.13,4,4,0,0,1,3.36,0c.42.93.83,1.86,1.24,2.79.06.14.15.27.22.4l1,2.83a70.53,70.53,0,0,1,3,12.17c.26,1.62.58,3.22.71,4.86a9.93,9.93,0,0,0,.21,1.06c.1,1.15.18,2.3.28,3.45.12,1.35.28,2.7.37,4.05.12,1.75.2,3.51.3,5.26A1.4,1.4,0,0,0,298.91,141.78Z" transform="translate(-11.67 -9.48)"/><path class="c" d="M234.73,101l1.16,1.15a3.85,3.85,0,0,0,.23-.61c.08-.43.1-.87.21-1.3.07-.28.12-.68.52-.69s.44.29.55.54q.32.7.57,1.44c.47,1.44.95,2.88,1.39,4.33a1.78,1.78,0,0,0,.83,1.09,15.54,15.54,0,0,0,2.68,1.4,22.66,22.66,0,0,0,2.6.87,12.81,12.81,0,0,0,5.65,0,5,5,0,0,0,1.89-.84,17.16,17.16,0,0,0,3.89-3.72,9.83,9.83,0,0,1,1.07-1.07c.15.1.35.16.44.3a8.31,8.31,0,0,0,2.06,2.12l0,.45c-.34,1.42-.75,2.82-1,4.27-.18,1-.37,2.1-.51,3.15s-.25,1.81-.37,2.71a2.71,2.71,0,0,0-.77.17,16.37,16.37,0,0,1-2.58,1c-.35.13-.7.3-1,.45a3.34,3.34,0,0,0-1.62.26h-3.12a14.33,14.33,0,0,1-4.3-.7l-2.54-.76c-.26-.15-.52-.32-.79-.46-.52-.27-1-.5-1.56-.78a28.73,28.73,0,0,1-4.71-3.2,1.9,1.9,0,0,0-1.2-.66,2.62,2.62,0,0,0-.43-.39,25,25,0,0,1-4.76-3.36,11.93,11.93,0,0,1-1.31-1.35,3.09,3.09,0,0,1-.5-.93.46.46,0,0,1,.56-.63,7,7,0,0,1,1,.51c.13.07.25.21.45,0-.1-.18-.22-.37-.33-.57-.22-.42-.44-.83-.64-1.26s-.26-.61,0-.89.51,0,.75.06.48.25.73.35a2,2,0,0,0,.52,0c-.32-.48-.57-.83-.79-1.2a11.54,11.54,0,0,1-.63-1.27.53.53,0,0,1,.33-.7,2.42,2.42,0,0,1,1.25.5c.34.24.73.43,1.09.64l.26.21c0,.07,0,.24.17.08l-.16-.09-.18-.29c-.15-.31-.3-.63-.46-.95a5,5,0,0,1-.25-.52c-.12-.35.14-.69.46-.57a8.26,8.26,0,0,1,1.36.6C233.57,100.21,234.15,100.59,234.73,101Zm-3.87,2.84c0-.06,0-.25-.16-.07l.18.06a.17.17,0,0,0,0,.1l.07,0Z" transform="translate(-11.67 -9.48)"/><path class="d" d="M47.1,111.45l-.74-.71c-.08-.13-.15-.28-.24-.4a6.16,6.16,0,0,1-1.07-4.54,11.15,11.15,0,0,1,.65-2.41A5,5,0,0,1,50.54,100c.53,0,1.07,0,1.61-.06l2.18.08a1.58,1.58,0,0,0,1.54-1,5.8,5.8,0,0,0,.37-1A1.75,1.75,0,0,1,58,96.55a16.67,16.67,0,0,1,1.73,0c2.24.18,3.11-.69,3.72-2.42l.09-.23c.37-.77.86-1,1.59-.55a1.67,1.67,0,0,1,.9,1.67,10.1,10.1,0,0,0,.48,3.18,2,2,0,0,1-1.53,1,14.52,14.52,0,0,0-3.89.38,21.06,21.06,0,0,0-6.07,2.6,25.4,25.4,0,0,0-2.24,1.66c-.74.42-.75.45-.47,1.22,0,.08.07.14.1.21-.27.28-.54.56-.82.83a29.78,29.78,0,0,0-4,4.72C47.46,111.05,47.27,111.24,47.1,111.45Z" transform="translate(-11.67 -9.48)"/><path class="e" d="M276.21,79.82a3.08,3.08,0,0,0,1.87,1.07A5.4,5.4,0,0,1,281,82.75a3.85,3.85,0,0,1,.45,4.54c-.13.24-.3.46-.45.69-.24-.12-.48-.25-.72-.36a8.15,8.15,0,0,0-4.3-1.11,3,3,0,0,1-.45-.69,2.37,2.37,0,0,0-1.89-1.56c-.79-.17-1.56-.41-2.42-.64l-.85,1.18c.07-.59.14-1.18.21-1.74-.25-.32-.47-.59-.68-.88a3.09,3.09,0,0,1-.61-2,1.38,1.38,0,0,1,1.81-1.4,3.89,3.89,0,0,1,.72.3,5.71,5.71,0,0,0,1.16-.45,1.62,1.62,0,0,1,1.93.11A13.88,13.88,0,0,1,276.21,79.82Zm-3.76-.62,0-.15a4.67,4.67,0,0,0-.5-.14s-.13.08-.13.14a.22.22,0,0,0,.1.17A4.35,4.35,0,0,0,272.45,79.2Z" transform="translate(-11.67 -9.48)"/><path class="c" d="M270.32,84.8l.85-1.18c.86.23,1.63.47,2.42.64a2.37,2.37,0,0,1,1.89,1.56,3,3,0,0,0,.45.69c-.13.7-.21,1.41-.38,2.1-.23,1-.63,1.29-1.55,1.15a12.23,12.23,0,0,1-3.86-1,1.85,1.85,0,0,0-.54-.08,11.05,11.05,0,0,0,.17-2.44C270,85.74,270.13,85.27,270.32,84.8ZM273.78,87a5.38,5.38,0,0,0,.89.82C274.54,87,274.51,87,273.78,87Zm-2.73-.38a3.39,3.39,0,0,0-.27.58.32.32,0,0,0,.37.33.37.37,0,0,0,.22-.48C271.34,87,271.21,86.86,271.05,86.65Zm.5-.31c0-.46-.23-.54-.49-.54-.1,0-.19.14-.4.31ZM274,88.13c-.13-.12-.2-.24-.28-.24a.29.29,0,0,0-.32.36c0,.1.16.19.25.28Z" transform="translate(-11.67 -9.48)"/><path class="b" d="M202.37,206.49c-.05-.39-.09-.78-.15-1.17-.48-2.74-1-5.47-1.42-8.2-.12-.7-.19-1.42-.29-2.12a1.3,1.3,0,0,0-.16-.31c-.21-1.38-.41-2.76-.63-4.14-.57-3.58-1.16-7.16-1.71-10.74q-.67-4.38-1.3-8.76c-.22-1.58-.39-3.16-.58-4.74.57,0,1.15,0,1.72-.07.39,0,.54-.21.58-.61q0-.3,0-.6c-.05-.63-.14-1.27-.17-1.9-.08-2.35,0-4.7-.21-7-.17-2.07-.12-4.15-.16-6.22l1.65,0,9.16,5c.61.34,1.2.7,1.8,1.06,0,.44,0,.88,0,1.32.07,1.43.14,2.86.22,4.3s.16,2.86.27,4.29a13.12,13.12,0,0,0,.27,1.39,8.44,8.44,0,0,0,.83.26c1.36.25,2.71.51,4.08.72a23,23,0,0,0,2.75.25c2,0,3.92,0,5.89,0,.35,2.25.7,4.49,1.06,6.74Q227,182,228.12,188.8c.21,1.26.44,2.51.67,3.77l.66,4.12c.41,2.59.8,5.18,1.23,7.77.08.51.24,1,.37,1.49.1.87.18,1.74.32,2.61.26,1.65.57,3.3.82,4.95a5.94,5.94,0,0,1-.05,2.62,4.29,4.29,0,0,1-2.07,2.75,3.1,3.1,0,0,0-.46.35l-2.39,0a5.22,5.22,0,0,1-2.81-.84c-.19-.12-.4-.21-.6-.32a8.43,8.43,0,0,1-2.2-4c-.59-2.28-1.25-4.54-1.89-6.8-.11-.38-.29-.73-.43-1.1a4,4,0,0,0-.06-.7c-.19-.73-.42-1.44-.62-2.17-.49-1.74-1-3.5-1.45-5.24-.35-1.21-.75-2.41-1.12-3.62a3.55,3.55,0,0,0-.06-.47l-3.51-12.45c-.06-.22-.16-.43-.29-.77,0,.65,0,1.15,0,1.65,0,.72.11,1.44.16,2.16.19,3,.37,6,.56,9,0,.32.09.64.14.95a11,11,0,0,0,0,2.15c.33,1.58,0,3.2.4,4.76-.07,1.65.22,3.26.29,4.9l.27,4.65c0,.71.13,1.43.14,2.14a4.84,4.84,0,0,1-2.71,4.74l-.29.19h-2.28a5.21,5.21,0,0,1-2.42-.53,4.88,4.88,0,0,0-.54-.18c-.21-.23-.42-.46-.64-.68a5.48,5.48,0,0,1-1.55-2.87c-.32-1.64-.6-3.29-.91-4.93C202.7,208,202.53,207.27,202.37,206.49Zm9.68-26.5c.4-.39.22-.65.14-.9-1.19-4-2.4-8-3.58-12a13.06,13.06,0,0,0-2.86-5.15,7.63,7.63,0,0,0-2.06-1.73,1.23,1.23,0,0,0-.39-.06c-.09.42.2.48.36.6a11.76,11.76,0,0,1,2.5,2.48,14.31,14.31,0,0,1,2.22,4.72q1.63,5.57,3.28,11.12C211.75,179.33,211.89,179.6,212.05,180Z" transform="translate(-11.67 -9.48)"/><path class="b" d="M240.92,172.77c0,1.63-.08,3.27-.13,4.9-.09,3-.17,6-.26,9,0,.83-.06,1.67-.09,2.5,0,1.2-.07,2.4-.12,3.59,0,1.44,0,2.88-.2,4.31a9.66,9.66,0,0,1-6.13,8.41,7.56,7.56,0,0,1-2.94.5c-.13-.5-.29-1-.37-1.49-.43-2.59-.82-5.18-1.23-7.77l-.66-4.12a4.2,4.2,0,0,0,1.43-1.35,9.68,9.68,0,0,0,2-5.88c.1-3.47.19-6.94.3-10.41q.1-3.36.23-6.7l1.54.78,1.35.62c.52.33,1,.68,1.57,1C238.42,171.35,239.67,172.06,240.92,172.77Z" transform="translate(-11.67 -9.48)"/><path class="b" d="M216,194.41c.37,1.21.77,2.41,1.12,3.62.5,1.74,1,3.5,1.45,5.24.2.73.43,1.44.62,2.17a4,4,0,0,1,.06.7l-4.13.08c-.46,0-.92,0-1.38.06-.07-1.64-.36-3.25-.29-4.9-.4-1.56-.07-3.18-.4-4.76a11,11,0,0,1,0-2.15Z" transform="translate(-11.67 -9.48)"/><path class="e" d="M67.36,206a1.4,1.4,0,0,1,.35,0,51.56,51.56,0,0,0,5.11.75,2.4,2.4,0,0,0,1.57,1.11c.85.27,1.7.51,2.53.82a5.39,5.39,0,0,1,1.31.72.79.79,0,0,1,0,1.31,1.51,1.51,0,0,1-.61.3,6.88,6.88,0,0,1-1.48.22c-1.12,0-2.23,0-3.34-.1a10.22,10.22,0,0,0-2.87.06,3.64,3.64,0,0,1-.81.06,1.68,1.68,0,0,1-1.88-1.78A12.48,12.48,0,0,1,67.36,206Z" transform="translate(-11.67 -9.48)"/><path class="e" d="M206,217.3a4.88,4.88,0,0,1,.54.18,5.21,5.21,0,0,0,2.42.53h2.28c0,.87.05,1.75,0,2.63a1.62,1.62,0,0,1-1.81,1.71,2.36,2.36,0,0,1-.46,0,16.49,16.49,0,0,0-3.91,0c-1,.05-2,0-3,0a5.74,5.74,0,0,1-1.24-.21,1.52,1.52,0,0,1-.61-.33.74.74,0,0,1,0-1.22,3.89,3.89,0,0,1,1.09-.65c.9-.34,1.81-.66,2.74-.92A2.69,2.69,0,0,0,206,217.3Z" transform="translate(-11.67 -9.48)"/><path class="e" d="M48.92,207a6.94,6.94,0,0,1,.79,0,17.88,17.88,0,0,0,4.2,0,5.34,5.34,0,0,1,.8,0,2.11,2.11,0,0,0,1.36.83c.87.3,1.77.55,2.64.87a4.47,4.47,0,0,1,1.2.68.78.78,0,0,1,0,1.31,1.65,1.65,0,0,1-.62.31,8.77,8.77,0,0,1-1.6.21c-1.12,0-2.24,0-3.35-.11a9.8,9.8,0,0,0-2.65.06,4.75,4.75,0,0,1-.92.07,1.63,1.63,0,0,1-1.83-1.71C48.84,208.71,48.91,207.86,48.92,207Z" transform="translate(-11.67 -9.48)"/><path class="e" d="M282.26,199.62a9,9,0,0,0,4.25.15,15.43,15.43,0,0,1,.18,3.46,4.09,4.09,0,0,1-.07.6,1.35,1.35,0,0,1-1.34,1.24,5.15,5.15,0,0,1-1,0,15,15,0,0,0-2.76-.09,13.76,13.76,0,0,1-3.79-.15,2.38,2.38,0,0,1-.94-.39.76.76,0,0,1,.06-1.3,4.53,4.53,0,0,1,1.05-.48,19.89,19.89,0,0,1,2.2-.68,2.48,2.48,0,0,0,2.06-2A3.27,3.27,0,0,1,282.26,199.62Z" transform="translate(-11.67 -9.48)"/><path class="e" d="M268.62,199.28a18.77,18.77,0,0,0,4.3.2,19.54,19.54,0,0,1,.14,3.59,1.61,1.61,0,0,1-2,1.64,27.46,27.46,0,0,0-4.62-.15,14.24,14.24,0,0,1-1.85-.07,4.19,4.19,0,0,1-1.41-.47.74.74,0,0,1,0-1.34,13.19,13.19,0,0,1,1.82-.76,14,14,0,0,1,1.45-.38,2.57,2.57,0,0,0,2-1.81Z" transform="translate(-11.67 -9.48)"/><path class="e" d="M223.81,218.05c.2.11.41.2.6.32a5.22,5.22,0,0,0,2.81.84l2.39,0a15.61,15.61,0,0,1-.11,1.67,1.48,1.48,0,0,1-1.57,1.43c-.46,0-.92-.05-1.38-.06-.69,0-1.38-.05-2.07,0-1.35,0-2.7.08-4,.08a6.23,6.23,0,0,1-1.36-.22,1.33,1.33,0,0,1-.51-.27.76.76,0,0,1,0-1.31,3.85,3.85,0,0,1,1.1-.62c.9-.34,1.82-.63,2.74-.93A2.33,2.33,0,0,0,223.81,218.05Z" transform="translate(-11.67 -9.48)"/><path class="f" d="M275.57,192.74c-.06-.67-.15-1.34-.18-2q-.18-4.93-.35-9.89c0-.75-.05-1.5-.07-2.25l1.46.23c.24,1.42.48,2.83.7,4.24q.67,4.42,1.33,8.85c.05.36.05.72.07,1.07A10.53,10.53,0,0,0,275.57,192.74Z" transform="translate(-11.67 -9.48)"/><path class="f" d="M61.47,194.68c.29-1.28.56-2.57.86-3.85q1.26-5.29,2.55-10.6a3.44,3.44,0,0,1,.43-1.08c-.1,1.36-.19,2.71-.3,4.07s-.25,2.95-.37,4.42c-.18,2.2-.34,4.39-.52,6.59a1.87,1.87,0,0,1-.14.44Z" transform="translate(-11.67 -9.48)"/><path class="g" d="M196.13,166.31c.19,1.58.36,3.16.58,4.74q.63,4.38,1.3,8.76c.55,3.58,1.14,7.16,1.71,10.74.22,1.38.42,2.76.63,4.14l-16.08.31-10.06.23-13.19.25-13.08.24-13.3.24c-3.93.08-7.87.1-11.8.25a8.1,8.1,0,0,1-8.18-6.83,10.93,10.93,0,0,1-.2-2.14q-.09-12-.14-23.92-.12-18.15-.23-36.3-.11-14.53-.18-29.08l-.27-39.31q-.08-12.5-.17-25c0-.36,0-.72,0-1.08A3.66,3.66,0,0,1,117,29l7.4-.28,5.78-.23,12-.55c.22.22.43.46.64.68a3.33,3.33,0,0,0,2.58,1.13c1.92-.09,3.85-.15,5.77-.22l10.27-.34,5.77-.2,8.78-.28c2-.06,3.92-.12,5.88-.2l8-.38c.85,0,1.7,0,2.54-.07l6.93-.23a4.05,4.05,0,0,0,3-1.57c.26-.29.48-.62.72-.94l7.39-.31.57,0c3.12-.1,6.24-.19,9.36-.33,2.27-.09,4.54-.25,6.81-.36.93-.05,1.85,0,2.78-.09a6.79,6.79,0,0,1,6.67,5.37,9.12,9.12,0,0,1,.24,2.14c-.09,3.68-.23,7.36-.34,11,0,.68-.05,1.36-.07,2q-.27,9.66-.55,19.33c-.14,4.84-.3,9.68-.45,14.52q-.24,7.74-.47,15.49-.12,3.42-.26,6.84c-.58-.36-1.16-.74-1.77-1.07a8.26,8.26,0,0,0-1.36-.6c-.32-.12-.58.22-.46.57a5,5,0,0,0,.25.52c.16.32.31.64.46.95l-.09.09c-.36-.21-.75-.4-1.09-.64a2.42,2.42,0,0,0-1.25-.5.53.53,0,0,0-.33.7,11.54,11.54,0,0,0,.63,1.27c.22.37.47.72.79,1.2a2,2,0,0,1-.52,0c-.25-.1-.48-.25-.73-.35s-.49-.3-.75-.06-.16.6,0,.89.42.84.64,1.26c.11.2.23.39.33.57-.2.22-.32.08-.45,0a7,7,0,0,0-1-.51.46.46,0,0,0-.56.63,3.09,3.09,0,0,0,.5.93,11.93,11.93,0,0,0,1.31,1.35,25,25,0,0,0,4.76,3.36,2.62,2.62,0,0,1,.43.39c-.08,2.56-.17,5.11-.25,7.67l-.21,6.72q-.24,8.08-.49,16.19-.15,4.43-.31,8.87c-.11,0-.26.05-.33,0a8.63,8.63,0,0,0-2-1c-.87-.39-1.74-.81-2.61-1.22a10,10,0,0,0,0-1.55c-.23-1.54-.22-3.09-.37-4.63s-.19-3-.28-4.53c0,0,0-.08,0-.12-.3-1.68-.24-3.4-.41-5.1a15.15,15.15,0,0,0-.32-2.6l0-.62c.05-.32.09-.63.14-.95.11-.75.28-1.49.33-2.24a21.07,21.07,0,0,0-.72-7.12,12,12,0,0,0-1.68-3.92,11.25,11.25,0,0,0-1.82-1.83,10.63,10.63,0,0,0-2.25-1.44,23.19,23.19,0,0,0-5.48-1.81,10.56,10.56,0,0,0-1.26-.14l-1.1-.19c-.54-.2-1.12-.35-1.37-1a1.78,1.78,0,0,0,1.28-.46,2.47,2.47,0,0,1,2.06-.57l.69.05a1.8,1.8,0,0,0,1.93-1.38,3.81,3.81,0,0,0,.14-2,5.07,5.07,0,0,0-1-2.29,8.36,8.36,0,0,1-1.21-2.45c-.19-.52-.31-1.07-.53-1.58a20,20,0,0,0-1.05-2.13,4.57,4.57,0,0,0-2.64-2,8.63,8.63,0,0,0-5.25,0,3.48,3.48,0,0,0-2.69,3.71c0,.4.05.8.07,1.2l-.28.47c-.06.1-.13.19-.19.28-.28,0-.37.24-.44.47a4.77,4.77,0,0,0,.22,3.67,1.58,1.58,0,0,1,0,1.65l-.23.49a.78.78,0,0,0,0,1c.1.24.11.54.41.65a1.51,1.51,0,0,0,2,.48,1.64,1.64,0,0,1,1.65.15,3,3,0,0,0,2,.39,1.49,1.49,0,0,1-1.18,1.54l-.9.18a11.69,11.69,0,0,0-4.73,1.75,5.75,5.75,0,0,0-1.34,1.12c-1.27,1.49-2.49,3-3.74,4.53-.35.42-.72.82-1.07,1.23-.11-.21-.22-.41-.31-.63a1.72,1.72,0,0,0-2-1.29,1.76,1.76,0,0,1-.23,0h-28c-.43,0-.85,0-1.27,0l-4.78-.7-1.93-.29-2.84-.4a3.44,3.44,0,0,0-2.15.11,3.1,3.1,0,0,0-1.82-.18.74.74,0,0,0,.26.9,10.93,10.93,0,0,0,1,.74,2,2,0,0,0,.46,1.31l1.5,1.81c.55.67,1.1,1.33,1.64,2,.93,1.17,1.83,2.35,2.77,3.5a4.3,4.3,0,0,0,1.91,1.49c.12.09.23.2.36.28l9.22,5.11c.74.41,1.5.79,2.26,1.18.51.8,1.39,1.22,2,2a.87.87,0,0,0,.5.28,1.31,1.31,0,0,1,.85.55,1.36,1.36,0,0,0,.64.47,3.05,3.05,0,0,1,.9.5,4.67,4.67,0,0,0,.87.43l1-.43c.87.49,1.75,1,2.62,1.46s1.85,1.1,2.78,1.65l-1.5,0h-23c-.31,0-.61,0-.92,0a1.75,1.75,0,0,0-1.6,1.18,1.54,1.54,0,0,0,1.35,2.18c.39,0,.77,0,1.15.07s.91.15,1.37.16c1.73,0,3.47,0,5.2,0a3.48,3.48,0,0,1,1,.07,4.85,4.85,0,0,0,1.6.17h6.47c.35,0,.69,0,1,.07s.83.14,1.25.15c3.11.12,6.22-.15,9.34.21a43,43,0,0,0,5.08,0,1.39,1.39,0,0,1,.91.52l-.07,2.62-19.76,0c-4.7,0-9.4,0-14.1,0a1.93,1.93,0,0,0-1.62.7,1.31,1.31,0,0,0-.26,1.44,1.73,1.73,0,0,0,1.67,1.24c1,0,2.08,0,3.12,0a2.72,2.72,0,0,1,.91.06,4.6,4.6,0,0,0,1.6.17h7.17c.34,0,.69,0,1,.07a12.75,12.75,0,0,0,1.37.15c2.35,0,4.7,0,7,0a3.22,3.22,0,0,1,1,.07,5.1,5.1,0,0,0,1.6.16c3.07.1,6.15-.22,9.22.25,0,2.23.16,4.46.2,6.69,0,1.91.18,3.82.27,5.73,0,.59.19.75.8.77S195.4,166.3,196.13,166.31Zm-48.84-48.84c.09-.13.16-.27.25-.4.9-1.34,1.85-2.65,2.69-4a14.6,14.6,0,0,0,2.06-5.68,5.54,5.54,0,0,0-.59-3.47,2.74,2.74,0,0,0-2.43-1.57,6,6,0,0,0-2.47.47,29.71,29.71,0,0,0-3.43,1.95H138.9l.13-.33a.8.8,0,0,0-.24-1,.78.78,0,0,0-1,0c-.19.12-.37.26-.56.39L135.58,105c-.54,0-1.07,0-1.61,0a12.7,12.7,0,0,0-2.31.05,13.16,13.16,0,0,1-2.17.19,8.48,8.48,0,0,0-1,.15,3.62,3.62,0,0,0-2,1.37,4.43,4.43,0,0,0-1.18,2.91c0,1.84,0,3.67,0,5.51l-.74,1.22a16.05,16.05,0,0,0-1.92,4.21,8.49,8.49,0,0,0,.09,5.41,5.78,5.78,0,0,0,6,4.09,11.46,11.46,0,0,0,4.56-1.21c1.18-.59,2.34-1.21,3.51-1.81a13.77,13.77,0,0,1,2.65.08,18.2,18.2,0,0,0,3.21.18,2.68,2.68,0,0,0,.69,0,5.2,5.2,0,0,0,3.88-5C147.35,120.67,147.29,119.07,147.29,117.47Zm-1.84,19.72a5.24,5.24,0,0,0-.79-.46,12.27,12.27,0,0,0-4-.21,5.67,5.67,0,0,1-2.17.2h-4.16a8.93,8.93,0,0,0-1,.08c-.42,0-.84.13-1.25.15-.7,0-1.39,0-2.09,0a4.61,4.61,0,0,0-4.63,4.75c0,3.88,0,7.77,0,11.65a5.22,5.22,0,0,0,1.41,3.45,5.16,5.16,0,0,0,3.65,1.54c1.14.1,2.29,0,3.44.22s2.13.08,3.21.24,2.37,0,3.55.25a15.38,15.38,0,0,0,2.54,0,1.17,1.17,0,0,0,.46-.05,5,5,0,0,0,3.33-3.22,8.19,8.19,0,0,0,.4-2.47,24.93,24.93,0,0,1,.21-5.25,2.55,2.55,0,0,0,0-.48c0-2.28,0-4.57,0-6.85a3.83,3.83,0,0,0-.57-2c-.11-.21-.26-.4-.39-.6.28-.52.56-1,.83-1.56a1.45,1.45,0,0,0,.19-.55.53.53,0,0,0-.2-.39.58.58,0,0,0-.43,0,1,1,0,0,0-.35.3Zm.32-64.62a1.14,1.14,0,0,1-.33-.08,4,4,0,0,0-2.23-.46c-1.66,0-3.32,0-5,0a2.8,2.8,0,0,0-.92.06,5,5,0,0,1-1.59.17,46.5,46.5,0,0,0-6.57.22,5,5,0,0,0-1.32.39A4.55,4.55,0,0,0,126.51,74a4.44,4.44,0,0,0-1.2,3c0,3.89,0,7.77,0,11.66a5,5,0,0,0,4.8,5,1.77,1.77,0,0,1,.69,0,6.8,6.8,0,0,0,2.29.19,5.25,5.25,0,0,1,1.26.07,4.83,4.83,0,0,0,1.6.17c1.62-.07,3.21.4,4.83.26a.8.8,0,0,1,.34,0,4.18,4.18,0,0,0,3.14-.27,4.43,4.43,0,0,0,1.89-1.49,6,6,0,0,0,1.15-3.81c0-1.16,0-2.32,0-3.48a3.4,3.4,0,0,1,0-1,9.34,9.34,0,0,0,.2-2.74c0-1.6,0-3.2,0-4.8a5.89,5.89,0,0,0-.8-3.32c.28-.52.56-1,.82-1.55a.5.5,0,0,0-.14-.64.43.43,0,0,0-.61.07C146.46,71.84,146.12,72.21,145.77,72.57Zm30.35,4.77H159.35a7.22,7.22,0,0,0-.93,0,1.81,1.81,0,0,0-1.62,1.73,1.83,1.83,0,0,0,1.63,1.85,7.3,7.3,0,0,0,.81,0h6.13c.35,0,.69,0,1,.07a12.57,12.57,0,0,0,1.36.15c2.36,0,4.71,0,7.06,0,.34,0,.69,0,1,.06a12.78,12.78,0,0,0,1.37.16c2.43,0,4.86,0,7.29,0a2.81,2.81,0,0,1,.92,0,6.25,6.25,0,0,0,2.06.19h3.58a5.14,5.14,0,0,1,1.83.17,2.18,2.18,0,0,0,.92,0,1.81,1.81,0,0,0,1.62-1.83,5.77,5.77,0,0,0,0-.72c-.15-1.33-.73-2.07-2.09-2-.23,0-.46,0-.69,0Zm.12,7.45H159.12c-.31,0-.62,0-.92,0a1.86,1.86,0,0,0-1.39,1.81,1.8,1.8,0,0,0,1.65,1.54c1,0,2,0,3,0,.34,0,.69,0,1,.09s.84.13,1.25.13c2.43,0,4.86,0,7.29,0a2.81,2.81,0,0,1,.92,0,7.81,7.81,0,0,0,2.41.19h4.16a8.76,8.76,0,0,1,1,.07c.46,0,.92.15,1.37.15,2.28,0,4.55,0,6.83,0a3.22,3.22,0,0,1,1,.07,4.64,4.64,0,0,0,1.48.16c.73,0,1.47,0,2.2,0,.5,0,1,0,1.5,0a1.47,1.47,0,0,0,1.47-1.53,6.15,6.15,0,0,0,0-1,1.79,1.79,0,0,0-1.85-1.83c-.23,0-.46,0-.69,0ZM176,110.27H159c-.3,0-.61,0-.92,0a1.09,1.09,0,0,0-1,.57,1.78,1.78,0,0,0,.62,2.57,2.28,2.28,0,0,0,1.23.23h5.78a2.82,2.82,0,0,1,.92,0,9.5,9.5,0,0,0,2.76.2h3.93a9,9,0,0,1,1,.09c.42,0,.84.13,1.25.13,2.36,0,4.71,0,7.06,0a3.12,3.12,0,0,1,.92,0,7.52,7.52,0,0,0,2.41.2h5.55a6.63,6.63,0,0,1,2.17.18,2.59,2.59,0,0,0,1,0,1.79,1.79,0,0,0,1.67-1.89c0-.2,0-.41,0-.61a1.81,1.81,0,0,0-1.87-1.82H176Zm-7.63-57.22a7.62,7.62,0,0,0-.05-1,7.7,7.7,0,0,0-.23-1.06A5.4,5.4,0,0,0,159,48.67a6.16,6.16,0,0,0-1.35,6.55,5.37,5.37,0,0,0,6.83,3.5A5.78,5.78,0,0,0,168.37,53.05ZM142,53v4a4.58,4.58,0,0,0,0,.83,1.11,1.11,0,0,0,1.11,1,1.08,1.08,0,0,0,1.16-1.07c0-.52,0-1,0-1.56a1,1,0,0,1,.72-1,1.08,1.08,0,0,1,1.32.45c.37.62.74,1.22,1.13,1.82a7.23,7.23,0,0,0,.68,1,1.13,1.13,0,0,0,.58.35,1,1,0,0,0,1-.35,1.2,1.2,0,0,0,.15-1.34c-.21-.43-.5-.81-.73-1.22a1.21,1.21,0,0,1,.27-1.8,3.52,3.52,0,0,0,1.15-2.15c.38-2.33-.65-4.33-3.19-4.6a35.71,35.71,0,0,0-4.39,0,1.06,1.06,0,0,0-1.06,1,5.89,5.89,0,0,0,0,.84Zm28.41,0v4a7.85,7.85,0,0,0,0,.84,1.07,1.07,0,0,0,.86,1,1,1,0,0,0,1.19-.52,2.54,2.54,0,0,0,.23-.91c0-.39,0-.8,0-1.2a1,1,0,0,1,1.19-1,.94.94,0,0,1,.78.44l.58.89c.35.58.69,1.16,1.06,1.72a1.19,1.19,0,0,0,1.61.45,1.27,1.27,0,0,0,.33-1.69c-.19-.35-.42-.68-.62-1a1.26,1.26,0,0,1,.23-1.89,4.31,4.31,0,0,0,.88-4.66A2.53,2.53,0,0,0,177.72,48a3.66,3.66,0,0,0-2.05-.74h-1.5c-.85,0-1.7,0-2.55,0s-1.16.38-1.2,1.26c0,.24,0,.48,0,.72Zm30.35.05v2.77c0,.64,0,1.28,0,1.92a1.06,1.06,0,0,0,1,1.08,2.08,2.08,0,0,0,.35,0h5.09a3.49,3.49,0,0,0,.46,0,1.09,1.09,0,0,0,.94-.92,1,1,0,0,0-.63-1.26,2.75,2.75,0,0,0-.9-.16c-.81,0-1.62,0-2.43,0-.23,0-.46,0-.69,0a1,1,0,0,1-.92-1,1.07,1.07,0,0,1,1.1-1.24c.66,0,1.31,0,2,0a5.07,5.07,0,0,0,1-.11,1.11,1.11,0,0,0-.22-2.16c-.77,0-1.55,0-2.32,0a3.55,3.55,0,0,1-.8-.06,1.11,1.11,0,0,1-.75-1.21,1,1,0,0,1,.88-.94,7.3,7.3,0,0,1,.81,0H207a3,3,0,0,0,.79-.1,1.13,1.13,0,0,0,.85-1.26,1.08,1.08,0,0,0-1.13-1c-1.85,0-3.7,0-5.55,0h-.12a1.06,1.06,0,0,0-1,1.07,5.77,5.77,0,0,0,0,.72Zm-65.67-5.75h0c-.61,0-1.23,0-1.84,0a1.11,1.11,0,0,0-1.17,1.07,4,4,0,0,0,0,.6V57.1a2.11,2.11,0,0,0,.21,1.16,1,1,0,0,0,.85.54,1.09,1.09,0,0,0,1.24-1.1c0-.4,0-.8,0-1.2a1.14,1.14,0,0,1,1.22-1.16c.53,0,1.07-.06,1.6-.14a3.55,3.55,0,0,0,1.6-.65,4.18,4.18,0,0,0,1.38-4.5,3.56,3.56,0,0,0-3.37-2.77C136.25,47.23,135.67,47.27,135.09,47.27ZM214.59,59a7.08,7.08,0,0,0,1.29-.23,3.2,3.2,0,0,0,2.06-1.8,3.34,3.34,0,0,0-1.45-4.5,7.15,7.15,0,0,0-1-.39c-.48-.16-1-.27-1.44-.45a4.37,4.37,0,0,1-1-.53.88.88,0,0,1-.08-1.27,1.41,1.41,0,0,1,.69-.39,2.13,2.13,0,0,1,1.36.14c.36.15.71.32,1.07.45a1,1,0,0,0,1.21-.42,1.23,1.23,0,0,0-.4-1.75,5.38,5.38,0,0,0-3.33-.75,3.38,3.38,0,0,0-3.16,3.12A3.09,3.09,0,0,0,212,53.42a11.31,11.31,0,0,0,2.17.8,7.29,7.29,0,0,1,1.37.6.93.93,0,0,1,0,1.52,2.05,2.05,0,0,1-.85.32,2.36,2.36,0,0,1-1.47-.23,12,12,0,0,0-1.25-.61,1.06,1.06,0,0,0-1.48,1.1A1.18,1.18,0,0,0,211.1,58,6.76,6.76,0,0,0,214.59,59Zm-23.76-4.73h0c0-1,0-2,0-3,0-1.27.3-1.57,1.48-1.6.23,0,.47,0,.69,0a1.14,1.14,0,0,0,1-.9,1.15,1.15,0,0,0-1.3-1.48h-4.85c-.47,0-.93,0-1.39,0a1.16,1.16,0,0,0-1.07,1.18,1.22,1.22,0,0,0,1.07,1.2,3.28,3.28,0,0,0,.7,0c.92-.09,1.47.43,1.38,1.43,0,.23,0,.48,0,.71V57a4.69,4.69,0,0,0,0,.84,1.12,1.12,0,0,0,1,1,1.09,1.09,0,0,0,1.28-1.18C190.86,56.49,190.83,55.37,190.83,54.25Zm-7.25-1.08V49.08a4.3,4.3,0,0,0-.07-.95,1.05,1.05,0,0,0-1.1-.87,1.07,1.07,0,0,0-1.16.93,4.28,4.28,0,0,0-.05.72v8.17a3.35,3.35,0,0,0,.09.83,1.09,1.09,0,0,0,1.2.88,1.05,1.05,0,0,0,1-.94,4.68,4.68,0,0,0,.05-.84Zm-28.41,0V49.07c0-.24,0-.48,0-.72A1.07,1.07,0,0,0,154,47.27a1.08,1.08,0,0,0-1.16,1.07c0,.16,0,.32,0,.48q0,4.2,0,8.4A2.83,2.83,0,0,0,153,58a1,1,0,0,0,1.17.75,1.07,1.07,0,0,0,1-1,5.89,5.89,0,0,0,0-.84ZM195.88,53v3.12c0,.52,0,1,0,1.56A1.07,1.07,0,0,0,197,58.8a1.12,1.12,0,0,0,1.18-1.07,5.72,5.72,0,0,0,0-.83V50.66c0-.64,0-1.28,0-1.91a2.4,2.4,0,0,0-.19-.92,1,1,0,0,0-1.28-.54,1.06,1.06,0,0,0-.8.91c0,.27,0,.56,0,.84Z" transform="translate(-11.67 -9.48)"/><path class="e" d="M85,138c.1.45-.32.59-.48.88l-.67.38a19.25,19.25,0,0,0-5.51-.42,62.58,62.58,0,0,0-7.36.72c-2.63.38-5.26.79-7.87,1.28-1.82.34-3.6.86-5.41,1.28A2.87,2.87,0,0,0,56,143.22L55.4,143c-.11-.21-.35-.36-.26-.66.71-.3,1.43-.59,2.13-.9a53,53,0,0,1,12.64-3.64,49.69,49.69,0,0,1,5.17-.5,47.84,47.84,0,0,1,7.38.24C83.3,137.59,84.13,137.81,85,138Z" transform="translate(-11.67 -9.48)"/><path class="h" d="M65.49,178.26c-.35-.09-.31-.29-.27-.49.2-1,.4-2,.61-2.93l3.42-16.06c.15-.66.3-1.32.43-2a12.35,12.35,0,0,1,4.13-7,8.66,8.66,0,0,1,1.06-.73c.06,0,.19.05.41.12-.27.23-.46.42-.66.57a11.67,11.67,0,0,0-4.2,6c-.29.91-.45,1.86-.65,2.8q-2,9.44-4,18.87A8.45,8.45,0,0,1,65.49,178.26Z" transform="translate(-11.67 -9.48)"/><path class="i" d="M258,103.53c0-.2,0-.4,0-.6a.83.83,0,0,1,.32-.73A24.11,24.11,0,0,1,264.81,98a22.46,22.46,0,0,1,5-1.49c.68-.11,1.37-.14,2.06-.2-.11.25-.24.49-.34.75a1,1,0,0,0,.4,1.33,2.26,2.26,0,0,0,1,.34,5.73,5.73,0,0,0,5-2.11l1.35.23,1,.28a29.83,29.83,0,0,1,9.35,4.2,10.29,10.29,0,0,1,.87.76,5.64,5.64,0,0,0-3.52,1.26,7.31,7.31,0,0,0-1.88,2.07,2.76,2.76,0,0,0-.46,1.68c.06.59.27.82.92,1a24.57,24.57,0,0,1,1.65,4.05c.42,1.32.86,2.63,1.27,3.95.16.49.26,1,.39,1.49,0,1.88,0,3.77,0,5.65a4.11,4.11,0,0,0,.07.47c0,.39-.08.79-.08,1.19,0,1.11,0,2.23,0,3.34-.11,2.63-.25,5.25-.37,7.88,0,.67,0,1.35-.09,2,0,.39-.11.78-.16,1.17L287,139a50.73,50.73,0,0,0-6.56-1.3c-1.75-.27-3.52-.43-5.28-.58s-3.53-.3-5.3-.35c-2.08-.06-4.16,0-6.24,0-.34,0-.69,0-1,0l-5.52.44c0-.4,0-.8,0-1.2.15-2.1.31-4.21.47-6.31,0-.12,0-.24,0-.36.05-.91.09-1.83.14-2.74s.18-1.67.25-2.5c.1-1.23.17-2.47.28-3.7s.27-2.61.4-3.91c.12-.9.25-1.8.37-2.71s.33-2.1.51-3.15c.25-1.45.66-2.85,1-4.27.06-.05.16-.08.18-.14a34.58,34.58,0,0,1,2-3.87s0-.12-.11-.24a15,15,0,0,0-2.13,3.8,8.31,8.31,0,0,1-2.06-2.12C258.32,103.69,258.12,103.63,258,103.53Z" transform="translate(-11.67 -9.48)"/><path class="j" d="M269.6,88.64a1.85,1.85,0,0,1,.54.08,12.23,12.23,0,0,0,3.86,1c.92.14,1.32-.17,1.55-1.15.17-.69.25-1.4.38-2.1a8.15,8.15,0,0,1,4.3,1.11c.24.11.48.24.72.36a6.91,6.91,0,0,1-2.67,2.56,2.24,2.24,0,0,1-1.21.29c.31-.67.4-1.48,1.13-1.87a.36.36,0,0,0,.07-.1.91.91,0,0,0-.16-1.19.71.71,0,0,0-1.1.17,2.29,2.29,0,0,0-.54,1.42c0,.68,0,1.36,0,2-.17.74-.75,1.1-1.26,1.52l-2.12.29a9.89,9.89,0,0,1-1.1-.3,3.68,3.68,0,0,1-2.38-3.34A5.79,5.79,0,0,1,269.6,88.64Zm3.34,1.73a12.43,12.43,0,0,0-2.3-.52c.05.71.3,1.14.92,1.24a1.47,1.47,0,0,0,.78-.08C272.55,90.9,272.69,90.64,272.94,90.37Z" transform="translate(-11.67 -9.48)"/><path class="c" d="M273.06,93.11l2.12-.29c.41.23.38.68.46,1.06a3.79,3.79,0,0,0,1.45,2.23,1.94,1.94,0,0,0,.53.23l.26.27a5.73,5.73,0,0,1-5,2.11,2.26,2.26,0,0,1-1-.34,1,1,0,0,1-.4-1.33c.1-.26.23-.5.34-.75a7.91,7.91,0,0,0,.61-.52,1.83,1.83,0,0,0,.53-1.26C273,94.05,273,93.58,273.06,93.11Z" transform="translate(-11.67 -9.48)"/><path class="h" d="M285.49,108.1c-.65-.19-.86-.42-.92-1a2.76,2.76,0,0,1,.46-1.68,7.31,7.31,0,0,1,1.88-2.07,5.64,5.64,0,0,1,3.52-1.26,1.45,1.45,0,0,1,1,1.87,4,4,0,0,0-3.37,0A4.25,4.25,0,0,0,285.49,108.1Z" transform="translate(-11.67 -9.48)"/><path class="c" d="M276.44,91.3c0-.68,0-1.36,0-2a2.29,2.29,0,0,1,.54-1.42.71.71,0,0,1,1.1-.17.91.91,0,0,1,.16,1.19.36.36,0,0,1-.07.1c-.73.39-.82,1.2-1.13,1.87Z" transform="translate(-11.67 -9.48)"/><path class="h" d="M258.34,138.44a2.4,2.4,0,0,1-1.19-.77c-.08-.09-.07-.28-.1-.42l5.52-.44c.35,0,.7,0,1,0,2.08,0,4.16-.05,6.24,0,1.77.05,3.53.19,5.3.35s3.53.31,5.28.58A50.73,50.73,0,0,1,287,139l1.12.31a.54.54,0,0,1-.25.77,5.6,5.6,0,0,1-.71.3c-1.36-.29-2.71-.6-4.07-.88a66.72,66.72,0,0,0-6.59-1.14c-1.49-.14-3-.3-4.47-.49a57.69,57.69,0,0,0-9-.16A18.62,18.62,0,0,0,258.34,138.44Z" transform="translate(-11.67 -9.48)"/><path class="k" d="M276.43,178.82l-1.46-.23c-.08-1.32-.17-2.64-.23-4q-.18-4-.31-8a11.76,11.76,0,0,1,.09-2.13l.75,5.44c.36,2.58.73,5.15,1.08,7.72C276.4,178,276.41,178.43,276.43,178.82Z" transform="translate(-11.67 -9.48)"/><path class="j" d="M268.87,145.58a5,5,0,0,1,1.87,1.72,10.24,10.24,0,0,1,2.28,5.28c.22,1.57.55,3.12.72,4.71.15,1.38.43,2.75.63,4.12a7.36,7.36,0,0,1,0,1.05c-.33.09-.39-.14-.41-.31-.19-1.42-.31-2.84-.53-4.26-.35-2.31-.77-4.62-1.16-6.93a22.14,22.14,0,0,0-1.16-2.34,20.73,20.73,0,0,0-1.65-2c-.25-.3-.6-.51-.68-.95Z" transform="translate(-11.67 -9.48)"/><path class="j" d="M268.78,145.68a5.64,5.64,0,0,1-.71-.31c-.06-.05-.05-.24-.07-.41.47,0,.65.36.87.62Z" transform="translate(-11.67 -9.48)"/><path class="c" d="M98.44,101.85a.81.81,0,0,0-.16.16,4.54,4.54,0,0,1-2.15,1.75,10.93,10.93,0,0,1-3.07.3,2,2,0,0,0-.12,1.35c.27,1.65.59,3.28.83,4.93.15,1,.13,2.07.31,3.09.25,1.46.21,2.93.36,4.4a20.12,20.12,0,0,1-.07,4.65,21,21,0,0,1-.55,3.17,5.57,5.57,0,0,1-3.63,4,6.22,6.22,0,0,1-4.71-.4c-.45-.22-.88-.49-1.32-.73-.17-1.15-.32-2.29-.51-3.43-.5-3-1-6.06-1.52-9.08-.28-1.57-.65-3.12-1-4.68a1.47,1.47,0,0,1,.17-1.25A10.89,10.89,0,0,0,83,105.93a12.21,12.21,0,0,1,.8,1.57c.54,1.62,1,3.26,1.51,4.89.09.27.21.52.32.82a9.11,9.11,0,0,0,.36-3,1.83,1.83,0,0,1,0-.47,32.09,32.09,0,0,0,.37-4.27c.2-1.49.24-3,.5-4.5.09-.54.17-1.09.24-1.64a1.83,1.83,0,0,1,1.53-1.79c.34-.08.68-.13,1-.2l2,.46a.77.77,0,0,0,.73-.25,3.2,3.2,0,0,0,.76-1.18c.22-.32.45-.63.66-1a1.26,1.26,0,0,1,1-.66,1.44,1.44,0,0,1,.09,1.16l-.19,1,0,0a.38.38,0,0,0-.1,0s0,0,0,.08.05,0,.1-.06c.36-.37.7-.69,1-1a1.93,1.93,0,0,1,.45-.36.48.48,0,0,1,.42,0,.46.46,0,0,1,.12.41c-.11.42-.28.82-.43,1.23-.06.17-.11.35-.21.68.27-.1.4-.13.52-.19a9,9,0,0,1,1-.54.42.42,0,0,1,.55.52,7.19,7.19,0,0,1-.27.78c0,.14-.09.29-.12.4.15.24.3.14.41.06.31-.22.52-.6,1-.51a2.18,2.18,0,0,1-.06,1.68C99,100.62,98.7,101.23,98.44,101.85ZM96,98.11l0,0v-.06Z" transform="translate(-11.67 -9.48)"/><path class="c" d="M65,99.21a2,2,0,0,0,1.54-1,10.28,10.28,0,0,0,.61-1.13c.36-.87.67-1.75,1-2.65A6.19,6.19,0,0,0,67,93.15a2.5,2.5,0,0,0-1-1.66,1.32,1.32,0,0,1-.31-.35A1,1,0,0,1,66,89.56c.23-.12.54-.06.72-.43a2,2,0,0,1,1-2.24,7.83,7.83,0,0,0,4-.3,1.15,1.15,0,0,1,1,.14,3.68,3.68,0,0,1,1.41,1.19,8.55,8.55,0,0,0-1,.13c-.14,0-.25.22-.59.54l1.52-.27,0-.42h.21a7.18,7.18,0,0,1-.28,5l-.43,1-.92.79a4.76,4.76,0,0,1-2.69.55l-1.64-.67a3.23,3.23,0,0,0,1.51,2.55,7.34,7.34,0,0,0-.05.81c0,.57.05,1.18.75,1.37a3.72,3.72,0,0,1,.45.53,1.42,1.42,0,0,1-.92,2.21,2.63,2.63,0,0,1-1.47,0,6.87,6.87,0,0,1-3.08-1.76A1.68,1.68,0,0,1,65,99.21Zm5.9-6.72a.46.46,0,0,0-.08.72,1.22,1.22,0,0,0,1.45.42,2.1,2.1,0,0,0,.73-.55.92.92,0,0,0,.19-.89A6.9,6.9,0,0,0,70.9,92.49ZM70.61,91a2.73,2.73,0,0,0,.19-.55c0-.22-.29-.46-.46-.41a.38.38,0,0,0-.3.43A.54.54,0,0,0,70.61,91Zm3.29-1.3c0-.4-.18-.62-.38-.57a.41.41,0,0,0-.31.42c0,.27.15.57.32.5S73.82,89.77,73.9,89.69Zm-4.47.13c.29-.34.83-.34,1-.83C69.72,88.92,69.64,89,69.43,89.82Z" transform="translate(-11.67 -9.48)"/><path class="d" d="M74.35,87.89h-.21l0,0a3.68,3.68,0,0,0-1.41-1.19,1.15,1.15,0,0,0-1-.14,7.83,7.83,0,0,1-4,.3,2,2,0,0,0-1,2.24c-.18.37-.49.31-.72.43a1,1,0,0,0-.41,1.58,1.32,1.32,0,0,0,.31.35,2.5,2.5,0,0,1,1,1.66,4.57,4.57,0,0,1-4.15-3.8,7.63,7.63,0,0,1-.15-2.13l.36-1a8,8,0,0,1,.77-1,8.45,8.45,0,0,1,1-.81,5.85,5.85,0,0,0,0-.59,1.85,1.85,0,0,1,.93-1.69,7.59,7.59,0,0,1,5.72-1.24,3.47,3.47,0,0,1,2,1.24C74.5,83.21,75.21,86.44,74.35,87.89Z" transform="translate(-11.67 -9.48)"/><path class="l" d="M70.9,74.44l.24.24Z" transform="translate(-11.67 -9.48)"/><path class="c" d="M55,139.43H54c-.48-.21-.94-.44-1.42-.63a3.53,3.53,0,0,0-.64-.16l-1.63-1a9.36,9.36,0,0,0-1-.8,16.38,16.38,0,0,1-3.67-3.43,12.23,12.23,0,0,1-2.57-4.87,10.52,10.52,0,0,0-.39-1c0-.4,0-.8-.07-1.2,0-.56,0-1.12,0-1.68a18.22,18.22,0,0,1,1.41-7.22,30.59,30.59,0,0,1,2.69-5.29c.14-.23.24-.49.36-.74s.36-.4.51-.62a29.78,29.78,0,0,1,4-4.72c.28-.27.55-.55.82-.83.1,0,.24-.06.31-.14a1.26,1.26,0,0,1,1.38-.27,9.39,9.39,0,0,1,3.38,1.78,7.63,7.63,0,0,1,2.69,3.24l-.43.71c-1,1-2,1.89-2.92,2.86a5.14,5.14,0,0,0-.59.85,4.06,4.06,0,0,0-.74.55c-.63.69-1.24,1.42-1.84,2.14a16.65,16.65,0,0,0-2.57,4.39,4.87,4.87,0,0,0-.36,1.74,7.15,7.15,0,0,0,1,3.88,6.24,6.24,0,0,0,3.38,2.92s.13-.06.2-.09c.42-.28.83-.57,1.27-.83a4.79,4.79,0,0,1,6.19,1.07,2.46,2.46,0,0,1,.22.52c-.77.48-1.57.21-2.34.32.34.2.7.33,1,.49a6.11,6.11,0,0,1,.88.54.42.42,0,0,1-.07.7,2.2,2.2,0,0,1-1.23.27c-.36,0-.72,0-1.07,0a3,3,0,0,0,.88.54,12.88,12.88,0,0,1,1.19.71c.13.09.17.31.25.47-.86.59-1.72,0-2.58.19.21.36.58.41.85.62a5.68,5.68,0,0,1,.69.61.38.38,0,0,1-.2.57,1.61,1.61,0,0,1-.57.06,7.44,7.44,0,0,1-1-.25c-.44-.14-.87-.32-1.31-.44-.61-.16-.84-.05-1.15.5s-.44.85-.66,1.26A3.82,3.82,0,0,1,55,139.43Z" transform="translate(-11.67 -9.48)"/><path class="f" d="M288.86,123.71a4.11,4.11,0,0,1-.07-.47c0-1.88,0-3.77,0-5.65a43.37,43.37,0,0,1,1.5,6.87,3.86,3.86,0,0,1-.65-.39A1.28,1.28,0,0,0,288.86,123.71Z" transform="translate(-11.67 -9.48)"/><path class="b" d="M242.15,135c0,.32-.11.63-.12.94,0,1,0,2-.06,3-.1,3.45-.19,6.89-.29,10.33-.06,1.92-.15,3.84-.23,5.76l-8.3-3.7q.16-4.44.31-8.87.25-8.1.49-16.19l.21-6.72c.08-2.56.17-5.11.25-7.67a1.9,1.9,0,0,1,1.2.66,28.73,28.73,0,0,0,4.71,3.2c.51.28,1,.51,1.56.78.27.14.53.31.79.46-.08,2.11-.15,4.21-.23,6.32-.05,1.43-.12,2.86-.16,4.29,0,.79,0,1.58,0,2.38l0,1.92Z" transform="translate(-11.67 -9.48)"/><path class="m" d="M260.47,106a15,15,0,0,1,2.13-3.8c.06.12.13.2.11.24a34.58,34.58,0,0,0-2,3.87c0,.06-.12.09-.18.14C260.5,106.25,260.48,106.1,260.47,106Z" transform="translate(-11.67 -9.48)"/><path class="n" d="M232,101.61l.16.09c-.14.16-.13,0-.17-.08Z" transform="translate(-11.67 -9.48)"/><path class="n" d="M230.86,103.79l.1.12-.07,0a.17.17,0,0,1,0-.1Z" transform="translate(-11.67 -9.48)"/><path class="n" d="M232,101.62l-.26-.21.09-.09.18.29Z" transform="translate(-11.67 -9.48)"/><path class="n" d="M230.88,103.78l-.18-.06c.13-.18.12,0,.16.07Z" transform="translate(-11.67 -9.48)"/><path class="i" d="M56.26,114.31a5.14,5.14,0,0,1,.59-.85c1-1,1.95-1.91,2.92-2.86a4.34,4.34,0,0,0,.79.13c.72,0,1-.46.59-1.12a7.3,7.3,0,0,0-1-1.42,15.67,15.67,0,0,0-3.37-2.71,9.28,9.28,0,0,0-3.93-1.63,25.4,25.4,0,0,1,2.24-1.66,21.06,21.06,0,0,1,6.07-2.6A14.52,14.52,0,0,1,65,99.21a1.61,1.61,0,0,0,.57,1A6.87,6.87,0,0,0,68.66,102a2.63,2.63,0,0,0,1.47,0,1.42,1.42,0,0,0,.92-2.21,3.72,3.72,0,0,0-.45-.53c.53,0,1.06,0,1.58.08s1,.12,1.46.17h0l.24.13L75,100a20.22,20.22,0,0,1,6.85,3.53c.12.1.23.22.35.31a1.8,1.8,0,0,1,.74,1.65,3.87,3.87,0,0,0,0,.48,10.89,10.89,0,0,1-1.65,4.17,1.47,1.47,0,0,0-.17,1.25c.33,1.56.7,3.11,1,4.68.53,3,1,6,1.52,9.08.19,1.14.34,2.28.51,3.43.06.63.11,1.26.17,1.89.24,2.42.47,4.84.71,7.25L85,138c-.83-.15-1.66-.37-2.5-.45a47.84,47.84,0,0,0-7.38-.24,49.69,49.69,0,0,0-5.17.5,53,53,0,0,0-12.64,3.64c-.7.31-1.42.6-2.13.9a5.36,5.36,0,0,1-.15-.78c0-.7,0-1.4,0-2.1a3.82,3.82,0,0,0,1.61-1.67c.22-.41.43-.84.66-1.26s.54-.66,1.15-.5c.44.12.87.3,1.31.44a7.44,7.44,0,0,0,1,.25,1.61,1.61,0,0,0,.57-.06.38.38,0,0,0,.2-.57,5.68,5.68,0,0,0-.69-.61c-.27-.21-.64-.26-.85-.62.86-.18,1.72.4,2.58-.19-.08-.16-.12-.38-.25-.47a12.88,12.88,0,0,0-1.19-.71,3,3,0,0,1-.88-.54c.35,0,.71,0,1.07,0a2.2,2.2,0,0,0,1.23-.27.42.42,0,0,0,.07-.7,6.11,6.11,0,0,0-.88-.54c-.34-.16-.7-.29-1-.49.77-.11,1.57.16,2.34-.32a2.46,2.46,0,0,0-.22-.52A4.79,4.79,0,0,0,56.61,129c-.44.26-.85.55-1.27.83a5,5,0,0,1-.14-.92c0-.83.11-1.67.15-2.5.11-1.9.19-3.81.32-5.71.08-1.15.25-2.29.35-3.44C56.12,116.28,56.18,115.3,56.26,114.31Z" transform="translate(-11.67 -9.48)"/><path class="e" d="M52.81,103.85a9.28,9.28,0,0,1,3.93,1.63,15.67,15.67,0,0,1,3.37,2.71,7.3,7.3,0,0,1,1,1.42c.38.66.13,1.11-.59,1.12a4.34,4.34,0,0,1-.79-.13l.43-.71a7.63,7.63,0,0,0-2.69-3.24,9.39,9.39,0,0,0-3.38-1.78,1.26,1.26,0,0,0-1.38.27c-.07.08-.21.1-.31.14s-.07-.13-.1-.21C52.06,104.3,52.07,104.27,52.81,103.85Z" transform="translate(-11.67 -9.48)"/><path class="l" d="M272.45,79.2a4.35,4.35,0,0,1-.51,0,.22.22,0,0,1-.1-.17c0-.06.09-.15.13-.14a4.67,4.67,0,0,1,.5.14Z" transform="translate(-11.67 -9.48)"/><path class="m" d="M273.78,87c.73,0,.76,0,.89.82A5.38,5.38,0,0,1,273.78,87Z" transform="translate(-11.67 -9.48)"/><path class="m" d="M271.05,86.65c.16.21.29.3.32.43a.37.37,0,0,1-.22.48.32.32,0,0,1-.37-.33A3.39,3.39,0,0,1,271.05,86.65Z" transform="translate(-11.67 -9.48)"/><path class="o" d="M271.55,86.34l-.89-.23c.21-.17.3-.31.4-.31C271.32,85.8,271.56,85.88,271.55,86.34Z" transform="translate(-11.67 -9.48)"/><path class="h" d="M274,88.13l-.35.4c-.09-.09-.23-.18-.25-.28a.29.29,0,0,1,.32-.36C273.84,87.89,273.91,88,274,88.13Z" transform="translate(-11.67 -9.48)"/><path class="a" d="M184,141.27c-.93-.55-1.85-1.11-2.78-1.65s-1.75-1-2.62-1.46a2.64,2.64,0,0,1,1.66-1.72,6.08,6.08,0,0,1,.64.25l4.29,2.36c2.62,1.44,5.23,2.88,7.86,4.31a7.71,7.71,0,0,0,1.07.43c.09.6.09.6.74.6l.95.36a.68.68,0,0,0,.73.38,10.73,10.73,0,0,0,2.27,1.41c1.43.79,2.88,1.54,4.31,2.33l8.77,4.84c2.08,1.15,4.16,2.28,6.24,3.42l8.38,4.59,2.36,1.28a1.17,1.17,0,0,0,.39,0c0-.46-.33-.5-.55-.62L224.27,160l-6.65-3.64c-2-1.09-4-2.16-5.93-3.25l-10.41-5.74L197,145c.13-.69.66-1.14,1-1.73a1.3,1.3,0,0,1,1.64-.71c.11,0,.22.08.33.11l1.45.3a6,6,0,0,0,2-.27c.36.56.26,1.32.71,1.85a29.09,29.09,0,0,0,5.89-.88l1.5,0c1,.56,1.94,1.13,2.92,1.67,3.47,1.9,6.93,3.78,10.41,5.66,1.22.66,2.46,1.29,3.7,1.93.82.49,1.64,1,2.47,1.45.67.37,1.37.69,2,1l.85.69a15.87,15.87,0,0,1-1.71,5.55A18,18,0,0,1,229,166c-.48-.24-1-.46-1.45-.73l-4.68-2.6-8.66-4.79c-1.22-.67-2.46-1.31-3.69-2-.6-.36-1.19-.72-1.8-1.06l-9.16-5-1.71-.94c-.56-.33-1.11-.68-1.68-1-1.14-.62-2.29-1.21-3.44-1.81a1.39,1.39,0,0,0-.91-.52c-.12-.09-.24-.19-.37-.27-1.57-.88-3.14-1.78-4.72-2.64C185.8,142.18,184.87,141.74,184,141.27Z" transform="translate(-11.67 -9.48)"/><path class="p" d="M232.72,168.23q-.12,3.35-.23,6.7c-.11,3.47-.2,6.94-.3,10.41a9.68,9.68,0,0,1-2,5.88,4.2,4.2,0,0,1-1.43,1.35c-.23-1.26-.46-2.51-.67-3.77q-1.12-6.8-2.24-13.59c-.36-2.25-.71-4.49-1.06-6.74.44-.08.89-.14,1.33-.25q1.48-.37,3-.78a.77.77,0,0,0,.59-.88Z" transform="translate(-11.67 -9.48)"/><path class="q" d="M229.71,166.56a.77.77,0,0,1-.59.88q-1.49.41-3,.78c-.44.11-.89.17-1.33.25-2,0-3.93,0-5.89,0a23,23,0,0,1-2.75-.25c-1.37-.21-2.72-.47-4.08-.72a8.44,8.44,0,0,1-.83-.26,13.12,13.12,0,0,1-.27-1.39c-.11-1.43-.18-2.86-.27-4.29s-.15-2.87-.22-4.3c0-.44,0-.88,0-1.32,1.23.65,2.47,1.29,3.69,2l8.66,4.79,4.68,2.6c.47.27,1,.49,1.45.73Z" transform="translate(-11.67 -9.48)"/><path class="q" d="M192.71,146.11c1.15.6,2.3,1.19,3.44,1.81.57.3,1.12.65,1.68,1l.06,1c0,2.07,0,4.15.16,6.22.19,2.35.13,4.7.21,7,0,.63.12,1.27.17,1.9q0,.3,0,.6c0,.4-.19.58-.58.61-.57,0-1.15,0-1.72.07-.73,0-1.47,0-2.19,0s-.77-.18-.8-.77c-.09-1.91-.23-3.82-.27-5.73,0-2.23-.23-4.46-.2-6.69l0-4.35Z" transform="translate(-11.67 -9.48)"/><path class="f" d="M216,194.41l-3,.06c-.05-.31-.12-.63-.14-.95-.19-3-.37-6-.56-9,0-.72-.13-1.44-.16-2.16,0-.5,0-1,0-1.65.13.34.23.55.29.77L216,193.94A3.55,3.55,0,0,1,216,194.41Z" transform="translate(-11.67 -9.48)"/><path class="e" d="M212.05,180c-.16-.39-.3-.66-.39-1q-1.65-5.55-3.28-11.12a14.31,14.31,0,0,0-2.22-4.72,11.76,11.76,0,0,0-2.5-2.48c-.16-.12-.45-.18-.36-.6a1.23,1.23,0,0,1,.39.06,7.63,7.63,0,0,1,2.06,1.73,13.06,13.06,0,0,1,2.86,5.15c1.18,4,2.39,8,3.58,12C212.27,179.34,212.45,179.6,212.05,180Z" transform="translate(-11.67 -9.48)"/><path class="h" d="M197.89,149.86l-.06-1,1.71.94Z" transform="translate(-11.67 -9.48)"/><path class="a" d="M240.92,172.77c-1.25-.71-2.5-1.42-3.74-2.15-.53-.31-1.05-.66-1.57-1a16.74,16.74,0,0,0,2.3-2.53,17.3,17.3,0,0,0,2.81-7.29l.56,0a5.2,5.2,0,0,0,.65.48c1.86,1,3.72,2,5.59,3,.61.33,1.24.6,1.87.9a6.39,6.39,0,0,0,1.8,1c.7.39,1.4.8,2.11,1.19a2.13,2.13,0,0,1,1,3l-.56,1.55a1.78,1.78,0,0,0-.24.39,18.57,18.57,0,0,1-1.68,3.51c-.36.36-.7.74-1.08,1.08a7.06,7.06,0,0,1-.95.67,1.56,1.56,0,0,1-1.65,0c-.88-.5-1.77-1-2.65-1.47L241.46,173A5,5,0,0,0,240.92,172.77Zm-1.72-4.27c.11.17.15.31.23.36l9.76,5.56c.21-.18.24-.34.1-.46a3.64,3.64,0,0,0-.59-.37q-3.8-2.15-7.61-4.27c-.47-.27-.93-.56-1.41-.81A1.46,1.46,0,0,0,239.2,168.5Z" transform="translate(-11.67 -9.48)"/><path class="e" d="M251.19,165.32a6.39,6.39,0,0,1-1.8-1c.15-.7.34-1.39.45-2.1s0-1.06-.76-1.39q-3.42-1.54-6.87-3.08a8,8,0,0,0-.87-.26,13.73,13.73,0,0,0-1.29-.73c-1.36-.63-2.72-1.25-4.09-1.83a15.7,15.7,0,0,0-2.76-1.13c-.47-.25-.92-.52-1.4-.74-1.07-.47-2.16-.92-3.23-1.38a1.3,1.3,0,0,0-.18-.15l-7.11-3.19c-.56-.25-1.13-.5-1.67-.8a1,1,0,0,1-.43-1.24.88.88,0,0,1,1.1-.63,3.42,3.42,0,0,1,.75.29l7.22,3.22c.87.41,1.74.83,2.61,1.22a8.63,8.63,0,0,1,2,1c.07.05.22,0,.33,0l8.3,3.7,2.73,1.24,1.5.64,3.11,1.47c.45.21.91.41,1.36.63a3,3,0,0,1,1.6,3.24C251.56,163.29,251.38,164.3,251.19,165.32Z" transform="translate(-11.67 -9.48)"/><path class="e" d="M251.86,174.92a18.57,18.57,0,0,0,1.68-3.51,1.78,1.78,0,0,1,.24-.39c1.05.66,2.11,1.29,3.15,2a1.55,1.55,0,0,1,.74,2.11,5.76,5.76,0,0,1-.53,1.19,1.12,1.12,0,0,1-1.58.53C254.31,176.21,253.09,175.55,251.86,174.92Z" transform="translate(-11.67 -9.48)"/><path class="e" d="M240.72,159.81a17.3,17.3,0,0,1-2.81,7.29,16.74,16.74,0,0,1-2.3,2.53l-1.35-.62-1.54-.78-3-1.67L229,166a18,18,0,0,0,3.23-4.34,15.87,15.87,0,0,0,1.71-5.55,5.24,5.24,0,0,1,.76.26c1.87,1,3.75,2,5.61,3A2.62,2.62,0,0,1,240.72,159.81Z" transform="translate(-11.67 -9.48)"/><path class="q" d="M210,143.65a29.09,29.09,0,0,1-5.89.88c-.45-.53-.35-1.29-.71-1.85-.58-2.15-1.17-4.3-1.75-6.45a1.65,1.65,0,0,1,1.26-.42,34,34,0,0,0,7.4-1.49c.41.22.76,0,1.08-.19a8.2,8.2,0,0,0,1.52-1.08,16.72,16.72,0,0,0,4.12-7.25c0-.17,0-.31-.26-.32-.16.43-.33.87-.5,1.31a18.78,18.78,0,0,1-2.22,4.32,7.08,7.08,0,0,1-3.55,2.93c0-.48,0-1,0-1.44.3-3.06.6-6.12,1.07-9.16a130.91,130.91,0,0,1,2.55-12.91,10.56,10.56,0,0,1,1.26.14,23.19,23.19,0,0,1,5.48,1.81,10.63,10.63,0,0,1,2.25,1.44,11.25,11.25,0,0,1,1.82,1.83,12,12,0,0,1,1.68,3.92,21.07,21.07,0,0,1,.72,7.12c0,.75-.22,1.49-.33,2.24-.05.32-.09.63-.14.95-.26,0-.38.22-.47.45a19.43,19.43,0,0,1-1.78,3.49,4.71,4.71,0,0,0-.28.65v0a2,2,0,0,0-.76,1c0,.05,0,.14.06.21h0c-.07,0-.17-.07-.2,0a4.2,4.2,0,0,0-1.2,1.5h0l-.25.25h0a5,5,0,0,0-.65.45A20,20,0,0,1,211,143.26C210.62,143.33,210.25,143.31,210,143.65Z" transform="translate(-11.67 -9.48)"/><path class="a" d="M171.8,134.39c-.76-.39-1.52-.77-2.26-1.18l-9.22-5.11c-.13-.08-.24-.19-.36-.28a4.89,4.89,0,0,0,1.82-.17,4.09,4.09,0,0,0,2.07-1.84,10.06,10.06,0,0,0,1.29-6.09c0-.43-.17-.85-.25-1.28l2.76,1.4c1,.5,2,1,2.95,1.52s2.21,1.29,3.33,1.91c2.28,1.26,4.55,2.51,6.84,3.75,1.4.76,2.82,1.48,4.22,2.21.53.32,1,.66,1.59,1l8.25,4.46c.78.43,1.53.9,2.29,1.35a7.51,7.51,0,0,0-2.34.44,2.81,2.81,0,0,0-1.58,1.11,8.06,8.06,0,0,0-1.35,2.6,2.27,2.27,0,0,0-.1.58,2.93,2.93,0,0,0,.13.51c.19,0,.32,0,.4,0,.37-.21.73-.44,1.09-.66h0c0,.23,0,.52-.14.68a2,2,0,0,0-.31,1.46c-.45-.22-.91-.42-1.35-.66L187,139.51l-6.62-3.61c.08-.43.19-.85.24-1.28s-.22-.59-.6-.51a7.42,7.42,0,0,0-.77.22v0c0-.35.08-.7.16-1.05a.63.63,0,0,0-.22-.74.66.66,0,0,0-.76,0c-.2.12-.36.3-.55.44s-.27.14-.42-.07c.06-.12.14-.25.2-.39.21-.51.45-1,.61-1.54a.55.55,0,0,0-.59-.69,1.28,1.28,0,0,0-.62.24c-.28.21-.5.5-.77.73a2.12,2.12,0,0,1-.51.19l.41-1.21a.65.65,0,0,0-1-.34,12.34,12.34,0,0,0-1.28,1c-.33.27-.64.56-1,.85a6.07,6.07,0,0,1-.74-.31l-4.78-2.65c-.26-.14-.51-.35-.81-.3-.19.4.11.48.28.57.88.5,1.77,1,2.65,1.45s2,1.16,3,1.74A10.35,10.35,0,0,1,171.8,134.39Z" transform="translate(-11.67 -9.48)"/><path class="i" d="M210.33,134.32a34,34,0,0,1-7.4,1.49,1.65,1.65,0,0,0-1.26.42,5.35,5.35,0,0,1-1.27,0,9.32,9.32,0,0,0-2.17-.19,58.37,58.37,0,0,1,1.16-7.57c1.4-6.32,3.47-12.34,7.17-17.65l.9-.18a5.73,5.73,0,0,1-.07.58c-.15.75,0,1.14.66,1.42a2.09,2.09,0,0,0,1.87.08c.52-.25,1.09-.39,1.59-.67a3.39,3.39,0,0,0,1.56-1.67l1.1.19a130.91,130.91,0,0,0-2.55,12.91c-.47,3-.77,6.1-1.07,9.16-.05.47,0,1,0,1.44Z" transform="translate(-11.67 -9.48)"/><path class="b" d="M146.75,73.6a5.89,5.89,0,0,1,.8,3.32c-.06,1.6,0,3.2,0,4.8a9.34,9.34,0,0,1-.2,2.74,3.4,3.4,0,0,0,0,1c0,1.16,0,2.32,0,3.48a6,6,0,0,1-1.15,3.81,4.43,4.43,0,0,1-1.89,1.49,4.18,4.18,0,0,1-3.14.27.8.8,0,0,0-.34,0c-1.62.14-3.21-.33-4.83-.26a4.83,4.83,0,0,1-1.6-.17,5.25,5.25,0,0,0-1.26-.07,6.8,6.8,0,0,1-2.29-.19,1.77,1.77,0,0,0-.69,0,5,5,0,0,1-4.8-5c0-3.89,0-7.77,0-11.66a4.44,4.44,0,0,1,1.2-3,4.55,4.55,0,0,1,1.32-1.15,5,5,0,0,1,1.32-.39,46.5,46.5,0,0,1,6.57-.22,5,5,0,0,0,1.59-.17,2.8,2.8,0,0,1,.92-.06c1.66,0,3.32,0,5,0a4,4,0,0,1,2.23.46,1.14,1.14,0,0,0,.33.08l-2.64,3.09a20.15,20.15,0,0,0-3.11,0,16.56,16.56,0,0,1-2.53.18c-1.27,0-2.54,0-3.81,0a3.11,3.11,0,0,0-.92,0,5.86,5.86,0,0,1-1.95.19c-.34,0-.69,0-1,0a1,1,0,0,0-1,.84,8,8,0,0,0-.26,1.89c0,2.4,0,4.81,0,7.21a16.5,16.5,0,0,0,.19,2.62A1.52,1.52,0,0,0,129.9,90a2.68,2.68,0,0,0,.8.07,6,6,0,0,1,2.06.19,1.58,1.58,0,0,0,.58,0,24.94,24.94,0,0,1,3.1.2c1.16.2,2.37,0,3.55.26a14.59,14.59,0,0,1,2.06.23.85.85,0,0,0,.88-.15,2.34,2.34,0,0,0,.95-1.43,11.35,11.35,0,0,0,.18-1.54c0-2,0-3.92,0-5.89a3.32,3.32,0,0,1,0-.95,10.11,10.11,0,0,0,.15-3.1A40.39,40.39,0,0,1,146.75,73.6Z" transform="translate(-11.67 -9.48)"/><path class="b" d="M146.59,138.14c.13.2.28.39.39.6a3.83,3.83,0,0,1,.57,2c0,2.28,0,4.57,0,6.85a2.55,2.55,0,0,1,0,.48,24.93,24.93,0,0,0-.21,5.25,8.19,8.19,0,0,1-.4,2.47,5,5,0,0,1-3.33,3.22,1.17,1.17,0,0,1-.46.05,15.38,15.38,0,0,1-2.54,0c-1.18-.21-2.38-.08-3.55-.25s-2.16-.07-3.21-.24-2.3-.12-3.44-.22a5.16,5.16,0,0,1-3.65-1.54,5.22,5.22,0,0,1-1.41-3.45c0-3.88,0-7.77,0-11.65A4.61,4.61,0,0,1,130,137c.7,0,1.39,0,2.09,0,.41,0,.83-.11,1.25-.15a8.93,8.93,0,0,1,1-.08h4.16a5.67,5.67,0,0,0,2.17-.2,12.27,12.27,0,0,1,4,.21,4.57,4.57,0,0,1,.79.47l-2.72,3.15h-5.9a5.44,5.44,0,0,0-.8.09c-.42,0-.84.13-1.25.13-1.47,0-2.94,0-4.4,0a2,2,0,0,0-1.12.24.81.81,0,0,0-.47.63,17.36,17.36,0,0,0-.25,2.5c0,2.32,0,4.65,0,7a10.52,10.52,0,0,0,.23,2.62c.15.67.42.94,1.09,1a26.71,26.71,0,0,0,3.79.25.89.89,0,0,1,.46,0,4,4,0,0,0,1.6.19,2.65,2.65,0,0,1,.8,0,8.25,8.25,0,0,0,2.52.21,4.34,4.34,0,0,1,1.15.08,7.84,7.84,0,0,0,2.41.15,1.38,1.38,0,0,0,1.19-1,13.42,13.42,0,0,0,.26-1.89c.11-2.59-.16-5.19.21-7.79a16.62,16.62,0,0,0,0-2.64Z" transform="translate(-11.67 -9.48)"/><path class="q" d="M206.56,110.78c-3.7,5.31-5.77,11.33-7.17,17.65a58.37,58.37,0,0,0-1.16,7.57h-1.11c-.76-.45-1.51-.92-2.29-1.35l-8.25-4.46c-.54-.29-1.06-.63-1.59-1a1.51,1.51,0,0,1,.24-.26,39.52,39.52,0,0,0,4.65-3.53,31.79,31.79,0,0,0,3.53-3.62l2.27-2.41c.35-.41.72-.81,1.07-1.23,1.25-1.51,2.47-3,3.74-4.53a5.75,5.75,0,0,1,1.34-1.12A11.69,11.69,0,0,1,206.56,110.78Z" transform="translate(-11.67 -9.48)"/><path class="a" d="M143.37,104.74a29.71,29.71,0,0,1,3.43-1.95,6,6,0,0,1,2.47-.47,2.74,2.74,0,0,1,2.43,1.57,5.54,5.54,0,0,1,.59,3.47,14.6,14.6,0,0,1-2.06,5.68c-.84,1.38-1.79,2.69-2.69,4-.09.13-.16.27-.25.4a1.88,1.88,0,0,0-.26.22,44.86,44.86,0,0,1-8.13,7.87l-2.05,1.52c-1.17.6-2.33,1.22-3.51,1.81a11.46,11.46,0,0,1-4.56,1.21,5.78,5.78,0,0,1-6-4.09,8.49,8.49,0,0,1-.09-5.41,16.05,16.05,0,0,1,1.92-4.21l.74-1.22.61-.71c.68-.82,1.34-1.65,2-2.45a58.3,58.3,0,0,1,5.7-5.42c.63-.54,1.26-1,1.89-1.57l1.69-1.19c.19-.13.37-.27.56-.39a.78.78,0,0,1,1,0,.8.8,0,0,1,.24,1l-.13.33c-1,.7-1.93,1.39-2.87,2.12-.7.54-1.35,1.14-2,1.71a40.43,40.43,0,0,0-5.36,5.11,1.34,1.34,0,0,0-.14.32,16,16,0,0,0-3.21,4.45,8.84,8.84,0,0,0-1.44,5.32,5.39,5.39,0,0,0,1.22,3.18,3.6,3.6,0,0,0,2.49,1.38,10.42,10.42,0,0,0,6.3-1.57s0-.06.07-.09a11,11,0,0,0,2.81-1.59c.71-.46,1.36-1,2-1.56s1.32-.92,1.91-1.47a27.28,27.28,0,0,0,3.4-3.48c.4-.42.84-.81,1.2-1.26a19.2,19.2,0,0,0,2.27-3.09,17.32,17.32,0,0,0,2.9-5.65,6.7,6.7,0,0,0,.33-2.23c-.07-1.92-1-2.68-2.8-2.18a7,7,0,0,0-2.55,1.31,16.88,16.88,0,0,0-3.71,2.88,28.69,28.69,0,0,0-4.28,4.46,7.79,7.79,0,0,1-.51.63.65.65,0,0,1-.75.13.75.75,0,0,1-.45-.76,1.54,1.54,0,0,1,.18-.56,9.56,9.56,0,0,1,.75-1c.67-.8,1.37-1.59,2.06-2.38l3.22-2.88C142.41,105.52,142.89,105.14,143.37,104.74Z" transform="translate(-11.67 -9.48)"/><path class="b" d="M176.12,77.34h16.54c.23,0,.46,0,.69,0,1.36-.06,1.94.68,2.09,2a5.77,5.77,0,0,1,0,.72,1.81,1.81,0,0,1-1.62,1.83,2.18,2.18,0,0,1-.92,0,5.14,5.14,0,0,0-1.83-.17H187.5a6.25,6.25,0,0,1-2.06-.19,2.81,2.81,0,0,0-.92,0c-2.43,0-4.86,0-7.29,0a12.78,12.78,0,0,1-1.37-.16c-.34,0-.69-.06-1-.06-2.35,0-4.7,0-7.06,0a12.57,12.57,0,0,1-1.36-.15c-.35,0-.69-.07-1-.07h-6.13a7.3,7.3,0,0,1-.81,0,1.83,1.83,0,0,1-1.63-1.85,1.81,1.81,0,0,1,1.62-1.73,7.22,7.22,0,0,1,.93,0Z" transform="translate(-11.67 -9.48)"/><path class="b" d="M176.24,84.79H192.9c.23,0,.46,0,.69,0a1.79,1.79,0,0,1,1.85,1.83,6.15,6.15,0,0,1,0,1A1.47,1.47,0,0,1,194,89.11c-.5,0-1,0-1.5,0-.73,0-1.47,0-2.2,0a4.64,4.64,0,0,1-1.48-.16,3.22,3.22,0,0,0-1-.07c-2.28,0-4.55,0-6.83,0-.45,0-.91-.11-1.37-.15a8.76,8.76,0,0,0-1-.07h-4.16a7.81,7.81,0,0,1-2.41-.19,2.81,2.81,0,0,0-.92,0c-2.43,0-4.86,0-7.29,0-.41,0-.83-.09-1.25-.13s-.69-.08-1-.09c-1,0-2,0-3,0a1.8,1.8,0,0,1-1.65-1.54,1.86,1.86,0,0,1,1.39-1.81c.3,0,.61,0,.92,0Z" transform="translate(-11.67 -9.48)"/><path class="b" d="M176,110.27h17.58a1.81,1.81,0,0,1,1.87,1.82c0,.2,0,.41,0,.61a1.79,1.79,0,0,1-1.67,1.89,2.59,2.59,0,0,1-1,0,6.63,6.63,0,0,0-2.17-.18H185a7.52,7.52,0,0,1-2.41-.2,3.12,3.12,0,0,0-.92,0c-2.35,0-4.7,0-7.06,0-.41,0-.83-.09-1.25-.13a9,9,0,0,0-1-.09h-3.93a9.5,9.5,0,0,1-2.76-.2,2.82,2.82,0,0,0-.92,0H159a2.28,2.28,0,0,1-1.23-.23,1.78,1.78,0,0,1-.62-2.57,1.09,1.09,0,0,1,1-.57c.31,0,.62,0,.92,0Z" transform="translate(-11.67 -9.48)"/><path class="b" d="M192.64,148.73l0,4.35c-3.07-.47-6.15-.15-9.22-.25a5.1,5.1,0,0,1-1.6-.16,3.22,3.22,0,0,0-1-.07c-2.35,0-4.7,0-7,0a12.75,12.75,0,0,1-1.37-.15c-.34,0-.69-.07-1-.07H164.2a4.6,4.6,0,0,1-1.6-.17,2.72,2.72,0,0,0-.91-.06c-1,0-2.08,0-3.12,0a1.73,1.73,0,0,1-1.67-1.24,1.31,1.31,0,0,1,.26-1.44,1.93,1.93,0,0,1,1.62-.7c4.7,0,9.4,0,14.1,0Z" transform="translate(-11.67 -9.48)"/><path class="q" d="M228.25,149.13,221,145.91a3.42,3.42,0,0,0-.75-.29.88.88,0,0,0-1.1.63,1,1,0,0,0,.43,1.24c.54.3,1.11.55,1.67.8l7.11,3.19a1.3,1.3,0,0,1,.18.15c0,.44,0,.87,0,1.31-1.24-.64-2.48-1.27-3.7-1.93-3.48-1.88-6.94-3.76-10.41-5.66-1-.54-1.94-1.11-2.91-1.67l2.83-.92a18.44,18.44,0,0,0,5-2.62c.87-.63,1.67-1.39,2.49-2.11.15-.14.38-.3.22-.59h0c.23.07.33,0,.25-.25h0c.06,0,.16.09.19.06a3.06,3.06,0,0,0,1.21-1.51h0a1.47,1.47,0,0,0,.75-.92c0-.08,0-.2-.05-.3v0c.1,0,.25,0,.3,0a4.48,4.48,0,0,0,.47-.67c.58-1.09,1.14-2.18,1.71-3.27a15.15,15.15,0,0,1,.32,2.6c.17,1.7.11,3.42.41,5.1,0,0,0,.08,0,.12.09,1.51.12,3,.28,4.53s.14,3.09.37,4.63A10,10,0,0,1,228.25,149.13Z" transform="translate(-11.67 -9.48)"/><path class="b" d="M184,141.27c.92.47,1.85.91,2.76,1.41,1.58.86,3.15,1.76,4.72,2.64.13.08.25.18.37.27a43,43,0,0,1-5.08,0c-3.12-.36-6.23-.09-9.34-.21-.42,0-.84-.1-1.25-.15s-.69-.07-1-.07h-6.47A4.85,4.85,0,0,1,167,145a3.48,3.48,0,0,0-1-.07c-1.73,0-3.47,0-5.2,0-.46,0-.91-.12-1.37-.16s-.76,0-1.15-.07a1.54,1.54,0,0,1-1.35-2.18,1.75,1.75,0,0,1,1.6-1.18c.31,0,.61,0,.92,0h23Z" transform="translate(-11.67 -9.48)"/><path class="b" d="M195.68,119.41l-2.27,2.41h-.12c-1.8-.09-3.61.19-5.4-.23a1.29,1.29,0,0,0-.34,0c-3.11-.11-6.23.24-9.33-.24l-7.62,0c-1-.51-2-1-2.95-1.52l-2.76-1.4v0l-.21-.22-.76-.71c.42,0,.84,0,1.27,0h28a1.76,1.76,0,0,0,.23,0,1.72,1.72,0,0,1,2,1.29C195.46,119,195.57,119.2,195.68,119.41Z" transform="translate(-11.67 -9.48)"/><path class="b" d="M163.93,117.53l.76.71.21.22v0c.08.43.21.85.25,1.28a10.06,10.06,0,0,1-1.29,6.09,4.09,4.09,0,0,1-2.07,1.84,4.89,4.89,0,0,1-1.82.17,4.3,4.3,0,0,1-1.91-1.49c-.94-1.15-1.84-2.33-2.77-3.5-.54-.67-1.09-1.33-1.64-2l-1.5-1.81a2,2,0,0,1-.46-1.31,2.67,2.67,0,0,0,.55-1.46,3.44,3.44,0,0,1,2.15-.11l2.84.4,1.93.29Z" transform="translate(-11.67 -9.48)"/><path class="i" d="M203.55,99.41c0-.4-.06-.8-.07-1.2a3.48,3.48,0,0,1,2.69-3.71,8.63,8.63,0,0,1,5.25,0,4.57,4.57,0,0,1,2.64,2,20,20,0,0,1,1.05,2.13c.22.51.34,1.06.53,1.58a8.36,8.36,0,0,0,1.21,2.45,5.07,5.07,0,0,1,1,2.29,3.81,3.81,0,0,1-.14,2,1.8,1.8,0,0,1-1.93,1.38l-.69-.05a2.47,2.47,0,0,0-2.06.57,1.78,1.78,0,0,1-1.28.46l-.5-.28a1.25,1.25,0,0,1-.71-1.34c0-.27,0-.55,0-.82.05,0,.13-.09.15-.15s0-.12-.07-.18-.05.06-.06.1a1.64,1.64,0,0,0,0,.23,2.18,2.18,0,0,0-.22.5,11.11,11.11,0,0,0-.07,1.17l-.69-.78a2.51,2.51,0,0,0,.28-1.37c.45-.87.92-1.74,1.36-2.62.21-.42.36-.87.55-1.31.4-.93-.1-1.59-.64-2.23-.06-.07-.21-.06-.32-.08-.15-.37-.29-.75-.45-1.11a1.76,1.76,0,0,0-2-1.08,1.57,1.57,0,0,0-1.11.77l-1-1c-.54,1.36-.54,1.36-1.25,2A2.55,2.55,0,0,0,203.55,99.41Zm9.27-1.65-.12-.1.1.12L213,98l.23.24.23.24a.63.63,0,0,1,0,.09l.07,0-.1-.11-.23-.24L213,98Zm.46,4.58.08,0s0,0,0-.07l-.1.11-.23.24-.23.48-.08,0s0,0,0,.06l.1-.1.23-.48Zm-2.09,3.13.23-.48.24-.24c.05,0,.13-.09.15-.15s0-.12-.07-.17-.05,0-.06.09a1.66,1.66,0,0,0,0,.22l-.23.24-.23.49s-.06,0-.08,0,0,0,0,.07Zm1-8.14c-.13-.09-.25-.22-.38-.23a6,6,0,0,0-1.59,0,7.25,7.25,0,0,1-1.46.16c-.2,0-.39,0-.71.09a1.42,1.42,0,0,0,.34.13,7.35,7.35,0,0,0,1.82,0,9.12,9.12,0,0,1,1.88,0S212.15,97.4,212.21,97.33Zm1.67,3.89a2.09,2.09,0,0,0,.17-2s-.15-.06-.29-.11a6.25,6.25,0,0,1,.17,1C213.92,100.5,213.6,100.82,213.88,101.22Zm-6.32-4s0-.07,0-.08l-.09,0,0,.13Z" transform="translate(-11.67 -9.48)"/><path class="a" d="M143.13,75.66l2.64-3.09c.35-.36.69-.73,1-1.09a.43.43,0,0,1,.61-.07.5.5,0,0,1,.14.64c-.26.52-.54,1-.82,1.55a40.39,40.39,0,0,0-2.5,4.34,8,8,0,0,0-.48.66c-1,1.7-2,3.41-3,5.12-.64,1.09-1.27,2.19-1.92,3.28a3.9,3.9,0,0,1-1.45,1.51,1.42,1.42,0,0,1-2.1-.48,3.81,3.81,0,0,1-.29-.52c-.57-1.09-1.14-2.18-1.72-3.26l-2.44-4.62a6.12,6.12,0,0,1-.44-1,.59.59,0,0,1,.31-.7.51.51,0,0,1,.63.12,1.88,1.88,0,0,1,.24.25l2.51,3.14c.23.27.45.55.7.79a1.48,1.48,0,0,0,1.92.22,7.28,7.28,0,0,0,1.31-1c.77-.77,1.5-1.6,2.22-2.43C141.23,78,142.18,76.8,143.13,75.66Z" transform="translate(-11.67 -9.48)"/><path class="a" d="M146.59,138.14l-2.33,4c-.19.26-.39.5-.55.77-1.58,2.7-3.15,5.41-4.74,8.11a6.26,6.26,0,0,1-.84,1.13,3.48,3.48,0,0,1-.95.67,1.38,1.38,0,0,1-1.83-.52,2.85,2.85,0,0,1-.3-.51l-4.28-8.1a5.77,5.77,0,0,1-.35-.76.55.55,0,0,1,.18-.64.53.53,0,0,1,.65,0,1.77,1.77,0,0,1,.42.4c.36.42.71.85,1.05,1.28.6.74,1.16,1.5,1.78,2.21a1.7,1.7,0,0,0,2.39.42,4.24,4.24,0,0,0,1-.76c1.21-1.3,2.39-2.61,3.56-3.94.44-.5.84-1,1.26-1.56l2.72-3.15c.39-.44.78-.87,1.18-1.3a1,1,0,0,1,.35-.3.58.58,0,0,1,.43,0,.53.53,0,0,1,.2.39,1.45,1.45,0,0,1-.19.55C147.15,137.11,146.87,137.62,146.59,138.14Z" transform="translate(-11.67 -9.48)"/><path class="a" d="M168.37,53.05a5.78,5.78,0,0,1-3.87,5.67,5.37,5.37,0,0,1-6.83-3.5A6.16,6.16,0,0,1,159,48.67,5.4,5.4,0,0,1,168.09,51a7.7,7.7,0,0,1,.23,1.06A7.62,7.62,0,0,1,168.37,53.05Zm-8.62-.17a3.8,3.8,0,0,0,.32,1.84,2.93,2.93,0,0,0,5.05.79,3.93,3.93,0,0,0,0-5,2.87,2.87,0,0,0-4.62.09A3.43,3.43,0,0,0,159.75,52.88Z" transform="translate(-11.67 -9.48)"/><path class="a" d="M142,53V49.15a5.89,5.89,0,0,1,0-.84,1.06,1.06,0,0,1,1.06-1,35.71,35.71,0,0,1,4.39,0c2.54.27,3.57,2.27,3.19,4.6a3.52,3.52,0,0,1-1.15,2.15,1.21,1.21,0,0,0-.27,1.8c.23.41.52.79.73,1.22a1.2,1.2,0,0,1-.15,1.34,1,1,0,0,1-1,.35,1.13,1.13,0,0,1-.58-.35,7.23,7.23,0,0,1-.68-1c-.39-.6-.76-1.2-1.13-1.82a1.08,1.08,0,0,0-1.32-.45,1,1,0,0,0-.72,1c-.06.51,0,1,0,1.56a1.08,1.08,0,0,1-1.16,1.07,1.11,1.11,0,0,1-1.11-1,4.58,4.58,0,0,1,0-.83Zm4.16-.16v0a7.13,7.13,0,0,0,1-.07,1.67,1.67,0,0,0,1.21-1.56,1.41,1.41,0,0,0-1.19-1.53,13,13,0,0,0-2.07,0,.82.82,0,0,0-.77.76,5.75,5.75,0,0,0,0,1.55,1,1,0,0,0,1,.84C145.62,52.84,145.89,52.83,146.16,52.83Z" transform="translate(-11.67 -9.48)"/><path class="a" d="M170.41,53V49.25c0-.24,0-.48,0-.72,0-.88.37-1.24,1.2-1.26s1.7,0,2.55,0h1.5a3.66,3.66,0,0,1,2.05.74,2.53,2.53,0,0,1,1.06,1.38,4.31,4.31,0,0,1-.88,4.66,1.26,1.26,0,0,0-.23,1.89c.2.34.43.67.62,1a1.27,1.27,0,0,1-.33,1.69,1.19,1.19,0,0,1-1.61-.45c-.37-.56-.71-1.14-1.06-1.72l-.58-.89a.94.94,0,0,0-.78-.44,1,1,0,0,0-1.19,1c0,.4,0,.81,0,1.2a2.54,2.54,0,0,1-.23.91,1,1,0,0,1-1.19.52,1.07,1.07,0,0,1-.86-1,7.85,7.85,0,0,1,0-.84Zm4.16-3.32h0a8.83,8.83,0,0,0-1,0,.84.84,0,0,0-.77.76,7.92,7.92,0,0,0,0,1.54.83.83,0,0,0,.73.81,8.78,8.78,0,0,0,2.05,0,1.46,1.46,0,0,0,1.17-1.65,1.38,1.38,0,0,0-1.35-1.46C175.1,49.63,174.83,49.65,174.57,49.65Z" transform="translate(-11.67 -9.48)"/><path class="a" d="M200.76,53v-4a5.77,5.77,0,0,1,0-.72,1.06,1.06,0,0,1,1-1.07h.12c1.85,0,3.7,0,5.55,0a1.08,1.08,0,0,1,1.13,1,1.13,1.13,0,0,1-.85,1.26,3,3,0,0,1-.79.1h-2.2a7.3,7.3,0,0,0-.81,0,1,1,0,0,0-.88.94,1.11,1.11,0,0,0,.75,1.21,3.55,3.55,0,0,0,.8.06c.77,0,1.55,0,2.32,0a1.11,1.11,0,0,1,.22,2.16,5.07,5.07,0,0,1-1,.11c-.66,0-1.31,0-2,0a1.07,1.07,0,0,0-1.1,1.24,1,1,0,0,0,.92,1c.23,0,.46,0,.69,0,.81,0,1.62,0,2.43,0a2.75,2.75,0,0,1,.9.16,1,1,0,0,1,.63,1.26,1.09,1.09,0,0,1-.94.92,3.49,3.49,0,0,1-.46,0h-5.09a2.08,2.08,0,0,1-.35,0,1.06,1.06,0,0,1-1-1.08c0-.64,0-1.28,0-1.92Z" transform="translate(-11.67 -9.48)"/><path class="a" d="M135.09,47.27c.58,0,1.16,0,1.74,0a3.56,3.56,0,0,1,3.37,2.77,4.18,4.18,0,0,1-1.38,4.5,3.55,3.55,0,0,1-1.6.65c-.53.08-1.07.1-1.6.14a1.14,1.14,0,0,0-1.22,1.16c0,.4,0,.8,0,1.2a1.09,1.09,0,0,1-1.24,1.1,1,1,0,0,1-.85-.54,2.11,2.11,0,0,1-.21-1.16V48.94a4,4,0,0,1,0-.6,1.11,1.11,0,0,1,1.17-1.07c.61,0,1.23,0,1.84,0Zm.81,2.38h-.58a.87.87,0,0,0-.87.81,8.15,8.15,0,0,0,0,1.78.83.83,0,0,0,.67.75,3.32,3.32,0,0,0,1.82-.07,1.74,1.74,0,0,0,1.06-1.8,1.49,1.49,0,0,0-1.42-1.46C136.36,49.63,136.13,49.65,135.9,49.65Z" transform="translate(-11.67 -9.48)"/><path class="a" d="M214.59,59a6.76,6.76,0,0,1-3.49-1,1.18,1.18,0,0,1-.62-1.07,1.06,1.06,0,0,1,1.48-1.1,12,12,0,0,1,1.25.61,2.36,2.36,0,0,0,1.47.23,2.05,2.05,0,0,0,.85-.32.93.93,0,0,0,0-1.52,7.29,7.29,0,0,0-1.37-.6,11.31,11.31,0,0,1-2.17-.8,3.09,3.09,0,0,1-1.54-3.21,3.38,3.38,0,0,1,3.16-3.12,5.38,5.38,0,0,1,3.33.75,1.23,1.23,0,0,1,.4,1.75,1,1,0,0,1-1.21.42c-.36-.13-.71-.3-1.07-.45a2.13,2.13,0,0,0-1.36-.14,1.41,1.41,0,0,0-.69.39.88.88,0,0,0,.08,1.27,4.37,4.37,0,0,0,1,.53c.47.18,1,.29,1.44.45a7.15,7.15,0,0,1,1,.39,3.34,3.34,0,0,1,1.45,4.5,3.2,3.2,0,0,1-2.06,1.8A7.08,7.08,0,0,1,214.59,59Z" transform="translate(-11.67 -9.48)"/><path class="c" d="M171.8,134.39a10.35,10.35,0,0,0,.76-2.17c.3,0,.47-.16.38-.5.32-.29.63-.58,1-.85a12.34,12.34,0,0,1,1.28-1,.65.65,0,0,1,1,.34l-.41,1.21a2.12,2.12,0,0,0,.51-.19c.27-.23.49-.52.77-.73a1.28,1.28,0,0,1,.62-.24.55.55,0,0,1,.59.69c-.16.53-.4,1-.61,1.54-.06.14-.14.27-.2.39.15.21.29.17.42.07s.35-.32.55-.44a.66.66,0,0,1,.76,0,.63.63,0,0,1,.22.74c-.08.35-.11.7-.16,1.05l-.1.11.11-.09a7.42,7.42,0,0,1,.77-.22c.38-.08.64.13.6.51s-.16.85-.24,1.28c-.28.11-.25.31-.17.54a2.64,2.64,0,0,0-1.66,1.72l-1,.43a4.67,4.67,0,0,1-.87-.43,3.05,3.05,0,0,0-.9-.5,1.36,1.36,0,0,1-.64-.47,1.31,1.31,0,0,0-.85-.55.87.87,0,0,1-.5-.28C173.19,135.61,172.31,135.19,171.8,134.39Z" transform="translate(-11.67 -9.48)"/><path class="b" d="M135.58,105c-.63.52-1.26,1-1.89,1.57A58.3,58.3,0,0,0,128,112c-.7.8-1.36,1.63-2,2.45l-.61.71c0-1.84,0-3.67,0-5.51a4.43,4.43,0,0,1,1.18-2.91,3.62,3.62,0,0,1,2-1.37,8.48,8.48,0,0,1,1-.15,13.16,13.16,0,0,0,2.17-.19A12.7,12.7,0,0,1,134,105C134.51,105,135,105,135.58,105Z" transform="translate(-11.67 -9.48)"/><path class="b" d="M136.85,127.08l2.05-1.52a44.86,44.86,0,0,0,8.13-7.87,1.88,1.88,0,0,1,.26-.22c0,1.6.06,3.2,0,4.8a5.2,5.2,0,0,1-3.88,5,2.68,2.68,0,0,1-.69,0,18.2,18.2,0,0,1-3.21-.18A13.77,13.77,0,0,0,136.85,127.08Z" transform="translate(-11.67 -9.48)"/><path class="a" d="M190.83,54.25c0,1.12,0,2.24,0,3.36a1.09,1.09,0,0,1-1.28,1.18,1.12,1.12,0,0,1-1-1,4.69,4.69,0,0,1,0-.84V51.79c0-.23,0-.48,0-.71.09-1-.46-1.52-1.38-1.43a3.28,3.28,0,0,1-.7,0,1.22,1.22,0,0,1-1.07-1.2,1.16,1.16,0,0,1,1.07-1.18c.46,0,.92,0,1.39,0h4.85a1.15,1.15,0,0,1,1.3,1.48,1.14,1.14,0,0,1-1,.9c-.22,0-.46,0-.69,0-1.18,0-1.46.33-1.48,1.6,0,1,0,2,0,3Z" transform="translate(-11.67 -9.48)"/><path class="a" d="M183.58,53.17V57a4.68,4.68,0,0,1-.05.84,1.05,1.05,0,0,1-1,.94,1.09,1.09,0,0,1-1.2-.88,3.35,3.35,0,0,1-.09-.83V48.91a4.28,4.28,0,0,1,.05-.72,1.07,1.07,0,0,1,1.16-.93,1.05,1.05,0,0,1,1.1.87,4.3,4.3,0,0,1,.07.95Z" transform="translate(-11.67 -9.48)"/><path class="a" d="M155.17,53.15V57a5.89,5.89,0,0,1,0,.84,1.07,1.07,0,0,1-1,1A1,1,0,0,1,153,58a2.83,2.83,0,0,1-.09-.82q0-4.2,0-8.4c0-.16,0-.32,0-.48A1.08,1.08,0,0,1,154,47.27a1.07,1.07,0,0,1,1.13,1.08c0,.24,0,.48,0,.72Z" transform="translate(-11.67 -9.48)"/><path class="a" d="M195.88,53V49c0-.28,0-.57,0-.84a1.06,1.06,0,0,1,.8-.91,1,1,0,0,1,1.28.54,2.4,2.4,0,0,1,.19.92c0,.63,0,1.27,0,1.91V56.9a5.72,5.72,0,0,1,0,.83A1.12,1.12,0,0,1,197,58.8a1.07,1.07,0,0,1-1.09-1.13c0-.52,0-1,0-1.56Z" transform="translate(-11.67 -9.48)"/><path class="b" d="M143.37,104.74c-.48.4-1,.78-1.42,1.19l-3.22,2.88c-.23-.28-.55-.21-.85-.22l-3.87,0c.67-.57,1.32-1.17,2-1.71.94-.73,1.91-1.42,2.87-2.12Z" transform="translate(-11.67 -9.48)"/><path class="c" d="M209.52,107.8l.69.78a11.11,11.11,0,0,1,.07-1.17,2.18,2.18,0,0,1,.22-.5h0c0,.27,0,.55,0,.82a1.25,1.25,0,0,0,.71,1.34l.5.28c.25.64.83.79,1.37,1a3.39,3.39,0,0,1-1.56,1.67c-.5.28-1.07.42-1.59.67a2.09,2.09,0,0,1-1.87-.08c-.64-.28-.81-.67-.66-1.42a5.73,5.73,0,0,0,.07-.58,1.49,1.49,0,0,0,1.18-1.54v-.7Z" transform="translate(-11.67 -9.48)"/><path class="i" d="M208.64,108.36v.7a3,3,0,0,1-2-.39,1.64,1.64,0,0,0-1.65-.15,1.51,1.51,0,0,1-2-.48c0-.21,0-.41,0-.62l.18-1.47a3.55,3.55,0,0,1,.73-.26c.41,0,.83,0,1.24,0a2.78,2.78,0,0,1,.27.21,3.11,3.11,0,0,0,2.56,1.05,2.27,2.27,0,0,1,.45,0A2.19,2.19,0,0,0,208.64,108.36Z" transform="translate(-11.67 -9.48)"/><path class="r" d="M205.18,105.67c-.41,0-.83,0-1.24,0a3.55,3.55,0,0,0-.73.26h-.35a1.58,1.58,0,0,0,0-1.65,4.77,4.77,0,0,1-.22-3.67c.07-.23.16-.44.44-.47v0a5.83,5.83,0,0,0-.26,3,2.57,2.57,0,0,0,.94,1.83.82.82,0,0,0,.9.36,1.22,1.22,0,0,0,.78-.64,2.8,2.8,0,0,0,.34-2.26,5.06,5.06,0,0,1-.14-1.38c.26.13.49.42.86.07a4.55,4.55,0,0,1,.69-2.43,1.57,1.57,0,0,1,1.11-.77,1.76,1.76,0,0,1,2,1.08c.16.36.3.74.45,1.11,0,.56,0,1.12,0,1.68a2,2,0,0,1-.7,1.67l.33-1.37a3.52,3.52,0,0,0-.78-3.32,1,1,0,0,0-1-.35,1.85,1.85,0,0,0-1.3,1.06,2.66,2.66,0,0,0-.14,2c0,.11.12.26.08.33-.29.62.07,1.09.35,1.54a1.28,1.28,0,0,0,1.89.44c.2-.11.4-.2.6-.29a.74.74,0,0,1-.52.72,12,12,0,0,1-1.22.29h0a3.51,3.51,0,0,1-1.56-2.1.43.43,0,0,0-.32-.26c-.24,0-.28.24-.26.44a7.28,7.28,0,0,1-.28,2.32Z" transform="translate(-11.67 -9.48)"/><path class="h" d="M152.23,116.25a2.67,2.67,0,0,1-.55,1.46,10.93,10.93,0,0,1-1-.74.74.74,0,0,1-.26-.9A3.1,3.1,0,0,1,152.23,116.25Z" transform="translate(-11.67 -9.48)"/><path class="o" d="M226.86,130.6c-.57,1.09-1.13,2.18-1.71,3.27a4.48,4.48,0,0,1-.47.67c-.05.05-.2,0-.3,0a4.71,4.71,0,0,1,.28-.65,19.43,19.43,0,0,0,1.78-3.49c.09-.23.21-.42.47-.45C226.9,130.18,226.88,130.39,226.86,130.6Z" transform="translate(-11.67 -9.48)"/><path class="r" d="M203.55,99.41a2.55,2.55,0,0,1,1.38.28c.09.16.17.32.25.48l-.78-.36a.46.46,0,0,0-.66.16l-.41,0-.06-.07Z" transform="translate(-11.67 -9.48)"/><path class="n" d="M203,107.42c0,.21,0,.41,0,.62-.3-.11-.31-.41-.41-.65h0Z" transform="translate(-11.67 -9.48)"/><path class="r" d="M202.63,107.39a.78.78,0,0,1,0-1h0v1Z" transform="translate(-11.67 -9.48)"/><path class="r" d="M202.63,106.44l.23-.49h0l-.23.49Z" transform="translate(-11.67 -9.48)"/><path class="r" d="M203.08,100.16c.06-.09.13-.18.19-.28l.06.07-.24.23Z" transform="translate(-11.67 -9.48)"/><path class="f" d="M272.94,90.37c-.25.27-.39.53-.6.64a1.47,1.47,0,0,1-.78.08c-.62-.1-.87-.53-.92-1.24A12.43,12.43,0,0,1,272.94,90.37Z" transform="translate(-11.67 -9.48)"/><polygon class="k" points="84.31 88.63 84.37 88.61 84.36 88.67 84.31 88.63"/><path class="k" d="M94.71,96.91h-.08s0-.07,0-.08a.38.38,0,0,1,.1,0Z" transform="translate(-11.67 -9.48)"/><path class="s" d="M73.9,99.62l-.24-.13Z" transform="translate(-11.67 -9.48)"/><path class="h" d="M70,95.17c0,.63-.08,1.26-.13,1.88a3.23,3.23,0,0,1-1.51-2.55Z" transform="translate(-11.67 -9.48)"/><path class="t" d="M73.19,92.19a.92.92,0,0,1-.19.89,2.1,2.1,0,0,1-.73.55,1.22,1.22,0,0,1-1.45-.42.46.46,0,0,1,.08-.72,2.1,2.1,0,0,0,.39.21A2.17,2.17,0,0,0,73.19,92.19Z" transform="translate(-11.67 -9.48)"/><path class="f" d="M73.19,92.19a2.17,2.17,0,0,1-1.9.51,2.1,2.1,0,0,1-.39-.21A6.9,6.9,0,0,1,73.19,92.19Z" transform="translate(-11.67 -9.48)"/><path class="m" d="M74.14,87.9l0,.42-1.52.27c.34-.32.45-.5.59-.54a8.55,8.55,0,0,1,1-.13Z" transform="translate(-11.67 -9.48)"/><path class="m" d="M70.61,91a.54.54,0,0,1-.57-.53.38.38,0,0,1,.3-.43c.17,0,.47.19.46.41A2.73,2.73,0,0,1,70.61,91Z" transform="translate(-11.67 -9.48)"/><path class="h" d="M73.9,89.69c-.08.08-.2.28-.37.35s-.34-.23-.32-.5a.41.41,0,0,1,.31-.42C73.72,89.07,73.91,89.29,73.9,89.69Z" transform="translate(-11.67 -9.48)"/><path class="m" d="M69.43,89.82c.21-.85.29-.9,1-.83C70.26,89.48,69.72,89.48,69.43,89.82Z" transform="translate(-11.67 -9.48)"/><path class="c" d="M197.12,136h1.11a9.32,9.32,0,0,1,2.17.19,5.35,5.35,0,0,0,1.27,0c.58,2.15,1.17,4.3,1.75,6.45a6,6,0,0,1-2,.27l-1.45-.3c-.11,0-.22-.09-.33-.11a1.3,1.3,0,0,0-1.64.71c-.3.59-.83,1-1,1.73a.43.43,0,0,0-.52.15.68.68,0,0,1-.73-.38c0-.09.07-.19.11-.29.09-.41.19-.82.28-1.24l.1-.11-.11.1-.93.85-.4.33c-.65,0-.65,0-.74-.6l.18-.27c.19-.33.39-.65.55-1a4.58,4.58,0,0,0,.19-.75l.08,0s0,0,0-.07l-.11.1a5.12,5.12,0,0,1-1.92,1,.2.2,0,0,1-.15-.06,2,2,0,0,1,.31-1.46c.13-.16.1-.45.14-.68l.08,0s0,0,0-.06l-.09.09c-.36.22-.72.45-1.09.66-.08,0-.21,0-.4,0a2.93,2.93,0,0,1-.13-.51,2.27,2.27,0,0,1,.1-.58,8.06,8.06,0,0,1,1.35-2.6,2.81,2.81,0,0,1,1.58-1.11A7.51,7.51,0,0,1,197.12,136Z" transform="translate(-11.67 -9.48)"/><path class="m" d="M196.49,145.13A.43.43,0,0,1,197,145l4.27,2.39,10.41,5.74c2,1.09,4,2.16,5.93,3.25l6.65,3.64,4.39,2.42c.22.12.53.16.55.62a1.17,1.17,0,0,1-.39,0l-2.36-1.28-8.38-4.59c-2.08-1.14-4.16-2.27-6.24-3.42l-8.77-4.84c-1.43-.79-2.88-1.54-4.31-2.33A10.73,10.73,0,0,1,196.49,145.13Z" transform="translate(-11.67 -9.48)"/><path class="b" d="M240.72,159.81a2.62,2.62,0,0,0-.43-.39c-1.86-1-3.74-2-5.61-3a5.24,5.24,0,0,0-.76-.26l-.85-.69c0-.56.09-1.11.13-1.67a15.7,15.7,0,0,1,2.76,1.13c1.37.58,2.73,1.2,4.09,1.83a13.73,13.73,0,0,1,1.29.73l-.06,2.41Z" transform="translate(-11.67 -9.48)"/><path class="m" d="M192.91,142.71a.2.2,0,0,0,.15.06l1.19.75-.18.27a7.71,7.71,0,0,1-1.07-.43c-2.63-1.43-5.24-2.87-7.86-4.31l-4.29-2.36a6.08,6.08,0,0,0-.64-.25c-.08-.23-.11-.43.17-.54l6.62,3.61,4.56,2.54C192,142.29,192.46,142.49,192.91,142.71Z" transform="translate(-11.67 -9.48)"/><path class="f" d="M233.2,153.75c0,.56-.09,1.11-.13,1.67-.68-.34-1.38-.66-2-1-.83-.46-1.65-1-2.47-1.45,0-.44,0-.87,0-1.31,1.07.46,2.16.91,3.23,1.38C232.28,153.23,232.73,153.5,233.2,153.75Z" transform="translate(-11.67 -9.48)"/><path class="o" d="M222.08,137.44c.16.29-.07.45-.22.59-.82.72-1.62,1.48-2.49,2.11a18.44,18.44,0,0,1-5,2.62l-2.83.92-1.51,0c.23-.34.6-.32.93-.39a20,20,0,0,0,10.48-5.37A5,5,0,0,1,222.08,137.44Z" transform="translate(-11.67 -9.48)"/><path class="m" d="M195.87,144.46c0,.1-.08.2-.11.29l-.95-.36.4-.33Z" transform="translate(-11.67 -9.48)"/><path class="m" d="M239.2,168.5a1.46,1.46,0,0,1,.48,0c.48.25.94.54,1.41.81q3.81,2.13,7.61,4.27a3.64,3.64,0,0,1,.59.37c.14.12.11.28-.1.46l-9.76-5.56C239.35,168.81,239.31,168.67,239.2,168.5Z" transform="translate(-11.67 -9.48)"/><path class="o" d="M210.33,134.32l.19-.28a7.08,7.08,0,0,0,3.55-2.93,18.78,18.78,0,0,0,2.22-4.32c.17-.44.34-.88.5-1.31.27,0,.31.15.26.32a16.72,16.72,0,0,1-4.12,7.25,8.2,8.2,0,0,1-1.52,1.08C211.09,134.32,210.74,134.54,210.33,134.32Z" transform="translate(-11.67 -9.48)"/><path class="o" d="M223.7,135.76a3.06,3.06,0,0,1-1.21,1.51s-.13,0-.19-.06a4.2,4.2,0,0,1,1.2-1.5S223.63,135.74,223.7,135.76Z" transform="translate(-11.67 -9.48)"/><path class="o" d="M224.39,134.55c0,.1.08.22.05.3a1.47,1.47,0,0,1-.75.92c0-.07-.09-.16-.06-.21A2,2,0,0,1,224.39,134.55Z" transform="translate(-11.67 -9.48)"/><path class="o" d="M222.31,137.2c.08.25,0,.32-.25.25Z" transform="translate(-11.67 -9.48)"/><path class="g" d="M170.6,121.36l7.62,0c3.1.48,6.22.13,9.33.24a1.29,1.29,0,0,1,.34,0c1.79.42,3.6.14,5.4.23h.12a31.79,31.79,0,0,1-3.53,3.62,39.52,39.52,0,0,1-4.65,3.53,1.51,1.51,0,0,0-.24.26c-1.4-.73-2.82-1.45-4.22-2.21-2.29-1.24-4.56-2.49-6.84-3.75C172.81,122.65,171.71,122,170.6,121.36Z" transform="translate(-11.67 -9.48)"/><path class="m" d="M172.94,131.72c.09.34-.08.47-.38.5-1-.58-2-1.17-3-1.74s-1.77-.95-2.65-1.45c-.17-.09-.47-.17-.28-.57.3-.05.55.16.81.3l4.78,2.65A6.07,6.07,0,0,0,172.94,131.72Z" transform="translate(-11.67 -9.48)"/><path class="g" d="M143.13,75.66c-.95,1.14-1.9,2.29-2.88,3.41-.72.83-1.45,1.66-2.22,2.43a7.28,7.28,0,0,1-1.31,1,1.48,1.48,0,0,1-1.92-.22c-.25-.24-.47-.52-.7-.79l-2.51-3.14a1.88,1.88,0,0,0-.24-.25.51.51,0,0,0-.63-.12.59.59,0,0,0-.31.7,6.12,6.12,0,0,0,.44,1l2.44,4.62c.58,1.08,1.15,2.17,1.72,3.26a3.81,3.81,0,0,0,.29.52,1.42,1.42,0,0,0,2.1.48A3.9,3.9,0,0,0,138.85,87c.65-1.09,1.28-2.19,1.92-3.28,1-1.71,2-3.42,3-5.12a8,8,0,0,1,.48-.66,10.11,10.11,0,0,1-.15,3.1,3.32,3.32,0,0,0,0,.95c0,2,0,3.93,0,5.89a11.35,11.35,0,0,1-.18,1.54,2.34,2.34,0,0,1-.95,1.43.85.85,0,0,1-.88.15,14.59,14.59,0,0,0-2.06-.23c-1.18-.25-2.39-.06-3.55-.26a24.94,24.94,0,0,0-3.1-.2,1.58,1.58,0,0,1-.58,0,6,6,0,0,0-2.06-.19,2.68,2.68,0,0,1-.8-.07,1.52,1.52,0,0,1-1.16-1.31,16.5,16.5,0,0,1-.19-2.62c0-2.4,0-4.81,0-7.21A8,8,0,0,1,128.8,77a1,1,0,0,1,1-.84c.35,0,.7,0,1,0a5.86,5.86,0,0,0,1.95-.19,3.11,3.11,0,0,1,.92,0c1.27,0,2.54,0,3.81,0a16.56,16.56,0,0,0,2.53-.18A20.15,20.15,0,0,1,143.13,75.66Z" transform="translate(-11.67 -9.48)"/><path class="g" d="M142.73,140.35c-.42.52-.82,1.06-1.26,1.56-1.17,1.33-2.35,2.64-3.56,3.94a4.24,4.24,0,0,1-1,.76,1.7,1.7,0,0,1-2.39-.42c-.62-.71-1.18-1.47-1.78-2.21-.34-.43-.69-.86-1.05-1.28a1.77,1.77,0,0,0-.42-.4.53.53,0,0,0-.65,0,.55.55,0,0,0-.18.64,5.77,5.77,0,0,0,.35.76l4.28,8.1a2.85,2.85,0,0,0,.3.51,1.38,1.38,0,0,0,1.83.52,3.48,3.48,0,0,0,.95-.67A6.26,6.26,0,0,0,139,151c1.59-2.7,3.16-5.41,4.74-8.11.16-.27.36-.51.55-.77a16.62,16.62,0,0,1,0,2.64c-.37,2.6-.1,5.2-.21,7.79a13.42,13.42,0,0,1-.26,1.89,1.38,1.38,0,0,1-1.19,1,7.84,7.84,0,0,1-2.41-.15,4.34,4.34,0,0,0-1.15-.08,8.25,8.25,0,0,1-2.52-.21,2.65,2.65,0,0,0-.8,0,4,4,0,0,1-1.6-.19.89.89,0,0,0-.46,0,26.71,26.71,0,0,1-3.79-.25c-.67-.05-.94-.32-1.09-1a10.52,10.52,0,0,1-.23-2.62c0-2.32,0-4.65,0-7a17.36,17.36,0,0,1,.25-2.5.81.81,0,0,1,.47-.63,2,2,0,0,1,1.12-.24c1.46,0,2.93,0,4.4,0,.41,0,.83-.09,1.25-.13a5.44,5.44,0,0,1,.8-.09Z" transform="translate(-11.67 -9.48)"/><path class="g" d="M134,108.56l3.87,0c.3,0,.62-.06.85.22-.69.79-1.39,1.58-2.06,2.38a9.56,9.56,0,0,0-.75,1,1.54,1.54,0,0,0-.18.56.75.75,0,0,0,.45.76.65.65,0,0,0,.75-.13,7.79,7.79,0,0,0,.51-.63,28.69,28.69,0,0,1,4.28-4.46c.46,0,.93,0,1.39,0,.84,0,1.18.35,1.16,1.25a19,19,0,0,1-.21,4.52,1.43,1.43,0,0,0,0,.36l0,4.07a27.28,27.28,0,0,1-3.4,3.48c-.59.55-1.27,1-1.91,1.47a6.15,6.15,0,0,0-2-.26,4.56,4.56,0,0,1-1.94-.18,1.21,1.21,0,0,0-.57,0,31.65,31.65,0,0,1-4-.27c-1,0-1.44-.61-1.44-1.62,0-1.64,0-3.27,0-4.91a6.79,6.79,0,0,0-.27-2.24,1.34,1.34,0,0,1,.14-.32A40.43,40.43,0,0,1,134,108.56Z" transform="translate(-11.67 -9.48)"/><path class="b" d="M128.51,114a6.79,6.79,0,0,1,.27,2.24c0,1.64,0,3.27,0,4.91,0,1,.48,1.6,1.44,1.62a31.65,31.65,0,0,0,4,.27,1.21,1.21,0,0,1,.57,0,4.56,4.56,0,0,0,1.94.18,6.15,6.15,0,0,1,2,.26c-.67.53-1.32,1.1-2,1.56a11,11,0,0,1-2.81,1.59h-.12c-1.5.11-3-.28-4.46-.27a1.37,1.37,0,0,1-.45-.07,5.18,5.18,0,0,1-3.3-3.25,5.07,5.07,0,0,1-.31-2c0-.87,0-1.75,0-2.63A16,16,0,0,1,128.51,114Z" transform="translate(-11.67 -9.48)"/><path class="b" d="M144.09,118.56l0-4.07a1.43,1.43,0,0,1,0-.36,19,19,0,0,0,.21-4.52c0-.9-.32-1.23-1.16-1.25-.46,0-.93,0-1.39,0a16.88,16.88,0,0,1,3.71-2.88,1.5,1.5,0,0,1,.52.21,4.06,4.06,0,0,1,1.58,3.4c0,1.71,0,3.42,0,5.14a19.2,19.2,0,0,1-2.27,3.09C144.93,117.75,144.49,118.14,144.09,118.56Z" transform="translate(-11.67 -9.48)"/><path class="f" d="M147.56,114.21c0-1.72-.05-3.43,0-5.14a4.06,4.06,0,0,0-1.58-3.4,1.5,1.5,0,0,0-.52-.21,7,7,0,0,1,2.55-1.31c1.77-.5,2.73.26,2.8,2.18a6.7,6.7,0,0,1-.33,2.23A17.32,17.32,0,0,1,147.56,114.21Z" transform="translate(-11.67 -9.48)"/><path class="f" d="M125.3,118.44c0,.88,0,1.76,0,2.63a5.07,5.07,0,0,0,.31,2,5.18,5.18,0,0,0,3.3,3.25,1.37,1.37,0,0,0,.45.07c1.49,0,3,.38,4.46.27h.12s0,.08-.07.09a10.42,10.42,0,0,1-6.3,1.57,3.6,3.6,0,0,1-2.49-1.38,5.39,5.39,0,0,1-1.22-3.18A8.84,8.84,0,0,1,125.3,118.44Z" transform="translate(-11.67 -9.48)"/><path class="t" d="M164.9,118.46l-.21-.22Z" transform="translate(-11.67 -9.48)"/><path class="c" d="M208.29,104.55a12,12,0,0,0,1.22-.29.74.74,0,0,0,.52-.72h0a2,2,0,0,0,.7-1.67c.05-.56,0-1.12,0-1.68.11,0,.26,0,.32.08.54.64,1,1.3.64,2.23-.19.44-.34.89-.55,1.31-.44.88-.91,1.75-1.36,2.62l-1.34.53a2.27,2.27,0,0,0-.45,0,3.11,3.11,0,0,1-2.56-1.05,2.78,2.78,0,0,0-.27-.21l.65-.72.1.09.17.19a.72.72,0,0,0,.47.84,1.28,1.28,0,0,0,1.31-.1,1.26,1.26,0,0,0,.52-1.34A.23.23,0,0,1,208.29,104.55Z" transform="translate(-11.67 -9.48)"/><path class="c" d="M205.18,100.17l-.25-.48c.71-.61.71-.61,1.25-2l1,1a4.55,4.55,0,0,0-.69,2.43c-.37.35-.6.06-.86-.07h0l-.23-.48h0l-.23-.48Z" transform="translate(-11.67 -9.48)"/><path class="m" d="M208.46,107l1.34-.53a2.51,2.51,0,0,1-.28,1.37l-.88.56A2.19,2.19,0,0,1,208.46,107Z" transform="translate(-11.67 -9.48)"/><path class="i" d="M212.21,97.33c-.06.07-.08.12-.1.12a9.12,9.12,0,0,0-1.88,0,7.35,7.35,0,0,1-1.82,0,1.42,1.42,0,0,1-.34-.13c.32,0,.51-.08.71-.09a7.25,7.25,0,0,0,1.46-.16,6,6,0,0,1,1.59,0C212,97.11,212.08,97.24,212.21,97.33Z" transform="translate(-11.67 -9.48)"/><path class="i" d="M213.88,101.22c-.28-.4,0-.72.05-1a6.25,6.25,0,0,0-.17-1c.14,0,.27.06.29.11A2.09,2.09,0,0,1,213.88,101.22Z" transform="translate(-11.67 -9.48)"/><path class="c" d="M211.65,104.74a1.66,1.66,0,0,1,0-.22s0-.06.06-.09.09.13.07.17-.1.1-.15.15Z" transform="translate(-11.67 -9.48)"/><path class="c" d="M210.5,106.91a1.64,1.64,0,0,1,0-.23s0-.06.06-.1.09.13.07.18-.1.1-.15.15Z" transform="translate(-11.67 -9.48)"/><path class="c" d="M207.56,97.2l-.08,0,0-.13.09,0S207.56,97.17,207.56,97.2Z" transform="translate(-11.67 -9.48)"/><path class="c" d="M211.19,105.47l.23-.49h0l-.23.48Z" transform="translate(-11.67 -9.48)"/><path class="c" d="M213,102.58l-.23.48h0l.23-.48Z" transform="translate(-11.67 -9.48)"/><path class="c" d="M213.27,98.25,213,98h0l.24.24Z" transform="translate(-11.67 -9.48)"/><path class="c" d="M213.27,102.34l.1-.11s0,.06,0,.07l-.08,0Z" transform="translate(-11.67 -9.48)"/><path class="i" d="M213,102.58l.23-.24h0l-.24.24Z" transform="translate(-11.67 -9.48)"/><path class="i" d="M213.5,98.49l-.23-.24h0l.23.24Z" transform="translate(-11.67 -9.48)"/><path class="c" d="M213,98l-.24-.23,0,0L213,98Z" transform="translate(-11.67 -9.48)"/><path class="c" d="M212.8,97.78l-.1-.12.12.1Z" transform="translate(-11.67 -9.48)"/><path class="c" d="M212.81,103.06l-.1.1s0,0,0-.06l.08,0Z" transform="translate(-11.67 -9.48)"/><path class="c" d="M213.51,98.49l.1.11-.07,0a.63.63,0,0,0,0-.09Z" transform="translate(-11.67 -9.48)"/><path class="c" d="M211.42,105l.23-.24h0l-.24.24Z" transform="translate(-11.67 -9.48)"/><path class="c" d="M211.19,105.47l-.1.1s0,0,0-.07,0,0,.08,0Z" transform="translate(-11.67 -9.48)"/><path class="g" d="M159.75,52.88a3.43,3.43,0,0,1,.72-2.26,2.87,2.87,0,0,1,4.62-.09,3.93,3.93,0,0,1,0,5,2.93,2.93,0,0,1-5.05-.79A3.8,3.8,0,0,1,159.75,52.88Z" transform="translate(-11.67 -9.48)"/><path class="g" d="M144.38,52a5.75,5.75,0,0,1,0-1.55.82.82,0,0,1,.77-.76,13,13,0,0,1,2.07,0,1.41,1.41,0,0,1,1.19,1.53,1.67,1.67,0,0,1-1.21,1.56,7.13,7.13,0,0,1-1,.07v0" transform="translate(-11.67 -9.48)"/><path class="g" d="M175.55,52.76a8.78,8.78,0,0,1-2.05,0,.83.83,0,0,1-.73-.81,7.92,7.92,0,0,1,0-1.54.84.84,0,0,1,.77-.76,8.83,8.83,0,0,1,1,0h0c.26,0,.53,0,.8,0" transform="translate(-11.67 -9.48)"/><path class="g" d="M135.9,49.65c.23,0,.46,0,.69,0A1.49,1.49,0,0,1,138,51.11a1.74,1.74,0,0,1-1.06,1.8,3.32,3.32,0,0,1-1.82.07.83.83,0,0,1-.67-.75,8.15,8.15,0,0,1,0-1.78.87.87,0,0,1,.87-.81h.58Z" transform="translate(-11.67 -9.48)"/><path class="t" d="M179.25,134.33l-.11.09.1-.11Z" transform="translate(-11.67 -9.48)"/><path class="i" d="M202.62,106.43l.23-.49h.36l-.18,1.47-.41,0Z" transform="translate(-11.67 -9.48)"/><path class="u" d="M210,103.54c-.2.09-.4.18-.6.29a1.28,1.28,0,0,1-1.89-.44c-.28-.45-.64-.92-.35-1.54,0-.07,0-.22-.08-.33a2.66,2.66,0,0,1,.14-2,1.85,1.85,0,0,1,1.3-1.06,1,1,0,0,1,1,.35,3.52,3.52,0,0,1,.78,3.32l-.33,1.37Zm-1.44-1.74c-.23-.48-.3-.57-.62-.58-.13,0-.27.16-.46.28A3.67,3.67,0,0,0,208.59,101.8Zm-.3.91-.34-.32c-.08.11-.23.21-.23.32s.15.21.23.31Z" transform="translate(-11.67 -9.48)"/><path class="u" d="M203.74,100a.46.46,0,0,1,.66-.16l.78.36h0l.23.48h0c.08.16.16.32.23.48h0a5.06,5.06,0,0,0,.14,1.38,2.8,2.8,0,0,1-.34,2.26,1.22,1.22,0,0,1-.78.64.82.82,0,0,1-.9-.36,6.07,6.07,0,0,0,.22-2.71C203.94,101.54,203.83,100.76,203.74,100Zm.47,2c.49,0,.82,0,1.13-.26A.84.84,0,0,0,204.21,102Zm.76.61c-.06.05-.17.11-.2.2-.08.25.08.53.3.52a.33.33,0,0,0,.24-.19A.41.41,0,0,0,205,102.6Z" transform="translate(-11.67 -9.48)"/><path class="f" d="M203.74,100c.09.79.2,1.57.25,2.37a6.07,6.07,0,0,1-.22,2.71,2.57,2.57,0,0,1-.94-1.83,5.83,5.83,0,0,1,.26-3l.24-.23Z" transform="translate(-11.67 -9.48)"/><path class="c" d="M205.83,105a7.28,7.28,0,0,0,.28-2.32c0-.2,0-.44.26-.44a.43.43,0,0,1,.32.26,3.51,3.51,0,0,0,1.56,2.1c0,.06,0,.13-.07.2h0l-2.25.29Z" transform="translate(-11.67 -9.48)"/><path class="f" d="M208.18,104.75c0-.07,0-.14.07-.2h0a.23.23,0,0,0,.11.08Z" transform="translate(-11.67 -9.48)"/><path class="v" d="M194.25,143.52l-1.19-.75a5.12,5.12,0,0,0,1.92-1h0a4.58,4.58,0,0,1-.19.75C194.64,142.87,194.44,143.19,194.25,143.52Z" transform="translate(-11.67 -9.48)"/><path class="v" d="M195.87,144.46l-.66-.4.93-.85h0Z" transform="translate(-11.67 -9.48)"/><path class="v" d="M196.14,143.21l.11-.1-.1.11Z" transform="translate(-11.67 -9.48)"/><path class="t" d="M193.37,140.57l.09-.09s0,.05,0,.06l-.08,0Z" transform="translate(-11.67 -9.48)"/><path class="v" d="M195,141.77l.11-.1s0,.06,0,.07l-.08,0Z" transform="translate(-11.67 -9.48)"/><path class="t" d="M208.18,104.75l.22-.12a1.26,1.26,0,0,1-.52,1.34,1.28,1.28,0,0,1-1.31.1.72.72,0,0,1-.47-.84,1.93,1.93,0,0,0,2.08-.48Z" transform="translate(-11.67 -9.48)"/><path class="f" d="M208.18,104.75a1.93,1.93,0,0,1-2.08.48l-.17-.19Z" transform="translate(-11.67 -9.48)"/><path class="r" d="M205.64,101.13c-.07-.16-.15-.32-.23-.48Z" transform="translate(-11.67 -9.48)"/><path class="r" d="M205.41,100.65l-.23-.48Z" transform="translate(-11.67 -9.48)"/><path class="r" d="M208.59,101.8a3.67,3.67,0,0,1-1.08-.3c.19-.12.33-.28.46-.28C208.29,101.23,208.36,101.32,208.59,101.8Z" transform="translate(-11.67 -9.48)"/><path class="o" d="M208.29,102.71,208,103c-.08-.1-.23-.21-.23-.31s.15-.21.23-.32Z" transform="translate(-11.67 -9.48)"/><path class="o" d="M204.21,102a.84.84,0,0,1,1.13-.26C205,102,204.7,102,204.21,102Z" transform="translate(-11.67 -9.48)"/><path class="o" d="M205,102.6a.41.41,0,0,1,.34.53.33.33,0,0,1-.24.19c-.22,0-.38-.27-.3-.52C204.8,102.71,204.91,102.65,205,102.6Z" transform="translate(-11.67 -9.48)"/></svg>